<?xml version="1.0" encoding="utf-8"?>
<!-- Generator: Adobe Illustrator 16.0.0, SVG Export Plug-In . SVG Version: 6.00 Build 0)  -->
<!DOCTYPE svg PUBLIC "-//W3C//DTD SVG 1.1//EN" "http://www.w3.org/Graphics/SVG/1.1/DTD/svg11.dtd">
<svg version="1.1" xmlns="http://www.w3.org/2000/svg" xmlns:xlink="http://www.w3.org/1999/xlink" x="0px" y="0px" width="700px"
	 height="700px" viewBox="0 0 700 700" enable-background="new 0 0 700 700" xml:space="preserve">
<g id="Layer_2">
</g>
<g id="Layer_3">
	<g>
		
			<radialGradient id="SVGID_1_" cx="408.4502" cy="242.5005" r="41.4998" gradientTransform="matrix(1.2388 0.1457 -0.1862 1.5833 -101.9996 -227.9998)" gradientUnits="userSpaceOnUse">
			<stop  offset="0" style="stop-color:#FFFFFF;stop-opacity:0.1686"/>
			<stop  offset="0.4431" style="stop-color:#FFFFFF;stop-opacity:3.921569e-002"/>
			<stop  offset="1" style="stop-color:#FFFFFF;stop-opacity:0"/>
		</radialGradient>
		<path fill-rule="evenodd" clip-rule="evenodd" fill="url(#SVGID_1_)" d="M399.7,174.3c8.3,13.7,11.4,29.4,9.3,47.1
			c-2.1,17.7-8.8,32.3-20,43.6c-11.3,11.4-23.8,16.2-37.7,14.6c-13.9-1.6-25-9.3-33.3-22.9c-8.3-13.7-11.4-29.4-9.3-47.1
			c2.1-17.7,8.8-32.3,20-43.6c11.3-11.4,23.8-16.2,37.7-14.6C380.2,153,391.3,160.6,399.7,174.3z"/>
		
			<radialGradient id="SVGID_2_" cx="408.4502" cy="242.5" r="41.5" gradientTransform="matrix(1.0739 0.8086 -1.0085 1.3394 210.7999 -301.05)" gradientUnits="userSpaceOnUse">
			<stop  offset="0" style="stop-color:#FFFFFF;stop-opacity:9.019608e-002"/>
			<stop  offset="0.4431" style="stop-color:#FFFFFF;stop-opacity:3.921569e-002"/>
			<stop  offset="1" style="stop-color:#FFFFFF;stop-opacity:0"/>
		</radialGradient>
		<path fill-rule="evenodd" clip-rule="evenodd" fill="url(#SVGID_2_)" d="M464.5,338.8c0.5,17-4.9,33-16.2,48
			c-11.3,15-25.2,24.6-41.6,28.8c-16.5,4.2-30.7,1.8-42.7-7.3c-12-9.1-18.3-22.1-18.8-39c-0.5-17,4.9-33,16.2-48
			s25.2-24.6,41.6-28.8c16.5-4.2,30.7-1.8,42.7,7.3C457.7,308.8,464,321.9,464.5,338.8z"/>
		
			<radialGradient id="SVGID_3_" cx="408.4502" cy="242.5" r="41.5" gradientTransform="matrix(0.7928 0.597 -0.7446 0.9888 91.5 -276.9504)" gradientUnits="userSpaceOnUse">
			<stop  offset="0" style="stop-color:#FFFFFF;stop-opacity:9.019608e-002"/>
			<stop  offset="0.4431" style="stop-color:#FFFFFF;stop-opacity:3.921569e-002"/>
			<stop  offset="1" style="stop-color:#FFFFFF;stop-opacity:0"/>
		</radialGradient>
		<path fill-rule="evenodd" clip-rule="evenodd" fill="url(#SVGID_3_)" d="M278.8,195.4c0.4,12.5-3.6,24.3-11.9,35.4
			c-8.3,11.1-18.6,18.2-30.7,21.3c-12.1,3.1-22.7,1.3-31.5-5.4c-8.9-6.7-13.5-16.3-13.9-28.8c-0.4-12.5,3.6-24.3,11.9-35.4
			c8.3-11.1,18.6-18.2,30.7-21.3c12.1-3.1,22.7-1.3,31.5,5.4C273.8,173.3,278.4,182.9,278.8,195.4z"/>
		
			<radialGradient id="SVGID_4_" cx="408.4502" cy="242.5" r="41.5" gradientTransform="matrix(1.199 1.279 -0.7446 0.9888 150.1002 -561.8488)" gradientUnits="userSpaceOnUse">
			<stop  offset="0" style="stop-color:#FFFFFF;stop-opacity:9.019608e-002"/>
			<stop  offset="0.4431" style="stop-color:#FFFFFF;stop-opacity:3.921569e-002"/>
			<stop  offset="1" style="stop-color:#FFFFFF;stop-opacity:0"/>
		</radialGradient>
		<path fill-rule="evenodd" clip-rule="evenodd" fill="url(#SVGID_4_)" d="M514.9,208.7c3.6,17.9,1.2,32.4-7.1,43.5
			c-8.3,11.1-20.2,15.5-35.5,13.2c-15.4-2.3-29.7-10.6-43.2-24.9c-13.4-14.3-21.9-30.4-25.5-48.4c-3.6-17.9-1.2-32.4,7.1-43.5
			s20.2-15.5,35.5-13.2c15.4,2.3,29.7,10.6,43.2,24.9C502.9,174.6,511.4,190.7,514.9,208.7z"/>
		
			<radialGradient id="SVGID_5_" cx="408.4502" cy="242.5" r="41.5" gradientTransform="matrix(1.199 1.279 -0.9635 1.2795 14.8998 -329.1498)" gradientUnits="userSpaceOnUse">
			<stop  offset="0" style="stop-color:#FFFFFF;stop-opacity:9.019608e-002"/>
			<stop  offset="0.4431" style="stop-color:#FFFFFF;stop-opacity:3.921569e-002"/>
			<stop  offset="1" style="stop-color:#FFFFFF;stop-opacity:0"/>
		</radialGradient>
		<path fill-rule="evenodd" clip-rule="evenodd" fill="url(#SVGID_5_)" d="M332.9,503.5c1.9,20.2-2.6,37.5-13.4,51.8
			s-24.7,21.5-41.8,21.5c-17.1,0-32.3-7.2-45.8-21.5c-13.4-14.3-21.1-31.6-22.9-51.8c-1.9-20.2,2.6-37.5,13.4-51.8
			c10.8-14.3,24.7-21.5,41.8-21.5c17.1,0,32.3,7.2,45.8,21.5S331.1,483.3,332.9,503.5z"/>
		
			<radialGradient id="SVGID_6_" cx="408.4502" cy="242.5" r="41.5" gradientTransform="matrix(0.6546 0.6983 -0.526 0.6986 349.3999 98.8993)" gradientUnits="userSpaceOnUse">
			<stop  offset="0" style="stop-color:#FFFFFF;stop-opacity:9.019608e-002"/>
			<stop  offset="0.4431" style="stop-color:#FFFFFF;stop-opacity:3.921569e-002"/>
			<stop  offset="1" style="stop-color:#FFFFFF;stop-opacity:0"/>
		</radialGradient>
		<path fill-rule="evenodd" clip-rule="evenodd" fill="url(#SVGID_6_)" d="M523,553.5c1,11-1.4,20.5-7.3,28.3s-13.5,11.7-22.8,11.7
			c-9.3,0-17.7-3.9-25-11.7c-7.3-7.8-11.5-17.2-12.5-28.3c-1-11,1.4-20.5,7.3-28.3c5.9-7.8,13.5-11.7,22.8-11.7
			c9.3,0,17.7,3.9,25,11.7C517.8,533,522,542.5,523,553.5z"/>
		
			<radialGradient id="SVGID_7_" cx="408.4512" cy="242.5" r="41.4995" gradientTransform="matrix(0.9163 -0.302 0.499 1.514 -265.0999 85.1496)" gradientUnits="userSpaceOnUse">
			<stop  offset="0" style="stop-color:#FFFFFF;stop-opacity:0.1686"/>
			<stop  offset="0.4431" style="stop-color:#FFFFFF;stop-opacity:3.921569e-002"/>
			<stop  offset="1" style="stop-color:#FFFFFF;stop-opacity:0"/>
		</radialGradient>
		<path fill-rule="evenodd" clip-rule="evenodd" fill="url(#SVGID_7_)" d="M242.1,276.9c11.2,9.6,19.6,22.8,25.2,39.8
			c5.6,17,6.7,32.6,3.4,47c-3.3,14.3-10.1,23.2-20.3,26.6s-21,0.3-32.2-9.3c-11.2-9.6-19.6-22.8-25.2-39.8c-5.6-17-6.7-32.6-3.4-47
			s10.1-23.2,20.3-26.6C220.2,264.3,230.9,267.4,242.1,276.9z"/>
		
			<radialGradient id="SVGID_8_" cx="408.4502" cy="242.5" r="41.5" gradientTransform="matrix(0.8206 0.5074 -0.8384 1.3559 115.1002 -187.1494)" gradientUnits="userSpaceOnUse">
			<stop  offset="0" style="stop-color:#FFFFFF;stop-opacity:0.1686"/>
			<stop  offset="0.4431" style="stop-color:#FFFFFF;stop-opacity:3.921569e-002"/>
			<stop  offset="1" style="stop-color:#FFFFFF;stop-opacity:0"/>
		</radialGradient>
		<path fill-rule="evenodd" clip-rule="evenodd" fill="url(#SVGID_8_)" d="M294.5,324.6c-0.1,14.7-4.9,29.7-14.3,44.9
			c-9.4,15.2-20.6,26.1-33.7,32.8c-13.1,6.7-24.3,7.2-33.4,1.5c-9.2-5.7-13.7-15.9-13.6-30.6c0.1-14.7,4.9-29.7,14.3-44.9
			s20.6-26.1,33.7-32.8c13.1-6.7,24.3-7.2,33.4-1.5S294.6,309.9,294.5,324.6z"/>
		
			<radialGradient id="SVGID_9_" cx="408.4502" cy="242.5" r="41.5" gradientTransform="matrix(0.5541 0.3426 -0.5661 0.9156 410.0994 210.1005)" gradientUnits="userSpaceOnUse">
			<stop  offset="0" style="stop-color:#FFFFFF;stop-opacity:0.1686"/>
			<stop  offset="0.4431" style="stop-color:#FFFFFF;stop-opacity:3.921569e-002"/>
			<stop  offset="1" style="stop-color:#FFFFFF;stop-opacity:0"/>
		</radialGradient>
		<path fill-rule="evenodd" clip-rule="evenodd" fill="url(#SVGID_9_)" d="M531.2,555.7c-0.1,9.9-3.3,20-9.7,30.3
			s-13.9,17.6-22.8,22.2c-8.8,4.5-16.4,4.9-22.6,1c-6.2-3.8-9.3-10.7-9.2-20.7c0.1-9.9,3.3-20,9.7-30.3
			c6.3-10.3,13.9-17.6,22.8-22.2c8.9-4.5,16.4-4.9,22.6-1C528.3,538.8,531.3,545.7,531.2,555.7z"/>
		
			<radialGradient id="SVGID_10_" cx="408.4512" cy="242.5" r="41.4995" gradientTransform="matrix(0.5541 0.3426 -0.5661 0.9156 363.0994 -108.9503)" gradientUnits="userSpaceOnUse">
			<stop  offset="0" style="stop-color:#FFFFFF;stop-opacity:0.1686"/>
			<stop  offset="0.4431" style="stop-color:#FFFFFF;stop-opacity:3.921569e-002"/>
			<stop  offset="1" style="stop-color:#FFFFFF;stop-opacity:0"/>
		</radialGradient>
		<path fill-rule="evenodd" clip-rule="evenodd" fill="url(#SVGID_10_)" d="M484.2,236.6c-0.1,9.9-3.3,20-9.7,30.3
			s-13.9,17.6-22.8,22.2c-8.8,4.5-16.4,4.9-22.6,1c-6.2-3.8-9.3-10.7-9.2-20.7c0.1-9.9,3.3-20,9.7-30.3s13.9-17.6,22.8-22.2
			c8.9-4.5,16.4-4.9,22.6-1C481.3,219.8,484.3,226.7,484.2,236.6z"/>
		
			<radialGradient id="SVGID_11_" cx="408.4502" cy="242.5" r="41.5" gradientTransform="matrix(1.4772 0.9134 -0.5662 0.9156 -196.9999 -72.8999)" gradientUnits="userSpaceOnUse">
			<stop  offset="0" style="stop-color:#FFFFFF;stop-opacity:0.1686"/>
			<stop  offset="0.4431" style="stop-color:#FFFFFF;stop-opacity:3.921569e-002"/>
			<stop  offset="1" style="stop-color:#FFFFFF;stop-opacity:0"/>
		</radialGradient>
		<path fill-rule="evenodd" clip-rule="evenodd" fill="url(#SVGID_11_)" d="M327.6,522.2c7.2,14.4,7.6,26.8,1.3,37.1
			c-6.3,10.3-17.6,15.4-33.7,15.4c-16.1,0-32.5-5.1-49-15.3c-16.5-10.2-28.4-22.6-35.6-37c-7.2-14.4-7.6-26.8-1.3-37.1
			c6.3-10.3,17.6-15.4,33.7-15.4c16.1,0,32.5,5.1,49,15.3C308.6,495.4,320.4,507.7,327.6,522.2z"/>
		
			<radialGradient id="SVGID_12_" cx="408.4512" cy="242.501" r="41.499" gradientTransform="matrix(0.6939 0.4291 -0.5662 0.9156 215.25 -37.75)" gradientUnits="userSpaceOnUse">
			<stop  offset="0" style="stop-color:#FFFFFF;stop-opacity:0.1686"/>
			<stop  offset="0.4431" style="stop-color:#FFFFFF;stop-opacity:3.921569e-002"/>
			<stop  offset="1" style="stop-color:#FFFFFF;stop-opacity:0"/>
		</radialGradient>
		<path fill-rule="evenodd" clip-rule="evenodd" fill="url(#SVGID_12_)" d="M397.5,345.6c1,10.6-1.7,21.1-8,31.3
			c-6.3,10.3-14.5,17.3-24.4,21.1c-10,3.8-18.8,3.4-26.6-1.4c-7.8-4.8-12.2-12.5-13.2-23.1c-1-10.6,1.7-21.1,8-31.3
			c6.3-10.3,14.5-17.3,24.4-21.1c10-3.8,18.8-3.4,26.6,1.4C392.1,327.3,396.5,335,397.5,345.6z"/>
		
			<radialGradient id="SVGID_13_" cx="408.4502" cy="242.5005" r="41.4998" gradientTransform="matrix(1.2388 0.1457 -0.1862 1.5833 -239.0494 -288.9998)" gradientUnits="userSpaceOnUse">
			<stop  offset="0" style="stop-color:#FFFFFF;stop-opacity:0.1686"/>
			<stop  offset="0.4431" style="stop-color:#FFFFFF;stop-opacity:3.921569e-002"/>
			<stop  offset="1" style="stop-color:#FFFFFF;stop-opacity:0"/>
		</radialGradient>
		<path fill-rule="evenodd" clip-rule="evenodd" fill="url(#SVGID_13_)" d="M262.6,113.3c8.3,13.7,11.4,29.4,9.3,47.1
			s-8.8,32.3-20,43.6c-11.3,11.4-23.8,16.2-37.7,14.6s-25-9.3-33.3-22.9c-8.3-13.7-11.4-29.4-9.3-47.1c2.1-17.7,8.8-32.3,20-43.6
			c11.3-11.4,23.8-16.2,37.7-14.6C243.2,92,254.3,99.6,262.6,113.3z"/>
		
			<radialGradient id="SVGID_14_" cx="408.4502" cy="242.5005" r="41.4998" gradientTransform="matrix(1.2388 0.1457 -0.1862 1.5833 7.0502 -292.0994)" gradientUnits="userSpaceOnUse">
			<stop  offset="0" style="stop-color:#FFFFFF;stop-opacity:0.1686"/>
			<stop  offset="0.4431" style="stop-color:#FFFFFF;stop-opacity:3.921569e-002"/>
			<stop  offset="1" style="stop-color:#FFFFFF;stop-opacity:0"/>
		</radialGradient>
		<path fill-rule="evenodd" clip-rule="evenodd" fill="url(#SVGID_14_)" d="M508.7,110.2c8.3,13.7,11.4,29.4,9.3,47.1
			c-2.1,17.7-8.8,32.3-20,43.6c-11.3,11.4-23.8,16.2-37.7,14.6c-13.9-1.6-25-9.3-33.3-22.9c-8.3-13.7-11.4-29.4-9.3-47.1
			c2.1-17.7,8.8-32.3,20-43.6c11.3-11.4,23.8-16.2,37.7-14.6C489.3,88.9,500.4,96.5,508.7,110.2z"/>
		
			<radialGradient id="SVGID_15_" cx="408.4502" cy="242.5005" r="41.4998" gradientTransform="matrix(1.2388 0.1457 -0.1862 1.5833 -166.4498 -146.0496)" gradientUnits="userSpaceOnUse">
			<stop  offset="0" style="stop-color:#FFFFFF;stop-opacity:0.1686"/>
			<stop  offset="0.4431" style="stop-color:#FFFFFF;stop-opacity:3.921569e-002"/>
			<stop  offset="1" style="stop-color:#FFFFFF;stop-opacity:0"/>
		</radialGradient>
		<path fill-rule="evenodd" clip-rule="evenodd" fill="url(#SVGID_15_)" d="M335.2,256.2c8.3,13.7,11.4,29.4,9.3,47.1
			s-8.8,32.3-20,43.6c-11.3,11.4-23.8,16.2-37.7,14.6c-13.9-1.6-25-9.3-33.3-22.9c-8.3-13.7-11.4-29.4-9.3-47.1
			c2.1-17.7,8.8-32.3,20-43.6c11.3-11.4,23.8-16.2,37.7-14.6C315.8,234.9,326.9,242.6,335.2,256.2z"/>
		
			<radialGradient id="SVGID_16_" cx="408.4502" cy="242.5" r="41.5" gradientTransform="matrix(1.2388 0.1457 -0.2891 2.4575 -222.8999 -234.8011)" gradientUnits="userSpaceOnUse">
			<stop  offset="0" style="stop-color:#FFFFFF;stop-opacity:0.1686"/>
			<stop  offset="0.4431" style="stop-color:#FFFFFF;stop-opacity:3.921569e-002"/>
			<stop  offset="1" style="stop-color:#FFFFFF;stop-opacity:0"/>
		</radialGradient>
		<path fill-rule="evenodd" clip-rule="evenodd" fill="url(#SVGID_16_)" d="M256.8,354.4c7.5,20.6,9.6,44.6,6.4,72.1
			c-3.2,27.5-10.9,50.4-23,68.7c-12.1,18.3-25,26.6-38.9,24.9c-13.9-1.6-24.6-12.7-32.1-33.3c-7.5-20.6-9.6-44.6-6.4-72.1
			s10.9-50.4,23-68.7c12.1-18.3,25-26.6,38.9-24.9S249.3,333.9,256.8,354.4z"/>
		
			<radialGradient id="SVGID_17_" cx="408.4512" cy="242.499" r="41.5" gradientTransform="matrix(1.9805 -1.0199 0.4894 0.9502 -566.7988 627.6503)" gradientUnits="userSpaceOnUse">
			<stop  offset="0" style="stop-color:#FFFFFF;stop-opacity:0.1686"/>
			<stop  offset="0.4431" style="stop-color:#FFFFFF;stop-opacity:3.921569e-002"/>
			<stop  offset="1" style="stop-color:#FFFFFF;stop-opacity:0"/>
		</radialGradient>
		<path fill-rule="evenodd" clip-rule="evenodd" fill="url(#SVGID_17_)" d="M403.5,385.1c19.5-0.6,32,4.5,37.5,15.1
			c5.5,10.6,2.3,23.7-9.5,39.3c-11.8,15.6-28.8,29.1-50.9,40.5c-22.2,11.4-43,17.4-62.5,18c-19.5,0.5-32-4.5-37.5-15.1
			c-5.5-10.6-2.3-23.7,9.4-39.3c11.8-15.6,28.8-29.1,50.9-40.5C363.2,391.6,384,385.6,403.5,385.1z"/>
		
			<radialGradient id="SVGID_18_" cx="408.4502" cy="242.5" r="41.5" gradientTransform="matrix(1.6105 0.1895 -0.171 1.4539 -152.9503 -5.6)" gradientUnits="userSpaceOnUse">
			<stop  offset="0" style="stop-color:#FFFFFF;stop-opacity:0.1686"/>
			<stop  offset="0.4431" style="stop-color:#FFFFFF;stop-opacity:3.921569e-002"/>
			<stop  offset="1" style="stop-color:#FFFFFF;stop-opacity:0"/>
		</radialGradient>
		<path fill-rule="evenodd" clip-rule="evenodd" fill="url(#SVGID_18_)" d="M514.4,388.1c11.4,13,16.1,27.6,14.2,43.9
			c-1.9,16.3-9.9,29.4-24,39.4c-14.1,10-30.1,13.9-48.2,11.8s-32.7-9.7-44.1-22.7c-11.4-13-16.1-27.6-14.2-43.9
			c1.9-16.3,9.9-29.4,24-39.4c14.1-10,30.1-13.9,48.2-11.8S503.1,375.1,514.4,388.1z"/>
	</g>
	<g>
		<g>
			<g>
				<polygon fill-rule="evenodd" clip-rule="evenodd" fill="#CCCCCC" points="205.2,135 237.5,135 236.3,138.1 206.5,138.1 				"/>
				<linearGradient id="SVGID_19_" gradientUnits="userSpaceOnUse" x1="221.2959" y1="137.0298" x2="221.4348" y2="123.2047">
					<stop  offset="0" style="stop-color:#3D4054"/>
					<stop  offset="1" style="stop-color:#F2F2F2"/>
				</linearGradient>
				<rect x="205.2" y="123.3" fill-rule="evenodd" clip-rule="evenodd" fill="url(#SVGID_19_)" width="32.3" height="11.8"/>
			</g>
		</g>
		<g>
			
				<path fill-rule="evenodd" clip-rule="evenodd" fill="none" stroke="#FFFFFF" stroke-linecap="round" stroke-linejoin="round" stroke-miterlimit="3" stroke-opacity="0.549" d="
				M205.2,135v-11.8h32.3V135l-1.3,3.1h-29.7L205.2,135z M237.5,135h-32.3"/>
		</g>
	</g>
	<g>
		<g>
			<g>
				<polygon fill-rule="evenodd" clip-rule="evenodd" fill="#CCCCCC" points="256.4,135 288.8,135 287.5,138.1 257.8,138.1 				"/>
				<linearGradient id="SVGID_20_" gradientUnits="userSpaceOnUse" x1="272.4956" y1="137.0298" x2="272.6345" y2="123.2047">
					<stop  offset="0" style="stop-color:#3D4054"/>
					<stop  offset="1" style="stop-color:#F2F2F2"/>
				</linearGradient>
				<rect x="256.4" y="123.3" fill-rule="evenodd" clip-rule="evenodd" fill="url(#SVGID_20_)" width="32.4" height="11.8"/>
			</g>
		</g>
		<g>
			
				<path fill-rule="evenodd" clip-rule="evenodd" fill="none" stroke="#FFFFFF" stroke-linecap="round" stroke-linejoin="round" stroke-miterlimit="3" stroke-opacity="0.549" d="
				M287.5,138.1h-29.7l-1.4-3.1v-11.8h32.4V135L287.5,138.1z M288.8,135h-32.4"/>
		</g>
	</g>
	<g>
		<g>
			<g>
				<polygon fill-rule="evenodd" clip-rule="evenodd" fill="#CCCCCC" points="307.6,135 340,135 338.6,138.1 309,138.1 				"/>
				<linearGradient id="SVGID_21_" gradientUnits="userSpaceOnUse" x1="323.6953" y1="137.0298" x2="323.8342" y2="123.2047">
					<stop  offset="0" style="stop-color:#3D4054"/>
					<stop  offset="1" style="stop-color:#F2F2F2"/>
				</linearGradient>
				<rect x="307.6" y="123.3" fill-rule="evenodd" clip-rule="evenodd" fill="url(#SVGID_21_)" width="32.4" height="11.8"/>
			</g>
		</g>
		<g>
			
				<polyline fill-rule="evenodd" clip-rule="evenodd" fill="none" stroke="#FFFFFF" stroke-linecap="round" stroke-linejoin="round" stroke-miterlimit="3" stroke-opacity="0.549" points="
				340,135 338.6,138.1 309,138.1 307.6,135 307.6,123.3 340,123.3 340,135 307.6,135 			"/>
		</g>
	</g>
	<g>
		<g>
			<g>
				<polygon fill-rule="evenodd" clip-rule="evenodd" fill="#CCCCCC" points="358.8,135 391.2,135 389.8,138.1 360.2,138.1 				"/>
				<linearGradient id="SVGID_22_" gradientUnits="userSpaceOnUse" x1="374.8955" y1="137.0298" x2="375.0344" y2="123.2047">
					<stop  offset="0" style="stop-color:#3D4054"/>
					<stop  offset="1" style="stop-color:#F2F2F2"/>
				</linearGradient>
				<rect x="358.8" y="123.3" fill-rule="evenodd" clip-rule="evenodd" fill="url(#SVGID_22_)" width="32.4" height="11.8"/>
			</g>
		</g>
		<g>
			
				<polyline fill-rule="evenodd" clip-rule="evenodd" fill="none" stroke="#FFFFFF" stroke-linecap="round" stroke-linejoin="round" stroke-miterlimit="3" stroke-opacity="0.549" points="
				391.2,135 389.8,138.1 360.2,138.1 358.8,135 358.8,123.3 391.2,123.3 391.2,135 358.8,135 			"/>
		</g>
	</g>
	<g>
		<g>
			<g>
				<polygon fill-rule="evenodd" clip-rule="evenodd" fill="#CCCCCC" points="410,135 442.3,135 441,138.1 411.3,138.1 				"/>
				<linearGradient id="SVGID_23_" gradientUnits="userSpaceOnUse" x1="426.0947" y1="137.0298" x2="426.2336" y2="123.2047">
					<stop  offset="0" style="stop-color:#3D4054"/>
					<stop  offset="1" style="stop-color:#F2F2F2"/>
				</linearGradient>
				<rect x="410" y="123.3" fill-rule="evenodd" clip-rule="evenodd" fill="url(#SVGID_23_)" width="32.3" height="11.8"/>
			</g>
		</g>
		<g>
			
				<polyline fill-rule="evenodd" clip-rule="evenodd" fill="none" stroke="#FFFFFF" stroke-linecap="round" stroke-linejoin="round" stroke-miterlimit="3" stroke-opacity="0.549" points="
				442.3,135 441,138.1 411.3,138.1 410,135 410,123.3 442.3,123.3 442.3,135 410,135 			"/>
		</g>
	</g>
	<g>
		<g>
			<g>
				<polygon fill-rule="evenodd" clip-rule="evenodd" fill="#CCCCCC" points="461.2,135 493.5,135 492.3,138.1 462.5,138.1 				"/>
				<linearGradient id="SVGID_24_" gradientUnits="userSpaceOnUse" x1="477.2959" y1="137.0298" x2="477.4348" y2="123.2047">
					<stop  offset="0" style="stop-color:#3D4054"/>
					<stop  offset="1" style="stop-color:#F2F2F2"/>
				</linearGradient>
				<rect x="461.2" y="123.3" fill-rule="evenodd" clip-rule="evenodd" fill="url(#SVGID_24_)" width="32.3" height="11.8"/>
			</g>
		</g>
		<g>
			
				<polyline fill-rule="evenodd" clip-rule="evenodd" fill="none" stroke="#FFFFFF" stroke-linecap="round" stroke-linejoin="round" stroke-miterlimit="3" stroke-opacity="0.549" points="
				493.5,135 492.3,138.1 462.5,138.1 461.2,135 461.2,123.3 493.5,123.3 493.5,135 461.2,135 			"/>
		</g>
	</g>
</g>
</svg>
