<?xml version="1.0" encoding="utf-8"?>
<!-- Generator: Adobe Illustrator 16.0.0, SVG Export Plug-In . SVG Version: 6.00 Build 0)  -->
<!DOCTYPE svg PUBLIC "-//W3C//DTD SVG 1.1//EN" "http://www.w3.org/Graphics/SVG/1.1/DTD/svg11.dtd">
<svg version="1.1" xmlns="http://www.w3.org/2000/svg" xmlns:xlink="http://www.w3.org/1999/xlink" x="0px" y="0px" width="700px"
	 height="700px" viewBox="0 0 700 700" enable-background="new 0 0 700 700" xml:space="preserve">
<g id="Layer_1">
	<g>
		
			<radialGradient id="SVGID_1_" cx="320.25" cy="325.7002" r="409.4" gradientTransform="matrix(1 0 0 2.8374 0 -598.4463)" gradientUnits="userSpaceOnUse">
			<stop  offset="0" style="stop-color:#CEB197"/>
			<stop  offset="0.9882" style="stop-color:#474430"/>
		</radialGradient>
		<rect x="-10.9" y="-4.4" fill-rule="evenodd" clip-rule="evenodd" fill="url(#SVGID_1_)" width="717.4" height="714.7"/>
	</g>
	<g>
		<g>
			<linearGradient id="SVGID_2_" gradientUnits="userSpaceOnUse" x1="559.1504" y1="-25" x2="559.1504" y2="557.1">
				<stop  offset="0" style="stop-color:#999FAB"/>
				<stop  offset="0.1412" style="stop-color:#E4E5E8"/>
				<stop  offset="1" style="stop-color:#A6ADB3"/>
			</linearGradient>
			<polygon fill-rule="evenodd" clip-rule="evenodd" fill="url(#SVGID_2_)" points="554.7,593.4 554.7,83.1 554.7,83 563.7,74.1 
				563.7,602.4 554.7,593.5 			"/>
			<linearGradient id="SVGID_3_" gradientUnits="userSpaceOnUse" x1="142.5498" y1="78.5" x2="554.6498" y2="78.5">
				<stop  offset="0" style="stop-color:#999FAB"/>
				<stop  offset="0.1412" style="stop-color:#F3F4F5"/>
				<stop  offset="1" style="stop-color:#A6ADB3"/>
			</linearGradient>
			<polygon fill-rule="evenodd" clip-rule="evenodd" fill="url(#SVGID_3_)" points="554.7,83 142.6,83 142.5,83 133.5,74 133.5,74 
				563.7,74 563.7,74.1 554.7,83 			"/>
			<polygon fill-rule="evenodd" clip-rule="evenodd" fill="#99A0AA" points="554.7,83.1 554.7,593.4 554.7,593.5 142.6,593.5 
				142.5,593.5 142.5,83 142.6,83 554.7,83 			"/>
			<linearGradient id="SVGID_4_" gradientUnits="userSpaceOnUse" x1="138.0498" y1="83.0249" x2="138.0498" y2="602.3749">
				<stop  offset="0" style="stop-color:#999FAB"/>
				<stop  offset="0.1412" style="stop-color:#F3F4F5"/>
				<stop  offset="1" style="stop-color:#A6ADB3"/>
			</linearGradient>
			<polygon fill-rule="evenodd" clip-rule="evenodd" fill="url(#SVGID_4_)" points="142.5,83 142.5,593.5 142.5,593.5 133.5,602.5 
				133.5,593.5 133.5,83 133.5,74 142.5,83 			"/>
			<linearGradient id="SVGID_5_" gradientUnits="userSpaceOnUse" x1="114" y1="598" x2="590.1" y2="598">
				<stop  offset="0" style="stop-color:#999FAB"/>
				<stop  offset="0.1412" style="stop-color:#F3F4F5"/>
				<stop  offset="1" style="stop-color:#A6ADB3"/>
			</linearGradient>
			<polygon fill-rule="evenodd" clip-rule="evenodd" fill="url(#SVGID_5_)" points="142.6,593.5 554.7,593.5 554.7,593.5 
				563.7,602.4 563.7,602.5 554.7,602.5 142.5,602.5 133.5,602.5 133.5,602.5 142.5,593.5 			"/>
		</g>
	</g>
	<g>
		<g>
			<radialGradient id="SVGID_6_" cx="547.2002" cy="326.3999" r="247.0625" gradientUnits="userSpaceOnUse">
				<stop  offset="0" style="stop-color:#FFFFFF"/>
				<stop  offset="0.3961" style="stop-color:#FFFFFF;stop-opacity:0.8627"/>
				<stop  offset="1" style="stop-color:#FFFFFF;stop-opacity:0"/>
			</radialGradient>
			<path fill-rule="evenodd" clip-rule="evenodd" fill="url(#SVGID_6_)" d="M553.5,84.9c0.2,0,0.3,0,0.5,0c0.1,0,0.3,0,0.5,0
				c0.2,0,0.3,0.1,0.3,0.1v501.2c0,0-0.1,0.1-0.3,0.1c-0.2,0-0.3,0-0.5,0c-0.2,0-0.3,0-0.5,0c-0.2,0-0.2-0.1,0-0.1V85
				C553.3,85,553.3,84.9,553.5,84.9z"/>
			
				<radialGradient id="SVGID_7_" cx="350.4004" cy="80" r="145.5875" gradientTransform="matrix(-4.371139e-008 1 -1.4877 -6.502852e-008 469.4147 -270.4004)" gradientUnits="userSpaceOnUse">
				<stop  offset="0" style="stop-color:#FFFFFF"/>
				<stop  offset="0.5098" style="stop-color:#FFFFFF;stop-opacity:0.8627"/>
				<stop  offset="1" style="stop-color:#FFFFFF;stop-opacity:0"/>
			</radialGradient>
			<path fill-rule="evenodd" clip-rule="evenodd" fill="url(#SVGID_7_)" d="M551,83c0,0.2,0,0.3,0,0.5c0,0.1,0,0.3,0,0.5l-0.1,0.3
				H151c-0.1,0-0.1-0.1-0.1-0.3c0-0.2-0.1-0.3-0.1-0.5c0-0.2,0-0.3,0.1-0.5c0-0.2,0-0.2,0.1,0H551C551,82.9,551,82.9,551,83z"/>
			<radialGradient id="SVGID_8_" cx="143.1001" cy="335.5874" r="250.8127" gradientUnits="userSpaceOnUse">
				<stop  offset="0" style="stop-color:#FFFFFF"/>
				<stop  offset="0.3961" style="stop-color:#FFFFFF;stop-opacity:0.8627"/>
				<stop  offset="1" style="stop-color:#FFFFFF;stop-opacity:0"/>
			</radialGradient>
			<path fill-rule="evenodd" clip-rule="evenodd" fill="url(#SVGID_8_)" d="M143.5,84.9c0.2,0,0.3,0.1,0.3,0.1v501.2
				c0,0-0.1,0.1-0.3,0.1s-0.3,0-0.5,0c-0.2,0-0.3,0-0.5,0c-0.2,0-0.2-0.1,0-0.1V85c-0.2,0-0.2-0.1,0-0.1c0.2,0,0.3,0,0.5,0
				C143.2,84.9,143.3,84.9,143.5,84.9z"/>
		</g>
	</g>
</g>
<g id="Layer_2">
</g>
<g id="Layer_3">
</g>
</svg>
