<?xml version="1.0" encoding="utf-8"?>
<!-- Generator: Adobe Illustrator 16.0.0, SVG Export Plug-In . SVG Version: 6.00 Build 0)  -->
<!DOCTYPE svg PUBLIC "-//W3C//DTD SVG 1.1//EN" "http://www.w3.org/Graphics/SVG/1.1/DTD/svg11.dtd">
<svg version="1.1" xmlns="http://www.w3.org/2000/svg" xmlns:xlink="http://www.w3.org/1999/xlink" x="0px" y="0px" width="700px"
	 height="700px" viewBox="0 0 700 700" enable-background="new 0 0 700 700" xml:space="preserve">
<g id="Layer_1">
	<g>
		<g>
			
				<radialGradient id="SVGID_1_" cx="365.0996" cy="598.7002" r="458.5345" gradientTransform="matrix(1 0 0 0.9302 0 41.7709)" gradientUnits="userSpaceOnUse">
				<stop  offset="0" style="stop-color:#FFFFFF"/>
				<stop  offset="0.6" style="stop-color:#FEFEFE;stop-opacity:0.7804"/>
				<stop  offset="0.7804" style="stop-color:#FCFCFC;stop-opacity:0.2706"/>
				<stop  offset="1" style="stop-color:#FAFAFA;stop-opacity:0"/>
			</radialGradient>
			<path fill-rule="evenodd" clip-rule="evenodd" fill="url(#SVGID_1_)" d="M795.8,598.2c0.2,0.2,0.3,0.3,0.3,0.5
				c0,0.2-0.1,0.4-0.3,0.6c-0.2,0.1-0.3,0.2-0.5,0.2H-65c-0.2,0-0.4,0-0.5-0.2c-0.2-0.2-0.3-0.4-0.3-0.6c0-0.2,0.1-0.3,0.3-0.5
				c0.1-0.2,0.3-0.3,0.5-0.3h860.3C795.4,598,795.6,598,795.8,598.2z"/>
			<g>
				<linearGradient id="SVGID_2_" gradientUnits="userSpaceOnUse" x1="364.5508" y1="649.4502" x2="364.5508" y2="758.4502">
					<stop  offset="0" style="stop-color:#000000"/>
					<stop  offset="0.3647" style="stop-color:#342921"/>
					<stop  offset="1" style="stop-color:#342921"/>
				</linearGradient>
				<rect x="-65.6" y="600.5" fill-rule="evenodd" clip-rule="evenodd" fill="url(#SVGID_2_)" width="860.3" height="141.5"/>
			</g>
			<g>
				<line fill-rule="evenodd" clip-rule="evenodd" fill="none" x1="-19.5" y1="599.3" x2="706.4" y2="599.3"/>
			</g>
			<g>
				
					<radialGradient id="SVGID_3_" cx="355.6504" cy="442" r="504.2875" gradientTransform="matrix(1 0 0 1.1319 0 -58.3191)" gradientUnits="userSpaceOnUse">
					<stop  offset="0" style="stop-color:#709589"/>
					<stop  offset="0.7451" style="stop-color:#415452"/>
					<stop  offset="1" style="stop-color:#395257"/>
					<stop  offset="1" style="stop-color:#25363A"/>
				</radialGradient>
				<rect x="-65.6" y="-138.5" fill-rule="evenodd" clip-rule="evenodd" fill="url(#SVGID_3_)" width="860.3" height="595.8"/>
			</g>
			<g>
				<linearGradient id="SVGID_4_" gradientUnits="userSpaceOnUse" x1="364.7969" y1="472.6836" x2="364.8264" y2="446.5086">
					<stop  offset="0" style="stop-color:#000000"/>
					<stop  offset="0.1529" style="stop-color:#000000;stop-opacity:0.6588"/>
					<stop  offset="1" style="stop-color:#000000;stop-opacity:0"/>
				</linearGradient>
				<path fill-rule="evenodd" clip-rule="evenodd" fill="url(#SVGID_4_)" d="M794.7,483.9c0,4.9-0.9,7.3-2.8,7.3H-62.3
					c-1.8,0-2.8-2.4-2.8-7.3v-72.3h859.8V483.9z"/>
			</g>
			<g>
				<g>
					<rect x="-65.9" y="654.4" fill-rule="evenodd" clip-rule="evenodd" fill="#493A25" width="860.6" height="20.6"/>
					
						<radialGradient id="SVGID_5_" cx="331.2998" cy="449.8496" r="491.0875" gradientTransform="matrix(1 0 0 1.2579 0 -116.0378)" gradientUnits="userSpaceOnUse">
						<stop  offset="0" style="stop-color:#CEB197"/>
						<stop  offset="0.9882" style="stop-color:#474430"/>
					</radialGradient>
					<rect x="-65.9" y="274.3" fill-rule="evenodd" clip-rule="evenodd" fill="url(#SVGID_5_)" width="860.6" height="380.1"/>
				</g>
			</g>
			<g>
				
					<radialGradient id="SVGID_6_" cx="436.6816" cy="655" r="426.0578" gradientTransform="matrix(1 0 -0.2927 2.6155 118.4021 -1058.1775)" gradientUnits="userSpaceOnUse">
					<stop  offset="0" style="stop-color:#FFFFFF"/>
					<stop  offset="0.749" style="stop-color:#FFFFFF;stop-opacity:0.498"/>
					<stop  offset="1" style="stop-color:#FFFFFF;stop-opacity:0"/>
				</radialGradient>
				<polygon fill-rule="evenodd" clip-rule="evenodd" fill="url(#SVGID_6_)" points="789.5,654.4 789.3,655.9 -62.8,655.9 
					-62.6,654.4 				"/>
			</g>
		</g>
		<g>
			<linearGradient id="SVGID_7_" gradientUnits="userSpaceOnUse" x1="347.4106" y1="-401.3345" x2="347.9265" y2="127.1403">
				<stop  offset="0" style="stop-color:#FFFFFF"/>
				<stop  offset="0.9765" style="stop-color:#FEF9D3;stop-opacity:0"/>
			</linearGradient>
			<path fill-rule="evenodd" clip-rule="evenodd" fill="url(#SVGID_7_)" d="M126.1-21.6h440.2l156.9,196V282H-27.1V157.3
				C2.5,122,33.9,85.1,67,46.8C89.9,20.8,109.6-2,126.1-21.6z"/>
		</g>
	</g>
</g>
<g id="Layer_4">
	<g>
		<linearGradient id="SVGID_8_" gradientUnits="userSpaceOnUse" x1="562.7695" y1="599.9482" x2="562.7399" y2="635.9482">
			<stop  offset="0" style="stop-color:#000000;stop-opacity:0.251"/>
			<stop  offset="1" style="stop-color:#000000;stop-opacity:0"/>
		</linearGradient>
		<polygon fill-rule="evenodd" clip-rule="evenodd" fill="url(#SVGID_8_)" points="707.8,653 417.7,653 438.7,310.4 658.9,310.4 		
			"/>
		
			<linearGradient id="SVGID_9_" gradientUnits="userSpaceOnUse" x1="453.5049" y1="-166.2305" x2="512.4299" y2="-166.2305" gradientTransform="matrix(1.697073e-005 1 -1 -2.086666e-004 2.719435e-004 7.538023e-005)">
			<stop  offset="0" style="stop-color:#000000;stop-opacity:0.251"/>
			<stop  offset="1" style="stop-color:#000000;stop-opacity:0"/>
		</linearGradient>
		<polygon fill-rule="evenodd" clip-rule="evenodd" fill="url(#SVGID_9_)" points="351.5,329.6 328.8,519.2 -19,519.2 50.6,329.6 		
			"/>
	</g>
</g>
<g id="Layer_5">
	<path fill-rule="evenodd" clip-rule="evenodd" d="M639.3,310.4L671,596H423.8l18.9-285.6H639.3z M77,329.6h270.5L333.9,460H28
		L77,329.6z"/>
</g>
<g id="Layer_2">
	<g>
		
			<path fill-rule="evenodd" clip-rule="evenodd" fill="none" stroke="#000000" stroke-width="5" stroke-linecap="square" stroke-linejoin="round" stroke-miterlimit="3" d="
			M190.3,325.2c-0.5,36,11.8,62.2,37,78.5c30.1,19,57.6,20.1,82.7,3.3"/>
		<rect x="96.3" y="342.8" fill="none" width="78.8" height="31.7"/>
		<text transform="matrix(1 0 0 1 110.9463 360.3818)" fill="#00FF00" font-family="'Digiface'" font-size="21.9141">00.00</text>
		<rect x="175.1" y="344.9" fill="none" width="78.8" height="31.7"/>
		<text transform="matrix(1 0 0 1 189.7461 362.4824)" fill="#00FF00" font-family="'Digiface'" font-size="21.9141">00.00</text>
		<g>
			<path fill-rule="evenodd" clip-rule="evenodd" fill="#D0D1CD" d="M349.3,243.3c0,0.1,0,0.1,0,0.2L338,313.3
				c-16.3-1.7-27.5-2.7-33.4-2.9c-5.9-0.3-9.9-0.1-11.9,0.4c-2.1,0.5-17.3,0.8-45.5,0.8L18,312l-4.5,5.9L53,237.2
				c0.2-0.1,1.1-0.1,2.7,0c1.5,0.1,4.8,0,9.9-0.1l276.9,1.2C345.6,239,347.9,240.7,349.3,243.3z"/>
		</g>
		<g>
			<polygon fill-rule="evenodd" clip-rule="evenodd" fill="#E1E1DF" points="349.3,244.1 349.4,243.9 348.3,318.4 334.4,439.7 
				337.6,313.4 			"/>
		</g>
		<g>
			<linearGradient id="SVGID_10_" gradientUnits="userSpaceOnUse" x1="332.127" y1="277.6953" x2="347.4275" y2="279.9166">
				<stop  offset="0" style="stop-color:#D0D1CD;stop-opacity:0.8902"/>
				<stop  offset="0.549" style="stop-color:#FFFFFF;stop-opacity:0.902"/>
				<stop  offset="1" style="stop-color:#E1E1DF;stop-opacity:0.9255"/>
			</linearGradient>
			<path fill-rule="evenodd" clip-rule="evenodd" fill="url(#SVGID_10_)" d="M338.6,238.2c7.5-0.4,11.2,2.5,11.1,8.8l-0.4,15.6
				l-10.6,56.9c1-6.3-2.2-9.6-9.6-10.1L338.6,238.2z"/>
		</g>
		<g>
			<g>
				<linearGradient id="SVGID_11_" gradientUnits="userSpaceOnUse" x1="316.4375" y1="443.9248" x2="322.4625" y2="443.9248">
					<stop  offset="0" style="stop-color:#000000"/>
					<stop  offset="0.4902" style="stop-color:#AAAAAA"/>
					<stop  offset="0.9882" style="stop-color:#000000"/>
				</linearGradient>
				<path fill-rule="evenodd" clip-rule="evenodd" fill="url(#SVGID_11_)" d="M306.9,444c-0.1,1.2-0.7,2.2-1.9,3.1
					c-0.6,0.4-1.2,0.7-2,1.1c-2.6,1.2-5.8,1.8-9.4,1.8c-3.7,0-6.8-0.6-9.4-1.8c-0.8-0.4-1.4-0.7-2-1.1c-1.2-0.9-1.8-1.9-1.9-3.1
					v-0.2c0.1-1.7,1.4-3.1,3.9-4.3c2.6-1.2,5.8-1.8,9.4-1.8c3.6,0,6.8,0.6,9.4,1.8c2.5,1.1,3.8,2.6,3.9,4.3V444z"/>
				<linearGradient id="SVGID_12_" gradientUnits="userSpaceOnUse" x1="280.2002" y1="450.1748" x2="306.8501" y2="450.1748">
					<stop  offset="0" style="stop-color:#000000"/>
					<stop  offset="0.4902" style="stop-color:#AAAAAA"/>
					<stop  offset="0.9882" style="stop-color:#000000"/>
				</linearGradient>
				<path fill-rule="evenodd" clip-rule="evenodd" fill="url(#SVGID_12_)" d="M280.2,444c0.1,1.2,0.7,2.2,1.9,3.1
					c0.6,0.4,1.2,0.7,2,1.1c2.6,1.2,5.8,1.8,9.4,1.8c3.6,0,6.8-0.6,9.4-1.8c0.8-0.4,1.4-0.7,2-1.1c1.2-0.9,1.8-1.9,1.9-3.1v6.3
					c-0.1,1.7-1.4,3.1-3.9,4.3c-2.6,1.2-5.8,1.8-9.4,1.8c-3.7,0-6.8-0.6-9.4-1.8c-2.5-1.2-3.8-2.6-3.9-4.3V444z"/>
			</g>
		</g>
		<g>
			<g>
				<linearGradient id="SVGID_13_" gradientUnits="userSpaceOnUse" x1="91.5376" y1="443.9248" x2="97.5626" y2="443.9248">
					<stop  offset="0" style="stop-color:#000000"/>
					<stop  offset="0.4902" style="stop-color:#AAAAAA"/>
					<stop  offset="0.9882" style="stop-color:#000000"/>
				</linearGradient>
				<path fill-rule="evenodd" clip-rule="evenodd" fill="url(#SVGID_13_)" d="M82,444c-0.1,1.2-0.7,2.2-1.9,3.1
					c-0.5,0.4-1.2,0.7-2,1.1c-2.6,1.2-5.8,1.8-9.4,1.8c-3.7,0-6.8-0.6-9.4-1.8c-0.8-0.4-1.5-0.7-2-1.1c-1.2-0.9-1.8-1.9-1.9-3.1
					v-0.2c0.1-1.7,1.4-3.1,4-4.3c2.6-1.2,5.7-1.8,9.4-1.8c3.6,0,6.8,0.6,9.4,1.8c2.5,1.1,3.8,2.6,3.9,4.3V444z"/>
				<linearGradient id="SVGID_14_" gradientUnits="userSpaceOnUse" x1="55.2998" y1="450.1748" x2="81.9502" y2="450.1748">
					<stop  offset="0" style="stop-color:#000000"/>
					<stop  offset="0.4902" style="stop-color:#AAAAAA"/>
					<stop  offset="0.9882" style="stop-color:#000000"/>
				</linearGradient>
				<path fill-rule="evenodd" clip-rule="evenodd" fill="url(#SVGID_14_)" d="M55.3,444c0.1,1.2,0.7,2.2,1.9,3.1
					c0.6,0.4,1.3,0.7,2,1.1c2.6,1.2,5.7,1.8,9.4,1.8c3.6,0,6.8-0.6,9.4-1.8c0.8-0.4,1.5-0.7,2-1.1c1.2-0.9,1.8-1.9,1.9-3.1v6.3
					c-0.1,1.7-1.4,3.1-3.9,4.3c-2.6,1.2-5.8,1.8-9.4,1.8c-3.7,0-6.8-0.6-9.4-1.8c-2.6-1.2-3.9-2.6-4-4.3V444z"/>
			</g>
		</g>
		<g>
			<g>
				<polygon fill-rule="evenodd" clip-rule="evenodd" fill="#D0D1CD" points="339.4,318.1 339.4,318.2 339.2,317.6 				"/>
				<linearGradient id="SVGID_15_" gradientUnits="userSpaceOnUse" x1="175.6416" y1="448.9502" x2="175.7653" y2="317.0502">
					<stop  offset="0" style="stop-color:#333949"/>
					<stop  offset="5.882353e-002" style="stop-color:#598AD7"/>
					<stop  offset="0.4275" style="stop-color:#6C7587"/>
					<stop  offset="0.5882" style="stop-color:#6C7587"/>
					<stop  offset="0.8157" style="stop-color:#6C7587"/>
					<stop  offset="1" style="stop-color:#313747"/>
				</linearGradient>
				<path fill-rule="evenodd" clip-rule="evenodd" fill="url(#SVGID_15_)" d="M324,313.5c3.2-0.1,5.6,0.6,7.4,2.1
					c1.8,1.6,2.6,4.3,2.4,7.9L329,438c-0.3,5.9-3.6,8.9-10,9l-278.2-0.5c-1.3-0.1-2.5-0.2-3.5-0.3c-7.1,0.1-9.7-2.3-7.8-7L18,326.9
					c-1.7-10.6,2.9-15.5,13.8-14.5l0.5,1.1c0.1,0,0.3,0,0.5,0L324,313.5z"/>
			</g>
		</g>
		<g>
			<g>
				<linearGradient id="SVGID_16_" gradientUnits="userSpaceOnUse" x1="94.0776" y1="351.4658" x2="96.286" y2="382.6367">
					<stop  offset="0" style="stop-color:#7E879A"/>
					<stop  offset="1" style="stop-color:#313747"/>
				</linearGradient>
				<polygon fill-rule="evenodd" clip-rule="evenodd" fill="url(#SVGID_16_)" points="94.2,344.1 96.4,374.3 96.3,374.5 95.1,375.8 
					92.9,344.1 				"/>
				<polygon fill-rule="evenodd" clip-rule="evenodd" fill="#0F1410" points="164.7,374.5 96.3,374.5 96.4,374.3 94.2,344.1 
					163.5,344.1 				"/>
				<linearGradient id="SVGID_17_" gradientUnits="userSpaceOnUse" x1="95.9126" y1="375.2246" x2="162.2876" y2="375.2246">
					<stop  offset="0" style="stop-color:#7E879A"/>
					<stop  offset="1" style="stop-color:#313747"/>
				</linearGradient>
				<polygon fill-rule="evenodd" clip-rule="evenodd" fill="url(#SVGID_17_)" points="96.3,374.5 164.7,374.5 164.7,376 95.1,375.9 
					95.1,375.8 				"/>
			</g>
		</g>
		<g>
			<g>
				<linearGradient id="SVGID_18_" gradientUnits="userSpaceOnUse" x1="171.2275" y1="351.4658" x2="173.4359" y2="382.6367">
					<stop  offset="0" style="stop-color:#7E879A"/>
					<stop  offset="1" style="stop-color:#313747"/>
				</linearGradient>
				<polygon fill-rule="evenodd" clip-rule="evenodd" fill="url(#SVGID_18_)" points="171.4,344.1 173.5,374.3 173.5,374.5 
					172.3,375.8 170.1,344.1 				"/>
				<polygon fill-rule="evenodd" clip-rule="evenodd" fill="#0F1410" points="241.9,374.5 173.5,374.5 173.5,374.3 171.4,344.1 
					240.6,344.1 				"/>
				<linearGradient id="SVGID_19_" gradientUnits="userSpaceOnUse" x1="173.0625" y1="375.2246" x2="239.4375" y2="375.2246">
					<stop  offset="0.5569" style="stop-color:#7E879A"/>
					<stop  offset="1" style="stop-color:#313747"/>
				</linearGradient>
				<polygon fill-rule="evenodd" clip-rule="evenodd" fill="url(#SVGID_19_)" points="173.5,374.5 241.9,374.5 241.9,376 
					172.3,375.9 172.3,375.8 				"/>
			</g>
		</g>
		<g>
			<path fill-rule="evenodd" clip-rule="evenodd" d="M269.3,342.8h6.9v0.9h-6l-0.2,10.9H269L269.3,342.8z M300.3,343.9H294V343h7.2
				l-0.4,11.8h-1L300.3,343.9z"/>
			<g>
				<path fill-rule="evenodd" clip-rule="evenodd" fill-opacity="0.3647" d="M247.4,344c0.4-0.4,1-0.7,1.6-0.7
					c0.6,0,1.1,0.2,1.5,0.7c0.4,0.4,0.6,0.9,0.6,1.4c0,0.6-0.2,1.1-0.6,1.6c-0.4,0.4-0.9,0.6-1.5,0.6c-0.6,0-1.1-0.2-1.6-0.6
					c-0.4-0.4-0.5-1-0.5-1.6C246.9,344.9,247,344.4,247.4,344z"/>
			</g>
			<g>
				<path fill-rule="evenodd" clip-rule="evenodd" fill-opacity="0.3647" d="M249,354.5c-0.6,0-1.1-0.2-1.6-0.6
					c-0.4-0.4-0.5-1-0.5-1.6c0-0.6,0.2-1,0.5-1.4c0.4-0.4,1-0.6,1.6-0.6c0.6,0,1.1,0.2,1.5,0.6c0.4,0.4,0.6,0.9,0.6,1.4
					c0,0.6-0.2,1.1-0.6,1.6C250.1,354.3,249.6,354.5,249,354.5z"/>
			</g>
			<g>
				<path fill-rule="evenodd" clip-rule="evenodd" fill-opacity="0.3647" d="M249,361.5c-0.6,0-1.1-0.2-1.6-0.6
					c-0.4-0.4-0.5-0.9-0.5-1.5c0-0.6,0.2-1.1,0.5-1.5c0.4-0.4,1-0.6,1.6-0.6c0.6,0,1.1,0.2,1.5,0.6c0.4,0.4,0.6,0.9,0.6,1.5
					c0,0.6-0.2,1.1-0.6,1.5C250.1,361.3,249.6,361.5,249,361.5z"/>
			</g>
			<g>
				<path fill-rule="evenodd" clip-rule="evenodd" fill-opacity="0.3647" d="M247.4,367.8c-0.4-0.4-0.5-0.9-0.5-1.5
					c0-0.5,0.2-1,0.5-1.5c0.4-0.4,1-0.7,1.6-0.7c0.6,0,1.1,0.2,1.5,0.7c0.4,0.4,0.6,0.9,0.6,1.5c0,0.6-0.2,1.1-0.6,1.5
					c-0.4,0.4-0.9,0.7-1.5,0.7C248.4,368.4,247.8,368.2,247.4,367.8z"/>
			</g>
			<g>
				<path fill-rule="evenodd" clip-rule="evenodd" fill-opacity="0.3647" d="M249,375.3c-0.6,0-1.1-0.2-1.6-0.6
					c-0.4-0.4-0.5-1-0.5-1.5c0-0.5,0.2-1,0.5-1.5c0.4-0.4,1-0.7,1.6-0.7c0.6,0,1.1,0.2,1.5,0.7c0.4,0.4,0.6,0.9,0.6,1.5
					c0,0.6-0.2,1.1-0.6,1.5C250.1,375.1,249.6,375.3,249,375.3z"/>
			</g>
			<g>
				<path fill-rule="evenodd" clip-rule="evenodd" fill-opacity="0.3647" d="M247.4,381.7c-0.4-0.4-0.5-1-0.5-1.6
					c0-0.6,0.2-1,0.5-1.4c0.4-0.4,1-0.7,1.6-0.7c0.6,0,1.1,0.2,1.5,0.7c0.4,0.4,0.6,0.9,0.6,1.4c0,0.6-0.2,1.1-0.6,1.6
					c-0.4,0.4-0.9,0.6-1.5,0.6C248.4,382.3,247.8,382.1,247.4,381.7z"/>
			</g>
			<g>
				<path fill-rule="evenodd" clip-rule="evenodd" fill-opacity="0.3647" d="M247.4,388.6c-0.4-0.4-0.5-0.9-0.5-1.5
					c0-0.6,0.2-1.1,0.5-1.5c0.4-0.4,1-0.6,1.6-0.6c0.6,0,1.1,0.2,1.5,0.6c0.4,0.4,0.6,0.9,0.6,1.5c0,0.6-0.2,1.1-0.6,1.5
					c-0.4,0.4-0.9,0.7-1.5,0.7C248.4,389.3,247.8,389,247.4,388.6z"/>
			</g>
			<g>
				<path fill-rule="evenodd" clip-rule="evenodd" fill-opacity="0.3647" d="M251.1,394.5c0,0.6-0.2,1.2-0.6,1.6
					c-0.4,0.4-0.9,0.6-1.5,0.6c-0.6,0-1.1-0.2-1.6-0.6c-0.4-0.4-0.5-1-0.5-1.6c0-0.5,0.2-1,0.5-1.5c0.4-0.4,1-0.6,1.6-0.6
					c0.6,0,1.1,0.2,1.5,0.6C250.9,393.5,251.1,394,251.1,394.5z"/>
			</g>
		</g>
		<g>
			<g>
				<path fill-rule="evenodd" clip-rule="evenodd" fill="#333333" d="M159.4,380.3c-1.2,1.1-1.8,2.4-1.8,4.1c0,1.6,0.6,3,1.8,4.2
					c1.1,1.1,2.5,1.7,4.1,1.7s3-0.6,4.2-1.7c1.2-1.2,1.8-2.6,1.8-4.2c0-1.7-0.6-3-1.8-4.1c-1.2-1.2-2.6-1.8-4.2-1.8
					S160.5,379.1,159.4,380.3z M158.8,389.3c-1.3-1.4-2-3-2-4.8c0-1.9,0.7-3.5,2-4.8c1.3-1.3,2.9-2,4.8-2s3.5,0.7,4.9,2
					c1.3,1.3,2,2.8,2,4.8c0,1.9-0.7,3.5-2,4.8c-1.3,1.3-3,2-4.9,2S160,390.6,158.8,389.3z"/>
				<radialGradient id="SVGID_20_" cx="160.2998" cy="381.2998" r="5.8" gradientUnits="userSpaceOnUse">
					<stop  offset="0" style="stop-color:#E2E4E9"/>
					<stop  offset="0.3569" style="stop-color:#A6BDE2"/>
					<stop  offset="1" style="stop-color:#598AD7"/>
				</radialGradient>
				<path fill-rule="evenodd" clip-rule="evenodd" fill="url(#SVGID_20_)" d="M159.4,380.3c1.1-1.2,2.5-1.8,4.1-1.8s3,0.6,4.2,1.8
					c1.2,1.1,1.8,2.4,1.8,4.1c0,1.6-0.6,3-1.8,4.2c-1.2,1.1-2.6,1.7-4.2,1.7s-3-0.6-4.1-1.7c-1.2-1.2-1.8-2.6-1.8-4.2
					C157.6,382.7,158.2,381.4,159.4,380.3z"/>
			</g>
		</g>
		<g>
			<g>
				<path fill-rule="evenodd" clip-rule="evenodd" fill="#333333" d="M105.6,379.7c1.3-1.3,2.9-2,4.8-2c1.9,0,3.5,0.7,4.9,2
					c1.3,1.3,2,2.8,2,4.8c0,1.9-0.7,3.5-2,4.8c-1.3,1.3-3,2-4.9,2c-1.9,0-3.5-0.7-4.8-2c-1.3-1.4-2-3-2-4.8
					C103.6,382.5,104.3,380.9,105.6,379.7z M110.4,378.5c-1.6,0-3,0.6-4.1,1.8c-1.2,1.1-1.8,2.4-1.8,4.1c0,1.6,0.6,3,1.8,4.2
					c1.1,1.1,2.5,1.7,4.1,1.7c1.7,0,3.1-0.6,4.2-1.7c1.2-1.2,1.8-2.6,1.8-4.2c0-1.7-0.6-3-1.8-4.1
					C113.4,379.1,112,378.5,110.4,378.5z"/>
				<radialGradient id="SVGID_21_" cx="107.1499" cy="381.2998" r="5.8" gradientUnits="userSpaceOnUse">
					<stop  offset="0" style="stop-color:#E2E4E9"/>
					<stop  offset="0.3569" style="stop-color:#A6BDE2"/>
					<stop  offset="1" style="stop-color:#598AD7"/>
				</radialGradient>
				<path fill-rule="evenodd" clip-rule="evenodd" fill="url(#SVGID_21_)" d="M110.4,378.5c1.7,0,3.1,0.6,4.2,1.8
					c1.2,1.1,1.8,2.4,1.8,4.1c0,1.6-0.6,3-1.8,4.2c-1.1,1.1-2.5,1.7-4.2,1.7c-1.6,0-3-0.6-4.1-1.7c-1.2-1.2-1.8-2.6-1.8-4.2
					c0-1.7,0.6-3,1.8-4.1C107.4,379.1,108.7,378.5,110.4,378.5z"/>
			</g>
		</g>
		<g>
			<g>
				<path fill-rule="evenodd" clip-rule="evenodd" fill="#333333" d="M177.1,388.6c1.1,1.1,2.5,1.7,4.1,1.7c1.7,0,3.1-0.6,4.2-1.7
					c1.2-1.2,1.8-2.6,1.8-4.2c0-1.7-0.6-3-1.8-4.1c-1.1-1.2-2.5-1.8-4.2-1.8c-1.6,0-3,0.6-4.1,1.8c-1.2,1.1-1.8,2.4-1.8,4.1
					C175.4,386,175.9,387.4,177.1,388.6z M181.2,391.3c-1.9,0-3.5-0.7-4.8-2c-1.3-1.4-2-3-2-4.8c0-1.9,0.7-3.5,2-4.8
					c1.3-1.3,2.9-2,4.8-2c1.9,0,3.5,0.7,4.8,2c1.3,1.3,2,2.8,2,4.8c0,1.9-0.7,3.5-2,4.8C184.7,390.6,183.1,391.3,181.2,391.3z"/>
				<radialGradient id="SVGID_22_" cx="178" cy="381.2998" r="5.8" gradientUnits="userSpaceOnUse">
					<stop  offset="0" style="stop-color:#E2E4E9"/>
					<stop  offset="0.3569" style="stop-color:#A6BDE2"/>
					<stop  offset="1" style="stop-color:#598AD7"/>
				</radialGradient>
				<path fill-rule="evenodd" clip-rule="evenodd" fill="url(#SVGID_22_)" d="M177.1,388.6c-1.2-1.2-1.8-2.6-1.8-4.2
					c0-1.7,0.6-3,1.8-4.1c1.1-1.2,2.5-1.8,4.1-1.8c1.7,0,3.1,0.6,4.2,1.8c1.2,1.1,1.8,2.4,1.8,4.1c0,1.6-0.6,3-1.8,4.2
					c-1.1,1.1-2.5,1.7-4.2,1.7C179.6,390.3,178.2,389.7,177.1,388.6z"/>
			</g>
		</g>
		<g>
			<g>
				<path fill-rule="evenodd" clip-rule="evenodd" fill="#333333" d="M238.5,380.3c-1.2-1.2-2.6-1.8-4.2-1.8s-3,0.6-4.1,1.8
					c-1.2,1.1-1.8,2.4-1.8,4.1c0,1.6,0.6,3,1.8,4.2c1.1,1.1,2.5,1.7,4.1,1.7s3-0.6,4.2-1.7c1.2-1.2,1.8-2.6,1.8-4.2
					C240.3,382.7,239.7,381.4,238.5,380.3z M234.4,377.7c1.9,0,3.5,0.7,4.9,2c1.3,1.3,2,2.8,2,4.8c0,1.9-0.7,3.5-2,4.8
					c-1.3,1.3-3,2-4.9,2c-1.9,0-3.5-0.7-4.8-2c-1.3-1.4-2-3-2-4.8c0-1.9,0.7-3.5,2-4.8C230.9,378.3,232.5,377.7,234.4,377.7z"/>
				<radialGradient id="SVGID_23_" cx="231.1499" cy="381.2998" r="5.8" gradientUnits="userSpaceOnUse">
					<stop  offset="0" style="stop-color:#E2E4E9"/>
					<stop  offset="0.3569" style="stop-color:#A6BDE2"/>
					<stop  offset="1" style="stop-color:#598AD7"/>
				</radialGradient>
				<path fill-rule="evenodd" clip-rule="evenodd" fill="url(#SVGID_23_)" d="M238.5,380.3c1.2,1.1,1.8,2.4,1.8,4.1
					c0,1.6-0.6,3-1.8,4.2c-1.2,1.1-2.6,1.7-4.2,1.7s-3-0.6-4.1-1.7c-1.2-1.2-1.8-2.6-1.8-4.2c0-1.7,0.6-3,1.8-4.1
					c1.1-1.2,2.5-1.8,4.1-1.8S237.4,379.1,238.5,380.3z"/>
			</g>
		</g>
		<g>
			<g>
				<g>
					<path fill-rule="evenodd" clip-rule="evenodd" fill="#333333" d="M128.1,378.5c-1.7,0-3.1,0.6-4.1,1.8
						c-1.1,1.1-1.7,2.4-1.7,4.1c0,1.6,0.6,3,1.7,4.2c1.1,1.1,2.5,1.7,4.1,1.7c1.6,0,3-0.6,4.2-1.7c1.1-1.2,1.7-2.6,1.7-4.2
						c0-1.7-0.6-3-1.7-4.1C131.1,379.1,129.7,378.5,128.1,378.5z M123.4,379.7c1.3-1.3,2.9-2,4.8-2c1.9,0,3.5,0.7,4.8,2
						c1.3,1.3,2,2.8,2,4.8c0,1.9-0.7,3.5-2,4.8c-1.3,1.3-2.9,2-4.8,2c-1.9,0-3.5-0.7-4.8-2c-1.4-1.4-2.1-3-2.1-4.8
						C121.3,382.5,122,380.9,123.4,379.7z"/>
					<radialGradient id="SVGID_24_" cx="124.8999" cy="381.2998" r="5.8" gradientUnits="userSpaceOnUse">
						<stop  offset="0" style="stop-color:#E2E4E9"/>
						<stop  offset="0.3569" style="stop-color:#A6BDE2"/>
						<stop  offset="1" style="stop-color:#598AD7"/>
					</radialGradient>
					<path fill-rule="evenodd" clip-rule="evenodd" fill="url(#SVGID_24_)" d="M128.1,378.5c1.6,0,3,0.6,4.2,1.8
						c1.1,1.1,1.7,2.4,1.7,4.1c0,1.6-0.6,3-1.7,4.2c-1.2,1.1-2.6,1.7-4.2,1.7c-1.7,0-3.1-0.6-4.1-1.7c-1.1-1.2-1.7-2.6-1.7-4.2
						c0-1.7,0.6-3,1.7-4.1C125,379.1,126.4,378.5,128.1,378.5z"/>
				</g>
			</g>
			<g>
				<polygon fill-rule="evenodd" clip-rule="evenodd" points="128,381.2 131.8,386.8 125.1,386.8 				"/>
			</g>
		</g>
		<g>
			<g>
				<g>
					<path fill-rule="evenodd" clip-rule="evenodd" fill="#333333" d="M141,389.3c-1.3-1.4-2-3-2-4.8c0-1.9,0.7-3.5,2-4.8
						c1.3-1.3,2.9-2,4.8-2c1.9,0,3.5,0.7,4.9,2c1.3,1.3,2,2.8,2,4.8c0,1.9-0.7,3.5-2,4.8c-1.4,1.3-3,2-4.9,2
						C143.9,391.3,142.3,390.6,141,389.3z M141.7,380.3c-1.2,1.1-1.8,2.4-1.8,4.1c0,1.6,0.6,3,1.8,4.2c1.1,1.1,2.4,1.7,4.1,1.7
						c1.6,0,3-0.6,4.2-1.7c1.1-1.2,1.7-2.6,1.7-4.2c0-1.7-0.6-3-1.7-4.1c-1.2-1.2-2.6-1.8-4.2-1.8
						C144.1,378.5,142.8,379.1,141.7,380.3z"/>
					<radialGradient id="SVGID_25_" cx="142.6001" cy="381.2998" r="5.8" gradientUnits="userSpaceOnUse">
						<stop  offset="0" style="stop-color:#E2E4E9"/>
						<stop  offset="0.3569" style="stop-color:#A6BDE2"/>
						<stop  offset="1" style="stop-color:#598AD7"/>
					</radialGradient>
					<path fill-rule="evenodd" clip-rule="evenodd" fill="url(#SVGID_25_)" d="M141.7,380.3c1.1-1.2,2.4-1.8,4.1-1.8
						c1.6,0,3,0.6,4.2,1.8c1.1,1.1,1.7,2.4,1.7,4.1c0,1.6-0.6,3-1.7,4.2c-1.2,1.1-2.6,1.7-4.2,1.7c-1.7,0-3-0.6-4.1-1.7
						c-1.2-1.2-1.8-2.6-1.8-4.2C140,382.7,140.5,381.4,141.7,380.3z"/>
				</g>
			</g>
			<g>
				<polygon fill-rule="evenodd" clip-rule="evenodd" points="146.5,387.8 142.6,382.2 149.4,382.2 				"/>
			</g>
		</g>
		<g>
			<g>
				<g>
					<path fill-rule="evenodd" clip-rule="evenodd" fill="#333333" d="M193.1,384.4c0,1.6,0.6,3,1.7,4.2c1.1,1.1,2.5,1.7,4.2,1.7
						c1.6,0,3-0.6,4.2-1.7c1.1-1.2,1.7-2.6,1.7-4.2c0-1.7-0.6-3-1.7-4.1c-1.2-1.2-2.6-1.8-4.2-1.8c-1.7,0-3.1,0.6-4.2,1.8
						C193.7,381.4,193.1,382.7,193.1,384.4z M192.1,384.4c0-1.9,0.7-3.5,2.1-4.8c1.3-1.3,2.8-2,4.8-2c1.9,0,3.5,0.7,4.8,2
						c1.4,1.3,2,2.8,2,4.8c0,1.9-0.7,3.5-2,4.8c-1.3,1.3-2.9,2-4.8,2c-1.9,0-3.5-0.7-4.8-2C192.8,387.9,192.1,386.3,192.1,384.4z"/>
					<radialGradient id="SVGID_26_" cx="195.75" cy="381.2998" r="5.8" gradientUnits="userSpaceOnUse">
						<stop  offset="0" style="stop-color:#E2E4E9"/>
						<stop  offset="0.3569" style="stop-color:#A6BDE2"/>
						<stop  offset="1" style="stop-color:#598AD7"/>
					</radialGradient>
					<path fill-rule="evenodd" clip-rule="evenodd" fill="url(#SVGID_26_)" d="M193.1,384.4c0-1.7,0.6-3,1.7-4.1
						c1.1-1.2,2.5-1.8,4.2-1.8c1.6,0,3,0.6,4.2,1.8c1.1,1.1,1.7,2.4,1.7,4.1c0,1.6-0.6,3-1.7,4.2c-1.2,1.1-2.6,1.7-4.2,1.7
						c-1.7,0-3.1-0.6-4.2-1.7C193.7,387.4,193.1,386,193.1,384.4z"/>
				</g>
			</g>
			<g>
				<polygon fill-rule="evenodd" clip-rule="evenodd" points="195.9,386.8 198.8,381.2 202.4,386.8 				"/>
			</g>
		</g>
		<g>
			<g>
				<g>
					<path fill-rule="evenodd" clip-rule="evenodd" fill="#333333" d="M220.9,380.3c-1.2-1.2-2.6-1.8-4.2-1.8s-3,0.6-4.1,1.8
						c-1.2,1.1-1.8,2.4-1.8,4.1c0,1.6,0.6,3,1.8,4.2c1.1,1.1,2.5,1.7,4.1,1.7s3-0.6,4.2-1.7c1.2-1.2,1.8-2.6,1.8-4.2
						C222.6,382.7,222,381.4,220.9,380.3z M216.6,377.7c1.9,0,3.5,0.7,4.9,2c1.3,1.3,2,2.8,2,4.8c0,1.9-0.7,3.5-2,4.8
						c-1.3,1.3-3,2-4.9,2s-3.5-0.7-4.8-2c-1.3-1.4-2-3-2-4.8c0-1.9,0.7-3.5,2-4.8C213.2,378.3,214.8,377.7,216.6,377.7z"/>
					<radialGradient id="SVGID_27_" cx="213.4502" cy="381.2998" r="5.8" gradientUnits="userSpaceOnUse">
						<stop  offset="0" style="stop-color:#E2E4E9"/>
						<stop  offset="0.3569" style="stop-color:#A6BDE2"/>
						<stop  offset="1" style="stop-color:#598AD7"/>
					</radialGradient>
					<path fill-rule="evenodd" clip-rule="evenodd" fill="url(#SVGID_27_)" d="M220.9,380.3c1.2,1.1,1.8,2.4,1.8,4.1
						c0,1.6-0.6,3-1.8,4.2c-1.2,1.1-2.6,1.7-4.2,1.7s-3-0.6-4.1-1.7c-1.2-1.2-1.8-2.6-1.8-4.2c0-1.7,0.6-3,1.8-4.1
						c1.1-1.2,2.5-1.8,4.1-1.8S219.7,379.1,220.9,380.3z"/>
				</g>
			</g>
			<g>
				<polygon fill-rule="evenodd" clip-rule="evenodd" points="220.1,382.2 217.1,387.8 213.5,382.2 				"/>
			</g>
		</g>
		<g>
			<path fill-rule="evenodd" clip-rule="evenodd" d="M55,341.5c0.1,0,0.2,0,0.4,0.1c0.1,0.1,0.2,0.3,0.2,0.4c0,0.1,0.1,0.3,0.1,0.4
				c0,0.2,0,0.3-0.1,0.4c0,0.1,0,0.3,0,0.4c-0.1,0.1-0.2,0.1-0.3,0.2c-0.1,0-0.3,0-0.3,0c-0.1,0-0.3,0-0.4,0
				c-0.1-0.1-0.2-0.1-0.3-0.2c-0.1-0.1-0.2-0.2-0.3-0.4c0-0.1,0-0.2,0-0.4c-0.1-0.1-0.1-0.3-0.1-0.4c0.1-0.1,0.1-0.2,0.1-0.4
				c0.1-0.1,0.2-0.1,0.3-0.2c0.1,0,0.3,0,0.4,0C54.8,341.5,54.9,341.5,55,341.5z M54.8,341.6c-0.2,0-0.4,0.1-0.5,0.2
				c-0.1,0.1-0.2,0.3-0.1,0.5c0,0.2,0.1,0.4,0.2,0.6c0.2,0.1,0.4,0.1,0.6,0.1c0.2,0,0.3-0.1,0.3-0.1c0.1-0.1,0.2-0.3,0.2-0.6
				c-0.1-0.3-0.2-0.4-0.3-0.5C55.1,341.7,55,341.6,54.8,341.6z M53.2,341.8c-0.1,0-0.1,0-0.2,0c0-0.1-0.1-0.1-0.1-0.1h-0.3l0.1,0.8
				h0.2c0.1,0,0.2,0,0.3,0c0.1,0,0.1,0,0.2-0.1v-0.1c0-0.1,0-0.1,0-0.2c0,0,0-0.1,0-0.1C53.2,341.9,53.2,341.8,53.2,341.8z
				 M53.5,341.8c0,0.1,0,0.1,0,0.3c0,0.1,0,0.2,0,0.3c0,0.1,0,0.1,0,0.2c-0.1,0-0.1,0-0.2,0c-0.1,0.1-0.3,0.1-0.3,0.1h-0.3l0.1,0.6
				h-0.3l-0.3-1.8h0.5c0.1,0,0.2,0,0.3,0.1c0.1,0,0.2,0,0.3,0C53.4,341.6,53.5,341.7,53.5,341.8z M60.1,341.8h-1v0.5h1l0.1,0.2h-1
				l0,0.7h1v0.2H59l-0.3-1.8H60L60.1,341.8z M56.1,341.5l0.8,1.6l0.1-1.6h0.3L58,343l0.1-1.6h0.3l-0.1,1.8h-0.4l-0.5-1.4l-0.3,1.4
				h-0.3l-0.8-1.8H56.1z M61.1,341.6h-0.3l0.1,0.8h0.3c0.1,0,0.1,0,0.1,0c0.1,0,0.1,0,0.1-0.1l0.1-0.1c0-0.1,0-0.1,0-0.2
				c0,0,0-0.1,0-0.1l-0.1-0.1c-0.1,0-0.1,0-0.1,0C61.3,341.7,61.2,341.6,61.1,341.6z M61.4,341.5c0.1,0.1,0.2,0.1,0.3,0.1
				c0.1,0.1,0.2,0.1,0.3,0.2c0,0.1,0,0.1,0,0.3c0,0.1,0,0.2,0,0.3c-0.1,0.1-0.2,0.2-0.3,0.2l0.8,0.8H62l-0.7-0.8H61l0.1,0.8h-0.3
				l-0.3-1.8H61C61.2,341.5,61.3,341.5,61.4,341.5z M59,383.2c0,0.2,0.1,0.4,0.3,0.5c0.1,0.1,0.3,0.2,0.5,0.2c0.2,0,0.3-0.1,0.5-0.2
				c0-0.1,0-0.3,0-0.5c0-0.2-0.1-0.4-0.3-0.5c-0.1-0.1-0.3-0.2-0.4-0.2c-0.2,0-0.4,0.1-0.5,0.2C59,382.8,59,383,59,383.2z
				 M59.3,382.3c0.1,0,0.2,0,0.4,0s0.3,0,0.4,0.1c0.1,0,0.2,0,0.3,0c0.1,0.1,0.1,0.3,0.1,0.4c0.1,0.1,0.2,0.2,0.2,0.4
				c0,0.2,0,0.3-0.1,0.3c0,0.1,0,0.3-0.1,0.4c-0.1,0-0.1,0.1-0.3,0.1c-0.1,0-0.3,0-0.4,0c-0.1,0-0.3,0-0.4,0
				c-0.1-0.1-0.2-0.1-0.4-0.1c-0.1-0.1-0.2-0.3-0.3-0.4c0-0.1,0-0.2,0-0.3c0-0.1,0-0.3,0-0.4c0-0.1,0.1-0.3,0.1-0.4
				C59,382.4,59.1,382.4,59.3,382.3z M61.4,382.3l1,1.5l-0.1-1.5h0.3l0.2,1.8h-0.4l-1.1-1.6l0.1,1.6h-0.3l-0.2-1.8H61.4z"/>
		</g>
		<g>
			<path fill-rule="evenodd" clip-rule="evenodd" d="M291,339v1.4c0,0.2,0,0.3-0.1,0.5c-0.1,0.2-0.1,0.3-0.2,0.4
				c-0.1,0.1-0.3,0.1-0.4,0.2c-0.1,0-0.3,0.1-0.4,0.1c-0.2,0-0.3,0-0.5-0.1c-0.1-0.1-0.2-0.1-0.4-0.2c-0.1-0.1-0.1-0.2-0.2-0.4
				c-0.1-0.1-0.1-0.3-0.1-0.5V339h0.4v1.5c0,0.1,0,0.2,0.1,0.3c0,0.1,0,0.1,0,0.2c0.1,0,0.1,0.1,0.2,0.1c0.1,0.1,0.3,0.1,0.4,0.1
				c0.1,0,0.2,0,0.3-0.1c0.1-0.1,0.2-0.1,0.3-0.1c0-0.1,0-0.1,0.1-0.2c0-0.1,0-0.2,0-0.3V339H291z M291.3,339.3V339h2.3v0.3h-1v2.1
				h-0.4v-2.1H291.3z M284.1,339.3V339h2.3v0.3h-1v2.1H285v-2.1H284.1z M283.9,339v1.4c0,0.2,0,0.3-0.1,0.5
				c-0.1,0.2-0.1,0.3-0.2,0.4c-0.1,0.1-0.2,0.1-0.3,0.2c-0.1,0-0.2,0.1-0.4,0.1c-0.2,0-0.4,0-0.5-0.1c-0.1-0.1-0.3-0.1-0.4-0.2
				c0-0.1-0.1-0.2-0.1-0.4c-0.1-0.1-0.1-0.3-0.1-0.5V339h0.4v1.5c0,0.1,0,0.2,0.1,0.3c0,0.1,0,0.1,0.1,0.2c0.1,0,0.1,0.1,0.2,0.1
				c0.1,0.1,0.2,0.1,0.4,0.1s0.2,0,0.3-0.1c0.1-0.1,0.2-0.1,0.3-0.1c0-0.1,0-0.1,0.1-0.2c0-0.1,0-0.2,0-0.3V339H283.9z M287.1,340.2
				h0.3c0.1,0,0.3,0,0.4,0c0.1-0.1,0.1-0.1,0.2-0.1c0.1-0.1,0.1-0.1,0.2-0.2c0,0,0-0.1,0-0.1c0-0.1,0-0.2-0.1-0.3
				c0-0.1,0-0.1-0.1-0.1c-0.1,0-0.1-0.1-0.2-0.1c-0.1,0-0.2,0-0.3,0h-0.4V340.2z M288.4,339.4c0.1,0.1,0.1,0.2,0.1,0.4
				c0,0.1,0,0.1-0.1,0.3c0,0.1,0,0.1-0.1,0.2c-0.1,0.1-0.2,0.2-0.3,0.2c-0.1,0-0.3,0.1-0.5,0.1h-0.4v0.9h-0.4V339h0.8
				c0.1,0,0.3,0,0.4,0c0.1,0,0.2,0,0.3,0.1C288.3,339.2,288.3,339.3,288.4,339.4z M279.5,339c0.2-0.1,0.4-0.1,0.6-0.1
				c0.2,0,0.4,0,0.4,0.1c0.2,0.1,0.4,0.2,0.5,0.3c0.1,0,0.1,0.2,0.2,0.4c0.1,0.2,0.1,0.4,0.1,0.6c0,0.2,0,0.3-0.1,0.5
				c-0.1,0.1-0.1,0.3-0.2,0.4c-0.1,0.1-0.3,0.2-0.5,0.3c-0.1,0-0.3,0.1-0.4,0.1c-0.2,0-0.4,0-0.6-0.1c-0.1-0.1-0.3-0.2-0.3-0.3
				c-0.1-0.1-0.2-0.2-0.3-0.4c0-0.2,0-0.4,0-0.5c0-0.2,0-0.4,0-0.6c0.1-0.2,0.2-0.3,0.3-0.4C279.3,339.2,279.4,339.1,279.5,339z
				 M279.2,340.2c0,0.3,0.1,0.5,0.3,0.8c0.1,0.2,0.3,0.3,0.6,0.3c0.2,0,0.4-0.1,0.6-0.3c0.1-0.2,0.2-0.5,0.2-0.8
				c0-0.3-0.1-0.6-0.2-0.8c-0.2-0.2-0.4-0.3-0.6-0.3c-0.3,0-0.5,0.1-0.6,0.3C279.3,339.6,279.2,339.9,279.2,340.2z"/>
		</g>
		<g>
			<polygon fill-rule="evenodd" clip-rule="evenodd" points="281.5,353.2 281.5,354.5 283,354.5 283,354.9 281.5,354.9 281.5,356.2 
				281.1,356.2 281.1,354.9 279.6,354.9 279.6,354.5 281.1,354.5 281.1,353.2 			"/>
		</g>
		<g>
			<polygon fill-rule="evenodd" clip-rule="evenodd" points="281.5,373.9 283,373.9 283,374.3 281.5,374.3 281.5,375.5 281.1,375.5 
				281.1,374.3 279.6,374.3 279.6,373.9 281.1,373.9 281.1,372.5 281.5,372.5 			"/>
		</g>
		<g>
			<polygon fill-rule="evenodd" clip-rule="evenodd" points="281.5,389.4 281.5,390.8 283,390.8 283,391.2 281.5,391.2 281.5,392.4 
				281.1,392.4 281.1,391.2 279.6,391.2 279.6,390.8 281.1,390.8 281.1,389.4 			"/>
		</g>
		<g>
			<rect x="310.5" y="391.3" fill-rule="evenodd" clip-rule="evenodd" width="1.8" height="0.5"/>
		</g>
		<g>
			<rect x="310.5" y="373.3" fill-rule="evenodd" clip-rule="evenodd" width="1.8" height="0.5"/>
		</g>
		<g>
			<rect x="310.5" y="354.8" fill-rule="evenodd" clip-rule="evenodd" width="1.8" height="0.5"/>
		</g>
		<g>
			<path fill-rule="evenodd" clip-rule="evenodd" fill="#000066" d="M69,321.5l1.6,4.9h-1.1l-0.3-1h-1.5l-0.3,1h-1h-1.3l-1.2-1.8
				h-0.4l0.1,1.8h-1l-0.2-4.9h1.6c0.2,0,0.5,0,0.6,0.1c0.2,0,0.3,0.1,0.5,0.3c0.2,0,0.3,0.1,0.4,0.3c0.1,0.2,0.2,0.4,0.2,0.7
				c0.1,0.4,0,0.6-0.2,0.8c-0.1,0.2-0.3,0.4-0.6,0.5l1.5,2.1l1.3-4.9H69z M75.2,321.5l0.2,4.9h-1l-0.1-3.3l-0.6,2.2H73l-0.9-2.2
				l0.1,3.3h-0.9l-0.2-4.9h1.2l0.9,2.4l0.8-2.4H75.2z M80.4,321.5l0.2,4.9h-1l-0.1-3.3l-0.6,2.2h-0.7l-0.9-2.2l0.1,3.3h-0.9
				l-0.2-4.9h1.2l0.9,2.4l0.9-2.4H80.4z M47.4,321.6c0.2,0.1,0.4,0.2,0.4,0.3c0.2,0.2,0.3,0.3,0.4,0.4c0.1,0.2,0.2,0.4,0.3,0.7
				c0,0.3,0,0.5-0.1,0.6c-0.1,0.2-0.1,0.4-0.3,0.5c-0.2,0.3-0.4,0.4-0.6,0.4c-0.1,0.1-0.3,0.2-0.6,0.2h-0.6v1.5h-1l-0.1-4.9h1.6
				C47,321.5,47.2,321.6,47.4,321.6z M51.4,321.6c0.2,0,0.3,0.1,0.5,0.3c0.2,0,0.3,0.1,0.4,0.3c0.1,0.2,0.2,0.4,0.2,0.7
				c0,0.4,0,0.6-0.2,0.8c-0.1,0.2-0.3,0.4-0.6,0.5l1.5,2.1h-1.3l-1.2-1.8h-0.4l0.1,1.8h-1l-0.2-4.9h1.6
				C51,321.5,51.2,321.6,51.4,321.6z M60.7,321.5c0.2,0.1,0.5,0.2,0.8,0.4v1.1h-0.1c0,0-0.1,0-0.3-0.1c-0.1-0.1-0.2-0.2-0.3-0.3
				c0-0.1-0.1-0.1-0.4-0.1c-0.1-0.1-0.3-0.1-0.5-0.1c-0.2,0-0.3,0.1-0.4,0.1c-0.1,0.1-0.3,0.1-0.4,0.2c-0.1,0.2-0.2,0.4-0.2,0.5
				c-0.1,0.2-0.1,0.4-0.1,0.7c0.1,0.6,0.2,1,0.4,1.3c0.2,0.3,0.5,0.5,1,0.5h0.1c0.1-0.1,0.1-0.1,0.2-0.1l-0.1-1h-0.8v-0.9h1.8
				l0.1,2.4c-0.2,0-0.5,0.1-0.8,0.3c-0.2,0.1-0.4,0.1-0.7,0.1c-0.7,0-1.3-0.3-1.8-0.8c-0.4-0.4-0.6-1-0.6-1.8
				c-0.1-0.7,0.1-1.3,0.4-1.8c0.4-0.4,1-0.7,1.7-0.7C60.2,321.5,60.4,321.5,60.7,321.5z M55.9,322.8c-0.1-0.1-0.1-0.1-0.3-0.2
				c-0.1-0.1-0.3-0.1-0.4-0.1c-0.2,0-0.3,0.1-0.4,0.1c-0.1,0-0.3,0.1-0.4,0.2c-0.1,0.2-0.1,0.4-0.1,0.5c-0.1,0.2-0.1,0.4-0.1,0.7
				c0,0.4,0,0.6,0.1,0.7c0.1,0.3,0.1,0.5,0.3,0.6c0.1,0.1,0.2,0.3,0.3,0.4c0.1,0,0.3,0,0.4,0c0.1,0,0.3,0,0.4,0
				c0.1-0.1,0.2-0.3,0.3-0.4c0.1-0.2,0.2-0.4,0.2-0.6c0-0.1,0-0.3,0-0.7c0-0.2,0-0.5-0.1-0.7C56,323.1,55.9,323,55.9,322.8z
				 M57.3,324c0.1,0.8-0.1,1.4-0.4,1.8c-0.3,0.5-0.8,0.8-1.5,0.8c-0.6,0-1.1-0.3-1.5-0.8c-0.4-0.4-0.6-1-0.6-1.8
				c-0.1-0.7,0.1-1.3,0.4-1.8c0.4-0.4,0.9-0.7,1.5-0.7c0.7,0,1.2,0.2,1.5,0.7C57,322.7,57.2,323.3,57.3,324z M51.2,322.8
				c0-0.1-0.1-0.1-0.2-0.2c-0.1,0-0.1,0-0.3,0c-0.1,0-0.2,0-0.3,0h-0.4l0.1,1.2h0.3c0.2,0,0.3,0,0.4,0c0.1,0,0.2,0,0.3-0.1
				c0.1-0.1,0.1-0.1,0.2-0.2c0-0.1,0-0.2,0-0.3C51.3,323,51.3,322.9,51.2,322.8z M47,322.6c-0.1-0.1-0.3-0.1-0.4-0.1
				c-0.1,0-0.2,0-0.4,0h-0.1l0,1.4h0.3c0.2,0,0.3,0,0.4-0.1c0.1,0,0.2,0,0.3-0.1c0-0.1,0-0.2,0-0.3c0.1-0.1,0.1-0.2,0.1-0.4
				c-0.1-0.1-0.1-0.2-0.1-0.4C47.1,322.7,47.1,322.6,47,322.6z M69,324.6l-0.6-1.6l-0.4,1.6H69z M64.6,322.8c0-0.1-0.1-0.1-0.1-0.2
				c-0.1,0-0.2,0-0.3,0c-0.1,0-0.1,0-0.3,0h-0.4l0.1,1.2h0.3c0.2,0,0.3,0,0.5,0c0.1,0,0.2,0,0.3-0.1c0.1-0.1,0.1-0.1,0.2-0.2
				c0-0.1,0-0.2,0-0.3C64.7,323,64.7,322.9,64.6,322.8z M145,321.6c0.2,0.1,0.4,0.2,0.5,0.3c0.2,0.2,0.3,0.3,0.4,0.4
				c0.1,0.2,0.2,0.4,0.3,0.7c0,0.3,0,0.5-0.1,0.6c-0.1,0.2-0.1,0.4-0.3,0.5c-0.2,0.3-0.4,0.4-0.5,0.4c-0.1,0.1-0.4,0.2-0.6,0.2H144
				v1.5h-1l-0.2-4.9h1.6C144.7,321.5,144.9,321.6,145,321.6z M149.1,321.6c0.2,0.1,0.3,0.2,0.4,0.3c0.2,0.2,0.3,0.3,0.4,0.4
				c0.1,0.2,0.2,0.4,0.3,0.7c0,0.3,0,0.5,0,0.6c-0.1,0.2-0.2,0.4-0.3,0.5c-0.2,0.3-0.3,0.4-0.5,0.4c-0.1,0.1-0.3,0.2-0.6,0.2H148
				v1.5h-1l-0.2-4.9h1.7C148.7,321.5,148.9,321.6,149.1,321.6z M151.8,321.5l0.2,3.9h1.8v1H151l-0.2-4.9H151.8z M157.8,321.5
				l-1.4,3.1l0.1,1.8h-1l-0.1-1.8l-1.6-3.1h1.1l1,2l0.8-2H157.8z M127.3,321.5v1h-1.8l0,0.9h1.8v0.9h-1.8l0.1,1.1h1.9v1h-2.9
				l-0.2-4.9H127.3z M123.7,321.5l-0.9,4.9h-1.1l-0.9-3.1l-0.6,3.1h-1.1l-1.3-4.9h1.1l0.8,3.4l0.5-3.4h1.1l0.9,3.4l0.5-3.4H123.7z
				 M136.6,321.5c0.3,0.1,0.6,0.2,0.8,0.3v1.1h-0.1c-0.2-0.1-0.4-0.3-0.6-0.4c-0.2-0.1-0.5-0.1-0.7-0.1c-0.1,0-0.1,0-0.2,0
				c-0.1,0-0.2,0.1-0.3,0.1c0,0-0.1,0-0.2,0.1c-0.1,0.1-0.1,0.2-0.1,0.3c0,0.1,0.1,0.1,0.2,0.1c0.1,0.1,0.3,0.2,0.5,0.3
				c0.2,0,0.3,0,0.4,0.1c0.1,0,0.3,0,0.5,0.1c0.3,0.1,0.5,0.3,0.6,0.5c0.1,0.1,0.2,0.4,0.3,0.9c0,0.4-0.1,0.8-0.4,1.1
				c-0.2,0.3-0.7,0.5-1.3,0.5c-0.3,0-0.7,0-1-0.1c-0.2-0.1-0.5-0.2-0.7-0.3V325h0.1c0.2,0.2,0.5,0.4,0.7,0.4
				c0.3,0.1,0.6,0.2,0.9,0.2c0,0,0.1,0,0.1,0c0.1,0,0.2,0,0.3,0c0.1-0.1,0.1-0.2,0.1-0.2c0.1-0.1,0.1-0.2,0.1-0.4
				c0-0.1,0-0.1-0.1-0.2c-0.2-0.1-0.3-0.2-0.4-0.2c-0.1,0-0.3,0-0.5,0c-0.2-0.1-0.3-0.1-0.4-0.1c-0.4-0.2-0.6-0.4-0.8-0.6
				c-0.2-0.2-0.3-0.5-0.4-0.8c0-0.4,0.2-0.8,0.5-1.1c0.3-0.3,0.7-0.4,1.3-0.4C136.2,321.5,136.4,321.5,136.6,321.5z M130.5,321.6
				c0.2,0,0.3,0.1,0.4,0.3c0.2,0,0.3,0.1,0.4,0.3c0.1,0.2,0.2,0.4,0.2,0.7c0.1,0.4,0,0.6-0.2,0.8c-0.1,0.2-0.3,0.4-0.5,0.5l1.5,2.1
				h-1.3l-1.2-1.8h-0.5l0.1,1.8h-1l-0.2-4.9h1.6C130.1,321.5,130.3,321.6,130.5,321.6z M139.2,321.5l0.1,3.1
				c0.1,0.3,0.2,0.5,0.3,0.7c0.1,0.2,0.3,0.3,0.5,0.3c0.3,0,0.5-0.1,0.6-0.3c0.1-0.2,0.1-0.4,0-0.7l0-3.1h1l0.1,3.1
				c0.1,0.6-0.1,1.1-0.4,1.4c-0.2,0.3-0.7,0.5-1.3,0.5c-0.5,0-1-0.1-1.4-0.5c-0.3-0.3-0.5-0.8-0.6-1.4l-0.1-3.1H139.2z M129.5,322.5
				h-0.4l0.1,1.2h0.3c0.2,0,0.3,0,0.5,0s0.2,0,0.3-0.1c0.1-0.1,0.1-0.1,0.2-0.2c0-0.1,0-0.2,0-0.3c-0.1-0.1-0.1-0.2-0.2-0.4
				c0-0.1,0-0.1-0.1-0.2c-0.1,0-0.2,0-0.3,0C129.7,322.5,129.6,322.5,129.5,322.5z M148.4,322.5c-0.1,0-0.2,0-0.4,0h-0.2l0.1,1.4
				h0.3c0.2,0,0.4,0,0.5-0.1c0.1,0,0.2,0,0.3-0.1c0.1-0.1,0.1-0.2,0.1-0.3c0.1-0.1,0.1-0.2,0.1-0.4c-0.1-0.1-0.1-0.2-0.2-0.4
				c-0.1-0.1-0.1-0.1-0.2-0.1C148.6,322.6,148.5,322.5,148.4,322.5z M144.9,322.8c-0.1-0.1-0.1-0.1-0.2-0.1
				c-0.1-0.1-0.3-0.1-0.4-0.1c-0.1,0-0.2,0-0.4,0h-0.2l0.1,1.4h0.3c0.2,0,0.3,0,0.5-0.1c0.1,0,0.2,0,0.3-0.1c0-0.1,0.1-0.2,0.1-0.3
				c0.1-0.1,0.1-0.2,0.1-0.4C145,323,144.9,322.9,144.9,322.8z M105.9,321.5c0.1,0,0.2,0,0.4,0.1c0.1,0,0.3,0.1,0.4,0.2
				c0.1,0,0.2,0,0.3,0.1l0.1,1.1h-0.2c-0.1,0-0.1-0.1-0.3-0.1c-0.1-0.1-0.1-0.2-0.2-0.3c-0.1-0.1-0.3-0.1-0.4-0.1
				c-0.1-0.1-0.3-0.1-0.4-0.1c-0.1,0-0.2,0.1-0.4,0.1c-0.2,0.1-0.3,0.1-0.4,0.2c-0.1,0.2-0.2,0.4-0.2,0.5c-0.1,0.2-0.1,0.4-0.1,0.7
				c0,0.4,0,0.6,0.1,0.7c0.1,0.3,0.3,0.5,0.3,0.6c0.1,0.1,0.3,0.3,0.4,0.4c0.1,0,0.2,0,0.3,0s0.3,0,0.4,0c0.1-0.1,0.3-0.2,0.4-0.3
				c0-0.1,0.1-0.1,0.3-0.3c0.1,0,0.1,0,0.2-0.1h0v1.1c-0.1,0.1-0.2,0.1-0.3,0.2c-0.1,0-0.3,0.1-0.3,0.2c-0.1,0-0.3,0-0.4,0
				c0,0.1-0.1,0.1-0.3,0.1c-0.3,0-0.6-0.1-0.9-0.3c-0.2,0-0.4-0.1-0.6-0.3c-0.2-0.2-0.3-0.5-0.4-0.9c-0.2-0.3-0.3-0.7-0.3-1.1
				c0-0.3,0-0.6,0.1-0.9c0.1-0.3,0.2-0.6,0.4-0.8c0.2-0.2,0.4-0.4,0.6-0.6c0.2-0.1,0.5-0.1,0.9-0.1
				C105.6,321.5,105.8,321.5,105.9,321.5z M111.8,321.6c0.2,0.1,0.4,0.2,0.5,0.3c0.2,0.2,0.3,0.3,0.4,0.4c0.1,0.2,0.2,0.4,0.3,0.7
				c0,0.3,0,0.5,0,0.6c-0.1,0.2-0.2,0.4-0.3,0.5c-0.2,0.3-0.3,0.4-0.5,0.4c-0.1,0.1-0.4,0.2-0.6,0.2h-0.6v1.5h-1l-0.2-4.9h1.7
				C111.4,321.5,111.6,321.6,111.8,321.6z M83.7,321.5l1.6,4.9h-1.1l-0.3-1h-1.5l-0.3,1h-1l1.3-4.9H83.7z M87.4,321.5
				c0.3,0,0.5,0,0.6,0.1c0.2,0,0.3,0.1,0.5,0.2c0.2,0.1,0.3,0.2,0.3,0.4c0.1,0.1,0.1,0.3,0.1,0.5c0,0.2,0,0.4-0.1,0.6
				c-0.1,0.1-0.2,0.3-0.3,0.4c0.2,0.1,0.4,0.2,0.5,0.4c0.2,0.3,0.3,0.5,0.4,0.9c0,0.2,0,0.4-0.1,0.6c-0.1,0.1-0.2,0.3-0.4,0.4
				c-0.1,0.1-0.3,0.2-0.5,0.2c-0.2,0.1-0.4,0.2-0.6,0.2H86l-0.2-4.9H87.4z M100.5,321.5c0.4,0,0.7,0,0.9,0.1
				c0.2,0.1,0.4,0.3,0.6,0.4c0.3,0.2,0.5,0.5,0.6,0.8c0.2,0.4,0.4,0.8,0.4,1.2c0,0.5-0.1,0.9-0.2,1.3c-0.2,0.4-0.4,0.6-0.6,0.8
				c-0.2,0.1-0.4,0.2-0.6,0.2c-0.2,0.1-0.5,0.2-0.8,0.2h-1.4l-0.1-4.9H100.5z M96.3,321.5v1h-1.8l0.1,0.9h1.8v0.9h-1.8l0.1,1.1h1.9
				v1h-2.9l-0.2-4.9H96.3z M91,321.5l0.2,3.9H93v1h-2.8l-0.2-4.9H91z M100.4,322.5h-0.3l0.1,3.1h0.3c0.2,0,0.4-0.1,0.5-0.2
				c0.1,0,0.1,0,0.3-0.1c0.2-0.2,0.4-0.3,0.5-0.4c0-0.2,0-0.5,0-0.9c0-0.3,0-0.6-0.1-0.9c-0.2-0.1-0.4-0.3-0.5-0.5
				c-0.1-0.1-0.3-0.1-0.4-0.1C100.8,322.5,100.6,322.5,100.4,322.5z M87.8,322.8c-0.1-0.1-0.1-0.1-0.1-0.2c-0.1,0-0.2,0-0.3,0
				s-0.3,0-0.5,0h-0.1l0.1,1h0.2c0.1,0,0.2,0,0.4,0s0.2,0,0.3-0.1c0.1,0,0.2,0,0.2-0.1c0-0.1,0-0.2-0.1-0.3
				C87.8,323,87.8,322.9,87.8,322.8z M86.9,324.3l0.1,1.3h0.1c0.2,0,0.4,0,0.5,0c0.1,0,0.2-0.1,0.4-0.2c0.1-0.1,0.2-0.1,0.3-0.2
				c0-0.1,0-0.2,0-0.3c-0.1-0.2-0.1-0.3-0.1-0.4c0-0.1-0.1-0.2-0.2-0.3c-0.1,0-0.3,0-0.4,0c-0.1,0-0.3,0-0.4,0H86.9z M82.7,324.6h1
				L83,323L82.7,324.6z M117,325.8c-0.3,0.5-0.8,0.8-1.5,0.8c-0.6,0-1.1-0.3-1.5-0.8c-0.4-0.4-0.6-1-0.6-1.8
				c-0.1-0.7,0.1-1.3,0.5-1.8c0.4-0.4,0.9-0.7,1.4-0.7c0.7,0,1.2,0.2,1.6,0.7c0.4,0.5,0.6,1.1,0.6,1.8
				C117.6,324.8,117.4,325.4,117,325.8z M115.8,322.5c-0.1-0.1-0.3-0.1-0.4-0.1c-0.2,0-0.3,0.1-0.4,0.1c-0.1,0-0.2,0.1-0.4,0.2
				c-0.1,0.2-0.1,0.4-0.1,0.5c-0.1,0.2-0.1,0.4-0.1,0.7c0,0.4,0,0.6,0.1,0.7c0.1,0.3,0.2,0.5,0.3,0.6c0.1,0.1,0.1,0.3,0.3,0.4
				c0.1,0,0.3,0,0.4,0c0.1,0,0.3,0,0.4,0c0.1-0.1,0.2-0.3,0.3-0.4c0.1-0.2,0.2-0.4,0.2-0.6c0-0.1,0-0.3,0-0.7c0-0.2,0-0.5-0.1-0.7
				c-0.1-0.2-0.2-0.3-0.3-0.5C116,322.7,115.9,322.6,115.8,322.5z M111.6,322.8c-0.1-0.1-0.1-0.1-0.2-0.1c-0.1-0.1-0.3-0.1-0.4-0.1
				c-0.1,0-0.2,0-0.4,0h-0.2l0.1,1.4h0.3c0.2,0,0.4,0,0.5-0.1c0.1,0,0.2,0,0.3-0.1c0.1-0.1,0.1-0.2,0.1-0.3c0-0.1,0-0.2,0-0.4
				C111.8,323,111.7,322.9,111.6,322.8z"/>
		</g>
		<g>
			<g>
				
					<radialGradient id="SVGID_28_" cx="-180.5244" cy="457.1563" r="6.3193" gradientTransform="matrix(0.629 -0.7774 1.0622 0.7002 -102.0983 -67.3051)" gradientUnits="userSpaceOnUse">
					<stop  offset="0.5686" style="stop-color:#000000"/>
					<stop  offset="1" style="stop-color:#7E879A;stop-opacity:0"/>
				</radialGradient>
				<path fill-rule="evenodd" clip-rule="evenodd" fill="url(#SVGID_28_)" d="M266,389.6c1.2-1.1,2.6-1.7,4.2-1.8l1.9,0.1
					c0.1,0,0.2,0,0.4,0.1c1.1,0.2,2.2,0.8,3.1,1.6c0.2,0.1,0.3,0.3,0.4,0.4c1.1,1.2,1.6,2.5,1.6,4c0,1.5-0.5,2.8-1.6,4
					c-0.1,0.1-0.2,0.3-0.4,0.3c-0.9,0.9-2,1.4-3.1,1.7h-0.1c-0.3,0.1-0.6,0.1-0.9,0.2c-0.2,0-0.5,0-0.8,0c-1.8,0-3.4-0.6-4.8-1.8
					c-1.3-1.2-2-2.7-2-4.3C264,392.2,264.7,390.8,266,389.6z"/>
			</g>
			<g>
				<g>
					
						<radialGradient id="SVGID_29_" cx="270.3496" cy="391.9004" r="6.1003" gradientTransform="matrix(1 0 0 0.9057 0 36.9414)" gradientUnits="userSpaceOnUse">
						<stop  offset="0" style="stop-color:#FD1C1C"/>
						<stop  offset="0.6039" style="stop-color:#840303"/>
						<stop  offset="1" style="stop-color:#EF1A1A"/>
					</radialGradient>
					<path fill-rule="evenodd" clip-rule="evenodd" fill="url(#SVGID_29_)" d="M272.9,389.7c-0.7-0.6-1.5-1-2.5-1
						c-1,0-1.9,0.3-2.6,1c-0.7,0.6-1.1,1.3-1.1,2.3c0,0.9,0.4,1.7,1.1,2.3c0.7,0.7,1.6,1,2.6,1c1,0,1.9-0.3,2.5-1
						c0.7-0.6,1.1-1.4,1.1-2.3C274,391,273.6,390.3,272.9,389.7z M276.5,391.8v0.3c-0.1,1.5-0.7,2.8-1.8,3.8
						c-1.2,1.1-2.7,1.6-4.4,1.6c-1.7,0-3.2-0.5-4.4-1.6c-1-0.9-1.6-2-1.8-3.3c0-0.2-0.1-0.4-0.1-0.6c0-0.3,0-0.6,0.1-0.8V391
						c0.2-1.1,0.8-2.1,1.8-2.9c1.2-1.1,2.7-1.7,4.4-1.7c1.7,0,3.1,0.5,4.4,1.7c1,0.8,1.6,1.8,1.8,3
						C276.5,391.4,276.5,391.6,276.5,391.8z"/>
					<path fill-rule="evenodd" clip-rule="evenodd" fill="#F2C98C" d="M272.9,389.7c0.7,0.6,1.1,1.3,1.1,2.3c0,0.9-0.4,1.7-1.1,2.3
						c-0.7,0.7-1.5,1-2.5,1c-1,0-1.9-0.3-2.6-1c-0.7-0.6-1.1-1.4-1.1-2.3c0-0.9,0.4-1.7,1.1-2.3c0.7-0.6,1.6-1,2.6-1
						C271.4,388.8,272.2,389.1,272.9,389.7z M272.6,392c0-0.5-0.2-1-0.6-1.5c-0.5-0.4-1-0.5-1.6-0.5c-0.7,0-1.3,0.2-1.8,0.5
						c-0.4,0.4-0.6,0.9-0.6,1.5c0,0.6,0.2,1.1,0.6,1.4c0.5,0.4,1.1,0.6,1.8,0.6c0.6,0,1.1-0.2,1.6-0.6
						C272.4,393.1,272.6,392.7,272.6,392z"/>
					<linearGradient id="SVGID_30_" gradientUnits="userSpaceOnUse" x1="264.1611" y1="388.2334" x2="276.536" y2="388.3067">
						<stop  offset="0" style="stop-color:#760101"/>
						<stop  offset="0.5059" style="stop-color:#FD1C1C"/>
						<stop  offset="1" style="stop-color:#840303"/>
					</linearGradient>
					<path fill-rule="evenodd" clip-rule="evenodd" fill="url(#SVGID_30_)" d="M276.5,391.8c0-0.2,0-0.5-0.1-0.7
						c-0.2-1.2-0.8-2.2-1.8-3c-1.2-1.1-2.7-1.7-4.4-1.7c-1.7,0-3.2,0.5-4.4,1.7c-1,0.8-1.6,1.8-1.8,2.9l0.1-1.8
						c0.1-1.1,0.7-2,1.7-2.9c1.2-1.1,2.7-1.7,4.4-1.7c1.7,0,3.1,0.5,4.4,1.7c1.1,1,1.7,2.1,1.8,3.4c0,0.1,0,0.2,0,0.4V391.8z"/>
					<path fill-rule="evenodd" clip-rule="evenodd" d="M272.6,392c0,0.6-0.2,1.1-0.6,1.4c-0.5,0.4-1,0.6-1.6,0.6
						c-0.7,0-1.3-0.2-1.8-0.6c-0.4-0.3-0.6-0.8-0.6-1.4c0-0.5,0.2-1,0.6-1.5c0.5-0.4,1.1-0.5,1.8-0.5c0.6,0,1.1,0.2,1.6,0.5
						C272.4,391,272.6,391.5,272.6,392z"/>
				</g>
			</g>
		</g>
		<g>
			<g>
				
					<radialGradient id="SVGID_31_" cx="-165.7603" cy="446.0859" r="6.3193" gradientTransform="matrix(0.629 -0.7774 1.0622 0.7002 -99.626 -65.6753)" gradientUnits="userSpaceOnUse">
					<stop  offset="0.5686" style="stop-color:#000000"/>
					<stop  offset="1" style="stop-color:#7E879A;stop-opacity:0"/>
				</radialGradient>
				<path fill-rule="evenodd" clip-rule="evenodd" fill="url(#SVGID_31_)" d="M272.1,370.3c0.1,0,0.2,0,0.4,0.1
					c1.1,0.2,2.2,0.8,3.1,1.6c0.2,0.1,0.3,0.3,0.4,0.4c1.1,1.1,1.6,2.4,1.6,3.9c0,1.5-0.5,2.9-1.6,4c-0.1,0.1-0.2,0.2-0.4,0.4
					c-0.9,0.8-2,1.4-3.1,1.6h-0.1c-0.3,0.1-0.6,0.1-0.9,0.2c-0.2,0-0.5,0-0.8,0c-1.8,0-3.4-0.6-4.8-1.8c-1.3-1.2-2-2.7-2-4.4
					s0.7-3.1,2-4.3c1.2-1.1,2.6-1.7,4.2-1.8L272.1,370.3z"/>
			</g>
			<g>
				<g>
					<linearGradient id="SVGID_32_" gradientUnits="userSpaceOnUse" x1="264.1611" y1="370.6201" x2="276.536" y2="370.6935">
						<stop  offset="0" style="stop-color:#760101"/>
						<stop  offset="0.5059" style="stop-color:#FD1C1C"/>
						<stop  offset="1" style="stop-color:#840303"/>
					</linearGradient>
					<path fill-rule="evenodd" clip-rule="evenodd" fill="url(#SVGID_32_)" d="M264.2,373.5l0.1-1.8c0.1-1.1,0.7-2.1,1.7-3
						c1.2-1.1,2.7-1.6,4.4-1.6c1.7,0,3.1,0.5,4.4,1.6c1.1,1,1.7,2.1,1.8,3.4c0,0.1,0,0.3,0,0.3v1.7c0-0.2,0-0.5-0.1-0.7
						c-0.2-1.1-0.8-2.1-1.8-3c-1.2-1.1-2.7-1.7-4.4-1.7c-1.7,0-3.2,0.6-4.4,1.7C265,371.4,264.4,372.3,264.2,373.5z"/>
					
						<radialGradient id="SVGID_33_" cx="270.3496" cy="374.25" r="6.1003" gradientTransform="matrix(1 0 0 0.9057 0 35.2777)" gradientUnits="userSpaceOnUse">
						<stop  offset="0" style="stop-color:#FD1C1C"/>
						<stop  offset="0.6039" style="stop-color:#840303"/>
						<stop  offset="1" style="stop-color:#EF1A1A"/>
					</radialGradient>
					<path fill-rule="evenodd" clip-rule="evenodd" fill="url(#SVGID_33_)" d="M276.5,374.2v0.3c-0.1,1.5-0.7,2.7-1.8,3.7
						c-1.2,1.1-2.7,1.7-4.4,1.7c-1.7,0-3.2-0.6-4.4-1.7c-1-0.9-1.6-2-1.8-3.3c0-0.2-0.1-0.4-0.1-0.7c0-0.3,0-0.6,0.1-0.8v0
						c0.2-1.1,0.8-2.1,1.8-3c1.2-1.1,2.7-1.7,4.4-1.7c1.7,0,3.1,0.6,4.4,1.7c1,0.9,1.6,1.9,1.8,3C276.5,373.8,276.5,374,276.5,374.2
						z M266.7,374.3c0,0.9,0.4,1.7,1.1,2.3c0.7,0.7,1.6,1,2.6,1c1,0,1.9-0.3,2.5-1c0.7-0.6,1.1-1.4,1.1-2.3c0-0.9-0.4-1.7-1.1-2.3
						c-0.7-0.6-1.5-0.9-2.5-0.9c-1,0-1.9,0.3-2.6,0.9C267.1,372.7,266.7,373.4,266.7,374.3z"/>
					<path fill-rule="evenodd" clip-rule="evenodd" fill="#F2C98C" d="M270.4,372.5c-0.7,0-1.3,0.2-1.8,0.5
						c-0.4,0.4-0.6,0.9-0.6,1.5c0,0.6,0.2,1,0.6,1.3c0.5,0.4,1.1,0.7,1.8,0.7c0.6,0,1.1-0.2,1.6-0.7c0.4-0.3,0.6-0.8,0.6-1.3
						c0-0.6-0.2-1.1-0.6-1.5C271.5,372.6,271,372.5,270.4,372.5z M266.7,374.3c0-0.9,0.4-1.7,1.1-2.3c0.7-0.6,1.6-0.9,2.6-0.9
						c1,0,1.9,0.3,2.5,0.9c0.7,0.6,1.1,1.4,1.1,2.3c0,0.9-0.4,1.7-1.1,2.3c-0.7,0.7-1.5,1-2.5,1c-1,0-1.9-0.3-2.6-1
						C267.1,376,266.7,375.3,266.7,374.3z"/>
					<path fill-rule="evenodd" clip-rule="evenodd" d="M270.4,372.5c0.6,0,1.1,0.2,1.6,0.5c0.4,0.4,0.6,0.9,0.6,1.5
						c0,0.6-0.2,1-0.6,1.3c-0.5,0.4-1,0.7-1.6,0.7c-0.7,0-1.3-0.2-1.8-0.7c-0.4-0.3-0.6-0.8-0.6-1.3c0-0.6,0.2-1.1,0.6-1.5
						C269.1,372.6,269.7,372.5,270.4,372.5z"/>
				</g>
			</g>
		</g>
		<g>
			<g>
				
					<radialGradient id="SVGID_34_" cx="-151.0376" cy="435.0469" r="6.3193" gradientTransform="matrix(0.629 -0.7774 1.0622 0.7002 -97.1606 -64.05)" gradientUnits="userSpaceOnUse">
					<stop  offset="0.5686" style="stop-color:#000000"/>
					<stop  offset="1" style="stop-color:#7E879A;stop-opacity:0"/>
				</radialGradient>
				<path fill-rule="evenodd" clip-rule="evenodd" fill="url(#SVGID_34_)" d="M276,354.8c1.1,1.2,1.6,2.5,1.6,4c0,1.5-0.5,2.8-1.6,4
					c-0.1,0.1-0.2,0.3-0.4,0.3c-0.9,0.9-2,1.4-3.1,1.7h-0.1c-0.3,0.1-0.6,0.1-0.9,0.2c-0.2,0-0.5,0-0.8,0c-1.8,0-3.4-0.6-4.8-1.9
					c-1.3-1.2-2-2.6-2-4.3c0-1.7,0.7-3.2,2-4.3c1.2-1.1,2.6-1.7,4.2-1.9l1.9,0.1c0.1,0,0.2,0,0.4,0.1c1.1,0.2,2.2,0.8,3.1,1.7
					C275.8,354.5,275.9,354.7,276,354.8z"/>
			</g>
			<g>
				<g>
					<linearGradient id="SVGID_35_" gradientUnits="userSpaceOnUse" x1="264.1611" y1="353.0703" x2="276.536" y2="353.1436">
						<stop  offset="0" style="stop-color:#760101"/>
						<stop  offset="0.5059" style="stop-color:#FD1C1C"/>
						<stop  offset="1" style="stop-color:#840303"/>
					</linearGradient>
					<path fill-rule="evenodd" clip-rule="evenodd" fill="url(#SVGID_35_)" d="M264.2,355.9l0.1-1.8c0.1-1.1,0.7-2.1,1.7-2.9
						c1.2-1.1,2.7-1.6,4.4-1.6c1.7,0,3.1,0.5,4.4,1.6c1.1,1,1.7,2.1,1.8,3.3c0,0.1,0,0.3,0,0.4v1.7c0-0.2,0-0.4-0.1-0.7
						c-0.2-1.2-0.8-2.2-1.8-3c-1.2-1.1-2.7-1.7-4.4-1.7c-1.7,0-3.2,0.6-4.4,1.7C265,353.8,264.4,354.8,264.2,355.9z"/>
					
						<radialGradient id="SVGID_36_" cx="270.3496" cy="356.7002" r="6.1003" gradientTransform="matrix(1 0 0 0.9057 0 33.6234)" gradientUnits="userSpaceOnUse">
						<stop  offset="0" style="stop-color:#FD1C1C"/>
						<stop  offset="0.6039" style="stop-color:#840303"/>
						<stop  offset="1" style="stop-color:#EF1A1A"/>
					</radialGradient>
					<path fill-rule="evenodd" clip-rule="evenodd" fill="url(#SVGID_36_)" d="M276.5,356.7v0.3c-0.1,1.5-0.7,2.8-1.8,3.8
						c-1.2,1.1-2.7,1.7-4.4,1.7c-1.7,0-3.2-0.6-4.4-1.7c-1-0.9-1.6-2-1.8-3.3c0-0.2-0.1-0.4-0.1-0.7c0-0.3,0-0.6,0.1-0.8v-0.1
						c0.2-1.1,0.8-2.1,1.8-2.9c1.2-1.1,2.7-1.7,4.4-1.7c1.7,0,3.1,0.6,4.4,1.7c1,0.8,1.6,1.8,1.8,3
						C276.5,356.2,276.5,356.4,276.5,356.7z M267.8,354.5c-0.7,0.6-1.1,1.4-1.1,2.3c0,0.9,0.4,1.7,1.1,2.3c0.7,0.7,1.6,1,2.6,1
						c1,0,1.9-0.3,2.5-1c0.7-0.6,1.1-1.4,1.1-2.3c0-0.9-0.4-1.6-1.1-2.3c-0.7-0.6-1.5-1-2.5-1C269.4,353.6,268.5,353.9,267.8,354.5z
						"/>
					<path fill-rule="evenodd" clip-rule="evenodd" fill="#F2C98C" d="M267.8,354.5c0.7-0.6,1.6-1,2.6-1c1,0,1.9,0.3,2.5,1
						c0.7,0.6,1.1,1.4,1.1,2.3c0,0.9-0.4,1.7-1.1,2.3c-0.7,0.7-1.5,1-2.5,1c-1,0-1.9-0.3-2.6-1c-0.7-0.6-1.1-1.4-1.1-2.3
						C266.7,355.9,267.1,355.2,267.8,354.5z M272,355.5c-0.5-0.4-1-0.5-1.6-0.5c-0.7,0-1.3,0.2-1.8,0.5c-0.4,0.4-0.6,0.9-0.6,1.5
						c0,0.6,0.2,1,0.6,1.3c0.5,0.4,1.1,0.7,1.8,0.7c0.6,0,1.1-0.2,1.6-0.7c0.4-0.3,0.6-0.8,0.6-1.3
						C272.6,356.4,272.4,355.9,272,355.5z"/>
					<path fill-rule="evenodd" clip-rule="evenodd" d="M272,355.5c0.4,0.4,0.6,0.9,0.6,1.5c0,0.6-0.2,1-0.6,1.3
						c-0.5,0.4-1,0.7-1.6,0.7c-0.7,0-1.3-0.2-1.8-0.7c-0.4-0.3-0.6-0.8-0.6-1.3c0-0.5,0.2-1,0.6-1.5c0.5-0.4,1.1-0.5,1.8-0.5
						C271,354.9,271.5,355.1,272,355.5z"/>
				</g>
			</g>
		</g>
		<g>
			<g>
				
					<radialGradient id="SVGID_37_" cx="-163.7407" cy="480.75" r="6.3193" gradientTransform="matrix(0.629 -0.7774 1.0622 0.7002 -107.3676 -70.7787)" gradientUnits="userSpaceOnUse">
					<stop  offset="0.5686" style="stop-color:#000000"/>
					<stop  offset="1" style="stop-color:#7E879A;stop-opacity:0"/>
				</radialGradient>
				<path fill-rule="evenodd" clip-rule="evenodd" fill="url(#SVGID_37_)" d="M296.4,389.6c1.2-1.1,2.6-1.7,4.2-1.8l2,0.1
					c0,0,0.1,0,0.4,0.1c1.2,0.2,2.2,0.8,3.1,1.6c0.2,0.1,0.3,0.3,0.3,0.4c1.1,1.2,1.7,2.5,1.7,4c0,1.5-0.6,2.8-1.7,4
					c-0.1,0.1-0.2,0.3-0.3,0.3c-0.9,0.9-1.9,1.4-3.1,1.7h-0.1c-0.2,0.1-0.5,0.1-0.8,0.2c-0.3,0-0.6,0-0.9,0c-1.8,0-3.4-0.6-4.8-1.8
					c-1.3-1.2-2-2.7-2-4.3C294.4,392.2,295,390.8,296.4,389.6z"/>
			</g>
			<g>
				<g>
					
						<radialGradient id="SVGID_38_" cx="282.1001" cy="391.7002" r="6.7125" gradientTransform="matrix(1 0 0 0.9088 0 35.7417)" gradientUnits="userSpaceOnUse">
						<stop  offset="0" style="stop-color:#000000"/>
						<stop  offset="1" style="stop-color:#000000"/>
					</radialGradient>
					<path fill-rule="evenodd" clip-rule="evenodd" fill="url(#SVGID_38_)" d="M303.2,389.7c-0.7-0.6-1.5-1-2.6-1
						c-1,0-1.8,0.3-2.5,1c-0.7,0.6-1.1,1.3-1.1,2.3c0,0.9,0.4,1.7,1.1,2.3c0.7,0.7,1.6,1,2.5,1c1,0,1.9-0.3,2.6-1
						c0.7-0.6,1.1-1.4,1.1-2.3C304.3,391,303.9,390.3,303.2,389.7z M306.9,391.8v0.3c-0.1,1.5-0.7,2.8-1.8,3.8
						c-1.2,1.1-2.7,1.6-4.4,1.6c-1.7,0-3.2-0.5-4.4-1.6c-1-0.9-1.6-2-1.7-3.3c-0.1-0.2-0.1-0.4-0.1-0.6c0-0.3,0-0.6,0.1-0.8V391
						c0.2-1.1,0.7-2.1,1.7-2.9c1.2-1.1,2.7-1.7,4.4-1.7c1.7,0,3.2,0.5,4.4,1.7c1,0.8,1.5,1.8,1.7,3
						C306.8,391.4,306.8,391.6,306.9,391.8z"/>
					<path fill-rule="evenodd" clip-rule="evenodd" fill="#F9E6CA" d="M303.2,389.7c0.7,0.6,1.1,1.3,1.1,2.3c0,0.9-0.4,1.7-1.1,2.3
						c-0.7,0.7-1.5,1-2.6,1c-1,0-1.8-0.3-2.5-1c-0.7-0.6-1.1-1.4-1.1-2.3c0-0.9,0.4-1.7,1.1-2.3c0.7-0.6,1.6-1,2.5-1
						C301.7,388.8,302.5,389.1,303.2,389.7z M300.6,390c-0.7,0-1.3,0.2-1.8,0.5c-0.4,0.4-0.6,0.9-0.6,1.5c0,0.6,0.2,1.1,0.6,1.4
						c0.5,0.4,1.1,0.6,1.8,0.6c0.6,0,1.1-0.2,1.6-0.6c0.4-0.3,0.7-0.8,0.7-1.4c0-0.5-0.2-1-0.7-1.5C301.8,390.2,301.3,390,300.6,390
						z"/>
					<linearGradient id="SVGID_39_" gradientUnits="userSpaceOnUse" x1="294.4604" y1="388.2324" x2="306.8353" y2="388.3058">
						<stop  offset="0" style="stop-color:#000000"/>
						<stop  offset="0.5647" style="stop-color:#FFFFFF;stop-opacity:0.8235"/>
						<stop  offset="0.9922" style="stop-color:#000000"/>
					</linearGradient>
					<path fill-rule="evenodd" clip-rule="evenodd" fill="url(#SVGID_39_)" d="M306.9,391.8c0-0.2,0-0.5-0.1-0.7
						c-0.2-1.2-0.7-2.2-1.7-3c-1.2-1.1-2.7-1.7-4.4-1.7c-1.7,0-3.2,0.5-4.4,1.7c-1,0.8-1.5,1.8-1.7,2.9l0.1-1.8
						c0.1-1.1,0.7-2,1.6-2.9c1.2-1.1,2.7-1.7,4.4-1.7c1.7,0,3.2,0.5,4.4,1.7c1.1,1,1.7,2.1,1.8,3.4c0,0.1,0,0.2,0,0.4V391.8z"/>
					<path fill-rule="evenodd" clip-rule="evenodd" d="M300.6,390c0.6,0,1.1,0.2,1.6,0.5c0.4,0.4,0.7,0.9,0.7,1.5
						c0,0.6-0.2,1.1-0.7,1.4c-0.5,0.4-1,0.6-1.6,0.6c-0.7,0-1.3-0.2-1.8-0.6c-0.4-0.3-0.6-0.8-0.6-1.4c0-0.5,0.2-1,0.6-1.5
						C299.4,390.2,300,390,300.6,390z"/>
				</g>
			</g>
		</g>
		<g>
			<g>
				
					<radialGradient id="SVGID_40_" cx="-148.9761" cy="469.6797" r="6.3193" gradientTransform="matrix(0.629 -0.7774 1.0622 0.7002 -104.8953 -69.1489)" gradientUnits="userSpaceOnUse">
					<stop  offset="0.5686" style="stop-color:#000000"/>
					<stop  offset="1" style="stop-color:#7E879A;stop-opacity:0"/>
				</radialGradient>
				<path fill-rule="evenodd" clip-rule="evenodd" fill="url(#SVGID_40_)" d="M302.5,370.3c0,0,0.1,0,0.4,0.1
					c1.2,0.2,2.2,0.8,3.1,1.6c0.2,0.1,0.3,0.3,0.3,0.4c1.1,1.1,1.7,2.4,1.7,3.9c0,1.5-0.6,2.9-1.7,4c-0.1,0.1-0.2,0.2-0.3,0.4
					c-0.9,0.8-1.9,1.4-3.1,1.6h-0.1c-0.2,0.1-0.5,0.1-0.8,0.2c-0.3,0-0.6,0-0.9,0c-1.8,0-3.4-0.6-4.8-1.8c-1.3-1.2-2-2.7-2-4.4
					s0.7-3.1,2-4.3c1.2-1.1,2.6-1.7,4.2-1.8L302.5,370.3z"/>
			</g>
			<g>
				<g>
					<linearGradient id="SVGID_41_" gradientUnits="userSpaceOnUse" x1="294.4609" y1="370.6201" x2="306.8358" y2="370.6935">
						<stop  offset="0" style="stop-color:#000000"/>
						<stop  offset="0.5647" style="stop-color:#FFFFFF;stop-opacity:0.8235"/>
						<stop  offset="0.9922" style="stop-color:#000000"/>
					</linearGradient>
					<path fill-rule="evenodd" clip-rule="evenodd" fill="url(#SVGID_41_)" d="M306.9,374.2c0-0.2,0-0.5-0.1-0.7
						c-0.2-1.1-0.7-2.1-1.7-3c-1.2-1.1-2.7-1.7-4.4-1.7c-1.7,0-3.2,0.6-4.4,1.7c-1,0.9-1.5,1.8-1.7,3l0.1-1.8c0.1-1.1,0.7-2.1,1.6-3
						c1.2-1.1,2.7-1.6,4.4-1.6c1.7,0,3.2,0.5,4.4,1.6c1.1,1,1.7,2.1,1.8,3.4c0,0.1,0,0.3,0,0.3V374.2z"/>
					
						<radialGradient id="SVGID_42_" cx="282.1001" cy="374.0498" r="6.7125" gradientTransform="matrix(1 0 0 0.9088 0 34.1312)" gradientUnits="userSpaceOnUse">
						<stop  offset="0" style="stop-color:#000000"/>
						<stop  offset="1" style="stop-color:#000000"/>
					</radialGradient>
					<path fill-rule="evenodd" clip-rule="evenodd" fill="url(#SVGID_42_)" d="M294.5,373.5c0.2-1.1,0.7-2.1,1.7-3
						c1.2-1.1,2.7-1.7,4.4-1.7c1.7,0,3.2,0.6,4.4,1.7c1,0.9,1.5,1.9,1.7,3c0.1,0.3,0.1,0.5,0.1,0.7v0.3c-0.1,1.5-0.7,2.7-1.8,3.7
						c-1.2,1.1-2.7,1.7-4.4,1.7c-1.7,0-3.2-0.6-4.4-1.7c-1-0.9-1.6-2-1.7-3.3c-0.1-0.2-0.1-0.4-0.1-0.7
						C294.5,374,294.5,373.8,294.5,373.5L294.5,373.5z M298.1,372c-0.7,0.6-1.1,1.4-1.1,2.3c0,0.9,0.4,1.7,1.1,2.3
						c0.7,0.7,1.6,1,2.5,1c1,0,1.9-0.3,2.6-1c0.7-0.6,1.1-1.4,1.1-2.3c0-0.9-0.4-1.7-1.1-2.3c-0.7-0.6-1.5-0.9-2.6-0.9
						C299.7,371.2,298.8,371.5,298.1,372z"/>
					<path fill-rule="evenodd" clip-rule="evenodd" fill="#F9E6CA" d="M302.3,373c-0.5-0.3-1-0.5-1.6-0.5c-0.7,0-1.3,0.2-1.8,0.5
						c-0.4,0.4-0.6,0.9-0.6,1.5c0,0.6,0.2,1,0.6,1.3c0.5,0.4,1.1,0.7,1.8,0.7c0.6,0,1.1-0.2,1.6-0.7c0.4-0.3,0.7-0.8,0.7-1.3
						C303,373.9,302.7,373.4,302.3,373z M298.1,372c0.7-0.6,1.6-0.9,2.5-0.9c1,0,1.9,0.3,2.6,0.9c0.7,0.6,1.1,1.4,1.1,2.3
						c0,0.9-0.4,1.7-1.1,2.3c-0.7,0.7-1.5,1-2.6,1c-1,0-1.8-0.3-2.5-1c-0.7-0.6-1.1-1.4-1.1-2.3C297,373.4,297.4,372.7,298.1,372z"
						/>
					<path fill-rule="evenodd" clip-rule="evenodd" d="M302.3,373c0.4,0.4,0.7,0.9,0.7,1.5c0,0.6-0.2,1-0.7,1.3
						c-0.5,0.4-1,0.7-1.6,0.7c-0.7,0-1.3-0.2-1.8-0.7c-0.4-0.3-0.6-0.8-0.6-1.3c0-0.6,0.2-1.1,0.6-1.5c0.5-0.3,1.1-0.5,1.8-0.5
						C301.3,372.5,301.8,372.6,302.3,373z"/>
				</g>
			</g>
		</g>
		<g>
			<g>
				
					<radialGradient id="SVGID_43_" cx="-134.2534" cy="458.6396" r="6.3193" gradientTransform="matrix(0.629 -0.7774 1.0622 0.7002 -102.4296 -67.5235)" gradientUnits="userSpaceOnUse">
					<stop  offset="0.5686" style="stop-color:#000000"/>
					<stop  offset="1" style="stop-color:#7E879A;stop-opacity:0"/>
				</radialGradient>
				<path fill-rule="evenodd" clip-rule="evenodd" fill="url(#SVGID_43_)" d="M306.3,354.8c1.1,1.2,1.7,2.5,1.7,4
					c0,1.5-0.6,2.8-1.7,4c-0.1,0.1-0.2,0.3-0.3,0.3c-0.9,0.9-1.9,1.4-3.1,1.7h-0.1c-0.2,0.1-0.5,0.1-0.8,0.2c-0.3,0-0.6,0-0.9,0
					c-1.8,0-3.4-0.6-4.8-1.9c-1.3-1.2-2-2.6-2-4.3c0-1.7,0.7-3.2,2-4.3c1.2-1.1,2.6-1.7,4.2-1.9l2,0.1c0,0,0.1,0,0.4,0.1
					c1.2,0.2,2.2,0.8,3.1,1.7C306.1,354.5,306.2,354.7,306.3,354.8z"/>
			</g>
			<g>
				<g>
					<linearGradient id="SVGID_44_" gradientUnits="userSpaceOnUse" x1="294.4609" y1="353.0703" x2="306.8358" y2="353.1436">
						<stop  offset="0" style="stop-color:#000000"/>
						<stop  offset="0.5647" style="stop-color:#FFFFFF;stop-opacity:0.8235"/>
						<stop  offset="0.9922" style="stop-color:#000000"/>
					</linearGradient>
					<path fill-rule="evenodd" clip-rule="evenodd" fill="url(#SVGID_44_)" d="M306.9,356.7c0-0.2,0-0.4-0.1-0.7
						c-0.2-1.2-0.7-2.2-1.7-3c-1.2-1.1-2.7-1.7-4.4-1.7c-1.7,0-3.2,0.6-4.4,1.7c-1,0.8-1.5,1.8-1.7,2.9l0.1-1.8
						c0.1-1.1,0.7-2.1,1.6-2.9c1.2-1.1,2.7-1.6,4.4-1.6c1.7,0,3.2,0.5,4.4,1.6c1.1,1,1.7,2.1,1.8,3.3c0,0.1,0,0.3,0,0.4V356.7z"/>
					
						<radialGradient id="SVGID_45_" cx="282.1001" cy="356.5498" r="6.7125" gradientTransform="matrix(1 0 0 0.9088 0 32.5343)" gradientUnits="userSpaceOnUse">
						<stop  offset="0" style="stop-color:#000000"/>
						<stop  offset="1" style="stop-color:#000000"/>
					</radialGradient>
					<path fill-rule="evenodd" clip-rule="evenodd" fill="url(#SVGID_45_)" d="M294.5,355.9c0.2-1.1,0.7-2.1,1.7-2.9
						c1.2-1.1,2.7-1.7,4.4-1.7c1.7,0,3.2,0.6,4.4,1.7c1,0.8,1.5,1.8,1.7,3c0.1,0.2,0.1,0.4,0.1,0.7v0.3c-0.1,1.5-0.7,2.8-1.8,3.8
						c-1.2,1.1-2.7,1.7-4.4,1.7c-1.7,0-3.2-0.6-4.4-1.7c-1-0.9-1.6-2-1.7-3.3c-0.1-0.2-0.1-0.4-0.1-0.7
						C294.5,356.5,294.5,356.2,294.5,355.9L294.5,355.9z M298.1,354.5c-0.7,0.6-1.1,1.4-1.1,2.3c0,0.9,0.4,1.7,1.1,2.3
						c0.7,0.7,1.6,1,2.5,1c1,0,1.9-0.3,2.6-1c0.7-0.6,1.1-1.4,1.1-2.3c0-0.9-0.4-1.6-1.1-2.3c-0.7-0.6-1.5-1-2.6-1
						C299.7,353.6,298.8,353.9,298.1,354.5z"/>
					<path fill-rule="evenodd" clip-rule="evenodd" fill="#F9E6CA" d="M298.1,354.5c0.7-0.6,1.6-1,2.5-1c1,0,1.9,0.3,2.6,1
						c0.7,0.6,1.1,1.4,1.1,2.3c0,0.9-0.4,1.7-1.1,2.3c-0.7,0.7-1.5,1-2.6,1c-1,0-1.8-0.3-2.5-1c-0.7-0.6-1.1-1.4-1.1-2.3
						C297,355.9,297.4,355.2,298.1,354.5z M302.3,355.5c-0.5-0.4-1-0.5-1.6-0.5c-0.7,0-1.3,0.2-1.8,0.5c-0.4,0.4-0.6,0.9-0.6,1.5
						c0,0.6,0.2,1,0.6,1.3c0.5,0.4,1.1,0.7,1.8,0.7c0.6,0,1.1-0.2,1.6-0.7c0.4-0.3,0.7-0.8,0.7-1.3
						C303,356.4,302.7,355.9,302.3,355.5z"/>
					<path fill-rule="evenodd" clip-rule="evenodd" d="M302.3,355.5c0.4,0.4,0.7,0.9,0.7,1.5c0,0.6-0.2,1-0.7,1.3
						c-0.5,0.4-1,0.7-1.6,0.7c-0.7,0-1.3-0.2-1.8-0.7c-0.4-0.3-0.6-0.8-0.6-1.3c0-0.5,0.2-1,0.6-1.5c0.5-0.4,1.1-0.5,1.8-0.5
						C301.3,354.9,301.8,355.1,302.3,355.5z"/>
				</g>
			</g>
		</g>
		<g>
			<path fill-rule="evenodd" clip-rule="evenodd" fill="#598AD7" d="M41.4,326.1H39l-0.5-5.5H41L41.4,326.1z M30.9,320.6l0.6,5.5
				h-2.4l-0.6-5.5H30.9z M37.5,320.6l0.5,5.5h-2.4l-0.6-5.5H37.5z M34.2,320.6l0.6,5.5h-2.5l-0.6-5.5H34.2z M27.8,320.6l0.5,5.5
				h-2.5l-0.4-5.5H27.8z M218.2,322h4.6l0.2,5.5l-4.6-0.1L218.2,322z M213.2,327.4h-2.5l-0.2-5.4h2.5L213.2,327.4z M214.2,327.4
				L214,322h3.2l0.2,5.4H214.2z M209.7,327.4h-2.5L207,322h2.5L209.7,327.4z M203.9,322h2.4l0.1,5.4H204L203.9,322z M203.1,327.4
				h-2.5l-0.1-5.4h2.5L203.1,327.4z M232.5,322l0.1,5.5h-8.2l-0.2-5.5H232.5z M233.6,322h15.6v5.5h-15.5L233.6,322z M180.6,322h2.5
				l0.1,5.4h-2.4L180.6,322z M177.5,322h2.4l0.2,5.4h-2.5L177.5,322z M176.5,327.4h-2.4L174,322h2.5L176.5,327.4z M173.3,327.4h-2.5
				l-0.1-5.4h2.5L173.3,327.4z M167.5,322h2.4l0.1,5.4h-2.5L167.5,322z M164.3,327.4l-0.1-5.4h2.5l0.1,5.4H164.3z M199.9,327.4h-2.5
				l-0.1-5.4h2.5L199.9,327.4z M196.4,322v5.4H194l-0.1-5.4H196.4z M193,327.4h-2.5l-0.1-5.4h2.4L193,327.4z M189.7,327.4h-2.5
				l-0.1-5.4h2.5L189.7,327.4z M186.4,327.4h-2.3L184,322h2.4L186.4,327.4z M323.5,327.5h-73.1V322h73.1V327.5z"/>
		</g>
		<g>
			<g>
				<polygon fill-rule="evenodd" clip-rule="evenodd" fill="#3F4249" points="70.9,378.1 68.5,353 68.1,350.6 68.1,350.5 
					68.2,350.6 68.4,350.7 68.6,349.9 69,349.1 69,349.3 71.8,379.5 71.2,380.7 				"/>
				<polygon fill-rule="evenodd" clip-rule="evenodd" fill="#4B4B4B" points="68.1,350.6 46.7,350.4 48,348.8 69.1,349 69,349.3 
					69,349.1 68.6,349.9 68.4,350.6 68.2,350.6 68.1,350.5 				"/>
				<linearGradient id="SVGID_46_" gradientUnits="userSpaceOnUse" x1="58.8999" y1="347.7749" x2="58.8999" y2="375.5249">
					<stop  offset="0" style="stop-color:#414750"/>
					<stop  offset="1" style="stop-color:#000000"/>
				</linearGradient>
				<path fill-rule="evenodd" clip-rule="evenodd" fill="url(#SVGID_46_)" d="M46.7,350.4l21.4,0.3l0.4,2.4l2.3,25.1l0.3,2.6H49.6
					L46.7,350.4z M68.2,350.6h0.1v0.1L68.2,350.6z M50.3,354.9L50.3,354.9l0.1-0.2L50.3,354.9z"/>
			</g>
		</g>
		<g>
			<g>
				<path fill-rule="evenodd" clip-rule="evenodd" fill="#975960" d="M64,373.7c0.9-6.4,1.2-12.7,1-18.8h0.3l0.8,20.9L64,373.7z"/>
				<polygon fill-rule="evenodd" clip-rule="evenodd" fill="#381114" points="50.2,373.6 64,373.7 66.1,375.8 66.1,376 51.6,376.1 
									"/>
				
					<linearGradient id="SVGID_47_" gradientUnits="userSpaceOnUse" x1="-376.5093" y1="11.4688" x2="-357.1815" y2="11.4688" gradientTransform="matrix(-0.1255 -0.9921 1.0033 -3.697002e-002 -1.445413e-005 -2.533197e-004)">
					<stop  offset="0" style="stop-color:#C42253"/>
					<stop  offset="1" style="stop-color:#9C303A"/>
				</linearGradient>
				<path fill-rule="evenodd" clip-rule="evenodd" fill="url(#SVGID_47_)" d="M65,354.9c0.2,6.1-0.1,12.4-1,18.8l-13.8-0.1
					c0.8-6.1,1-12.4,0.5-19L65,354.9z"/>
			</g>
		</g>
		<g>
			<path fill-rule="evenodd" clip-rule="evenodd" fill="#F0F0EE" d="M36.1,443.9c2.2,0.8,5.2,1.1,9,0.9l262.9,0.8
				c11.4,0.1,18.4-1.7,21.1-5.3c-0.2,0.4-0.4,0.8-0.5,1.3c-0.1,0.2-0.1,0.3-0.2,0.5c-1.6,3.1-4.6,4.7-8.9,4.8l-278.9-0.5
				c-5.6,0-9-2.3-10.1-7C31.9,441.6,33.8,443.1,36.1,443.9z"/>
		</g>
		<g>
			<linearGradient id="SVGID_48_" gradientUnits="userSpaceOnUse" x1="294.4653" y1="379.9316" x2="343.4154" y2="381.7046">
				<stop  offset="0.549" style="stop-color:#717D8E;stop-opacity:0"/>
				<stop  offset="0.9176" style="stop-color:#313747"/>
			</linearGradient>
			<polygon fill-rule="evenodd" clip-rule="evenodd" fill="url(#SVGID_48_)" points="299,312 335.6,312 330.3,449.3 294.4,449.3 			
				"/>
		</g>
		<g>
			
				<linearGradient id="SVGID_49_" gradientUnits="userSpaceOnUse" x1="-524.895" y1="4.3242" x2="-172.3652" y2="4.3242" gradientTransform="matrix(-0.4243 -0.9055 0.9353 -0.3607 1.000166e-004 -3.036261e-004)">
				<stop  offset="0" style="stop-color:#D0D1CD"/>
				<stop  offset="1" style="stop-color:#7B7B73"/>
			</linearGradient>
			<path fill-rule="evenodd" clip-rule="evenodd" fill="url(#SVGID_49_)" d="M324,313.5l-292-0.1c-9,0-13.1,3.3-12.5,9.9l11,114.2
				c0,0.6,0.1,1.3,0.4,2.1c0.8,3.5,2.9,5.7,6.4,6.5c1,0.1,2.2,0.2,3.5,0.3L319,447c6.3-0.1,9.6-3,10-9l4.8-114.5
				c0.1-3.6-0.7-6.2-2.4-7.9C329.6,314.1,327.2,313.4,324,313.5z M338,313.7c0.2,0.4,0.4,0.9,0.5,1.4c0.2,0.5,0.4,1.1,0.6,1.8v0.3
				c0.1,0.5,0.1,1,0.1,1.7l0.1-0.6c0,0.2,0,0.5,0,0.9c-0.1,0.1-0.1,0.4,0,0.9l-5.5,121.4c-0.3,1-0.4,1.9-0.5,2.8l0.4-0.5
				c-0.2,0.6-0.5,1.2-0.7,1.9c-0.1,0.1-0.1,0.3-0.1,0.5c-1.7,3-4.8,4.5-9.4,4.6l-286.7-0.3c-6.6-0.1-10.2-3.2-10.6-9.3L14.3,320
				c-0.5-4.1,0.4-7,2.7-8.5c0.1-0.4,0.4-0.7,0.8-0.7c0.4-0.4,0.9-0.7,1.5-0.8l-0.5,0.3l5.1-1h305.6c4.3,0.6,7,1.8,8.1,3.5l0.1,0.1
				c0.1,0.1,0.1,0.1,0.2,0.1C337.8,313.4,337.9,313.5,338,313.7z"/>
		</g>
	</g>
</g>
<g id="Layer_3">
</g>
</svg>
