<?xml version="1.0" encoding="utf-8"?>
<!-- Generator: Adobe Illustrator 16.0.0, SVG Export Plug-In . SVG Version: 6.00 Build 0)  -->
<!DOCTYPE svg PUBLIC "-//W3C//DTD SVG 1.1//EN" "http://www.w3.org/Graphics/SVG/1.1/DTD/svg11.dtd">
<svg version="1.1" id="Layer_1" xmlns="http://www.w3.org/2000/svg" xmlns:xlink="http://www.w3.org/1999/xlink" x="0px" y="0px"
	 width="51.2px" height="96.8px" viewBox="0 0 51.2 96.8" enable-background="new 0 0 51.2 96.8" xml:space="preserve">
<g>
	<g>
		<linearGradient id="SVGID_1_" gradientUnits="userSpaceOnUse" x1="3.5674" y1="55.9087" x2="47.5674" y2="55.9087">
			<stop  offset="0" style="stop-color:#383429"/>
			<stop  offset="4.705882e-002" style="stop-color:#4C483C"/>
			<stop  offset="7.058824e-002" style="stop-color:#23221D"/>
			<stop  offset="0.1176" style="stop-color:#8A8F8B"/>
			<stop  offset="0.2235" style="stop-color:#ADB6B5"/>
			<stop  offset="0.2667" style="stop-color:#1A1819"/>
			<stop  offset="0.3451" style="stop-color:#1C1C14"/>
			<stop  offset="0.3961" style="stop-color:#605132"/>
			<stop  offset="0.6157" style="stop-color:#23201B"/>
			<stop  offset="0.6627" style="stop-color:#050505"/>
			<stop  offset="0.7294" style="stop-color:#0D0D0D"/>
			<stop  offset="0.8" style="stop-color:#60615C"/>
			<stop  offset="0.8471" style="stop-color:#4A4B45"/>
			<stop  offset="0.9098" style="stop-color:#523726"/>
			<stop  offset="1" style="stop-color:#705C3B"/>
		</linearGradient>
		<path fill-rule="evenodd" clip-rule="evenodd" fill="url(#SVGID_1_)" d="M47.8,15v31.8c0,0,0,0,0,0h0v50h-44v-50h0.1
			c0,0-0.1,0-0.1,0V15H47.8z"/>
	</g>
	<g>
		<linearGradient id="SVGID_2_" gradientUnits="userSpaceOnUse" x1="2.0049" y1="24.2583" x2="49.5299" y2="24.2583">
			<stop  offset="0" style="stop-color:#231400"/>
			<stop  offset="1" style="stop-color:#000000"/>
		</linearGradient>
		<path fill-rule="evenodd" clip-rule="evenodd" fill="url(#SVGID_2_)" d="M49.9,16.8v2.3c0,0.2-0.1,0.5-0.2,0.7
			c-0.1,0.3-0.1,0.7-0.3,1c-0.4,1.1-1,2.1-1.8,3v0l-0.3,0.5c-1.1,1.2-2.6,2.4-4.5,3.5c-3.1,1.8-6.7,3.1-10.8,3.7
			c-0.4,0.1-0.9,0.1-1.4,0.2c-1.6,0.2-3.3,0.3-5,0.3c-5,0-9.5-0.8-13.4-2.3c-1.3-0.5-2.6-1.1-3.8-1.8c-1.9-1.1-3.5-2.3-4.6-3.6
			C3.9,24.1,3.9,24,3.8,24l-0.1,0C3,23,2.4,22,2,20.9c-0.1-0.3-0.2-0.7-0.3-1c-0.1-0.3-0.2-0.7-0.2-1c0-0.3,0-0.6,0-0.9
			c0-0.2,0-0.5,0-0.8c0-0.2,0.1-0.4,0.2-0.5h48.2C49.9,16.7,49.9,16.8,49.9,16.8z"/>
	</g>
	<g>
		<linearGradient id="SVGID_3_" gradientUnits="userSpaceOnUse" x1="1.8848" y1="18.3242" x2="49.5611" y2="11.4083">
			<stop  offset="0" style="stop-color:#9A9995"/>
			<stop  offset="0.5255" style="stop-color:#92938E"/>
			<stop  offset="1" style="stop-color:#E7E6E4"/>
		</linearGradient>
		<path fill-rule="evenodd" clip-rule="evenodd" fill="url(#SVGID_3_)" d="M25.8,0.8c6.7,0,12.4,1.4,17.2,4.1c4.2,2.4,6.5,5.3,7,8.6
			c0,0.5,0,0.9,0,1.4c0,0.4,0,0.9,0,1.3c0,0.1,0,0.1,0,0.1c0,0.1,0,0.1,0,0.2c0,0.1-0.1,0.1-0.1,0.3c-0.2,1.3-0.8,2.5-1.6,3.6
			c-0.2,0.3-0.4,0.6-0.7,0.9c-1.1,1.3-2.6,2.5-4.5,3.6c-3.1,1.8-6.7,3-10.8,3.6c-0.4,0.1-0.9,0.2-1.4,0.3c-1.6,0.2-3.3,0.3-5,0.3
			c-2.4,0-4.6-0.2-6.6-0.5c-4-0.6-7.5-1.9-10.5-3.6c-1.9-1.1-3.5-2.3-4.6-3.6c-0.2-0.3-0.4-0.5-0.6-0.8c-0.8-1.1-1.4-2.4-1.7-3.6
			c0-0.1,0-0.2,0-0.3l0-0.1c0-0.2-0.1-0.5-0.1-0.7V14c0-0.2,0.1-0.4,0.1-0.6c0.1-0.7,0.3-1.4,0.6-2c1-2.5,3.1-4.6,6.4-6.6
			C13.3,2.2,19,0.8,25.8,0.8z M30.8,17.7c0.6-0.3,1-0.6,1.4-1c0.1-0.1,0.2-0.2,0.2-0.3c0.3-0.3,0.4-0.6,0.5-1.1c0,0,0-0.1,0-0.1
			c0-0.2,0-0.3,0-0.5s0-0.3,0-0.4c-0.1-1-0.8-1.9-2.1-2.6c-1.4-0.8-3-1.2-5-1.2c-2,0-3.7,0.4-5.1,1.2c-0.7,0.4-1.2,0.9-1.5,1.5
			c-0.2,0.3-0.4,0.7-0.5,1.1v0.9c0.1,0.3,0.3,0.7,0.5,1c0,0.1,0,0.1,0,0.1c0.1,0,0.1,0.1,0.2,0.2c0.3,0.4,0.8,0.8,1.3,1
			c1.4,0.8,3.1,1.2,5.1,1.2c0.5,0,1,0,1.5-0.1c0.1,0,0.3,0,0.5,0C28.8,18.7,29.9,18.3,30.8,17.7z"/>
	</g>
	<g>
		
			<radialGradient id="SVGID_4_" cx="25.2168" cy="14.6333" r="10.3875" fx="25.3797" fy="14.6333" gradientTransform="matrix(1 0 0 0.4765 0 7.66)" gradientUnits="userSpaceOnUse">
			<stop  offset="0" style="stop-color:#F9FFFF"/>
			<stop  offset="0.149" style="stop-color:#F9FFFF"/>
			<stop  offset="0.2078" style="stop-color:#7B80C0"/>
			<stop  offset="0.3804" style="stop-color:#222327"/>
			<stop  offset="1" style="stop-color:#000000"/>
		</radialGradient>
		<path fill-rule="evenodd" clip-rule="evenodd" fill="url(#SVGID_4_)" d="M32.1,16.7c-0.3,0.4-0.8,0.7-1.4,1
			c-0.9,0.6-1.9,0.9-3.1,1.1c-0.2,0-0.3,0-0.5,0c-0.5,0-1,0.1-1.5,0.1c-2,0-3.7-0.4-5.1-1.2c-0.5-0.3-1-0.6-1.3-1
			c-0.1-0.1-0.1-0.2-0.2-0.2c0,0,0-0.1,0-0.1c-0.2-0.3-0.4-0.6-0.5-1v-0.9c0.1-0.4,0.2-0.8,0.5-1.1c0.3-0.5,0.8-1,1.5-1.5
			c1.4-0.8,3.1-1.2,5.1-1.2c2,0,3.6,0.4,5,1.2c1.2,0.7,1.9,1.6,2.1,2.6c0,0.1,0,0.3,0,0.4s0,0.3,0,0.5c0,0,0,0.1,0,0.1
			c-0.1,0.4-0.2,0.8-0.5,1.1C32.3,16.5,32.2,16.6,32.1,16.7z"/>
	</g>
	<g>
		<linearGradient id="SVGID_5_" gradientUnits="userSpaceOnUse" x1="2.7383" y1="19.0317" x2="49.2638" y2="12.2856">
			<stop  offset="0" style="stop-color:#9A9995"/>
			<stop  offset="0.5255" style="stop-color:#92938E"/>
			<stop  offset="1" style="stop-color:#7E7B72"/>
		</linearGradient>
		<path fill-rule="evenodd" clip-rule="evenodd" fill="url(#SVGID_5_)" d="M19.2,5.7c0,0-0.1,0-0.2,0c-0.4,0.1-0.6,0.3-0.6,0.6v0.1
			C19.4,6.8,19.7,6.5,19.2,5.7z M22.6,4.7c0.4,0,0.8-0.1,1.3-0.1c0,0.1,0,0.1-0.1,0.2c0,0.1,0,0.2,0.1,0.3c0.3,0.1,0.6,0.2,0.8,0.2
			c0.1,0.2,0.3,0.3,0.5,0.4c-0.1,0.1-0.2,0.1-0.3,0.2c0,0,0,0.1,0,0.1C25,6,25.1,6.1,25.2,6.2c-0.3,0.3-0.5,0.6-0.7,1
			c-0.2,0.3-0.3,0.6-0.3,0.9c-0.1,0.3-0.1,0.6,0.1,0.9c-0.6-0.1-1.3-0.2-1.9-0.4c-0.2,0.1-0.4,0.1-0.6,0.1c0,0-0.1,0-0.1,0.1
			c0,0-0.1,0-0.1,0v0c-0.3-0.2-0.6-0.3-0.9-0.4c-0.1,0-0.1,0.1-0.1,0.2c0,0.6,0.3,0.7,1,0.4c0,0,0,0.1,0,0.1h0
			c0.1,0.1,0.1,0.1,0.1,0c0.2,0,0.5,0,0.8,0c0,0.1,0,0.1,0,0.1c0.7,0.4,1.4,0.6,2.3,0.4c0.2,0.2,0.6,0.4,1.1,0.6
			c-2.1,0-3.8,0.4-5.2,1.3c-1.4,0.8-2.1,1.9-2.1,3.1c0,1.2,0.7,2.3,2.1,3.1c1.4,0.8,3.1,1.3,5.2,1.3c2,0,3.7-0.4,5.1-1.3
			c0.3-0.2,0.5-0.3,0.8-0.5c0.5-0.4,0.9-0.9,1.1-1.4c0.2-0.4,0.3-0.8,0.3-1.2c0-0.1,0-0.2,0-0.3c0-0.1,0-0.1,0-0.1
			c0,0,0.1,0.1,0.3,0.1c0.1,0.1,0.2,0.2,0.3,0.3c0,0,0,0.1,0,0.1c-0.1,0.3-0.2,0.6-0.2,0.9c0.2,0,0.3,0,0.5,0c0.2,0.1,0.5,0.1,0.8,0
			c0.1,0.3,0.3,0.4,0.5,0.4c0,0.1,0.1,0.1,0.3,0.1c0.2,0.1,0.3,0.2,0.5,0.3c0,0.1,0,0.2,0,0.3c0,0,0,0.1,0,0.1
			c-0.2,0-0.3,0.1-0.5,0.3c0.1,0,0.1,0.1,0.2,0.1v0c0,0,0,0.1,0,0.1c-0.2,0.1-0.5,0.3-0.7,0.5c-0.1-0.1-0.3-0.1-0.4-0.1
			c-0.1,0-0.1,0-0.1,0.1c0,0.2,0,0.3,0,0.4c0.1,0.2,0.3,0.2,0.5,0.1c-0.1,0.2-0.1,0.4,0,0.6c0,0,0.1,0,0.1,0
			c0.9,0.3,1.7,0.5,2.4,0.7c0.2-0.1,0.5-0.2,0.8-0.2c0.1,0.4,0.4,0.5,1,0.1v0c-0.1,0-0.1-0.1-0.2-0.1c0,0-0.1-0.1-0.1-0.1
			c0.3-0.1,0.6-0.1,1-0.1c0.2,0.1,0.3,0.2,0.5,0.4c0.2,0.1,0.4,0.2,0.6,0.3v0.1c0.1,0,0.3,0.1,0.4,0.2c0,0.1,0,0.1,0.2,0.2
			c0.1,0.1,0.2,0.2,0.3,0.3c0,0.1,0,0.3,0,0.4c0,0.3,0,0.5,0,0.6h0.1c0.2,0.4,0.4,0.4,0.7,0.1c0,0,0-0.1,0-0.1
			c0.1-0.1,0.2-0.2,0.3-0.3c0.3,0,0.6-0.1,1-0.1c0,0.1,0.1,0.2,0.2,0.3c0,0,0.1,0,0.1,0c0-0.1,0-0.1,0-0.2c0.1,0,0.3,0.1,0.4,0.1
			c0.4,0.1,0.7,0.1,1,0.1c-0.1,0.1-0.1,0.1-0.1,0.2c0.3,0.1,0.5,0,0.8-0.2c0.1,0,0.3,0,0.3,0c-0.6,0.6-1.3,1.2-2,1.8
			c-0.3,0.1-0.5,0.2-0.9,0.4c-0.5,0.2-1.1,0.5-1.6,0.8c0,0,0-0.1,0-0.1c-0.2,0-0.3,0.1-0.4,0.2c0.1,0,0.1,0,0.2,0
			c-2.4,1-4.8,1.7-7.4,2.1c-4,0.5-8.2,0.8-12.6,0.8c-3.9,0.4-7.3-0.4-10.2-2.4c-1.6-1.1-2.9-2.2-4-3.4l-1.7-3
			c-0.1-0.8-0.1-1.6,0-2.5c0.6-0.9,1.3-1.9,2-2.8c1.8-2.1,3.4-4.2,4.9-6.3c2.2-0.1,4.4-0.9,6.4-2.3c0.7,0,1.4,0.1,2.2,0.1
			C21.7,5.1,22.1,5.1,22.6,4.7z M36.8,20.5L36.8,20.5c-0.1-0.3-0.3-0.3-0.5-0.3c-0.1,0-0.1,0-0.1,0.1C36.3,20.8,36.5,20.8,36.8,20.5
			z M40.3,20.5c-0.2,0-0.4,0.2-0.4,0.4c0,0,0,0.1,0,0.1c0.3,0,0.4,0,0.5,0C40.5,20.8,40.5,20.7,40.3,20.5z M40.5,21.1
			c-0.1,0.1-0.1,0.2,0.1,0.3l0-0.1C40.7,21.3,40.7,21.2,40.5,21.1z M38.9,21L38.9,21c-0.2-0.1-0.3-0.1-0.5-0.1
			C38.4,21.1,38.6,21.1,38.9,21z M23.1,24.6c-0.2,0-0.3,0.1-0.4,0.3C23.3,25.1,23.4,25,23.1,24.6z M22,22.2c0.6,0.2,0.7,0.1,0.4-0.4
			C22.1,21.8,22,22,22,22.2z M24.1,22.1L24.1,22.1c0.4-0.3,0.4-0.5,0.1-0.8C23.8,21.6,23.7,21.9,24.1,22.1z M24.3,23.5
			c-0.3,0.1-0.4,0.3-0.5,0.6c-0.6-0.1-1,0-1.5,0.3c1.3,0.4,2.3,0.2,2.8-0.7c0,0-0.1,0-0.1,0c-0.2-0.1-0.4-0.2-0.5-0.2
			C24.5,23.4,24.4,23.4,24.3,23.5z M23.4,20.9L23.4,20.9c-0.3-0.2-0.6-0.3-1-0.3c-0.1,0-0.1,0-0.2,0.1c-0.3,0.2-0.5,0.5-0.8,0.9
			c0.3,0,0.6,0,0.8,0c0,0.1,0.1,0.2,0.2,0.3h0c0.1,0.1,0.3,0,0.5-0.2c0,0,0-0.1,0-0.1c-0.1-0.1-0.3-0.1-0.3-0.2
			C22.9,21.2,23.2,21.1,23.4,20.9z M30.3,22.2C30.3,22.2,30.3,22.3,30.3,22.2c-0.3,0.4-0.2,0.5,0.3,0.5c0,0,0-0.1,0-0.1
			C30.8,22.4,30.7,22.3,30.3,22.2z M28.2,23.5C28.2,23.5,28.2,23.5,28.2,23.5c-0.7,0.2-1.1,0.5-1.3,0.9c1,0.4,1.6,0.2,2-0.5
			c0,0,0,0,0,0C28.7,23.7,28.5,23.6,28.2,23.5z M29.4,24.8c0.1-0.1,0.3-0.2,0.5-0.2c0.1,0.3,0.3,0.5,0.6,0.5c0,0,0.1,0,0.2,0.1
			c-0.2,0.1-0.5,0.2-0.7,0.4v0c0,0.2,0,0.3,0.1,0.5h0c1,0,1.2-0.3,0.6-0.9c0.4,0.1,0.8,0.1,1.1,0h0c0.4,0.1,0.7,0.1,1,0.3
			c1.4,0.5,2,0.1,1.9-1c0,0-0.1-0.1-0.1-0.1c-0.2,0-0.3,0-0.5,0h0c0-0.1,0-0.1-0.1-0.2l0,0c0,0-0.1,0-0.1,0c-0.1,0-0.3,0-0.4,0
			c0-0.1,0.1-0.3,0.1-0.5c0,0-0.1,0-0.1,0c-0.4,0-0.7-0.1-1.1-0.1c-0.1,0-0.2,0.1-0.4,0.1c-1.3,0-2.4,0.3-3.3,1
			C28.8,24.9,29.1,24.9,29.4,24.8z M27.2,22.9c0.4-0.1,0.5-0.4,0.2-0.6C27.1,22.5,27,22.7,27.2,22.9C27.2,23,27.2,23,27.2,22.9z
			 M26.1,22C26.1,22,26.1,21.9,26.1,22c-0.2-0.2-0.3-0.2-0.5-0.2c0,0,0,0,0,0c-0.2,0.6-0.1,0.6,0.4,0.3c-0.1,0.1-0.2,0.3-0.2,0.5
			c0.6,0.1,1-0.1,1.4-0.6c0,0,0,0,0,0c-0.1-0.1-0.2-0.2-0.4-0.1C26.5,21.8,26.3,21.9,26.1,22z M26.4,20.2c0,0,0.1-0.1,0.1-0.1
			c0,0,0,0,0,0c-0.4-0.2-0.8-0.3-1.1-0.2C25.1,20,24.9,20,24.6,20c0-0.1,0-0.2,0-0.3c-0.4,0-0.7,0.1-0.9,0.3
			c0.1,0.1,0.2,0.1,0.3,0.1c-0.1,0.1-0.2,0.2-0.3,0.4c0.7,0.4,1.4,0.6,1.9,0.4v0c0.2,0.3,0.6,0.3,1,0.1h0c0.3-0.3,0.3-0.5,0.1-0.7
			c-0.1,0-0.3,0.1-0.4,0.1C26.4,20.4,26.4,20.3,26.4,20.2z M30.3,20.1c0,0-0.1,0-0.1,0c0,0,0.1-0.1,0.1-0.1c0,0,0,0,0,0
			c0-0.1-0.1-0.1-0.1-0.1c0.2,0.1,0.4-0.1,0.5-0.4h0c-0.2-0.2-0.4-0.2-0.7-0.1c-0.2,0.1-0.2,0.2-0.1,0.3c0,0,0.1,0.1,0.1,0.1
			c-0.1,0-0.1,0-0.1,0c-0.1,0-0.3,0-0.4,0.1c-0.4-0.1-0.8-0.2-1.3-0.3c-0.1,0-0.2,0-0.3,0c-0.3-0.1-0.7-0.1-1-0.1
			c-0.2,0-0.2,0.1-0.2,0.2c0,0,0.1,0.1,0.2,0.2c-0.2,0-0.3,0.1-0.4,0.1c0.6,0.2,1.2,0.4,1.9,0.4c-0.1,0-0.1,0.1-0.2,0.1
			c0.1,0,0.3,0.1,0.4,0.1v0c0.2,0.1,0.3,0.1,0.5,0.1c-0.3,0.2-0.5,0.4-0.7,0.6c-0.1,0-0.2-0.1-0.3-0.2c0,0-0.1,0.1-0.1,0.1
			c-0.2,0.3-0.1,0.4,0.1,0.5c-0.1,0.1-0.1,0.3-0.1,0.4C28,22.2,28,22.3,28,22.3c0.5,0.4,1.1,0.4,1.8,0c0-0.1,0-0.2,0-0.3
			c0.3-0.1,0.4-0.4,0.5-0.8c0.2,0.1,0.4,0,0.6-0.3c0.3,0,0.7,0,1.1-0.1c0-0.1,0-0.1,0-0.3c0.8,0,1.1-0.2,1-0.6c0.1,0,0.1,0,0.2,0
			c0.6-0.2,0.7-0.4,0.3-0.7c0,0-0.1,0-0.1,0.1c-0.2,0-0.3,0.1-0.3,0.3l0-0.1c0,0-0.1,0-0.2,0.1c0,0,0-0.1,0-0.1c0,0,0-0.1,0-0.1
			c0-0.1,0-0.2-0.1-0.3c0,0,0-0.1-0.1-0.1c-0.1-0.1-0.2-0.1-0.3,0C31.4,19.1,30.7,19.5,30.3,20.1z M24.4,7.3
			c0.1-0.4,0.1-0.7-0.1-0.8c0.2,0,0.2-0.2,0.1-0.5c-0.4,0-0.6,0.1-0.7,0.4c-0.3,0-0.6,0-1,0.1c-0.3,0-0.5,0.2-0.7,0.5v0.1
			c0.2,0.1,0.3,0.3,0.3,0.5c0,0,0,0.1,0,0.1c0.5,0.2,1,0.2,1.5,0C24.2,7.6,24.3,7.5,24.4,7.3z M34.3,18.5
			C34.2,18.5,34.2,18.6,34.3,18.5c-0.1,0.6,0.2,0.7,0.6,0.3c0,0,0-0.1,0-0.1C34.7,18.6,34.5,18.5,34.3,18.5z M34.3,18
			c0-0.1-0.1-0.2-0.3-0.2H34C34,18.1,34.1,18.2,34.3,18L34.3,18z M33.6,16.1L33.6,16.1c0-0.2-0.1-0.3-0.3-0.3
			C33.2,15.9,33,16,33,16.1C33.2,16.4,33.4,16.4,33.6,16.1z M34.5,16.3c0-0.1,0.1-0.1,0.1-0.2l-0.1,0c-0.1,0-0.2,0-0.3,0
			c0,0-0.1,0-0.1,0c0,0.1,0,0.1,0,0.2C34.1,16.4,34.3,16.5,34.5,16.3L34.5,16.3z M41.1,23.6L41.1,23.6c-0.5,0.2-0.8,0.5-1,0.9
			c0.3,0,0.5-0.1,0.8-0.4v0c0-0.1,0-0.1,0-0.2c0,0,0,0,0,0C41.3,23.8,41.3,23.7,41.1,23.6z M43.2,22.1c-0.1,0-0.1,0.1,0,0.2
			c0.1,0.1,0.2,0.1,0.3,0.1c0.3,0.1,0.4,0,0.2-0.1l0,0C43.5,22.1,43.3,22.1,43.2,22.1z M41.4,21.7L41.4,21.7c-0.7,0.1-1,0.4-0.9,1
			c0.2,0,0.5,0,0.7,0c0.2,0.2,0.4,0.1,0.7-0.1v-0.1c0.2-0.2,0.2-0.4,0.1-0.6c0,0,0,0,0,0C41.8,21.7,41.6,21.7,41.4,21.7z M45,21.7
			c0,0,0-0.1,0-0.1c-0.1-0.1-0.3-0.2-0.4-0.3c0,0-0.1,0-0.1,0.1C44.5,21.9,44.7,22,45,21.7z M36.5,19.6L36.5,19.6L36.5,19.6
			C36.5,19.6,36.5,19.6,36.5,19.6z M18.1,24.7C18.1,24.7,18.1,24.7,18.1,24.7c0.1-0.8-0.4-1.1-1.3-1v0.1
			C17,24.2,17.4,24.5,18.1,24.7z M19.7,21.3C19.7,21.3,19.7,21.2,19.7,21.3c-0.2-0.1-0.4-0.2-0.6-0.2c-0.1,0-0.1,0-0.1,0.1
			C19.1,21.7,19.4,21.8,19.7,21.3z M16.8,7.5C16.8,7.5,16.8,7.5,16.8,7.5c0.3-0.4,0.3-0.7,0.1-0.9C16.5,6.8,16.4,7.2,16.8,7.5z
			 M33.2,18.3c-0.3,0.1-0.5,0.3-0.7,0.6C33.3,19.1,33.6,18.9,33.2,18.3z M36.6,25.1L36.6,25.1c-0.2-0.3-0.4-0.3-0.7-0.3
			c-0.1,0-0.2,0.1-0.2,0.3C35.9,25.5,36.2,25.5,36.6,25.1z M35.4,25.3c-0.1,0-0.1,0-0.1,0.1c0.1,0.4,0.3,0.4,0.6,0.1
			c0,0,0-0.1,0-0.1C35.7,25.3,35.6,25.3,35.4,25.3z M34.5,24.1c0.4,0.3,0.8,0.3,1,0V24c-0.1-0.2-0.3-0.4-0.5-0.4c0,0,0,0.1-0.1,0.1
			C34.6,23.8,34.5,23.9,34.5,24.1z M31.9,22.4c0,0.2,0,0.3,0,0.5c0.6,0.2,1.1,0.2,1.5-0.3c0,0,0-0.1,0-0.1c-0.1-0.4-0.5-0.6-1-0.5
			C32.1,22.1,32,22.2,31.9,22.4z M34.1,20.5c-0.2-0.2-0.4-0.2-0.7-0.2c-0.1,0-0.2,0.1-0.3,0.1C33,20.6,33,20.7,33,20.8
			C33.5,21.1,33.8,21,34.1,20.5C34.1,20.6,34.1,20.6,34.1,20.5z M38.6,23.8c0.9,0.4,1.3,0.3,1-0.3C39.2,23.4,38.8,23.5,38.6,23.8z
			 M38.2,23C38.2,23,38.2,23,38.2,23c0.8,0.2,1.1,0,1-0.5c0,0-0.1,0-0.2,0.1C38.6,22.6,38.3,22.7,38.2,23z M39.9,22.9
			c0.1,0.4,0.3,0.4,0.5,0.1V23c-0.1-0.2-0.3-0.2-0.5-0.2C39.9,22.8,39.9,22.8,39.9,22.9z"/>
	</g>
	<g>
		<linearGradient id="SVGID_6_" gradientUnits="userSpaceOnUse" x1="1.8975" y1="18.8667" x2="49.6468" y2="10.8625">
			<stop  offset="0" style="stop-color:#C9C089"/>
			<stop  offset="0.5059" style="stop-color:#FFFFE2"/>
			<stop  offset="1" style="stop-color:#DEDEC6"/>
		</linearGradient>
		<path fill-rule="evenodd" clip-rule="evenodd" fill="url(#SVGID_6_)" d="M9.1,5C9,5.1,8.9,5.2,8.8,5.2c-3,1.9-5,3.9-5.9,6.3
			c-0.3,0.6-0.5,1.3-0.5,1.9c0,0.2-0.1,0.4-0.1,0.6c-0.1,0.6-0.1,1.1,0,1.6c0,0.2,0,0.5,0.1,0.7h0c0,0.1,0,0.2,0,0.3
			c0,0.1,0,0.1,0,0.2c0.1,0.6,0.3,1.1,0.6,1.8c0.3,0.5,0.6,1.1,1,1.6c0.2,0.2,0.3,0.4,0.5,0.7c1.1,1.2,2.5,2.3,4.3,3.4
			c0.1,0,0.1,0.1,0.2,0.1c2.9,1.7,6.3,2.9,10,3.5c0.7,0.1,1.3,0.2,2,0.3c1.5,0.2,3.1,0.3,4.7,0.3h0c1.7,0,3.3-0.1,4.9-0.3
			c0.4-0.1,0.9-0.1,1.3-0.2c2-0.3,3.8-0.8,5.6-1.4c1.7-0.6,3.3-1.4,4.8-2.3c0,0,0.1,0,0.1,0c1.8-1,3.2-2.2,4.3-3.4
			c0.3-0.3,0.5-0.6,0.7-0.9c0.4-0.5,0.7-1.1,1-1.7c0.3-0.6,0.5-1.2,0.6-1.8c0-0.1,0-0.2,0-0.3c0,0,0-0.1,0.1-0.2c0-0.1,0-0.1,0-0.1
			c0.1-0.4,0.1-0.8,0.1-1.3c0-0.5,0-0.9-0.1-1.4c-0.5-3.2-2.7-5.9-6.6-8.3c-0.1,0-0.1-0.1-0.3-0.1c-3.5-2-7.4-3.2-11.9-3.7h-0.1
			C29,1.1,27.5,1,25.9,1c0,0-0.1,0-0.1,0c-1.6,0-3.2,0.1-4.6,0.3C16.6,1.8,12.6,3,9.1,5z M9,4.7L9,4.7c3.5-1.9,7.5-3.1,12.2-3.6
			c1.5-0.2,3-0.3,4.6-0.3h0.2c1.6,0,3.2,0.1,4.7,0.3h0c4.5,0.5,8.5,1.8,12,3.8c0.1,0,0.2,0.1,0.3,0.1v0.1c4,2.3,6.3,5.1,7,8.3v0
			l0,0.1c0,0.1,0,0.2,0,0.2c0,0.5,0,0.9,0,1.4c0,0.4,0,0.9,0,1.3c0,0.1,0,0.1,0,0.1c0,0.1,0,0.1,0,0.2c0,0.1,0,0.1,0,0.3h-0.1
			c-0.1,0.6-0.3,1.2-0.5,1.8c0,0,0,0.1,0,0.1c-0.3,0.6-0.7,1.2-1,1.7v0.1c-0.2,0.3-0.4,0.5-0.7,0.8c0,0,0,0.1,0,0.1c0,0,0,0.1,0,0.1
			c-1.1,1.2-2.6,2.3-4.4,3.4c0,0-0.1,0-0.1,0h-0.1c-1.5,0.9-3.2,1.6-4.9,2.3l-0.1,0c-1.7,0.6-3.6,1-5.5,1.3h0
			c-0.4,0.1-0.9,0.2-1.3,0.3h-0.1c-1.6,0.2-3.2,0.3-4.9,0.3h-0.1c-1.6,0-3.2-0.1-4.7-0.3H21c-0.6-0.1-1.3-0.1-1.9-0.3
			c-3.8-0.6-7.3-1.8-10.3-3.5c-0.1-0.1-0.2-0.1-0.3-0.1c-1.8-1.1-3.3-2.2-4.4-3.4h0v0c0-0.1-0.1-0.1-0.2-0.1
			c-0.2-0.2-0.3-0.4-0.5-0.6h0c0-0.1-0.1-0.1-0.1-0.1c-0.4-0.5-0.7-1.1-1-1.6c0,0,0-0.1,0-0.1c-0.2-0.6-0.4-1.1-0.6-1.7
			c0,0,0-0.1,0-0.2l-0.3-1.1V14c0-0.2,0.1-0.4,0.1-0.6c0,0,0-0.1,0-0.2v-0.1c0.1-0.6,0.3-1.2,0.5-1.8c1-2.5,3.1-4.6,6.4-6.6
			C8.7,4.8,8.8,4.8,9,4.7z"/>
	</g>
	<g>
		<linearGradient id="SVGID_7_" gradientUnits="userSpaceOnUse" x1="19.7754" y1="11.1597" x2="36.224" y2="15.5649">
			<stop  offset="0" style="stop-color:#F0F0E8;stop-opacity:0"/>
			<stop  offset="0.1412" style="stop-color:#F0F0E8"/>
			<stop  offset="0.5882" style="stop-color:#7C7E69"/>
			<stop  offset="1" style="stop-color:#3C3A33"/>
		</linearGradient>
		<path fill-rule="evenodd" clip-rule="evenodd" fill="url(#SVGID_7_)" d="M30.7,11.9c-1.3-0.8-3-1.2-4.9-1.2
			c-1.9,0-3.5,0.4-4.8,1.1c-0.1,0-0.2,0-0.3,0c-0.7,0.4-1.2,0.9-1.5,1.5c-0.2,0.2-0.3,0.4-0.3,0.6c0-0.3,0.1-0.7,0.3-1
			c0.3-0.5,0.7-0.9,1.3-1.3c0,0,0,0,0,0c0.1-0.1,0.2-0.1,0.3-0.2c1.4-0.8,3-1.2,5-1.2h0.2c1.9,0,3.6,0.4,5,1.2
			c0.8,0.4,1.3,0.9,1.7,1.5c0,0,0,0.1,0.1,0.1c0.2,0.3,0.3,0.7,0.3,1c0,0.1,0,0.3,0,0.4s0,0.3,0,0.5c0-0.1,0-0.2,0-0.4
			c0-0.5-0.2-1-0.6-1.4C31.9,12.7,31.4,12.3,30.7,11.9L30.7,11.9z"/>
	</g>
</g>
</svg>
