<?xml version="1.0" encoding="utf-8"?>
<!-- Generator: Adobe Illustrator 16.0.0, SVG Export Plug-In . SVG Version: 6.00 Build 0)  -->
<!DOCTYPE svg PUBLIC "-//W3C//DTD SVG 1.1//EN" "http://www.w3.org/Graphics/SVG/1.1/DTD/svg11.dtd">
<svg version="1.1" id="Layer_1" xmlns="http://www.w3.org/2000/svg" xmlns:xlink="http://www.w3.org/1999/xlink" x="0px" y="0px"
	 width="137.7px" height="57.8px" viewBox="0 0 137.7 57.8" enable-background="new 0 0 137.7 57.8" xml:space="preserve">
<g id="Layer_2">
	<g>
		<g>
			
				<linearGradient id="SVGID_1_" gradientUnits="userSpaceOnUse" x1="-362.9834" y1="-93.7461" x2="-341.5937" y2="-93.7461" gradientTransform="matrix(0.9923 -0.1239 -0.8278 -0.9044 364.0571 -83.5867)">
				<stop  offset="0" style="stop-color:#010101"/>
				<stop  offset="1" style="stop-color:#010101;stop-opacity:0"/>
			</linearGradient>
			<path fill="url(#SVGID_1_)" d="M36.3,52.7h-3.4H17.8H6.9c-1.2,0-1.9-0.3-2.1-0.8l-1.9-6c-0.2-0.5,0.4-0.8,1.6-0.8h13.3h15.1h3.4
				h67.4c1.5,0,2.8,0.3,3.8,0.8l9.3,6c0.2,0.5-0.4,0.8-1.6,0.8H36.3z"/>
		</g>
		<g>
			<path fill="#010101" fill-opacity="0.2471" d="M127.4,48.8L127.4,48.8c3.5,0.4,5.8,0.9,6.9,1.4c0.9,0.4,1.3,0.8,1.1,1.3
				c0,0.4-0.4,0.9-1.4,1.3c-2.4,1-9.5,2.1-21.1,3.2l-0.6,0.1l-0.1-1.3h0.6c11.5-1.1,18.4-2.2,20.8-3.1c0.2-0.1,0.4-0.1,0.5-0.2
				c-0.1,0-0.1,0-0.3,0c-1-0.4-3.2-0.9-6.5-1.3c-15.1-0.8-28-2.6-38.4-5.2l-0.6-0.2l0.3-1.2l0.6,0.1C99.7,46.3,112.4,48,127.4,48.8z
				 M39.3,48.5l0.3-0.6l1.2,0.5L40.5,49c-0.5,1.2-0.4,2.3,0.5,3.2c1,1,2.9,1.8,5.6,2.3c5.7,1.2,14.8,1.4,27.5,0.7h0.7l0.1,1.3h-0.6
				c-12.8,0.7-22.1,0.5-27.8-0.8c-3-0.6-5.1-1.5-6.3-2.6C38.9,51.8,38.6,50.2,39.3,48.5z"/>
		</g>
		<g>
			<g>
				
					<linearGradient id="SVGID_2_" gradientUnits="userSpaceOnUse" x1="-39.8691" y1="-61.3872" x2="-27.3441" y2="-61.3872" gradientTransform="matrix(1 0 0 -1 52.3398 -12.626)">
					<stop  offset="0" style="stop-color:#293F4C"/>
					<stop  offset="0.3686" style="stop-color:#749EA3"/>
					<stop  offset="0.502" style="stop-color:#81C5C2"/>
					<stop  offset="0.5961" style="stop-color:#85ABAE"/>
					<stop  offset="1" style="stop-color:#4A4C59"/>
				</linearGradient>
				<path fill="url(#SVGID_2_)" d="M23.2,51.7c-3,0.5-6,0.5-9,0.1L12,45.5h13L23.2,51.7z"/>
				
					<linearGradient id="SVGID_3_" gradientUnits="userSpaceOnUse" x1="21.3813" y1="-61.2451" x2="33.9063" y2="-61.2451" gradientTransform="matrix(1 0 0 -1 52.3398 -12.626)">
					<stop  offset="0" style="stop-color:#293F4C"/>
					<stop  offset="0.3686" style="stop-color:#749EA3"/>
					<stop  offset="0.502" style="stop-color:#81C5C2"/>
					<stop  offset="0.5961" style="stop-color:#85ABAE"/>
					<stop  offset="1" style="stop-color:#4A4C59"/>
				</linearGradient>
				<path fill="url(#SVGID_3_)" d="M84.4,51.5c-3,0.5-6,0.5-9,0.2l-2.2-6.3h13L84.4,51.5z"/>
			</g>
		</g>
		<g>
			<g>
				
					<linearGradient id="SVGID_4_" gradientUnits="userSpaceOnUse" x1="-35.4985" y1="-43.8848" x2="-32.2523" y2="-42.0033" gradientTransform="matrix(1 0 0 -1 52.3398 -12.626)">
					<stop  offset="0" style="stop-color:#717D91"/>
					<stop  offset="0.4235" style="stop-color:#D2EBEA"/>
					<stop  offset="0.5647" style="stop-color:#DEF1F0"/>
					<stop  offset="0.8" style="stop-color:#D2E9E8"/>
					<stop  offset="1" style="stop-color:#ACD7D6"/>
				</linearGradient>
				<path fill="url(#SVGID_4_)" d="M5.1,44.2c-0.3,0.5-0.5,1.4-0.8,2.7c-0.1,0-0.7-1-1.6-3.2c-0.6-1.3-1-2.4-1.2-3.1
					c-0.1-0.5-0.2-0.8-0.2-1V3.3c0.1-1.1,1-1.8,2.6-2c4.9,0,7.3,0,7.3,0h60l17.6,4.4l1,0.5l0.3,0.1c0.8,0.3,1.3,0.7,1.5,1.4
					c0.1,0.3,0.1,0.6,0.1,1v0.1v17h-1.3v-17c0-0.7-0.4-1.1-1-1.3c-0.1,0-0.1,0-0.3,0H6.3H6.2C5.5,7.6,5.1,8.1,5,8.8C5,8.9,5,9,5,9.2
					L5.1,44.2L5.1,44.2z"/>
				<path fill="#DEF1F0" d="M5.1,44.2v2.7H4.3C4.5,45.6,4.8,44.7,5.1,44.2z M90.4,46.9V33.1h1.3v6.8c0,2.8,0,5.1,0,7H90.4z"/>
			</g>
		</g>
		<g>
			
				<linearGradient id="SVGID_5_" gradientUnits="userSpaceOnUse" x1="-40.832" y1="-40.043" x2="38.1175" y2="-40.043" gradientTransform="matrix(1 0 0 -1 52.3398 -12.626)">
				<stop  offset="0" style="stop-color:#19243A"/>
				<stop  offset="1" style="stop-color:#151B2B"/>
			</linearGradient>
			<path fill="url(#SVGID_5_)" d="M89.4,7.9c0.6,0.2,1,0.6,1,1.3V47H5.2V9.5c0-0.1,0-0.3,0-0.3c0.1-0.7,0.5-1.1,1.1-1.3h0.1h82.7
				C89.3,7.9,89.3,7.9,89.4,7.9z"/>
		</g>
		<g>
			<g>
				
					<linearGradient id="SVGID_6_" gradientUnits="userSpaceOnUse" x1="-4.5571" y1="-20.8301" x2="-4.5571" y2="-24.5551" gradientTransform="matrix(1 0 0 -1 52.3398 -12.626)">
					<stop  offset="0" style="stop-color:#010101"/>
					<stop  offset="1" style="stop-color:#010101;stop-opacity:0"/>
				</linearGradient>
				<path fill="url(#SVGID_6_)" d="M10,12.3L5.1,8c0.2-0.2,0.5-0.3,0.8-0.4H6h83.1c0.1,0,0.2,0,0.3,0c0.6,0.2,1,0.6,1,1.3v3.3H39.7
					l0,0L10,12.3L10,12.3z"/>
				
					<linearGradient id="SVGID_7_" gradientUnits="userSpaceOnUse" x1="-47.2319" y1="-39.9429" x2="-42.6819" y2="-39.9429" gradientTransform="matrix(1 0 0 -1 52.3398 -12.626)">
					<stop  offset="0" style="stop-color:#010101"/>
					<stop  offset="1" style="stop-color:#010101;stop-opacity:0"/>
				</linearGradient>
				<path fill="url(#SVGID_7_)" d="M5.2,8l4.9,4.3v31.1h0.3l-5.5,3.3V9.2c0-0.1,0-0.3,0-0.3C4.8,8.5,4.9,8.2,5.2,8z"/>
				
					<linearGradient id="SVGID_8_" gradientUnits="userSpaceOnUse" x1="-4.7695" y1="-61.043" x2="-4.7695" y2="-56.543" gradientTransform="matrix(1 0 0 -1 52.3398 -12.626)">
					<stop  offset="0.4196" style="stop-color:#010101"/>
					<stop  offset="1" style="stop-color:#010101;stop-opacity:0"/>
				</linearGradient>
				<path fill="url(#SVGID_8_)" d="M4.8,46.7l5.5-3.3h79.9c0.3,2.4-0.3,3.6-2,3.5H4.8V46.7z"/>
			</g>
		</g>
		<g>
			<path fill="#DEF1F0" d="M6.9,48.4c-1.9,0-2.9-1-2.9-2.9v-36c0-1.9,1-2.9,2.9-2.9h82c1.9,0,2.9,1,2.9,2.9v36c0,1.9-1,2.9-2.9,2.9
				H6.9z M5.5,45.5c0,0.9,0.5,1.4,1.4,1.4h82c0.9,0,1.4-0.5,1.4-1.4v-36c0-0.9-0.5-1.4-1.4-1.4h-82C6,8.1,5.5,8.6,5.5,9.5V45.5z"/>
		</g>
		<path fill="#11131A" d="M19.9,21.3c0-1.7,0.9-2.6,2.6-2.6H77c1.7,0,2.6,0.9,2.6,2.6v16.2c0,1.7-0.9,2.6-2.6,2.6H22.6
			c-1.7,0-2.6-0.9-2.6-2.6V21.3H19.9z"/>
		<g>
			<path fill="#261016" d="M22.1,18.9H76c1.4,0,2.1,0.7,2.1,2.1v15.2c0,1.4-0.7,2-2.1,2H22.1c-1.4,0-2-0.7-2-2V20.9
				C20.1,19.5,20.7,18.9,22.1,18.9z"/>
			<path fill="#77ABA9" d="M22.1,18.9c-1.4,0-2,0.7-2,2.1v15.2c0,1.4,0.7,2,2,2H76c1.4,0,2.1-0.7,2.1-2V20.9c0-1.4-0.7-2.1-2.1-2.1
				H22.1V18.9z M18.9,21c0-2.1,1.1-3.2,3.2-3.2H76c2.1,0,3.2,1.1,3.2,3.2v15.2c0,2.1-1.1,3.2-3.2,3.2H22.1c-2.1,0-3.2-1-3.2-3.2V21z
				"/>
		</g>
		<g>
			<g>
				<path fill="#010101" fill-opacity="0.502" d="M11.2,26.2c0.7-0.7,1.5-1,2.4-1c1,0,1.8,0.3,2.4,1c0.7,0.6,1,1.5,1,2.5
					s-0.4,1.8-1,2.4c-0.6,0.7-1.4,1-2.4,1s-1.8-0.4-2.4-1h-0.1c-0.7-0.6-1-1.4-1-2.4S10.4,26.8,11.2,26.2z"/>
			</g>
			<g>
				<g>
					
						<linearGradient id="SVGID_9_" gradientUnits="userSpaceOnUse" x1="-40.9272" y1="-34.2329" x2="-38.1657" y2="-44.5616" gradientTransform="matrix(1 0 0 -1 52.3398 -12.626)">
						<stop  offset="0" style="stop-color:#A19C9C"/>
						<stop  offset="1" style="stop-color:#233148"/>
					</linearGradient>
					<path fill="url(#SVGID_9_)" d="M15.5,25.2L15.5,25.2c0.7,0.7,1,1.5,1,2.5s-0.4,1.8-1,2.5c-0.7,0.7-1.5,1-2.5,1s-1.8-0.3-2.5-1
						c-0.7-0.7-1-1.5-1-2.5s0.3-1.8,1-2.4c0.7-0.7,1.5-1.1,2.5-1.1S14.8,24.6,15.5,25.2z M14.9,25.9c-0.5-0.5-1.1-0.7-1.9-0.7
						c-0.7,0-1.4,0.2-1.9,0.7s-0.8,1.2-0.8,1.9c0,0.7,0.3,1.3,0.8,1.9c0.5,0.5,1.2,0.8,1.9,0.8c0.7,0,1.3-0.3,1.9-0.8
						c0.5-0.5,0.8-1.2,0.8-1.9C15.7,27,15.4,26.4,14.9,25.9z"/>
					
						<radialGradient id="SVGID_10_" cx="-39.2568" cy="-40.2432" r="2.4875" gradientTransform="matrix(1 0 0 -1 52.3398 -12.626)" gradientUnits="userSpaceOnUse">
						<stop  offset="0" style="stop-color:#5D1119"/>
						<stop  offset="0.2706" style="stop-color:#531519"/>
						<stop  offset="1" style="stop-color:#2F1212"/>
					</radialGradient>
					<path fill="url(#SVGID_10_)" d="M14.9,25.9c0.5,0.5,0.8,1.2,0.8,1.9c0,0.7-0.3,1.3-0.8,1.9c-0.5,0.5-1.1,0.8-1.9,0.8
						c-0.7,0-1.4-0.3-1.9-0.8s-0.8-1.2-0.8-1.9c0-0.7,0.3-1.4,0.8-1.9s1.2-0.7,1.9-0.7C13.8,25.2,14.4,25.4,14.9,25.9z"/>
				</g>
			</g>
			<g>
				<g>
					
						<linearGradient id="SVGID_11_" gradientUnits="userSpaceOnUse" x1="-38.5698" y1="-38.0112" x2="-40.1212" y2="-39.9101" gradientTransform="matrix(1 0 0 -1 52.3398 -12.626)">
						<stop  offset="0" style="stop-color:#FFFFFF;stop-opacity:0.5216"/>
						<stop  offset="1" style="stop-color:#FAFAFA;stop-opacity:0"/>
					</linearGradient>
					<path fill="url(#SVGID_11_)" d="M13.8,27c-0.2,0.2-0.5,0.3-0.9,0.3c-0.3,0-0.6-0.1-0.9-0.3c-0.2-0.2-0.3-0.3-0.3-0.5
						c0-0.3,0.1-0.5,0.3-0.7c0.3-0.2,0.6-0.3,0.9-0.3c0.3,0,0.6,0.1,0.9,0.3c0.3,0.2,0.4,0.4,0.4,0.7C14.2,26.6,14.1,26.8,13.8,27z"
						/>
				</g>
			</g>
		</g>
		<g>
			<g>
				<path fill="#FFFFFF" fill-opacity="0.4549" d="M69.1,13.2v-0.4h2v0.4h-0.7v2h-0.6v-2H69.1z M67.8,12.8v2.4h-0.5l-1-1.5v1.5h-0.4
					v-2.4h0.4l1,1.6v-1.6H67.8z M68.8,12.8v2.4h-0.5v-2.4H68.8z M62.2,13.2h-0.7v2H61v-2h-0.7v-0.4h1.9V13.2z M65.3,12.8v1.3
					c0,0.3,0,0.5,0,0.7c0,0.1-0.1,0.2-0.1,0.3c-0.1,0.1-0.2,0.1-0.3,0.2c-0.1,0-0.3,0-0.5,0c-0.2,0-0.4,0-0.5,0
					c-0.1-0.1-0.2-0.2-0.3-0.3c-0.1-0.1-0.1-0.2-0.1-0.3c-0.1-0.1-0.1-0.3-0.1-0.6v-1.3h0.5v1.3c0,0.2,0,0.3,0,0.4
					c0,0.1,0.1,0.2,0.1,0.3c0.1,0.1,0.2,0.1,0.3,0.1c0.2,0,0.3,0,0.4-0.1c0.1-0.1,0.1-0.1,0.1-0.2c0-0.1,0.1-0.2,0.1-0.4v-1.4H65.3z
					 M56.5,12.8c0.3,0,0.5,0,0.5,0c0.1,0.1,0.3,0.2,0.4,0.3c0.1,0.1,0.1,0.3,0.1,0.5c0,0.1,0,0.3,0,0.4c-0.1,0.1-0.2,0.2-0.3,0.3
					c-0.1,0.1-0.2,0.1-0.3,0.1s-0.3,0-0.5,0h-0.3v0.9h-0.5v-2.4h0.9V12.8z M56.4,13.2h-0.2v0.7h0.3c0.2,0,0.3,0,0.4,0
					s0.1-0.1,0.2-0.1c0-0.1,0-0.1,0-0.2c0-0.1,0-0.2-0.1-0.2c0-0.1-0.1-0.1-0.1-0.1C56.7,13.2,56.6,13.2,56.4,13.2z M57.9,12.8h0.5
					v1.3c0,0.2,0,0.3,0,0.4c0,0.1,0.1,0.2,0.2,0.3c0.1,0.1,0.2,0.1,0.3,0.1s0.2,0,0.3-0.1c0.1-0.1,0.1-0.1,0.1-0.2
					c0-0.1,0-0.2,0-0.4v-1.4h0.5v1.3c0,0.3,0,0.5-0.1,0.7c0,0.1-0.1,0.2-0.1,0.3c-0.1,0.1-0.1,0.1-0.3,0.2c-0.1,0-0.3,0-0.5,0
					s-0.4,0-0.5,0c-0.1-0.1-0.2-0.2-0.3-0.3c-0.1-0.1-0.1-0.2-0.1-0.3s-0.1-0.3-0.1-0.6v-1.3H57.9z M52.6,12.8h0.5v1.3
					c0,0.3,0,0.5,0,0.7c0,0.1-0.1,0.2-0.1,0.3c-0.1,0.1-0.2,0.1-0.3,0.2c-0.1,0-0.3,0-0.4,0c-0.2,0-0.4,0-0.6,0
					c-0.1-0.1-0.2-0.2-0.3-0.3c-0.1-0.1-0.1-0.2-0.1-0.3s0-0.3,0-0.6v-1.3h0.5v1.3c0,0.2,0,0.3,0,0.4c0,0.1,0.1,0.2,0.1,0.3
					c0,0.1,0.2,0.1,0.4,0.1c0.1,0,0.2,0,0.3-0.1c0.1-0.1,0.1-0.1,0.1-0.2c0-0.1,0-0.2,0-0.4v-1.4H52.6z M53.4,13.2v-0.4h1.9v0.4
					h-0.7v2h-0.5v-2H53.4z M47.1,12.8v2.4h-0.5l-1-1.5v1.5h-0.4v-2.4h0.4l1,1.6v-1.6H47.1z M48.5,13.4c0.1-0.1,0.1-0.3,0.3-0.4
					c0.1-0.1,0.2-0.2,0.3-0.2c0.2-0.1,0.4-0.1,0.5-0.1c0.4,0,0.7,0.1,0.9,0.4c0.2,0.2,0.3,0.5,0.3,0.9c0,0.4-0.1,0.7-0.3,0.9
					c-0.2,0.2-0.5,0.3-0.9,0.3c-0.4,0-0.6-0.1-0.8-0.3s-0.4-0.5-0.4-0.9v-0.1C48.4,13.7,48.4,13.6,48.5,13.4z M48.9,14
					c0,0.3,0.1,0.5,0.1,0.7c0.1,0.1,0.3,0.2,0.5,0.2c0.2,0,0.4-0.1,0.5-0.2c0.1-0.2,0.2-0.4,0.2-0.7s-0.1-0.5-0.2-0.6
					c-0.1-0.1-0.3-0.2-0.5-0.2c-0.2,0-0.4,0.1-0.5,0.2C49,13.5,48.9,13.7,48.9,14z M42.1,12.8v2.4h-0.5v-2.4H42.1z M40.5,13.2v2H40
					v-2h-0.7v-0.4h1.9v0.4H40.5z M42.8,13c0.1-0.1,0.2-0.2,0.3-0.2c0.1-0.1,0.3-0.1,0.5-0.1c0.4,0,0.7,0.1,0.9,0.4
					c0.2,0.2,0.3,0.5,0.3,0.9c0,0.4-0.1,0.7-0.3,0.9c-0.2,0.2-0.5,0.3-0.9,0.3c-0.4,0-0.7-0.1-0.9-0.3c-0.2-0.2-0.3-0.5-0.3-0.9
					c0-0.2,0-0.4,0.1-0.6C42.6,13.3,42.7,13.2,42.8,13z M43.6,13.2c-0.2,0-0.4,0.1-0.5,0.2c-0.1,0.2-0.2,0.4-0.2,0.6
					s0.1,0.5,0.2,0.7c0.1,0.1,0.3,0.2,0.5,0.2c0.2,0,0.3-0.1,0.5-0.2c0.1-0.2,0.2-0.4,0.2-0.7s-0.1-0.5-0.2-0.6
					C43.9,13.2,43.8,13.2,43.6,13.2z M37.3,13.1c0.2-0.2,0.5-0.4,0.8-0.4c0.3,0,0.5,0.1,0.8,0.3c0.1,0.1,0.2,0.3,0.3,0.5l-0.5,0.2
					c0-0.1-0.1-0.3-0.1-0.4c-0.1-0.1-0.2-0.1-0.4-0.1c-0.2,0-0.4,0.1-0.5,0.2c-0.1,0.1-0.2,0.3-0.2,0.6s0.1,0.5,0.2,0.7
					c0.1,0.1,0.3,0.2,0.5,0.2c0.1,0,0.2-0.1,0.3-0.2c0.1-0.1,0.2-0.2,0.2-0.3l0.5,0.1C39.1,14.8,39,15,38.8,15
					c-0.2,0.1-0.4,0.2-0.6,0.2c-0.3,0-0.6-0.1-0.8-0.3c-0.2-0.2-0.3-0.5-0.3-0.9C36.9,13.6,37.1,13.3,37.3,13.1z M36.6,13.2h-1.3
					v0.5h1.2v0.4h-1.2v0.6h1.3v0.4h-1.8v-2.4h1.8V13.2z M32.2,13.2h-1.3v0.5h1.2v0.4h-1.2v0.6h1.4v0.4h-1.9v-2.4h1.8V13.2z
					 M32.5,12.8h1.9v0.4h-0.7v2h-0.5v-2h-0.7V12.8z M28.8,12.8c0.2,0,0.3,0,0.5,0.1c0.1,0,0.3,0.1,0.4,0.2c0.1,0.1,0.2,0.3,0.3,0.4
					c0,0.2,0,0.4,0,0.6c0,0.2,0,0.4,0,0.5c-0.1,0.2-0.1,0.3-0.3,0.4c-0.2,0.1-0.2,0.2-0.4,0.3c-0.1,0-0.3,0-0.5,0h-0.9v-2.4h0.9
					V12.8z M28.4,13.2v1.6h0.4c0.1,0,0.2,0,0.3,0c0.1,0,0.1-0.1,0.2-0.1c0.1-0.1,0.1-0.2,0.1-0.3c0-0.1,0-0.3,0-0.5s0-0.3,0-0.5
					c0-0.1-0.1-0.2-0.1-0.2c0-0.1-0.1-0.1-0.2-0.1c-0.1,0-0.2,0-0.4,0L28.4,13.2L28.4,13.2z"/>
				<path fill="#FFFFFF" fill-opacity="0.1882" d="M41.9,42v1.4c0,0.2,0,0.3,0,0.4c0,0.1,0.1,0.2,0.1,0.3c0.1,0,0.2,0,0.4,0
					c0.2,0,0.2,0,0.3,0c0.1-0.1,0.1-0.1,0.1-0.3c0-0.1,0-0.2,0-0.4V42h0.5v1.3c0,0.3,0,0.5,0,0.6c0,0.1-0.1,0.2-0.1,0.3
					c-0.1,0.1-0.1,0.2-0.3,0.2c-0.1,0.1-0.3,0.1-0.5,0.1c-0.2,0-0.4,0-0.5-0.1c-0.1-0.1-0.2-0.1-0.3-0.2c-0.1-0.1-0.1-0.2-0.1-0.3
					c0-0.2,0-0.4,0-0.7v-1.3L41.9,42L41.9,42z M45.2,43.4v1h-0.4v-2.5h1c0.3,0,0.4,0,0.5,0.1c0.1,0,0.2,0.1,0.3,0.2
					c0.1,0.1,0.1,0.2,0.1,0.4c0,0.2,0,0.3-0.1,0.5c-0.1,0.1-0.3,0.2-0.5,0.2c0.1,0.1,0.2,0.1,0.3,0.2c0,0.1,0.1,0.3,0.3,0.5l0.3,0.5
					h-0.6L46,44c-0.1-0.2-0.2-0.3-0.3-0.4l-0.1-0.1c0,0-0.1,0-0.3,0L45.2,43.4L45.2,43.4z M45.2,43h0.4c0.2,0,0.4,0,0.4,0
					c0.1,0,0.1,0,0.1-0.1c0,0,0-0.1,0-0.2s0-0.1,0-0.2c-0.1-0.1-0.1-0.1-0.2-0.1c0,0-0.1,0-0.4,0h-0.4V43H45.2z M49.1,42
					c0.3,0,0.5,0,0.6,0.1c0.1,0,0.2,0.1,0.3,0.2c0.1,0.1,0.1,0.2,0.1,0.4S50,43,49.9,43.2c-0.1,0.1-0.3,0.2-0.5,0.2
					c0.1,0.1,0.2,0.1,0.3,0.2c0.1,0.1,0.2,0.3,0.3,0.5l0.3,0.5h-0.5l-0.4-0.5c-0.1-0.2-0.2-0.3-0.3-0.4c0,0-0.1-0.1-0.2-0.1
					c0,0-0.1,0-0.2,0h-0.1v1h-0.5v-2.5h1V42z M49.5,42.7c0-0.1,0-0.1-0.1-0.2c-0.1-0.1-0.1-0.1-0.2-0.1c0,0-0.2,0-0.4,0h-0.4V43h0.4
					c0.2,0,0.4,0,0.4,0s0.1,0,0.1-0.1C49.5,42.9,49.5,42.8,49.5,42.7z M40.1,43.7c-0.1,0.3-0.2,0.5-0.3,0.6
					c-0.2,0.1-0.4,0.2-0.7,0.2c-0.3,0-0.6-0.1-0.8-0.3S38,43.7,38,43.3c0-0.4,0.1-0.7,0.3-1c0.2-0.2,0.5-0.3,0.9-0.3
					c0.3,0,0.5,0.1,0.7,0.3c0.1,0.1,0.2,0.3,0.3,0.5l-0.4,0.1c0-0.1-0.1-0.2-0.2-0.3c-0.1-0.1-0.2-0.1-0.4-0.1c-0.2,0-0.3,0-0.4,0.1
					c-0.1,0.2-0.2,0.4-0.2,0.7c0,0.3,0.1,0.5,0.2,0.7c0.1,0.1,0.2,0.2,0.4,0.2c0.1,0,0.3,0,0.4-0.1c0.1-0.1,0.2-0.2,0.2-0.4H40.1z
					 M54.9,42l1,1.7V42h0.5v2.5h-0.5l-1-1.6v1.6h-0.5V42H54.9z M51.8,43H53v0.5h-1.2v0.6h1.4v0.4h-1.9V42h1.8v0.5h-1.3V43z
					 M58.3,42.5h-0.7V42h1.9v0.5h-0.7v2h-0.5V42.5z"/>
			</g>
		</g>
		<g>
			<g>
				<path fill="#010101" fill-opacity="0.502" d="M16.9,12.6L16.9,12.6c0,0.4-0.1,0.7-0.4,1c-0.1,0.1-0.2,0.2-0.4,0.3
					C16,14,15.8,14,15.6,14l0,0c-0.2,0-0.3,0-0.5-0.1c-0.1,0-0.2-0.1-0.3-0.1l0,0l0,0c-0.1,0-0.2-0.1-0.3-0.1c0-0.1-0.1-0.1-0.1-0.2
					c-0.1-0.2-0.2-0.5-0.2-0.8c0-0.4,0.1-0.7,0.4-1c0.1,0,0.1-0.1,0.1-0.1h0.1c0.2-0.2,0.5-0.3,0.8-0.3c0.2,0,0.5,0.1,0.6,0.2h0.1
					c0.1,0,0.1,0.1,0.2,0.2c0.1,0.1,0.1,0.1,0.1,0.3C16.8,12.1,16.9,12.3,16.9,12.6z"/>
			</g>
			<g>
				<g>
					<path fill="#6A767A" d="M14.6,13.4l0.9-2.2h0.1L14.6,13.4L14.6,13.4z"/>
					
						<linearGradient id="SVGID_12_" gradientUnits="userSpaceOnUse" x1="-37.3882" y1="-24.5605" x2="-37.8882" y2="-25.0605" gradientTransform="matrix(1 0 0 -1 52.3398 -12.626)">
						<stop  offset="0" style="stop-color:#E9E7DF"/>
						<stop  offset="1" style="stop-color:#545359"/>
					</linearGradient>
					<path fill="url(#SVGID_12_)" d="M14.6,13.3L14.6,13.3C14.5,13.3,14.5,13.3,14.6,13.3c-0.2-0.2-0.2-0.2-0.2-0.3
						c-0.2-0.2-0.3-0.4-0.3-0.7c0-0.4,0.1-0.7,0.4-0.9c0.1-0.1,0.1-0.1,0.2-0.2c0.2-0.1,0.4-0.2,0.6-0.2h0.1c0.1,0,0.1,0,0.2,0l0,0
						h-0.1c-0.2,0-0.4,0.1-0.6,0.2c0,0.1-0.1,0.1-0.2,0.1c-0.2,0.3-0.4,0.6-0.4,0.9s0.1,0.5,0.3,0.7C14.4,13.2,14.5,13.2,14.6,13.3
						L14.6,13.3z"/>
					<path fill="#B5B1AC" d="M14.6,13.4L14.6,13.4c-0.1,0.1-0.2,0-0.2-0.1c-0.1-0.1-0.1-0.1-0.2-0.2c-0.1-0.2-0.2-0.5-0.2-0.8
						c0-0.4,0.1-0.7,0.4-1l0.1-0.1h0.1c0.2-0.2,0.5-0.3,0.8-0.3c0.2,0,0.4,0,0.6,0.2v0.1c-0.1-0.1-0.3-0.1-0.5-0.1
						c-0.1,0-0.1,0-0.2,0h-0.1c-0.2,0-0.4,0.1-0.6,0.2c-0.1,0-0.1,0.1-0.2,0.2C14.1,11.7,14,12,14,12.4c0,0.3,0.1,0.5,0.3,0.7
						c0,0,0.1,0.1,0.1,0.2C14.4,13.3,14.5,13.3,14.6,13.4z"/>
					
						<linearGradient id="SVGID_13_" gradientUnits="userSpaceOnUse" x1="-37.2246" y1="-23.9106" x2="-38.0046" y2="-25.2827" gradientTransform="matrix(1 0 0 -1 52.3398 -12.626)">
						<stop  offset="0" style="stop-color:#606170"/>
						<stop  offset="1" style="stop-color:#7D7D7D"/>
					</linearGradient>
					<path fill="url(#SVGID_13_)" d="M15.4,11.2l-0.9,2.1l0,0c0-0.1-0.1-0.1-0.1-0.2c-0.2-0.2-0.3-0.4-0.3-0.7s0.1-0.6,0.4-0.9
						c0.1,0,0.2-0.1,0.2-0.1c0.2-0.1,0.4-0.2,0.6-0.2H15.4L15.4,11.2z"/>
					
						<linearGradient id="SVGID_14_" gradientUnits="userSpaceOnUse" x1="-10.9492" y1="762.1357" x2="-8.6086" y2="762.1357" gradientTransform="matrix(-0.3952 0.9186 0.9139 0.4062 -685.0699 -288.4493)">
						<stop  offset="0" style="stop-color:#3E3E48"/>
						<stop  offset="1" style="stop-color:#34373E"/>
					</linearGradient>
					<path fill="url(#SVGID_14_)" d="M14.7,13.4l0.9-2.2h0.1c0.1,0,0.1,0,0.1,0l0,0l-1,2.2l0,0C14.7,13.5,14.7,13.4,14.7,13.4z"/>
					<polygon fill="#32353E" points="14.6,13.3 15.4,11.2 15.5,11.2 15.5,11.2 14.6,13.4 					"/>
					<path fill="#A9AAB0" d="M16.7,12.4c0-0.3-0.1-0.6-0.4-0.9c-0.1,0-0.1-0.1-0.2-0.1l0,0L16,11.3l0,0v-0.1c0.1,0,0.1,0.1,0.1,0.1
						c0.1,0,0.1,0.1,0.2,0.2c0.1,0.1,0.1,0.1,0.1,0.3C16.6,11.8,16.7,12,16.7,12.4z"/>
					
						<linearGradient id="SVGID_15_" gradientUnits="userSpaceOnUse" x1="-36.0684" y1="-24.9043" x2="-36.8934" y2="-25.7293" gradientTransform="matrix(1 0 0 -1 52.3398 -12.626)">
						<stop  offset="0" style="stop-color:#6A6F75"/>
						<stop  offset="1" style="stop-color:#434142"/>
					</linearGradient>
					<path fill="url(#SVGID_15_)" d="M15.1,13.6L15.1,13.6c0.1,0,0.1,0,0.2,0c0.4,0,0.7-0.1,0.9-0.4c0.2-0.2,0.4-0.5,0.4-0.8
						c0-0.4-0.1-0.7-0.4-0.9l-0.1-0.1l0,0c0.1,0.1,0.1,0.1,0.2,0.1c0.2,0.2,0.3,0.5,0.4,0.9c0,0.4-0.2,0.7-0.4,0.9
						c-0.1,0.1-0.3,0.2-0.4,0.3c-0.1,0.1-0.3,0.1-0.4,0.1C15.3,13.7,15.2,13.6,15.1,13.6z"/>
					
						<linearGradient id="SVGID_16_" gradientUnits="userSpaceOnUse" x1="-4.0435" y1="758.585" x2="-2.6644" y2="758.585" gradientTransform="matrix(-0.3807 0.9247 0.9204 0.3912 -683.4728 -281.0526)">
						<stop  offset="0" style="stop-color:#B9BDBE"/>
						<stop  offset="1" style="stop-color:#616169"/>
					</linearGradient>
					<path fill="url(#SVGID_16_)" d="M16.1,11.4l0.1,0.1c0.2,0.2,0.4,0.5,0.4,0.9c0,0.3-0.1,0.6-0.4,0.8c-0.2,0.3-0.5,0.4-0.9,0.4
						c-0.1,0-0.1,0-0.2-0.1c0.2,0,0.3,0,0.5-0.1c0.1-0.1,0.3-0.2,0.4-0.3c0.2-0.2,0.3-0.5,0.3-0.9l0,0
						C16.3,11.9,16.2,11.7,16.1,11.4c-0.1,0-0.2,0-0.2-0.1H16l0,0C16,11.3,16,11.3,16.1,11.4z"/>
					
						<linearGradient id="SVGID_17_" gradientUnits="userSpaceOnUse" x1="-35.9756" y1="-23.9312" x2="-36.821" y2="-26.2079" gradientTransform="matrix(1 0 0 -1 52.3398 -12.626)">
						<stop  offset="0" style="stop-color:#676D7B"/>
						<stop  offset="1" style="stop-color:#494F62"/>
					</linearGradient>
					<path fill="url(#SVGID_17_)" d="M15.1,13.5l0.8-2.2v-0.1c0,0,0.1,0.1,0.2,0.2c0.2,0.2,0.3,0.5,0.3,0.8l0,0
						c0,0.3-0.1,0.6-0.3,0.9c-0.1,0.1-0.3,0.2-0.4,0.3C15.4,13.5,15.3,13.5,15.1,13.5z"/>
					<polygon fill="#647072" points="15.8,11.4 14.9,13.5 14.9,13.5 14.8,13.5 15.8,11.3 15.8,11.3 					"/>
					<path fill="#615E69" d="M14.8,13.6v-0.1h0.1l0,0l0.1,0.1c0.1,0,0.2,0,0.4,0c0.2,0,0.3,0,0.4-0.1c-0.1,0.1-0.3,0.2-0.5,0.2l0,0
						C15.1,13.7,15,13.7,14.8,13.6z"/>
					<path fill="#39383D" d="M14.8,13.5v0.1c-0.1,0-0.1-0.1-0.2-0.1l0.1-0.1C14.7,13.4,14.7,13.5,14.8,13.5L14.8,13.5z"/>
					<path fill="#6C6B71" d="M14.6,13.4L14.6,13.4h0.1H14.6L14.6,13.4L14.6,13.4L14.6,13.4z"/>
					<path fill="#53535B" d="M14.6,13.3L14.6,13.3l0.1,0.1h-0.1C14.6,13.4,14.6,13.4,14.6,13.3L14.6,13.3z"/>
					<path fill="#B8C0C3" d="M15.1,13.5L15.1,13.5C15,13.6,15,13.5,15.1,13.5L15.1,13.5z"/>
					<path fill="#ABB2B4" d="M14.9,13.5l0.9-2.2L15,13.5C15.1,13.5,15,13.5,14.9,13.5z"/>
				</g>
			</g>
		</g>
		<g>
			<g>
				<path fill="#010101" fill-opacity="0.502" d="M14.8,42c0.2-0.2,0.5-0.3,0.8-0.3c0.2,0,0.5,0.1,0.6,0.2h0.1
					c0.1,0,0.1,0.1,0.2,0.2c0.1,0.1,0.1,0.1,0.1,0.2c0.2,0.2,0.3,0.5,0.3,0.8c0,0.4-0.1,0.7-0.4,1c-0.1,0.1-0.2,0.2-0.4,0.3
					c-0.1,0.1-0.3,0.1-0.5,0.1l0,0c-0.2,0-0.3,0-0.5-0.1c-0.1,0-0.2,0-0.3-0.1l0,0v-0.1c-0.1,0-0.2-0.1-0.3-0.1
					c0-0.1-0.1-0.1-0.1-0.2c-0.1-0.2-0.2-0.5-0.2-0.8c0-0.4,0.1-0.7,0.4-1c0.1-0.1,0.1-0.1,0.1-0.1C14.7,42.1,14.8,42.1,14.8,42z"/>
			</g>
			<g>
				<g>
					<path fill="#B5B1AC" d="M15.9,41.8c-0.1-0.1-0.3-0.1-0.5-0.1c-0.1,0-0.1,0-0.2,0h-0.1c-0.2,0-0.4,0.1-0.6,0.2
						C14.4,42,14.4,42,14.3,42c-0.3,0.2-0.4,0.5-0.4,0.9c0,0.3,0.1,0.5,0.3,0.7c0,0,0.1,0.1,0.1,0.2l0.1,0.1V44
						c-0.1,0-0.1-0.1-0.2-0.1c-0.1-0.1-0.1-0.1-0.2-0.2c-0.1-0.2-0.2-0.5-0.2-0.8c0-0.4,0.1-0.7,0.4-1c0-0.1,0.1-0.1,0.1-0.2h0.1
						c0.2-0.1,0.5-0.2,0.8-0.2c0.2,0,0.4,0,0.6,0.1v0.2H15.9z"/>
					
						<linearGradient id="SVGID_18_" gradientUnits="userSpaceOnUse" x1="-37.438" y1="-55.1108" x2="-37.9378" y2="-55.6106" gradientTransform="matrix(1 0 0 -1 52.3398 -12.626)">
						<stop  offset="0" style="stop-color:#E9E7DF"/>
						<stop  offset="1" style="stop-color:#545359"/>
					</linearGradient>
					<path fill="url(#SVGID_18_)" d="M15.4,41.7L15.4,41.7h-0.1c-0.2,0-0.4,0.1-0.6,0.3c0,0-0.1,0.1-0.2,0.2
						c-0.2,0.2-0.4,0.5-0.4,0.8s0.1,0.5,0.3,0.7c0,0.1,0.1,0.1,0.1,0.2l0,0c-0.1,0-0.1-0.1-0.1-0.1c-0.1-0.1-0.1-0.2-0.1-0.2
						c-0.2-0.2-0.3-0.4-0.3-0.7c0-0.4,0.1-0.7,0.4-0.9c0.1,0,0.1-0.1,0.2-0.1c0.2-0.1,0.4-0.2,0.6-0.2h0.1H15.4z"/>
					
						<linearGradient id="SVGID_19_" gradientUnits="userSpaceOnUse" x1="-37.1978" y1="-54.4751" x2="-37.9781" y2="-55.8477" gradientTransform="matrix(1 0 0 -1 52.3398 -12.626)">
						<stop  offset="0" style="stop-color:#606170"/>
						<stop  offset="1" style="stop-color:#7D7D7D"/>
					</linearGradient>
					<path fill="url(#SVGID_19_)" d="M15.4,41.7l-0.9,2.2l0,0c0-0.1-0.1-0.1-0.1-0.2c-0.2-0.2-0.3-0.4-0.3-0.7s0.1-0.6,0.4-0.8
						c0.1-0.1,0.2-0.1,0.2-0.2c0.2-0.1,0.4-0.2,0.6-0.3H15.4z"/>
					
						<linearGradient id="SVGID_20_" gradientUnits="userSpaceOnUse" x1="17.0156" y1="774.249" x2="19.3561" y2="774.249" gradientTransform="matrix(-0.3952 0.9186 0.9139 0.4062 -685.0699 -288.4493)">
						<stop  offset="0" style="stop-color:#3E3E48"/>
						<stop  offset="1" style="stop-color:#34373E"/>
					</linearGradient>
					<path fill="url(#SVGID_20_)" d="M14.7,44l0.9-2.2h0.1c0.1,0,0.1,0,0.1,0v0.1l-1,2.2l0,0C14.7,44,14.7,44,14.7,44z"/>
					<path fill="#39383D" d="M14.6,44L14.6,44c0.1-0.1,0.1,0,0.2,0l0,0v0.1C14.7,44.1,14.7,44.1,14.6,44z"/>
					<path fill="#615E69" d="M15.1,44.2c0.1,0,0.2,0,0.4,0c0.2,0,0.3,0,0.4-0.1c-0.1,0.1-0.3,0.1-0.5,0.1l0,0c-0.2,0-0.3,0-0.5-0.1
						V44L15.1,44.2L15.1,44.2C15,44.1,15,44.2,15.1,44.2z"/>
					<path fill="#B8C0C3" d="M15.1,44.1L15.1,44.1C15,44.1,15,44.1,15.1,44.1L15.1,44.1z"/>
					<path fill="#ABB2B4" d="M14.9,44.1l0.9-2.2L15,44.1C15.1,44.1,15,44.1,14.9,44.1z"/>
					
						<linearGradient id="SVGID_21_" gradientUnits="userSpaceOnUse" x1="-36.144" y1="-55.3804" x2="-36.969" y2="-56.2053" gradientTransform="matrix(1 0 0 -1 52.3398 -12.626)">
						<stop  offset="0" style="stop-color:#6A6F75"/>
						<stop  offset="1" style="stop-color:#434142"/>
					</linearGradient>
					<path fill="url(#SVGID_21_)" d="M15.8,44.1c-0.1,0.1-0.3,0.1-0.4,0.1s-0.3,0-0.4,0l0,0c0,0,0.1,0,0.2,0c0.4,0,0.7-0.1,0.9-0.4
						c0.2-0.3,0.4-0.6,0.4-0.9c0-0.4-0.1-0.7-0.4-0.9c-0.1,0-0.1-0.1-0.2-0.1L16,42c0.1,0,0.1,0.1,0.2,0.2c0.2,0.2,0.3,0.5,0.4,0.8
						l0,0c0,0.3-0.2,0.6-0.4,0.9C16.1,44,16,44,15.8,44.1z"/>
					<polygon fill="#647072" points="15.8,41.9 14.9,44.1 14.9,44.1 14.8,44 15.8,41.9 					"/>
					<polygon fill="#6C6B71" points="14.5,44 14.6,43.9 14.6,43.9 14.6,44 14.7,44 14.6,44 14.6,44 					"/>
					<polygon fill="#32353E" points="14.6,43.9 15.4,41.7 15.5,41.7 15.5,41.7 					"/>
					<polygon fill="#53535B" points="14.6,43.9 14.7,44 14.6,44 					"/>
					<path fill="#6A767A" d="M15.5,41.7C15.5,41.7,15.6,41.7,15.5,41.7l-0.9,2.2h-0.1L15.5,41.7z"/>
					<path fill="#A9AAB0" d="M16.7,42.9c0-0.3-0.1-0.6-0.4-0.8c-0.1-0.1-0.1-0.1-0.2-0.2c-0.1,0-0.1-0.1-0.1-0.1s0,0,0-0.1v-0.1
						c0.1,0,0.1,0.1,0.1,0.1c0.1,0,0.1,0.1,0.2,0.2c0.1,0,0.1,0.1,0.1,0.2C16.6,42.4,16.7,42.6,16.7,42.9z"/>
					
						<linearGradient id="SVGID_22_" gradientUnits="userSpaceOnUse" x1="-35.9272" y1="-54.5" x2="-36.7726" y2="-56.7767" gradientTransform="matrix(1 0 0 -1 52.3398 -12.626)">
						<stop  offset="0" style="stop-color:#676D7B"/>
						<stop  offset="1" style="stop-color:#494F62"/>
					</linearGradient>
					<path fill="url(#SVGID_22_)" d="M15.1,44.1l0.8-2.2l0,0c0,0,0.1,0.1,0.2,0.1c0.2,0.2,0.3,0.5,0.3,0.8v0.1
						c0,0.3-0.1,0.6-0.3,0.9c-0.1,0.1-0.3,0.2-0.4,0.3C15.4,44.1,15.3,44.1,15.1,44.1z"/>
					
						<linearGradient id="SVGID_23_" gradientUnits="userSpaceOnUse" x1="24.1206" y1="770.124" x2="25.4995" y2="770.124" gradientTransform="matrix(-0.3807 0.9247 0.9204 0.3912 -683.4728 -281.0526)">
						<stop  offset="0" style="stop-color:#B9BDBE"/>
						<stop  offset="1" style="stop-color:#616169"/>
					</linearGradient>
					<path fill="url(#SVGID_23_)" d="M15.8,41.9L15.8,41.9c0.1,0,0.1,0,0.1,0C16,42,16,42,16.1,42c0.2,0.2,0.4,0.5,0.4,0.9
						c0,0.3-0.1,0.6-0.4,0.9c-0.2,0.2-0.5,0.4-0.9,0.4c-0.1,0-0.1,0-0.2,0c0.2,0,0.3,0,0.5-0.1c0.1-0.1,0.3-0.1,0.4-0.3
						c0.2-0.3,0.3-0.6,0.3-0.9v-0.1c0-0.3-0.1-0.6-0.3-0.8C15.9,41.9,15.9,41.9,15.8,41.9z"/>
				</g>
			</g>
		</g>
		<g>
			<g>
				<path fill="#010101" fill-opacity="0.502" d="M88.8,11.2L88.8,11.2L88.8,11.2L88.8,11.2z M88.8,11c0.1,0.1,0.1,0.1,0.2,0.2
					c0.1,0.1,0.1,0.1,0.2,0.2c0.1,0.2,0.2,0.5,0.2,0.8l0,0c0,0.3-0.1,0.6-0.4,0.9c-0.1,0.1-0.2,0.2-0.4,0.3
					c-0.2,0.1-0.4,0.1-0.5,0.1H88c-0.2,0-0.3,0-0.4-0.1c-0.1,0-0.1,0-0.2,0l0,0c0,0-0.1,0-0.1-0.1c-0.1,0-0.1-0.1-0.2-0.1
					C87,13.1,87,13.1,87,13c-0.2-0.2-0.3-0.5-0.3-0.8c0-0.4,0.1-0.7,0.4-1l0.1-0.1V11c0.2-0.1,0.5-0.2,0.8-0.2
					C88.3,10.9,88.6,10.9,88.8,11L88.8,11z"/>
			</g>
			<g>
				<g>
					<path fill="#A9AAB0" d="M88.5,10.9L88.5,10.9v-0.2C88.5,10.7,88.6,10.8,88.5,10.9c0.2,0,0.2,0,0.3,0.1c0.1,0.1,0.1,0.1,0.2,0.2
						c0.1,0.2,0.2,0.4,0.2,0.6c0-0.3-0.1-0.5-0.4-0.7C88.7,11,88.7,11,88.5,10.9L88.5,10.9z"/>
					
						<linearGradient id="SVGID_24_" gradientUnits="userSpaceOnUse" x1="36.457" y1="-24.4302" x2="35.632" y2="-25.2552" gradientTransform="matrix(1 0 0 -1 52.3398 -12.626)">
						<stop  offset="0" style="stop-color:#6A6F75"/>
						<stop  offset="1" style="stop-color:#434142"/>
					</linearGradient>
					<path fill="url(#SVGID_24_)" d="M89.2,11.8V12c0,0.3-0.1,0.6-0.4,0.9c-0.1,0.1-0.2,0.2-0.4,0.3c-0.2,0-0.3,0-0.4,0
						c-0.1,0-0.3,0-0.4,0h0.1c0.1,0,0.1,0,0.2,0c0.3,0,0.6-0.1,0.9-0.4c0.2-0.3,0.4-0.6,0.4-0.9s-0.1-0.6-0.4-0.9
						c-0.1-0.1-0.1-0.1-0.2-0.1l0,0l0.1,0.1c0.1,0,0.1,0.1,0.2,0.2C89.1,11.3,89.2,11.5,89.2,11.8z"/>
					<path fill="#B5B1AC" d="M87.1,12.9L87.1,12.9L87.1,12.9c-0.1,0-0.1,0-0.2-0.1c-0.1-0.1-0.1-0.1-0.1-0.2
						c-0.2-0.2-0.3-0.5-0.3-0.8c0-0.4,0.1-0.7,0.4-1c0,0,0.1-0.1,0.1-0.2l0,0c0.2-0.2,0.5-0.3,0.8-0.3c0.2,0,0.5,0.1,0.7,0.2
						l-0.1,0.2c-0.1-0.1-0.3-0.2-0.4-0.2c0,0-0.1,0-0.2,0h-0.1c-0.2,0-0.4,0.1-0.6,0.3c-0.1,0-0.1,0.1-0.2,0.1
						c-0.2,0.2-0.4,0.5-0.4,0.9c0,0.3,0.1,0.5,0.2,0.7c0,0.1,0.1,0.1,0.1,0.2C87,12.8,87.1,12.9,87.1,12.9z"/>
					
						<linearGradient id="SVGID_25_" gradientUnits="userSpaceOnUse" x1="35.168" y1="-24.1675" x2="34.668" y2="-24.6675" gradientTransform="matrix(1 0 0 -1 52.3398 -12.626)">
						<stop  offset="0" style="stop-color:#E9E7DF"/>
						<stop  offset="1" style="stop-color:#545359"/>
					</linearGradient>
					<path fill="url(#SVGID_25_)" d="M88,10.7L88,10.7h-0.1c-0.2,0-0.4,0.1-0.6,0.2c-0.1,0-0.1,0.1-0.2,0.2
						c-0.2,0.3-0.3,0.6-0.3,0.9c0,0.2,0.1,0.5,0.2,0.7c0,0.1,0.1,0.1,0.1,0.2l0,0L87,12.8c-0.1-0.1-0.1-0.1-0.1-0.2
						c-0.1-0.2-0.2-0.4-0.2-0.7s0.1-0.6,0.4-0.9c0.1-0.1,0.1-0.1,0.2-0.1c0.2-0.1,0.4-0.2,0.6-0.3L88,10.7
						C87.9,10.7,88,10.7,88,10.7z"/>
					
						<linearGradient id="SVGID_26_" gradientUnits="userSpaceOnUse" x1="-32.7905" y1="825.5479" x2="-31.4117" y2="825.5479" gradientTransform="matrix(-0.3807 0.9247 0.9204 0.3912 -683.4728 -281.0526)">
						<stop  offset="0" style="stop-color:#B9BDBE"/>
						<stop  offset="1" style="stop-color:#616169"/>
					</linearGradient>
					<path fill="url(#SVGID_26_)" d="M87.7,13.1L87.7,13.1c0.2,0,0.4,0,0.5-0.1c0.1-0.1,0.3-0.2,0.4-0.3c0.2-0.2,0.4-0.5,0.4-0.8
						l0,0c0-0.3-0.1-0.6-0.4-0.9c0-0.1-0.1-0.1-0.1-0.1l0,0h0.1l0,0c0.1,0,0.1,0.1,0.2,0.1c0.2,0.2,0.4,0.5,0.4,0.9
						c0,0.3-0.1,0.6-0.4,0.9c-0.2,0.2-0.5,0.4-0.9,0.4C87.8,13.2,87.7,13.2,87.7,13.1L87.7,13.1z"/>
					
						<linearGradient id="SVGID_27_" gradientUnits="userSpaceOnUse" x1="-40.7822" y1="828.7314" x2="-38.4416" y2="828.7314" gradientTransform="matrix(-0.3952 0.9186 0.9139 0.4062 -685.0699 -288.4493)">
						<stop  offset="0" style="stop-color:#3E3E48"/>
						<stop  offset="1" style="stop-color:#34373E"/>
					</linearGradient>
					<path fill="url(#SVGID_27_)" d="M87.3,13l0.9-2.2h0.1c0,0,0.1,0,0.1,0.1h0.1l-1,2.3v-0.1C87.4,13,87.4,13,87.3,13L87.3,13z"/>
					<polygon fill="#647072" points="88.4,10.9 88.4,10.9 87.6,13.2 87.4,13.2 87.4,13.1 					"/>
					
						<linearGradient id="SVGID_28_" gradientUnits="userSpaceOnUse" x1="36.6494" y1="-23.5415" x2="35.8043" y2="-25.8173" gradientTransform="matrix(1 0 0 -1 52.3398 -12.626)">
						<stop  offset="0" style="stop-color:#676D7B"/>
						<stop  offset="1" style="stop-color:#494F62"/>
					</linearGradient>
					<path fill="url(#SVGID_28_)" d="M87.7,13.1l0.8-2.2l0,0c0,0,0.1,0,0.1,0.1c0.2,0.2,0.4,0.5,0.4,0.9l0,0c0,0.3-0.1,0.6-0.4,0.8
						c-0.1,0.1-0.3,0.2-0.4,0.3C88,13.1,87.9,13.1,87.7,13.1L87.7,13.1z"/>
					<polygon fill="#32353E" points="88.1,10.7 87.2,13 87.2,12.9 88,10.7 					"/>
					<path fill="#6A767A" d="M87.2,13l0.9-2.2h0.1L87.2,13C87.2,13,87.2,13,87.2,13z"/>
					
						<linearGradient id="SVGID_29_" gradientUnits="userSpaceOnUse" x1="35.3696" y1="-23.4858" x2="34.5895" y2="-24.8579" gradientTransform="matrix(1 0 0 -1 52.3398 -12.626)">
						<stop  offset="0" style="stop-color:#606170"/>
						<stop  offset="1" style="stop-color:#7D7D7D"/>
					</linearGradient>
					<path fill="url(#SVGID_29_)" d="M88,10.7l-0.9,2.2H87l0,0c-0.1-0.1-0.1-0.1-0.1-0.2c-0.1-0.2-0.2-0.4-0.2-0.7s0.1-0.6,0.3-0.9
						c0.1-0.1,0.1-0.1,0.2-0.2c0.2-0.1,0.4-0.2,0.6-0.2C87.9,10.7,88,10.7,88,10.7z"/>
					<path fill="#53535B" d="M87.3,13L87.3,13L87.3,13L87.3,13C87.2,13,87.2,13,87.3,13z"/>
					<polygon fill="#6C6B71" points="87.2,12.9 87.2,13 87.2,13 87.2,13.1 87.2,13 87.1,13 					"/>
					<path fill="#39383D" d="M87.2,13C87.3,13,87.3,13,87.2,13c0.1,0,0.2,0,0.2,0.1l0,0l0,0c-0.1,0-0.1,0-0.3,0L87.2,13z"/>
					<path fill="#615E69" d="M87.6,13.2L87.6,13.2c0.2,0,0.3,0,0.5,0s0.3,0,0.4,0c-0.2,0.1-0.4,0.1-0.5,0.1h-0.2
						c-0.2,0-0.3,0-0.4-0.1l0,0l0,0H87.6z"/>
					<path fill="#B8C0C3" d="M87.6,13.2L87.6,13.2C87.6,13.1,87.6,13.1,87.6,13.2L87.6,13.2L87.6,13.2z M87.4,13L87.4,13L87.4,13
						L87.4,13z"/>
					<path fill="#ABB2B4" d="M88.4,10.9l-0.8,2.2h-0.1L88.4,10.9z"/>
				</g>
			</g>
		</g>
		<g>
			<g>
				<path fill="#010101" fill-opacity="0.502" d="M89.3,42c0.1,0.2,0.2,0.5,0.2,0.8l0,0c0,0.4-0.1,0.7-0.4,0.9
					c-0.1,0.1-0.2,0.2-0.4,0.3c-0.2,0.1-0.4,0.1-0.5,0.1h-0.1c-0.2,0-0.3,0-0.4-0.1c-0.1,0-0.1-0.1-0.2-0.1l0,0h-0.1
					c-0.1-0.1-0.1-0.1-0.2-0.2c-0.1,0-0.1-0.1-0.1-0.2c-0.2-0.2-0.3-0.5-0.3-0.8c0-0.4,0.1-0.7,0.4-1l0.1-0.1l0,0
					c0.2-0.2,0.5-0.3,0.8-0.3c0.2,0,0.5,0,0.7,0.1l0.1,0.1c0.1,0,0.1,0.1,0.2,0.1C89.1,41.9,89.2,41.9,89.3,42z M88.8,41.7
					L88.8,41.7L88.8,41.7L88.8,41.7z"/>
			</g>
			<g>
				<g>
					
						<linearGradient id="SVGID_30_" gradientUnits="userSpaceOnUse" x1="36.4375" y1="-55.0112" x2="35.6122" y2="-55.8366" gradientTransform="matrix(1 0 0 -1 52.3398 -12.626)">
						<stop  offset="0" style="stop-color:#6A6F75"/>
						<stop  offset="1" style="stop-color:#434142"/>
					</linearGradient>
					<path fill="url(#SVGID_30_)" d="M87.8,43.8c-0.1,0-0.2,0-0.3,0h0.1C87.7,43.7,87.8,43.7,87.8,43.8c0.3-0.1,0.6-0.2,0.9-0.4
						c0.2-0.3,0.4-0.6,0.4-0.9s-0.1-0.6-0.4-0.8c-0.1-0.1-0.1-0.1-0.2-0.2l0,0l0.1,0.1c0.1,0,0.1,0.1,0.2,0.2
						c0.2,0.2,0.3,0.4,0.4,0.7v0.1c0,0.4-0.1,0.7-0.4,0.9c-0.1,0.1-0.2,0.2-0.4,0.3c-0.1,0.1-0.3,0.1-0.4,0.1
						C88,43.8,87.9,43.8,87.8,43.8L87.8,43.8z"/>
					<path fill="#A9AAB0" d="M88.5,41.4L88.5,41.4v-0.2C88.5,41.3,88.6,41.3,88.5,41.4c0.2,0,0.2,0,0.3,0.1c0.1,0.1,0.1,0.1,0.2,0.2
						c0.1,0.2,0.2,0.4,0.2,0.7c0-0.3-0.1-0.5-0.4-0.7C88.7,41.6,88.7,41.6,88.5,41.4L88.5,41.4z"/>
					<path fill="#B5B1AC" d="M87.2,43.5l-0.1,0.1c-0.1-0.1-0.1-0.1-0.2-0.2c-0.1,0-0.1-0.1-0.1-0.2c-0.2-0.2-0.3-0.5-0.3-0.8
						c0-0.4,0.1-0.7,0.4-1l0.1-0.1l0,0c0.2-0.2,0.5-0.3,0.8-0.3c0.2,0,0.5,0,0.7,0.1l-0.1,0.2c-0.1-0.1-0.3-0.2-0.4-0.2
						c0,0-0.1,0-0.2,0h-0.1c-0.2,0-0.4,0.1-0.6,0.2c-0.1,0-0.1,0.1-0.2,0.2c-0.2,0.2-0.4,0.5-0.4,0.8c0,0.3,0.1,0.5,0.2,0.7
						c0,0.1,0.1,0.1,0.1,0.2C87,43.4,87.1,43.4,87.2,43.5z"/>
					
						<linearGradient id="SVGID_31_" gradientUnits="userSpaceOnUse" x1="35.1821" y1="-54.7319" x2="34.6821" y2="-55.2319" gradientTransform="matrix(1 0 0 -1 52.3398 -12.626)">
						<stop  offset="0" style="stop-color:#E9E7DF"/>
						<stop  offset="1" style="stop-color:#545359"/>
					</linearGradient>
					<path fill="url(#SVGID_31_)" d="M88,41.2L88,41.2h-0.1c-0.2,0-0.4,0.1-0.6,0.2c-0.1,0-0.1,0.1-0.2,0.2
						c-0.2,0.3-0.3,0.6-0.3,0.9s0.1,0.5,0.2,0.7c0,0.1,0.1,0.2,0.1,0.2s0,0,0.1,0l0,0c-0.1-0.1-0.1-0.1-0.2-0.1
						c-0.1-0.1-0.1-0.1-0.1-0.2c-0.1-0.2-0.2-0.4-0.2-0.7s0.1-0.6,0.4-0.8c0.1-0.1,0.1-0.1,0.2-0.2c0.2-0.1,0.4-0.2,0.6-0.2H88
						C87.9,41.2,88,41.2,88,41.2z"/>
					<polygon fill="#32353E" points="87.2,43.5 88,41.3 88.1,41.3 					"/>
					<path fill="#6A767A" d="M87.2,43.5l0.9-2.2h0.1L87.2,43.5C87.2,43.5,87.2,43.5,87.2,43.5z"/>
					
						<linearGradient id="SVGID_32_" gradientUnits="userSpaceOnUse" x1="35.3906" y1="-54.0479" x2="34.6105" y2="-55.4199" gradientTransform="matrix(1 0 0 -1 52.3398 -12.626)">
						<stop  offset="0" style="stop-color:#606170"/>
						<stop  offset="1" style="stop-color:#7D7D7D"/>
					</linearGradient>
					<path fill="url(#SVGID_32_)" d="M88,41.3l-0.9,2.2H87c-0.1,0-0.1-0.1-0.1-0.2c-0.1-0.2-0.2-0.4-0.2-0.7c0-0.3,0.1-0.6,0.3-0.9
						c0.1-0.1,0.1-0.1,0.2-0.2c0.2-0.1,0.4-0.2,0.6-0.2C87.9,41.3,88,41.3,88,41.3z"/>
					
						<linearGradient id="SVGID_33_" gradientUnits="userSpaceOnUse" x1="-4.6714" y1="837.1963" x2="-3.2929" y2="837.1963" gradientTransform="matrix(-0.3807 0.9247 0.9204 0.3912 -683.4728 -281.0526)">
						<stop  offset="0" style="stop-color:#B9BDBE"/>
						<stop  offset="1" style="stop-color:#616169"/>
					</linearGradient>
					<path fill="url(#SVGID_33_)" d="M87.7,43.7L87.7,43.7L87.7,43.7c0.2,0,0.4-0.1,0.5-0.1c0.1-0.1,0.3-0.2,0.4-0.3
						c0.2-0.2,0.4-0.5,0.4-0.8l0,0c0-0.3-0.1-0.6-0.4-0.9l-0.1-0.1l0,0h0.1l0,0c0.1,0,0.1,0.1,0.2,0.2c0.2,0.2,0.4,0.5,0.4,0.8
						s-0.1,0.6-0.4,0.9c-0.2,0.2-0.5,0.3-0.9,0.3C87.8,43.7,87.7,43.7,87.7,43.7z"/>
					
						<linearGradient id="SVGID_34_" gradientUnits="userSpaceOnUse" x1="-12.8633" y1="840.7842" x2="-10.5228" y2="840.7842" gradientTransform="matrix(-0.3952 0.9186 0.9139 0.4062 -685.0699 -288.4493)">
						<stop  offset="0" style="stop-color:#3E3E48"/>
						<stop  offset="1" style="stop-color:#34373E"/>
					</linearGradient>
					<path fill="url(#SVGID_34_)" d="M87.3,43.5l0.9-2.2c0,0,0.1,0,0.1,0.1h0.1h0.1l-1,2.3h-0.1C87.3,43.6,87.3,43.6,87.3,43.5z"/>
					<polygon fill="#647072" points="87.4,43.7 88.4,41.4 88.4,41.5 88.4,41.5 87.6,43.7 					"/>
					
						<linearGradient id="SVGID_35_" gradientUnits="userSpaceOnUse" x1="36.6655" y1="-54.0972" x2="35.8198" y2="-56.3748" gradientTransform="matrix(1 0 0 -1 52.3398 -12.626)">
						<stop  offset="0" style="stop-color:#676D7B"/>
						<stop  offset="1" style="stop-color:#494F62"/>
					</linearGradient>
					<path fill="url(#SVGID_35_)" d="M87.7,43.7l0.8-2.2l0,0l0.1,0.1c0.2,0.2,0.4,0.5,0.4,0.9l0,0c0,0.3-0.1,0.6-0.4,0.8
						c-0.1,0.1-0.3,0.2-0.4,0.3C88,43.6,87.9,43.7,87.7,43.7L87.7,43.7z"/>
					<path fill="#615E69" d="M87.6,43.7L87.6,43.7c0.1,0.1,0.2,0.1,0.3,0.1C87.7,43.8,87.6,43.8,87.6,43.7L87.6,43.7L87.6,43.7
						L87.6,43.7z"/>
					<path fill="#39383D" d="M87.2,43.5c0.1,0,0.1,0,0.1,0.1h0.1l0,0v0.1c-0.1,0-0.1-0.1-0.3-0.1L87.2,43.5z"/>
					<path fill="#B8C0C3" d="M87.6,43.7h0.1l0,0H87.6L87.6,43.7z"/>
					<path fill="#ABB2B4" d="M88.4,41.5l-0.8,2.2h-0.1L88.4,41.5z"/>
					<path fill="#53535B" d="M87.3,43.5c0,0.1,0.1,0.1,0.1,0.1C87.3,43.6,87.3,43.6,87.3,43.5L87.3,43.5
						C87.2,43.5,87.2,43.5,87.3,43.5z"/>
					<polygon fill="#6C6B71" points="87.2,43.5 87.2,43.5 87.2,43.7 87.2,43.6 87.1,43.6 					"/>
				</g>
			</g>
		</g>
		<g>
			<g>
				<g>
					
						<linearGradient id="SVGID_36_" gradientUnits="userSpaceOnUse" x1="29.6064" y1="-39.5151" x2="34.6356" y2="-48.2377" gradientTransform="matrix(1 0 0 -1 52.3398 -12.626)">
						<stop  offset="0" style="stop-color:#4E4E4E"/>
						<stop  offset="0.3059" style="stop-color:#A7A6A6"/>
						<stop  offset="1" style="stop-color:#010101"/>
					</linearGradient>
					<path fill="url(#SVGID_36_)" d="M87,28.7c0.7,0.7,1.1,1.5,1.1,2.5s-0.4,1.9-1.1,2.6c-0.7,0.7-1.6,1-2.6,1s-1.9-0.4-2.6-1
						c-0.7-0.7-1.1-1.6-1.1-2.6s0.4-1.8,1.1-2.5s1.6-1,2.6-1S86.3,28,87,28.7z M87.3,31.3c0-0.8-0.3-1.4-0.9-1.9
						c-0.5-0.5-1.2-0.8-2-0.8c-0.8,0-1.4,0.3-2,0.8c-0.5,0.5-0.8,1.2-0.8,1.9c0,0.7,0.3,1.4,0.8,2c0.6,0.5,1.2,0.8,2,0.8
						c0.8,0,1.5-0.3,2-0.8C87,32.7,87.3,32.1,87.3,31.3z"/>
					
						<linearGradient id="SVGID_37_" gradientUnits="userSpaceOnUse" x1="28.8555" y1="-43.9434" x2="35.3305" y2="-43.9434" gradientTransform="matrix(1 0 0 -1 52.3398 -12.626)">
						<stop  offset="0" style="stop-color:#0C1A29"/>
						<stop  offset="0.5569" style="stop-color:#0A1315"/>
						<stop  offset="1" style="stop-color:#42597B"/>
					</linearGradient>
					<path fill="url(#SVGID_37_)" d="M87.3,31.3c0,0.8-0.3,1.4-0.9,2c-0.5,0.5-1.2,0.8-2,0.8c-0.8,0-1.4-0.3-2-0.8
						c-0.5-0.5-0.8-1.2-0.8-2c0-0.8,0.3-1.4,0.8-1.9c0.6-0.5,1.2-0.8,2-0.8c0.8,0,1.5,0.3,2,0.8C87,29.9,87.3,30.5,87.3,31.3z"/>
				</g>
			</g>
			<g>
				<g>
					<g>
						
							<linearGradient id="SVGID_38_" gradientUnits="userSpaceOnUse" x1="31.3447" y1="-45.9077" x2="33.7438" y2="-42.6079" gradientTransform="matrix(1 0 0 -1 52.3398 -12.626)">
							<stop  offset="0" style="stop-color:#0C1A29"/>
							<stop  offset="0.5569" style="stop-color:#0A1315"/>
							<stop  offset="1" style="stop-color:#42597B"/>
						</linearGradient>
						<path fill="url(#SVGID_38_)" d="M88.3,31.4c-0.2-0.2-0.4-0.3-0.6-0.4c-0.3-0.1-0.6-0.2-0.9-0.2c-0.6,0-1.1,0.2-1.6,0.6
							c-0.4,0.4-0.6,0.9-0.6,1.4s0.2,0.9,0.5,1.3c0,0.1,0.1,0.1,0.1,0.2c0.2,0.2,0.4,0.3,0.6,0.5L84,34h-0.1l-0.1-0.1
							c-0.3-0.1-0.5-0.3-0.8-0.5c-0.5-0.5-0.8-1.1-0.8-1.8c0-0.7,0.3-1.3,0.8-1.8s1.2-0.8,1.9-0.8c0.8,0,1.4,0.3,1.9,0.8
							c0.1,0.1,0.2,0.2,0.3,0.3L88.3,31.4z"/>
						
							<linearGradient id="SVGID_39_" gradientUnits="userSpaceOnUse" x1="34.9053" y1="-50.8633" x2="34.2932" y2="-44.837" gradientTransform="matrix(1 0 0 -1 52.3398 -12.626)">
							<stop  offset="0" style="stop-color:#0C1A29"/>
							<stop  offset="1" style="stop-color:#42597B"/>
						</linearGradient>
						<path fill="url(#SVGID_39_)" d="M88.3,31.4L88.3,31.4C88.3,31.5,88.3,31.5,88.3,31.4L88.3,31.4c0.1,0.1,0.2,0.2,0.2,0.3
							c0.2,0.3,0.3,0.7,0.3,1.1c0,0.6-0.2,1-0.6,1.4c-0.4,0.4-0.9,0.7-1.5,0.7c-0.2,0-0.5,0-0.7-0.1c-0.1,0-0.2-0.1-0.3-0.1
							c-0.2-0.1-0.4-0.3-0.6-0.5C85,34.2,85,34.1,85,34c-0.3-0.4-0.5-0.8-0.5-1.3s0.2-1,0.6-1.4c0.5-0.4,1-0.6,1.6-0.6
							c0.3,0,0.6,0.1,0.9,0.2C87.9,31.1,88.1,31.2,88.3,31.4z M86.9,32c-0.3,0-0.5,0.1-0.6,0.3c-0.2,0.2-0.3,0.4-0.3,0.6
							s0.1,0.4,0.2,0.5l0.1,0.1c0.1,0.1,0.1,0.1,0.2,0.2c0.1,0,0.1,0,0.1,0c0.1,0,0.2,0,0.3,0c0.3,0,0.5-0.1,0.6-0.3
							c0.2-0.2,0.3-0.4,0.3-0.6c0-0.2-0.1-0.4-0.2-0.5c0,0,0,0-0.1,0v-0.1c-0.1-0.1-0.1-0.1-0.3-0.2C87.2,32,87,32,86.9,32z"/>
						<path fill="#010101" d="M86.9,32c0.1,0,0.3,0,0.4,0c0.1,0.1,0.2,0.1,0.3,0.2v0.1h0.1c0.1,0.1,0.2,0.3,0.2,0.5
							c0,0.2-0.1,0.4-0.3,0.6s-0.4,0.3-0.6,0.3c-0.1,0-0.2,0-0.3,0h-0.1c-0.1,0-0.1-0.1-0.2-0.2l-0.1-0.1c-0.1-0.2-0.2-0.4-0.2-0.5
							c0-0.2,0.1-0.4,0.3-0.6C86.4,32.1,86.6,32,86.9,32z"/>
					</g>
				</g>
			</g>
			<path fill="#010101" d="M38.6,48.4h1.3v0.1c0.2,1.9,1.3,3.3,3.5,4.3c2.7,1.2,7.3,1.9,13.8,2.2c3.9,0.1,11.3,0.1,22.1-0.1
				c11.7-0.2,21.1-0.3,28.1-0.2c5.8,0.1,11,0,15.6-0.5c4.1-0.4,7.1-1,9-1.8c1.4-0.6,2.3-1.4,2.9-2.4c0.5-1,0.5-1.9,0.1-2.9
				c-1.2-2.6-4.8-4.3-10.6-5c-15.9-1.9-28.5-4.8-37.6-8.6c-0.2-0.1-0.3-0.2-0.4-0.3c-0.1-0.2-0.1-0.3,0-0.5c0.1-0.2,0.2-0.3,0.4-0.4
				c0.2-0.1,0.3-0.1,0.5,0c9.1,3.8,21.5,6.6,37.3,8.6c6.4,0.8,10.3,2.7,11.6,5.8c0.6,1.3,0.6,2.7-0.1,4s-1.9,2.3-3.6,2.9
				c-2,0.8-5.1,1.4-9.3,1.9c-4.6,0.5-9.9,0.7-15.8,0.6c-7-0.2-16.3-0.1-27.9,0.1c-10.9,0.2-18.3,0.3-22.1,0.1
				c-6.7-0.2-11.5-1-14.4-2.3C40.2,52.7,38.7,50.9,38.6,48.4C38.6,48.5,38.6,48.4,38.6,48.4z"/>
			<g>
				
					<radialGradient id="SVGID_40_" cx="-4.0566" cy="4.6099" r="10.4127" gradientTransform="matrix(1 0 0 -0.5822 52.3398 53.6328)" gradientUnits="userSpaceOnUse">
					<stop  offset="0" style="stop-color:#FFFFFF"/>
					<stop  offset="1" style="stop-color:#FFFFFF;stop-opacity:0"/>
				</radialGradient>
				<path fill="url(#SVGID_40_)" d="M38.9,48.4h0.5c0.1,2.1,1.4,3.7,3.8,4.8c2.7,1.2,7.4,2,14,2.2l0,0c0.1,0,0.1,0,0.3,0h0.1
					c0.1,0.1,0.1,0.1,0,0.2c0,0,0,0.1-0.1,0.1c0,0.1-0.1,0.1-0.1,0c-0.1,0-0.2,0-0.3,0c-6.6-0.2-11.4-1-14.1-2.3
					C40.4,52.4,39.1,50.7,38.9,48.4z"/>
				
					<radialGradient id="SVGID_41_" cx="49.7432" cy="218.4619" r="15.364" gradientTransform="matrix(1 0 0 -0.262 52.3398 93.8544)" gradientUnits="userSpaceOnUse">
					<stop  offset="0" style="stop-color:#FFFFFF"/>
					<stop  offset="1" style="stop-color:#FFFFFF;stop-opacity:0"/>
				</radialGradient>
				<path fill="url(#SVGID_41_)" d="M117.3,40.7C117.2,40.7,117.2,40.7,117.3,40.7c-12.6-1.9-22.8-4.5-30.5-7.7l-0.1-0.1
					c0-0.1,0-0.1,0-0.2l0.1-0.1c0.1,0,0.1,0,0.2,0c7.7,3.2,17.8,5.7,30.3,7.6c0.1,0,0.1,0,0.1,0.1v0.1
					C117.4,40.6,117.4,40.6,117.3,40.7z"/>
				
					<radialGradient id="SVGID_42_" cx="81.1934" cy="-56.0825" r="9.1757" gradientTransform="matrix(1 0 0 -0.9523 52.3398 -5.1993)" gradientUnits="userSpaceOnUse">
					<stop  offset="0" style="stop-color:#FFFFFF"/>
					<stop  offset="1" style="stop-color:#FFFFFF;stop-opacity:0"/>
				</radialGradient>
				<path fill="url(#SVGID_42_)" d="M121.8,41.3c0,0-0.1,0-0.2,0c0-0.1,0-0.1,0-0.1c0-0.1,0-0.1,0.1-0.2c0.1-0.1,0.1-0.1,0.1,0
					c0.9,0.1,1.8,0.2,2.6,0.3c6.2,0.8,10,2.6,11.3,5.5c0.6,1.2,0.5,2.5-0.1,3.7c-0.6,1.2-1.8,2.1-3.4,2.8c-1.3,0.5-3.1,1-5.4,1.4
					c-1.1,0.2-2.4,0.4-3.8,0.5c-0.6,0.1-1.1,0.1-1.7,0.2h-0.1c-0.1-0.1-0.1-0.1-0.1-0.2s0-0.1,0.1-0.1c0-0.1,0.1-0.1,0.1-0.1
					c0.6-0.1,1.1-0.1,1.6-0.1c1.4-0.2,2.6-0.3,3.7-0.5c2.3-0.4,4.1-0.9,5.4-1.4c1.5-0.6,2.5-1.5,3.1-2.5c0.6-1.1,0.6-2.2,0.1-3.3
					c-1.3-2.8-4.9-4.5-10.9-5.2C123.5,41.5,122.6,41.4,121.8,41.3z"/>
				
					<radialGradient id="SVGID_43_" cx="39.0933" cy="389.7969" r="17.997" gradientTransform="matrix(1 0 0 -0.1719 52.3398 122.4311)" gradientUnits="userSpaceOnUse">
					<stop  offset="0" style="stop-color:#FFFFFF"/>
					<stop  offset="1" style="stop-color:#FFFFFF;stop-opacity:0"/>
				</radialGradient>
				<path fill="url(#SVGID_43_)" d="M66,55.9c-0.1,0-0.1,0-0.2,0c0-0.1,0-0.1,0-0.2s0-0.1,0-0.2c0-0.1,0.1-0.1,0.2-0.1
					c3.6,0,8.1,0,13.3-0.2c11.7-0.3,21-0.3,28-0.1c3.4,0.1,6.6,0,9.6-0.1c0,0,0.1,0,0.1,0.1v0.1c0,0,0,0.1,0,0.2c0,0.1-0.1,0-0.1,0
					c-3,0.2-6.2,0.2-9.6,0.2c-7-0.2-16.3-0.1-28,0.1C74.1,55.8,69.6,55.9,66,55.9z"/>
			</g>
		</g>
		<g>
			<g>
				
					<linearGradient id="SVGID_44_" gradientUnits="userSpaceOnUse" x1="29.1055" y1="-32.1431" x2="36.181" y2="-32.1431" gradientTransform="matrix(1 0 0 -1 52.3398 -12.626)">
					<stop  offset="0" style="stop-color:#E6E6E5"/>
					<stop  offset="0.102" style="stop-color:#FFFFFF"/>
					<stop  offset="0.251" style="stop-color:#E6E6E5"/>
					<stop  offset="0.5333" style="stop-color:#919191"/>
					<stop  offset="0.7882" style="stop-color:#FFFFFF"/>
					<stop  offset="1" style="stop-color:#B0B0B0"/>
				</linearGradient>
				<polygon fill="url(#SVGID_44_)" points="88.2,18.5 87.3,22.4 83.3,22.6 81.8,19 84.9,16.5 				"/>
			</g>
			<g>
				<g>
					
						<linearGradient id="SVGID_45_" gradientUnits="userSpaceOnUse" x1="31.1177" y1="-32.9429" x2="35.1682" y2="-32.9429" gradientTransform="matrix(1 0 0 -1 52.3398 -12.626)">
						<stop  offset="0" style="stop-color:#E6E6E5"/>
						<stop  offset="0.102" style="stop-color:#FFFFFF"/>
						<stop  offset="0.251" style="stop-color:#E6E6E5"/>
						<stop  offset="0.5333" style="stop-color:#919191"/>
						<stop  offset="0.7882" style="stop-color:#FFFFFF"/>
						<stop  offset="1" style="stop-color:#B0B0B0"/>
					</linearGradient>
					<path fill="url(#SVGID_45_)" d="M85.8,19.6c-0.3,0-0.6,0.1-0.8,0.4c-0.2,0.2-0.4,0.5-0.4,0.9c0,0.3,0.1,0.6,0.4,0.8
						c0.2,0.2,0.5,0.3,0.8,0.3s0.6-0.1,0.8-0.3c0.3-0.2,0.4-0.5,0.4-0.8c0-0.4-0.1-0.7-0.4-0.9C86.4,19.7,86.1,19.6,85.8,19.6z
						 M84,18.8c0.4-0.4,0.9-0.5,1.4-0.5c0.6,0,1,0.2,1.4,0.5c0.4,0.4,0.7,0.9,0.7,1.5c0,0.6-0.2,1-0.7,1.4c-0.4,0.4-0.8,0.7-1.4,0.7
						c-0.6,0-1-0.2-1.4-0.7c-0.4-0.4-0.6-0.8-0.6-1.4C83.4,19.7,83.6,19.2,84,18.8z"/>
					<path fill="#010101" d="M85.8,19.6c0.3,0,0.6,0.1,0.8,0.4c0.3,0.2,0.4,0.5,0.4,0.9c0,0.3-0.1,0.6-0.4,0.8
						c-0.2,0.2-0.5,0.3-0.8,0.3s-0.6-0.1-0.8-0.3s-0.4-0.5-0.4-0.8c0-0.4,0.1-0.7,0.4-0.9C85.2,19.7,85.5,19.6,85.8,19.6z"/>
				</g>
			</g>
			<g>
				<g>
					
						<radialGradient id="SVGID_46_" cx="34.9434" cy="-35.3428" r="2.3745" gradientTransform="matrix(1 0 0 -1 52.3398 -12.626)" gradientUnits="userSpaceOnUse">
						<stop  offset="0" style="stop-color:#FFFFFF"/>
						<stop  offset="0.1451" style="stop-color:#E4E4E4"/>
						<stop  offset="0.3451" style="stop-color:#C6C5C5"/>
						<stop  offset="0.6118" style="stop-color:#979797"/>
						<stop  offset="0.8039" style="stop-color:#AFAFAF"/>
						<stop  offset="1" style="stop-color:#5A5A5A"/>
					</radialGradient>
					<path fill="url(#SVGID_46_)" d="M85.9,22.9c0-0.3,0.2-0.6,0.4-0.8c0.3-0.3,0.7-0.5,1.1-0.5c0.2,0,0.4,0,0.6,0.1
						c0.1,0.1,0.3,0.2,0.4,0.3c0.2,0.2,0.3,0.3,0.4,0.5h0.1c0,0.2,0,0.3,0,0.5c0,0.4-0.2,0.8-0.5,1.1c-0.3,0.3-0.6,0.5-1,0.5
						c-0.4,0-0.8-0.2-1.1-0.5C86,23.8,85.8,23.4,85.9,22.9C85.8,23,85.8,23,85.9,22.9z"/>
					
						<linearGradient id="SVGID_47_" gradientUnits="userSpaceOnUse" x1="-250.9004" y1="-140.2861" x2="-248.8046" y2="-140.2861" gradientTransform="matrix(0.8113 -0.5846 -0.558 -0.8305 211.0469 -240.681)">
						<stop  offset="0" style="stop-color:#E6E6E5"/>
						<stop  offset="0.102" style="stop-color:#FFFFFF"/>
						<stop  offset="0.251" style="stop-color:#E6E6E5"/>
						<stop  offset="0.5333" style="stop-color:#919191"/>
						<stop  offset="0.7882" style="stop-color:#FFFFFF"/>
						<stop  offset="1" style="stop-color:#B0B0B0"/>
					</linearGradient>
					<path fill="url(#SVGID_47_)" d="M88.8,22.6L88.8,22.6L88.8,22.6L88.8,22.6z M88,21.8c-0.2-0.1-0.4-0.1-0.6-0.1
						c-0.4,0-0.8,0.1-1.1,0.5c-0.2,0.2-0.4,0.5-0.4,0.8l-0.7-1.8c0-0.7,0.4-1,1.1-0.9L88,21.8z"/>
				</g>
			</g>
		</g>
	</g>
</g>
</svg>
