<?xml version="1.0" encoding="utf-8"?>
<!-- Generator: Adobe Illustrator 16.0.0, SVG Export Plug-In . SVG Version: 6.00 Build 0)  -->
<!DOCTYPE svg PUBLIC "-//W3C//DTD SVG 1.1//EN" "http://www.w3.org/Graphics/SVG/1.1/DTD/svg11.dtd">
<svg version="1.1" id="Layer_1" xmlns="http://www.w3.org/2000/svg" xmlns:xlink="http://www.w3.org/1999/xlink" x="0px" y="0px"
	 width="279.3px" height="209.3px" viewBox="0 0 279.3 209.3" enable-background="new 0 0 279.3 209.3" xml:space="preserve">
<g id="Layer_3">
	<g>
		<g>
			
				<linearGradient id="SVGID_1_" gradientUnits="userSpaceOnUse" x1="-295.5039" y1="-117.3018" x2="-260.2706" y2="-117.3018" gradientTransform="matrix(0.9983 -5.747413e-002 -0.8547 -0.9525 421.7985 62.2689)">
				<stop  offset="0" style="stop-color:#010101"/>
				<stop  offset="1" style="stop-color:#010101;stop-opacity:0"/>
			</linearGradient>
			<path fill="url(#SVGID_1_)" d="M118.1,189.9h9.1h135.3c2.4,0,4.2,0.2,5.3,0.6l10,4.5c-0.1,0.4-1.2,0.6-3.1,0.6H127.2h-11
				c-1.9,0-2.8-0.2-2.6-0.6l1.4-4.5C115.2,190.1,116.2,189.9,118.1,189.9z"/>
		</g>
		<g>
			
				<linearGradient id="SVGID_2_" gradientUnits="userSpaceOnUse" x1="114.1831" y1="-108.1777" x2="114.1132" y2="-92.8776" gradientTransform="matrix(1 0 0 -1 52.3398 94.373)">
				<stop  offset="0" style="stop-color:#1C232D;stop-opacity:0"/>
				<stop  offset="1" style="stop-color:#1C232D"/>
			</linearGradient>
			<rect x="114.1" y="196.4" fill="url(#SVGID_2_)" width="104.9" height="9.8"/>
		</g>
		<g>
			<path fill="none" d="M177,89.1c0.2-0.2,0.5-0.4,0.7-0.6c5.2-5,10.8-8.9,16.7-11.7"/>
			<path fill="#010101" d="M222.1,70.6L222.1,70.6c2.1,0.2,4,0.5,5.9,0.9c0.4,0.1,0.7,0.3,0.9,0.6c0.2,0.3,0.3,0.7,0.2,1.1
				c-0.1,0.4-0.3,0.7-0.6,0.9c-0.3,0.2-0.7,0.3-1.1,0.2c-1.8-0.3-3.7-0.6-5.6-0.8c-3.8-0.4-7.5-0.3-11.3,0.1
				c-11.7,1.4-22.4,6.7-31.9,15.8c-6.7,6.5-18.4,11.4-35.2,14.9c-9.7,2-25.4,4.1-47.1,6.2c-20.2,2-33.9,3.9-41.2,5.7
				c-11,2.7-16.5,6.6-16.7,11.6c0.2,1.5,2.4,3.1,6.5,4.9l0,0c2.8,1.2,4.5,2,5.2,2.4c2.2,1.2,3.2,2.5,3,3.9c0.1,2.1-1.7,4.5-5.7,7.1
				l0,0c-3.2,2.2-7.4,4.2-12.5,6.2c-12,4.6-21.9,6.3-29.6,5.2c-0.4-0.1-0.7-0.2-0.9-0.6c-0.2-0.3-0.3-0.7-0.3-1.1
				c0.1-0.4,0.2-0.7,0.6-0.9c0.3-0.2,0.7-0.3,1.1-0.3c7.3,1,16.7-0.6,28.1-5c4.9-1.9,8.9-3.9,12-5.9l0,0c2.8-1.9,4.3-3.5,4.4-4.8
				c-0.1-0.4-0.7-0.9-1.6-1.4c-0.7-0.4-2.3-1.1-4.9-2.3l0,0c-5.7-2.5-8.5-5-8.3-7.5c-0.2-6.5,6.1-11.3,18.9-14.5
				c7.3-1.8,21.1-3.7,41.6-5.7c21.6-2.1,37.2-4.1,46.8-6.1c16.1-3.3,27.4-8.1,33.8-14.2c10-9.6,21.2-15.1,33.5-16.6
				C214.1,70.3,218.1,70.2,222.1,70.6z"/>
			<g>
				
					<radialGradient id="SVGID_3_" cx="-107.8589" cy="551.3442" r="35.6416" gradientTransform="matrix(0.7211 0 0 -0.252 280.2817 219.1789)" gradientUnits="userSpaceOnUse">
					<stop  offset="0" style="stop-color:#FFFFFF"/>
					<stop  offset="1" style="stop-color:#FFFFFF;stop-opacity:0"/>
				</radialGradient>
				<path fill="url(#SVGID_3_)" d="M222,71.5c2,0.2,3.9,0.5,5.8,0.9c0.1,0,0.3,0.1,0.3,0.2c0.1,0.1,0.1,0.3,0.1,0.4
					s-0.1,0.3-0.2,0.3c-0.1,0.1-0.3,0.1-0.4,0.1c-1.8-0.4-3.7-0.6-5.7-0.8c-3.9-0.4-7.7-0.3-11.5,0.1c-11.9,1.5-22.7,6.8-32.4,16.1
					l0,0c-0.1,0.1-0.2,0.2-0.3,0.3c-0.1,0.1-0.2,0.2-0.4,0.2c-0.1,0-0.3-0.1-0.4-0.2c-0.1-0.1-0.2-0.2-0.2-0.4
					c0-0.1,0.1-0.3,0.2-0.4c0.1-0.1,0.2-0.2,0.3-0.3l0,0c9.8-9.4,20.9-14.9,33-16.4C214.2,71.2,218.1,71.1,222,71.5z"/>
				
					<radialGradient id="SVGID_4_" cx="-327.9805" cy="466.7437" r="19.85" gradientTransform="matrix(0.7211 0 0 -0.6149 280.2817 409.3184)" gradientUnits="userSpaceOnUse">
					<stop  offset="0" style="stop-color:#FFFFFF"/>
					<stop  offset="1" style="stop-color:#FFFFFF;stop-opacity:0"/>
				</radialGradient>
				<path fill="url(#SVGID_4_)" d="M44.6,133.6L44.6,133.6c2.4,1.1,4,1.8,4.8,2.2c0.1,0.1,0.2,0.2,0.3,0.3c0.1,0.1,0,0.3,0,0.4
					c-0.1,0.1-0.2,0.2-0.3,0.3c-0.1,0.1-0.3,0-0.4,0c-0.8-0.4-2.4-1.1-4.8-2.2l0,0c-5.2-2.2-7.8-4.5-7.7-6.7
					c-0.1-6,6-10.6,18.2-13.6c2.5-0.6,5.7-1.3,9.8-1.9c0.2,0,0.3,0,0.4,0.1c0.1,0.1,0.2,0.2,0.2,0.3c0,0.2,0,0.3-0.1,0.4
					c-0.1,0.1-0.2,0.2-0.3,0.2c-4,0.6-7.2,1.2-9.7,1.9c-11.5,2.8-17.3,7-17.4,12.5C37.6,129.7,40,131.6,44.6,133.6z"/>
				
					<radialGradient id="SVGID_5_" cx="-217.8301" cy="556.9683" r="63.3573" gradientTransform="matrix(0.7211 0 0 -0.1373 280.2817 179.4454)" gradientUnits="userSpaceOnUse">
					<stop  offset="0" style="stop-color:#FFFFFF"/>
					<stop  offset="1" style="stop-color:#FFFFFF;stop-opacity:0"/>
				</radialGradient>
				<path fill="url(#SVGID_5_)" d="M78.1,111.7c-0.1,0-0.3,0-0.4-0.1c-0.1-0.1-0.2-0.2-0.2-0.4c0-0.1,0-0.3,0.1-0.4
					c0.1-0.1,0.2-0.2,0.4-0.2c5.3-0.6,11.4-1.3,18.2-2c21.6-2.1,37.2-4.2,46.9-6.1c10.3-2.2,18.7-4.9,25.1-8.1
					c0.1-0.1,0.3-0.1,0.4,0c0.1,0,0.3,0.1,0.3,0.3c0.1,0.1,0.1,0.3,0,0.4c0,0.1-0.1,0.3-0.3,0.3c-6.5,3.3-14.9,6-25.4,8.2
					c-9.7,2-25.3,4.1-47,6.2C89.5,110.4,83.4,111,78.1,111.7z"/>
				
					<radialGradient id="SVGID_6_" cx="-351.5313" cy="455.2886" r="29.1751" gradientTransform="matrix(0.7211 0 0 -0.2144 280.2817 252.7432)" gradientUnits="userSpaceOnUse">
					<stop  offset="0" style="stop-color:#FFFFFF"/>
					<stop  offset="1" style="stop-color:#FFFFFF;stop-opacity:0"/>
				</radialGradient>
				<path fill="url(#SVGID_6_)" d="M46.3,144.7c0.1-0.1,0.3-0.1,0.4-0.1s0.3,0.1,0.3,0.2c0.1,0.1,0.1,0.3,0.1,0.4
					c0,0.1-0.1,0.3-0.2,0.3c-3.2,2.1-7.3,4.1-12.3,6.1c-11.8,4.5-21.5,6.2-29.1,5.1c-0.1,0-0.3-0.1-0.4-0.2S5,156.2,5,156.1
					c0-0.1,0.1-0.3,0.2-0.4c0.1-0.1,0.3-0.1,0.4-0.1c7.4,1.1,17-0.6,28.6-5C39.2,148.7,43.2,146.7,46.3,144.7z"/>
			</g>
		</g>
		<g>
			<g>
				<polygon fill="#010101" points="219,185.5 114.2,185.5 117.3,176.5 215.7,176.5 				"/>
				
					<linearGradient id="SVGID_7_" gradientUnits="userSpaceOnUse" x1="92.2944" y1="-56.6865" x2="122.0025" y2="-110.107" gradientTransform="matrix(1 0 0 -1 52.3398 94.373)">
					<stop  offset="0" style="stop-color:#3D4955"/>
					<stop  offset="1" style="stop-color:#12161D"/>
				</linearGradient>
				<rect x="114.2" y="185.5" fill="url(#SVGID_7_)" width="104.8" height="10"/>
			</g>
		</g>
		<g>
			<g>
				
					<linearGradient id="SVGID_8_" gradientUnits="userSpaceOnUse" x1="293.9834" y1="624.731" x2="305.3084" y2="624.731" gradientTransform="matrix(8.830022e-005 1 1 1.000000e-003 -581.3088 -137.7261)">
					<stop  offset="0" style="stop-color:#768894"/>
					<stop  offset="8.627451e-002" style="stop-color:#A9C1D4"/>
					<stop  offset="0.2431" style="stop-color:#FFFFFF"/>
					<stop  offset="0.3686" style="stop-color:#A0B2BD"/>
					<stop  offset="0.7529" style="stop-color:#373842"/>
					<stop  offset="1" style="stop-color:#8B7E89"/>
				</linearGradient>
				<path fill="url(#SVGID_8_)" d="M61.8,156.9v11.3H26.7c-0.6,0-0.9-0.4-1-1.1c-0.1-0.4-0.2-0.9-0.3-1.4c-0.2-1.6-0.3-3.1-0.2-4.6
					s0.3-2.6,0.5-3.3c0.1-0.1,0.1-0.3,0.1-0.4c0.2-0.4,0.4-0.7,0.7-0.7h35.3V156.9z"/>
				
					<linearGradient id="SVGID_9_" gradientUnits="userSpaceOnUse" x1="293.9834" y1="624.731" x2="305.3084" y2="624.731" gradientTransform="matrix(8.830022e-005 1 1 1.000000e-003 -581.3088 -137.7261)">
					<stop  offset="0" style="stop-color:#768894"/>
					<stop  offset="8.627451e-002" style="stop-color:#A9C1D4"/>
					<stop  offset="0.2431" style="stop-color:#FFFFFF"/>
					<stop  offset="0.3686" style="stop-color:#A0B2BD"/>
					<stop  offset="0.7529" style="stop-color:#373842"/>
					<stop  offset="1" style="stop-color:#8B7E89"/>
				</linearGradient>
				<path fill="url(#SVGID_9_)" d="M61.8,156.9v11.3H26.7c-0.6,0-0.9-0.4-1-1.1c-0.1-0.4-0.2-0.9-0.3-1.4c-0.2-1.6-0.3-3.1-0.2-4.6
					s0.3-2.6,0.5-3.3c0.1-0.1,0.1-0.3,0.1-0.4c0.2-0.4,0.4-0.7,0.7-0.7h35.3V156.9z"/>
			</g>
			<g>
				<g>
					<g>
						
							<linearGradient id="SVGID_10_" gradientUnits="userSpaceOnUse" x1="266.3682" y1="719.2251" x2="284.222" y2="719.2251" gradientTransform="matrix(-9.266221e-002 0.9957 0.9957 9.266219e-002 -598.0907 -178.2495)">
							<stop  offset="0" style="stop-color:#D1D9DF"/>
							<stop  offset="8.627451e-002" style="stop-color:#7A8C99"/>
							<stop  offset="0.2431" style="stop-color:#FFFFFF"/>
							<stop  offset="0.3686" style="stop-color:#A0B2BD"/>
							<stop  offset="0.6275" style="stop-color:#ADB1BA"/>
							<stop  offset="0.7529" style="stop-color:#6A6C7D"/>
							<stop  offset="0.8706" style="stop-color:#373842"/>
							<stop  offset="1" style="stop-color:#857986"/>
						</linearGradient>
						<path fill="url(#SVGID_10_)" d="M90.6,173c-0.6-6.7-0.6-13.7,0-21h0.3c1.2,0.4,2.2,0.9,3,1.3v0.1l0,0c0.1,0,0.1,0.1,0.2,0.1
							l0,0h0.1l0.1,0.1c0.1,0.1,0.3,0.2,0.4,0.3c-0.4,6-0.4,11.7,0,17.3C93.6,172,92.2,172.7,90.6,173z"/>
						
							<linearGradient id="SVGID_11_" gradientUnits="userSpaceOnUse" x1="266.3682" y1="719.2251" x2="284.222" y2="719.2251" gradientTransform="matrix(-9.266221e-002 0.9957 0.9957 9.266219e-002 -598.0907 -178.2495)">
							<stop  offset="0" style="stop-color:#D1D9DF"/>
							<stop  offset="8.627451e-002" style="stop-color:#7A8C99"/>
							<stop  offset="0.2431" style="stop-color:#FFFFFF"/>
							<stop  offset="0.3686" style="stop-color:#A0B2BD"/>
							<stop  offset="0.6275" style="stop-color:#ADB1BA"/>
							<stop  offset="0.7529" style="stop-color:#6A6C7D"/>
							<stop  offset="0.8706" style="stop-color:#373842"/>
							<stop  offset="1" style="stop-color:#857986"/>
						</linearGradient>
						<path fill="url(#SVGID_11_)" d="M90.6,173c-0.6-6.7-0.6-13.7,0-21h0.3c1.2,0.4,2.2,0.9,3,1.3v0.1l0,0c0.1,0,0.1,0.1,0.2,0.1
							l0,0h0.1l0.1,0.1c0.1,0.1,0.3,0.2,0.4,0.3c-0.4,6-0.4,11.7,0,17.3C93.6,172,92.2,172.7,90.6,173z"/>
						
							<linearGradient id="SVGID_12_" gradientUnits="userSpaceOnUse" x1="289.1113" y1="659.3218" x2="310.4353" y2="659.3218" gradientTransform="matrix(4.689332e-005 1 1 1.000000e-003 -581.3177 -137.7261)">
							<stop  offset="0" style="stop-color:#768894"/>
							<stop  offset="8.627451e-002" style="stop-color:#A9C1D4"/>
							<stop  offset="0.1961" style="stop-color:#FFFFFF"/>
							<stop  offset="0.3843" style="stop-color:#A0B2BD"/>
							<stop  offset="0.8471" style="stop-color:#373842"/>
							<stop  offset="1" style="stop-color:#8B7E89"/>
						</linearGradient>
						<rect x="73.2" y="152" fill="url(#SVGID_12_)" width="9.7" height="21.4"/>
						
							<linearGradient id="SVGID_13_" gradientUnits="userSpaceOnUse" x1="289.1113" y1="659.3218" x2="310.4353" y2="659.3218" gradientTransform="matrix(4.689332e-005 1 1 1.000000e-003 -581.3177 -137.7261)">
							<stop  offset="0" style="stop-color:#768894"/>
							<stop  offset="8.627451e-002" style="stop-color:#A9C1D4"/>
							<stop  offset="0.1961" style="stop-color:#FFFFFF"/>
							<stop  offset="0.3843" style="stop-color:#A0B2BD"/>
							<stop  offset="0.8471" style="stop-color:#373842"/>
							<stop  offset="1" style="stop-color:#8B7E89"/>
						</linearGradient>
						<rect x="73.2" y="152" fill="url(#SVGID_13_)" width="9.7" height="21.4"/>
						
							<linearGradient id="SVGID_14_" gradientUnits="userSpaceOnUse" x1="289.1035" y1="668.022" x2="310.4285" y2="668.022" gradientTransform="matrix(4.689332e-005 1 1 1.000000e-003 -581.3177 -137.7261)">
							<stop  offset="0" style="stop-color:#768894"/>
							<stop  offset="8.627451e-002" style="stop-color:#A9C1D4"/>
							<stop  offset="0.1961" style="stop-color:#FFFFFF"/>
							<stop  offset="0.3843" style="stop-color:#A0B2BD"/>
							<stop  offset="0.8471" style="stop-color:#373842"/>
							<stop  offset="1" style="stop-color:#8B7E89"/>
						</linearGradient>
						<path fill="url(#SVGID_14_)" d="M90.6,152c-0.6,7.3-0.6,14.3,0,21c-0.5,0.1-1,0.2-1.6,0.3l-0.4,0.1h-5.7V152H90.6L90.6,152z"
							/>
						
							<linearGradient id="SVGID_15_" gradientUnits="userSpaceOnUse" x1="289.1035" y1="668.022" x2="310.4285" y2="668.022" gradientTransform="matrix(4.689332e-005 1 1 1.000000e-003 -581.3177 -137.7261)">
							<stop  offset="0" style="stop-color:#768894"/>
							<stop  offset="8.627451e-002" style="stop-color:#A9C1D4"/>
							<stop  offset="0.1961" style="stop-color:#FFFFFF"/>
							<stop  offset="0.3843" style="stop-color:#A0B2BD"/>
							<stop  offset="0.8471" style="stop-color:#373842"/>
							<stop  offset="1" style="stop-color:#8B7E89"/>
						</linearGradient>
						<path fill="url(#SVGID_15_)" d="M90.6,152c-0.6,7.3-0.6,14.3,0,21c-0.5,0.1-1,0.2-1.6,0.3l-0.4,0.1h-5.7V152H90.6L90.6,152z"
							/>
						
							<linearGradient id="SVGID_16_" gradientUnits="userSpaceOnUse" x1="289.1201" y1="646.4712" x2="310.4461" y2="646.4712" gradientTransform="matrix(4.689332e-005 1 1 1.000000e-003 -581.3177 -137.7261)">
							<stop  offset="0" style="stop-color:#768894"/>
							<stop  offset="8.627451e-002" style="stop-color:#A9C1D4"/>
							<stop  offset="0.1961" style="stop-color:#FFFFFF"/>
							<stop  offset="0.3843" style="stop-color:#A0B2BD"/>
							<stop  offset="0.8471" style="stop-color:#373842"/>
							<stop  offset="1" style="stop-color:#8B7E89"/>
						</linearGradient>
						<path fill="url(#SVGID_16_)" d="M73.2,152v21.4H57.8v-0.1c-0.8-6.9-0.8-13.9,0-20.9V152H73.2L73.2,152z"/>
						
							<linearGradient id="SVGID_17_" gradientUnits="userSpaceOnUse" x1="289.1201" y1="646.4712" x2="310.4461" y2="646.4712" gradientTransform="matrix(4.689332e-005 1 1 1.000000e-003 -581.3177 -137.7261)">
							<stop  offset="0" style="stop-color:#768894"/>
							<stop  offset="8.627451e-002" style="stop-color:#A9C1D4"/>
							<stop  offset="0.1961" style="stop-color:#FFFFFF"/>
							<stop  offset="0.3843" style="stop-color:#A0B2BD"/>
							<stop  offset="0.8471" style="stop-color:#373842"/>
							<stop  offset="1" style="stop-color:#8B7E89"/>
						</linearGradient>
						<path fill="url(#SVGID_17_)" d="M73.2,152v21.4H57.8v-0.1c-0.8-6.9-0.8-13.9,0-20.9V152H73.2L73.2,152z"/>
						
							<linearGradient id="SVGID_18_" gradientUnits="userSpaceOnUse" x1="267.2031" y1="680.1196" x2="288.9621" y2="680.1196" gradientTransform="matrix(-8.518478e-002 0.9964 0.9964 8.518476e-002 -596.8915 -174.8736)">
							<stop  offset="0" style="stop-color:#768894"/>
							<stop  offset="8.627451e-002" style="stop-color:#A9C1D4"/>
							<stop  offset="0.2431" style="stop-color:#FFFFFF"/>
							<stop  offset="0.3686" style="stop-color:#A0B2BD"/>
							<stop  offset="0.7529" style="stop-color:#373842"/>
							<stop  offset="1" style="stop-color:#8B7E89"/>
						</linearGradient>
						<path fill="url(#SVGID_18_)" d="M57.8,173.4h-0.4l-1.1,0.9c-0.1-0.7-0.2-1.5-0.3-2.3c-0.9-5.5-0.9-11.8,0-19
							c0-0.7,0.1-1.3,0.1-2h0.3l1.2,1h0.1v0.4C57.1,159.5,57.1,166.4,57.8,173.4L57.8,173.4z"/>
						
							<linearGradient id="SVGID_19_" gradientUnits="userSpaceOnUse" x1="267.2031" y1="680.1196" x2="288.9621" y2="680.1196" gradientTransform="matrix(-8.518478e-002 0.9964 0.9964 8.518476e-002 -596.8915 -174.8736)">
							<stop  offset="0" style="stop-color:#768894"/>
							<stop  offset="8.627451e-002" style="stop-color:#A9C1D4"/>
							<stop  offset="0.2431" style="stop-color:#FFFFFF"/>
							<stop  offset="0.3686" style="stop-color:#A0B2BD"/>
							<stop  offset="0.7529" style="stop-color:#373842"/>
							<stop  offset="1" style="stop-color:#8B7E89"/>
						</linearGradient>
						<path fill="url(#SVGID_19_)" d="M57.8,173.4h-0.4l-1.1,0.9c-0.1-0.7-0.2-1.5-0.3-2.3c-0.9-5.5-0.9-11.8,0-19
							c0-0.7,0.1-1.3,0.1-2h0.3l1.2,1h0.1v0.4C57.1,159.5,57.1,166.4,57.8,173.4L57.8,173.4z"/>
						
							<linearGradient id="SVGID_20_" gradientUnits="userSpaceOnUse" x1="288.1885" y1="624.5347" x2="311.4384" y2="624.5347" gradientTransform="matrix(4.301075e-005 1 1 1.000000e-003 -581.3176 -137.7261)">
							<stop  offset="0" style="stop-color:#768894"/>
							<stop  offset="8.627451e-002" style="stop-color:#A9C1D4"/>
							<stop  offset="0.1961" style="stop-color:#FFFFFF"/>
							<stop  offset="0.3843" style="stop-color:#A0B2BD"/>
							<stop  offset="0.8471" style="stop-color:#373842"/>
							<stop  offset="1" style="stop-color:#8B7E89"/>
						</linearGradient>
						<path fill="url(#SVGID_20_)" d="M56.3,174.3H33.7c-0.9,0-1.5-0.3-1.9-0.9c-0.4-1.1-0.8-2.4-1-3.8l-0.2-1.4l0,0
							c-0.5-3.4-0.5-6.9,0-10.4c0.3-2.2,0.6-4,1-5.2c0.2-0.8,0.8-1.4,1.7-1.6h22.9c-0.1,0.7-0.1,1.3-0.1,2c-1,7.2-1,13.5,0,19
							C56.1,172.8,56.2,173.6,56.3,174.3z"/>
						
							<linearGradient id="SVGID_21_" gradientUnits="userSpaceOnUse" x1="288.1885" y1="624.5347" x2="311.4384" y2="624.5347" gradientTransform="matrix(4.301075e-005 1 1 1.000000e-003 -581.3176 -137.7261)">
							<stop  offset="0" style="stop-color:#768894"/>
							<stop  offset="8.627451e-002" style="stop-color:#A9C1D4"/>
							<stop  offset="0.1961" style="stop-color:#FFFFFF"/>
							<stop  offset="0.3843" style="stop-color:#A0B2BD"/>
							<stop  offset="0.8471" style="stop-color:#373842"/>
							<stop  offset="1" style="stop-color:#8B7E89"/>
						</linearGradient>
						<path fill="url(#SVGID_21_)" d="M56.3,174.3H33.7c-0.9,0-1.5-0.3-1.9-0.9c-0.4-1.1-0.8-2.4-1-3.8l-0.2-1.4l0,0
							c-0.5-3.4-0.5-6.9,0-10.4c0.3-2.2,0.6-4,1-5.2c0.2-0.8,0.8-1.4,1.7-1.6h22.9c-0.1,0.7-0.1,1.3-0.1,2c-1,7.2-1,13.5,0,19
							C56.1,172.8,56.2,173.6,56.3,174.3z"/>
					</g>
				</g>
				<g>
					
						<linearGradient id="SVGID_22_" gradientUnits="userSpaceOnUse" x1="288.1885" y1="624.5845" x2="311.4384" y2="624.5845" gradientTransform="matrix(4.301075e-005 1 1 1.000000e-003 -581.3176 -137.7261)">
						<stop  offset="0" style="stop-color:#768894;stop-opacity:0.7804"/>
						<stop  offset="8.627451e-002" style="stop-color:#A9C1D4;stop-opacity:0.7529"/>
						<stop  offset="0.1961" style="stop-color:#FFFFFF;stop-opacity:0.6824"/>
						<stop  offset="0.251" style="stop-color:#A0B2BD;stop-opacity:0.3608"/>
						<stop  offset="0.4549" style="stop-color:#55595E;stop-opacity:0.6667"/>
						<stop  offset="0.6588" style="stop-color:#343134;stop-opacity:0.7608"/>
						<stop  offset="0.8235" style="stop-color:#010101;stop-opacity:0.8706"/>
						<stop  offset="1" style="stop-color:#736E79;stop-opacity:0.9725"/>
					</linearGradient>
					<path fill="url(#SVGID_22_)" d="M56.2,151.1c-0.1,0.7-0.1,1.3-0.1,2c-1,7.2-1,13.5,0,19c0.1,0.8,0.1,1.5,0.3,2.3H33.7
						c-1.1-0.1-1.7-0.5-2-1.3c-0.3-1-0.6-2.1-0.9-3.3l-0.2-1.4l0,0c-0.5-3.4-0.5-6.9,0-10.4c0.3-2.4,0.6-4.2,1-5.4h1.9v-1.4h22.7
						V151.1z"/>
					
						<linearGradient id="SVGID_23_" gradientUnits="userSpaceOnUse" x1="288.1885" y1="624.5845" x2="311.4384" y2="624.5845" gradientTransform="matrix(4.301075e-005 1 1 1.000000e-003 -581.3176 -137.7261)">
						<stop  offset="0" style="stop-color:#768894;stop-opacity:0.7804"/>
						<stop  offset="8.627451e-002" style="stop-color:#A9C1D4;stop-opacity:0.7529"/>
						<stop  offset="0.1961" style="stop-color:#FFFFFF;stop-opacity:0.6824"/>
						<stop  offset="0.251" style="stop-color:#A0B2BD;stop-opacity:0.3608"/>
						<stop  offset="0.4549" style="stop-color:#55595E;stop-opacity:0.6667"/>
						<stop  offset="0.6588" style="stop-color:#343134;stop-opacity:0.7608"/>
						<stop  offset="0.8235" style="stop-color:#010101;stop-opacity:0.8706"/>
						<stop  offset="1" style="stop-color:#736E79;stop-opacity:0.9725"/>
					</linearGradient>
					<path fill="url(#SVGID_23_)" d="M56.2,151.1c-0.1,0.7-0.1,1.3-0.1,2c-1,7.2-1,13.5,0,19c0.1,0.8,0.1,1.5,0.3,2.3H33.7
						c-1.1-0.1-1.7-0.5-2-1.3c-0.3-1-0.6-2.1-0.9-3.3l-0.2-1.4l0,0c-0.5-3.4-0.5-6.9,0-10.4c0.3-2.4,0.6-4.2,1-5.4h1.9v-1.4h22.7
						V151.1z"/>
				</g>
				<g>
					
						<linearGradient id="SVGID_24_" gradientUnits="userSpaceOnUse" x1="291.2148" y1="636.4419" x2="308.7649" y2="636.4419" gradientTransform="matrix(5.698006e-005 1 1 1.000000e-003 -581.3157 -137.7261)">
						<stop  offset="0" style="stop-color:#FFFFFF;stop-opacity:0"/>
						<stop  offset="0.4863" style="stop-color:#FFFFFF"/>
						<stop  offset="1" style="stop-color:#FFFFFF;stop-opacity:0"/>
					</linearGradient>
					<path fill="url(#SVGID_24_)" d="M55.7,153.5c0.1,0.1,0.1,0.2,0.1,0.3c-0.6,6.4-0.6,12.7,0,19c0,0.1,0,0.2-0.1,0.3
						c-0.1,0.1-0.1,0.1-0.3,0.1c-0.1,0-0.2,0-0.3-0.1C55,173,55,173,55,172.8c-0.6-6.4-0.6-12.8,0-19.1c0-0.1,0-0.2,0.1-0.3
						c0.1-0.1,0.2-0.1,0.3-0.1C55.6,153.4,55.7,153.4,55.7,153.5z"/>
					
						<linearGradient id="SVGID_25_" gradientUnits="userSpaceOnUse" x1="291.2148" y1="636.4419" x2="308.7649" y2="636.4419" gradientTransform="matrix(5.698006e-005 1 1 1.000000e-003 -581.3157 -137.7261)">
						<stop  offset="0" style="stop-color:#FFFFFF;stop-opacity:0"/>
						<stop  offset="0.4863" style="stop-color:#FFFFFF"/>
						<stop  offset="1" style="stop-color:#FFFFFF;stop-opacity:0"/>
					</linearGradient>
					<path fill="url(#SVGID_25_)" d="M55.7,153.5c0.1,0.1,0.1,0.2,0.1,0.3c-0.6,6.4-0.6,12.7,0,19c0,0.1,0,0.2-0.1,0.3
						c-0.1,0.1-0.1,0.1-0.3,0.1c-0.1,0-0.2,0-0.3-0.1C55,173,55,173,55,172.8c-0.6-6.4-0.6-12.8,0-19.1c0-0.1,0-0.2,0.1-0.3
						c0.1-0.1,0.2-0.1,0.3-0.1C55.6,153.4,55.7,153.4,55.7,153.5z"/>
				</g>
				<g>
					<g>
						
							<linearGradient id="SVGID_26_" gradientUnits="userSpaceOnUse" x1="289.3125" y1="659.0884" x2="291.2375" y2="659.0884" gradientTransform="matrix(5.194805e-004 1 1 1.000001e-003 -581.2227 -137.7261)">
							<stop  offset="0" style="stop-color:#FFFFFF;stop-opacity:0"/>
							<stop  offset="0.5216" style="stop-color:#FFFFFF"/>
							<stop  offset="1" style="stop-color:#FFFFFF;stop-opacity:0"/>
						</linearGradient>
						<polygon fill="url(#SVGID_26_)" points="82.9,152.3 82.9,155 73.2,155 73.2,152.2 82.9,152.2 						"/>
						
							<linearGradient id="SVGID_27_" gradientUnits="userSpaceOnUse" x1="289.3125" y1="659.0884" x2="291.2375" y2="659.0884" gradientTransform="matrix(5.194805e-004 1 1 1.000001e-003 -581.2227 -137.7261)">
							<stop  offset="0" style="stop-color:#FFFFFF;stop-opacity:0"/>
							<stop  offset="0.5216" style="stop-color:#FFFFFF"/>
							<stop  offset="1" style="stop-color:#FFFFFF;stop-opacity:0"/>
						</linearGradient>
						<polygon fill="url(#SVGID_27_)" points="82.9,152.3 82.9,155 73.2,155 73.2,152.2 82.9,152.2 						"/>
						
							<linearGradient id="SVGID_28_" gradientUnits="userSpaceOnUse" x1="289.3047" y1="667.5386" x2="291.2303" y2="667.5386" gradientTransform="matrix(5.194805e-004 1 1 1.000001e-003 -581.2227 -137.7261)">
							<stop  offset="0" style="stop-color:#FFFFFF;stop-opacity:0"/>
							<stop  offset="0.5216" style="stop-color:#FFFFFF"/>
							<stop  offset="1" style="stop-color:#FFFFFF;stop-opacity:0"/>
						</linearGradient>
						<polygon fill="url(#SVGID_28_)" points="82.9,155 82.9,152.3 90.1,152.3 89.6,155 						"/>
						
							<linearGradient id="SVGID_29_" gradientUnits="userSpaceOnUse" x1="289.3047" y1="667.5386" x2="291.2303" y2="667.5386" gradientTransform="matrix(5.194805e-004 1 1 1.000001e-003 -581.2227 -137.7261)">
							<stop  offset="0" style="stop-color:#FFFFFF;stop-opacity:0"/>
							<stop  offset="0.5216" style="stop-color:#FFFFFF"/>
							<stop  offset="1" style="stop-color:#FFFFFF;stop-opacity:0"/>
						</linearGradient>
						<polygon fill="url(#SVGID_29_)" points="82.9,155 82.9,152.3 90.1,152.3 89.6,155 						"/>
						
							<linearGradient id="SVGID_30_" gradientUnits="userSpaceOnUse" x1="289.3105" y1="646.689" x2="291.2355" y2="646.689" gradientTransform="matrix(5.194805e-004 1 1 1.000001e-003 -581.2227 -137.7261)">
							<stop  offset="0" style="stop-color:#FFFFFF;stop-opacity:0"/>
							<stop  offset="0.5216" style="stop-color:#FFFFFF"/>
							<stop  offset="1" style="stop-color:#FFFFFF;stop-opacity:0"/>
						</linearGradient>
						<polygon fill="url(#SVGID_30_)" points="73.2,152.2 73.2,155 58.1,155 58.5,152 						"/>
						
							<linearGradient id="SVGID_31_" gradientUnits="userSpaceOnUse" x1="289.3105" y1="646.689" x2="291.2355" y2="646.689" gradientTransform="matrix(5.194805e-004 1 1 1.000001e-003 -581.2227 -137.7261)">
							<stop  offset="0" style="stop-color:#FFFFFF;stop-opacity:0"/>
							<stop  offset="0.5216" style="stop-color:#FFFFFF"/>
							<stop  offset="1" style="stop-color:#FFFFFF;stop-opacity:0"/>
						</linearGradient>
						<polygon fill="url(#SVGID_31_)" points="73.2,152.2 73.2,155 58.1,155 58.5,152 						"/>
						
							<linearGradient id="SVGID_32_" gradientUnits="userSpaceOnUse" x1="288.4385" y1="624.7388" x2="290.3635" y2="624.7388" gradientTransform="matrix(5.194805e-004 1 1 1.000001e-003 -581.2227 -137.7261)">
							<stop  offset="0" style="stop-color:#FFFFFF;stop-opacity:0"/>
							<stop  offset="0.5216" style="stop-color:#FFFFFF"/>
							<stop  offset="1" style="stop-color:#FFFFFF;stop-opacity:0"/>
						</linearGradient>
						<polygon fill="url(#SVGID_32_)" points="55.5,154.1 31.7,154.1 32.1,151.4 55.7,151.4 						"/>
						
							<linearGradient id="SVGID_33_" gradientUnits="userSpaceOnUse" x1="288.4385" y1="624.7388" x2="290.3635" y2="624.7388" gradientTransform="matrix(5.194805e-004 1 1 1.000001e-003 -581.2227 -137.7261)">
							<stop  offset="0" style="stop-color:#FFFFFF;stop-opacity:0"/>
							<stop  offset="0.5216" style="stop-color:#FFFFFF"/>
							<stop  offset="1" style="stop-color:#FFFFFF;stop-opacity:0"/>
						</linearGradient>
						<polygon fill="url(#SVGID_33_)" points="55.5,154.1 31.7,154.1 32.1,151.4 55.7,151.4 						"/>
					</g>
				</g>
			</g>
			<g>
				<g>
					<path fill="#838997" d="M81.7,170.8v0.1c0,0.1,0,0.1,0,0.1h-0.1h-3.7c0,0-0.1,0-0.2,0v-0.1v-0.1c0.1,0,0.1,0,0.2,0h3.7H81.7z
						 M81.7,172.1v0.1h-0.1h-3.7c0,0-0.1,0-0.2,0v-0.1c0-0.1,0-0.1,0-0.1c0.1,0,0.1,0,0.2,0h3.7L81.7,172.1
						C81.7,172,81.7,172,81.7,172.1z M77.9,168.4c0,0-0.1,0-0.2-0.1v-0.1v-0.1c0.1,0,0.1,0,0.2,0h3.7h0.1v0.1c0,0.1,0,0.1,0,0.1
						l-0.1,0.1H77.9z M77.7,169.7c0-0.1,0-0.1,0-0.2c0.1,0,0.1,0,0.2,0H83h0.1c0.1,0,0.1,0.1,0.1,0.2c0,0,0,0.1-0.1,0.1H83h-5.1
						C77.9,169.8,77.8,169.8,77.7,169.7L77.7,169.7z M77.7,167.2v-0.1V167c0.1,0,0.1,0,0.2,0h3.7h0.1c0,0.1,0,0.1,0,0.1v0.1h-0.1
						h-3.7C77.9,167.2,77.8,167.2,77.7,167.2z M77.7,165.6c0.1,0,0.1,0,0.2,0h3.7h0.1c0,0,0,0.1,0,0.2v0.1l-0.1,0.1h-3.7
						c0,0-0.1,0-0.2-0.1v-0.1C77.7,165.7,77.7,165.6,77.7,165.6z M77.7,164.7v-0.1c0-0.1,0-0.1,0-0.1c0.1,0,0.1,0,0.2,0h3.7h0.1v0.1
						v0.1h-0.1h-3.7C77.9,164.8,77.8,164.7,77.7,164.7z M77.7,163.2c0.1,0,0.1-0.1,0.2-0.1H83c0,0,0.1,0,0.1,0.1
						c0.1,0,0.1,0.1,0.1,0.1s0,0.1-0.1,0.1H83h-5.1c0,0-0.1,0-0.2,0V163.2C77.7,163.2,77.7,163.2,77.7,163.2z M77.7,162.2
						c0,0,0-0.1,0-0.2v-0.1c0.1,0,0.1-0.1,0.2-0.1h3.7c0,0,0.1,0,0.1,0.1v0.1c0,0.1,0,0.1,0,0.2h-0.1h-3.7
						C77.9,162.2,77.8,162.2,77.7,162.2z M77.7,160.8L77.7,160.8c0.1-0.1,0.1-0.1,0.2-0.1h3.7h0.1v0.1c0,0.1,0,0.1,0,0.2
						s-0.1,0-0.1,0h-3.7c0,0-0.1,0-0.2,0C77.7,161,77.7,160.9,77.7,160.8z M77.7,159.4c0.1,0,0.1,0,0.2,0h3.7h0.1c0,0.1,0,0.1,0,0.1
						c0,0.1,0,0.1,0,0.1c0,0.1-0.1,0.1-0.1,0.1h-3.7c0,0-0.1,0-0.2-0.1V159.4C77.7,159.5,77.7,159.5,77.7,159.4z M77.7,158.5
						C77.7,158.5,77.7,158.4,77.7,158.5c0-0.1,0-0.2,0-0.3c0.1,0,0.1,0,0.2,0h3.7h0.1c0,0.1,0,0.1,0,0.2v0.1h-0.1h-3.7
						C77.9,158.5,77.8,158.5,77.7,158.5z M83,156.9h0.1c0.1,0,0.1,0.1,0.1,0.1s0,0.1-0.1,0.1H83h-5.1c0,0-0.1,0-0.2,0V157
						c0-0.1,0-0.1,0-0.1c0.1,0,0.1,0,0.2,0H83z M81.7,155.8c0,0.1,0,0.1,0,0.2s-0.1,0-0.1,0h-3.7c0,0-0.1,0-0.2,0c0,0,0-0.1,0-0.2
						v-0.1c0.1,0,0.1,0,0.2,0h3.7C81.6,155.7,81.7,155.7,81.7,155.8C81.7,155.7,81.7,155.8,81.7,155.8z M81.7,154.5L81.7,154.5
						c0,0.2,0,0.2,0,0.2c0,0.1-0.1,0.1-0.1,0.1h-3.7c0,0-0.1,0-0.2-0.1v-0.1v-0.1c0.1,0,0.1,0,0.2,0h3.7H81.7z M81.7,153.3v0.1h-0.1
						h-3.7c0,0-0.1,0-0.2,0v-0.1c0-0.1,0-0.1,0-0.1c0.1,0,0.1,0,0.2,0h3.7L81.7,153.3L81.7,153.3z"/>
					<path fill="#838997" d="M81.7,170.8v0.1c0,0.1,0,0.1,0,0.1h-0.1h-3.7c0,0-0.1,0-0.2,0v-0.1v-0.1c0.1,0,0.1,0,0.2,0h3.7H81.7z
						 M81.7,172.1v0.1h-0.1h-3.7c0,0-0.1,0-0.2,0v-0.1c0-0.1,0-0.1,0-0.1c0.1,0,0.1,0,0.2,0h3.7L81.7,172.1
						C81.7,172,81.7,172,81.7,172.1z M77.9,168.4c0,0-0.1,0-0.2-0.1v-0.1v-0.1c0.1,0,0.1,0,0.2,0h3.7h0.1v0.1c0,0.1,0,0.1,0,0.1
						l-0.1,0.1H77.9z M77.7,169.7c0-0.1,0-0.1,0-0.2c0.1,0,0.1,0,0.2,0H83h0.1c0.1,0,0.1,0.1,0.1,0.2c0,0,0,0.1-0.1,0.1H83h-5.1
						C77.9,169.8,77.8,169.8,77.7,169.7L77.7,169.7z M77.7,167.2v-0.1V167c0.1,0,0.1,0,0.2,0h3.7h0.1c0,0.1,0,0.1,0,0.1v0.1h-0.1
						h-3.7C77.9,167.2,77.8,167.2,77.7,167.2z M77.7,165.6c0.1,0,0.1,0,0.2,0h3.7h0.1c0,0,0,0.1,0,0.2v0.1l-0.1,0.1h-3.7
						c0,0-0.1,0-0.2-0.1v-0.1C77.7,165.7,77.7,165.6,77.7,165.6z M77.7,164.7v-0.1c0-0.1,0-0.1,0-0.1c0.1,0,0.1,0,0.2,0h3.7h0.1v0.1
						v0.1h-0.1h-3.7C77.9,164.8,77.8,164.7,77.7,164.7z M77.7,163.2c0.1,0,0.1-0.1,0.2-0.1H83c0,0,0.1,0,0.1,0.1
						c0.1,0,0.1,0.1,0.1,0.1s0,0.1-0.1,0.1H83h-5.1c0,0-0.1,0-0.2,0V163.2C77.7,163.2,77.7,163.2,77.7,163.2z M77.7,162.2
						c0,0,0-0.1,0-0.2v-0.1c0.1,0,0.1-0.1,0.2-0.1h3.7c0,0,0.1,0,0.1,0.1v0.1c0,0.1,0,0.1,0,0.2h-0.1h-3.7
						C77.9,162.2,77.8,162.2,77.7,162.2z M77.7,160.8L77.7,160.8c0.1-0.1,0.1-0.1,0.2-0.1h3.7h0.1v0.1c0,0.1,0,0.1,0,0.2
						s-0.1,0-0.1,0h-3.7c0,0-0.1,0-0.2,0C77.7,161,77.7,160.9,77.7,160.8z M77.7,159.4c0.1,0,0.1,0,0.2,0h3.7h0.1c0,0.1,0,0.1,0,0.1
						c0,0.1,0,0.1,0,0.1c0,0.1-0.1,0.1-0.1,0.1h-3.7c0,0-0.1,0-0.2-0.1V159.4C77.7,159.5,77.7,159.5,77.7,159.4z M77.7,158.5
						C77.7,158.5,77.7,158.4,77.7,158.5c0-0.1,0-0.2,0-0.3c0.1,0,0.1,0,0.2,0h3.7h0.1c0,0.1,0,0.1,0,0.2v0.1h-0.1h-3.7
						C77.9,158.5,77.8,158.5,77.7,158.5z M83,156.9h0.1c0.1,0,0.1,0.1,0.1,0.1s0,0.1-0.1,0.1H83h-5.1c0,0-0.1,0-0.2,0V157
						c0-0.1,0-0.1,0-0.1c0.1,0,0.1,0,0.2,0H83z M81.7,155.8c0,0.1,0,0.1,0,0.2s-0.1,0-0.1,0h-3.7c0,0-0.1,0-0.2,0c0,0,0-0.1,0-0.2
						v-0.1c0.1,0,0.1,0,0.2,0h3.7C81.6,155.7,81.7,155.7,81.7,155.8C81.7,155.7,81.7,155.8,81.7,155.8z M81.7,154.5L81.7,154.5
						c0,0.2,0,0.2,0,0.2c0,0.1-0.1,0.1-0.1,0.1h-3.7c0,0-0.1,0-0.2-0.1v-0.1v-0.1c0.1,0,0.1,0,0.2,0h3.7H81.7z M81.7,153.3v0.1h-0.1
						h-3.7c0,0-0.1,0-0.2,0v-0.1c0-0.1,0-0.1,0-0.1c0.1,0,0.1,0,0.2,0h3.7L81.7,153.3L81.7,153.3z"/>
				</g>
				<g>
					<path fill="#010101" d="M84.1,157.3l0.2-0.9h0.9v0.2h-0.7l-0.1,0.5c0.1-0.1,0.2-0.1,0.4-0.1c0.2,0,0.3,0,0.4,0.1
						c0.1,0.1,0.1,0.3,0.1,0.5c0,0.1,0,0.3-0.1,0.4s-0.3,0.2-0.5,0.2c-0.1,0-0.3-0.1-0.4-0.2s-0.1-0.2-0.1-0.3h0.2
						c0,0.1,0.1,0.2,0.1,0.3c0.1,0.1,0.1,0.1,0.2,0.1s0.2,0,0.3-0.2c0.1-0.1,0.1-0.2,0.1-0.3c0-0.1,0-0.2-0.1-0.3
						c-0.1-0.1-0.2-0.1-0.3-0.1s-0.1,0-0.1,0c-0.1,0-0.1,0.1-0.1,0.1H84.1z M84.9,162.5c0.1,0,0.1,0,0.2,0.2c0,0.1,0,0.1,0.1,0.3
						c0,0.1,0,0.2,0,0.4c0,0.2,0,0.4,0,0.5c0,0.1-0.1,0.2-0.2,0.3c-0.1,0.1-0.2,0.1-0.4,0.1c-0.1,0-0.3,0-0.4-0.2
						c-0.1-0.2-0.1-0.4-0.1-0.8c0-0.2,0-0.4,0.1-0.5c0-0.1,0.1-0.2,0.2-0.3c0.1-0.1,0.1-0.1,0.3-0.1
						C84.7,162.4,84.8,162.4,84.9,162.5z M84.6,162.6c-0.1,0-0.2,0-0.2,0.1c-0.1,0.1-0.1,0.3-0.1,0.6s0,0.5,0.1,0.6
						c0,0.1,0.1,0.1,0.2,0.1s0.2,0,0.3-0.1c0.1-0.1,0.1-0.3,0.1-0.6s0-0.5-0.1-0.5C84.8,162.7,84.7,162.6,84.6,162.6z M84.1,170
						l0.8-1.2h0.2v1.2h0.2v0.2h-0.2v0.5h-0.3v-0.5H84V170H84.1z M84.8,169.3l-0.6,0.8h0.6V169.3z M86.6,169.1h-0.7l-0.2,0.5
						c0.1-0.1,0.2-0.1,0.4-0.1c0.2,0,0.3,0.1,0.4,0.2c0.1,0.1,0.2,0.2,0.2,0.3s0,0.3-0.1,0.5c-0.1,0.1-0.3,0.2-0.5,0.2
						c-0.2,0-0.3,0-0.4-0.1c-0.1-0.1-0.2-0.2-0.2-0.4h0.3c0,0.1,0,0.2,0.1,0.3c0,0.1,0.1,0.1,0.2,0.1s0.2,0,0.3-0.2
						c0.1-0.1,0.1-0.2,0.1-0.3c0-0.1,0-0.2-0.1-0.3c-0.1-0.1-0.1-0.1-0.3-0.1c-0.1,0-0.1,0-0.1,0c-0.1,0-0.2,0.1-0.2,0.1h-0.3l0.2-1
						h0.9V169.1L86.6,169.1z"/>
					<path fill="#010101" d="M84.1,157.3l0.2-0.9h0.9v0.2h-0.7l-0.1,0.5c0.1-0.1,0.2-0.1,0.4-0.1c0.2,0,0.3,0,0.4,0.1
						c0.1,0.1,0.1,0.3,0.1,0.5c0,0.1,0,0.3-0.1,0.4s-0.3,0.2-0.5,0.2c-0.1,0-0.3-0.1-0.4-0.2s-0.1-0.2-0.1-0.3h0.2
						c0,0.1,0.1,0.2,0.1,0.3c0.1,0.1,0.1,0.1,0.2,0.1s0.2,0,0.3-0.2c0.1-0.1,0.1-0.2,0.1-0.3c0-0.1,0-0.2-0.1-0.3
						c-0.1-0.1-0.2-0.1-0.3-0.1s-0.1,0-0.1,0c-0.1,0-0.1,0.1-0.1,0.1H84.1z M84.9,162.5c0.1,0,0.1,0,0.2,0.2c0,0.1,0,0.1,0.1,0.3
						c0,0.1,0,0.2,0,0.4c0,0.2,0,0.4,0,0.5c0,0.1-0.1,0.2-0.2,0.3c-0.1,0.1-0.2,0.1-0.4,0.1c-0.1,0-0.3,0-0.4-0.2
						c-0.1-0.2-0.1-0.4-0.1-0.8c0-0.2,0-0.4,0.1-0.5c0-0.1,0.1-0.2,0.2-0.3c0.1-0.1,0.1-0.1,0.3-0.1
						C84.7,162.4,84.8,162.4,84.9,162.5z M84.6,162.6c-0.1,0-0.2,0-0.2,0.1c-0.1,0.1-0.1,0.3-0.1,0.6s0,0.5,0.1,0.6
						c0,0.1,0.1,0.1,0.2,0.1s0.2,0,0.3-0.1c0.1-0.1,0.1-0.3,0.1-0.6s0-0.5-0.1-0.5C84.8,162.7,84.7,162.6,84.6,162.6z M84.1,170
						l0.8-1.2h0.2v1.2h0.2v0.2h-0.2v0.5h-0.3v-0.5H84V170H84.1z M84.8,169.3l-0.6,0.8h0.6V169.3z M86.6,169.1h-0.7l-0.2,0.5
						c0.1-0.1,0.2-0.1,0.4-0.1c0.2,0,0.3,0.1,0.4,0.2c0.1,0.1,0.2,0.2,0.2,0.3s0,0.3-0.1,0.5c-0.1,0.1-0.3,0.2-0.5,0.2
						c-0.2,0-0.3,0-0.4-0.1c-0.1-0.1-0.2-0.2-0.2-0.4h0.3c0,0.1,0,0.2,0.1,0.3c0,0.1,0.1,0.1,0.2,0.1s0.2,0,0.3-0.2
						c0.1-0.1,0.1-0.2,0.1-0.3c0-0.1,0-0.2-0.1-0.3c-0.1-0.1-0.1-0.1-0.3-0.1c-0.1,0-0.1,0-0.1,0c-0.1,0-0.2,0.1-0.2,0.1h-0.3l0.2-1
						h0.9V169.1L86.6,169.1z"/>
				</g>
			</g>
		</g>
		<g>
			<g>
				<g>
					<polygon fill="#121B26" points="128.2,173.4 128.2,176.1 127.6,176.1 127.6,164.2 122.2,164.2 122.5,163.8 128.2,163.8 					
						"/>
					<polygon fill="#121B26" points="128.2,173.4 128.2,176.1 127.6,176.1 127.6,164.2 122.2,164.2 122.5,163.8 128.2,163.8 					
						"/>
					<polygon fill="#182933" points="132.7,173.4 128.2,173.4 128.2,163.8 122.5,163.8 122.2,164.2 122.2,173.4 109.1,173.4 
						109.1,160.2 132.7,160.2 					"/>
					<polygon fill="#182933" points="132.7,173.4 128.2,173.4 128.2,163.8 122.5,163.8 122.2,164.2 122.2,173.4 109.1,173.4 
						109.1,160.2 132.7,160.2 					"/>
					
						<linearGradient id="SVGID_34_" gradientUnits="userSpaceOnUse" x1="-714.481" y1="156.1226" x2="-701.1307" y2="156.1226" gradientTransform="matrix(5.953545e-003 -1 -1 -5.953544e-003 285.2032 -536.7173)">
						<stop  offset="0" style="stop-color:#182933"/>
						<stop  offset="1" style="stop-color:#376375"/>
					</linearGradient>
					<polygon fill="url(#SVGID_34_)" points="122.2,173.4 122.2,164.2 127.6,164.2 127.6,176.1 122.2,176.1 					"/>
					
						<linearGradient id="SVGID_35_" gradientUnits="userSpaceOnUse" x1="-714.481" y1="156.1226" x2="-701.1307" y2="156.1226" gradientTransform="matrix(5.953545e-003 -1 -1 -5.953544e-003 285.2032 -536.7173)">
						<stop  offset="0" style="stop-color:#182933"/>
						<stop  offset="1" style="stop-color:#376375"/>
					</linearGradient>
					<polygon fill="url(#SVGID_35_)" points="122.2,173.4 122.2,164.2 127.6,164.2 127.6,176.1 122.2,176.1 					"/>
					<path fill="#172334" d="M93,154.7h13.7v0.1v1l0,0c0,9.7,0,16.5,0,20.3h15.5h5.4h0.6h4.4v6.3H92.9L93,154.7L93,154.7z"/>
					<path fill="#172334" d="M93,154.7h13.7v0.1v1l0,0c0,9.7,0,16.5,0,20.3h15.5h5.4h0.6h4.4v6.3H92.9L93,154.7L93,154.7z"/>
					<path fill="#010101" d="M128.2,173.4h4.4v2.7h-4.4V173.4z M122.2,176.1h-15.6c0-3.8,0-10.6,0-20.3l0,0v-1v-0.1v-5l0,0l2.4-3.3
						l0,0v13.7v13.3h13.2V176.1z"/>
					<path fill="#010101" d="M128.2,173.4h4.4v2.7h-4.4V173.4z M122.2,176.1h-15.6c0-3.8,0-10.6,0-20.3l0,0v-1v-0.1v-5l0,0l2.4-3.3
						l0,0v13.7v13.3h13.2V176.1z"/>
					
						<linearGradient id="SVGID_36_" gradientUnits="userSpaceOnUse" x1="119.6201" y1="872.5405" x2="133.2826" y2="872.5405" gradientTransform="matrix(-0.442 0.897 0.897 0.442 -625.6046 -349.2348)">
						<stop  offset="0" style="stop-color:#3F5886"/>
						<stop  offset="1" style="stop-color:#192434"/>
					</linearGradient>
					<polygon fill="url(#SVGID_36_)" points="106.7,154.7 93,154.7 93.4,149.7 106.7,149.7 106.7,149.7 					"/>
					
						<linearGradient id="SVGID_37_" gradientUnits="userSpaceOnUse" x1="119.6201" y1="872.5405" x2="133.2826" y2="872.5405" gradientTransform="matrix(-0.442 0.897 0.897 0.442 -625.6046 -349.2348)">
						<stop  offset="0" style="stop-color:#3F5886"/>
						<stop  offset="1" style="stop-color:#192434"/>
					</linearGradient>
					<polygon fill="url(#SVGID_37_)" points="106.7,154.7 93,154.7 93.4,149.7 106.7,149.7 106.7,149.7 					"/>
					
						<linearGradient id="SVGID_38_" gradientUnits="userSpaceOnUse" x1="-426.2607" y1="-68.7905" x2="-413.3087" y2="-68.7905" gradientTransform="matrix(0.6332 -0.774 -0.774 -0.6332 313.4964 -219.9023)">
						<stop  offset="0" style="stop-color:#3F5886"/>
						<stop  offset="1" style="stop-color:#192434"/>
					</linearGradient>
					<polygon fill="url(#SVGID_38_)" points="106.7,149.7 93.4,149.7 96,146.5 109.1,146.5 					"/>
					
						<linearGradient id="SVGID_39_" gradientUnits="userSpaceOnUse" x1="-426.2607" y1="-68.7905" x2="-413.3087" y2="-68.7905" gradientTransform="matrix(0.6332 -0.774 -0.774 -0.6332 313.4964 -219.9023)">
						<stop  offset="0" style="stop-color:#3F5886"/>
						<stop  offset="1" style="stop-color:#192434"/>
					</linearGradient>
					<polygon fill="url(#SVGID_39_)" points="106.7,149.7 93.4,149.7 96,146.5 109.1,146.5 					"/>
				</g>
			</g>
			<g>
				
					<linearGradient id="SVGID_40_" gradientUnits="userSpaceOnUse" x1="296.082" y1="693.5747" x2="301.433" y2="693.5747" gradientTransform="matrix(1.551658e-002 0.9999 0.9999 -1.551658e-002 -578.1641 -130.5999)">
					<stop  offset="0" style="stop-color:#048786"/>
					<stop  offset="8.627451e-002" style="stop-color:#FDFEFF"/>
					<stop  offset="0.4" style="stop-color:#325F7C"/>
					<stop  offset="0.6353" style="stop-color:#5B504C"/>
					<stop  offset="1" style="stop-color:#010101"/>
				</linearGradient>
				<path fill="url(#SVGID_40_)" d="M132.7,154.5v5.7h-25.2c-0.3-2-0.3-3.9,0-5.7H132.7z"/>
				
					<linearGradient id="SVGID_41_" gradientUnits="userSpaceOnUse" x1="296.082" y1="693.5747" x2="301.433" y2="693.5747" gradientTransform="matrix(1.551658e-002 0.9999 0.9999 -1.551658e-002 -578.1641 -130.5999)">
					<stop  offset="0" style="stop-color:#048786"/>
					<stop  offset="8.627451e-002" style="stop-color:#FDFEFF"/>
					<stop  offset="0.4" style="stop-color:#325F7C"/>
					<stop  offset="0.6353" style="stop-color:#5B504C"/>
					<stop  offset="1" style="stop-color:#010101"/>
				</linearGradient>
				<path fill="url(#SVGID_41_)" d="M132.7,154.5v5.7h-25.2c-0.3-2-0.3-3.9,0-5.7H132.7z"/>
			</g>
			<g>
				<g>
					
						<line fill="none" stroke="#010101" stroke-linecap="round" stroke-linejoin="round" stroke-miterlimit="3" x1="106.5" y1="159" x2="93.2" y2="159"/>
					
						<line fill="none" stroke="#010101" stroke-linecap="round" stroke-linejoin="round" stroke-miterlimit="3" x1="106.5" y1="159" x2="93.2" y2="159"/>
					<line fill="none" x1="106.6" y1="159.4" x2="93.3" y2="159.4"/>
					<line fill="none" x1="106.6" y1="159.4" x2="93.3" y2="159.4"/>
				</g>
			</g>
		</g>
		<g>
			<g>
				<rect x="128.5" y="150.9" fill="#010101" width="98.1" height="2.6"/>
			</g>
			<g>
				
					<linearGradient id="SVGID_42_" gradientUnits="userSpaceOnUse" x1="310.4795" y1="654.6958" x2="366.8974" y2="654.6958" gradientTransform="matrix(0.1936 0.9811 0.9838 -0.18 -535.4042 -63.2126)">
					<stop  offset="0" style="stop-color:#3D4955"/>
					<stop  offset="1" style="stop-color:#12161D"/>
				</linearGradient>
				<polygon fill="url(#SVGID_42_)" points="128.5,151.8 226.6,151.8 226.6,183.8 128.5,183.7 				"/>
			</g>
		</g>
		<g>
			<g>
				<g>
					
						<linearGradient id="SVGID_43_" gradientUnits="userSpaceOnUse" x1="-90.123" y1="-21.7266" x2="169.1769" y2="-21.7266" gradientTransform="matrix(1 0 0 -1 52.3398 94.373)">
						<stop  offset="0" style="stop-color:#010101"/>
						<stop  offset="0.4549" style="stop-color:#010101"/>
						<stop  offset="1" style="stop-color:#455E81"/>
					</linearGradient>
					<path fill="url(#SVGID_43_)" d="M230.1,117.3h-0.3H128.6l1.4-2.4h0.2h4.5H216h2.2h2.5h1.5h1.4h3.7h1.3h0.1h0.2
						C229.2,115.5,229.6,116.3,230.1,117.3L230.1,117.3L230.1,117.3z"/>
					
						<linearGradient id="SVGID_44_" gradientUnits="userSpaceOnUse" x1="122.0674" y1="-3.6851" x2="127.6922" y2="-45.0249" gradientTransform="matrix(1 0 0 -1 52.3398 94.373)">
						<stop  offset="0" style="stop-color:#3D4955"/>
						<stop  offset="1" style="stop-color:#12161D"/>
					</linearGradient>
					<polygon fill="url(#SVGID_44_)" points="230.1,117.3 230.1,151 204.1,151 204.1,128.3 146.2,128.3 146.2,151 128.6,151 
						128.6,147.6 128.6,117.2 229.8,117.2 					"/>
					<line fill="none" x1="229.8" y1="117.2" x2="230.1" y2="117.3"/>
					<line fill="none" x1="128.6" y1="147.6" x2="127.7" y2="147.6"/>
				</g>
			</g>
			<g>
				<g>
					
						<linearGradient id="SVGID_45_" gradientUnits="userSpaceOnUse" x1="-790.4243" y1="358.6265" x2="-754.7033" y2="358.6265" gradientTransform="matrix(-0.45 -0.893 -0.8878 0.4603 145.0121 -716.9419)">
						<stop  offset="0" style="stop-color:#29343E"/>
						<stop  offset="1" style="stop-color:#12161D"/>
					</linearGradient>
					<path fill="url(#SVGID_45_)" d="M146.2,151v-22.6h57.9V151H146.2z M154.7,129.8h-4.5H154.7z"/>
					<line fill="none" x1="154.7" y1="129.8" x2="150.2" y2="129.8"/>
				</g>
			</g>
			<g>
				<g>
					<path fill="#010101" d="M150.3,142.5c-0.1,0-0.1,0-0.1-0.1c0,0-0.1,0-0.1-0.1c0-0.1,0-0.1,0.1-0.2h0.1h4.5v-11.8h-4.5h-0.1
						c-0.1-0.1-0.1-0.1-0.1-0.2c0-0.1,0-0.1,0.1-0.1c0-0.1,0.1-0.1,0.1-0.1h4.6c0,0,0.1,0,0.1,0.1c0.1,0,0.1,0.1,0.1,0.1v12.3
						c0,0.1,0,0.1-0.1,0.1c0,0.1-0.1,0.1-0.1,0.1L150.3,142.5L150.3,142.5z M158.1,129.5h35.8l-0.4,8.7h-35.3L158.1,129.5z
						 M202.3,130.5h-4.1v11.4h4.1v0.4l0,0H198h-0.1l-0.1-0.1c0,0,0-0.1,0.1-0.1v-11.7v-0.1l0,0h0.2h0.1h4.1V130.5L202.3,130.5z
						 M135.3,146.8H135c-0.1,0.1-0.1,0.1-0.1,0.2v-11.8c0-0.1,0-0.1,0.1-0.2c0,0,0,0,0.1,0h9.7h0.1c0,0,0,0.1,0,0.2v0.1
						c-0.1,0-0.1,0.1-0.1,0.1h-9.5V146.8z"/>
					
						<linearGradient id="SVGID_46_" gradientUnits="userSpaceOnUse" x1="100.4292" y1="-37.2334" x2="99.7029" y2="-50.2084" gradientTransform="matrix(1 0 0 -1 52.3398 94.373)">
						<stop  offset="0" style="stop-color:#141921"/>
						<stop  offset="1" style="stop-color:#1F2635"/>
					</linearGradient>
					<rect x="150.3" y="130.2" fill="url(#SVGID_46_)" width="4.5" height="11.8"/>
					<path fill="#0A0C0F" d="M144.8,146.8v-11.4c0,0,0.1,0,0.1-0.1v-0.1c0-0.1,0-0.1,0-0.2c-0.1,0-0.1,0-0.1,0v-5h5.3
						c0,0,0,0.1,0.1,0.2h0.1V142c-0.1,0-0.1,0-0.1,0s-0.1,0.1-0.1,0.2c0,0.1,0,0.1,0.1,0.1c0,0.1,0.1,0.1,0.1,0.1v8.5h-5.5
						c0-1.2,0-2.4,0-3.8h0.1c0,0,0-0.1,0-0.2c0,0,0-0.1,0-0.2C144.9,146.8,144.9,146.8,144.8,146.8z M202.3,142v-10.8h3.8v4.7h-0.2
						l0.1,11.2h0.1l0,0v4h-3.9c0-0.9-0.1-1.8-0.1-2.8v-2.1h0.1v-3.8l0,0V142H202.3z"/>
					<path fill="#131F27" d="M198,130.2L198,130.2L198,130.2L198,130.2z M202.3,131.2V142h-4.1v-11.5h4.1V131.2z"/>
					
						<linearGradient id="SVGID_47_" gradientUnits="userSpaceOnUse" x1="156.6709" y1="-40.0581" x2="155.4952" y2="-51.0804" gradientTransform="matrix(1 0 0 -1 52.3398 94.373)">
						<stop  offset="0" style="stop-color:#141921"/>
						<stop  offset="1" style="stop-color:#1F2635"/>
					</linearGradient>
					<polygon fill="url(#SVGID_47_)" points="206.2,147 206.2,147 206.1,147 206,135.8 206.2,135.8 210.6,135.8 210.6,147 					"/>
					
						<linearGradient id="SVGID_48_" gradientUnits="userSpaceOnUse" x1="87.7373" y1="-37.4536" x2="87.6377" y2="-52.8037" gradientTransform="matrix(1 0 0 -1 52.3398 94.373)">
						<stop  offset="0" style="stop-color:#141921"/>
						<stop  offset="1" style="stop-color:#1F2635"/>
					</linearGradient>
					<rect x="135.3" y="135.4" fill="url(#SVGID_48_)" width="9.5" height="11.4"/>
					
						<radialGradient id="SVGID_49_" cx="84.377" cy="-45.3652" r="8.1875" fx="86.6566" fy="-45.3652" gradientTransform="matrix(1 0 0 -1.2092 52.3398 82.9637)" gradientUnits="userSpaceOnUse">
						<stop  offset="0" style="stop-color:#131923"/>
						<stop  offset="1" style="stop-color:#171C25"/>
					</radialGradient>
					<path fill="url(#SVGID_49_)" d="M135,147c0,0,0-0.1,0.1-0.2h0.3h9.5h0.1c0,0.1,0,0.1,0,0.2s0,0.1,0,0.2c-0.1,0-0.1,0-0.1,0
						h-9.7c-0.1,0-0.1,0-0.1,0C135,147.1,135,147.1,135,147z"/>
				</g>
			</g>
			<g>
				<g>
					
						<linearGradient id="SVGID_50_" gradientUnits="userSpaceOnUse" x1="121.8765" y1="-40.5767" x2="127.977" y2="-40.5767" gradientTransform="matrix(1 0 0 -1 52.3398 94.373)">
						<stop  offset="0" style="stop-color:#FFFFFF;stop-opacity:0.5529"/>
						<stop  offset="1" style="stop-color:#A9A8A6;stop-opacity:0"/>
					</linearGradient>
					<path fill="url(#SVGID_50_)" d="M180.7,135.9h-5.6V134h5.6V135.9z M180.7,135.7v-0.4h-5.5v0.4H180.7z"/>
					<rect x="175.2" y="135.3" fill="#010101" width="5.4" height="0.4"/>
				</g>
			</g>
			<g>
				<path fill="#010101" d="M210.7,135.8c0,0.1,0,0.1,0,0.2v11.1h-0.4v-11H206v-0.3h4.5C210.5,135.8,210.6,135.8,210.7,135.8z"/>
			</g>
			<g>
				<polygon fill="#010101" points="202.2,131.8 202.2,129.6 150.2,129.6 150.2,131.1 144.8,131.1 144.8,128 206.1,128 206.1,131.8 
									"/>
			</g>
			<g>
				<g>
					
						<linearGradient id="SVGID_51_" gradientUnits="userSpaceOnUse" x1="112.127" y1="-39.5767" x2="116.8274" y2="-39.5767" gradientTransform="matrix(1 0 0 -1 52.3398 94.373)">
						<stop  offset="0" style="stop-color:#5A5A5A"/>
						<stop  offset="6.666666e-002" style="stop-color:#727272"/>
						<stop  offset="0.149" style="stop-color:#D9D9D8"/>
						<stop  offset="0.251" style="stop-color:#AFAFAF"/>
						<stop  offset="0.3647" style="stop-color:#E4E4E4"/>
						<stop  offset="0.5216" style="stop-color:#DEDEDD"/>
						<stop  offset="0.6588" style="stop-color:#FFFFFF"/>
						<stop  offset="0.7451" style="stop-color:#C8C8C8"/>
						<stop  offset="1" style="stop-color:#636363"/>
					</linearGradient>
					<rect x="164.7" y="129.7" fill="url(#SVGID_51_)" width="4.6" height="8.5"/>
				</g>
				<g>
					<g>
						<path fill="#333333" d="M167,133.6c-0.7,0-1.4,0-2.1-0.2c-0.1,0-0.1,0-0.2,0h-0.2V133h0.1c1.5,0.3,2.9,0.3,4.3,0h0.1l0.1,0.4
							h-0.2C168.4,133.6,167.7,133.6,167,133.6z M169.2,134.9l0.1,0.3h-0.2c-1.4,0.2-2.9,0.2-4.4,0h-0.1l0,0v-0.4l0.1,0.1
							c1.5,0.2,2.9,0.2,4.3,0H169.2z"/>
						<path fill="#FFFFFF" fill-opacity="0.451" d="M167,133.6c0.7,0,1.4,0,2.1-0.1h0.1l0.1,0.3h-0.2c-1.4,0.3-2.9,0.3-4.4,0h-0.2
							v-0.3h0.1c0,0,0.1,0,0.2,0C165.6,133.6,166.3,133.6,167,133.6z M169.2,135.3l0.1,0.3l-0.2,0.1c-1.4,0.2-2.9,0.2-4.4-0.1h-0.2
							v-0.3h0.1c1.5,0.2,2.9,0.2,4.3,0H169.2z"/>
					</g>
				</g>
				<g>
					<g>
						
							<linearGradient id="SVGID_52_" gradientUnits="userSpaceOnUse" x1="308.5576" y1="656.9985" x2="311.1515" y2="656.9985" gradientTransform="matrix(0.1831 0.9831 0.9906 -0.1425 -540.4564 -79.0355)">
							<stop  offset="0" style="stop-color:#010101"/>
							<stop  offset="1" style="stop-color:#1C222F;stop-opacity:0"/>
						</linearGradient>
						<path fill="url(#SVGID_52_)" d="M169.3,129.7v3.1c-1.5,0.5-3,0.5-4.6,0v-3.1H169.3z"/>
						
							<linearGradient id="SVGID_53_" gradientUnits="userSpaceOnUse" x1="114.6099" y1="-45.2324" x2="114.6324" y2="-42.4074" gradientTransform="matrix(1 0 0 -1 52.3398 94.373)">
							<stop  offset="0" style="stop-color:#010101"/>
							<stop  offset="1" style="stop-color:#1C222F;stop-opacity:0"/>
						</linearGradient>
						<rect x="164.7" y="136.4" fill="url(#SVGID_53_)" width="4.6" height="1.9"/>
					</g>
				</g>
			</g>
			<g>
				<g>
					
						<linearGradient id="SVGID_54_" gradientUnits="userSpaceOnUse" x1="128.5767" y1="-39.5767" x2="133.2778" y2="-39.5767" gradientTransform="matrix(1 0 0 -1 52.3398 94.373)">
						<stop  offset="0" style="stop-color:#5A5A5A"/>
						<stop  offset="6.666666e-002" style="stop-color:#727272"/>
						<stop  offset="0.149" style="stop-color:#D9D9D8"/>
						<stop  offset="0.251" style="stop-color:#AFAFAF"/>
						<stop  offset="0.3647" style="stop-color:#E4E4E4"/>
						<stop  offset="0.5216" style="stop-color:#DEDEDD"/>
						<stop  offset="0.6588" style="stop-color:#FFFFFF"/>
						<stop  offset="0.7451" style="stop-color:#C8C8C8"/>
						<stop  offset="1" style="stop-color:#636363"/>
					</linearGradient>
					<rect x="181.1" y="129.7" fill="url(#SVGID_54_)" width="4.7" height="8.5"/>
				</g>
				<g>
					<g>
						<path fill="#333333" d="M185.6,135.3L185.6,135.3c-0.1,0-0.2,0-0.2,0l0,0c-1.3,0.2-2.7,0.1-4.1-0.1h-0.1v-0.3h0.2
							c1.4,0.2,2.9,0.2,4.3,0h0.1l0.1,0.4H185.6z M185.6,133h0.1l0.1,0.3l-0.2,0.1c-1.4,0.2-2.9,0.2-4.4-0.1h-0.1V133h0.2
							C182.7,133.2,184.2,133.3,185.6,133z"/>
						<path fill="#FFFFFF" fill-opacity="0.451" d="M185.7,133.4l0.1,0.3h-0.2c-1.4,0.2-2.9,0.2-4.4,0h-0.1v-0.3h0.2
							c1.4,0.2,2.9,0.3,4.3,0H185.7z M185.6,135.3h0.1l0.1,0.3h-0.2c-1.4,0.2-2.9,0.2-4.4,0h-0.1v-0.3h0.2c1.4,0.2,2.7,0.2,4,0l0,0
							C185.4,135.3,185.5,135.3,185.6,135.3L185.6,135.3z"/>
					</g>
				</g>
				<g>
					<g>
						
							<linearGradient id="SVGID_55_" gradientUnits="userSpaceOnUse" x1="310.8604" y1="673.1704" x2="313.455" y2="673.1704" gradientTransform="matrix(0.1831 0.9831 0.9906 -0.1425 -540.4564 -79.0355)">
							<stop  offset="0" style="stop-color:#010101"/>
							<stop  offset="1" style="stop-color:#1C222F;stop-opacity:0"/>
						</linearGradient>
						<path fill="url(#SVGID_55_)" d="M185.8,129.7v3.1c-1.5,0.5-3,0.5-4.7,0v-3.1H185.8z"/>
						
							<linearGradient id="SVGID_56_" gradientUnits="userSpaceOnUse" x1="131.0591" y1="-45.1333" x2="131.0817" y2="-42.3083" gradientTransform="matrix(1 0 0 -1 52.3398 94.373)">
							<stop  offset="0" style="stop-color:#010101"/>
							<stop  offset="1" style="stop-color:#1C222F;stop-opacity:0"/>
						</linearGradient>
						<rect x="181.1" y="136.3" fill="url(#SVGID_56_)" width="4.7" height="1.9"/>
					</g>
				</g>
			</g>
		</g>
		<g>
			<rect x="224.8" y="117.2" fill="#101318" width="1.7" height="33.8"/>
		</g>
		<g>
			<g>
				<g>
					
						<linearGradient id="SVGID_57_" gradientUnits="userSpaceOnUse" x1="174.2402" y1="50.5234" x2="197.4152" y2="50.5234" gradientTransform="matrix(1 0 0 -1 52.3398 94.373)">
						<stop  offset="0" style="stop-color:#30445A"/>
						<stop  offset="0.6627" style="stop-color:#0F1720"/>
						<stop  offset="1" style="stop-color:#11212D"/>
					</linearGradient>
					<polygon fill="url(#SVGID_57_)" points="249.8,44.2 226.5,44.2 227,43.5 249.5,43.5 					"/>
					
						<linearGradient id="SVGID_58_" gradientUnits="userSpaceOnUse" x1="232.5752" y1="689.3423" x2="341.592" y2="689.3423" gradientTransform="matrix(0.2665 0.9638 0.9792 -0.211 -518.761 -53.2771)">
						<stop  offset="0" style="stop-color:#3D4955"/>
						<stop  offset="1" style="stop-color:#12161D"/>
					</linearGradient>
					<rect x="226.5" y="44.2" fill="url(#SVGID_58_)" width="23.4" height="106.7"/>
				</g>
			</g>
			<g>
				<g>
					
						<linearGradient id="SVGID_59_" gradientUnits="userSpaceOnUse" x1="197.4766" y1="34.6235" x2="213.0016" y2="34.6235" gradientTransform="matrix(1 0 0 -1 52.3398 94.373)">
						<stop  offset="0" style="stop-color:#313B46"/>
						<stop  offset="1" style="stop-color:#010101"/>
					</linearGradient>
					<polygon fill="url(#SVGID_59_)" points="249.8,60 249.8,59.5 265,59.5 265.4,60 					"/>
					
						<linearGradient id="SVGID_60_" gradientUnits="userSpaceOnUse" x1="256.2402" y1="693.9897" x2="321.5181" y2="693.9897" gradientTransform="matrix(0.2949 0.9555 0.9877 -0.1906 -516.7299 -63.7721)">
						<stop  offset="0" style="stop-color:#3D4955"/>
						<stop  offset="1" style="stop-color:#12161D"/>
					</linearGradient>
					<rect x="249.8" y="60" fill="url(#SVGID_60_)" width="15.5" height="63.3"/>
				</g>
			</g>
			<g>
				<g>
					<rect x="226.7" y="134.6" fill="#010101" width="22.9" height="0.1"/>
					<rect x="226.7" y="135" fill="#FFFFFF" fill-opacity="0.102" width="22.9" height="0.1"/>
				</g>
			</g>
			<g>
				<path fill="#1B2028" d="M249.8,60.2c0.1,0,0.2,0,0.3,0.1c0.1,0.1,0.1,0.2,0.1,0.3v62.3c0,0.1,0,0.1-0.1,0.2
					c-0.1,0.1-0.1,0.1-0.3,0.1c-0.2,0-0.2,0-0.3-0.1c-0.1-0.1-0.1-0.1-0.1-0.2V60.5c0-0.1,0-0.2,0.1-0.3
					C249.7,60.2,249.7,60.2,249.8,60.2z"/>
			</g>
		</g>
		<g>
			<g>
				
					<linearGradient id="SVGID_61_" gradientUnits="userSpaceOnUse" x1="178.127" y1="55.7612" x2="194.3271" y2="55.7612" gradientTransform="matrix(1 0 0 -1 52.3398 94.373)">
					<stop  offset="0" style="stop-color:#2F2918"/>
					<stop  offset="9.803922e-002" style="stop-color:#756E39"/>
					<stop  offset="0.2118" style="stop-color:#685D30"/>
					<stop  offset="0.2588" style="stop-color:#625027"/>
					<stop  offset="0.4078" style="stop-color:#564723"/>
					<stop  offset="0.5059" style="stop-color:#463A1D"/>
					<stop  offset="0.8039" style="stop-color:#D2C098"/>
					<stop  offset="0.9412" style="stop-color:#362D17"/>
					<stop  offset="1" style="stop-color:#5D3918"/>
				</linearGradient>
				<path fill="url(#SVGID_61_)" d="M246.7,33.3v10.4c-5.4,0.3-10.8,0.3-16.2,0V33.3H246.7z"/>
			</g>
			<g>
				<g>
					
						<linearGradient id="SVGID_62_" gradientUnits="userSpaceOnUse" x1="174.3643" y1="78.4111" x2="198.2892" y2="78.4111" gradientTransform="matrix(1 0 0 -1 52.3398 94.373)">
						<stop  offset="0" style="stop-color:#525252"/>
						<stop  offset="0.2118" style="stop-color:#1D2625"/>
						<stop  offset="0.4784" style="stop-color:#414C61"/>
						<stop  offset="0.7137" style="stop-color:#242A36"/>
						<stop  offset="0.8" style="stop-color:#3B4758"/>
						<stop  offset="0.8863" style="stop-color:#15171E"/>
						<stop  offset="1" style="stop-color:#010101"/>
					</linearGradient>
					<path fill="url(#SVGID_62_)" d="M250.6,27.5c-7.6,1.5-15.5,1.5-23.8,0h-0.1v-2.4v-8.3l0.1-4.3v-0.9V3.3c0.1,0,0.2,0.1,0.4,0.1
						c0.5,0.1,1.5,0.3,3,0.4c2.4,0.2,5.3,0.3,8.6,0.3c3.4,0,6.2-0.1,8.6-0.3c1.7-0.1,2.8-0.3,3.3-0.4v8.3v0.9v14.7L250.6,27.5z"/>
					
						<linearGradient id="SVGID_63_" gradientUnits="userSpaceOnUse" x1="-30.5669" y1="-53.9355" x2="-6.200790e-002" y2="-53.9355" gradientTransform="matrix(0.8744 -0.4852 -0.4652 -0.8855 228.3705 -52.692)">
						<stop  offset="0" style="stop-color:#010101"/>
						<stop  offset="0.1294" style="stop-color:#2D3035"/>
						<stop  offset="0.2118" style="stop-color:#1D2625"/>
						<stop  offset="0.4784" style="stop-color:#414C61"/>
						<stop  offset="0.7137" style="stop-color:#242A36"/>
						<stop  offset="0.8" style="stop-color:#3B4758"/>
						<stop  offset="0.8863" style="stop-color:#15171E"/>
						<stop  offset="1" style="stop-color:#010101"/>
					</linearGradient>
					<path fill="url(#SVGID_63_)" d="M250.7,3.3c-0.5,0.1-1.6,0.3-3.3,0.4C245,3.9,242.2,4,238.8,4c-3.3,0-6.2-0.1-8.6-0.3
						c-1.5-0.1-2.5-0.2-3-0.4c-0.2,0-0.3-0.1-0.4-0.1C235.9,2.6,243.9,2.6,250.7,3.3L250.7,3.3z"/>
					
						<linearGradient id="SVGID_64_" gradientUnits="userSpaceOnUse" x1="174.3271" y1="62.811" x2="198.1279" y2="62.811" gradientTransform="matrix(1 0 0 -1 52.3398 94.373)">
						<stop  offset="0" style="stop-color:#010101"/>
						<stop  offset="0.1294" style="stop-color:#151718"/>
						<stop  offset="0.2118" style="stop-color:#0E1110"/>
						<stop  offset="0.4784" style="stop-color:#13171B"/>
						<stop  offset="0.7137" style="stop-color:#111316"/>
						<stop  offset="0.8" style="stop-color:#13171B"/>
						<stop  offset="0.8863" style="stop-color:#15171E"/>
						<stop  offset="1" style="stop-color:#010101"/>
					</linearGradient>
					<path fill="url(#SVGID_64_)" d="M226.8,27.5c8.3,1.5,16.2,1.5,23.8,0l-3.3,7.3c-5.8,1.1-11.6,1.1-17.4,0l-3.1-7.1V27.5z"/>
				</g>
			</g>
			<g>
				<path fill="#010101" fill-opacity="0.251" d="M250.7,11.6v0.8h-23.9v-0.8V3.3c0.1,0,0.2,0.1,0.4,0.1c0.5,0.1,1.5,0.3,3,0.4
					c2.4,0.2,5.3,0.3,8.6,0.3c3.4,0,6.2-0.1,8.6-0.3c1.7-0.1,2.8-0.3,3.3-0.4V11.6z"/>
			</g>
			<g>
				<g>
					<path fill="#FFFFFF" fill-opacity="0.251" d="M250.6,12v0.8h-0.1c-4.1,0.4-8.1,0.6-11.9,0.6c-1.8,0-3.6,0-5.3-0.1
						c-2.3-0.1-4.5-0.3-6.6-0.5v-0.7h0.1c2.1,0.2,4.3,0.4,6.5,0.5c1.7,0.1,3.5,0.1,5.3,0.1c3.8,0,7.8-0.2,11.9-0.6
						C250.5,12,250.6,12,250.6,12z"/>
					<path fill="#010101" fill-opacity="0.502" d="M226.7,12v-0.9h0.1c2.1,0.2,4.3,0.4,6.5,0.5c1.7,0.1,3.5,0.1,5.3,0.1
						c3.8,0,7.8-0.2,11.9-0.6h0.1V12h-0.1c-4.1,0.4-8.1,0.6-11.9,0.6c-1.8,0-3.6,0-5.3-0.1C231.1,12.4,228.9,12.2,226.7,12L226.7,12
						z"/>
				</g>
			</g>
		</g>
		<g>
			<g>
				<g>
					
						<radialGradient id="SVGID_65_" cx="124.5771" cy="-74.8765" r="3.4375" gradientTransform="matrix(1 0 0 -1 52.3398 94.373)" gradientUnits="userSpaceOnUse">
						<stop  offset="0" style="stop-color:#FFFFFF;stop-opacity:0.502"/>
						<stop  offset="1" style="stop-color:#FFFFFF;stop-opacity:0"/>
					</radialGradient>
					<path fill="url(#SVGID_65_)" d="M174.4,170.2c-0.7-0.7-1-1.5-1-2.5s0.3-1.7,1-2.4c0.7-0.7,1.5-1,2.4-1c0.9,0,1.8,0.3,2.4,1
						c0.7,0.6,1,1.4,1,2.4s-0.3,1.8-1,2.5s-1.5,1-2.4,1C175.9,171.2,175.1,170.8,174.4,170.2z"/>
				</g>
				<g>
					<path fill="#12151C" d="M175.5,166.2L175.5,166.2c-0.4,0.4-0.5,0.8-0.5,1.3v0.1c0,0.5,0.2,1,0.5,1.3c0.4,0.4,0.8,0.6,1.4,0.6
						c0.5,0,0.9-0.2,1.3-0.6c0.4-0.4,0.6-0.8,0.6-1.3v-0.1c0-0.5-0.2-0.9-0.6-1.3c-0.4-0.4-0.8-0.6-1.3-0.6
						C176.3,165.6,175.8,165.8,175.5,166.2z M173.8,167.5L173.8,167.5c0-0.9,0.3-1.6,0.9-2.1c0.6-0.6,1.3-0.9,2.1-0.9
						c0.8,0,1.5,0.3,2,0.9c0.6,0.5,0.9,1.2,0.9,2v0.1c0,0.8-0.3,1.5-0.9,2v0.1c-0.6,0.6-1.3,0.8-2,0.8c-0.8,0-1.5-0.3-2.1-0.9
						C174.1,169,173.8,168.3,173.8,167.5z"/>
				</g>
				<g>
					<polygon fill="#FFFFFF" points="176.4,167.2 176.4,166.3 177.3,166.3 177.3,167.2 178.1,167.2 178.1,168 177.3,168 
						177.3,168.6 176.4,168.6 176.4,168 175.6,168 175.6,167.2 					"/>
				</g>
				<g>
					
						<radialGradient id="SVGID_66_" cx="124.4272" cy="-73.0767" r="2.625" gradientTransform="matrix(1 0 0 -1 52.3398 94.373)" gradientUnits="userSpaceOnUse">
						<stop  offset="0" style="stop-color:#010101;stop-opacity:0.1216"/>
						<stop  offset="0.698" style="stop-color:#010101;stop-opacity:0.6314"/>
						<stop  offset="0.9098" style="stop-color:#010101;stop-opacity:0.7333"/>
						<stop  offset="1" style="stop-color:#010101"/>
					</radialGradient>
					<path fill="url(#SVGID_66_)" d="M174.9,167.5c0-0.5,0.2-0.9,0.5-1.3l0,0c0.4-0.4,0.8-0.6,1.4-0.6c0.5,0,0.9,0.2,1.3,0.6
						c0.4,0.4,0.6,0.8,0.6,1.3v0.1c0,0.5-0.2,0.9-0.6,1.3c-0.4,0.4-0.8,0.6-1.3,0.6s-1-0.2-1.4-0.6
						C175.1,168.5,174.9,168.1,174.9,167.5L174.9,167.5z"/>
				</g>
			</g>
		</g>
		<g>
			<g>
				<g>
					
						<radialGradient id="SVGID_67_" cx="82.377" cy="-84.9263" r="3.4375" gradientTransform="matrix(1 0 0 -1 52.3398 94.373)" gradientUnits="userSpaceOnUse">
						<stop  offset="0" style="stop-color:#FFFFFF;stop-opacity:0.502"/>
						<stop  offset="1" style="stop-color:#FFFFFF;stop-opacity:0"/>
					</radialGradient>
					<path fill="url(#SVGID_67_)" d="M132.2,175.3c0.7-0.7,1.5-1,2.4-1s1.7,0.3,2.4,1c0.7,0.7,1,1.5,1,2.4c0,0.9-0.3,1.7-1,2.4
						c-0.7,0.7-1.5,1-2.4,1s-1.7-0.3-2.4-1c-0.7-0.7-1-1.5-1-2.4C131.2,176.8,131.5,176,132.2,175.3z"/>
				</g>
				<g>
					<path fill="#12151C" d="M132.5,175.5c0.6-0.6,1.3-0.9,2.1-0.9c0.8,0,1.5,0.3,2.1,0.9s0.8,1.3,0.8,2l0,0c0,0.8-0.3,1.5-0.8,2
						v0.1c-0.6,0.6-1.3,0.8-2.1,0.8c-0.8,0-1.5-0.3-2.1-0.9c-0.6-0.6-0.9-1.3-0.9-2l0,0C131.6,176.7,131.9,176,132.5,175.5z
						 M134.6,175.7c-0.5,0-1,0.2-1.4,0.5c-0.3,0.4-0.5,0.8-0.5,1.3l0,0c0,0.5,0.2,1,0.5,1.4c0.4,0.4,0.8,0.5,1.4,0.5s1-0.2,1.4-0.5
						c0.4-0.4,0.5-0.9,0.5-1.4l0,0c0-0.5-0.2-0.9-0.5-1.3C135.5,175.8,135.1,175.7,134.6,175.7z"/>
				</g>
				<g>
					<polygon fill="#FFFFFF" points="134.3,178.7 133.6,178.2 134,177.7 133.3,177.2 133.8,176.5 134.5,177 134.9,176.3 
						135.7,176.8 135.2,177.5 135.8,178 135.3,178.5 134.7,178.2 					"/>
				</g>
				<g>
					
						<radialGradient id="SVGID_68_" cx="82.1772" cy="-83.1265" r="2.625" gradientTransform="matrix(1 0 0 -1 52.3398 94.373)" gradientUnits="userSpaceOnUse">
						<stop  offset="0" style="stop-color:#010101;stop-opacity:0.1216"/>
						<stop  offset="0.698" style="stop-color:#010101;stop-opacity:0.6314"/>
						<stop  offset="0.9098" style="stop-color:#010101;stop-opacity:0.7333"/>
						<stop  offset="1" style="stop-color:#010101"/>
					</radialGradient>
					<path fill="url(#SVGID_68_)" d="M134.6,175.7c0.5,0,1,0.2,1.4,0.5c0.4,0.4,0.5,0.8,0.5,1.3l0,0c0,0.5-0.2,1-0.5,1.4
						c-0.4,0.4-0.8,0.5-1.4,0.5s-1-0.2-1.4-0.5c-0.3-0.4-0.5-0.8-0.5-1.4l0,0c0-0.5,0.2-0.9,0.5-1.3
						C133.6,175.8,134.1,175.7,134.6,175.7z"/>
				</g>
			</g>
		</g>
		<g>
			<g>
				<g>
					
						<radialGradient id="SVGID_69_" cx="167.377" cy="-84.9263" r="3.4375" gradientTransform="matrix(1 0 0 -1 52.3398 94.373)" gradientUnits="userSpaceOnUse">
						<stop  offset="0" style="stop-color:#FFFFFF;stop-opacity:0.502"/>
						<stop  offset="1" style="stop-color:#FFFFFF;stop-opacity:0"/>
					</radialGradient>
					<path fill="url(#SVGID_69_)" d="M222.1,180.2c-0.7,0.7-1.5,1-2.5,1c-0.9,0-1.7-0.3-2.4-1s-1-1.5-1-2.4c0-0.9,0.3-1.7,1-2.4
						c0.7-0.7,1.5-1,2.4-1c0.9,0,1.8,0.3,2.5,1c0.7,0.7,1,1.5,1,2.4C223.1,178.7,222.7,179.5,222.1,180.2z"/>
				</g>
				<g>
					<path fill="#12151C" d="M221.5,177.5L221.5,177.5c0-0.5-0.2-1-0.6-1.3c-0.4-0.4-0.8-0.5-1.3-0.5s-1,0.2-1.4,0.5
						c-0.4,0.4-0.5,0.8-0.5,1.3l0,0c0,0.5,0.2,1,0.5,1.4c0.4,0.4,0.8,0.5,1.4,0.5c0.5,0,0.9-0.2,1.3-0.5
						C221.3,178.5,221.5,178,221.5,177.5z M222.6,177.5L222.6,177.5c0,0.8-0.3,1.5-0.9,2.1v0.1c-0.6,0.6-1.3,0.8-2.1,0.8
						c-0.8,0-1.5-0.3-2.1-0.9c-0.6-0.6-0.9-1.3-0.9-2l0,0c0-0.8,0.3-1.5,0.9-2c0.6-0.6,1.3-0.9,2.1-0.9c0.8,0,1.5,0.3,2.1,0.9
						C222.2,176,222.6,176.7,222.6,177.5z"/>
				</g>
				<g>
					<polygon fill="#FFFFFF" points="220,177.3 220.7,177.7 220.3,178.4 219.6,178.1 219.3,178.8 218.6,178.5 219,177.8 
						218.3,177.5 218.7,176.7 219.3,177 219.7,176.2 220.3,176.5 					"/>
				</g>
				<g>
					
						<radialGradient id="SVGID_70_" cx="167.2266" cy="-83.1265" r="2.6254" gradientTransform="matrix(1 0 0 -1 52.3398 94.373)" gradientUnits="userSpaceOnUse">
						<stop  offset="0" style="stop-color:#010101;stop-opacity:0.1216"/>
						<stop  offset="0.698" style="stop-color:#010101;stop-opacity:0.6314"/>
						<stop  offset="0.9098" style="stop-color:#010101;stop-opacity:0.7333"/>
						<stop  offset="1" style="stop-color:#010101"/>
					</radialGradient>
					<path fill="url(#SVGID_70_)" d="M221.5,177.5c0,0.5-0.2,1-0.6,1.4c-0.4,0.4-0.8,0.5-1.3,0.5s-1-0.2-1.4-0.5
						c-0.4-0.4-0.5-0.8-0.5-1.4l0,0c0-0.5,0.2-0.9,0.5-1.3c0.4-0.4,0.8-0.5,1.4-0.5c0.5,0,0.9,0.2,1.3,0.5
						C221.3,176.6,221.5,177,221.5,177.5L221.5,177.5z"/>
				</g>
			</g>
		</g>
		<g>
			<g>
				<g>
					
						<radialGradient id="SVGID_71_" cx="72.627" cy="-72.8267" r="1.25" gradientTransform="matrix(1 0 0 -1 52.3398 94.373)" gradientUnits="userSpaceOnUse">
						<stop  offset="0" style="stop-color:#FFFFFF;stop-opacity:0.502"/>
						<stop  offset="1" style="stop-color:#FFFFFF;stop-opacity:0"/>
					</radialGradient>
					<path fill="url(#SVGID_71_)" d="M125.8,165.8c0.3,0.3,0.4,0.6,0.4,0.9s-0.1,0.6-0.4,0.9c-0.3,0.2-0.6,0.4-0.9,0.4
						c-0.3,0-0.6-0.1-0.9-0.4c-0.2-0.3-0.3-0.6-0.3-0.9s0.1-0.6,0.3-0.9c0.3-0.2,0.6-0.3,0.9-0.3
						C125.2,165.5,125.6,165.5,125.8,165.8z"/>
				</g>
				<g>
					<path fill="#12151C" d="M123.9,166.5c0-0.3,0.1-0.5,0.3-0.8c0.2-0.2,0.5-0.3,0.8-0.3c0.3,0,0.5,0.1,0.8,0.3
						c0.2,0.2,0.3,0.5,0.3,0.8l0,0c0,0.3-0.1,0.5-0.3,0.7l0,0c-0.2,0.2-0.5,0.4-0.8,0.4c-0.3,0-0.6-0.1-0.8-0.4
						C124,167.1,123.9,166.9,123.9,166.5L123.9,166.5z M124.2,166.5L124.2,166.5c0,0.3,0.1,0.4,0.2,0.5c0.1,0.2,0.3,0.3,0.5,0.3
						c0.2,0,0.3-0.1,0.5-0.3c0.1-0.1,0.2-0.3,0.2-0.5l0,0c0-0.2-0.1-0.3-0.2-0.5c-0.2-0.1-0.3-0.2-0.5-0.2c-0.2,0-0.3,0.1-0.5,0.2
						C124.3,166.2,124.2,166.4,124.2,166.5z"/>
				</g>
				<g>
					<polygon fill="#FFFFFF" points="124.7,166.2 124.9,166.4 125.1,166.2 125.3,166.3 125.2,166.5 125.4,166.8 125.2,167 
						125,166.8 124.8,167 124.6,166.8 124.7,166.6 124.5,166.5 					"/>
				</g>
				<g>
					
						<radialGradient id="SVGID_72_" cx="72.5771" cy="-72.1763" r="0.95" gradientTransform="matrix(1 0 0 -1 52.3398 94.373)" gradientUnits="userSpaceOnUse">
						<stop  offset="0" style="stop-color:#010101;stop-opacity:0.1216"/>
						<stop  offset="0.698" style="stop-color:#010101;stop-opacity:0.6314"/>
						<stop  offset="0.9098" style="stop-color:#010101;stop-opacity:0.7333"/>
						<stop  offset="1" style="stop-color:#010101"/>
					</radialGradient>
					<path fill="url(#SVGID_72_)" d="M124.2,166.5c0-0.2,0.1-0.3,0.2-0.5c0.2-0.1,0.3-0.2,0.5-0.2c0.2,0,0.3,0.1,0.5,0.2
						c0.1,0.1,0.2,0.3,0.2,0.5l0,0c0,0.2-0.1,0.3-0.2,0.5c-0.2,0.2-0.3,0.3-0.5,0.3c-0.2,0-0.4-0.1-0.5-0.3
						C124.3,167,124.2,166.8,124.2,166.5L124.2,166.5z"/>
				</g>
			</g>
		</g>
	</g>
</g>
</svg>
