<?xml version="1.0" encoding="utf-8"?>
<!-- Generator: Adobe Illustrator 16.0.0, SVG Export Plug-In . SVG Version: 6.00 Build 0)  -->
<!DOCTYPE svg PUBLIC "-//W3C//DTD SVG 1.1//EN" "http://www.w3.org/Graphics/SVG/1.1/DTD/svg11.dtd">
<svg version="1.1" id="Layer_1" xmlns="http://www.w3.org/2000/svg" xmlns:xlink="http://www.w3.org/1999/xlink" x="0px" y="0px"
	 width="222px" height="131px" viewBox="0 0 222 131" enable-background="new 0 0 222 131" xml:space="preserve">
<symbol  id="glow" viewBox="-4.1 -22.6 8.2 45.2">
	<g id="Layer_3_2_">
		
			<radialGradient id="SVGID_1_" cx="-909.9512" cy="-57468.5508" r="23.6644" gradientTransform="matrix(-1.584587e-002 -0.9999 0.2409 3.169174e-003 13830.4561 -728.4321)" gradientUnits="userSpaceOnUse">
			<stop  offset="0" style="stop-color:#FFFFFF;stop-opacity:0.6902"/>
			<stop  offset="0.1725" style="stop-color:#FFFFFF;stop-opacity:0.2118"/>
			<stop  offset="0.3529" style="stop-color:#FFFFFF;stop-opacity:7.058824e-002"/>
			<stop  offset="0.8" style="stop-color:#FFFFFF;stop-opacity:0"/>
			<stop  offset="1" style="stop-color:#FAFAFA;stop-opacity:0"/>
		</radialGradient>
		<path fill="url(#SVGID_1_)" d="M3.2,15.5C3.9,11.3,4.2,6,4-0.4c0-6-0.5-11.3-1.4-15.9c-0.9-4.1-1.9-6.2-3-6.3
			c-1.1,0-2,2.1-2.6,6.5c-0.8,4.3-1.2,9.6-1.1,15.6C-4,5.9-3.5,11.3-2.5,15.7c0.8,4.6,1.8,6.9,2.9,6.9C1.5,22.7,2.4,20.3,3.2,15.5z"
			/>
	</g>
</symbol>
<g>
	<g>
		
			<linearGradient id="SVGID_2_" gradientUnits="userSpaceOnUse" x1="30.4678" y1="-136.1982" x2="30.2941" y2="-109.7722" gradientTransform="matrix(1 0 0 -1 52.3398 -2.2939)">
			<stop  offset="0" style="stop-color:#1C232D;stop-opacity:0"/>
			<stop  offset="1" style="stop-color:#1C232D"/>
		</linearGradient>
		<polygon fill="url(#SVGID_2_)" points="137,122.2 137,128.1 28.5,128.1 28.5,122.2 28.5,122.2 		"/>
	</g>
	<g>
		
			<linearGradient id="SVGID_3_" gradientUnits="userSpaceOnUse" x1="-26.7822" y1="-128.9346" x2="-15.9904" y2="-116.2559" gradientTransform="matrix(1 0 0 -1 52.3398 -2.2939)">
			<stop  offset="0" style="stop-color:#1C232D;stop-opacity:0"/>
			<stop  offset="1" style="stop-color:#1C232D"/>
		</linearGradient>
		<polygon fill="url(#SVGID_3_)" points="28.5,129.6 26.4,126.9 26.4,119.3 28.5,122.2 		"/>
	</g>
	<g>
		
			<linearGradient id="SVGID_4_" gradientUnits="userSpaceOnUse" x1="-795.3696" y1="-136.8408" x2="-765.8235" y2="-136.8408" gradientTransform="matrix(0.9984 -5.584492e-002 -1.6632 -0.9085 691.1925 -50.3608)">
			<stop  offset="0" style="stop-color:#010101"/>
			<stop  offset="1" style="stop-color:#010101;stop-opacity:0"/>
		</linearGradient>
		<path fill="url(#SVGID_4_)" d="M155,117.5c2.1,0,3.8,0.2,5.1,0.5l12,3.7c0.2,0.3-0.6,0.5-2.3,0.5H40.2h-9.7c-0.5,0-1,0-1.5,0
			l-3.2-4.2c-0.2-0.3,0.6-0.5,2.3-0.5H36H155z"/>
	</g>
	<g>
		<g>
			<path fill="#3B3A40" d="M137.1,85.4H30.2h-0.7c-0.7,0-1.2-0.2-1.5-0.7l-1.5-2.5h104.1L137.1,85.4z"/>
			
				<linearGradient id="SVGID_5_" gradientUnits="userSpaceOnUse" x1="-24.9253" y1="-106.939" x2="38.6999" y2="-105.4914" gradientTransform="matrix(1 0 0 -1 52.3398 -2.2939)">
				<stop  offset="0" style="stop-color:#3A3F41"/>
				<stop  offset="0.3216" style="stop-color:#28292C"/>
				<stop  offset="1" style="stop-color:#0B0B0B"/>
			</linearGradient>
			<polygon fill="url(#SVGID_5_)" points="30.2,121.4 30.2,111.4 30.2,90 30.2,85.4 137.1,85.4 137.1,121.4 			"/>
			
				<linearGradient id="SVGID_6_" gradientUnits="userSpaceOnUse" x1="-24.3525" y1="-89.6104" x2="-22.3275" y2="-89.6104" gradientTransform="matrix(1 0 0 -1 52.3398 -2.2939)">
				<stop  offset="0" style="stop-color:#725D4D"/>
				<stop  offset="0.2353" style="stop-color:#040404"/>
				<stop  offset="0.4471" style="stop-color:#707778"/>
				<stop  offset="1" style="stop-color:#363B3D"/>
			</linearGradient>
			<path fill="url(#SVGID_6_)" d="M30.2,85.4V90H28v-5.3l0,0c0.3,0.5,0.8,0.7,1.5,0.7H30.2z"/>
			
				<linearGradient id="SVGID_7_" gradientUnits="userSpaceOnUse" x1="-25.9775" y1="-88.3604" x2="-24.5026" y2="-88.3604" gradientTransform="matrix(1 0 0 -1 52.3398 -2.2939)">
				<stop  offset="0" style="stop-color:#4C3E35"/>
				<stop  offset="1" style="stop-color:#725D4D"/>
			</linearGradient>
			<polygon fill="url(#SVGID_7_)" points="28,90 26.5,90 26.5,82.2 28,84.7 28,84.7 			"/>
			
				<linearGradient id="SVGID_8_" gradientUnits="userSpaceOnUse" x1="-24.3525" y1="-102.96" x2="-22.3275" y2="-102.96" gradientTransform="matrix(1 0 0 -1 52.3398 -2.2939)">
				<stop  offset="0" style="stop-color:#725D4D"/>
				<stop  offset="0.2353" style="stop-color:#040404"/>
				<stop  offset="0.4471" style="stop-color:#707778"/>
				<stop  offset="1" style="stop-color:#363B3D"/>
			</linearGradient>
			<path fill="url(#SVGID_8_)" d="M30.2,90v21.4H28c0-0.7,0-1.3,0-2v-0.1V90H30.2L30.2,90z"/>
			
				<linearGradient id="SVGID_9_" gradientUnits="userSpaceOnUse" x1="-25.9775" y1="-102.96" x2="-24.5026" y2="-102.96" gradientTransform="matrix(1 0 0 -1 52.3398 -2.2939)">
				<stop  offset="0" style="stop-color:#4C3E35"/>
				<stop  offset="1" style="stop-color:#725D4D"/>
			</linearGradient>
			<path fill="url(#SVGID_9_)" d="M28,90v19.3v0.1c0,0.6,0,1.3,0,2h-1.5V90H28L28,90z"/>
			
				<linearGradient id="SVGID_10_" gradientUnits="userSpaceOnUse" x1="-25.9775" y1="-118.4102" x2="-24.5026" y2="-118.4102" gradientTransform="matrix(1 0 0 -1 52.3398 -2.2939)">
				<stop  offset="0" style="stop-color:#4C3E35"/>
				<stop  offset="1" style="stop-color:#725D4D"/>
			</linearGradient>
			<polygon fill="url(#SVGID_10_)" points="26.5,111.4 28,111.4 28,120.9 26.5,118.5 			"/>
			
				<linearGradient id="SVGID_11_" gradientUnits="userSpaceOnUse" x1="-24.3525" y1="-118.6602" x2="-22.3275" y2="-118.6602" gradientTransform="matrix(1 0 0 -1 52.3398 -2.2939)">
				<stop  offset="0" style="stop-color:#725D4D"/>
				<stop  offset="0.2353" style="stop-color:#040404"/>
				<stop  offset="0.4471" style="stop-color:#707778"/>
				<stop  offset="1" style="stop-color:#363B3D"/>
			</linearGradient>
			<polygon fill="url(#SVGID_11_)" points="30.2,111.4 30.2,121.4 28.3,121.4 28,120.9 28,111.4 			"/>
		</g>
	</g>
	<g>
		
			<radialGradient id="SVGID_12_" cx="30.71" cy="-118.2349" r="53.1753" gradientTransform="matrix(1 0 0 -4.1658 52.3398 -406.7793)" gradientUnits="userSpaceOnUse">
			<stop  offset="0" style="stop-color:#A3A3A2;stop-opacity:0.7333"/>
			<stop  offset="1" style="stop-color:#DFDFDE;stop-opacity:0"/>
			<stop  offset="1" style="stop-color:#010101;stop-opacity:0"/>
		</radialGradient>
		<path fill="url(#SVGID_12_)" d="M136.3,85.6c0,0.1,0,0.1,0,0.2s0,0.1,0,0.2l0,0H29.8l0,0c0-0.1,0-0.1,0-0.2s0-0.1,0-0.2v-0.1
			L136.3,85.6C136.2,85.5,136.3,85.6,136.3,85.6z"/>
	</g>
	<g>
		<polygon fill="#010101" points="132.8,83.5 135.1,85.5 28.3,85.5 27,83.7 27.5,83.7 		"/>
	</g>
	<g>
		<g>
			<path fill="#010101" d="M148.5,36.4c0.1-0.4,0.4-0.8,0.8-1c0.4-0.2,0.8-0.3,1.3-0.2c4.3,1.1,8.9,1.3,13.9,0.4c0.1,0,0.2,0,0.3,0
				c10.9-0.6,19.2,10.6,24.8,33.7c2.6,8.1,4.9,12.8,6.9,14c2.2,1.1,5.8,1.5,10.8,1.4c6.3-0.2,10.2,1.5,11.7,5.2
				c1.6,3.3,1.7,7.2,0.3,11.6c-1.3,4.3-3.8,8.1-7.5,11.4c-0.4,0.3-0.8,0.5-1.3,0.5s-0.9-0.2-1.2-0.6s-0.4-0.8-0.4-1.3
				s0.2-0.9,0.5-1.2c3.2-2.9,5.4-6.1,6.5-9.8c1.1-3.5,1-6.6-0.2-9.3c-1.2-2.3-4.1-3.3-8.5-3.1c-5.8,0.2-9.9-0.4-12.4-1.8
				c-2.7-1.2-5.6-6.5-8.7-16v-0.1C181,49.4,173.9,39,164.8,39c-5.4,0.9-10.5,0.7-15.3-0.5c-0.4-0.1-0.8-0.4-1-0.8
				C148.4,37.3,148.4,36.9,148.5,36.4z"/>
		</g>
		<g>
			<g>
				
					<radialGradient id="SVGID_13_" cx="117.6104" cy="5.7012" r="15.6625" gradientTransform="matrix(1 0 0 -0.4501 52.3398 43.0729)" gradientUnits="userSpaceOnUse">
					<stop  offset="0" style="stop-color:#FFFFFF"/>
					<stop  offset="1" style="stop-color:#FFFFFF;stop-opacity:0"/>
				</radialGradient>
				<path fill="url(#SVGID_13_)" d="M149.8,36.7c0-0.1,0.1-0.1,0.2-0.2c0.1,0,0.2,0,0.3,0c4.5,1.2,9.3,1.3,14.5,0.4l0,0
					c6.7-0.2,12.3,4.4,17,13.8c0,0.1,0,0.2,0,0.3c0,0.1-0.1,0.2-0.1,0.2c-0.1,0.1-0.2,0.1-0.3,0c-0.1,0-0.1-0.1-0.2-0.2
					c-4.5-9.1-9.9-13.6-16.3-13.5c-5.3,0.9-10.2,0.8-14.8-0.5c-0.1,0-0.1-0.1-0.2-0.2C149.8,37,149.8,36.9,149.8,36.7z"/>
			</g>
		</g>
	</g>
	<g>
		<g>
			
				<linearGradient id="SVGID_14_" gradientUnits="userSpaceOnUse" x1="97.7065" y1="-35.6079" x2="96.8249" y2="-47.4858" gradientTransform="matrix(1 0 0 -1 52.3398 -2.2939)">
				<stop  offset="0" style="stop-color:#302F2F"/>
				<stop  offset="0.1098" style="stop-color:#181615"/>
				<stop  offset="0.3216" style="stop-color:#181615"/>
			</linearGradient>
			<path fill="url(#SVGID_14_)" d="M149,32.9l1.9,0.1l0,0v0.2l0,0c0,0.1,0,0.2,0,0.3l0.1,1.3h1l0.1-1.6l0,0l2.2,0.2l0.1,0.1v0.1l0,0
				c0,0.1,0,0.2,0,0.3l0.1,1.2h1v-1.5l0,0h0.2l1.9,0.2v0.5v2.6l-15.3-1.1v-3.4l2.2,0.2l0,0c0,0,0,0.1,0,0.2l0,0c0,0.1,0,0.2,0,0.3
				l0.1,1.5h1l0,0l0.1-1.9l2,0.2V33v0.1l0,0c0,0.1,0,0.2,0,0.3l0.1,1.4h1l0,0L149,32.9z M148.8,33.3L148.8,33.3v1.2h-0.7v-1.2H148.8
				z M151.9,33.6L151.9,33.6v0.9h-0.7l-0.1-1L151.9,33.6z M155.3,34.2v0.5h-0.6v-0.9l0.7,0.1v0.3H155.3z M144.8,33l0.8,0.1l0,0
				l-0.1,1.2h-0.7V33z"/>
			<path fill="#010101" d="M147.8,33.2h0.2v1.2h0.7l0,0l0.2,0.2l0,0h-1L147.8,33.2z M152.1,34.7h-1l-0.1-1.3h0.1l0.1,1h0.7
				L152.1,34.7z M155.3,34.7l0.2,0.3h-1l-0.1-1.2h0.3v0.9H155.3L155.3,34.7z M155.5,40.7l-0.2,0.2h-0.6v0.9h-0.3l0.1-1.1H155.5z
				 M151,42.2l0.1-1.3h1l-0.2,0.2l0,0h-0.7L151,42.2L151,42.2z M148,42.4h-0.2l0.1-1.4h1l-0.2,0.2l0,0H148V42.4z M145.7,41.2
				l-0.2,0.2h-0.7v1.3h-0.2l0.1-1.5H145.7L145.7,41.2z M144.5,33h0.2v1.3h0.7l0.2,0.2l0,0h-1L144.5,33z"/>
			<path fill="#989494" d="M152.2,33.2l-0.1,1.6l-0.2-0.3v-0.9l0,0v-0.5L152.2,33.2z M155.6,33.5V35l-0.2-0.3v-0.5l0.1-0.3
				L155.6,33.5L155.6,33.5L155.6,33.5z M145.8,32.5l-0.1,1.9l-0.2-0.2l0.1-1.2l0,0v-0.5H145.8z M148.8,33.3v-0.5l0.3,0.1v1.8
				l-0.2-0.2l0,0v-1.2H148.8z"/>
			<path fill="#39332F" d="M155.5,40.7v1h-0.3v-0.8L155.5,40.7z M152.1,40.9l0.1,1.1H152v-0.9l0,0L152.1,40.9z M148.8,42.3v-1.1l0,0
				L149,41v1.3H148.8z M145.8,42.5h-0.2l-0.1-1.2l0.2-0.2L145.8,42.5z"/>
			
				<linearGradient id="SVGID_15_" gradientUnits="userSpaceOnUse" x1="97.7407" y1="-42.2168" x2="97.8618" y2="-44.892" gradientTransform="matrix(1 0 0 -1 52.3398 -2.2939)">
				<stop  offset="0.4275" style="stop-color:#181615"/>
				<stop  offset="0.6941" style="stop-color:#010101"/>
				<stop  offset="1" style="stop-color:#010101"/>
			</linearGradient>
			<path fill="url(#SVGID_15_)" d="M145.6,42.5l-0.8,0.1v-1.3h0.7L145.6,42.5z M145.8,42.5v-1.3l0,0h-1l-0.1,1.5c0,0.1,0,0.1,0,0.3
				l0,0l-2.2,0.2v-1.1v-1.6l15.3-0.7v1.9V42l-2.1,0.2v-0.3v-1h-1l-0.1,1.1v0.3l-2.3,0.2v-0.3l-0.1-1.1h-1l-0.1,1.3v0.3l-1.9,0.2
				v-0.4v-1.3h-1l-0.1,1.4v0.3l-2,0.2L145.8,42.5z M148.8,41.2v1.1l-0.8,0.1v-1.2H148.8z M154.7,41.9V41h0.6v0.8L154.7,41.9z
				 M151.1,42.1l0.1-1h0.7V42L151.1,42.1z"/>
			<polygon fill="#4F4C4C" points="155.4,33.9 155.3,34.2 155.3,33.9 			"/>
			<polygon fill="#181615" points="157.7,39.7 142.3,40.4 142.3,35.7 157.7,36.7 157.7,37.9 			"/>
			
				<linearGradient id="SVGID_16_" gradientUnits="userSpaceOnUse" x1="83.6909" y1="-31.6353" x2="83.7151" y2="-34.2852" gradientTransform="matrix(1 0 0 -1 52.3398 -2.2939)">
				<stop  offset="0" style="stop-color:#070404"/>
				<stop  offset="1" style="stop-color:#191817"/>
			</linearGradient>
			<path fill="url(#SVGID_16_)" d="M141.2,32.2l-4.4,0.1l-7,0.2v-3.2h10.9c0.9,0.1,1.5,0.5,1.6,1.2v1.7H141.2L141.2,32.2z"/>
			
				<linearGradient id="SVGID_17_" gradientUnits="userSpaceOnUse" x1="75.7808" y1="-39.0269" x2="90.5802" y2="-39.3495" gradientTransform="matrix(1 0 0 -1 52.3398 -2.2939)">
				<stop  offset="0" style="stop-color:#222222"/>
				<stop  offset="1" style="stop-color:#141313"/>
			</linearGradient>
			<path fill="url(#SVGID_17_)" d="M141,42l-11.2-0.4v-9.2l7-0.2l4.4-0.1c-0.3,1.9-0.5,3.8-0.5,5.8C140.7,39.3,140.8,40.7,141,42z"
				/>
			<path fill="#191816" d="M142.3,35.7v4.8v1.6H141c-0.2-1.4-0.3-2.8-0.3-4.1c0-1.9,0.2-3.8,0.5-5.8h1.1v0.1V35.7z"/>
			
				<linearGradient id="SVGID_18_" gradientUnits="userSpaceOnUse" x1="83.71" y1="-46.4238" x2="83.71" y2="-44.7988" gradientTransform="matrix(1 0 0 -1 52.3398 -2.2939)">
				<stop  offset="0" style="stop-color:#070404"/>
				<stop  offset="1" style="stop-color:#191817"/>
			</linearGradient>
			<path fill="url(#SVGID_18_)" d="M129.8,41.7l11.2,0.4h1.3v1.1c-0.2,0.9-0.7,1.3-1.6,1.4h-10.9V41.7z"/>
		</g>
	</g>
	<g>
		<path fill="#010101" d="M134.2,32.3L134.2,32.3C134.3,32.3,134.3,32.3,134.2,32.3l0.1,0.1v9.3h-0.1l0,0v-9.3V32.3z M135.8,32.4
			h0.1v9.3h-0.1l0,0V32.4L135.8,32.4z M137.7,32.3v0.1v9.2l0,0c0,0,0,0-0.1,0l0,0l0,0v-9.2v-0.1H137.7z M140.9,32.4v-0.1h0.1
			L140.9,32.4l0.1,9.2l0,0l0,0l0,0l0,0L140.9,32.4L140.9,32.4z M139.2,32.4L139.2,32.4L139.2,32.4l0.1,9.3l0,0l0,0l0,0l0,0
			L139.2,32.4L139.2,32.4z M130.7,32.4v-0.1h0.1L130.7,32.4l0.1,9.2l0,0l0,0l0,0L130.7,32.4L130.7,32.4z M132.5,32.4L132.5,32.4
			l0.1,9.3l0,0l0,0l0,0L132.5,32.4L132.5,32.4z"/>
	</g>
	<g>
		
			<linearGradient id="SVGID_19_" gradientUnits="userSpaceOnUse" x1="-612.8979" y1="790.4893" x2="-587.1611" y2="790.4893" gradientTransform="matrix(-0.9986 -5.342554e-002 -0.132 0.9944 -358.6056 -781.1493)">
			<stop  offset="0" style="stop-color:#3A3635"/>
			<stop  offset="1" style="stop-color:#222222"/>
		</linearGradient>
		<path fill="url(#SVGID_19_)" d="M134.6,32.3v0.1v9.3l0,0h-0.1v-9.3L134.6,32.3C134.5,32.3,134.5,32.3,134.6,32.3L134.6,32.3z
			 M136.1,32.4h0.1l0,0v9.3l0,0h-0.1V32.4z M137.8,32.3L137.8,32.3c0.1,0,0.1,0,0.2,0v0.1v9.3h-0.1h-0.1v-9.3V32.3z M141.2,32.4
			v-0.1h0.1l0.1,0.1v9.2c0,0,0,0-0.1,0l0,0l0,0l0,0L141.2,32.4L141.2,32.4z M139.5,32.4L139.5,32.4l0.1,9.3h-0.1l0,0V32.4
			L139.5,32.4z M132.7,32.4L132.7,32.4L132.7,32.4h0.2v9.3c0,0,0,0-0.1,0l0,0l0,0l0,0L132.7,32.4L132.7,32.4z M131,32.4v-0.1h0.1
			h0.1v0.1v9.3h-0.1H131V32.4z"/>
	</g>
	<g>
		<g>
			<polygon fill="#151213" points="132.9,3.5 29.2,3.5 26.4,1.8 129.9,1.8 133,3.5 			"/>
			
				<linearGradient id="SVGID_20_" gradientUnits="userSpaceOnUse" x1="-95.2651" y1="20.4199" x2="68.6826" y2="-67.9599" gradientTransform="matrix(1 0 0 -1 52.3398 -2.2939)">
				<stop  offset="0" style="stop-color:#AEB5B8"/>
				<stop  offset="1" style="stop-color:#010101"/>
			</linearGradient>
			<polygon fill="url(#SVGID_20_)" points="29.2,78.9 29.2,34.5 29.2,3.5 132.9,3.5 132.9,84.8 29.2,84.8 			"/>
			
				<linearGradient id="SVGID_21_" gradientUnits="userSpaceOnUse" x1="-24.2935" y1="-6.3091" x2="-25.5703" y2="-67.2095" gradientTransform="matrix(1 0 0 -1 52.3398 -2.2939)">
				<stop  offset="0" style="stop-color:#BAA497"/>
				<stop  offset="0.5529" style="stop-color:#0E0C0C"/>
				<stop  offset="0.8627" style="stop-color:#2E2727"/>
				<stop  offset="1" style="stop-color:#010101"/>
			</linearGradient>
			<polygon fill="url(#SVGID_21_)" points="29.2,3.5 29.2,34.5 26.3,34.5 26.3,1.8 26.4,1.8 			"/>
			
				<linearGradient id="SVGID_22_" gradientUnits="userSpaceOnUse" x1="-611.4634" y1="591.21" x2="692.7874" y2="591.21" gradientTransform="matrix(-1.054245e-003 1 0.9995 0.4772 -563.0441 -339.0304)">
				<stop  offset="0" style="stop-color:#BAA497"/>
				<stop  offset="0.5529" style="stop-color:#0E0C0C"/>
				<stop  offset="0.8627" style="stop-color:#2E2727"/>
				<stop  offset="1" style="stop-color:#010101"/>
			</linearGradient>
			<polygon fill="url(#SVGID_22_)" points="29.2,34.5 29.2,78.9 26.3,78.9 26.3,36.9 26.3,34.5 			"/>
			
				<linearGradient id="SVGID_23_" gradientUnits="userSpaceOnUse" x1="-23.7964" y1="-46.2632" x2="-25.0735" y2="-107.1755" gradientTransform="matrix(1 0 0 -1 52.3398 -2.2939)">
				<stop  offset="0" style="stop-color:#BAA497"/>
				<stop  offset="0.5529" style="stop-color:#0E0C0C"/>
				<stop  offset="0.8627" style="stop-color:#2E2727"/>
				<stop  offset="1" style="stop-color:#010101"/>
			</linearGradient>
			<polygon fill="url(#SVGID_23_)" points="26.3,78.9 29.2,78.9 29.2,84.8 26.3,81.4 			"/>
		</g>
	</g>
	<g>
		<g>
			<g>
				
					<linearGradient id="SVGID_24_" gradientUnits="userSpaceOnUse" x1="-48.4399" y1="-1.0854" x2="-48.4399" y2="-46.1347" gradientTransform="matrix(1 0 0 -1 52.3398 -2.2939)">
					<stop  offset="0" style="stop-color:#575B5D"/>
					<stop  offset="1" style="stop-color:#010101"/>
				</linearGradient>
				<path fill="url(#SVGID_24_)" d="M3.9,39.9H3.8c-0.2-0.2-0.4-1.8-0.5-4.6C3.1,32.2,3,28.5,3,24.2c0-4.4,0.1-8.1,0.3-11.2
					c0.2-3.1,0.4-4.6,0.6-4.6c0.2,0,0.4,1.5,0.6,4.6c0.2,3.1,0.3,6.8,0.3,11.2c0,4.3-0.1,8-0.3,11.1C4.3,38.1,4.1,39.6,3.9,39.9z"/>
				
					<linearGradient id="SVGID_25_" gradientUnits="userSpaceOnUse" x1="-36.3154" y1="-10.9614" x2="-36.4116" y2="-41.7609" gradientTransform="matrix(1 0 0 -1 52.3398 -2.2939)">
					<stop  offset="0" style="stop-color:#1F1224"/>
					<stop  offset="3.921569e-002" style="stop-color:#503C3E"/>
					<stop  offset="6.666666e-002" style="stop-color:#2A1F1D"/>
					<stop  offset="0.2392" style="stop-color:#121211"/>
					<stop  offset="0.3686" style="stop-color:#353234"/>
					<stop  offset="0.4863" style="stop-color:#FFFFFF"/>
					<stop  offset="0.5647" style="stop-color:#2D3333"/>
					<stop  offset="0.6353" style="stop-color:#1E1E20"/>
					<stop  offset="0.6941" style="stop-color:#43463D"/>
					<stop  offset="0.8471" style="stop-color:#1F1E1B"/>
					<stop  offset="0.9255" style="stop-color:#110E0D"/>
					<stop  offset="1" style="stop-color:#010101"/>
				</linearGradient>
				<path fill="url(#SVGID_25_)" d="M3.9,39.9c0.2-0.2,0.4-1.8,0.5-4.6c0.2-3.1,0.3-6.8,0.3-11.1c0-4.4-0.1-8.1-0.3-11.2
					C4.2,9.9,4,8.4,3.8,8.4h23.5c0.2,0,0.4,1.5,0.6,4.6c0.2,3.1,0.3,6.8,0.3,11.2c0,4.3-0.1,8-0.3,11.1c-0.2,2.8-0.4,4.4-0.6,4.6
					H3.9z"/>
			</g>
		</g>
	</g>
	<g>
		
			<linearGradient id="SVGID_26_" gradientUnits="userSpaceOnUse" x1="5.9912" y1="-77.7412" x2="5.8342" y2="-87.1911" gradientTransform="matrix(1 0 0 -1 52.3398 -2.2939)">
			<stop  offset="0" style="stop-color:#353137"/>
			<stop  offset="0.3451" style="stop-color:#212123"/>
			<stop  offset="0.8353" style="stop-color:#1D1E20"/>
			<stop  offset="0.9176" style="stop-color:#010101"/>
			<stop  offset="1" style="stop-color:#010101"/>
		</linearGradient>
		<path fill="url(#SVGID_26_)" d="M32.5,79c0.6-1.6,1.6-2.7,3.1-3.1c0,0,0-0.1,0.1-0.1h0.2c0.3,0,0.6-0.1,1-0.1h42.6
			c0.3,0,0.6,0.1,0.9,0.1h0.3l0.1,0.1c1.5,0.5,2.5,1.5,3.1,3.1c0.1,0.4,0.2,0.7,0.2,1.1v5H32.4v-5C32.3,79.7,32.3,79.4,32.5,79z"/>
	</g>
	<g>
		<g>
			
				<radialGradient id="SVGID_27_" cx="-15.4399" cy="134.8418" r="52.2881" gradientTransform="matrix(1 0 0 -0.1575 52.3398 96.4819)" gradientUnits="userSpaceOnUse">
				<stop  offset="0" style="stop-color:#FFFFFF;stop-opacity:0.6627"/>
				<stop  offset="1" style="stop-color:#FAFAFA;stop-opacity:0"/>
			</radialGradient>
			<path fill="url(#SVGID_27_)" d="M37,75.9L37,75.9L37,75.9v0.2c-0.3,0-0.6,0-1,0.1h0.1h-0.3h-0.1c-1.4,0.5-2.4,1.5-3,3.2
				c-0.1,0.3-0.2,0.7-0.1,1v3.1c0,0,0,0-0.1,0v0.1c0,0,0,0,0-0.1l0,0v-3.1c0-0.3,0.1-0.7,0.2-1.1c0.6-1.7,1.6-2.7,3.1-3.2h0.1
				l0.2-0.1C36.4,76,36.7,75.9,37,75.9z M79.1,76.1C79.1,76.1,79,76.1,79.1,76.1C79,76,79,76,79,76l0,0l0,0c0.3,0,0.7,0.1,1,0.1
				l0.3,0.1l0,0c1.3,0.4,2.3,1.3,3,2.7V79l0,0l0,0l0,0c-0.6-1.3-1.6-2.2-2.9-2.6l0,0h-0.2C79.8,76.1,79.4,76.1,79.1,76.1z"/>
			
				<radialGradient id="SVGID_28_" cx="-15.4395" cy="134.8379" r="52.2871" gradientTransform="matrix(1 0 0 -0.1575 52.3398 96.4819)" gradientUnits="userSpaceOnUse">
				<stop  offset="0" style="stop-color:#FFFFFF;stop-opacity:0.5725"/>
				<stop  offset="1" style="stop-color:#FAFAFA;stop-opacity:0"/>
			</radialGradient>
			<path fill="url(#SVGID_28_)" d="M37,75.9h42l0,0l0,0l0,0c0,0,0,0,0,0.1L37,75.9L37,75.9L37,75.9L37,75.9z"/>
		</g>
	</g>
	<g>
		<g>
			<g>
				
					<radialGradient id="SVGID_29_" cx="148.9639" cy="24.9854" r="2.4383" gradientTransform="matrix(0.7841 -0.6206 -1.035 -1.3077 10.9362 205.7134)" gradientUnits="userSpaceOnUse">
					<stop  offset="0" style="stop-color:#74747C"/>
					<stop  offset="1" style="stop-color:#232324"/>
				</radialGradient>
				<path fill="url(#SVGID_29_)" d="M100.8,77.7c0.1,0,0.1,0,0.2,0s0.1,0,0.2,0c0.1,0,0.1,0,0.1,0.1l0,0h0.1v-0.1
					C101.3,77.7,101,77.7,100.8,77.7L100.8,77.7L100.8,77.7z M101.5,77.9L101.5,77.9L101.5,77.9L101.5,77.9z M101.7,77.7
					c0.1,0.1,0.2,0.2,0.3,0.3c0.1,0.1,0.2,0.2,0.3,0.3c0.2,0.4,0.4,0.8,0.4,1.2v0.1c0,0.6-0.2,1-0.6,1.4c-0.2,0.2-0.4,0.3-0.6,0.4
					c-0.3,0.1-0.5,0.2-0.9,0.2l0,0c-0.3,0-0.5,0-0.8-0.1c-0.1-0.1-0.2-0.1-0.3-0.1h-0.1c0,0,0-0.1-0.1-0.1c-0.1-0.1-0.2-0.1-0.3-0.3
					c-0.1-0.1-0.2-0.2-0.3-0.3c-0.3-0.3-0.4-0.7-0.4-1.2c0-0.6,0.2-1.1,0.6-1.5c0.1-0.1,0.1-0.1,0.2-0.2c0,0,0.1-0.1,0.2-0.1
					c0.3-0.2,0.7-0.3,1.1-0.3c0.4,0,0.7,0.1,1,0.3C101.6,77.7,101.6,77.7,101.7,77.7z M99.8,81.4L99.8,81.4L99.8,81.4L99.8,81.4z"/>
			</g>
			<g>
				<g>
					
						<linearGradient id="SVGID_30_" gradientUnits="userSpaceOnUse" x1="48.9429" y1="-80.5703" x2="49.1487" y2="-82.1944" gradientTransform="matrix(1 0 0 -1 52.3398 -2.2939)">
						<stop  offset="0" style="stop-color:#6A6F75"/>
						<stop  offset="1" style="stop-color:#434142"/>
					</linearGradient>
					<path fill="url(#SVGID_30_)" d="M102.3,79.8c0,0.2-0.1,0.4-0.3,0.6c-0.1,0.1-0.2,0.3-0.3,0.3h-0.1c0.1,0,0.1-0.1,0.2-0.2
						c0.3-0.4,0.4-0.8,0.4-1.3c-0.1-0.5-0.3-0.8-0.7-1.2c-0.4-0.3-0.8-0.4-1.3-0.3h-0.1c0.1-0.1,0.2-0.1,0.4-0.1
						c0.4-0.1,0.8,0,1.2,0.3h0.1c0.4,0.3,0.6,0.8,0.7,1.3C102.4,79.4,102.4,79.6,102.3,79.8z"/>
					<path fill="#CBC8C6" d="M101,81.1L101,81.1c0,0.1-0.2,0.2-0.3,0.2c-0.1,0-0.2,0-0.4,0c-0.4,0-0.8-0.2-1-0.4
						c-0.4-0.3-0.7-0.8-0.8-1.3c0-0.1,0-0.2,0-0.3c0,0,0-0.1,0-0.2c0-0.4,0.2-0.7,0.4-1c0.2-0.3,0.4-0.5,0.7-0.6c0.1,0,0.1,0,0.2,0
						c0.1-0.1,0.2-0.1,0.4-0.1c0.1,0,0.3,0,0.4,0c0.4,0,0.7,0.1,1,0.4l0,0c-0.4-0.3-0.8-0.4-1.2-0.3c-0.1,0-0.3,0-0.4,0.1
						c-0.1,0-0.2,0-0.3,0l0,0l0,0c-0.2,0.1-0.3,0.2-0.5,0.4c-0.1,0.1-0.1,0.1-0.2,0.2v0.1c-0.2,0.3-0.3,0.5-0.3,0.8
						c0,0.1,0,0.3,0,0.4c0.1,0.5,0.3,0.9,0.6,1.2c0.3,0.2,0.6,0.3,1,0.3c0.1,0,0.2,0,0.4,0C100.8,81.2,100.8,81.1,101,81.1z"/>
					<path fill="#647072" d="M99.8,78l1.8,2.9l0,0l0,0h-0.1l0,0L99.8,78L99.8,78L99.8,78z"/>
					
						<linearGradient id="SVGID_31_" gradientUnits="userSpaceOnUse" x1="47.9082" y1="-79.645" x2="49.7341" y2="-82.5457" gradientTransform="matrix(1 0 0 -1 52.3398 -2.2939)">
						<stop  offset="0" style="stop-color:#A9AFB6"/>
						<stop  offset="1" style="stop-color:#656B83"/>
					</linearGradient>
					<path fill="url(#SVGID_31_)" d="M101.6,80.7l-1.8-2.8l0,0c0.1,0,0.2,0,0.3,0c0.5-0.1,0.9,0,1.3,0.3l0,0
						c0.4,0.3,0.6,0.7,0.7,1.2c0,0.3,0,0.5,0,0.7C101.9,80.2,101.8,80.5,101.6,80.7L101.6,80.7z"/>
					
						<linearGradient id="SVGID_32_" gradientUnits="userSpaceOnUse" x1="48.4497" y1="-80.4375" x2="49.4266" y2="-82.1116" gradientTransform="matrix(1 0 0 -1 52.3398 -2.2939)">
						<stop  offset="0" style="stop-color:#EEEFEF"/>
						<stop  offset="1" style="stop-color:#616169"/>
					</linearGradient>
					<path fill="url(#SVGID_32_)" d="M101.6,80.7L101.6,80.7c0.2-0.3,0.3-0.5,0.4-0.7c0.1-0.2,0.1-0.4,0-0.7
						c-0.1-0.5-0.3-0.9-0.7-1.2l0,0c-0.4-0.3-0.8-0.4-1.3-0.3c-0.1,0-0.2,0-0.3,0v-0.1l0,0l0,0c0.1,0,0.2,0,0.3,0h0.1
						c0.5-0.1,0.9,0,1.3,0.3c0.4,0.3,0.6,0.7,0.7,1.2c0.1,0.5-0.1,0.9-0.4,1.3C101.7,80.6,101.7,80.7,101.6,80.7z"/>
					
						<linearGradient id="SVGID_33_" gradientUnits="userSpaceOnUse" x1="309.8506" y1="399.958" x2="313.1758" y2="399.958" gradientTransform="matrix(0.4888 0.8724 0.8806 -0.4742 -404.1904 -2.8523)">
						<stop  offset="0" style="stop-color:#3E3E48"/>
						<stop  offset="1" style="stop-color:#34373E"/>
					</linearGradient>
					<path fill="url(#SVGID_33_)" d="M101.1,81l-1.7-2.9l0.1-0.1c0,0,0.1-0.1,0.2-0.1l0,0l1.7,3h-0.1l0,0
						C101.2,81,101.2,81,101.1,81z"/>
					
						<linearGradient id="SVGID_34_" gradientUnits="userSpaceOnUse" x1="47.3926" y1="-81.8179" x2="47.5204" y2="-82.7926" gradientTransform="matrix(1 0 0 -1 52.3398 -2.2939)">
						<stop  offset="0" style="stop-color:#E9E7DF"/>
						<stop  offset="1" style="stop-color:#545359"/>
					</linearGradient>
					<path fill="url(#SVGID_34_)" d="M99.3,78.2L99.3,78.2L99.3,78.2c-0.3,0.4-0.4,0.7-0.4,1c0,0.1,0,0.3,0,0.3
						c0.1,0.5,0.3,0.9,0.7,1.2c0.3,0.2,0.6,0.4,1,0.4c0.1,0,0.2,0,0.3,0h0.1l0,0c-0.1,0-0.2,0.1-0.3,0.1c-0.1,0-0.3,0-0.4,0
						c-0.4,0-0.7-0.1-1-0.3c-0.4-0.3-0.6-0.7-0.6-1.2c0-0.1,0-0.2,0-0.4c0-0.3,0.1-0.6,0.3-0.8v-0.1C99.1,78.3,99.1,78.2,99.3,78.2
						L99.3,78.2z"/>
					
						<linearGradient id="SVGID_35_" gradientUnits="userSpaceOnUse" x1="46.9009" y1="-80.9238" x2="47.7753" y2="-83.0241" gradientTransform="matrix(1 0 0 -1 52.3398 -2.2939)">
						<stop  offset="0" style="stop-color:#7A7D8E"/>
						<stop  offset="1" style="stop-color:#C0BFBF"/>
					</linearGradient>
					<path fill="url(#SVGID_35_)" d="M99.3,78.2l1.7,2.9h-0.1c-0.1,0-0.3,0-0.3,0c-0.4,0-0.7-0.1-1-0.4c-0.4-0.3-0.6-0.7-0.7-1.2
						c0-0.1,0-0.2,0-0.3C98.9,78.9,99,78.6,99.3,78.2L99.3,78.2L99.3,78.2z"/>
					<path fill="#32353E" d="M100.9,81.1l-1.7-2.9l0,0l0,0L100.9,81.1C101,81,100.9,81.1,100.9,81.1z"/>
					<path fill="#6A767A" d="M99.4,78.1l1.7,2.9H101l-1.7-2.9H99.4z"/>
					<path fill="#615E69" d="M101.5,80.9L101.5,80.9c0.2-0.2,0.4-0.3,0.4-0.4c0.2-0.2,0.3-0.4,0.3-0.6c0,0.3-0.1,0.5-0.3,0.8v0.1
						c-0.1,0.2-0.3,0.3-0.5,0.4v-0.1C101.4,81,101.5,80.9,101.5,80.9L101.5,80.9L101.5,80.9z"/>
					<path fill="#39383D" d="M101.2,81.2l-0.1-0.2c0.1,0,0.1,0,0.2-0.1h0.1V81C101.3,81.1,101.3,81.2,101.2,81.2z"/>
					<path fill="#53535B" d="M101.1,81C101.1,81.1,101,81.1,101.1,81l-0.1,0.1l0,0C100.9,81.1,101,81,101.1,81
						C101,81,101.1,81,101.1,81z"/>
					<path fill="#B8C0C3" d="M101.5,80.9c0-0.1,0-0.1,0-0.2h0.1C101.6,80.8,101.6,80.8,101.5,80.9z M101.4,81L101.4,81L101.4,81
						L101.4,81z"/>
					<path fill="#ABB2B4" d="M99.8,78l1.8,2.8c0,0,0,0.1,0,0.2L99.8,78z"/>
					<path fill="#6C6B71" d="M101.1,81l0.1,0.2h-0.1l0,0l-0.1-0.1L101.1,81C101,81.1,101.1,81.1,101.1,81z"/>
				</g>
			</g>
		</g>
	</g>
	<g>
		<g>
			<g>
				
					<radialGradient id="SVGID_36_" cx="175.0137" cy="25.8857" r="2.4392" gradientTransform="matrix(0.7841 -0.6206 -1.035 -1.3077 17.4919 222.1588)" gradientUnits="userSpaceOnUse">
					<stop  offset="0" style="stop-color:#74747C"/>
					<stop  offset="1" style="stop-color:#232324"/>
				</radialGradient>
				<path fill="url(#SVGID_36_)" d="M127.8,76.9c0.1,0.1,0.3,0.1,0.3,0.3c0.1,0.1,0.2,0.2,0.3,0.3c0.2,0.3,0.4,0.7,0.4,1.2v0.1
					c0,0.5-0.2,1-0.6,1.4c-0.2,0.2-0.4,0.3-0.6,0.5c-0.2,0.1-0.5,0.2-0.8,0.2h-0.1c-0.3,0-0.5,0-0.7-0.1c-0.1,0-0.3-0.1-0.4-0.2l0,0
					h-0.1c-0.1-0.1-0.2-0.2-0.3-0.3c-0.1-0.1-0.2-0.2-0.3-0.3c-0.2-0.3-0.3-0.7-0.3-1.2c0-0.6,0.2-1.1,0.6-1.5
					c0.1-0.1,0.1-0.1,0.2-0.2c0.1-0.1,0.1-0.1,0.2-0.1c0.3-0.2,0.7-0.4,1.1-0.4C127.1,76.6,127.4,76.7,127.8,76.9
					C127.7,76.8,127.7,76.9,127.8,76.9z M127.5,77c-0.2-0.1-0.4-0.2-0.7-0.3v0.1h0.1h0.1c0.1,0,0.1,0,0.2,0
					C127.3,76.8,127.3,76.9,127.5,77C127.4,77,127.4,77,127.5,77L127.5,77L127.5,77z M125.8,80.5L125.8,80.5h0.1
					C125.9,80.5,125.9,80.5,125.8,80.5z"/>
			</g>
			<g>
				<g>
					<path fill="#CBC8C6" d="M128.2,79.5c0.2-0.4,0.3-0.8,0.1-1.3c0-0.1-0.1-0.3-0.1-0.3c0-0.1-0.1-0.1-0.1-0.2H128
						c-0.1-0.2-0.2-0.4-0.4-0.5c-0.1-0.1-0.1-0.1-0.2-0.2h-0.1c-0.3-0.2-0.6-0.3-0.9-0.3c-0.1,0-0.2,0-0.4,0
						c-0.5,0.1-0.8,0.4-1.1,0.8c-0.2,0.3-0.3,0.7-0.3,1c0,0.1,0,0.2,0,0.3s0.1,0.2,0.1,0.3l-0.1,0.1c-0.1-0.1-0.1-0.3-0.2-0.4
						c0-0.1,0-0.3,0-0.4c0-0.4,0.1-0.7,0.3-1.1c0.3-0.5,0.7-0.8,1.2-0.9c0.1,0,0.2,0,0.3,0c0,0,0.1,0,0.2,0c0.4,0,0.7,0.1,1,0.3
						c0.3,0.2,0.5,0.4,0.7,0.6c0,0,0.1,0.1,0.1,0.2c0.1,0.1,0.1,0.3,0.2,0.3c0,0.1,0,0.3,0,0.4C128.5,78.9,128.3,79.2,128.2,79.5z"
						/>
					
						<linearGradient id="SVGID_37_" gradientUnits="userSpaceOnUse" x1="73.9067" y1="-79.98" x2="72.9577" y2="-80.2095" gradientTransform="matrix(1 0 0 -1 52.3398 -2.2939)">
						<stop  offset="0" style="stop-color:#E9E7DF"/>
						<stop  offset="1" style="stop-color:#545359"/>
					</linearGradient>
					<path fill="url(#SVGID_37_)" d="M127.6,77.2L127.6,77.2C127.5,77.2,127.5,77.2,127.6,77.2L127.6,77.2c-0.4-0.2-0.7-0.3-1-0.3
						c-0.1,0-0.3,0-0.4,0c-0.5,0.1-0.8,0.4-1.1,0.8c-0.2,0.3-0.3,0.7-0.3,1c0,0.1,0,0.2,0,0.4h0.1h-0.1c0-0.1-0.1-0.2-0.1-0.3
						s0-0.3,0-0.3c0-0.3,0.1-0.7,0.3-1c0.3-0.4,0.6-0.7,1.1-0.8c0.1,0,0.3,0,0.4,0c0.3,0,0.6,0.1,0.9,0.3h0.1
						C127.5,77.1,127.5,77.1,127.6,77.2z"/>
					
						<linearGradient id="SVGID_38_" gradientUnits="userSpaceOnUse" x1="74.751" y1="-79.4707" x2="72.7494" y2="-80.5679" gradientTransform="matrix(1 0 0 -1 52.3398 -2.2939)">
						<stop  offset="0" style="stop-color:#7A7D8E"/>
						<stop  offset="1" style="stop-color:#C0BFBF"/>
					</linearGradient>
					<path fill="url(#SVGID_38_)" d="M127.5,77.2l-2.6,2c0,0,0,0-0.1,0c0-0.1,0-0.3,0-0.4c0-0.3,0.1-0.7,0.3-1
						c0.2-0.4,0.6-0.7,1.1-0.8c0.1,0,0.3,0,0.4,0C126.8,77,127.2,77,127.5,77.2L127.5,77.2L127.5,77.2z"/>
					<path fill="#6A767A" d="M124.9,79.3l2.7-2c0,0,0.1,0,0.1,0.1L124.9,79.3L124.9,79.3z"/>
					<path fill="#32353E" d="M127.6,77.3l-2.7,2v-0.1L127.6,77.3L127.6,77.3L127.6,77.3z"/>
					
						<linearGradient id="SVGID_39_" gradientUnits="userSpaceOnUse" x1="75.479" y1="-81.0083" x2="73.9077" y2="-82.1634" gradientTransform="matrix(1 0 0 -1 52.3398 -2.2939)">
						<stop  offset="0" style="stop-color:#EEEFEF"/>
						<stop  offset="1" style="stop-color:#616169"/>
					</linearGradient>
					<path fill="url(#SVGID_39_)" d="M128,77.7c0.1,0.1,0.1,0.3,0.2,0.4c0.1,0.5,0,0.9-0.3,1.3c-0.2,0.4-0.6,0.7-1,0.8
						c-0.5,0.1-1,0-1.4-0.2c-0.1-0.1-0.1-0.1-0.2-0.1l0,0h0.1c0.2,0.1,0.4,0.2,0.6,0.2c0.2,0.1,0.5,0.1,0.7,0
						c0.5-0.1,0.9-0.4,1.1-0.8l0,0c0.2-0.4,0.3-0.8,0.2-1.3C128,77.9,128,77.8,128,77.7L128,77.7L128,77.7z"/>
					
						<linearGradient id="SVGID_40_" gradientUnits="userSpaceOnUse" x1="76.1733" y1="-80.4028" x2="73.4692" y2="-82.5476" gradientTransform="matrix(1 0 0 -1 52.3398 -2.2939)">
						<stop  offset="0" style="stop-color:#A9AFB6"/>
						<stop  offset="1" style="stop-color:#656B83"/>
					</linearGradient>
					<path fill="url(#SVGID_40_)" d="M125.3,79.9l2.6-2.1l0,0c0,0.1,0.1,0.2,0.1,0.3c0.1,0.5,0,0.9-0.2,1.3l0,0
						c-0.3,0.4-0.6,0.7-1.1,0.8c-0.2,0.1-0.5,0.1-0.7,0S125.6,80,125.3,79.9L125.3,79.9z"/>
					
						<linearGradient id="SVGID_41_" gradientUnits="userSpaceOnUse" x1="-197.8633" y1="940.3721" x2="-194.5265" y2="940.3721" gradientTransform="matrix(-0.8168 0.577 0.6002 0.8003 -598.0183 -560.9219)">
						<stop  offset="0" style="stop-color:#3E3E48"/>
						<stop  offset="1" style="stop-color:#34373E"/>
					</linearGradient>
					<path fill="url(#SVGID_41_)" d="M128,77.7l-2.9,2v-0.1l-0.1-0.1l2.8-2L128,77.7C127.8,77.5,127.9,77.6,128,77.7
						C127.9,77.6,127.9,77.7,128,77.7z"/>
					<path fill="#647072" d="M125.1,79.7l2.9-2l0,0l0,0l-2.7,2C125.2,79.8,125.2,79.8,125.1,79.7L125.1,79.7L125.1,79.7z"/>
					<path fill="#6C6B71" d="M124.8,79.2C124.8,79.3,124.9,79.3,124.8,79.2c0.1,0.1,0.1,0.1,0.1,0.2l-0.2,0.1v-0.1l0,0L124.8,79.2z"
						/>
					<path fill="#53535B" d="M124.9,79.3C124.9,79.3,124.8,79.3,124.9,79.3L124.9,79.3C124.9,79.2,124.9,79.3,124.9,79.3z"/>
					<path fill="#39383D" d="M125,79.4C125,79.5,125.1,79.5,125,79.4l0.1,0.2l-0.1,0.1c-0.1-0.1-0.1-0.1-0.2-0.3H125z"/>
					<path fill="#B8C0C3" d="M125.2,79.8C125.3,79.8,125.3,79.8,125.2,79.8L125.2,79.8L125.2,79.8L125.2,79.8z"/>
					
						<linearGradient id="SVGID_42_" gradientUnits="userSpaceOnUse" x1="75.2583" y1="-81.3062" x2="73.6573" y2="-81.702" gradientTransform="matrix(1 0 0 -1 52.3398 -2.2939)">
						<stop  offset="0" style="stop-color:#6A6F75"/>
						<stop  offset="1" style="stop-color:#434142"/>
					</linearGradient>
					<path fill="url(#SVGID_42_)" d="M128.1,77.7c0,0.1,0.1,0.1,0.1,0.2s0.1,0.2,0.1,0.3c0.1,0.4,0,0.9-0.1,1.3v0.1
						c-0.3,0.4-0.7,0.7-1.2,0.8c-0.2,0.1-0.5,0.1-0.7,0s-0.4-0.1-0.6-0.3c-0.1-0.1-0.3-0.2-0.4-0.3l0,0c0.1,0,0.1,0.1,0.2,0.1
						c0.4,0.2,0.9,0.3,1.4,0.2c0.5-0.1,0.8-0.4,1-0.8c0.3-0.4,0.3-0.9,0.3-1.3C128.2,78,128.1,77.9,128.1,77.7L128.1,77.7z"/>
					<path fill="#615E69" d="M125.3,79.9c0.1,0.1,0.2,0.2,0.4,0.3s0.4,0.2,0.6,0.3c-0.3,0-0.5-0.1-0.8-0.2l0,0
						c-0.2-0.1-0.4-0.3-0.5-0.5l0.1-0.1l0,0c0,0,0,0,0.1,0l0,0C125.2,79.8,125.3,79.9,125.3,79.9z"/>
					<path fill="#ABB2B4" d="M127.9,77.7l-2.6,2.1l-0.1-0.1L127.9,77.7z"/>
				</g>
			</g>
		</g>
	</g>
	<g>
		<g>
			
				<radialGradient id="SVGID_43_" cx="86.4648" cy="24.9854" r="2.4386" gradientTransform="matrix(0.7841 -0.6206 -1.035 -1.3077 -2.5569 166.9244)" gradientUnits="userSpaceOnUse">
				<stop  offset="0" style="stop-color:#74747C"/>
				<stop  offset="1" style="stop-color:#232324"/>
			</radialGradient>
			<path fill="url(#SVGID_43_)" d="M36.8,77.9c0,0,0.1-0.1,0.2-0.1c0.3-0.2,0.7-0.3,1.1-0.3c0.4,0,0.7,0.1,1,0.3
				c0.1,0,0.1,0.1,0.2,0.1c0.1,0.1,0.3,0.2,0.3,0.3c0.1,0.1,0.2,0.2,0.3,0.3c0.2,0.4,0.4,0.8,0.4,1.2v0.1c0,0.6-0.2,1-0.6,1.4
				c-0.2,0.2-0.4,0.3-0.6,0.4c-0.2,0.1-0.5,0.2-0.8,0.2h-0.1c-0.3,0-0.5,0-0.8-0.1c-0.1-0.1-0.2-0.1-0.3-0.1l0,0L37,81.5
				c-0.1-0.1-0.2-0.1-0.3-0.3c-0.1-0.1-0.2-0.2-0.3-0.3c-0.2-0.3-0.3-0.7-0.3-1.2c0-0.6,0.2-1.1,0.6-1.5
				C36.6,78,36.7,77.9,36.8,77.9z M38.3,77.7h0.1h0.1c0.1,0,0.1,0,0.2,0c0.1,0,0.1,0,0.2,0.1H39v-0.1C38.8,77.7,38.5,77.7,38.3,77.7
				L38.3,77.7z M39.1,78L39.1,78C39.1,77.9,39,77.9,39.1,78C39,77.9,39.1,77.9,39.1,78z M37.3,81.4L37.3,81.4L37.3,81.4L37.3,81.4z"
				/>
		</g>
		<g>
			<g>
				<path fill="#CBC8C6" d="M39.8,79.4c0-0.4-0.2-0.8-0.5-1.2c-0.1-0.1-0.1-0.1-0.3-0.2c-0.1,0-0.1-0.1-0.2-0.1h-0.1
					c-0.2-0.1-0.4-0.2-0.6-0.3c-0.1,0-0.2,0-0.3,0h-0.1c-0.3,0-0.6,0.1-0.9,0.3c-0.1,0.1-0.2,0.1-0.3,0.2c-0.3,0.4-0.5,0.8-0.5,1.3
					c0,0.4,0.1,0.7,0.3,1c0.1,0.1,0.1,0.2,0.2,0.3s0.1,0.2,0.3,0.2L36.7,81c-0.1-0.1-0.2-0.1-0.3-0.2c-0.1-0.1-0.1-0.2-0.2-0.3
					c-0.2-0.3-0.3-0.7-0.3-1.1c0-0.5,0.2-1,0.5-1.4c0.1-0.1,0.1-0.1,0.2-0.2c0,0,0.1-0.1,0.2-0.1c0.3-0.2,0.6-0.3,1-0.3
					c0.3,0,0.6,0.1,0.9,0.3c0.1,0,0.1,0.1,0.2,0.1c0.1,0.1,0.2,0.2,0.3,0.3c0.1,0.1,0.2,0.2,0.3,0.3C39.8,78.7,39.9,79,39.8,79.4
					L39.8,79.4z"/>
				
					<linearGradient id="SVGID_44_" gradientUnits="userSpaceOnUse" x1="-14.9644" y1="-81.1348" x2="-15.6645" y2="-81.835" gradientTransform="matrix(1 0 0 -1 52.3398 -2.2939)">
					<stop  offset="0" style="stop-color:#E9E7DF"/>
					<stop  offset="1" style="stop-color:#545359"/>
				</linearGradient>
				<path fill="url(#SVGID_44_)" d="M38.2,77.7L38.2,77.7H38c-0.3,0-0.6,0.1-0.9,0.3c-0.1,0.1-0.2,0.1-0.3,0.2
					c-0.3,0.4-0.5,0.8-0.5,1.3c0,0.4,0.1,0.7,0.3,1c0.1,0.1,0.1,0.2,0.2,0.3l0.1,0.1c-0.1,0-0.2-0.1-0.3-0.2
					c-0.1-0.1-0.1-0.2-0.2-0.3c-0.2-0.3-0.3-0.6-0.3-1c0-0.5,0.2-0.9,0.5-1.3c0.1-0.1,0.2-0.1,0.3-0.2c0.3-0.2,0.6-0.3,0.9-0.3h0.1
					C38,77.7,38.1,77.7,38.2,77.7z"/>
				
					<linearGradient id="SVGID_45_" gradientUnits="userSpaceOnUse" x1="-14.6484" y1="-80.23" x2="-15.7933" y2="-82.2079" gradientTransform="matrix(1 0 0 -1 52.3398 -2.2939)">
					<stop  offset="0" style="stop-color:#7A7D8E"/>
					<stop  offset="1" style="stop-color:#C0BFBF"/>
				</linearGradient>
				<path fill="url(#SVGID_45_)" d="M38.2,77.7l-1.3,3.1c0,0,0-0.1-0.1-0.1c-0.1-0.1-0.1-0.1-0.2-0.3c-0.2-0.3-0.3-0.6-0.3-1
					c0-0.5,0.2-0.9,0.5-1.3c0.1-0.1,0.2-0.1,0.3-0.2c0.3-0.2,0.6-0.3,0.9-0.3L38.2,77.7L38.2,77.7z"/>
				<path fill="#6C6B71" d="M37,81v0.2c0,0-0.1,0-0.1-0.1h-0.1L37,81L37,81C37,80.9,37,81,37,81z"/>
				
					<linearGradient id="SVGID_46_" gradientUnits="userSpaceOnUse" x1="-13.2148" y1="-81.1953" x2="-13.9403" y2="-82.9951" gradientTransform="matrix(1 0 0 -1 52.3398 -2.2939)">
					<stop  offset="0" style="stop-color:#EEEFEF"/>
					<stop  offset="1" style="stop-color:#616169"/>
				</linearGradient>
				<path fill="url(#SVGID_46_)" d="M38.9,78c0.1,0.1,0.1,0.1,0.3,0.2c0.3,0.4,0.5,0.8,0.5,1.3s-0.2,0.9-0.5,1.3s-0.8,0.5-1.3,0.5
					c-0.1,0-0.2,0-0.3,0l0,0c0.2,0,0.5,0,0.6-0.2c0.2-0.1,0.4-0.2,0.6-0.4c0.3-0.3,0.5-0.8,0.5-1.3v-0.1c0-0.5-0.2-0.9-0.5-1.2
					c-0.1,0-0.1-0.1-0.2-0.2l0,0C38.8,77.9,38.9,77.9,38.9,78z"/>
				<path fill="#6A767A" d="M37,80.9l1.3-3.2h0.1L37,80.9L37,80.9z"/>
				
					<linearGradient id="SVGID_47_" gradientUnits="userSpaceOnUse" x1="99.5845" y1="767.5576" x2="102.9328" y2="767.5576" gradientTransform="matrix(-0.3957 0.9184 0.9083 0.4192 -619.1567 -335.5892)">
					<stop  offset="0" style="stop-color:#3E3E48"/>
					<stop  offset="1" style="stop-color:#34373E"/>
				</linearGradient>
				<path fill="url(#SVGID_47_)" d="M38.7,77.9l-1.4,3.2l0,0V81c-0.1,0-0.1-0.1-0.2-0.1l1.3-3.2c0.1,0,0.1,0,0.2,0
					C38.6,77.8,38.6,77.9,38.7,77.9L38.7,77.9z"/>
				<path fill="#647072" d="M37.3,81.1l1.4-3.2l0,0l0,0l-1.3,3.2l0,0H37.3C37.4,81.2,37.3,81.1,37.3,81.1z"/>
				<path fill="#32353E" d="M36.9,80.9l1.3-3.1h0.1L36.9,80.9C37,80.9,36.9,80.9,36.9,80.9z"/>
				
					<linearGradient id="SVGID_48_" gradientUnits="userSpaceOnUse" x1="-13.0977" y1="-81.5776" x2="-14.2726" y2="-82.7527" gradientTransform="matrix(1 0 0 -1 52.3398 -2.2939)">
					<stop  offset="0" style="stop-color:#6A6F75"/>
					<stop  offset="1" style="stop-color:#434142"/>
				</linearGradient>
				<path fill="url(#SVGID_48_)" d="M38.8,81.2c-0.2,0.1-0.4,0.1-0.7,0.1c-0.2,0-0.3,0-0.5-0.1h0.1c0.1,0,0.1,0,0.3,0
					c0.5,0,0.9-0.2,1.3-0.5c0.3-0.3,0.5-0.8,0.5-1.3s-0.2-0.9-0.5-1.3C39.2,78,39.1,78,39,77.9c0.1,0,0.1,0.1,0.2,0.1
					c0.1,0.1,0.2,0.1,0.3,0.2c0.3,0.3,0.5,0.7,0.5,1.2h0.1c0,0.5-0.2,1-0.6,1.3C39.1,81,39,81.1,38.8,81.2z"/>
				<path fill="#39383D" d="M37.3,81.1L37.3,81.1c-0.2,0.1-0.3,0-0.4,0v-0.2C37.1,81,37.2,81,37.3,81.1C37.3,81,37.3,81.1,37.3,81.1
					L37.3,81.1z"/>
				<path fill="#53535B" d="M36.9,80.9C36.9,80.9,37,80.9,36.9,80.9L36.9,80.9C37,81,37,80.9,36.9,80.9L36.9,80.9z"/>
				
					<linearGradient id="SVGID_49_" gradientUnits="userSpaceOnUse" x1="-12.874" y1="-80.3145" x2="-14.0666" y2="-83.5433" gradientTransform="matrix(1 0 0 -1 52.3398 -2.2939)">
					<stop  offset="0" style="stop-color:#A9AFB6"/>
					<stop  offset="1" style="stop-color:#656B83"/>
				</linearGradient>
				<path fill="url(#SVGID_49_)" d="M37.7,81.2l1.1-3.2l0,0c0.1,0.1,0.1,0.1,0.2,0.2c0.3,0.3,0.5,0.7,0.5,1.2v0.1
					c0,0.5-0.2,0.9-0.5,1.3c-0.2,0.2-0.4,0.3-0.6,0.4C38.2,81.1,37.9,81.2,37.7,81.2L37.7,81.2z"/>
				<path fill="#615E69" d="M37.3,81.2l0.1-0.1c0,0,0,0,0.1,0l0,0l0,0h0.1c0.2,0.1,0.3,0.1,0.5,0.1c0.2,0,0.5,0,0.7-0.1
					c-0.2,0.1-0.5,0.2-0.8,0.2l0,0C37.7,81.4,37.5,81.3,37.3,81.2z"/>
				<path fill="#B8C0C3" d="M37.6,81.2C37.6,81.2,37.5,81.2,37.6,81.2C37.5,81.2,37.6,81.2,37.6,81.2L37.6,81.2z"/>
				<path fill="#ABB2B4" d="M38.8,78l-1.1,3.2c-0.1,0-0.1,0-0.2,0L38.8,78z"/>
			</g>
		</g>
	</g>
	<g>
		<g>
			
				<radialGradient id="SVGID_50_" cx="122.9131" cy="24.9863" r="2.438" gradientTransform="matrix(0.7841 -0.6206 -1.035 -1.3077 5.3122 189.5455)" gradientUnits="userSpaceOnUse">
				<stop  offset="0" style="stop-color:#74747C"/>
				<stop  offset="1" style="stop-color:#232324"/>
			</radialGradient>
			<path fill="url(#SVGID_50_)" d="M75.3,77.9L75.3,77.9L75.3,77.9h0.2c-0.2-0.1-0.4-0.2-0.7-0.2v0.1h0.1c0,0,0.1,0,0.2,0L75.3,77.9
				C75.2,77.8,75.2,77.8,75.3,77.9z M75.4,77.9C75.4,77.9,75.5,77.9,75.4,77.9L75.4,77.9C75.5,77.9,75.4,77.9,75.4,77.9z M75.7,77.7
				c0.1,0.1,0.2,0.2,0.3,0.3c0.1,0.1,0.2,0.2,0.3,0.3c0.2,0.4,0.3,0.8,0.3,1.2v0.1c0,0.6-0.3,1-0.6,1.4c-0.2,0.2-0.4,0.3-0.5,0.4
				c-0.3,0.1-0.6,0.2-0.9,0.2h-0.1c-0.2,0-0.5,0-0.7-0.1c-0.1-0.1-0.2-0.1-0.3-0.1h-0.1l-0.1-0.1c-0.1-0.1-0.2-0.1-0.3-0.3
				c-0.1-0.1-0.2-0.2-0.3-0.3c-0.2-0.3-0.4-0.7-0.4-1.2c0-0.6,0.2-1.1,0.6-1.5c0.1-0.1,0.2-0.1,0.3-0.2l0.1-0.1
				c0.3-0.2,0.7-0.3,1.2-0.3c0.4,0,0.7,0.1,1,0.3C75.5,77.7,75.6,77.7,75.7,77.7z M73.7,81.4C73.7,81.4,73.8,81.4,73.7,81.4
				L73.7,81.4C73.8,81.4,73.7,81.4,73.7,81.4z"/>
		</g>
		<g>
			<g>
				
					<linearGradient id="SVGID_51_" gradientUnits="userSpaceOnUse" x1="22.6958" y1="-80.5933" x2="22.9017" y2="-82.2175" gradientTransform="matrix(1 0 0 -1 52.3398 -2.2939)">
					<stop  offset="0" style="stop-color:#6A6F75"/>
					<stop  offset="1" style="stop-color:#434142"/>
				</linearGradient>
				<path fill="url(#SVGID_51_)" d="M76.3,79.8c-0.1,0.2-0.2,0.4-0.3,0.6c-0.1,0.1-0.2,0.3-0.4,0.3l0,0c0.1,0,0.1-0.1,0.2-0.2
					c0.3-0.4,0.4-0.8,0.3-1.3c-0.1-0.5-0.3-0.8-0.7-1.2c-0.4-0.3-0.8-0.4-1.3-0.3c-0.1,0-0.3,0-0.3,0c0.1,0,0.1,0,0.2,0
					c0.1-0.1,0.3-0.1,0.3-0.1c0.5-0.1,0.9,0,1.3,0.3l0,0c0.4,0.3,0.6,0.8,0.7,1.3C76.3,79.4,76.3,79.6,76.3,79.8z"/>
				<path fill="#CBC8C6" d="M74.9,81.1L74.9,81.1c-0.1,0.1-0.2,0.2-0.4,0.2c-0.1,0-0.3,0-0.3,0c-0.4,0-0.8-0.2-1.1-0.4
					c-0.4-0.3-0.6-0.8-0.7-1.3c0-0.1,0-0.2,0-0.3c0,0,0-0.1,0-0.2c0-0.4,0.2-0.7,0.4-1c0.2-0.3,0.4-0.5,0.7-0.6c0.1,0,0.1,0,0.2,0
					c0.1-0.1,0.3-0.1,0.4-0.1c0.1,0,0.3,0,0.4,0c0.4,0,0.7,0.1,1,0.4l0,0c-0.4-0.3-0.8-0.4-1.3-0.3c-0.1,0-0.2,0-0.3,0.1
					c-0.1,0-0.1,0-0.2,0h-0.1c-0.2,0.1-0.4,0.2-0.5,0.4c-0.1,0.1-0.1,0.1-0.2,0.2v0.1c-0.2,0.3-0.3,0.5-0.3,0.8c0,0.1,0,0.3,0,0.4
					c0.1,0.5,0.3,0.9,0.7,1.2c0.3,0.2,0.6,0.3,1,0.3c0.1,0,0.3,0,0.3,0C74.7,81.2,74.8,81.1,74.9,81.1z"/>
				
					<linearGradient id="SVGID_52_" gradientUnits="userSpaceOnUse" x1="22.4033" y1="-80.4072" x2="23.38" y2="-82.0812" gradientTransform="matrix(1 0 0 -1 52.3398 -2.2939)">
					<stop  offset="0" style="stop-color:#EEEFEF"/>
					<stop  offset="1" style="stop-color:#616169"/>
				</linearGradient>
				<path fill="url(#SVGID_52_)" d="M73.7,77.8L73.7,77.8c0.2-0.1,0.3-0.1,0.4-0.1c0.5-0.1,0.9,0,1.3,0.3c0.4,0.3,0.6,0.7,0.7,1.2
					c0.1,0.5,0,0.9-0.3,1.3c-0.1,0.1-0.1,0.2-0.2,0.2l0,0c0.2-0.2,0.3-0.4,0.4-0.6c0-0.2,0-0.4,0-0.7c-0.1-0.5-0.3-0.9-0.7-1.2l0,0
					c-0.4-0.3-0.8-0.4-1.3-0.3C73.9,77.9,73.8,77.9,73.7,77.8L73.7,77.8z"/>
				
					<linearGradient id="SVGID_53_" gradientUnits="userSpaceOnUse" x1="21.8232" y1="-79.6685" x2="23.6491" y2="-82.5689" gradientTransform="matrix(1 0 0 -1 52.3398 -2.2939)">
					<stop  offset="0" style="stop-color:#A9AFB6"/>
					<stop  offset="1" style="stop-color:#656B83"/>
				</linearGradient>
				<path fill="url(#SVGID_53_)" d="M75.5,80.7l-1.8-2.8l0,0c0.1,0,0.1,0,0.3,0c0.5-0.1,0.9,0,1.3,0.3l0,0c0.4,0.3,0.6,0.7,0.7,1.2
					c0,0.3,0,0.5,0,0.7C75.8,80.2,75.7,80.5,75.5,80.7L75.5,80.7z"/>
				<path fill="#647072" d="M73.8,78l1.8,2.9l0,0l0,0c0,0,0,0-0.1,0l0,0L73.8,78L73.8,78L73.8,78z"/>
				
					<linearGradient id="SVGID_54_" gradientUnits="userSpaceOnUse" x1="297.499" y1="377.2246" x2="300.8234" y2="377.2246" gradientTransform="matrix(0.4888 0.8724 0.8806 -0.4742 -404.1904 -2.8523)">
					<stop  offset="0" style="stop-color:#3E3E48"/>
					<stop  offset="1" style="stop-color:#34373E"/>
				</linearGradient>
				<path fill="url(#SVGID_54_)" d="M75,81l-1.7-2.9l0.1-0.1c0.1,0,0.1-0.1,0.2-0.1h0.1l1.6,3l0,0C75.2,81,75.1,81,75,81z"/>
				<path fill="#6A767A" d="M73.3,78.1L75,81l0,0L73.3,78.1L73.3,78.1z"/>
				<path fill="#32353E" d="M74.8,81.1l-1.7-2.9l0,0l0,0L74.8,81.1C74.9,81,74.9,81.1,74.8,81.1z"/>
				
					<linearGradient id="SVGID_55_" gradientUnits="userSpaceOnUse" x1="21.3491" y1="-81.8169" x2="21.4771" y2="-82.7915" gradientTransform="matrix(1 0 0 -1 52.3398 -2.2939)">
					<stop  offset="0" style="stop-color:#E9E7DF"/>
					<stop  offset="1" style="stop-color:#545359"/>
				</linearGradient>
				<path fill="url(#SVGID_55_)" d="M73.2,78.2C73.2,78.3,73.1,78.3,73.2,78.2c-0.3,0.4-0.4,0.7-0.4,1c0,0.1,0,0.3,0,0.3
					c0.1,0.5,0.3,0.9,0.7,1.2c0.3,0.2,0.6,0.4,1,0.4c0.1,0,0.2,0,0.3,0h0.1H75c-0.1,0-0.3,0.1-0.4,0.1c-0.1,0-0.2,0-0.3,0
					c-0.3,0-0.7-0.1-1-0.3c-0.4-0.3-0.6-0.7-0.7-1.2c0-0.1,0-0.2,0-0.4c0-0.3,0.1-0.6,0.3-0.8v-0.1C73,78.3,73.1,78.2,73.2,78.2
					L73.2,78.2z"/>
				
					<linearGradient id="SVGID_56_" gradientUnits="userSpaceOnUse" x1="20.7998" y1="-80.9238" x2="21.6741" y2="-83.0241" gradientTransform="matrix(1 0 0 -1 52.3398 -2.2939)">
					<stop  offset="0" style="stop-color:#7A7D8E"/>
					<stop  offset="1" style="stop-color:#C0BFBF"/>
				</linearGradient>
				<path fill="url(#SVGID_56_)" d="M73.2,78.2l1.7,2.9h-0.1c-0.1,0-0.2,0-0.3,0c-0.4,0-0.7-0.1-1-0.4c-0.4-0.3-0.6-0.7-0.7-1.2
					c0-0.1,0-0.2,0-0.3C72.8,78.9,72.9,78.6,73.2,78.2C73.1,78.3,73.2,78.3,73.2,78.2z"/>
				<path fill="#53535B" d="M75,81C75,81.1,75,81.1,75,81l-0.1,0.1h-0.1C74.9,81.1,74.9,81,75,81L75,81c0,0,0.1-0.1,0.2-0.1
					C75.2,81,75.1,81,75,81z"/>
				<path fill="#615E69" d="M75.5,80.9L75.5,80.9c0.2-0.2,0.4-0.3,0.5-0.4c0.1-0.2,0.2-0.4,0.3-0.6c-0.1,0.3-0.2,0.5-0.3,0.8
					c0,0,0,0,0,0.1c-0.2,0.2-0.3,0.3-0.5,0.4l-0.1-0.1l0,0C75.4,81,75.4,80.9,75.5,80.9L75.5,80.9L75.5,80.9z"/>
				<path fill="#39383D" d="M75.1,81.2V81c0.1,0,0.1,0,0.2-0.1l0,0l0.1,0.1C75.3,81.1,75.2,81.2,75.1,81.2z"/>
				<path fill="#B8C0C3" d="M75.3,81C75.3,80.9,75.3,80.9,75.3,81L75.3,81L75.3,81z M75.6,80.7L75.6,80.7
					C75.5,80.8,75.5,80.7,75.6,80.7L75.6,80.7z"/>
				<path fill="#ABB2B4" d="M73.8,78l1.8,2.8c0,0,0,0.1,0,0.2L73.8,78z"/>
				<path fill="#6C6B71" d="M75,81v0.2l0,0h-0.1v-0.1L75,81C75,81.1,75,81.1,75,81z"/>
			</g>
		</g>
	</g>
	<g>
		<g>
			
				<radialGradient id="SVGID_57_" cx="14.0884" cy="164.3301" r="3.213" gradientTransform="matrix(-0.6185 0.7858 0.2451 0.1828 2.2088 36.4354)" gradientUnits="userSpaceOnUse">
				<stop  offset="0" style="stop-color:#FFFFFF;stop-opacity:0.6902"/>
				<stop  offset="0.1725" style="stop-color:#FFFFFF;stop-opacity:0.2118"/>
				<stop  offset="0.3529" style="stop-color:#FFFFFF;stop-opacity:7.058824e-002"/>
				<stop  offset="0.8" style="stop-color:#FFFFFF;stop-opacity:0"/>
				<stop  offset="1" style="stop-color:#FAFAFA;stop-opacity:0"/>
			</radialGradient>
			<path fill="url(#SVGID_57_)" d="M35.3,76c-0.3,0.6-0.7,1.2-1.2,1.9c-0.5,0.6-1,1.1-1.5,1.5s-0.8,0.5-1,0.4
				c-0.1-0.1-0.1-0.4,0.2-1c0.2-0.5,0.6-1.1,1.1-1.8c0.6-0.7,1.1-1.2,1.5-1.6c0.5-0.4,0.8-0.5,1-0.5C35.7,75.1,35.6,75.4,35.3,76z"
				/>
		</g>
	</g>
	<g>
		
			<use xlink:href="#glow"  width="8.2" height="45.2" x="-4.1" y="-22.6" transform="matrix(0.4316 0 0 -0.3974 4 16.7661)" overflow="visible"/>
	</g>
</g>
</svg>
