<?xml version="1.0" encoding="utf-8"?>
<!-- Generator: Adobe Illustrator 16.0.0, SVG Export Plug-In . SVG Version: 6.00 Build 0)  -->
<!DOCTYPE svg PUBLIC "-//W3C//DTD SVG 1.1//EN" "http://www.w3.org/Graphics/SVG/1.1/DTD/svg11.dtd">
<svg version="1.1" id="Layer_1" xmlns="http://www.w3.org/2000/svg" xmlns:xlink="http://www.w3.org/1999/xlink" x="0px" y="0px"
	 width="115.7px" height="121px" viewBox="0 0 115.7 121" enable-background="new 0 0 115.7 121" xml:space="preserve">
<g>
	<g>
		
			<linearGradient id="SVGID_1_" gradientUnits="userSpaceOnUse" x1="-5.3169" y1="-125.8179" x2="-5.3932" y2="-107.3914" gradientTransform="matrix(1 0 0 -1 52.3398 -11.627)">
			<stop  offset="0" style="stop-color:#1C232D;stop-opacity:0"/>
			<stop  offset="1" style="stop-color:#1C232D"/>
		</linearGradient>
		<rect x="2.4" y="106.7" fill="url(#SVGID_1_)" width="89.3" height="11.8"/>
	</g>
	<g>
		
			<linearGradient id="SVGID_2_" gradientUnits="userSpaceOnUse" x1="-152.8154" y1="-140.9976" x2="-128.6187" y2="-140.9976" gradientTransform="matrix(0.995 -0.1002 -0.3462 -0.9702 182.3586 -51.4303)">
			<stop  offset="0" style="stop-color:#010101"/>
			<stop  offset="1" style="stop-color:#010101;stop-opacity:0"/>
		</linearGradient>
		<path fill="url(#SVGID_2_)" d="M3.7,100c0.2-0.5,0.9-0.7,2.2-0.7H12h91.2c1.6,0,2.7,0.3,3.4,0.7l6,5.5c-0.2,0.5-0.9,0.8-2.2,0.8
			H11.1H3.7c-0.4,0-0.8,0-1.2,0L3.7,100z"/>
	</g>
	<g>
		<g>
			
				<linearGradient id="SVGID_3_" gradientUnits="userSpaceOnUse" x1="-47.3735" y1="-105.4771" x2="37.1265" y2="-105.4771" gradientTransform="matrix(1 0 0 -1 52.3398 -11.627)">
				<stop  offset="0" style="stop-color:#747474"/>
				<stop  offset="1" style="stop-color:#2D2C2C"/>
			</linearGradient>
			<polygon fill="url(#SVGID_3_)" points="89.5,94.5 5,94.5 6.4,93.3 6.5,93.2 87.1,93.2 			"/>
			
				<linearGradient id="SVGID_4_" gradientUnits="userSpaceOnUse" x1="-6.3599" y1="-100.3081" x2="-4.3265" y2="-116.9531" gradientTransform="matrix(1 0 0 -1 52.3398 -11.627)">
				<stop  offset="0" style="stop-color:#676767"/>
				<stop  offset="0.4902" style="stop-color:#131313"/>
				<stop  offset="1" style="stop-color:#010101"/>
			</linearGradient>
			<polygon fill="url(#SVGID_4_)" points="5,94.5 89.5,94.5 89.5,102.3 4.9,102.3 4.9,94.5 			"/>
		</g>
		<g>
			
				<radialGradient id="SVGID_5_" cx="-6.2236" cy="-106.2778" r="39.588" gradientTransform="matrix(1 0 0 -1 52.3398 -11.627)" gradientUnits="userSpaceOnUse">
				<stop  offset="0" style="stop-color:#FFFFFF;stop-opacity:0.6706"/>
				<stop  offset="1" style="stop-color:#FFFFFF;stop-opacity:0"/>
			</radialGradient>
			<path fill="url(#SVGID_5_)" d="M6,94.9c0-0.1,0-0.2,0.1-0.3c0.1-0.1,0.2-0.1,0.3-0.1h81.8c0.1,0,0.2,0,0.3,0.1
				c0.1,0.1,0.2,0.2,0.2,0.3c0,0.1-0.1,0.2-0.2,0.3c-0.1,0.1-0.2,0.1-0.3,0.1H6.4c-0.1,0-0.2,0-0.3-0.1C6,95.1,6,95,6,94.9z"/>
		</g>
	</g>
	<g>
		<g>
			
				<linearGradient id="SVGID_6_" gradientUnits="userSpaceOnUse" x1="-6.4609" y1="-103.0884" x2="-4.3245" y2="-120.5831" gradientTransform="matrix(1 0 0 -1 52.3398 -11.627)">
				<stop  offset="0" style="stop-color:#676767"/>
				<stop  offset="0.4902" style="stop-color:#131313"/>
				<stop  offset="1" style="stop-color:#010101"/>
			</linearGradient>
			<polygon fill="url(#SVGID_6_)" points="2.8,97.5 91.6,97.5 91.6,105.7 2.7,105.7 2.7,97.5 			"/>
			
				<linearGradient id="SVGID_7_" gradientUnits="userSpaceOnUse" x1="-49.5737" y1="-108.4771" x2="39.2271" y2="-108.4771" gradientTransform="matrix(1 0 0 -1 52.3398 -11.627)">
				<stop  offset="0" style="stop-color:#747474"/>
				<stop  offset="1" style="stop-color:#2D2C2C"/>
			</linearGradient>
			<polygon fill="url(#SVGID_7_)" points="91.6,97.5 2.8,97.5 4.2,96.2 4.4,96.2 89.2,96.2 			"/>
		</g>
		<g>
			
				<radialGradient id="SVGID_8_" cx="-6.9736" cy="-110.0278" r="41.0254" gradientTransform="matrix(1 0 0 -1 52.3398 -11.627)" gradientUnits="userSpaceOnUse">
				<stop  offset="0" style="stop-color:#FFFFFF;stop-opacity:0.451"/>
				<stop  offset="1" style="stop-color:#FFFFFF;stop-opacity:0"/>
			</radialGradient>
			<path fill="url(#SVGID_8_)" d="M3.9,98c0-0.1,0-0.3,0.1-0.3c0.1-0.1,0.2-0.1,0.4-0.1h85.9c0.1,0,0.3,0,0.4,0.1s0.1,0.2,0.1,0.3
				c0,0.2-0.1,0.3-0.1,0.4c-0.1,0.1-0.2,0.2-0.4,0.2H4.4c-0.2,0-0.3-0.1-0.4-0.2C3.9,98.3,3.9,98.2,3.9,98z"/>
		</g>
	</g>
	<g>
		
			<linearGradient id="SVGID_9_" gradientUnits="userSpaceOnUse" x1="-429.377" y1="461.5161" x2="-429.2701" y2="472.3413" gradientTransform="matrix(0.8686 0 0 -0.8686 433.3786 418.5344)">
			<stop  offset="0" style="stop-color:#353530"/>
			<stop  offset="0.1137" style="stop-color:#625E53"/>
			<stop  offset="0.2039" style="stop-color:#C0BFBF"/>
			<stop  offset="0.2745" style="stop-color:#96998D"/>
			<stop  offset="0.4392" style="stop-color:#1D1D1B"/>
			<stop  offset="0.5216" style="stop-color:#838482"/>
			<stop  offset="0.5725" style="stop-color:#FFFFFF"/>
			<stop  offset="0.6039" style="stop-color:#EAEAEA"/>
			<stop  offset="0.651" style="stop-color:#B0B0B0"/>
			<stop  offset="0.7451" style="stop-color:#383A38"/>
			<stop  offset="0.8314" style="stop-color:#858988"/>
			<stop  offset="0.8784" style="stop-color:#B2B6B6"/>
			<stop  offset="1" style="stop-color:#A4A8A9"/>
		</linearGradient>
		<rect x="56.5" y="9.5" fill="url(#SVGID_9_)" width="8" height="7.3"/>
		
			<linearGradient id="SVGID_10_" gradientUnits="userSpaceOnUse" x1="-421.9688" y1="473.479" x2="-421.9688" y2="459.904" gradientTransform="matrix(0.8686 0 0 -0.8686 433.3786 418.5344)">
			<stop  offset="0" style="stop-color:#C0BFBF"/>
			<stop  offset="0.1451" style="stop-color:#AEAEAE"/>
			<stop  offset="0.2275" style="stop-color:#DEDEDD"/>
			<stop  offset="0.2745" style="stop-color:#A5A5A5"/>
			<stop  offset="0.3608" style="stop-color:#EAEAEA"/>
			<stop  offset="0.6157" style="stop-color:#959595"/>
			<stop  offset="0.8196" style="stop-color:#838384"/>
			<stop  offset="1" style="stop-color:#0F0F0F"/>
		</linearGradient>
		<path fill="url(#SVGID_10_)" d="M70,18c0,0.6-0.4,0.9-1.3,0.9h-4.1c-0.5-0.1-0.8-0.5-0.8-1.2V8.5c-0.1-0.6,0.2-0.9,0.7-1h4.8
			c0.4,0,0.6,0.3,0.7,0.9V18L70,18z"/>
	</g>
	<g>
		
			<linearGradient id="SVGID_11_" gradientUnits="userSpaceOnUse" x1="-23.1987" y1="-88.6772" x2="20.0513" y2="-88.6772" gradientTransform="matrix(1 0 0 -1 52.3398 -11.627)">
			<stop  offset="0" style="stop-color:#1A1A1A"/>
			<stop  offset="0.2078" style="stop-color:#131313"/>
			<stop  offset="0.4471" style="stop-color:#525252"/>
			<stop  offset="0.6353" style="stop-color:#0B0B0B"/>
			<stop  offset="1" style="stop-color:#010101"/>
		</linearGradient>
		<path fill="url(#SVGID_11_)" d="M27.4,95.3V57H64v38.4c0,0.5-1.8,0.9-5.5,1.2c-3.5,0.3-7.8,0.5-12.9,0.5c-5,0-9.4-0.2-13-0.5
			C29.1,96.2,27.4,95.8,27.4,95.3z"/>
	</g>
	<g>
		<g>
			
				<linearGradient id="SVGID_12_" gradientUnits="userSpaceOnUse" x1="-43.7729" y1="-66.4272" x2="30.0269" y2="-66.4272" gradientTransform="matrix(1 0 0 -1 52.3398 -11.627)">
				<stop  offset="0" style="stop-color:#6A6A6A"/>
				<stop  offset="1" style="stop-color:#010101"/>
			</linearGradient>
			<path fill="url(#SVGID_12_)" d="M82.4,55c-0.8,0.4-4.4,0.8-10.7,1.1c-7.3,0.4-16,0.6-26.1,0.6c-4.4,0-8.5,0-12.4-0.1
				c-5.1-0.1-9.7-0.3-13.8-0.5c-7.2-0.4-10.8-0.8-10.8-1.3s3.6-1,10.8-1.3c1.1,0,2.3-0.1,3.5-0.1l22.7-0.5c0.3,0,0.5,0,0.8,0
				l22.7,0.5c0.9,0,1.8,0.1,2.7,0.1c6.3,0.3,9.9,0.7,10.7,1.2L82.4,55L82.4,55z"/>
			
				<linearGradient id="SVGID_13_" gradientUnits="userSpaceOnUse" x1="-43.9731" y1="-70.0767" x2="30.0269" y2="-70.0767" gradientTransform="matrix(1 0 0 -1 52.3398 -11.627)">
				<stop  offset="0" style="stop-color:#010101"/>
				<stop  offset="0.102" style="stop-color:#444444"/>
				<stop  offset="0.3922" style="stop-color:#292929"/>
				<stop  offset="0.5569" style="stop-color:#676767"/>
				<stop  offset="0.7216" style="stop-color:#181818"/>
				<stop  offset="0.7765" style="stop-color:#171717"/>
				<stop  offset="1" style="stop-color:#010101"/>
			</linearGradient>
			<path fill="url(#SVGID_13_)" d="M8.6,54.8c0,0.5,3.6,1,10.8,1.3c4.1,0.2,8.8,0.4,13.8,0.5c3.9,0.1,8,0.1,12.4,0.1
				c10.2,0,18.9-0.2,26.1-0.6c6.3-0.3,9.9-0.7,10.7-1.1v5.5c-0.8,0.4-4.4,0.8-10.7,1.1c-7.3,0.4-16,0.6-26.3,0.6
				c-4.3,0-8.4,0-12.3-0.1c-5.2-0.1-9.8-0.3-14-0.5c-7.2-0.4-10.8-0.8-10.8-1.4v-5.5L8.6,54.8L8.6,54.8z"/>
		</g>
	</g>
	<g>
		
			<radialGradient id="SVGID_14_" cx="-6.9028" cy="-67.7271" r="36.9924" gradientTransform="matrix(1 0 0 -1 52.3398 -11.627)" gradientUnits="userSpaceOnUse">
			<stop  offset="0" style="stop-color:#FFFFFF;stop-opacity:0.2706"/>
			<stop  offset="1" style="stop-color:#F7F8F8;stop-opacity:0"/>
		</radialGradient>
		<path fill="url(#SVGID_14_)" d="M9,55.1c0.1,0,0.2,0,0.3,0c1.2,0.4,4.6,0.7,10.2,1c4.1,0.2,8.7,0.4,13.8,0.5
			c3.9,0.1,8,0.1,12.4,0.1c10.2,0,18.9-0.2,26.1-0.6c5.2-0.2,8.5-0.5,10-0.8c0.1-0.1,0.2,0,0.3,0c0.1,0.1,0.2,0.2,0.3,0.3
			c0.1,0.1,0,0.2,0,0.3c-0.1,0.1-0.2,0.2-0.3,0.2c-1.5,0.4-4.9,0.7-10.2,1c-7.3,0.4-16,0.5-26.1,0.5c-4.4,0-8.5,0-12.4-0.1
			c-5.1-0.1-9.7-0.3-13.8-0.5c-5.7-0.3-9.2-0.6-10.4-1c-0.1-0.1-0.2-0.2-0.3-0.3c0-0.1,0-0.2,0-0.4C8.7,55.3,8.8,55.2,9,55.1z"/>
	</g>
	<g>
		<g>
			
				<linearGradient id="SVGID_15_" gradientUnits="userSpaceOnUse" x1="-10.9487" y1="-41.5269" x2="-4.6987" y2="-41.5269" gradientTransform="matrix(1 0 0 -1 52.3398 -11.627)">
				<stop  offset="0" style="stop-color:#ADB2B1"/>
				<stop  offset="0.2863" style="stop-color:#B0B0B0"/>
				<stop  offset="0.4157" style="stop-color:#D1D2D2"/>
				<stop  offset="0.5843" style="stop-color:#AEB3B2"/>
				<stop  offset="0.6745" style="stop-color:#B2B6B6"/>
				<stop  offset="1" style="stop-color:#A0A1A0"/>
			</linearGradient>
			<path fill="url(#SVGID_15_)" d="M46.7,26.6c1.5,2.2,1.8,4.4,0.9,6.6c-0.8,0-1.7,0-2.6,0c-1.3,0-2.5,0-3.6-0.1h-0.1
				c0-2.1,0.6-4.3,1.8-6.4L46.7,26.6z"/>
			
				<linearGradient id="SVGID_16_" gradientUnits="userSpaceOnUse" x1="-6.9224" y1="-43.0205" x2="2.8016" y2="-39.3971" gradientTransform="matrix(1 0 0 -1 52.3398 -11.627)">
				<stop  offset="0" style="stop-color:#AAADAD"/>
				<stop  offset="0.2863" style="stop-color:#A0A1A0"/>
				<stop  offset="0.4627" style="stop-color:#5C5E5D"/>
				<stop  offset="0.5529" style="stop-color:#7A7E7A"/>
				<stop  offset="0.651" style="stop-color:#E1E1E1"/>
				<stop  offset="0.7529" style="stop-color:#686B6B"/>
				<stop  offset="1" style="stop-color:#A4A8A9"/>
			</linearGradient>
			<path fill="url(#SVGID_16_)" d="M47.6,33.2c0.9-2.2,0.6-4.4-0.9-6.6H52l2.4,5.7l-0.1,0.1l0,0c-0.3,0.2-1.2,0.4-2.6,0.5l0,0
				C50.4,33,49.1,33.1,47.6,33.2z"/>
			
				<linearGradient id="SVGID_17_" gradientUnits="userSpaceOnUse" x1="-16.5625" y1="-40.0962" x2="-10.3637" y2="-41.8255" gradientTransform="matrix(1 0 0 -1 52.3398 -11.627)">
				<stop  offset="0" style="stop-color:#353530"/>
				<stop  offset="0.3843" style="stop-color:#B0B0B0"/>
				<stop  offset="0.5961" style="stop-color:#EAEAEA"/>
				<stop  offset="0.7765" style="stop-color:#B2B6B6"/>
				<stop  offset="1" style="stop-color:#AFAFAF"/>
			</linearGradient>
			<path fill="url(#SVGID_17_)" d="M43.2,26.7c-1.2,2.1-1.8,4.3-1.8,6.4h-0.1c-1-0.1-2-0.1-2.8-0.3l0,0c-1.3-0.2-2.1-0.3-2.5-0.5
				l0,0h-0.2l2.1-5.5L43.2,26.7z"/>
			
				<linearGradient id="SVGID_18_" gradientUnits="userSpaceOnUse" x1="-20.8794" y1="-39.6973" x2="-2.8005" y2="-45.7855" gradientTransform="matrix(1 0 0 -1 52.3398 -11.627)">
				<stop  offset="0" style="stop-color:#353530"/>
				<stop  offset="0.1137" style="stop-color:#625E53"/>
				<stop  offset="0.2039" style="stop-color:#C0BFBF"/>
				<stop  offset="0.2745" style="stop-color:#96998D"/>
				<stop  offset="0.4392" style="stop-color:#1D1D1B"/>
				<stop  offset="0.5216" style="stop-color:#838482"/>
				<stop  offset="0.5725" style="stop-color:#FFFFFF"/>
				<stop  offset="0.6039" style="stop-color:#EAEAEA"/>
				<stop  offset="0.651" style="stop-color:#B0B0B0"/>
				<stop  offset="0.7451" style="stop-color:#383A38"/>
				<stop  offset="0.8314" style="stop-color:#858988"/>
				<stop  offset="0.8784" style="stop-color:#B2B6B6"/>
				<stop  offset="1" style="stop-color:#A4A8A9"/>
			</linearGradient>
			<path fill="url(#SVGID_18_)" d="M47.6,33.2c1.5-0.1,2.8-0.2,4-0.3l0,0c1.4-0.2,2.3-0.3,2.6-0.5l0,0c0.1,0.1,0.1,0.1,0.2,0.2
				c0,0,0,0.1-0.1,0.2c-0.3,0.2-1.1,0.4-2.6,0.6h-0.1c-1.8,0.2-4,0.3-6.6,0.3c-1.3,0-2.5,0-3.6,0c-1.1-0.1-2.1-0.2-3-0.3l0,0
				c-1.4-0.2-2.3-0.4-2.6-0.6c-0.1-0.1-0.1-0.1-0.1-0.2v-0.1v-0.2h0.2l0,0c0.3,0.2,1.2,0.4,2.5,0.5l0,0c0.9,0.1,1.8,0.2,2.8,0.3
				c0,0,0.1,0,0.2,0c1.1,0.1,2.3,0.1,3.6,0.1C46,33.2,46.8,33.2,47.6,33.2z"/>
			
				<linearGradient id="SVGID_19_" gradientUnits="userSpaceOnUse" x1="-18.5854" y1="-55.5269" x2="5.0396" y2="-55.5269" gradientTransform="matrix(1 0 0 -1 52.3398 -11.627)">
				<stop  offset="0" style="stop-color:#353530"/>
				<stop  offset="0.1137" style="stop-color:#625E53"/>
				<stop  offset="0.2039" style="stop-color:#C0BFBF"/>
				<stop  offset="0.2745" style="stop-color:#96998D"/>
				<stop  offset="0.4392" style="stop-color:#1D1D1B"/>
				<stop  offset="0.5216" style="stop-color:#838482"/>
				<stop  offset="0.5725" style="stop-color:#FFFFFF"/>
				<stop  offset="0.6039" style="stop-color:#EAEAEA"/>
				<stop  offset="0.651" style="stop-color:#B0B0B0"/>
				<stop  offset="0.7451" style="stop-color:#383A38"/>
				<stop  offset="0.8314" style="stop-color:#858988"/>
				<stop  offset="0.8784" style="stop-color:#B2B6B6"/>
				<stop  offset="1" style="stop-color:#A4A8A9"/>
			</linearGradient>
			<path fill="url(#SVGID_19_)" d="M54.3,32.3L54.3,32.3l0.2,0.1v0.1V55c-0.2,0.1-1.1,0.3-2.7,0.3c-1.2,0.1-2.5,0.2-3.9,0.2h-5.6
				c-1.5,0-2.8-0.1-3.9-0.2c-1.6-0.1-2.5-0.2-2.7-0.3V32.5c0,0,0,0.1,0.1,0.2c0.3,0.2,1.1,0.4,2.6,0.6l0,0c0.9,0.1,1.9,0.2,3,0.3
				c1.1,0,2.3,0,3.6,0c2.6,0,4.8-0.1,6.6-0.3h0.1c1.5-0.2,2.3-0.4,2.6-0.6c0.1-0.1,0.1-0.1,0.1-0.2S54.4,32.4,54.3,32.3z M41.3,33.1
				L41.3,33.1h0.2C41.4,33.1,41.3,33.1,41.3,33.1z"/>
		</g>
	</g>
	<g>
		<g>
			<path fill="#676767" d="M47.1,4.6l-0.7-0.8h12.3l1.4,0.8H47.1z M41.7,4.6H30l0.4-0.8h11.7L41.7,4.6z M46.9,13.8L46.9,13.8h-5.2
				l0.4-0.4h4.3L46.9,13.8z"/>
			<path fill="#4B4B4B" d="M42.1,13.5l-0.4,0.4l0,0V4.7l0,0l0.4-0.8l0,0V13.5L42.1,13.5z M46.9,13.8l-0.5-0.3V3.8l0.7,0.8H47
				L46.9,13.8L46.9,13.8z"/>
			
				<linearGradient id="SVGID_20_" gradientUnits="userSpaceOnUse" x1="-451.3701" y1="477.1431" x2="-442.4725" y2="447.6923" gradientTransform="matrix(0.8686 0 0 -0.8686 433.4284 419.135)">
				<stop  offset="0" style="stop-color:#474747"/>
				<stop  offset="1" style="stop-color:#030303"/>
			</linearGradient>
			<polygon fill="url(#SVGID_20_)" points="41.7,4.6 41.7,4.6 41.7,13.9 41.8,13.9 46.9,13.9 46.9,13.8 46.9,4.6 47.1,4.6 60.1,4.6 
				60.1,28.6 29.9,28.6 29.9,4.6 30,4.6 			"/>
		</g>
	</g>
</g>
</svg>
