<?xml version="1.0" encoding="utf-8"?>
<!-- Generator: Adobe Illustrator 16.0.0, SVG Export Plug-In . SVG Version: 6.00 Build 0)  -->
<!DOCTYPE svg PUBLIC "-//W3C//DTD SVG 1.1//EN" "http://www.w3.org/Graphics/SVG/1.1/DTD/svg11.dtd">
<svg version="1.1" id="Layer_1" xmlns="http://www.w3.org/2000/svg" xmlns:xlink="http://www.w3.org/1999/xlink" x="0px" y="0px"
	 width="45.3px" height="148px" viewBox="0 0 45.3 148" enable-background="new 0 0 45.3 148" xml:space="preserve">
<g>
	<g>
		
			<linearGradient id="SVGID_1_" gradientUnits="userSpaceOnUse" x1="-33.7988" y1="-125.8403" x2="-33.8752" y2="-107.4153" gradientTransform="matrix(1 0 0 -1 52.3398 14.373)">
			<stop  offset="0" style="stop-color:#1C232D;stop-opacity:0"/>
			<stop  offset="1" style="stop-color:#1C232D"/>
		</linearGradient>
		<rect x="3.2" y="132.6" fill="url(#SVGID_1_)" width="30.6" height="11.8"/>
	</g>
	<g>
		
			<linearGradient id="SVGID_2_" gradientUnits="userSpaceOnUse" x1="-478.3027" y1="-150.6499" x2="-470.3056" y2="-150.6499" gradientTransform="matrix(0.9909 -0.1344 -0.836 -0.8958 377.7062 -69.417)">
			<stop  offset="0" style="stop-color:#010101"/>
			<stop  offset="1" style="stop-color:#010101;stop-opacity:0"/>
		</linearGradient>
		<path fill="url(#SVGID_2_)" d="M37.8,129.2c0.6,0,1,0.1,1.5,0.3l3.8,2.4c0.1,0.2-0.1,0.4-0.6,0.4H7H4.4c-0.2,0-0.3,0-0.5,0
			l-1.3-2.8c-0.1-0.2,0.1-0.3,0.6-0.3h2.1H37.8L37.8,129.2z"/>
	</g>
	<g>
		<g>
			<polygon fill="#606261" points="22.1,2 32.8,2 34,3 23.6,3 			"/>
			<polygon fill="#333333" points="34,3 34,123.3 23.6,123.3 23.6,123.2 23.6,3 			"/>
			<path fill="#010101" d="M22.1,2l1.4,1v120.2v0.1l0,0l-1.3-1h-0.1V2L22.1,2z M3.6,123.3v8.6v0.1l-0.8-1.4v-8.3L3.6,123.3z"/>
			<path fill="#4F514E" d="M23.6,123.3H3.7l-0.8-1H3v-0.1c0,0.1,0,0.1,0,0.1h19h0.1h0.1L23.6,123.3z"/>
			<polygon fill="#050505" points="3.6,123.3 23.6,123.3 23.6,123.3 34,123.3 34,131.9 14.8,131.9 14.5,131.9 3.6,131.9 3.6,131.8 
							"/>
		</g>
	</g>
	<g>
		<g>
			<path fill="#1E1E1E" d="M18.3,57.1c-0.1,0.1-0.1,0.1-0.2,0.1c-0.1,0-0.2,0-0.3-0.1c-0.5-0.5-0.9-2.8-1.3-6.8
				c-0.4-4.6-0.6-10.1-0.6-16.6s0.2-12,0.6-16.6c0.4-4,0.8-6.2,1.3-6.7c0.1-0.1,0.2-0.2,0.3-0.2c0.1,0,0.1,0,0.2,0.2
				c0.5,0.5,0.9,2.7,1.3,6.7c0.2,1.6,0.3,3.3,0.4,5.1c0.2,3.4,0.3,7.3,0.3,11.5c0,4.3-0.1,8.1-0.3,11.5c-0.1,1.8-0.2,3.5-0.4,5l0,0
				C19.3,54.3,18.8,56.6,18.3,57.1z"/>
			
				<linearGradient id="SVGID_3_" gradientUnits="userSpaceOnUse" x1="-31.2158" y1="4.6855" x2="-31.2029" y2="-43.3389" gradientTransform="matrix(1 0 0 -1 52.3398 14.373)">
				<stop  offset="0" style="stop-color:#050505"/>
				<stop  offset="0.3922" style="stop-color:#040404"/>
				<stop  offset="0.4863" style="stop-color:#5A5A5A"/>
				<stop  offset="0.5647" style="stop-color:#040404"/>
				<stop  offset="1" style="stop-color:#010101"/>
			</linearGradient>
			<path fill="url(#SVGID_3_)" d="M18.3,57.1c0.5-0.5,0.9-2.8,1.3-6.8l0,0c0.2-1.6,0.3-3.3,0.4-5c0.2-3.4,0.3-7.2,0.3-11.5
				c0-4.2-0.1-8.1-0.3-11.5c-0.1-1.8-0.2-3.5-0.4-5.1c-0.3-4-0.8-6.2-1.3-6.7h3.2l0.3-0.2c0.6,0.1,1,2.4,1.5,6.9
				c0.4,4.6,0.6,10.1,0.6,16.6s-0.2,12-0.6,16.6c-0.3,4-0.8,6.3-1.3,6.8L18.3,57.1L18.3,57.1z"/>
		</g>
	</g>
	<g>
		
			<radialGradient id="SVGID_4_" cx="-603.853" cy="939.2495" r="0.9429" gradientTransform="matrix(-0.9678 0.2519 0.2386 10.4995 -788.5741 -9678.5078)" gradientUnits="userSpaceOnUse">
			<stop  offset="0" style="stop-color:#FFFFFF"/>
			<stop  offset="0.2588" style="stop-color:#FFFFFF"/>
			<stop  offset="0.3647" style="stop-color:#FDFEFF;stop-opacity:0.8902"/>
			<stop  offset="0.4588" style="stop-color:#FBFCFC;stop-opacity:0.7333"/>
			<stop  offset="0.6941" style="stop-color:#F6F6F6;stop-opacity:0.2706"/>
			<stop  offset="1" style="stop-color:#F3F3F3;stop-opacity:0"/>
		</radialGradient>
		<path fill="url(#SVGID_4_)" d="M20.5,24c0.3,1.9,0.4,4.2,0.4,6.8c0.1,2.8,0.1,5.2,0,7.2c-0.2,2-0.4,3-0.7,3
			c-0.3,0.1-0.6-0.8-0.8-2.7c-0.3-1.9-0.5-4.3-0.5-7c-0.1-2.7,0-5,0.2-7s0.4-3.1,0.7-3.1C20,21.1,20.2,22.1,20.5,24z"/>
	</g>
	<g>
		<g>
			
				<radialGradient id="SVGID_5_" cx="-614.2437" cy="885.9341" r="5.575" gradientTransform="matrix(-1 0 0 -0.8587 -585.6602 800.6221)" gradientUnits="userSpaceOnUse">
				<stop  offset="0" style="stop-color:#080808"/>
				<stop  offset="0.698" style="stop-color:#070707;stop-opacity:0.7333"/>
				<stop  offset="1" style="stop-color:#010101;stop-opacity:0"/>
			</radialGradient>
			<path fill="url(#SVGID_5_)" d="M29.3,34.8h0.2c0.2,0,0.4,0,0.6,0c1.1,0.1,2,0.6,2.8,1.5l0.1,0.1c0.7,0.7,1.1,1.5,1.3,2.4v0.1
				c0.1,0.3,0.1,0.6,0.1,0.9l0,0c0,0.3,0,0.6-0.1,0.9l0,0c0,0.3-0.1,0.5-0.2,0.8c0,0.1-0.1,0.2-0.2,0.4c-0.1,0.1-0.1,0.2-0.1,0.3
				l0,0l0,0c-0.1,0.1-0.2,0.2-0.3,0.4c-0.1,0.2-0.3,0.4-0.5,0.6l0,0h-0.1l0.2-0.2c-0.4,0.4-0.7,0.6-0.8,0.8v0.1h-0.1h-0.1
				c-0.3,0.2-0.6,0.3-0.9,0.5c-0.1,0-0.1,0.1-0.3,0.1c-0.1,0-0.1,0-0.2,0c-0.4,0.1-0.7,0.2-1.1,0.2h-0.1c0,0-0.1,0-0.2,0
				s-0.3,0-0.4,0h0.5c-1-0.1-1.9-0.1-2.6-0.2c-1.9-0.3-3.1-1.1-3.7-2.3c-0.3-0.8-0.5-1.5-0.5-2c0-1.4,0.4-2.6,1.3-3.6
				c0,0,0.1,0,0.1-0.1l0.1-0.1c0.2-0.2,0.4-0.4,0.6-0.5c0.2-0.2,0.4-0.3,0.7-0.4l0,0h0.1l2.2-0.5c0.1,0,0.3-0.1,0.5-0.1
				c0.1,0,0.1-0.1,0.2-0.1c0.1,0,0.1,0,0.2,0C28.9,34.8,29.1,34.8,29.3,34.8z"/>
		</g>
		<g>
			
				<linearGradient id="SVGID_6_" gradientUnits="userSpaceOnUse" x1="-746.7778" y1="113.9634" x2="-738.1726" y2="113.9634" gradientTransform="matrix(-3.562309e-002 -0.9994 -0.9994 3.562310e-002 114.4062 -711.0906)">
				<stop  offset="0" style="stop-color:#19141D"/>
				<stop  offset="0.2549" style="stop-color:#332D36"/>
				<stop  offset="0.5059" style="stop-color:#777078"/>
				<stop  offset="0.6784" style="stop-color:#1E151A"/>
				<stop  offset="1" style="stop-color:#3D3538"/>
			</linearGradient>
			<path fill="url(#SVGID_6_)" d="M29.6,42c0.1,0,0.3,0,0.4,0l0,0l0.4,0.1h-0.3C29.3,42,28.6,42,28,41.9c-2.2-0.4-3.5-1.5-4-3.3
				c-0.1-0.4-0.2-0.8-0.2-1c0-1.4,0.4-2.6,1.3-3.6l0.1-0.1l0.1-0.1c0.2-0.2,0.4-0.4,0.5-0.5c0.2-0.1,0.4-0.2,0.7-0.3l0,0
				c0.1,0,0.1,0,0.2,0l2.1-0.6c-0.7,0.2-1.4,0.7-1.9,1.3c-1,1-1.5,2.2-1.5,3.6c0,1.4,0.5,2.5,1.5,3.5C27.7,41.4,28.6,41.9,29.6,42
				L29.6,42z"/>
		</g>
		<g>
			<g>
				<path fill="#010101" d="M28.6,32.5c0.1,0,0.2,0,0.3,0c0.2,0,0.5,0,0.7,0h0.1l0,0c0.2,0,0.4,0,0.6,0c1.1,0.2,2,0.6,2.8,1.4
					l0.1,0.1c0.7,0.7,1.1,1.5,1.3,2.5l0,0c0,0.3,0.1,0.6,0.1,0.9v0.1c0,0.3,0,0.6-0.1,0.9v0.1c-0.1,0.3-0.1,0.5-0.3,0.8
					c0,0.1-0.1,0.2-0.1,0.3c-0.1,0.1-0.1,0.2-0.2,0.3l0,0c0,0,0,0,0,0.1c-0.1,0.1-0.2,0.3-0.3,0.4c-0.1,0.2-0.3,0.4-0.5,0.5V41H33
					c0,0-0.1,0-0.2,0.1l0.3-0.3c-0.3,0.4-0.6,0.7-0.7,0.8l0,0l0,0c-0.1,0-0.1,0-0.2,0c-0.3,0.2-0.5,0.4-0.8,0.5
					c-0.1,0-0.2,0.1-0.3,0.2c-0.1,0-0.1,0-0.2,0c-0.3,0.1-0.7,0.1-1.1,0.2h-0.1h-0.1c-0.1,0-0.3,0-0.4-0.1h-0.1c-0.1,0-0.3,0-0.4,0
					l0,0c-1-0.2-1.9-0.6-2.7-1.3c-0.9-1-1.4-2.2-1.4-3.5c0-1.4,0.5-2.6,1.4-3.6c0.6-0.6,1.3-1,2-1.2C28.2,32.7,28.3,32.7,28.6,32.5
					C28.4,32.5,28.5,32.5,28.6,32.5z M34.1,37.4c0-0.3,0-0.6-0.1-0.9c-0.2-0.8-0.6-1.6-1.3-2.3l0,0c-0.9-0.9-1.9-1.3-3.2-1.3l0,0
					c-0.3,0-0.6,0.1-0.9,0.1c-0.8,0.2-1.6,0.6-2.3,1.3c-0.9,0.9-1.3,1.9-1.3,3.2s0.4,2.3,1.3,3.2c0.7,0.7,1.4,1.1,2.3,1.2
					c0.3,0.1,0.5,0.1,0.8,0.1l0,0c0.9,0,1.8-0.3,2.5-0.8c0.2-0.1,0.5-0.3,0.7-0.5v-0.1c0.2-0.2,0.3-0.4,0.5-0.5
					c0.1-0.1,0.2-0.3,0.3-0.4c0.1-0.2,0.2-0.5,0.3-0.7c0.1-0.2,0.2-0.5,0.3-0.7C34.1,38,34.1,37.7,34.1,37.4z"/>
				
					<radialGradient id="SVGID_7_" cx="-614.5933" cy="878.6724" r="5.9622" gradientTransform="matrix(-1 0 0 -1 -585.6602 916.9736)" gradientUnits="userSpaceOnUse">
					<stop  offset="0" style="stop-color:#47464C"/>
					<stop  offset="0.549" style="stop-color:#58555C"/>
					<stop  offset="0.7569" style="stop-color:#6B6768"/>
					<stop  offset="0.8941" style="stop-color:#B3B1A7"/>
					<stop  offset="1" style="stop-color:#D2D0C3"/>
				</radialGradient>
				<path fill="url(#SVGID_7_)" d="M34.1,37.4c0,0.3,0,0.6-0.1,0.9c-0.1,0.2-0.2,0.5-0.3,0.7c-0.1,0.2-0.2,0.4-0.3,0.7
					c-0.1,0.1-0.2,0.3-0.3,0.4c-0.1,0.2-0.3,0.4-0.5,0.5v0.1c-0.2,0.2-0.5,0.4-0.7,0.5c-0.7,0.5-1.6,0.8-2.5,0.8l0,0
					c-0.3,0-0.5,0-0.8-0.1c-0.9-0.1-1.6-0.5-2.3-1.2c-0.9-0.9-1.3-1.9-1.3-3.2c0-1.2,0.4-2.3,1.3-3.2c0.7-0.7,1.4-1.1,2.3-1.3
					c0.3,0,0.6-0.1,0.9-0.1l0,0c1.3,0,2.3,0.4,3.2,1.3l0,0c0.7,0.7,1.1,1.4,1.3,2.3C34.1,36.8,34.1,37.1,34.1,37.4z"/>
			</g>
		</g>
	</g>
</g>
</svg>
