<?xml version="1.0" encoding="utf-8"?>
<!-- Generator: Adobe Illustrator 16.0.0, SVG Export Plug-In . SVG Version: 6.00 Build 0)  -->
<!DOCTYPE svg PUBLIC "-//W3C//DTD SVG 1.1//EN" "http://www.w3.org/Graphics/SVG/1.1/DTD/svg11.dtd">
<svg version="1.1" xmlns="http://www.w3.org/2000/svg" xmlns:xlink="http://www.w3.org/1999/xlink" x="0px" y="0px" width="700px"
	 height="700px" viewBox="0 0 700 700" enable-background="new 0 0 700 700" xml:space="preserve">
<g id="Layer_2">
	<linearGradient id="SVGID_1_" gradientUnits="userSpaceOnUse" x1="349.4604" y1="195.5078" x2="349.4415" y2="230.6485">
		<stop  offset="0" style="stop-color:#000000;stop-opacity:0.502"/>
		<stop  offset="1" style="stop-color:#000000;stop-opacity:0"/>
	</linearGradient>
	<rect x="-5.8" y="144.5" fill-rule="evenodd" clip-rule="evenodd" fill="url(#SVGID_1_)" width="710.4" height="140.5"/>
</g>
<g id="Layer_1">
	<g>
		<g>
			<path fill-rule="evenodd" clip-rule="evenodd" fill="#DE9869" d="M689.9,27.5h14.8v168H-5.8v-168H9v0L689.9,27.5L689.9,27.5z
				 M687,39H566.8H560V152v0.8h130v-2.9V39H687z M547,39H428h-6.8V152v0.8h131.5V39H547z M408.2,39H287.5h-6.9V152v0.8h133.3V39
				H408.2z M267.6,39H149.5h-6.8V152v0.8h130.6V39H267.6z M129.7,39H12H9v110.9v2.9h126.5V39H129.7z"/>
			<path fill-rule="evenodd" clip-rule="evenodd" fill="#9A452E" d="M689.9,149.9H687l0-0.1V39h3V149.9z M566.8,39v110.9l-0.1,0.1
				l-6.7,2V39H566.8z M547,149.9V39h5.8v113.8L547,149.9z M428,39v110.9l-0.2,0.1l-6.7,2V39H428z M408.2,149.9V39h5.8v113.8
				L408.2,149.9z M280.6,152V39h6.9v110.9l-0.1,0.1L280.6,152z M273.4,152.8l-5.7-2.9V39h5.7V152.8z M149.5,39v110.9l-0.1,0.1
				l-6.7,2V39H149.5z M135.5,152.8l-5.8-2.9V39h5.8V152.8z M12,39v110.8l-0.1,0.1H9V39H12z"/>
			<path fill-rule="evenodd" clip-rule="evenodd" fill="#946538" d="M560,152l6.7-2l0.1-0.1H687h2.9v2.9H560V152z M428,149.9h119
				l5.8,2.9H421.2V152l6.7-2L428,149.9z M273.4,152.8H142.7V152l6.7-2l0.1-0.1h118.1L273.4,152.8z M287.5,149.9h120.7l5.8,2.9H280.6
				V152l6.8-2L287.5,149.9z M129.7,149.9l5.8,2.9H9v-2.9h2.9h72.6v-0.2l11.2,0.1v0.1H129.7z"/>
			<linearGradient id="SVGID_2_" gradientUnits="userSpaceOnUse" x1="349.4502" y1="87.9624" x2="349.4502" y2="45.2374">
				<stop  offset="0" style="stop-color:#C9805B"/>
				<stop  offset="1" style="stop-color:#A0603D"/>
			</linearGradient>
			<path fill-rule="evenodd" clip-rule="evenodd" fill="url(#SVGID_2_)" d="M566.8,149.9V39H687v110.8l0,0.1H566.8z M547,149.9H428
				V39h119V149.9z M287.5,149.9V39h120.7v110.9H287.5z M267.6,149.9H149.5V39h118.1V149.9z M129.7,39v110.9h-34v-0.1l-11.2-0.1v0.2
				H11.9l0.1-0.1V39H129.7z"/>
		</g>
	</g>
	<g>
		<linearGradient id="SVGID_3_" gradientUnits="userSpaceOnUse" x1="626.0996" y1="168.75" x2="626.0996" y2="199.75">
			<stop  offset="0" style="stop-color:#BB7551"/>
			<stop  offset="1" style="stop-color:#DED1C9"/>
		</linearGradient>
		<rect x="566.3" y="157.5" fill-rule="evenodd" clip-rule="evenodd" fill="url(#SVGID_3_)" width="119.7" height="33.5"/>
	</g>
	<g>
		<linearGradient id="SVGID_4_" gradientUnits="userSpaceOnUse" x1="486.0996" y1="168.75" x2="486.0996" y2="199.75">
			<stop  offset="0" style="stop-color:#BB7551"/>
			<stop  offset="1" style="stop-color:#DED1C9"/>
		</linearGradient>
		<rect x="426.3" y="157.5" fill-rule="evenodd" clip-rule="evenodd" fill="url(#SVGID_4_)" width="119.7" height="33.5"/>
	</g>
	<g>
		<linearGradient id="SVGID_5_" gradientUnits="userSpaceOnUse" x1="347.6001" y1="168.75" x2="347.6001" y2="199.75">
			<stop  offset="0" style="stop-color:#BB7551"/>
			<stop  offset="1" style="stop-color:#DED1C9"/>
		</linearGradient>
		<rect x="287.8" y="157.5" fill-rule="evenodd" clip-rule="evenodd" fill="url(#SVGID_5_)" width="119.7" height="33.5"/>
	</g>
	<g>
		<linearGradient id="SVGID_6_" gradientUnits="userSpaceOnUse" x1="207.1001" y1="168.75" x2="207.1001" y2="199.75">
			<stop  offset="0" style="stop-color:#BB7551"/>
			<stop  offset="1" style="stop-color:#DED1C9"/>
		</linearGradient>
		<rect x="147.3" y="157.5" fill-rule="evenodd" clip-rule="evenodd" fill="url(#SVGID_6_)" width="119.7" height="33.5"/>
	</g>
	<g>
		<linearGradient id="SVGID_7_" gradientUnits="userSpaceOnUse" x1="70.6001" y1="168.75" x2="70.6001" y2="199.75">
			<stop  offset="0" style="stop-color:#BB7551"/>
			<stop  offset="1" style="stop-color:#DED1C9"/>
		</linearGradient>
		<rect x="10.8" y="157.5" fill-rule="evenodd" clip-rule="evenodd" fill="url(#SVGID_7_)" width="119.7" height="33.5"/>
	</g>
	<g>
		<path fill-rule="evenodd" clip-rule="evenodd" fill="#4B2F1F" d="M684.5,189h-117v-30h117V189z M544,189H427v-30h117V189z
			 M405.5,189h-117v-30h117V189z M265.5,189h-117v-30h117V189z M12,159h117v30H12V159z"/>
	</g>
</g>
</svg>
