<?xml version="1.0" encoding="utf-8"?>
<!-- Generator: Adobe Illustrator 16.0.0, SVG Export Plug-In . SVG Version: 6.00 Build 0)  -->
<!DOCTYPE svg PUBLIC "-//W3C//DTD SVG 1.1//EN" "http://www.w3.org/Graphics/SVG/1.1/DTD/svg11.dtd">
<svg version="1.1" id="Layer_2" xmlns="http://www.w3.org/2000/svg" xmlns:xlink="http://www.w3.org/1999/xlink" x="0px" y="0px"
	 width="700px" height="700px" viewBox="0 0 700 700" enable-background="new 0 0 700 700" xml:space="preserve">
<symbol  id="obj1-top" viewBox="-23.5 -26.9 47 53.8">
	<g id="Layer_3_1_">
		<polygon fill="#696D6E" points="23.5,-26.9 -23.5,-26.9 -23.5,26.9 23.5,26.9 		"/>
	</g>
</symbol>
<g id="Layer_2_1_">
	<g>
		<g>
			<g>
				<g>
					<rect x="223.1" y="411.6" fill="#28292D" width="1.1" height="93.6"/>
					
						<linearGradient id="SVGID_1_" gradientUnits="userSpaceOnUse" x1="502.1016" y1="83.2549" x2="598.0352" y2="83.2549" gradientTransform="matrix(0.3784 0.9256 -0.799 0.6881 105.3014 -141.8455)">
						<stop  offset="0" style="stop-color:#7E8387"/>
						<stop  offset="0.5961" style="stop-color:#4A4E51"/>
						<stop  offset="1" style="stop-color:#262626"/>
					</linearGradient>
					<rect x="224.3" y="411.6" fill="url(#SVGID_1_)" width="72.9" height="93.6"/>
				</g>
			</g>
		</g>
		<g>
			<g>
				
					<use xlink:href="#obj1-top"  width="47" height="53.8" x="-23.5" y="-26.9" transform="matrix(0.7581 0 0 -0.7581 220.6821 443.7344)" overflow="visible"/>
			</g>
		</g>
		<g>
			<g>
				<g>
					<rect x="223.6" y="411" fill="#28292D" width="1.1" height="93.6"/>
					
						<linearGradient id="SVGID_2_" gradientUnits="userSpaceOnUse" x1="502.0254" y1="82.3799" x2="597.9489" y2="82.3799" gradientTransform="matrix(0.3782 0.9257 -0.799 0.6884 105.3014 -141.8456)">
						<stop  offset="0" style="stop-color:#7E8387"/>
						<stop  offset="0.5961" style="stop-color:#4A4E51"/>
						<stop  offset="1" style="stop-color:#262626"/>
					</linearGradient>
					<rect x="224.8" y="411" fill="url(#SVGID_2_)" width="73" height="93.6"/>
				</g>
			</g>
		</g>
		<g>
			<g>
				<g>
					<g>
						
							<linearGradient id="SVGID_3_" gradientUnits="userSpaceOnUse" x1="-161.5952" y1="-528.6201" x2="-147.1452" y2="-528.6201" gradientTransform="matrix(-1 0 0 -1 106.6797 -140.9199)">
							<stop  offset="0" style="stop-color:#758793"/>
							<stop  offset="8.627451e-002" style="stop-color:#A8C1D5"/>
							<stop  offset="0.1961" style="stop-color:#FFFFFF"/>
							<stop  offset="0.3843" style="stop-color:#9FB1BD"/>
							<stop  offset="0.6118" style="stop-color:#4E525D"/>
							<stop  offset="0.7725" style="stop-color:#454752"/>
							<stop  offset="1" style="stop-color:#07090A"/>
						</linearGradient>
						<rect x="254.6" y="377.4" fill="url(#SVGID_3_)" width="14.7" height="20.6"/>
					</g>
					<g>
						
							<linearGradient id="SVGID_4_" gradientUnits="userSpaceOnUse" x1="-161.2451" y1="-459.1699" x2="-146.795" y2="-459.1699" gradientTransform="matrix(-1 0 0 -1 106.6797 -140.9199)">
							<stop  offset="0" style="stop-color:#758793"/>
							<stop  offset="8.627451e-002" style="stop-color:#A8C1D5"/>
							<stop  offset="0.1961" style="stop-color:#FFFFFF"/>
							<stop  offset="0.3843" style="stop-color:#9FB1BD"/>
							<stop  offset="0.6118" style="stop-color:#4E525D"/>
							<stop  offset="0.7725" style="stop-color:#454752"/>
							<stop  offset="1" style="stop-color:#07090A"/>
						</linearGradient>
						<path fill="url(#SVGID_4_)" d="M268.9,312.5c0,0.1,0.1,0.1,0.1,0.1v12.9h-14.7v-12.9c0.1-0.4,0.9-0.8,2.2-1.1
							c1.4-0.4,3.1-0.5,5.1-0.5s3.8,0.2,5.2,0.5C268,311.8,268.7,312.1,268.9,312.5z"/>
					</g>
					<g>
						<g>
							<g>
								
									<linearGradient id="SVGID_5_" gradientUnits="userSpaceOnUse" x1="-167.4702" y1="-471.5825" x2="-143.0452" y2="-471.5825" gradientTransform="matrix(-1 0 0 -1 106.6797 -140.9199)">
									<stop  offset="0" style="stop-color:#758793"/>
									<stop  offset="8.627451e-002" style="stop-color:#A8C1D5"/>
									<stop  offset="0.1961" style="stop-color:#FFFFFF"/>
									<stop  offset="0.3843" style="stop-color:#9FB1BD"/>
									<stop  offset="0.8471" style="stop-color:#363741"/>
									<stop  offset="1" style="stop-color:#8A7D89"/>
								</linearGradient>
								<path fill="url(#SVGID_5_)" d="M274.1,344.3c-0.7-0.1-1.4-0.1-2.1-0.1c-7.5-1-14.2-1.1-19.9-0.1c-0.8,0.1-1.6,0.2-2.4,0.3
									v-23.8c0-0.9,0.3-1.6,1-2c1.1-0.4,2.4-0.8,3.9-1.1l1.5-0.2l0,0c3.6-0.5,7.2-0.5,10.9,0c2.4,0.3,4.2,0.6,5.5,0.9
									c0.9,0.2,1.4,0.8,1.6,1.8V344.3z"/>
								
									<linearGradient id="SVGID_6_" gradientUnits="userSpaceOnUse" x1="-166.4702" y1="-494.6201" x2="-144.0452" y2="-494.6201" gradientTransform="matrix(-1 0 0 -1 106.6797 -140.9199)">
									<stop  offset="0" style="stop-color:#758793"/>
									<stop  offset="8.627451e-002" style="stop-color:#A8C1D5"/>
									<stop  offset="0.1961" style="stop-color:#FFFFFF"/>
									<stop  offset="0.3843" style="stop-color:#9FB1BD"/>
									<stop  offset="0.8471" style="stop-color:#363741"/>
									<stop  offset="1" style="stop-color:#8A7D89"/>
								</linearGradient>
								<path fill="url(#SVGID_6_)" d="M250.7,346L250.7,346c7.3-0.8,14.6-0.8,22,0h0.4v16h-22.4V346z"/>
								
									<linearGradient id="SVGID_7_" gradientUnits="userSpaceOnUse" x1="-212.0557" y1="-470.1309" x2="-189.193" y2="-470.1309" gradientTransform="matrix(-0.996 -8.900744e-002 8.900744e-002 -0.996 106.6753 -140.8309)">
									<stop  offset="0" style="stop-color:#758793"/>
									<stop  offset="8.627451e-002" style="stop-color:#A8C1D5"/>
									<stop  offset="0.2431" style="stop-color:#FFFFFF"/>
									<stop  offset="0.3686" style="stop-color:#9FB1BD"/>
									<stop  offset="0.7529" style="stop-color:#363741"/>
									<stop  offset="1" style="stop-color:#8A7D89"/>
								</linearGradient>
								<path fill="url(#SVGID_7_)" d="M274.1,344.3v0.3l-1,1.3v0.1h-0.4c-7.4-0.8-14.7-0.8-22,0l0,0v-0.5l-1-1.2
									c0.8-0.1,1.6-0.2,2.4-0.3c5.7-1,12.4-1,19.9,0.1C272.8,344.1,273.5,344.2,274.1,344.3z"/>
								
									<linearGradient id="SVGID_8_" gradientUnits="userSpaceOnUse" x1="-166.4702" y1="-512.0698" x2="-144.0452" y2="-512.0698" gradientTransform="matrix(-1 0 0 -1 106.6797 -140.9199)">
									<stop  offset="0" style="stop-color:#758793"/>
									<stop  offset="8.627451e-002" style="stop-color:#A8C1D5"/>
									<stop  offset="0.1961" style="stop-color:#FFFFFF"/>
									<stop  offset="0.3843" style="stop-color:#9FB1BD"/>
									<stop  offset="0.8471" style="stop-color:#363741"/>
									<stop  offset="1" style="stop-color:#8A7D89"/>
								</linearGradient>
								<path fill="url(#SVGID_8_)" d="M273.1,362v18.3c-0.4,0-0.8-0.1-1.2-0.1c-0.1,0-0.1,0-0.2,0c-6.8-0.5-13.2-0.5-19.2,0h-0.1
									c-0.4,0-0.9,0.1-1.4,0.1c-0.1-0.5-0.2-1.1-0.3-1.7l-0.1-0.4V362H273.1z"/>
								
									<linearGradient id="SVGID_9_" gradientUnits="userSpaceOnUse" x1="-212.9697" y1="-506.4287" x2="-194.2105" y2="-506.4287" gradientTransform="matrix(-0.9956 -9.326875e-002 9.326875e-002 -0.9956 106.6734 -140.8271)">
									<stop  offset="0" style="stop-color:#D1D9DF"/>
									<stop  offset="8.627451e-002" style="stop-color:#798C99"/>
									<stop  offset="0.2431" style="stop-color:#FFFFFF"/>
									<stop  offset="0.3686" style="stop-color:#9FB1BD"/>
									<stop  offset="0.6275" style="stop-color:#ACB0B9"/>
									<stop  offset="0.7529" style="stop-color:#696B7C"/>
									<stop  offset="0.8706" style="stop-color:#363741"/>
									<stop  offset="1" style="stop-color:#857985"/>
								</linearGradient>
								<path fill="url(#SVGID_9_)" d="M273.1,380.3v0.3c-0.4,1.3-0.9,2.4-1.4,3.1c-0.1,0.1-0.1,0.2-0.2,0.3v0.1v0.1
									c-0.1,0.1-0.2,0.3-0.3,0.3c-6.3-0.3-12.4-0.3-18.2,0.1c-0.9-1.1-1.5-2.5-2-4.3c0.5-0.1,0.9-0.1,1.4-0.1c0.1,0,0.1,0,0.1,0
									c6-0.5,12.4-0.5,19.2,0c0.1,0,0.1,0,0.2,0C272.4,380.2,272.8,380.3,273.1,380.3z"/>
							</g>
						</g>
						<g>
							<path fill="none" d="M272.5,346.2c-7.3-1.1-14.4-1.1-21.4-0.1"/>
						</g>
						<g>
							
								<linearGradient id="SVGID_10_" gradientUnits="userSpaceOnUse" x1="-167.4702" y1="-471.4824" x2="-143.0452" y2="-471.4824" gradientTransform="matrix(-1 0 0 -1 106.6797 -140.9199)">
								<stop  offset="0" style="stop-color:#758793;stop-opacity:0.7804"/>
								<stop  offset="8.627451e-002" style="stop-color:#A8C1D5;stop-opacity:0.7529"/>
								<stop  offset="0.1961" style="stop-color:#FFFFFF;stop-opacity:0.6824"/>
								<stop  offset="0.251" style="stop-color:#9FB1BD;stop-opacity:0.3608"/>
								<stop  offset="0.4549" style="stop-color:#54585D;stop-opacity:0.6667"/>
								<stop  offset="0.6588" style="stop-color:#343134;stop-opacity:0.7608"/>
								<stop  offset="0.8235" style="stop-color:#000000;stop-opacity:0.8706"/>
								<stop  offset="1" style="stop-color:#726D78;stop-opacity:0.9725"/>
							</linearGradient>
							<path fill="url(#SVGID_10_)" d="M256.1,317.2L256.1,317.2c3.6-0.5,7.3-0.5,10.9,0c2.5,0.3,4.4,0.6,5.7,1v1.9h1.4v24.1
								c-0.7-0.1-1.4-0.1-2.1-0.1c-7.5-1-14.2-1.1-19.9-0.1c-0.8,0.1-1.6,0.2-2.4,0.3v-23.8c0.1-1.1,0.5-1.9,1.4-2.2
								c1.1-0.3,2.3-0.6,3.5-0.9L256.1,317.2z"/>
						</g>
						<g>
							<g>
								
									<linearGradient id="SVGID_11_" gradientUnits="userSpaceOnUse" x1="67.7866" y1="479.1826" x2="86.2326" y2="479.1826" gradientTransform="matrix(0.9854 -0.1705 0.1705 0.9854 104.6931 -140.749)">
									<stop  offset="0" style="stop-color:#3C3C3C;stop-opacity:0.4706"/>
									<stop  offset="0.4863" style="stop-color:#404040"/>
									<stop  offset="1" style="stop-color:#FFFFFF"/>
								</linearGradient>
								<path fill="url(#SVGID_11_)" d="M273,318.2c0.1,0.1,0.1,0.2,0,0.3c0,0.1,0,0.2-0.1,0.2c-0.1,0.1-0.1,0.1-0.3,0
									c-8.5-1.6-15.1-1.6-19.9,0c-0.1,0-0.1,0-0.3,0c-0.1-0.1-0.2-0.1-0.2-0.2s0-0.2,0-0.3c0.1-0.1,0.1-0.2,0.2-0.2
									c4.9-1.7,11.6-1.7,20.3,0C272.9,318.1,273,318.1,273,318.2z"/>
								
									<linearGradient id="SVGID_12_" gradientUnits="userSpaceOnUse" x1="-164.2954" y1="-484.1455" x2="-145.8454" y2="-484.1455" gradientTransform="matrix(-1 0 0 -1 106.6797 -140.9199)">
									<stop  offset="0" style="stop-color:#FFFFFF;stop-opacity:0"/>
									<stop  offset="0.4863" style="stop-color:#FFFFFF"/>
									<stop  offset="1" style="stop-color:#FFFFFF;stop-opacity:0"/>
								</linearGradient>
								<path fill="url(#SVGID_12_)" d="M271.6,343.2c0.1,0.1,0.1,0.1,0.1,0.3c0,0.1,0,0.2-0.1,0.3c-0.1,0.1-0.1,0.1-0.3,0.1
									c-6.7-0.6-13.3-0.6-20,0c-0.1,0-0.2,0-0.3-0.1c-0.1-0.1-0.1-0.2-0.1-0.3s0-0.2,0-0.3c0.1-0.1,0.2-0.2,0.3-0.2
									c6.7-0.6,13.4-0.6,20.1,0C271.5,343,271.6,343.1,271.6,343.2z"/>
							</g>
						</g>
						<g>
							<g>
								
									<linearGradient id="SVGID_13_" gradientUnits="userSpaceOnUse" x1="-166.2827" y1="-494.9697" x2="-164.2577" y2="-494.9697" gradientTransform="matrix(-1 0 0 -1 106.6797 -140.9199)">
									<stop  offset="0" style="stop-color:#FFFFFF;stop-opacity:0"/>
									<stop  offset="0.5216" style="stop-color:#FFFFFF"/>
									<stop  offset="1" style="stop-color:#FFFFFF;stop-opacity:0"/>
								</linearGradient>
								<polygon fill="url(#SVGID_13_)" points="273,362 270,362 270,346.1 273.1,346.6 								"/>
								
									<linearGradient id="SVGID_14_" gradientUnits="userSpaceOnUse" x1="-166.2827" y1="-508.0698" x2="-164.2577" y2="-508.0698" gradientTransform="matrix(-1 0 0 -1 106.6797 -140.9199)">
									<stop  offset="0" style="stop-color:#FFFFFF;stop-opacity:0"/>
									<stop  offset="0.5216" style="stop-color:#FFFFFF"/>
									<stop  offset="1" style="stop-color:#FFFFFF;stop-opacity:0"/>
								</linearGradient>
								<polygon fill="url(#SVGID_14_)" points="270,372.3 270,362 273,362 273,372.3 								"/>
								
									<linearGradient id="SVGID_15_" gradientUnits="userSpaceOnUse" x1="-167.2329" y1="-471.9702" x2="-165.2079" y2="-471.9702" gradientTransform="matrix(-1 0 0 -1 106.6797 -140.9199)">
									<stop  offset="0" style="stop-color:#FFFFFF;stop-opacity:0"/>
									<stop  offset="0.5216" style="stop-color:#FFFFFF"/>
									<stop  offset="1" style="stop-color:#FFFFFF;stop-opacity:0"/>
								</linearGradient>
								<polygon fill="url(#SVGID_15_)" points="273.9,343.7 271,343.5 271,318.4 273.9,318.9 								"/>
								
									<linearGradient id="SVGID_16_" gradientUnits="userSpaceOnUse" x1="-166.2827" y1="-516.9697" x2="-164.2577" y2="-516.9697" gradientTransform="matrix(-1 0 0 -1 106.6797 -140.9199)">
									<stop  offset="0" style="stop-color:#FFFFFF;stop-opacity:0"/>
									<stop  offset="0.5216" style="stop-color:#FFFFFF"/>
									<stop  offset="1" style="stop-color:#FFFFFF;stop-opacity:0"/>
								</linearGradient>
								<polygon fill="url(#SVGID_16_)" points="273,372.3 272.9,379.8 270,379.3 270,372.3 								"/>
							</g>
						</g>
						<g>
							
								<radialGradient id="SVGID_17_" cx="126.6748" cy="-536.6025" r="7.3313" gradientTransform="matrix(0.9987 -5.035605e-002 -1.211544e-002 -0.2403 124.7307 256.7805)" gradientUnits="userSpaceOnUse">
								<stop  offset="0" style="stop-color:#FFFFFF"/>
								<stop  offset="0.1882" style="stop-color:#FBFBFB"/>
								<stop  offset="0.3216" style="stop-color:#F9F9F9;stop-opacity:0.3529"/>
								<stop  offset="0.4902" style="stop-color:#F7F7F7;stop-opacity:0.1725"/>
								<stop  offset="0.6745" style="stop-color:#F5F5F5;stop-opacity:0"/>
								<stop  offset="1" style="stop-color:#EFEFEF;stop-opacity:0"/>
							</radialGradient>
							<path fill="url(#SVGID_17_)" d="M252.7,378.4c1.4-0.4,3-0.6,4.9-0.8c2-0.1,3.6,0,5,0.3c1.4,0.2,2.1,0.6,2.1,1.1
								c0,0.4-0.6,0.8-2,1.3c-1.3,0.4-3,0.7-4.9,0.8c-2,0.1-3.6,0-5.1-0.3c-1.4-0.2-2.1-0.6-2.1-1
								C250.7,379.2,251.3,378.8,252.7,378.4z"/>
						</g>
						<g>
							
								<linearGradient id="SVGID_18_" gradientUnits="userSpaceOnUse" x1="-164.6953" y1="-520.6699" x2="-146.2453" y2="-520.6699" gradientTransform="matrix(-1 0 0 -1 106.6797 -140.9199)">
								<stop  offset="0" style="stop-color:#FFFFFF;stop-opacity:0"/>
								<stop  offset="0.4863" style="stop-color:#FFFFFF"/>
								<stop  offset="1" style="stop-color:#FFFFFF;stop-opacity:0"/>
							</linearGradient>
							<path fill="url(#SVGID_18_)" d="M271.8,380.3c-6.8-0.5-13.2-0.5-19.2,0h-0.1c0,0-0.1,0-0.1-0.1c-0.1-0.1-0.1-0.1-0.1-0.3
								c0-0.1,0-0.2,0.1-0.3c0-0.1,0.1-0.1,0.2-0.1c6.1-0.4,12.5-0.4,19.3,0c0.1,0,0.2,0,0.3,0.1c0.1,0.1,0.1,0.2,0.1,0.3
								c0,0.1,0,0.2-0.1,0.3l-0.1,0.1C271.9,380.2,271.8,380.3,271.8,380.3z"/>
						</g>
					</g>
					<g>
						<g>
							<path fill-opacity="0.4" d="M271.7,366.9C271.7,366.9,271.8,366.9,271.7,366.9c0.1,0,0.2,0,0.2,0v0.1v3.9v0.1h-0.1h-0.1v-0.1
								V366.9L271.7,366.9z M273,366.9h0.1v0.1v3.9v0.1H273h-0.1v-0.1V367v-0.1H273z M269.2,366.9
								C269.2,366.9,269.3,366.9,269.2,366.9C269.3,367,269.3,367,269.2,366.9l0.1,4v0.1h-0.1h-0.1v-0.1V367v-0.1H269.2z
								 M270.3,366.9h0.1h0.1v0.1v3.9v0.1h-0.1h-0.1v-0.1V366.9L270.3,366.9z M266.5,366.9h0.1v0.1v3.9v0.1h-0.1h-0.1v-0.1V367v-0.1
								H266.5z M267.8,366.9h0.1h0.1v0.1v5.4v0.1h-0.1h-0.1v-0.1V366.9C267.7,367,267.7,366.9,267.8,366.9z M263.9,366.9h0.1v0.1
								v3.9v0.1h-0.1h-0.1v-0.1V367v-0.1C263.8,366.9,263.8,366.9,263.9,366.9z M265.1,366.9h0.1h0.1v0.1v3.9v0.1h-0.1h-0.1v-0.1
								V366.9L265.1,366.9z M262.6,366.9h0.1v0.1v3.9v0.1h-0.1h-0.1v-0.1V367v-0.1C262.6,366.9,262.6,366.9,262.6,366.9z
								 M261.4,366.9h0.1v0.1v5.4v0.1h-0.1h-0.1v-0.1V367v-0.1C261.3,366.9,261.3,366.9,261.4,366.9z M259.9,366.9h0.1h0.1v0.1v3.9
								v0.1H260h-0.1v-0.1V366.9C259.8,367,259.8,366.9,259.9,366.9z M258.6,366.9h0.1h0.1v0.1v3.9v0.1h-0.1h-0.1v-0.1V366.9
								L258.6,366.9z M257.4,366.9h0.1v0.1v3.9v0.1h-0.1h-0.1v-0.1V367v-0.1H257.4z M256.1,366.9h0.1v0.1v3.9v0.1h-0.1H256v-0.1V367
								v-0.1C256.1,366.9,256.1,366.9,256.1,366.9z M253.2,366.9C253.2,366.9,253.3,366.9,253.2,366.9c0.1,0,0.2,0,0.2,0v0.1v3.9
								v0.1h-0.1h-0.1v-0.1V366.9L253.2,366.9L253.2,366.9z M254.6,366.9h0.1h0.1v0.1v5.4v0.1h-0.1h-0.1v-0.1V366.9L254.6,366.9z
								 M252.1,366.9h0.1v0.1v3.9v0.1h-0.1H252v-0.1V367v-0.1H252.1z M250.7,366.9C250.7,366.9,250.8,366.9,250.7,366.9
								C250.8,367,250.8,367,250.7,366.9l0.1,4v0.1h-0.1h-0.1v-0.1V367v-0.1H250.7z"/>
							<path fill-opacity="0.702" d="M266.9,374.1c0,0.1,0.1,0.2,0.1,0.3c0.1,0.1,0.2,0.1,0.3,0.1c0.1,0,0.2,0,0.3-0.1
								c0.1-0.1,0.1-0.1,0.1-0.3c0-0.1,0-0.1,0-0.2c0-0.1-0.1-0.1-0.1-0.1v-0.2l1,0.2v0.9h-0.3v-0.8l-0.5-0.1
								c0.1,0.1,0.1,0.2,0.1,0.4s-0.1,0.3-0.2,0.4c-0.1,0.1-0.2,0.2-0.4,0.2c-0.2,0-0.3-0.1-0.4-0.2c-0.2-0.1-0.3-0.3-0.3-0.4
								c0-0.2,0-0.3,0.1-0.4c0.1-0.1,0.2-0.2,0.4-0.2l0,0v0.3c-0.1,0-0.2,0-0.3,0.1C266.9,373.9,266.9,374,266.9,374.1z
								 M260.5,373.7c0.2-0.1,0.4-0.2,0.7-0.2h0.1c0.2,0,0.4,0,0.5,0c0.1,0.1,0.2,0.1,0.3,0.2c0.1,0.1,0.1,0.2,0.1,0.4
								c0,0.1,0,0.2,0,0.3c0,0.1-0.1,0.2-0.2,0.2c-0.1,0.1-0.1,0.1-0.3,0.1c-0.1,0-0.3,0.1-0.5,0.1c-0.2,0-0.4,0-0.5-0.1
								c-0.1-0.1-0.3-0.1-0.3-0.2c-0.1-0.1-0.1-0.2-0.1-0.4C260.4,373.9,260.4,373.8,260.5,373.7z M260.5,374.1
								c0,0.1,0.1,0.2,0.2,0.3c0.1,0.1,0.3,0.1,0.6,0.1c0.3,0,0.5,0,0.6-0.1c0.1-0.1,0.1-0.1,0.1-0.3c0-0.2,0-0.2-0.1-0.3
								c-0.1-0.1-0.4-0.1-0.7-0.1c-0.3,0-0.5,0-0.6,0.1C260.6,373.9,260.5,374,260.5,374.1z M254.3,373.5l1.3,0.9v0.1h-1.3v0.3H254
								v-0.3h-0.4v-0.2h0.4v-0.8H254.3z M254.8,375.3c0.1,0.1,0.1,0.2,0.1,0.4s-0.1,0.3-0.1,0.4c-0.1,0.1-0.3,0.2-0.5,0.2
								c-0.2,0-0.3-0.1-0.5-0.2c-0.1-0.1-0.2-0.3-0.2-0.4c0-0.2,0-0.3,0.1-0.4c0.1-0.1,0.2-0.2,0.4-0.2v0.3c-0.1,0-0.2,0-0.3,0.1
								c-0.1,0.1-0.1,0.1-0.1,0.3s0,0.2,0.1,0.3c0.1,0.1,0.2,0.1,0.4,0.1c0.1,0,0.2,0,0.3-0.1c0.1-0.1,0.1-0.1,0.1-0.3
								c0-0.1,0-0.1,0-0.2c0-0.1-0.1-0.1-0.1-0.1V375l1,0.2v0.9h-0.2v-0.8H254.8L254.8,375.3z M255.1,374.3l-0.9-0.6v0.6H255.1z"/>
						</g>
					</g>
				</g>
				<g>
					<g>
						<rect x="241.6" y="391.3" fill="#696D6E" width="40.8" height="35.7"/>
					</g>
					<g>
						
							<linearGradient id="SVGID_19_" gradientUnits="userSpaceOnUse" x1="157.3203" y1="533.207" x2="157.3203" y2="544.1321" gradientTransform="matrix(1 0 0 1 104.6797 -140.9199)">
							<stop  offset="0" style="stop-color:#060606"/>
							<stop  offset="1" style="stop-color:#000000;stop-opacity:0"/>
						</linearGradient>
						<rect x="241.6" y="391.3" fill="url(#SVGID_19_)" width="40.8" height="35.7"/>
					</g>
					<g>
						<g>
							<path d="M258.3,389.4h6.2v32.5c-2.1,3-4.1,3-6.2,0V389.4z"/>
						</g>
						<g>
							
								<linearGradient id="SVGID_20_" gradientUnits="userSpaceOnUse" x1="161.1704" y1="547.7451" x2="153.9703" y2="547.7451" gradientTransform="matrix(1 0 0 1 104.6797 -140.9199)">
								<stop  offset="0" style="stop-color:#5C7381"/>
								<stop  offset="0.1137" style="stop-color:#A8C1D5"/>
								<stop  offset="0.3176" style="stop-color:#FFFFFF"/>
								<stop  offset="0.4392" style="stop-color:#9FB1BD"/>
								<stop  offset="0.7098" style="stop-color:#4E525D"/>
								<stop  offset="0.9412" style="stop-color:#17181C"/>
								<stop  offset="1" style="stop-color:#454752"/>
								<stop  offset="1" style="stop-color:#464954"/>
							</linearGradient>
							<path fill="url(#SVGID_20_)" d="M259.6,389.4h6.1V422c-2.1,3-4.1,3-6.1,0V389.4z"/>
						</g>
						<g>
							
								<radialGradient id="SVGID_21_" cx="476.6172" cy="480.7676" r="6.7267" gradientTransform="matrix(-4.371139e-008 1 -0.7918 -3.461162e-008 644.3781 -58.3196)" gradientUnits="userSpaceOnUse">
								<stop  offset="0" style="stop-color:#5D7482;stop-opacity:0"/>
								<stop  offset="0.349" style="stop-color:#2E3239;stop-opacity:0"/>
								<stop  offset="0.9412" style="stop-color:#17181C"/>
								<stop  offset="1" style="stop-color:#454752"/>
								<stop  offset="1" style="stop-color:#464954"/>
							</radialGradient>
							<path fill="url(#SVGID_21_)" d="M259.6,421.9v-0.2c2.3-0.6,4.3-0.5,6.1,0.2C263.7,424.9,261.6,424.9,259.6,421.9z"/>
						</g>
					</g>
					<g>
						
							<radialGradient id="SVGID_22_" cx="195.6538" cy="913.9385" r="2.5772" gradientTransform="matrix(0.9943 0.1067 -2.425100e-002 0.3735 91.6789 59.2769)" gradientUnits="userSpaceOnUse">
							<stop  offset="0" style="stop-color:#FFFFFF"/>
							<stop  offset="0.1882" style="stop-color:#FBFBFB"/>
							<stop  offset="0.3216" style="stop-color:#F9F9F9;stop-opacity:0.3529"/>
							<stop  offset="0.4902" style="stop-color:#F7F7F7;stop-opacity:0.1725"/>
							<stop  offset="0.6745" style="stop-color:#F5F5F5;stop-opacity:0"/>
							<stop  offset="1" style="stop-color:#EFEFEF;stop-opacity:0"/>
						</radialGradient>
						<path fill="url(#SVGID_22_)" d="M261.6,421.2c0-0.2,0.2-0.4,0.7-0.5c0.5-0.1,1.1-0.2,1.8-0.1c0.7,0.1,1.3,0.3,1.8,0.4
							c0.5,0.2,0.7,0.5,0.7,0.7c0,0.3-0.3,0.5-0.8,0.5c-0.5,0.1-1.1,0.2-1.8,0.1c-0.7-0.1-1.2-0.2-1.7-0.5
							C261.8,421.7,261.6,421.5,261.6,421.2z"/>
					</g>
					<g>
						
							<radialGradient id="SVGID_23_" cx="543.3506" cy="273.4561" r="14.978" gradientTransform="matrix(-2.249431e-002 0.9997 -0.185 -9.164347e-003 326.6746 -130.9705)" gradientUnits="userSpaceOnUse">
							<stop  offset="0" style="stop-color:#FFFFFF"/>
							<stop  offset="0.1882" style="stop-color:#FBFBFB"/>
							<stop  offset="0.3216" style="stop-color:#F9F9F9;stop-opacity:0.3529"/>
							<stop  offset="0.4902" style="stop-color:#F7F7F7;stop-opacity:0.1725"/>
							<stop  offset="0.6745" style="stop-color:#F5F5F5;stop-opacity:0"/>
							<stop  offset="1" style="stop-color:#EFEFEF;stop-opacity:0"/>
						</radialGradient>
						<path fill="url(#SVGID_23_)" d="M264.1,395.4c0.7,0,1.2,1.4,1.7,4.2c0.5,2.9,0.7,6.3,0.6,10.3s-0.5,7.4-1.1,10.2
							c-0.6,2.8-1.2,4.2-1.9,4.1c-0.7,0-1.3-1.5-1.8-4.3c-0.5-2.8-0.6-6.2-0.5-10.2s0.4-7.4,1-10.2
							C262.8,396.6,263.4,395.3,264.1,395.4z"/>
					</g>
					<g>
						<g>
							<polygon fill="#130F10" points="281,394 281.5,394 284.9,394.3 282.5,395.5 240.9,395.5 240.9,395.5 242,394.6 245,394 
															"/>
							<polygon points="242,394.6 240.9,395.5 240.9,386.5 242,385.6 							"/>
							
								<linearGradient id="SVGID_24_" gradientUnits="userSpaceOnUse" x1="140.4082" y1="530.8701" x2="137.2332" y2="530.8701" gradientTransform="matrix(1 0 0 1 104.6797 -140.9199)">
								<stop  offset="0" style="stop-color:#323335"/>
								<stop  offset="0.8824" style="stop-color:#28292A"/>
								<stop  offset="0.9255" style="stop-color:#171718"/>
								<stop  offset="1" style="stop-color:#0A0A0A"/>
							</linearGradient>
							<polygon fill="url(#SVGID_24_)" points="245,385.3 245,394 242,394.6 242,385.6 							"/>
							
								<linearGradient id="SVGID_25_" gradientUnits="userSpaceOnUse" x1="180.2583" y1="530.7197" x2="176.3833" y2="530.7197" gradientTransform="matrix(1 0 0 1 104.6797 -140.9199)">
								<stop  offset="0" style="stop-color:#100C0D"/>
								<stop  offset="0.8039" style="stop-color:#242226"/>
								<stop  offset="0.9098" style="stop-color:#8B8A8D"/>
								<stop  offset="0.9882" style="stop-color:#AAACAB"/>
							</linearGradient>
							<polygon fill="url(#SVGID_25_)" points="284.9,394.3 281.5,394 281,394 281,385.3 281.6,385.3 284.9,386.3 							"/>
							
								<linearGradient id="SVGID_26_" gradientUnits="userSpaceOnUse" x1="136.208" y1="530.6191" x2="174.7329" y2="530.6191" gradientTransform="matrix(1 0 0 1 104.6797 -140.9199)">
								<stop  offset="0" style="stop-color:#38393B"/>
								<stop  offset="1" style="stop-color:#AAACAB"/>
							</linearGradient>
							<rect x="245" y="385.3" fill="url(#SVGID_26_)" width="36" height="8.8"/>
						</g>
					</g>
					<g>
						<g>
							<g>
								
									<linearGradient id="SVGID_27_" gradientUnits="userSpaceOnUse" x1="175.02" y1="535.8203" x2="175.02" y2="563.7695" gradientTransform="matrix(1 0 0 1 104.6797 -140.9199)">
									<stop  offset="0" style="stop-color:#7A7B7F"/>
									<stop  offset="1" style="stop-color:#ABB0B3"/>
								</linearGradient>
								<rect x="276.8" y="394.9" fill="url(#SVGID_27_)" width="5.8" height="27.9"/>
								<polygon points="276.8,394.9 276.8,422.8 275.7,422.9 275.7,395 								"/>
							</g>
						</g>
						<g>
							<g>
								<polygon points="242.8,394.9 242.8,422.8 241.8,422.9 241.8,395 								"/>
								
									<linearGradient id="SVGID_28_" gradientUnits="userSpaceOnUse" x1="141.02" y1="535.8203" x2="141.02" y2="563.7695" gradientTransform="matrix(1 0 0 1 104.6797 -140.9199)">
									<stop  offset="0" style="stop-color:#7A7B7F"/>
									<stop  offset="1" style="stop-color:#ABB0B3"/>
								</linearGradient>
								<rect x="242.8" y="394.9" fill="url(#SVGID_28_)" width="5.8" height="27.9"/>
							</g>
						</g>
					</g>
					<g>
						<g>
							
								<linearGradient id="SVGID_29_" gradientUnits="userSpaceOnUse" x1="140.4702" y1="502.1475" x2="140.4702" y2="571.895" gradientTransform="matrix(1 0 0 1 104.6797 -140.9199)">
								<stop  offset="0" style="stop-color:#000000"/>
								<stop  offset="1" style="stop-color:#0C0C0C;stop-opacity:0"/>
							</linearGradient>
							<polygon fill="url(#SVGID_29_)" points="241.8,394.9 248.5,394.9 248.5,422.7 241.8,422.8 							"/>
							
								<linearGradient id="SVGID_30_" gradientUnits="userSpaceOnUse" x1="174.6206" y1="520.6328" x2="174.6206" y2="573.4078" gradientTransform="matrix(1 0 0 1 104.6797 -140.9199)">
								<stop  offset="0" style="stop-color:#000000"/>
								<stop  offset="1" style="stop-color:#0C0C0C;stop-opacity:0"/>
							</linearGradient>
							<polygon fill="url(#SVGID_30_)" points="275.9,394.6 282.7,394.6 282.7,422.4 275.9,422.5 							"/>
							
								<radialGradient id="SVGID_31_" cx="476.1699" cy="402.8945" r="7.7004" fx="476.0491" fy="402.8945" gradientTransform="matrix(-4.371139e-008 1 -1.4886 -6.507036e-008 863.0079 -73.27)" gradientUnits="userSpaceOnUse">
								<stop  offset="0" style="stop-color:#0C0C0C;stop-opacity:0"/>
								<stop  offset="0.3451" style="stop-color:#0A0A0A;stop-opacity:0"/>
								<stop  offset="0.5843" style="stop-color:#0A0A0A;stop-opacity:0"/>
								<stop  offset="0.8039" style="stop-color:#080808;stop-opacity:0.1608"/>
								<stop  offset="1" style="stop-color:#000000;stop-opacity:0.851"/>
							</radialGradient>
							<path fill="url(#SVGID_31_)" d="M259,401.9v-7.5h7.8v6.6C264.5,398.3,262,398.6,259,401.9z"/>
						</g>
					</g>
					<g>
						<g>
							<path d="M246,390.4c0-0.1-0.1-0.3-0.1-0.5c0-0.2,0-0.4,0.1-0.5c0.1-0.6,0.4-1.2,0.8-1.6c0.6-0.6,1.3-0.9,2.2-0.9
								c0.8,0,1.5,0.3,2.1,0.9c0.5,0.5,0.8,1,0.9,1.6c0,0.1,0.1,0.3,0.1,0.5c0,0.2,0,0.3-0.1,0.5c-0.1,0.6-0.4,1.2-0.9,1.6
								c-0.6,0.6-1.3,0.9-2.1,0.9c-0.9,0-1.6-0.3-2.2-0.9C246.3,391.5,246,391,246,390.4z"/>
						</g>
						<g>
							
								<linearGradient id="SVGID_32_" gradientUnits="userSpaceOnUse" x1="142.1436" y1="529.3311" x2="149.3746" y2="533.8212" gradientTransform="matrix(1 0 0 1 104.6797 -140.9199)">
								<stop  offset="0" style="stop-color:#4D5C5E;stop-opacity:0.9804"/>
								<stop  offset="9.803922e-002" style="stop-color:#627373;stop-opacity:0.9804"/>
								<stop  offset="0.2039" style="stop-color:#6C7D7D;stop-opacity:0.9804"/>
								<stop  offset="0.3294" style="stop-color:#778988;stop-opacity:0.9804"/>
								<stop  offset="0.4745" style="stop-color:#869997;stop-opacity:0.9882"/>
								<stop  offset="0.5686" style="stop-color:#C7D1CD;stop-opacity:0.9922"/>
								<stop  offset="0.6941" style="stop-color:#E1EAE6"/>
								<stop  offset="1" style="stop-color:#426053"/>
							</linearGradient>
							<path fill="url(#SVGID_32_)" d="M247,390.7c-0.1-0.1-0.1-0.3-0.2-0.4c0-0.1,0-0.3,0-0.5s0-0.4,0-0.5c0.1-0.4,0.3-0.8,0.6-1.1
								c0.4-0.4,1-0.6,1.6-0.6s1.1,0.2,1.5,0.6c0.3,0.3,0.4,0.6,0.5,1v0.1c0.1,0.1,0.1,0.3,0.1,0.5s0,0.3-0.1,0.5
								c-0.1,0.4-0.3,0.8-0.5,1c-0.4,0.4-0.9,0.6-1.5,0.6s-1.1-0.2-1.6-0.6C247.2,391.2,247,391,247,390.7z"/>
						</g>
						<g>
							
								<radialGradient id="SVGID_33_" cx="142.1704" cy="530.6201" r="2.1998" gradientTransform="matrix(1 0 0 1 104.6797 -140.9199)" gradientUnits="userSpaceOnUse">
								<stop  offset="0" style="stop-color:#FFFFFF"/>
								<stop  offset="0.7529" style="stop-color:#FFFFFF;stop-opacity:0.5255"/>
								<stop  offset="1" style="stop-color:#FFFFFF;stop-opacity:0.1216"/>
							</radialGradient>
							<path fill="url(#SVGID_33_)" d="M246.6,392c-0.6-0.6-0.9-1.3-0.9-2.1c0-0.9,0.3-1.6,0.9-2.2c0.6-0.6,1.3-1,2.1-1
								c0.9,0,1.6,0.3,2.2,1c0.6,0.6,0.9,1.3,0.9,2.2c0,0.8-0.3,1.6-0.9,2.1c-0.6,0.6-1.3,0.9-2.2,0.9
								C248,393,247.3,392.6,246.6,392z M245.9,389.9c0,0.8,0.3,1.5,0.9,2c0.5,0.6,1.2,0.9,2,0.9c0.8,0,1.5-0.3,2.1-0.9
								c0.6-0.5,0.9-1.2,0.9-2c0-0.8-0.3-1.5-0.9-2.1c-0.5-0.6-1.2-0.8-2.1-0.8c-0.8,0-1.5,0.3-2,0.8
								C246.2,388.4,245.9,389.1,245.9,389.9z"/>
						</g>
						<g>
							
								<radialGradient id="SVGID_34_" cx="531.5879" cy="-356.5059" r="2.2" gradientTransform="matrix(2.272727e-004 1 1 2.272728e-004 607.2333 -141.8067)" gradientUnits="userSpaceOnUse">
								<stop  offset="0" style="stop-color:#FFFFFF"/>
								<stop  offset="0.7529" style="stop-color:#FFFFFF;stop-opacity:0.5255"/>
								<stop  offset="1" style="stop-color:#FFFFFF;stop-opacity:0.1216"/>
							</radialGradient>
							<path fill="url(#SVGID_34_)" d="M245.9,389.9c0-0.9,0.3-1.6,0.9-2.2c0.6-0.6,1.3-1,2.2-1c0.8,0,1.5,0.3,2.1,1
								c0.6,0.6,0.9,1.3,0.9,2.2c0,0.8-0.3,1.6-0.9,2.1c-0.6,0.6-1.3,0.9-2.1,0.9c-0.9,0-1.6-0.3-2.2-0.9
								C246.1,391.5,245.9,390.7,245.9,389.9z M246,389.9c0,0.8,0.3,1.5,0.9,2c0.6,0.6,1.3,0.9,2.1,0.9s1.5-0.3,2-0.9
								c0.6-0.5,0.9-1.2,0.9-2c0-0.8-0.3-1.5-0.9-2.1c-0.6-0.6-1.3-0.8-2-0.8c-0.8,0-1.5,0.3-2.1,0.8
								C246.3,388.4,246,389.1,246,389.9z"/>
						</g>
						<g>
							
								<radialGradient id="SVGID_35_" cx="144.4204" cy="530.9697" r="1.112" gradientTransform="matrix(1 0 0 1 104.6797 -140.9199)" gradientUnits="userSpaceOnUse">
								<stop  offset="0" style="stop-color:#3D4341"/>
								<stop  offset="0.8667" style="stop-color:#37403F;stop-opacity:0.9922"/>
								<stop  offset="1" style="stop-color:#171C1C;stop-opacity:0.9804"/>
							</radialGradient>
							<path fill="url(#SVGID_35_)" d="M247.9,389.4c0.1-0.1,0.1-0.2,0.3-0.3c0.2-0.2,0.5-0.4,0.8-0.4s0.6,0.1,0.8,0.4
								c0.1,0.1,0.2,0.2,0.3,0.3c0.1,0.1,0.1,0.3,0.1,0.5c0,0.2,0,0.3-0.1,0.5c-0.1,0.2-0.1,0.3-0.3,0.4c-0.2,0.2-0.5,0.3-0.8,0.3
								s-0.6-0.1-0.8-0.3c-0.1-0.1-0.2-0.2-0.3-0.4c-0.1-0.1-0.1-0.3-0.1-0.5C247.8,389.7,247.8,389.5,247.9,389.4z"/>
						</g>
						<g>
							<g>
								<path fill="#FFFFFF" d="M248,389.3l-0.1,0.1c-0.1,0.2-0.1,0.4-0.1,0.6c0,0.1,0.1,0.3,0.1,0.4c0,0.1,0.1,0.2,0.1,0.3
									c-0.1-0.1-0.2-0.1-0.2-0.3c-0.2-0.3-0.2-0.6,0-1L248,389.3z M250.1,390.3l-0.1,0.1c-0.1,0.4-0.4,0.6-0.8,0.8H249
									c0.3-0.1,0.5-0.2,0.7-0.4c0.1-0.1,0.2-0.3,0.3-0.4C250,390.3,250.1,390.3,250.1,390.3z"/>
								
									<linearGradient id="SVGID_36_" gradientUnits="userSpaceOnUse" x1="145.23" y1="530.3135" x2="143.3048" y2="531.3136" gradientTransform="matrix(1 0 0 1 104.6797 -140.9199)">
									<stop  offset="2.352941e-002" style="stop-color:#555555"/>
									<stop  offset="0.2902" style="stop-color:#AAAAAA"/>
									<stop  offset="0.5255" style="stop-color:#DADADA"/>
									<stop  offset="0.8941" style="stop-color:#A2A2A2"/>
									<stop  offset="1" style="stop-color:#8C8C8C"/>
								</linearGradient>
								<path fill="url(#SVGID_36_)" d="M248.2,390.6c-0.1-0.1-0.2-0.2-0.2-0.3c-0.1-0.1-0.1-0.3-0.1-0.5s0-0.4,0.1-0.5
									c0.1-0.1,0.1-0.2,0.3-0.3c0.2-0.2,0.4-0.3,0.8-0.3c0.3,0,0.6,0.1,0.8,0.3c0.1,0.1,0.1,0.2,0.1,0.3c0.1,0.1,0.1,0.3,0.1,0.5
									s0,0.4-0.1,0.5c0.1-0.1,0.1-0.3,0.1-0.5s0-0.4-0.1-0.5c-0.1-0.1-0.1-0.2-0.1-0.2c-0.2-0.2-0.5-0.3-0.8-0.3
									c-0.3,0-0.6,0.1-0.8,0.3c-0.1,0-0.1,0.1-0.2,0.2c-0.1,0.1-0.1,0.3-0.1,0.5s0,0.4,0.1,0.5C248,390.4,248.1,390.5,248.2,390.6
									z M249.9,390.4c0,0.1-0.1,0.2-0.1,0.3c-0.1,0.1-0.3,0.2-0.5,0.3c0.2-0.1,0.3-0.2,0.4-0.3
									C249.8,390.5,249.9,390.5,249.9,390.4z"/>
								
									<linearGradient id="SVGID_37_" gradientUnits="userSpaceOnUse" x1="142.333" y1="530.8203" x2="146.608" y2="530.8203" gradientTransform="matrix(1 0 0 1 104.6797 -140.9199)">
									<stop  offset="0" style="stop-color:#777777"/>
									<stop  offset="0.4" style="stop-color:#525252"/>
									<stop  offset="0.5333" style="stop-color:#232323"/>
									<stop  offset="1" style="stop-color:#000000"/>
								</linearGradient>
								<path fill="url(#SVGID_37_)" d="M249.9,390.4L249.9,390.4c0,0.1-0.1,0.2-0.2,0.3c-0.1,0.1-0.3,0.2-0.4,0.3
									c-0.1,0-0.2,0-0.3,0l0,0c-0.3,0-0.6-0.1-0.8-0.4l0,0c-0.1-0.1-0.1-0.2-0.2-0.3c-0.1-0.1-0.1-0.3-0.1-0.5s0.1-0.4,0.1-0.5
									c0-0.1,0.1-0.2,0.2-0.2c0.2-0.2,0.4-0.3,0.8-0.3c0.3,0,0.5,0.1,0.8,0.3c0,0,0.1,0.1,0.1,0.2c0.1,0.1,0.1,0.3,0.1,0.5
									C250,390.1,250,390.3,249.9,390.4z"/>
							</g>
						</g>
					</g>
					<g>
						<path d="M276.7,400.1H266v-5.3l16.5-0.2c0.1-0.6,0.2,0,0.2,1.9l-6,0.5V400.1z M242.9,395.5l-1.3-0.8h17v5h-10.1v-3.1
							L242.9,395.5z"/>
					</g>
				</g>
				<g>
					<g>
						<g>
							
								<radialGradient id="SVGID_38_" cx="165.6704" cy="1156.5947" r="3.8631" fx="166.0491" fy="1156.5947" gradientTransform="matrix(1 0 0 0.2621 104.6797 115.8935)" gradientUnits="userSpaceOnUse">
								<stop  offset="0" style="stop-color:#FFFFFF"/>
								<stop  offset="0.1804" style="stop-color:#FFFFFF"/>
								<stop  offset="0.3922" style="stop-color:#979B9B"/>
								<stop  offset="0.6196" style="stop-color:#6C7071"/>
								<stop  offset="0.7725" style="stop-color:#000000"/>
								<stop  offset="1" style="stop-color:#000000"/>
							</radialGradient>
							<path fill="url(#SVGID_38_)" d="M268.3,418.8c1.7-0.2,3.2-0.2,4.7,0c0.4,0.3,0.4,0.7,0,1c-1.5-0.2-3.1-0.2-4.7,0
								C267.9,419.5,267.9,419.1,268.3,418.8z"/>
						</g>
						<g>
							<g>
								<path d="M269.2,415c0.4-0.3,0.8-0.5,1.3-0.5s1,0.2,1.4,0.6c0.4,0.4,0.5,0.9,0.5,1.4s-0.2,0.9-0.5,1.3
									c-0.2,0.2-0.4,0.4-0.6,0.4c-0.2,0.1-0.5,0.2-0.8,0.2c-0.6,0-1-0.2-1.5-0.6c-0.3-0.4-0.5-0.8-0.5-1.3c0-0.3,0-0.6,0.1-0.8
									s0.3-0.5,0.4-0.7C269.1,415.1,269.2,415.1,269.2,415z"/>
							</g>
							<g>
								
									<linearGradient id="SVGID_39_" gradientUnits="userSpaceOnUse" x1="165.0493" y1="555.8086" x2="166.9952" y2="559.1859" gradientTransform="matrix(1 0 0 1 104.6797 -140.9199)">
									<stop  offset="0" style="stop-color:#FFFFFF"/>
									<stop  offset="1" style="stop-color:#858A94"/>
								</linearGradient>
								<path fill="url(#SVGID_39_)" d="M272.6,416.5c0,0.6-0.2,1-0.6,1.4c-0.1,0.2-0.3,0.3-0.5,0.4c-0.2,0.1-0.5,0.2-0.8,0.2
									c-0.6,0-1-0.2-1.5-0.6c-0.3-0.4-0.5-0.8-0.5-1.4c0-0.3,0-0.5,0.1-0.8c0.1-0.2,0.2-0.4,0.4-0.6l0.1-0.1
									c0.4-0.3,0.9-0.5,1.4-0.5s1,0.2,1.3,0.6C272.5,415.5,272.6,415.9,272.6,416.5z"/>
							</g>
						</g>
						<g>
							
								<radialGradient id="SVGID_40_" cx="165.6704" cy="1157.8467" r="3.8625" fx="166.049" fy="1157.8467" gradientTransform="matrix(1 0 0 0.2621 104.6797 116.8154)" gradientUnits="userSpaceOnUse">
								<stop  offset="0" style="stop-color:#FFFFFF"/>
								<stop  offset="0.1804" style="stop-color:#FFFFFF"/>
								<stop  offset="0.3922" style="stop-color:#979B9B"/>
								<stop  offset="0.6196" style="stop-color:#6C7071"/>
								<stop  offset="0.7725" style="stop-color:#000000"/>
								<stop  offset="1" style="stop-color:#000000"/>
							</radialGradient>
							<path fill="url(#SVGID_40_)" d="M268.3,420c1.7-0.2,3.2-0.2,4.7,0c0.4,0.3,0.4,0.6,0,1c-1.5-0.2-3.1-0.2-4.7,0
								C267.9,420.6,267.9,420.3,268.3,420z"/>
						</g>
						<g>
							
								<radialGradient id="SVGID_41_" cx="165.6704" cy="1159.1963" r="3.8634" fx="166.0492" fy="1159.1963" gradientTransform="matrix(1 0 0 0.2621 104.6797 117.8124)" gradientUnits="userSpaceOnUse">
								<stop  offset="0" style="stop-color:#FFFFFF"/>
								<stop  offset="0.1804" style="stop-color:#FFFFFF"/>
								<stop  offset="0.3922" style="stop-color:#979B9B"/>
								<stop  offset="0.6196" style="stop-color:#6C7071"/>
								<stop  offset="0.7725" style="stop-color:#000000"/>
								<stop  offset="1" style="stop-color:#000000"/>
							</radialGradient>
							<path fill="url(#SVGID_41_)" d="M268.3,421.3c1.7-0.2,3.2-0.2,4.7,0c0.4,0.4,0.4,0.7,0,1c-1.5-0.2-3.1-0.2-4.7,0
								C267.9,422,267.9,421.7,268.3,421.3z"/>
						</g>
						<g>
							
								<radialGradient id="SVGID_42_" cx="-579.0596" cy="-198.8755" r="1.9133" gradientTransform="matrix(-0.1961 -0.9806 0.3595 -7.844646e-002 226.7771 -166.3185)" gradientUnits="userSpaceOnUse">
								<stop  offset="0" style="stop-color:#FFFFFF"/>
								<stop  offset="0.1882" style="stop-color:#FBFBFB"/>
								<stop  offset="0.3216" style="stop-color:#F9F9F9;stop-opacity:0.3529"/>
								<stop  offset="0.4902" style="stop-color:#F7F7F7;stop-opacity:0.1725"/>
								<stop  offset="0.6745" style="stop-color:#F5F5F5;stop-opacity:0"/>
								<stop  offset="1" style="stop-color:#EFEFEF;stop-opacity:0"/>
							</radialGradient>
							<path fill="url(#SVGID_42_)" d="M268.1,415.9c0.1-0.4,0.2-0.6,0.4-0.6s0.4,0.1,0.5,0.4c0.2,0.3,0.4,0.8,0.5,1.3
								s0.1,0.9,0,1.3c-0.1,0.4-0.2,0.6-0.3,0.6c-0.2,0-0.4-0.1-0.6-0.4c-0.1-0.3-0.3-0.8-0.4-1.3
								C268.1,416.7,268.1,416.3,268.1,415.9z"/>
						</g>
						<g>
							
								<radialGradient id="SVGID_43_" cx="86.8066" cy="-45.8623" r="2.1451" gradientTransform="matrix(-0.203 -0.9792 0.367 -7.610360e-002 306.2933 497.5028)" gradientUnits="userSpaceOnUse">
								<stop  offset="0" style="stop-color:#FFFFFF"/>
								<stop  offset="0.1882" style="stop-color:#FBFBFB"/>
								<stop  offset="0.3216" style="stop-color:#F9F9F9;stop-opacity:0.3529"/>
								<stop  offset="0.4902" style="stop-color:#F7F7F7;stop-opacity:0.1725"/>
								<stop  offset="0.6745" style="stop-color:#F5F5F5;stop-opacity:0"/>
								<stop  offset="1" style="stop-color:#EFEFEF;stop-opacity:0"/>
							</radialGradient>
							<path fill="url(#SVGID_43_)" d="M272.6,417.4c-0.1,0.4-0.2,0.6-0.4,0.7c-0.2,0-0.4-0.1-0.6-0.5c-0.2-0.4-0.4-0.8-0.5-1.3
								c-0.1-0.6-0.1-1.1-0.1-1.5c0.1-0.4,0.2-0.7,0.4-0.7c0.2,0,0.4,0.1,0.6,0.5c0.2,0.4,0.4,0.9,0.6,1.4
								C272.7,416.4,272.7,416.9,272.6,417.4z"/>
						</g>
					</g>
					<g>
						<g>
							
								<radialGradient id="SVGID_44_" cx="148.9204" cy="1156.5947" r="3.8632" fx="149.2992" fy="1156.5947" gradientTransform="matrix(1 0 0 0.2621 104.6797 115.8935)" gradientUnits="userSpaceOnUse">
								<stop  offset="0" style="stop-color:#FFFFFF"/>
								<stop  offset="0.1804" style="stop-color:#FFFFFF"/>
								<stop  offset="0.3922" style="stop-color:#979B9B"/>
								<stop  offset="0.6196" style="stop-color:#6C7071"/>
								<stop  offset="0.7725" style="stop-color:#000000"/>
								<stop  offset="1" style="stop-color:#000000"/>
							</radialGradient>
							<path fill="url(#SVGID_44_)" d="M251.5,418.8c1.6-0.2,3.2-0.2,4.7,0c0.4,0.3,0.4,0.7,0,1c-1.5-0.2-3.1-0.2-4.7,0
								C251.1,419.5,251.1,419.1,251.5,418.8z"/>
						</g>
						<g>
							<g>
								<path d="M252.4,415.1c0,0,0.1,0,0.1-0.1c0.4-0.3,0.9-0.5,1.4-0.5s1,0.2,1.3,0.6c0.4,0.4,0.6,0.9,0.6,1.4s-0.2,0.9-0.6,1.3
									c-0.1,0.2-0.3,0.4-0.5,0.4c-0.2,0.1-0.5,0.2-0.8,0.2c-0.6,0-1.1-0.2-1.5-0.6c-0.4-0.4-0.5-0.8-0.5-1.3c0-0.3,0-0.6,0.1-0.8
									C252.1,415.6,252.2,415.3,252.4,415.1z"/>
							</g>
							<g>
								
									<linearGradient id="SVGID_45_" gradientUnits="userSpaceOnUse" x1="148.4072" y1="555.7744" x2="150.3532" y2="559.1517" gradientTransform="matrix(1 0 0 1 104.6797 -140.9199)">
									<stop  offset="0" style="stop-color:#FFFFFF"/>
									<stop  offset="1" style="stop-color:#858A94"/>
								</linearGradient>
								<path fill="url(#SVGID_45_)" d="M252.6,415.1c0.1,0,0.1-0.1,0.1-0.1c0.4-0.3,0.8-0.5,1.3-0.5s1,0.2,1.4,0.6
									c0.4,0.4,0.6,0.8,0.6,1.4s-0.2,1-0.6,1.4c-0.2,0.2-0.4,0.3-0.6,0.4c-0.2,0.1-0.5,0.2-0.8,0.2c-0.6,0-1-0.2-1.4-0.6
									c-0.3-0.4-0.5-0.8-0.5-1.4c0-0.3,0-0.5,0.1-0.8C252.3,415.5,252.5,415.3,252.6,415.1z"/>
							</g>
						</g>
						<g>
							
								<radialGradient id="SVGID_46_" cx="148.9204" cy="1157.8467" r="3.8625" fx="149.2991" fy="1157.8467" gradientTransform="matrix(1 0 0 0.2621 104.6797 116.8154)" gradientUnits="userSpaceOnUse">
								<stop  offset="0" style="stop-color:#FFFFFF"/>
								<stop  offset="0.1804" style="stop-color:#FFFFFF"/>
								<stop  offset="0.3922" style="stop-color:#979B9B"/>
								<stop  offset="0.6196" style="stop-color:#6C7071"/>
								<stop  offset="0.7725" style="stop-color:#000000"/>
								<stop  offset="1" style="stop-color:#000000"/>
							</radialGradient>
							<path fill="url(#SVGID_46_)" d="M251.5,420c1.6-0.2,3.2-0.2,4.7,0c0.4,0.3,0.4,0.6,0,1c-1.5-0.2-3.1-0.2-4.7,0
								C251.1,420.6,251.1,420.3,251.5,420z"/>
						</g>
						<g>
							
								<radialGradient id="SVGID_47_" cx="148.9204" cy="1159.1963" r="3.8634" fx="149.2992" fy="1159.1963" gradientTransform="matrix(1 0 0 0.2621 104.6797 117.8124)" gradientUnits="userSpaceOnUse">
								<stop  offset="0" style="stop-color:#FFFFFF"/>
								<stop  offset="0.1804" style="stop-color:#FFFFFF"/>
								<stop  offset="0.3922" style="stop-color:#979B9B"/>
								<stop  offset="0.6196" style="stop-color:#6C7071"/>
								<stop  offset="0.7725" style="stop-color:#000000"/>
								<stop  offset="1" style="stop-color:#000000"/>
							</radialGradient>
							<path fill="url(#SVGID_47_)" d="M251.5,421.3c1.6-0.2,3.2-0.2,4.7,0c0.4,0.4,0.4,0.7,0,1c-1.5-0.2-3.1-0.2-4.7,0
								C251.1,422,251.1,421.7,251.5,421.3z"/>
						</g>
						<g>
							
								<radialGradient id="SVGID_48_" cx="-575.3403" cy="-215.2705" r="1.9123" gradientTransform="matrix(-0.1961 -0.9806 0.3595 -7.844646e-002 216.6502 -164.1095)" gradientUnits="userSpaceOnUse">
								<stop  offset="0" style="stop-color:#FFFFFF"/>
								<stop  offset="0.1882" style="stop-color:#FBFBFB"/>
								<stop  offset="0.3216" style="stop-color:#F9F9F9;stop-opacity:0.3529"/>
								<stop  offset="0.4902" style="stop-color:#F7F7F7;stop-opacity:0.1725"/>
								<stop  offset="0.6745" style="stop-color:#F5F5F5;stop-opacity:0"/>
								<stop  offset="1" style="stop-color:#EFEFEF;stop-opacity:0"/>
							</radialGradient>
							<path fill="url(#SVGID_48_)" d="M251.4,415.7c0.1-0.3,0.2-0.5,0.4-0.6c0.2,0,0.4,0.1,0.6,0.4c0.2,0.3,0.3,0.7,0.4,1.2
								c0.1,0.5,0.1,1,0,1.4c0,0.4-0.1,0.6-0.3,0.6c-0.2,0.1-0.4-0.1-0.6-0.5c-0.1-0.3-0.3-0.7-0.4-1.2S251.3,416.1,251.4,415.7z"/>
						</g>
						<g>
							
								<radialGradient id="SVGID_49_" cx="70.1064" cy="-45.8633" r="2.1451" gradientTransform="matrix(-0.203 -0.9792 0.367 -7.610360e-002 286.2025 481.1512)" gradientUnits="userSpaceOnUse">
								<stop  offset="0" style="stop-color:#FFFFFF"/>
								<stop  offset="0.1882" style="stop-color:#FBFBFB"/>
								<stop  offset="0.3216" style="stop-color:#F9F9F9;stop-opacity:0.3529"/>
								<stop  offset="0.4902" style="stop-color:#F7F7F7;stop-opacity:0.1725"/>
								<stop  offset="0.6745" style="stop-color:#F5F5F5;stop-opacity:0"/>
								<stop  offset="1" style="stop-color:#EFEFEF;stop-opacity:0"/>
							</radialGradient>
							<path fill="url(#SVGID_49_)" d="M256,417.4c-0.1,0.4-0.2,0.6-0.4,0.7c-0.2,0-0.4-0.1-0.6-0.5c-0.2-0.4-0.4-0.8-0.6-1.3
								c-0.1-0.6-0.1-1.1,0-1.5c0.1-0.4,0.2-0.7,0.4-0.7c0.2,0,0.4,0.1,0.6,0.5c0.2,0.4,0.4,0.9,0.5,1.4
								C256,416.4,256,416.9,256,417.4z"/>
						</g>
					</g>
				</g>
			</g>
		</g>
		<g>
			<g>
				<g>
					<g>
						<rect x="223.8" y="422.3" fill="#28292D" width="1.1" height="81"/>
						
							<linearGradient id="SVGID_50_" gradientUnits="userSpaceOnUse" x1="523.0205" y1="161.3633" x2="608.1124" y2="161.3633" gradientTransform="matrix(0.4921 0.8705 -0.7743 0.6624 105.1875 -141.7898)">
							<stop  offset="0" style="stop-color:#7E8387"/>
							<stop  offset="0.5961" style="stop-color:#4A4E51"/>
							<stop  offset="1" style="stop-color:#262626"/>
						</linearGradient>
						<rect x="224.9" y="422.3" fill="url(#SVGID_50_)" width="73.4" height="81"/>
					</g>
				</g>
				<g>
					<g>
						<g>
							
								<radialGradient id="SVGID_51_" cx="156.1704" cy="622.3213" r="10.6633" fx="156.1285" fy="622.3213" gradientTransform="matrix(1 0 0 1 104.6797 -140.9199)" gradientUnits="userSpaceOnUse">
								<stop  offset="0" style="stop-color:#525453"/>
								<stop  offset="0.4784" style="stop-color:#4D4F4F"/>
								<stop  offset="0.5686" style="stop-color:#050505"/>
								<stop  offset="0.8078" style="stop-color:#000000"/>
							</radialGradient>
							<path fill="url(#SVGID_51_)" d="M264.5,479.8c-1,1-2.3,1.6-3.8,1.6s-2.7-0.5-3.8-1.6c-1-1.1-1.6-2.3-1.6-3.8s0.5-2.7,1.6-3.8
								c1-1.1,2.3-1.6,3.8-1.6s2.7,0.5,3.8,1.6c1,1,1.5,2.3,1.5,3.8S265.5,478.8,264.5,479.8z"/>
							
								<path fill="none" stroke="#4D4F4F" stroke-linecap="round" stroke-linejoin="round" stroke-miterlimit="3" stroke-opacity="0.5255" d="
								M264.5,479.8c-1,1-2.3,1.6-3.8,1.6s-2.7-0.5-3.8-1.6c-1-1.1-1.6-2.3-1.6-3.8s0.5-2.7,1.6-3.8c1-1.1,2.3-1.6,3.8-1.6
								s2.7,0.5,3.8,1.6c1,1,1.5,2.3,1.5,3.8S265.5,478.8,264.5,479.8z"/>
						</g>
					</g>
					<g>
						<g>
							
								<radialGradient id="SVGID_52_" cx="156.1704" cy="590.7197" r="10.6625" fx="156.1285" fy="590.7197" gradientTransform="matrix(1 0 0 1 104.6797 -140.9199)" gradientUnits="userSpaceOnUse">
								<stop  offset="0" style="stop-color:#525453"/>
								<stop  offset="0.4784" style="stop-color:#4D4F4F"/>
								<stop  offset="0.5686" style="stop-color:#050505"/>
								<stop  offset="0.8078" style="stop-color:#000000"/>
							</radialGradient>
							<path fill="url(#SVGID_52_)" d="M264.5,448.3c-1,1-2.3,1.5-3.8,1.5s-2.7-0.5-3.8-1.5c-1-1-1.6-2.3-1.6-3.8s0.5-2.7,1.6-3.8
								c1-1,2.3-1.5,3.8-1.5s2.7,0.5,3.8,1.5c1,1,1.5,2.3,1.5,3.8S265.5,447.2,264.5,448.3z"/>
							
								<path fill="none" stroke="#4D4F4F" stroke-linecap="round" stroke-linejoin="round" stroke-miterlimit="3" stroke-opacity="0.5255" d="
								M264.5,448.3c-1,1-2.3,1.5-3.8,1.5s-2.7-0.5-3.8-1.5c-1-1-1.6-2.3-1.6-3.8s0.5-2.7,1.6-3.8c1-1,2.3-1.5,3.8-1.5
								s2.7,0.5,3.8,1.5c1,1,1.5,2.3,1.5,3.8S265.5,447.2,264.5,448.3z"/>
						</g>
					</g>
					<g>
						<g>
							
								<radialGradient id="SVGID_53_" cx="131.9204" cy="605.2705" r="6.9125" fx="131.8933" fy="605.2705" gradientTransform="matrix(1 0 0 1 104.6797 -140.9199)" gradientUnits="userSpaceOnUse">
								<stop  offset="0" style="stop-color:#525453"/>
								<stop  offset="0.4784" style="stop-color:#4D4F4F"/>
								<stop  offset="0.5686" style="stop-color:#050505"/>
								<stop  offset="0.8078" style="stop-color:#000000"/>
							</radialGradient>
							<path fill="url(#SVGID_53_)" d="M238.9,463.3c-0.7,0.7-1.5,1-2.4,1c-1,0-1.8-0.3-2.4-1c-0.7-0.6-1-1.4-1-2.4s0.4-1.8,1-2.4
								c0.6-0.7,1.4-1,2.4-1s1.8,0.3,2.4,1c0.7,0.6,1.1,1.4,1.1,2.4S239.6,462.7,238.9,463.3z"/>
							
								<path fill="none" stroke="#4D4F4F" stroke-linecap="round" stroke-linejoin="round" stroke-miterlimit="3" stroke-opacity="0.5255" d="
								M238.9,463.3c-0.7,0.7-1.5,1-2.4,1c-1,0-1.8-0.3-2.4-1c-0.7-0.6-1-1.4-1-2.4s0.4-1.8,1-2.4c0.6-0.7,1.4-1,2.4-1
								s1.8,0.3,2.4,1c0.7,0.6,1.1,1.4,1.1,2.4S239.6,462.7,238.9,463.3z"/>
						</g>
					</g>
					<g>
						<g>
							
								<radialGradient id="SVGID_54_" cx="144.8203" cy="605.2705" r="6.9125" fx="144.7932" fy="605.2705" gradientTransform="matrix(1 0 0 1 104.6797 -140.9199)" gradientUnits="userSpaceOnUse">
								<stop  offset="0" style="stop-color:#525453"/>
								<stop  offset="0.4784" style="stop-color:#4D4F4F"/>
								<stop  offset="0.5686" style="stop-color:#050505"/>
								<stop  offset="0.8078" style="stop-color:#000000"/>
							</radialGradient>
							<path fill="url(#SVGID_54_)" d="M251.8,463.3c-0.6,0.7-1.4,1-2.4,1s-1.8-0.3-2.4-1c-0.7-0.6-1-1.4-1-2.4s0.3-1.8,1-2.4
								c0.7-0.7,1.5-1,2.4-1s1.8,0.3,2.4,1c0.7,0.6,1.1,1.4,1.1,2.4S252.5,462.7,251.8,463.3z"/>
							
								<path fill="none" stroke="#4D4F4F" stroke-linecap="round" stroke-linejoin="round" stroke-miterlimit="3" stroke-opacity="0.5255" d="
								M251.8,463.3c-0.6,0.7-1.4,1-2.4,1s-1.8-0.3-2.4-1c-0.7-0.6-1-1.4-1-2.4s0.3-1.8,1-2.4c0.7-0.7,1.5-1,2.4-1s1.8,0.3,2.4,1
								c0.7,0.6,1.1,1.4,1.1,2.4S252.5,462.7,251.8,463.3z"/>
						</g>
					</g>
					<g>
						<g>
							
								<radialGradient id="SVGID_55_" cx="157.6201" cy="605.2705" r="6.9125" fx="157.593" fy="605.2705" gradientTransform="matrix(1 0 0 1 104.6797 -140.9199)" gradientUnits="userSpaceOnUse">
								<stop  offset="0" style="stop-color:#525453"/>
								<stop  offset="0.4784" style="stop-color:#4D4F4F"/>
								<stop  offset="0.5686" style="stop-color:#050505"/>
								<stop  offset="0.8078" style="stop-color:#000000"/>
							</radialGradient>
							<path fill="url(#SVGID_55_)" d="M264.6,463.3c-0.7,0.7-1.5,1-2.4,1c-1,0-1.8-0.3-2.4-1c-0.7-0.6-1-1.4-1-2.4s0.4-1.8,1-2.4
								c0.6-0.7,1.4-1,2.4-1s1.8,0.3,2.4,1c0.7,0.6,1,1.4,1,2.4S265.3,462.7,264.6,463.3z"/>
							
								<path fill="none" stroke="#4D4F4F" stroke-linecap="round" stroke-linejoin="round" stroke-miterlimit="3" stroke-opacity="0.5255" d="
								M264.6,463.3c-0.7,0.7-1.5,1-2.4,1c-1,0-1.8-0.3-2.4-1c-0.7-0.6-1-1.4-1-2.4s0.4-1.8,1-2.4c0.6-0.7,1.4-1,2.4-1
								s1.8,0.3,2.4,1c0.7,0.6,1,1.4,1,2.4S265.3,462.7,264.6,463.3z"/>
						</g>
					</g>
					<g>
						<g>
							
								<radialGradient id="SVGID_56_" cx="170.5703" cy="605.2705" r="6.9125" fx="170.5432" fy="605.2705" gradientTransform="matrix(1 0 0 1 104.6797 -140.9199)" gradientUnits="userSpaceOnUse">
								<stop  offset="0" style="stop-color:#525453"/>
								<stop  offset="0.4784" style="stop-color:#4D4F4F"/>
								<stop  offset="0.5686" style="stop-color:#050505"/>
								<stop  offset="0.8078" style="stop-color:#000000"/>
							</radialGradient>
							<path fill="url(#SVGID_56_)" d="M277.5,463.3c-0.7,0.7-1.5,1-2.4,1c-1,0-1.8-0.3-2.4-1c-0.7-0.6-1.1-1.4-1.1-2.4
								s0.4-1.8,1.1-2.4c0.7-0.7,1.5-1,2.4-1s1.7,0.3,2.4,1c0.7,0.6,1.1,1.4,1.1,2.4S278.3,462.7,277.5,463.3z"/>
							
								<path fill="none" stroke="#4D4F4F" stroke-linecap="round" stroke-linejoin="round" stroke-miterlimit="3" stroke-opacity="0.5255" d="
								M277.5,463.3c-0.7,0.7-1.5,1-2.4,1c-1,0-1.8-0.3-2.4-1c-0.7-0.6-1.1-1.4-1.1-2.4s0.4-1.8,1.1-2.4c0.7-0.7,1.5-1,2.4-1
								s1.7,0.3,2.4,1c0.7,0.6,1.1,1.4,1.1,2.4S278.3,462.7,277.5,463.3z"/>
						</g>
					</g>
					<g>
						<g>
							
								<radialGradient id="SVGID_57_" cx="183.3701" cy="605.2705" r="6.9125" fx="183.343" fy="605.2705" gradientTransform="matrix(1 0 0 1 104.6797 -140.9199)" gradientUnits="userSpaceOnUse">
								<stop  offset="0" style="stop-color:#525453"/>
								<stop  offset="0.4784" style="stop-color:#4D4F4F"/>
								<stop  offset="0.5686" style="stop-color:#050505"/>
								<stop  offset="0.8078" style="stop-color:#000000"/>
							</radialGradient>
							<path fill="url(#SVGID_57_)" d="M290.4,463.3c-0.6,0.7-1.4,1-2.4,1s-1.8-0.3-2.5-1c-0.7-0.6-1-1.4-1-2.4s0.3-1.8,1-2.4
								c0.7-0.7,1.5-1,2.5-1s1.8,0.3,2.4,1c0.7,0.6,1,1.4,1,2.4S291,462.7,290.4,463.3z"/>
							
								<path fill="none" stroke="#4D4F4F" stroke-linecap="round" stroke-linejoin="round" stroke-miterlimit="3" stroke-opacity="0.5255" d="
								M290.4,463.3c-0.6,0.7-1.4,1-2.4,1s-1.8-0.3-2.5-1c-0.7-0.6-1-1.4-1-2.4s0.3-1.8,1-2.4c0.7-0.7,1.5-1,2.5-1s1.8,0.3,2.4,1
								c0.7,0.6,1,1.4,1,2.4S291,462.7,290.4,463.3z"/>
						</g>
					</g>
				</g>
			</g>
		</g>
		<g>
			<g>
				<g>
					<g>
						
							<linearGradient id="SVGID_58_" gradientUnits="userSpaceOnUse" x1="221.1201" y1="589.9209" x2="221.1201" y2="621.7691" gradientTransform="matrix(1 0 0 1 104.6797 -140.9199)">
							<stop  offset="0" style="stop-color:#040405"/>
							<stop  offset="0.3294" style="stop-color:#282A2D"/>
							<stop  offset="0.4863" style="stop-color:#43474A"/>
							<stop  offset="0.6902" style="stop-color:#212323"/>
							<stop  offset="1" style="stop-color:#000000"/>
						</linearGradient>
						<path fill="url(#SVGID_58_)" d="M319.5,480.8c0.2,0,0.3-1.5,0.5-4.5v-0.1c0.2-3.1,0.3-6.9,0.3-11.3c0-4.4-0.1-8.2-0.3-11.3
							l0,0c-0.1-3.1-0.3-4.7-0.5-4.7h11.9c0.2,0,0.3,1.6,0.4,4.7c0.2,3.1,0.3,6.8,0.3,11.3c0,4.4-0.1,8.1-0.3,11.3
							c-0.1,3.1-0.3,4.6-0.4,4.6H319.5z"/>
						<path d="M319.5,480.8L319.5,480.8c-0.3-0.5-0.4-2-0.5-4.5v-0.1c-0.1-3.1-0.2-6.9-0.2-11.3c0-4.4,0.1-8.2,0.2-11.3l0,0
							c0.1-3.1,0.3-4.7,0.5-4.7s0.3,1.5,0.5,4.7l0,0c0.2,3.1,0.3,6.8,0.3,11.3c0,4.4-0.1,8.1-0.3,11.3v0.1
							C319.9,479.3,319.7,480.8,319.5,480.8z"/>
					</g>
				</g>
				<g>
					<g>
						<g>
							
								<linearGradient id="SVGID_59_" gradientUnits="userSpaceOnUse" x1="198.4453" y1="570.7197" x2="213.3953" y2="570.7197" gradientTransform="matrix(1 0 0 1 104.6797 -140.9199)">
								<stop  offset="0" style="stop-color:#080808"/>
								<stop  offset="0.2824" style="stop-color:#404040"/>
								<stop  offset="0.4784" style="stop-color:#515151"/>
								<stop  offset="0.7882" style="stop-color:#2B2B2B"/>
								<stop  offset="1" style="stop-color:#000000"/>
							</linearGradient>
							<path fill="url(#SVGID_59_)" d="M317.5,432.8c0-0.1-0.7-0.2-2.1-0.3c-1.4-0.1-3.1-0.2-5-0.2c-0.4,0-0.7,0-1.1,0
								c-1.5,0-2.9,0.1-4,0.2c-1.4,0.1-2.1,0.3-2.1,0.3v-5.6c0,0,0.1,0,0.2,0c0.3-0.1,1-0.2,2-0.3c1.4-0.1,3.1-0.1,5-0.1
								c2,0,3.7,0,5.1,0.1c1.2,0.1,1.9,0.3,2,0.4V432.8z"/>
							<path d="M317.5,432.8c0,0.2-0.7,0.3-2.1,0.4c-1.4,0.1-3.1,0.2-5,0.2c-0.4,0-0.7,0-1.1,0c-1.5,0-2.9-0.1-4-0.2
								c-1.4-0.1-2.1-0.2-2.1-0.4c0-0.1,0.7-0.2,2.1-0.3c1.2-0.1,2.5-0.1,4-0.2c0.3,0,0.7,0,1.1,0c1.9,0,3.6,0.1,5,0.2
								C316.8,432.6,317.5,432.8,317.5,432.8z"/>
						</g>
					</g>
					<g>
						
							<linearGradient id="SVGID_60_" gradientUnits="userSpaceOnUse" x1="202.333" y1="580.3691" x2="208.708" y2="580.3691" gradientTransform="matrix(1 0 0 1 104.6797 -140.9199)">
							<stop  offset="0" style="stop-color:#454545"/>
							<stop  offset="0.1569" style="stop-color:#949494"/>
							<stop  offset="0.2667" style="stop-color:#404040"/>
							<stop  offset="0.4706" style="stop-color:#E1E1E1"/>
							<stop  offset="0.7216" style="stop-color:#808080"/>
							<stop  offset="1" style="stop-color:#343434"/>
						</linearGradient>
						<rect x="307" y="432.8" fill="url(#SVGID_60_)" width="6.4" height="13.3"/>
					</g>
				</g>
				<g>
					<g>
						<polygon fill="#161415" points="299.6,435 299.6,492.8 299.5,492.8 298.2,492 298.2,435.8 						"/>
						
							<linearGradient id="SVGID_61_" gradientUnits="userSpaceOnUse" x1="204.8701" y1="572.7949" x2="204.8701" y2="636.8448" gradientTransform="matrix(1 0 0 1 104.6797 -140.9199)">
							<stop  offset="0" style="stop-color:#4F5458"/>
							<stop  offset="1" style="stop-color:#202020"/>
						</linearGradient>
						<rect x="299.6" y="435" fill="url(#SVGID_61_)" width="19.9" height="57.8"/>
					</g>
				</g>
				<g>
					<g>
						
							<linearGradient id="SVGID_62_" gradientUnits="userSpaceOnUse" x1="-34.1299" y1="590.5195" x2="12.1701" y2="590.5195" gradientTransform="matrix(1 0 0 1 104.6797 -140.9199)">
							<stop  offset="0" style="stop-color:#000000"/>
							<stop  offset="1" style="stop-color:#7B6864;stop-opacity:0"/>
						</linearGradient>
						<path fill="url(#SVGID_62_)" d="M18.5,422.5c4.1-2.6,8.3-4.5,12.6-5.8h92.8v65.8H29.5l-8.6-4.8h-2.4V422.5z"/>
					</g>
					<g>
						<g>
							<path d="M91.6,307.1c22.1,2.7,44.8,11.5,68.2,26.4c25.4,16.1,46.5,35.2,63.2,57.3c15.6,20.6,27.7,44.1,36.3,70.6
								c3.9,12,11,17.9,21.1,17.8c10.3-0.3,20-6.5,29-18.3c0.3-0.4,0.8-0.7,1.3-0.8c0.5-0.1,1,0,1.5,0.4c0.4,0.3,0.7,0.8,0.8,1.3
								s0,1-0.4,1.5c-10,13.1-20.7,19.8-32.1,19.9c-12.1,0.4-20.4-6.5-25.1-20.5c-8.5-26-20.4-49.2-35.7-69.4
								c-16.5-21.7-37.2-40.4-62.2-56.3c-22.8-14.5-45-23.1-66.5-25.8c-18.2-2.3-33.6-0.3-46.1,6.3c-11.2,5.8-17,13.4-17.6,22.7
								c-0.3,9.8,5.6,18.5,17.9,26l0,0c8.8,5.3,15.4,9.8,19.8,13.3c5.3,4.3,9.2,8.7,11.6,13.1c2.6,4.5,4.1,10,4.5,16.3
								c0.4,5.6,0,13-1.2,22.3c-0.1,0.5-0.3,1-0.8,1.3c-0.4,0.3-0.9,0.5-1.5,0.4c-0.5-0.1-1-0.3-1.3-0.8c-0.3-0.4-0.5-0.9-0.4-1.5
								c1.2-9,1.6-16.1,1.2-21.5l0,0c-0.3-5.7-1.7-10.5-4-14.6c-2.2-4-5.8-8-10.6-12c-4.3-3.5-10.7-7.8-19.3-13l0,0
								c-13.9-8.4-20.5-18.3-19.8-29.5c0.4-10.8,7-19.5,19.7-26.1C56.3,306.9,72.5,304.7,91.6,307.1z"/>
						</g>
					</g>
					<g>
						<g>
							
								<radialGradient id="SVGID_63_" cx="70.5576" cy="551.2793" r="61.2708" gradientTransform="matrix(1 0 0 0.8203 104.6797 -88.3018)" gradientUnits="userSpaceOnUse">
								<stop  offset="0" style="stop-color:#FFFFFF"/>
								<stop  offset="1" style="stop-color:#FFFFFF;stop-opacity:0"/>
							</radialGradient>
							<path fill="url(#SVGID_63_)" d="M114,314c0-0.1,0.1-0.2,0.3-0.3c0.1-0.1,0.2-0.1,0.4,0c14.5,4.5,29.3,11.5,44.4,21.1
								c25.3,16,46.2,35,62.8,56.9c5.2,6.9,10.1,14.1,14.5,21.7c0.1,0.1,0.1,0.2,0,0.4c0,0.1-0.1,0.2-0.2,0.3
								c-0.1,0.1-0.2,0.1-0.4,0.1c-0.1,0-0.2-0.1-0.3-0.2c-4.4-7.5-9.3-14.7-14.5-21.6c-16.6-21.8-37.4-40.7-62.6-56.6
								c-15-9.5-29.7-16.5-44.1-21c-0.1,0-0.2-0.1-0.3-0.3C114,314.3,114,314.1,114,314z"/>
							
								<radialGradient id="SVGID_64_" cx="-73.6797" cy="476.998" r="27.3375" gradientTransform="matrix(1 0 0 1.0046 104.6797 -142.1367)" gradientUnits="userSpaceOnUse">
								<stop  offset="0" style="stop-color:#FFFFFF"/>
								<stop  offset="1" style="stop-color:#FFFFFF;stop-opacity:0"/>
							</radialGradient>
							<path fill="url(#SVGID_64_)" d="M90.5,309c0,0.1-0.1,0.3-0.2,0.4c-0.1,0.1-0.2,0.1-0.3,0.1c-18-2.1-33.2,0.1-45.6,6.5
								c-11.7,6.1-17.9,14.1-18.4,24c-0.5,10.4,5.7,19.5,18.6,27.3c3.1,1.9,6,3.7,8.6,5.4c0.1,0.1,0.2,0.2,0.2,0.3s0,0.3-0.1,0.4
								c-0.1,0.1-0.2,0.2-0.3,0.2s-0.3,0-0.4-0.1c-2.6-1.7-5.4-3.5-8.5-5.4C30.8,360,24.5,350.6,25,339.9
								c0.5-10.2,6.8-18.5,18.9-24.8c12.6-6.6,28-8.8,46.2-6.6c0.1,0,0.3,0.1,0.4,0.2C90.5,308.8,90.5,308.9,90.5,309z"/>
							
								<radialGradient id="SVGID_65_" cx="-27.1797" cy="448.5156" r="11.263" gradientTransform="matrix(1 0 0 1.8768 104.6797 -435.1748)" gradientUnits="userSpaceOnUse">
								<stop  offset="0" style="stop-color:#FFFFFF"/>
								<stop  offset="1" style="stop-color:#FFFFFF;stop-opacity:0"/>
							</radialGradient>
							<path fill="url(#SVGID_65_)" d="M68.8,386c-0.1-0.1-0.1-0.2-0.1-0.4c0-0.1,0.1-0.3,0.1-0.4c0.1-0.1,0.2-0.1,0.4-0.1
								c0.1,0,0.3,0.1,0.4,0.1c2.5,2.6,4.5,5.2,6,7.9l0,0c2.5,4.4,3.9,9.6,4.3,15.7c0.4,5.5,0,12.9-1.2,22c0,0.1-0.1,0.2-0.2,0.3
								c-0.1,0.1-0.2,0.1-0.4,0.1c-0.1,0-0.2-0.1-0.3-0.2c-0.1-0.1-0.1-0.2-0.1-0.4c1.2-9.1,1.6-16.4,1.2-21.8
								c-0.4-5.9-1.7-11-4.1-15.2l0,0C73.1,391.1,71.2,388.5,68.8,386z"/>
							
								<radialGradient id="SVGID_66_" cx="159.8701" cy="703.9482" r="27.3373" gradientTransform="matrix(1 0 0 0.7115 104.6797 -23.7513)" gradientUnits="userSpaceOnUse">
								<stop  offset="0" style="stop-color:#FFFFFF"/>
								<stop  offset="1" style="stop-color:#FFFFFF;stop-opacity:0"/>
							</radialGradient>
							<path fill="url(#SVGID_66_)" d="M248,435.9c3.7,8.3,7.1,16.9,10,25.9c4.2,12.8,11.7,19,22.6,18.8
								c10.8-0.3,20.8-6.6,30.2-18.9c0.1-0.1,0.2-0.2,0.3-0.2c0.1,0,0.3,0,0.4,0.1c0.1,0.1,0.2,0.2,0.2,0.3c0,0.1,0,0.3-0.1,0.4
								c-9.6,12.7-20,19.1-31,19.3c-11.4,0.3-19.2-6.2-23.6-19.5c-2.9-8.9-6.2-17.5-9.9-25.8c-0.1-0.1-0.1-0.2,0-0.4
								c0.1-0.1,0.1-0.2,0.3-0.3c0.1-0.1,0.2-0.1,0.4,0C247.8,435.7,247.9,435.8,248,435.9z"/>
						</g>
					</g>
					<g>
						<polygon fill="#999999" points="76,418.1 75.9,411.5 82.5,411.5 82.5,418 						"/>
					</g>
					<g>
						<g>
							
								<linearGradient id="SVGID_67_" gradientUnits="userSpaceOnUse" x1="-77.5483" y1="556.71" x2="-26.8823" y2="620.7671" gradientTransform="matrix(1 0 0 1 104.6797 -140.9199)">
								<stop  offset="0" style="stop-color:#AFAFA5"/>
								<stop  offset="1" style="stop-color:#C5C5BB"/>
							</linearGradient>
							<polygon fill="url(#SVGID_67_)" points="93.5,478.8 12.4,478.8 11.6,416.8 92.5,416.8 							"/>
							<polygon fill="#424649" points="12.4,478.8 93.5,478.8 92.2,482.6 13.5,482.6 							"/>
						</g>
					</g>
					<g>
						<g>
							<path fill="#E8E8E3" d="M84.1,459.4c0.4-0.4,0.5-0.8,0.5-1.3s-0.2-1-0.6-1.3s-0.8-0.5-1.3-0.5s-1,0.2-1.3,0.6
								c-0.4,0.4-0.5,0.8-0.5,1.3s0.2,1,0.6,1.3s0.8,0.5,1.3,0.5S83.7,459.8,84.1,459.4z"/>
							<path fill="#AEAE9F" d="M80.8,456.6c-0.4,0.4-0.5,0.8-0.5,1.3s0.2,1,0.6,1.3c0.4,0.4,0.8,0.5,1.3,0.5s1-0.2,1.3-0.6
								c0.4-0.4,0.5-0.8,0.5-1.3s-0.2-1-0.6-1.3c-0.4-0.4-0.8-0.5-1.3-0.5S81.2,456.2,80.8,456.6z"/>
						</g>
						<g>
							<path fill="#E8E8E3" d="M84.1,451.9c0.4-0.4,0.5-0.8,0.5-1.3s-0.2-1-0.6-1.3c-0.4-0.4-0.8-0.5-1.3-0.5s-1,0.2-1.3,0.6
								c-0.4,0.4-0.5,0.8-0.5,1.3s0.2,1,0.6,1.3c0.4,0.4,0.8,0.5,1.3,0.5C83.3,452.4,83.7,452.3,84.1,451.9z"/>
							<path fill="#AEAE9F" d="M80.8,449.4c-0.4,0.4-0.5,0.8-0.5,1.3s0.2,1,0.6,1.3c0.4,0.4,0.8,0.5,1.3,0.5s1-0.2,1.3-0.6
								c0.4-0.4,0.5-0.8,0.5-1.3s-0.2-1-0.6-1.3c-0.4-0.4-0.8-0.5-1.3-0.5C81.6,448.9,81.2,449.1,80.8,449.4z"/>
						</g>
						<g>
							<path fill="#E8E8E3" d="M83.9,443.5c0.4-0.4,0.5-0.8,0.5-1.3s-0.2-1-0.6-1.3c-0.4-0.3-0.8-0.5-1.3-0.5s-1,0.2-1.3,0.6
								c-0.4,0.4-0.5,0.8-0.5,1.3s0.2,1,0.6,1.3c0.4,0.3,0.8,0.5,1.3,0.5S83.5,443.9,83.9,443.5z"/>
							<path fill="#AEAE9F" d="M80.7,441.1c-0.4,0.4-0.5,0.8-0.5,1.3s0.2,1,0.6,1.3c0.4,0.4,0.8,0.5,1.3,0.5s1-0.2,1.3-0.6
								c0.4-0.4,0.5-0.8,0.5-1.3s-0.2-1-0.6-1.3c-0.4-0.4-0.8-0.5-1.3-0.5S81.1,440.7,80.7,441.1z"/>
						</g>
						<g>
							<path fill="#E8E8E3" d="M83.7,435.7c0.4-0.4,0.5-0.8,0.5-1.3s-0.2-1-0.6-1.3c-0.4-0.3-0.8-0.5-1.3-0.5s-1,0.2-1.3,0.6
								c-0.4,0.4-0.5,0.8-0.5,1.3s0.2,1,0.6,1.3s0.8,0.5,1.3,0.5S83.4,436.1,83.7,435.7z"/>
							<path fill="#AEAE9F" d="M80.2,433.8c-0.4,0.4-0.5,0.8-0.5,1.3s0.2,1,0.6,1.3c0.4,0.4,0.8,0.5,1.3,0.5s1-0.2,1.3-0.6
								c0.4-0.4,0.5-0.8,0.5-1.3s-0.2-1-0.6-1.3c-0.4-0.4-0.8-0.5-1.3-0.5C81,433.3,80.6,433.5,80.2,433.8z"/>
						</g>
						<g>
							<path fill="#E8E8E3" d="M76,459.4c0.4-0.4,0.5-0.8,0.5-1.3s-0.2-1-0.6-1.3s-0.8-0.5-1.3-0.5s-1,0.2-1.3,0.6
								c-0.4,0.4-0.5,0.8-0.5,1.3s0.2,1,0.6,1.3s0.8,0.5,1.3,0.5S75.6,459.8,76,459.4z"/>
							<path fill="#AEAE9F" d="M72.5,457.2c-0.4,0.4-0.5,0.8-0.5,1.3s0.2,1,0.6,1.3c0.4,0.4,0.8,0.5,1.3,0.5s1-0.2,1.3-0.6
								c0.4-0.4,0.5-0.8,0.5-1.3s-0.2-1-0.6-1.3c-0.4-0.4-0.8-0.5-1.3-0.5C73.3,456.7,72.9,456.9,72.5,457.2z"/>
						</g>
						<g>
							<path fill="#E8E8E3" d="M75.9,452c0.4-0.4,0.5-0.8,0.5-1.3s-0.2-1-0.6-1.3c-0.4-0.3-0.8-0.5-1.3-0.5s-1,0.2-1.3,0.6
								c-0.4,0.4-0.5,0.8-0.5,1.3s0.2,1,0.6,1.3c0.4,0.3,0.8,0.5,1.3,0.5S75.6,452.3,75.9,452z"/>
							<path fill="#AEAE9F" d="M72.5,449.9c-0.4,0.4-0.5,0.8-0.5,1.3s0.2,1,0.6,1.3c0.4,0.4,0.8,0.5,1.3,0.5s1-0.2,1.3-0.6
								c0.4-0.4,0.5-0.8,0.5-1.3s-0.2-1-0.6-1.3c-0.4-0.4-0.8-0.5-1.3-0.5C73.3,449.4,72.9,449.6,72.5,449.9z"/>
						</g>
						<g>
							<path fill="#E8E8E3" d="M75.6,443.5c0.4-0.4,0.5-0.8,0.5-1.3s-0.2-1-0.6-1.3c-0.4-0.3-0.8-0.5-1.3-0.5s-1,0.2-1.3,0.6
								c-0.4,0.4-0.5,0.8-0.5,1.3s0.2,1,0.6,1.3c0.4,0.3,0.8,0.5,1.3,0.5S75.3,443.9,75.6,443.5z"/>
							<path fill="#AEAE9F" d="M72.5,441.1c-0.4,0.4-0.5,0.8-0.5,1.3s0.2,1,0.6,1.3c0.4,0.4,0.8,0.5,1.3,0.5s1-0.2,1.3-0.6
								c0.4-0.4,0.5-0.8,0.5-1.3s-0.2-1-0.6-1.3c-0.4-0.4-0.8-0.5-1.3-0.5S72.9,440.7,72.5,441.1z"/>
						</g>
						<g>
							<path fill="#E8E8E3" d="M75.6,436.1c0.4-0.4,0.5-0.8,0.5-1.3s-0.2-1-0.6-1.3c-0.4-0.4-0.8-0.5-1.3-0.5s-1,0.2-1.3,0.6
								c-0.4,0.4-0.5,0.8-0.5,1.3s0.2,1,0.6,1.3c0.4,0.4,0.8,0.5,1.3,0.5S75.3,436.5,75.6,436.1z"/>
							<path fill="#AEAE9F" d="M72.1,433.8c-0.4,0.4-0.5,0.8-0.5,1.3s0.2,1,0.6,1.3c0.4,0.4,0.8,0.5,1.3,0.5s1-0.2,1.3-0.6
								c0.4-0.4,0.5-0.8,0.5-1.3s-0.2-1-0.6-1.3c-0.4-0.4-0.8-0.5-1.3-0.5C72.9,433.3,72.5,433.5,72.1,433.8z"/>
						</g>
						<g>
							<path fill="#E8E8E3" d="M37.3,460.1c0.4-0.4,0.5-0.8,0.5-1.3s-0.2-1-0.6-1.3c-0.4-0.4-0.8-0.5-1.3-0.5s-1,0.2-1.3,0.6
								c-0.4,0.4-0.5,0.8-0.5,1.3s0.2,1,0.6,1.3c0.4,0.4,0.8,0.5,1.3,0.5S36.9,460.5,37.3,460.1z"/>
							<path fill="#AEAE9F" d="M34,457.5c-0.4,0.4-0.5,0.8-0.5,1.3s0.2,1,0.6,1.3c0.4,0.4,0.8,0.5,1.3,0.5s1-0.2,1.3-0.6
								c0.4-0.4,0.5-0.8,0.5-1.3s-0.2-1-0.6-1.3c-0.4-0.4-0.8-0.5-1.3-0.5C34.8,457,34.4,457.2,34,457.5z"/>
						</g>
						<g>
							<path fill="#E8E8E3" d="M37.3,452.8c0.4-0.4,0.5-0.8,0.5-1.3s-0.2-1-0.6-1.3c-0.4-0.4-0.8-0.5-1.3-0.5s-1,0.2-1.3,0.6
								c-0.4,0.4-0.5,0.8-0.5,1.3s0.2,1,0.6,1.3c0.4,0.4,0.8,0.5,1.3,0.5S36.9,453.2,37.3,452.8z"/>
							<path fill="#AEAE9F" d="M33.6,450.3c-0.4,0.4-0.5,0.8-0.5,1.3s0.2,1,0.6,1.3c0.4,0.4,0.8,0.5,1.3,0.5s1-0.2,1.3-0.6
								c0.4-0.4,0.5-0.8,0.5-1.3s-0.2-1-0.6-1.3c-0.4-0.4-0.8-0.5-1.3-0.5S34,449.9,33.6,450.3z"/>
						</g>
						<g>
							<path fill="#E8E8E3" d="M37.3,444.2c0.4-0.4,0.5-0.8,0.5-1.3s-0.2-1-0.6-1.3c-0.4-0.3-0.8-0.5-1.3-0.5s-1,0.2-1.3,0.6
								c-0.4,0.4-0.5,0.8-0.5,1.3s0.2,1,0.6,1.3c0.4,0.3,0.8,0.5,1.3,0.5S36.9,444.5,37.3,444.2z"/>
							<path fill="#AEAE9F" d="M33.6,441.6c-0.4,0.4-0.5,0.8-0.5,1.3s0.2,1,0.6,1.3c0.4,0.4,0.8,0.5,1.3,0.5s1-0.2,1.3-0.6
								c0.4-0.4,0.5-0.8,0.5-1.3s-0.2-1-0.6-1.3c-0.4-0.4-0.8-0.5-1.3-0.5S34,441.2,33.6,441.6z"/>
						</g>
						<g>
							<path fill="#E8E8E3" d="M36.9,436.7c0.4-0.4,0.5-0.8,0.5-1.3s-0.2-1-0.6-1.3c-0.4-0.3-0.8-0.5-1.3-0.5s-1,0.2-1.3,0.6
								c-0.4,0.4-0.5,0.8-0.5,1.3s0.2,1,0.6,1.3c0.4,0.3,0.8,0.5,1.3,0.5S36.5,437.1,36.9,436.7z"/>
							<path fill="#AEAE9F" d="M33.6,434.3c-0.4,0.4-0.5,0.8-0.5,1.3s0.2,1,0.6,1.3c0.4,0.4,0.8,0.5,1.3,0.5s1-0.2,1.3-0.6
								c0.4-0.4,0.5-0.8,0.5-1.3s-0.2-1-0.6-1.3c-0.4-0.4-0.8-0.5-1.3-0.5C34.4,433.8,34,434,33.6,434.3z"/>
						</g>
						<g>
							<path fill="#E8E8E3" d="M29,460.5c0.4-0.4,0.5-0.8,0.5-1.3s-0.2-1-0.6-1.3c-0.4-0.3-0.8-0.5-1.3-0.5s-1,0.2-1.3,0.6
								c-0.4,0.4-0.5,0.8-0.5,1.3s0.2,1,0.6,1.3c0.4,0.3,0.8,0.5,1.3,0.5S28.7,460.9,29,460.5z"/>
							<path fill="#AEAE9F" d="M26,457.5c-0.4,0.4-0.5,0.8-0.5,1.3s0.2,1,0.6,1.3c0.4,0.4,0.8,0.5,1.3,0.5s1-0.2,1.3-0.6
								c0.4-0.4,0.5-0.8,0.5-1.3s-0.2-1-0.6-1.3c-0.4-0.4-0.8-0.5-1.3-0.5C26.8,457,26.4,457.2,26,457.5z"/>
						</g>
						<g>
							<path fill="#E8E8E3" d="M28.8,452.8c0.4-0.4,0.5-0.8,0.5-1.3s-0.2-1-0.6-1.3c-0.4-0.4-0.8-0.5-1.3-0.5s-1,0.2-1.3,0.6
								c-0.4,0.4-0.5,0.8-0.5,1.3s0.2,1,0.6,1.3c0.4,0.4,0.8,0.5,1.3,0.5S28.5,453.2,28.8,452.8z"/>
							<path fill="#AEAE9F" d="M25.8,450.3c-0.4,0.4-0.5,0.8-0.5,1.3s0.2,1,0.6,1.3c0.4,0.4,0.8,0.5,1.3,0.5s1-0.2,1.3-0.6
								c0.4-0.4,0.5-0.8,0.5-1.3s-0.2-1-0.6-1.3c-0.4-0.4-0.8-0.5-1.3-0.5S26.2,449.9,25.8,450.3z"/>
						</g>
						<g>
							<path fill="#E8E8E3" d="M28.7,444.2c0.4-0.4,0.5-0.8,0.5-1.3s-0.2-1-0.6-1.3c-0.4-0.3-0.8-0.5-1.3-0.5s-1,0.2-1.3,0.6
								c-0.4,0.4-0.5,0.8-0.5,1.3s0.2,1,0.6,1.3s0.8,0.5,1.3,0.5S28.3,444.5,28.7,444.2z"/>
							<path fill="#AEAE9F" d="M25.8,441.9c-0.4,0.4-0.5,0.8-0.5,1.3s0.2,1,0.6,1.3c0.4,0.4,0.8,0.5,1.3,0.5s1-0.2,1.3-0.6
								c0.4-0.4,0.5-0.8,0.5-1.3s-0.2-1-0.6-1.3c-0.4-0.4-0.8-0.5-1.3-0.5C26.6,441.4,26.2,441.6,25.8,441.9z"/>
						</g>
						<g>
							<path fill="#E8E8E3" d="M28.7,436.7c0.4-0.4,0.5-0.8,0.5-1.3s-0.2-1-0.6-1.3c-0.4-0.3-0.8-0.5-1.3-0.5s-1,0.2-1.3,0.6
								c-0.4,0.4-0.5,0.8-0.5,1.3s0.2,1,0.6,1.3s0.8,0.5,1.3,0.5S28.3,437.1,28.7,436.7z"/>
							<path fill="#AEAE9F" d="M25.6,434.3c-0.4,0.4-0.5,0.8-0.5,1.3s0.2,1,0.6,1.3c0.4,0.4,0.8,0.5,1.3,0.5s1-0.2,1.3-0.6
								c0.4-0.4,0.5-0.8,0.5-1.3s-0.2-1-0.6-1.3c-0.4-0.4-0.8-0.5-1.3-0.5C26.4,433.8,26,434,25.6,434.3z"/>
						</g>
					</g>
				</g>
				<g>
					<g>
						<path d="M301.1,456.2c0.3-0.4,0.6-0.8,1.1-1.2c1.3-1.3,2.9-2.2,4.6-2.7c0.9-0.2,1.8-0.3,2.7-0.3c2.9,0,5.3,1,7.3,3
							s3,4.5,3,7.3s-1,5.3-3,7.3c-1.9,1.9-4.2,2.9-6.8,3c-0.2,0-0.4,0-0.5,0c-2.8,0-5.3-1-7.3-3s-3-4.4-3-7.3
							C299.2,460,299.9,457.9,301.1,456.2z"/>
					</g>
					<g>
						
							<linearGradient id="SVGID_68_" gradientUnits="userSpaceOnUse" x1="203.2891" y1="593.2705" x2="208.6391" y2="613.1705" gradientTransform="matrix(1 0 0 1 104.6797 -140.9199)">
							<stop  offset="0" style="stop-color:#4F5458"/>
							<stop  offset="1" style="stop-color:#202020"/>
						</linearGradient>
						<path fill="url(#SVGID_68_)" d="M302.4,456.2c0.3-0.4,0.7-0.8,1-1.2c1.3-1.3,2.9-2.2,4.6-2.7c0.9-0.2,1.8-0.3,2.6-0.3
							c2.9,0,5.4,1,7.4,3s3,4.5,3,7.3s-1,5.3-3,7.3c-1.9,1.9-4.2,2.9-6.8,3c-0.2,0-0.4,0-0.6,0c-2.8,0-5.3-1-7.3-3s-3-4.4-3-7.3
							C300.4,460,301,457.9,302.4,456.2z"/>
					</g>
					<g>
						
							<radialGradient id="SVGID_69_" cx="196.1201" cy="601.4297" r="8.5504" gradientTransform="matrix(1 0 0 0.9883 104.6797 -136.3938)" gradientUnits="userSpaceOnUse">
							<stop  offset="0" style="stop-color:#FFFFFF"/>
							<stop  offset="1" style="stop-color:#EFEFEF;stop-opacity:0"/>
						</radialGradient>
						<path fill="url(#SVGID_69_)" d="M303.6,455.4c-2,1.9-2.9,4.3-2.9,6.9c0,2.7,1,5,2.9,6.9c0.8,0.9,1.9,1.8,3.1,2.6
							c-1.3-0.5-2.4-1.3-3.4-2.3c-2-2-3.1-4.4-3.1-7.2s1-5.2,3.1-7.2c1-1,2.1-1.7,3.3-2.2C305.5,453.7,304.5,454.5,303.6,455.4z"/>
					</g>
					<g>
						
							<radialGradient id="SVGID_70_" cx="539.1279" cy="404" r="4.3114" gradientTransform="matrix(-0.4226 0.9063 -0.3386 -0.1579 666.0482 33.5303)" gradientUnits="userSpaceOnUse">
							<stop  offset="0" style="stop-color:#FFFFFF"/>
							<stop  offset="0.1882" style="stop-color:#FBFBFB"/>
							<stop  offset="0.3216" style="stop-color:#F9F9F9;stop-opacity:0.3529"/>
							<stop  offset="0.4902" style="stop-color:#F7F7F7;stop-opacity:0.1725"/>
							<stop  offset="0.6745" style="stop-color:#F5F5F5;stop-opacity:0"/>
							<stop  offset="1" style="stop-color:#EFEFEF;stop-opacity:0"/>
						</radialGradient>
						<path fill="url(#SVGID_70_)" d="M299.6,462.1c-0.4-0.1-0.6-0.6-0.5-1.5c0.1-0.9,0.4-1.8,0.9-2.8c0.5-1.1,1-1.9,1.6-2.5
							c0.6-0.6,1.1-0.8,1.5-0.7c0.4,0.2,0.6,0.7,0.5,1.6c-0.1,0.9-0.4,1.9-0.9,2.9s-1,1.9-1.6,2.5
							C300.5,462.1,300,462.3,299.6,462.1z"/>
					</g>
				</g>
				<g>
					<g>
						<path d="M301,444.7c0-0.8,0.3-1.5,0.8-2.1c0.6-0.5,1.3-0.8,2.1-0.8c0.8,0,1.5,0.3,2,0.8c0.6,0.6,0.9,1.3,0.9,2.1
							s-0.3,1.5-0.9,2c-0.6,0.6-1.3,0.8-2,0.8c-0.8,0-1.5-0.3-2.1-0.8C301.2,446.1,301,445.5,301,444.7z"/>
					</g>
					<g>
						<g>
							
								<radialGradient id="SVGID_71_" cx="38.2275" cy="616.2441" r="2.331" gradientTransform="matrix(0.9705 -0.2413 0.2627 0.9651 104.7129 -140.6661)" gradientUnits="userSpaceOnUse">
								<stop  offset="0" style="stop-color:#828282"/>
								<stop  offset="0.1294" style="stop-color:#6C7071"/>
								<stop  offset="0.4431" style="stop-color:#232424"/>
								<stop  offset="0.7725" style="stop-color:#000000"/>
								<stop  offset="1" style="stop-color:#000000"/>
							</radialGradient>
							<path fill="url(#SVGID_71_)" d="M302.2,444.8c0.5-0.1,0.8-0.4,0.9-0.8c0.1-0.2,0.1-0.5,0-1l0.5-0.1l0.2,0.8
								c0.3,0.4,0.7,0.4,1.4,0.1l0.3,0.6c-0.8,0.2-1.1,0.8-1,1.8l-0.8,0.1l-0.1-0.7c-0.1-0.4-0.5-0.4-1.2,0L302.2,444.8z"/>
							
								<radialGradient id="SVGID_72_" cx="38.627" cy="615.4688" r="4.7047" gradientTransform="matrix(0.9697 -0.2444 0.2604 0.9644 104.8524 -140.1464)" gradientUnits="userSpaceOnUse">
								<stop  offset="0" style="stop-color:#E7E7E7"/>
								<stop  offset="5.490196e-002" style="stop-color:#E4E4E4"/>
								<stop  offset="0.1098" style="stop-color:#C1C2C2"/>
								<stop  offset="0.2078" style="stop-color:#969798"/>
								<stop  offset="0.4078" style="stop-color:#6C7071"/>
								<stop  offset="0.5647" style="stop-color:#5A5E5F"/>
								<stop  offset="1" style="stop-color:#000000"/>
							</radialGradient>
							<path fill="url(#SVGID_72_)" d="M302.2,444.8l0.2,0.8c0.7-0.4,1.1-0.3,1.2,0l0.1,0.7l0.8-0.1c-0.1-1,0.2-1.6,1-1.8l-0.3-0.6
								c-0.7,0.3-1.1,0.3-1.4-0.1l-0.2-0.8l-0.5,0.1c0.1,0.4,0.1,0.7,0,1C303,444.4,302.7,444.7,302.2,444.8z M301.4,444.5
								c0-0.3,0.2-0.6,0.4-1c0.3-0.6,0.8-1,1.5-1.1c0.6-0.2,1.2-0.1,1.8,0.3c0.4,0.2,0.6,0.5,0.8,0.7c0.2,0.2,0.3,0.5,0.4,0.8
								c0.1,0.6,0,1.2-0.3,1.8v0.1c-0.3,0.5-0.8,0.9-1.4,1c-0.7,0.2-1.3,0.1-1.9-0.3c-0.4-0.2-0.7-0.5-0.9-0.8
								c-0.1-0.2-0.2-0.5-0.2-0.7C301.5,445.1,301.5,444.8,301.4,444.5L301.4,444.5z"/>
						</g>
					</g>
				</g>
				<g>
					<g>
						<path d="M301.3,480c0-0.8,0.3-1.5,0.8-2.1c0.6-0.5,1.3-0.8,2.1-0.8s1.5,0.3,2,0.8c0.6,0.6,0.9,1.3,0.9,2.1s-0.3,1.5-0.9,2
							c-0.6,0.5-1.3,0.9-2,0.9c-0.8,0-1.5-0.3-2.1-0.9C301.6,481.5,301.3,480.8,301.3,480z"/>
					</g>
					<g>
						<g>
							
								<radialGradient id="SVGID_73_" cx="29.75" cy="649.833" r="4.7054" gradientTransform="matrix(0.9697 -0.2444 0.2604 0.9644 104.8641 -140.1053)" gradientUnits="userSpaceOnUse">
								<stop  offset="0" style="stop-color:#E7E7E7"/>
								<stop  offset="5.490196e-002" style="stop-color:#E4E4E4"/>
								<stop  offset="0.1098" style="stop-color:#C1C2C2"/>
								<stop  offset="0.2078" style="stop-color:#969798"/>
								<stop  offset="0.4078" style="stop-color:#6C7071"/>
								<stop  offset="0.5647" style="stop-color:#5A5E5F"/>
								<stop  offset="1" style="stop-color:#000000"/>
							</radialGradient>
							<path fill="url(#SVGID_73_)" d="M304.2,479l-0.2-0.8l-0.5,0.2c0.1,0.4,0.1,0.7,0,0.9c-0.2,0.4-0.5,0.7-1,0.8l0.2,0.8
								c0.7-0.4,1.1-0.4,1.2,0l0.1,0.7l0.8-0.2c-0.1-1,0.2-1.5,1-1.8l-0.3-0.6C304.9,479.5,304.5,479.4,304.2,479z M306.3,478.7
								c0.2,0.2,0.3,0.5,0.4,0.8c0.1,0.6,0,1.2-0.3,1.8l-0.1,0.1c-0.3,0.5-0.8,0.9-1.4,1c-0.7,0.2-1.3,0.1-1.9-0.3
								c-0.4-0.2-0.7-0.5-0.9-0.8c-0.1-0.2-0.2-0.5-0.2-0.7c-0.1-0.2-0.2-0.4-0.2-0.6c0-0.1,0-0.1,0-0.2c0-0.3,0.2-0.6,0.4-1
								c0.3-0.6,0.8-1,1.5-1.1c0.6-0.2,1.2-0.1,1.8,0.3C305.8,478.2,306.1,478.4,306.3,478.7z"/>
							
								<radialGradient id="SVGID_74_" cx="29.2778" cy="650.6348" r="2.3314" gradientTransform="matrix(0.9705 -0.2413 0.2627 0.9651 104.7129 -140.6661)" gradientUnits="userSpaceOnUse">
								<stop  offset="0" style="stop-color:#828282"/>
								<stop  offset="0.1294" style="stop-color:#6C7071"/>
								<stop  offset="0.4431" style="stop-color:#232424"/>
								<stop  offset="0.7725" style="stop-color:#000000"/>
								<stop  offset="1" style="stop-color:#000000"/>
							</radialGradient>
							<path fill="url(#SVGID_74_)" d="M304.2,479c0.3,0.4,0.7,0.5,1.4,0.2l0.3,0.6c-0.8,0.2-1.1,0.8-1,1.8l-0.8,0.2L304,481
								c-0.1-0.4-0.5-0.4-1.2,0l-0.2-0.8c0.5-0.1,0.8-0.4,1-0.8c0.1-0.2,0.1-0.5,0-0.9l0.5-0.2L304.2,479z"/>
						</g>
					</g>
				</g>
			</g>
		</g>
	</g>
	<g>
		<g>
			
				<linearGradient id="SVGID_75_" gradientUnits="userSpaceOnUse" x1="256.4824" y1="591.4697" x2="347.2574" y2="591.4697" gradientTransform="matrix(1 0 0 1 104.6797 -140.9199)">
				<stop  offset="0" style="stop-color:#000000"/>
				<stop  offset="1" style="stop-color:#7B6864;stop-opacity:0"/>
			</linearGradient>
			<path fill="url(#SVGID_75_)" d="M382.1,413.3c2.6-3.6,5.2-6.3,7.9-8h58.4v90.5H389l-5.5-6.5H382L382.1,413.3L382.1,413.3z"/>
		</g>
		<g>
			<g>
				<polygon points="390,406.4 414.5,406.4 414.5,495.5 388.8,495.5 382.7,489.5 382.7,413.6 				"/>
			</g>
			<g>
				<g>
					<path fill="#333333" d="M404.3,495.5v-89.1H417v89.1H404.3z M398.2,406.4v89.1h-6.9l-6.2-6.1v-75.7l7.4-7.4h5.7V406.4z"/>
					<rect x="398.2" y="406.4" fill="#161415" width="6.2" height="89.1"/>
				</g>
			</g>
		</g>
		<g>
			<g>
				<g>
					
						<linearGradient id="SVGID_76_" gradientUnits="userSpaceOnUse" x1="289.1074" y1="554.6699" x2="305.0324" y2="554.6699" gradientTransform="matrix(1 0 0 1 104.6797 -140.9199)">
						<stop  offset="0" style="stop-color:#080808"/>
						<stop  offset="0.2824" style="stop-color:#404040"/>
						<stop  offset="0.4784" style="stop-color:#515151"/>
						<stop  offset="0.7882" style="stop-color:#2B2B2B"/>
						<stop  offset="1" style="stop-color:#000000"/>
					</linearGradient>
					<path fill="url(#SVGID_76_)" d="M409.2,417c0-0.1-0.8-0.2-2.3-0.4c-1.5-0.1-3.3-0.1-5.4-0.1c-0.4,0-0.8,0-1.2,0
						c-1.6,0-3,0.1-4.3,0.1c-1.5,0.2-2.3,0.3-2.3,0.4v-6c0,0,0.1,0,0.2,0c0.3-0.1,1-0.2,2.1-0.3c1.5-0.1,3.3-0.2,5.4-0.2
						c2.1,0,3.8,0.1,5.3,0.2c1.4,0.1,2.1,0.2,2.2,0.3L409.2,417z"/>
					<path d="M409.2,417c0,0.2-0.8,0.3-2.3,0.5c-1.5,0.1-3.3,0.1-5.4,0.1c-0.4,0-0.8,0-1.2,0c-1.6,0-3,0-4.3-0.1
						c-1.5-0.1-2.3-0.3-2.3-0.5c0-0.1,0.8-0.2,2.3-0.4c1.2,0,2.6-0.1,4.3-0.1c0.4,0,0.8,0,1.2,0c2.1,0,3.9,0,5.4,0.1
						C408.4,416.8,409.2,417,409.2,417z"/>
				</g>
			</g>
			<g>
				
					<linearGradient id="SVGID_77_" gradientUnits="userSpaceOnUse" x1="293.2832" y1="564.9697" x2="300.0583" y2="564.9697" gradientTransform="matrix(1 0 0 1 104.6797 -140.9199)">
					<stop  offset="0" style="stop-color:#454545"/>
					<stop  offset="0.1569" style="stop-color:#949494"/>
					<stop  offset="0.2667" style="stop-color:#404040"/>
					<stop  offset="0.4706" style="stop-color:#E1E1E1"/>
					<stop  offset="0.7216" style="stop-color:#808080"/>
					<stop  offset="1" style="stop-color:#343434"/>
				</linearGradient>
				<rect x="398" y="417" fill="url(#SVGID_77_)" width="6.8" height="14.1"/>
			</g>
		</g>
	</g>
	<g>
		<g>
			<g>
				<g>
					<path d="M480.6,411.5v79l-1.8-1v-77.4L480.6,411.5z M482.7,421.8c0-1.2,0.4-2.2,1.3-3c0.9-0.9,1.9-1.3,3.1-1.3
						c1.2,0,2.2,0.4,3.1,1.3c0.8,0.8,1.3,1.9,1.3,3c0,1.2-0.4,2.2-1.3,3.1c-0.4,0.4-0.9,0.7-1.4,0.9c0,0-0.1,0-0.1,0.1
						c-0.4,0.2-0.8,0.3-1.1,0.3h1.1v60.3h-4.5v-60.3c0.1-0.3,0.1-0.6,0.3-0.9c-0.1,0-0.2-0.1-0.3-0.1c-0.1-0.1-0.2-0.2-0.3-0.3
						C483.1,424,482.7,423,482.7,421.8z M495.9,491.7L495.9,491.7l-3-1.3v-79l3-2.2V491.7z"/>
					<path fill="#333333" d="M492.9,490.4h-12.3v-79h12.3V490.4z M482.7,421.8c0,1.2,0.4,2.2,1.3,3.1c0.1,0.1,0.2,0.2,0.3,0.3
						c0.1,0.1,0.1,0.1,0.3,0.1c-0.1,0.3-0.2,0.6-0.3,0.9v60.3h4.5v-60.3h-1.1c0.4,0,0.8-0.1,1.1-0.3c0-0.1,0.1-0.1,0.1-0.1
						c0.5-0.2,0.9-0.5,1.4-0.9c0.8-0.9,1.3-1.9,1.3-3.1s-0.4-2.2-1.3-3c-0.9-0.9-1.9-1.3-3.1-1.3s-2.2,0.4-3.1,1.3
						C483.1,419.6,482.7,420.6,482.7,421.8z M495.9,491.7v-82.4l12,0.1v82.3H495.9z M490.5,418.5L490.5,418.5
						c1.8,2.4,1.7,4.7-0.3,6.9c0,0,0.1,0,0.1-0.1C492.7,422.9,492.8,420.6,490.5,418.5z"/>
					<path fill="#7F7F7F" d="M490.5,418.5c2.2,2.1,2.2,4.4-0.3,6.8l-0.1,0.1C492.3,423.2,492.4,420.9,490.5,418.5L490.5,418.5z"/>
				</g>
			</g>
			<g>
				<g>
					
						<linearGradient id="SVGID_78_" gradientUnits="userSpaceOnUse" x1="388.626" y1="566.4092" x2="388.9158" y2="627.4319" gradientTransform="matrix(1 0 0 1 104.6797 -140.9199)">
						<stop  offset="0" style="stop-color:#484848"/>
						<stop  offset="0.4157" style="stop-color:#2A2A2A"/>
						<stop  offset="0.4863" style="stop-color:#666666"/>
						<stop  offset="0.7098" style="stop-color:#151515"/>
						<stop  offset="1" style="stop-color:#000000"/>
					</linearGradient>
					<path fill="url(#SVGID_78_)" d="M491.4,425.9h2.9c0.4,0.7,0.7,3.6,1,8.7c0.2,3.6,0.3,7.7,0.4,12.2c0,2.9,0,6,0,9.3
						c0,2.5,0,4.9,0,7.2c-0.1,4.2-0.2,8-0.3,11.4c-0.1,1-0.1,1.9-0.2,2.8c-0.2,4.9-0.5,7.7-0.9,8.6h-3c0.4-0.9,0.7-3.7,0.9-8.6h0.8
						h-0.8c0.1-0.9,0.1-1.8,0.1-2.8c0.1-2.8,0.2-5.8,0.3-9.2V465c0-0.5,0-1,0-1.5c-0.1-2.4-0.1-4.9-0.1-7.5c0-3.3,0-6.4,0.1-9.3
						c0,0,0-0.1,0-0.2c-0.1-4.4-0.2-8.4-0.4-11.9v-0.1C492.1,429.5,491.8,426.6,491.4,425.9z"/>
					<path fill="#161616" d="M492.3,477.4L492.3,477.4c-0.2,4.9-0.5,7.8-0.9,8.6H491c-0.3-0.9-0.6-3.7-0.9-8.6
						c-0.1-0.9-0.1-1.8-0.1-2.8c-0.1-3.3-0.2-6.9-0.3-10.9c-0.1-2.4-0.1-5-0.1-7.7c0-3.3,0.1-6.4,0.2-9.3c0-4.5,0.2-8.5,0.3-12.1
						c0.3-5.1,0.6-8,1-8.7h0.4c0.4,0.7,0.7,3.6,0.9,8.7v0.1c0.2,3.5,0.3,7.5,0.4,11.9c0,0.1,0,0.1,0,0.2c-0.1,2.9-0.1,6-0.1,9.3
						c0,2.6,0,5.1,0.1,7.5c0,0.5,0,1,0,1.5v0.5c-0.1,3.3-0.2,6.4-0.3,9.2C492.4,475.6,492.4,476.5,492.3,477.4z"/>
					<polygon fill="#333333" points="492.3,477.5 492.3,477.4 493.1,477.5 					"/>
				</g>
			</g>
		</g>
	</g>
	<g>
		<g>
			<g>
				<path d="M677.3,458L677.3,458c-5.4-0.2-11.3-0.2-17.9,0c-0.5,0-1-0.2-1.4-0.5c-0.4-0.4-0.6-0.8-0.7-1.4c0-0.5,0.2-1,0.5-1.4
					c0.4-0.4,0.8-0.6,1.4-0.7c6.7-0.2,12.7-0.3,18.2,0c7.8,0.2,13.4,3,16.9,8.3l0,0c3.4,5.1,5.1,10.7,5.1,16.9
					c0,5.7-1.8,12.1-5.4,19l0,0c-1.1,2.1-4.8,8.4-11.3,18.7l0,0c-5.1,8-8.8,15.1-11.2,21.2l0,0c-3.3,8.6-5,17.4-5,26.3
					c0,18.3,6.7,32.3,20,41.9c5.5,4,11.9,7,19.1,8.9c2.1,0.5,7.2,1.2,15.3,2.1c0.5,0.1,1,0.3,1.3,0.8c0.3,0.4,0.5,0.9,0.4,1.5
					c-0.1,0.5-0.3,1-0.7,1.3c-0.4,0.4-0.9,0.5-1.5,0.5c-8.4-0.9-13.7-1.7-15.8-2.3c-7.7-2.1-14.5-5.2-20.4-9.5
					c-14.5-10.4-21.7-25.4-21.7-45.2c0-9.4,1.7-18.7,5.2-27.8l0,0c2.5-6.3,6.3-13.6,11.5-21.9l0,0c6.4-10.2,10.1-16.3,11.2-18.4l0,0
					c3.3-6.3,4.9-12,4.9-17.2c0-5.4-1.5-10.2-4.4-14.6l0,0C688,460.4,683.5,458.2,677.3,458z"/>
			</g>
			<g>
				<g>
					
						<linearGradient id="SVGID_79_" gradientUnits="userSpaceOnUse" x1="559.8604" y1="591.7139" x2="461.9852" y2="599.1249" gradientTransform="matrix(1 0 0 1 104.6797 -140.9199)">
						<stop  offset="2.352941e-002" style="stop-color:#313E3A"/>
						<stop  offset="1" style="stop-color:#1C1F20"/>
					</linearGradient>
					<path fill="url(#SVGID_79_)" d="M563.7,474.3l-0.1-38.3v-1h0.4l21.5-0.1h5.7h70.9l0.2,39.5l-71.1,0.1h-5.7H564L563.7,474.3
						L563.7,474.3z M585.4,439.7l-13.1-0.2l-0.1,29.3l13.2,0.2h5.7h9.2l0.4-29.2h-9.6L585.4,439.7L585.4,439.7z"/>
					<polygon points="563.5,434.9 563.5,436 563.7,474.3 561.8,473.5 561.8,436.2 563.5,434.8 					"/>
					
						<linearGradient id="SVGID_80_" gradientUnits="userSpaceOnUse" x1="-500.0171" y1="-590.5225" x2="-468.9407" y2="-590.5225" gradientTransform="matrix(-1 -9.653614e-003 -9.405682e-003 -1.0001 106.6789 -140.9099)">
						<stop  offset="2.352941e-002" style="stop-color:#98ABA5"/>
						<stop  offset="1" style="stop-color:#6B8379"/>
					</linearGradient>
					<polygon fill="url(#SVGID_80_)" points="585.4,439.7 591.1,439.7 600.7,439.7 600.3,468.9 591.1,468.9 585.4,468.9 
						572.2,468.8 572.3,439.5 					"/>
				</g>
			</g>
			<g>
				<g>
					
						<linearGradient id="SVGID_81_" gradientUnits="userSpaceOnUse" x1="601.3477" y1="-414.1416" x2="615.2716" y2="-414.1416" gradientTransform="matrix(5.924826e-002 0.9982 -1.0003 2.502291e-002 105.6213 -141.918)">
						<stop  offset="2.352941e-002" style="stop-color:#313E3A"/>
						<stop  offset="0.3451" style="stop-color:#5B7167"/>
						<stop  offset="1" style="stop-color:#1C1F20"/>
					</linearGradient>
					<path fill="url(#SVGID_81_)" d="M549,467.3c0.1-0.1,0.2-0.4,0.3-0.7l0.3-2.8v-0.2c0.2-2.5,0.3-5.4,0.3-8.8l-0.2-7.7
						c0-0.2-0.1-0.4-0.1-0.6l-0.3-2.7c-0.2-0.7-0.3-1.2-0.4-1.4c0,0-0.1-0.1-0.2-0.1c0.3,0,0.6,0,0.9,0h2.2h9.9c0.3,0,0.5,0.3,0.7,1
						c0.2,0.6,0.3,1.5,0.5,2.7c0.4,2.5,0.5,5.4,0.5,8.9c0,3.4-0.2,6.4-0.5,8.8c-0.3,2.1-0.7,3.3-1,3.6H549L549,467.3z"/>
					<path d="M548.8,442.3c0.1,0,0.1,0.1,0.2,0.1c0.1,0.2,0.3,0.7,0.4,1.4l0.3,2.7c0,0.2,0,0.4,0.1,0.6l0.2,7.7
						c0,3.4-0.1,6.3-0.3,8.8v0.2l-0.3,2.8c-0.1,0.3-0.2,0.6-0.3,0.7v0.1H549c-0.2-0.1-0.4-1.3-0.6-3.6v-0.2
						c-0.2-2.5-0.4-5.4-0.4-8.8c0-3.4,0.1-6.3,0.4-8.9v-0.1C548.3,443.8,548.5,442.7,548.8,442.3
						C548.7,442.4,548.7,442.3,548.8,442.3z"/>
				</g>
			</g>
			<g>
				<g>
					
						<radialGradient id="SVGID_82_" cx="585.9707" cy="554.5791" r="19.55" gradientTransform="matrix(1 0 0 1.399 104.6797 -301.7469)" gradientUnits="userSpaceOnUse">
						<stop  offset="0" style="stop-color:#FFFFFF"/>
						<stop  offset="1" style="stop-color:#FFFFFF;stop-opacity:0"/>
					</radialGradient>
					<path fill="url(#SVGID_82_)" d="M659.2,455.6c6.7-0.2,12.7-0.3,18.1,0c7.2,0.2,12.4,2.7,15.6,7.6c3.3,4.8,4.9,10.2,4.9,16
						c0,5.5-1.7,11.6-5.2,18.3c-0.8,1.6-3.3,5.8-7.4,12.3c-0.1,0.1-0.2,0.2-0.3,0.2c-0.1,0-0.3,0-0.4,0c-0.1-0.1-0.2-0.2-0.2-0.3
						c0-0.1,0-0.3,0-0.4c4.1-6.5,6.5-10.6,7.3-12.3c3.4-6.6,5.1-12.5,5.1-17.9c0-5.7-1.6-10.8-4.7-15.5c-3.1-4.6-8-7-14.8-7.2
						c-5.4-0.2-11.4-0.2-18,0c-0.1,0-0.3,0-0.4-0.1c-0.1-0.1-0.1-0.2-0.2-0.3c0-0.1,0-0.3,0.1-0.4
						C659,455.7,659.1,455.6,659.2,455.6z"/>
					
						<radialGradient id="SVGID_83_" cx="560.7207" cy="547.1855" r="9.75" gradientTransform="matrix(1 0 0 3.3487 104.6797 -1277.4655)" gradientUnits="userSpaceOnUse">
						<stop  offset="0" style="stop-color:#FFFFFF"/>
						<stop  offset="1" style="stop-color:#FFFFFF;stop-opacity:0"/>
					</radialGradient>
					<path fill="url(#SVGID_83_)" d="M664,564.5c0-9.3,1.7-18.3,5.1-27.2c1.9-4.8,4.6-10.2,8-16.1c0.1-0.1,0.2-0.2,0.3-0.2
						c0.1,0,0.3,0,0.4,0c0.1,0.1,0.2,0.2,0.2,0.3c0,0.1,0,0.3,0,0.4c-3.4,5.9-6.1,11.2-8,16c-3.4,8.8-5.1,17.7-5.1,26.9
						c0,7.8,1.2,14.8,3.5,21c0,0.1,0,0.3,0,0.4c-0.1,0.1-0.1,0.2-0.3,0.3c-0.1,0-0.3,0-0.4,0c-0.1-0.1-0.2-0.1-0.3-0.3
						C665.2,579.5,664,572.3,664,564.5z"/>
					
						<radialGradient id="SVGID_84_" cx="592.6211" cy="963.0547" r="23.8217" gradientTransform="matrix(1 0 0 0.4974 104.6797 128.985)" gradientUnits="userSpaceOnUse">
						<stop  offset="0" style="stop-color:#FFFFFF"/>
						<stop  offset="1" style="stop-color:#FFFFFF;stop-opacity:0"/>
					</radialGradient>
					<path fill="url(#SVGID_84_)" d="M673.5,597c-0.1-0.1-0.1-0.2-0.1-0.4c0-0.1,0.1-0.2,0.2-0.3c0.1-0.1,0.2-0.1,0.4-0.1
						c0.1,0,0.2,0.1,0.3,0.2c3,4.2,6.8,8,11.4,11.3c5.6,4.1,12.2,7.1,19.6,9.1c2.1,0.6,7.3,1.3,15.5,2.2c0.1,0,0.3,0.1,0.3,0.2
						c0.1,0.1,0.1,0.2,0.1,0.4c0,0.1-0.1,0.3-0.2,0.3c-0.1,0.1-0.2,0.1-0.4,0.1c-8.3-0.9-13.5-1.7-15.6-2.2
						c-7.5-2-14.2-5.1-19.9-9.3C680.4,605.1,676.6,601.3,673.5,597z"/>
				</g>
			</g>
		</g>
	</g>
</g>
</svg>
