<?xml version="1.0" encoding="utf-8"?>
<!-- Generator: Adobe Illustrator 16.0.0, SVG Export Plug-In . SVG Version: 6.00 Build 0)  -->
<!DOCTYPE svg PUBLIC "-//W3C//DTD SVG 1.1//EN" "http://www.w3.org/Graphics/SVG/1.1/DTD/svg11.dtd">
<svg version="1.1" xmlns="http://www.w3.org/2000/svg" xmlns:xlink="http://www.w3.org/1999/xlink" x="0px" y="0px" width="72.8px"
	 height="72.8px" viewBox="0 0 72.8 72.8" enable-background="new 0 0 72.8 72.8" xml:space="preserve">
<g id="Layer_1">
	<g id="Layer_2">
	</g>
</g>
<g id="Layer_2_1_">
	<g>
		<g>
			<g>
				<linearGradient id="SVGID_1_" gradientUnits="userSpaceOnUse" x1="-69.7715" y1="-52.5269" x2="52.5151" y2="50.4604">
					<stop  offset="0" style="stop-color:#9E978D"/>
					<stop  offset="1" style="stop-color:#161415"/>
				</linearGradient>
				<path fill-rule="evenodd" clip-rule="evenodd" fill="url(#SVGID_1_)" d="M35.3,3.7c8.9,0,16.5,3.2,22.8,9.5
					c6.3,6.3,9.5,13.9,9.5,22.8c0,9-3.1,16.6-9.5,22.9c-6.3,6.3-13.9,9.4-22.8,9.4s-16.5-3.1-22.8-9.4C6.2,52.5,3,44.9,3,35.9
					c0-8.9,3.1-16.5,9.5-22.8C18.8,6.8,26.4,3.7,35.3,3.7z"/>
			</g>
			<g>
				<g>
					
						<path fill-rule="evenodd" clip-rule="evenodd" fill="none" stroke="#FFFFFF" stroke-width="0.5" stroke-linecap="round" stroke-linejoin="round" stroke-miterlimit="3" stroke-opacity="0.498" d="
						M36.7,6.7v4.1 M23.4,13.8L21,10.6 M32,10.9l-0.7-4.1 M27.4,11.6l-1.5-3.3 M13.2,24.3l-3.6-2.1 M15.9,20.2l-3.2-2.6 M19.1,16.7
						l-2.6-3 M11.3,42.2L6.8,43 M6.5,37.8h4 M11.5,28.5l-3.9-1.4 M10.6,33.2l-4-0.8 M12.9,46.5l-3.8,1.4 M47,9l-1.3,3.8 M42,7.3
						l-0.7,4 M55.8,15l-2.6,3 M59.1,19l-3,2.5 M51.8,11.7l-2,3.4 M64.2,37.7h-3.7 M64.2,32.9l-3.7,0.7 M63.4,28.1l-3.6,1.2
						 M59.9,41.8l3.7,0.6 M61.7,23.4l-3.3,1.8 M62,46.9l-3.4-1.3 M41.3,64.3l-0.6-3.8 M53.6,57.9l-2.3-2.8 M54.2,52.4l3.1,2.9
						 M49.7,61L48,57.4 M45.7,63l-1.3-3.9 M24.9,58.4l-2,3.4 M28.6,59.9L27,64.1 M32.7,60.6L32,64.8 M17.9,53.4l-3,2.5 M21.2,56.2
						l-2.5,3 M36.7,65.1v-4.4 M15.2,50.3l-3.8,1.9 M60.4,51.2l-3.8-1.9"/>
				</g>
				<g>
					
						<path fill-rule="evenodd" clip-rule="evenodd" fill="none" stroke="#FFFFFF" stroke-width="0.5" stroke-linecap="round" stroke-linejoin="round" stroke-miterlimit="3" stroke-opacity="0.498" d="
						M34.6,8.6l-0.1-1.8 M33.6,8.6l-0.2-1.8 M32.7,8.6l-0.3-1.8 M30.4,8.9L30,7.2 M35.5,8.5l-0.2-1.8 M38.8,8.6L39,6.8 M37.9,8.6
						l0-1.8 M39.7,8.7L39.9,7 M27.6,9.5L27,7.8 M28.6,9.3l-0.5-1.8 M29.5,9.1l-0.5-1.8 M25.7,10.2l-0.8-1.7 M24.9,10.4l-0.8-1.5
						 M23.1,11.3L22,9.8 M24,10.9l-1-1.4 M21.1,12.6l-1-1.7 M19.6,13.6L18.4,12 M15.6,17.1l-1.3-1.4 M16.3,16.4L15,14.9 M17,15.7
						l-1-1.2 M14.9,17.9l-1-1.1 M12.9,20.6l-1.6-1.2 M13.4,19.8l-1.5-1.2 M12.4,21.3l-1.7-1 M11.8,22.2l-1.7-1 M10.9,24.1L9,23.2
						 M10.2,25.8l-2-0.8 M10.4,24.9l-1.8-1 M18.8,14.3l-1.3-1.5 M9.1,28.8l-2-0.6 M8.8,30.6l-2-0.5 M8.9,29.7L7,29.1 M8.4,34.7
						l-2.1-0.3 M8.4,36.6l-2.1,0 M8.4,33.8l-2.1-0.2 M8.7,31.5l-2-0.5 M8.4,35.6l-2.1-0.1 M8.6,39.9l-2,0.1 M8.8,40.7l-2.1,0.1
						 M8.9,41.5l-2.1,0.3 M8.5,38.9l-2,0.1 M9.5,43.8l-2.1,0.5 M12.1,49.7l-1.8,0.9 M11.7,49l-1.9,0.8 M10.1,45.4L8,46 M11.3,48.1
						L9.4,49 M10.4,46.2l-2,0.7 M9.8,44.6l-2.1,0.6 M9.8,26.7l-1.9-0.8 M20.4,13.1l-1.1-1.7 M61,25.9l1.4-0.7 M60.6,25.1l1.5-0.8
						 M48.4,11.6L49,10 M49.2,12l0.6-1.5 M45.5,10.2L46,8.6 M44.5,9.9L45,8.3 M43.8,9.5L44.2,8 M42.9,9.4l0.4-1.6 M40.6,8.9l0.2-1.6
						 M47.6,11.2l0.5-1.6 M56.6,18.3l1.2-1.2 M57.2,19.1l1.2-1 M58.5,21l1.3-1 M55.9,17.6l1.1-1.2 M54.1,15.7l0.9-1.3 M55.3,17
						l1-1.3 M51.9,13.8l0.8-1.4 M52.5,14.4l0.8-1.4 M50,12.6l0.7-1.5 M53.3,15l0.8-1.4 M61.3,26.7l1.4-0.7 M61.7,27.7l1.5-0.6
						 M62,29.5l1.6-0.6 M62.4,31.1l1.6-0.3 M62.5,32.2l1.6-0.4 M62.3,30.3l1.5-0.5 M62.7,34.1l1.5-0.3 M62.7,35.8l1.6-0.2
						 M62.7,34.9l1.6-0.2 M62.7,36.7h1.6 M62.6,38.8l1.6,0 M61.5,44.1l1.6,0.5 M61.3,44.8l1.6,0.5 M61.8,43.1l1.6,0.4 M62.3,40.5
						l1.8,0.3 M62.4,39.7l1.8,0.1 M62.2,41.3l1.6,0.3 M60.9,45.7l1.7,0.5 M59.5,22.5l1.4-0.8 M59,21.7l1.3-0.9 M60.2,47.2l1.7,0.7
						 M59.9,48.1l1.6,0.7 M59,49.5l1.5,0.8 M59.5,48.8l1.5,0.7 M60,23.4l1.3-0.8 M57.6,51.7l1.5,0.9 M58.1,51l1.5,0.8 M57,52.4
						l1.5,1 M56.5,53.1l1.4,1 M54.1,55.7l1.1,1.3 M50.6,58.4l0.9,1.5 M52.1,57.4l1,1.4 M51.3,57.9l1,1.5 M55.2,54.5l1.3,1.1
						 M54.6,55.1l1.3,1.3 M53.4,56.3l1.2,1.3 M47.5,60.2l0.7,1.7 M48.4,59.8l0.8,1.6 M46.7,60.6l0.7,1.7 M45.9,61l0.7,1.7
						 M49.9,58.9l0.9,1.5 M42,62.2l0.4,1.8 M40.3,62.5l0.3,1.9 M44.5,61.4l0.6,1.8 M43.6,61.8l0.5,1.8 M42.8,61.9l0.5,1.9
						 M26.1,61.3l-0.8,1.8 M22.2,59.5L21,61.1 M21.4,59l-1.3,1.6 M22.9,59.9l-1.1,1.8 M25.4,61l-0.9,1.8 M24.5,60.6l-1.1,1.8
						 M27,61.6l-0.8,1.8 M29.7,62.3l-0.5,2 M30.6,62.5l-0.4,1.9 M28.9,62.1l-0.6,2 M35,62.9l-0.1,1.9 M33.2,62.8l-0.3,1.9
						 M35.9,62.9l0,1.9 M31.5,62.6l-0.4,1.9 M34.1,62.9l-0.3,1.9 M39.4,62.7l0.3,1.9 M38.5,62.8l0.3,1.9 M37.6,62.8l0,1.9
						 M14.4,52.9L12.6,54 M13.9,52.1l-1.8,1 M17.7,56.2l-1.4,1.5 M17,55.7L15.6,57 M19,57.3l-1.4,1.5 M18.4,56.8L17,58.4 M14.9,53.4
						l-1.6,1.3 M15.6,54.1l-1.7,1.3 M20.6,58.5l-1.3,1.6 M12.6,50.4l-1.8,1"/>
				</g>
			</g>
			<g>
				<path fill-rule="evenodd" clip-rule="evenodd" d="M23.4,35.8c0-3.4,1.2-6.2,3.5-8.5c2.4-2.4,5.2-3.5,8.6-3.5
					c3.4,0,6.2,1.2,8.5,3.5c2.4,2.3,3.5,5.2,3.5,8.5c0,3.3-1.2,6.2-3.5,8.5c-2.3,2.4-5.2,3.5-8.5,3.5c-3.3,0-6.2-1.2-8.6-3.5
					C24.6,42,23.4,39.2,23.4,35.8z"/>
			</g>
			<g>
				<g>
					<g>
						<path fill-rule="evenodd" clip-rule="evenodd" fill="#232323" d="M33.7,23.5v24.4h-3.5V23.5H33.7z M39.8,47.9V23.5h3.5v24.4
							H39.8z"/>
						<rect x="33.7" y="23.5" fill-rule="evenodd" clip-rule="evenodd" width="6.1" height="24.4"/>
					</g>
				</g>
				<g>
					<g>
						<linearGradient id="SVGID_2_" gradientUnits="userSpaceOnUse" x1="23.0176" y1="47.4829" x2="49.9176" y2="20.5829">
							<stop  offset="0" style="stop-color:#7B9896"/>
							<stop  offset="1" style="stop-color:#B9C6C4"/>
						</linearGradient>
						<rect x="34.6" y="6.7" fill-rule="evenodd" clip-rule="evenodd" fill="url(#SVGID_2_)" width="3.8" height="54.6"/>
					</g>
					<g>
						<g>
							<line fill-rule="evenodd" clip-rule="evenodd" fill="none" x1="34.7" y1="7" x2="38.2" y2="7"/>
							<line fill-rule="evenodd" clip-rule="evenodd" fill="none" x1="37.2" y1="8.3" x2="37.2" y2="59.6"/>
						</g>
					</g>
				</g>
			</g>
			<g>
				<path fill-rule="evenodd" clip-rule="evenodd" fill="#FFFFFF" fill-opacity="0.5255" d="M36.9,11.7c0.1,0.1,0.1,0.1,0.1,0.2
					c0,0,0,0.1-0.1,0.2c0,0-0.1,0-0.1,0c0.1,0,0.1,0.1,0.1,0.1c0,0.1,0.1,0.1,0.1,0.2c0,0.1,0,0.2-0.1,0.2c-0.1,0.1-0.2,0.1-0.3,0.1
					c-0.1,0-0.2,0-0.3-0.1c-0.1,0-0.1-0.1-0.1-0.2c0-0.1,0-0.1,0-0.2c0,0,0.1-0.1,0.2-0.1c0,0-0.1,0-0.1,0c0-0.1,0-0.1,0-0.2
					c0-0.1,0-0.2,0.1-0.2c0-0.1,0.1-0.1,0.2-0.1C36.7,11.6,36.8,11.7,36.9,11.7z M36.5,12C36.6,12.1,36.6,12.1,36.5,12
					c0.2,0,0.2,0,0.3,0s0-0.1,0-0.1c0-0.1,0-0.1,0-0.1s-0.1,0-0.2,0c0,0-0.1,0-0.1,0s0,0.1,0,0.1C36.5,12,36.5,12,36.5,12z
					 M37.3,11.7c0.1-0.1,0.1-0.1,0.2-0.1c0.1,0,0.1,0,0.1,0c0.1,0,0.1,0.1,0.2,0.1c0,0,0,0.1,0,0.1c0,0.1,0,0.2,0,0.3
					c0,0.1,0,0.2,0,0.3c0,0.1-0.1,0.2-0.2,0.2c0,0-0.1,0-0.2,0c-0.1,0-0.2,0-0.3-0.1c-0.1-0.1-0.1-0.3-0.1-0.5c0-0.1,0-0.2,0-0.3
					C37.2,11.8,37.2,11.7,37.3,11.7z M37.3,12.1c0,0.2,0,0.3,0,0.4c0,0.1,0.1,0.1,0.2,0.1c0.1,0,0.1,0,0.1-0.1
					c0.1,0,0.1-0.2,0.1-0.4c0-0.2,0-0.3-0.1-0.3c0-0.1-0.1-0.1-0.1-0.1c-0.1,0-0.1,0-0.2,0.1S37.3,12,37.3,12.1z M35.7,12
					c0,0-0.1,0-0.1,0v-0.1c0.1,0,0.2-0.1,0.2-0.1c0.1,0,0.1-0.1,0.1-0.2h0v1.1h-0.1v-0.9C35.8,11.9,35.7,11.9,35.7,12z M36.8,12.3
					c-0.1-0.1-0.1-0.1-0.2-0.1s-0.1,0-0.1,0.1c0,0-0.1,0.1-0.1,0.1c0,0,0,0.1,0.1,0.1c0,0,0,0.1,0,0.1c0,0,0.1,0,0.1,0
					c0.1,0,0.1,0,0.2,0c0,0,0-0.1,0-0.2C36.9,12.4,36.9,12.3,36.8,12.3z M26.8,13.3C26.8,13.3,26.8,13.3,26.8,13.3h-0.2
					c0-0.1,0.1-0.1,0.2-0.2c0-0.1,0-0.1,0-0.2h0l0.4,1l-0.1,0l-0.3-0.8C26.9,13.2,26.9,13.2,26.8,13.3z M28.5,12.4
					c-0.1,0-0.1,0.1-0.2,0.1c0,0.1,0,0.2,0.1,0.3c0.1,0.2,0.1,0.3,0.2,0.3c0,0,0.1,0,0.2,0c0,0,0.1-0.1,0.1-0.1c0-0.1,0-0.2-0.1-0.4
					c-0.1-0.2-0.1-0.3-0.2-0.3C28.6,12.4,28.5,12.3,28.5,12.4z M28.6,12.3c0,0,0.1,0,0.2,0c0,0,0,0.1,0.1,0.1c0,0.1,0.1,0.2,0.1,0.3
					c0,0.1,0.1,0.2,0.1,0.3c0,0.1,0,0.2,0,0.2c0,0.1-0.1,0.1-0.2,0.2c-0.1,0-0.2,0-0.3,0c-0.1,0-0.2-0.2-0.3-0.4
					c-0.1-0.1-0.1-0.2,0-0.3c0-0.1,0-0.1,0-0.2c0.1,0,0.1-0.1,0.2-0.1C28.5,12.2,28.5,12.2,28.6,12.3z M27.5,12.9
					c0,0.1,0,0.2,0.1,0.3c0-0.1,0-0.1,0-0.1c0-0.1,0.1-0.1,0.1-0.1c0.1,0,0.2,0,0.3,0c0.1,0,0.1,0.1,0.1,0.2c0,0.1,0.1,0.1,0.1,0.2
					c0,0.1,0,0.1-0.1,0.1c0,0.1-0.1,0.1-0.1,0.2c-0.1,0-0.2,0-0.3,0c-0.1,0-0.2-0.1-0.3-0.3c-0.1-0.2-0.1-0.4-0.1-0.5
					c0-0.1,0.1-0.2,0.2-0.2c0.1,0,0.2,0,0.2,0c0.1,0,0.2,0.1,0.2,0.1l-0.2,0.1l0-0.1c0,0-0.1,0-0.2,0C27.6,12.7,27.6,12.7,27.5,12.9
					C27.5,12.8,27.5,12.8,27.5,12.9z M27.8,13c-0.1,0-0.1,0-0.2,0.1c0,0.1,0,0.1,0,0.2c0,0,0.1,0.1,0.1,0.1c0.1,0,0.1,0.1,0.1,0.1
					c0,0,0.1,0,0.1,0c0.1,0,0.1-0.1,0.1-0.1c0-0.1,0-0.1,0-0.2c0-0.1,0-0.1-0.1-0.1C27.9,13,27.9,13,27.8,13z M20.6,16.7
					c0.1,0.1,0.1,0.1,0.2,0.2c0.1,0.1,0.1,0.2,0.2,0.3c0,0.1,0,0.1,0,0.2c0,0.1,0,0.1-0.1,0.2c-0.1,0.1-0.1,0.1-0.2,0.1
					c-0.1,0-0.3-0.1-0.4-0.3c-0.1-0.1-0.2-0.2-0.2-0.2C20.1,17.1,20,17,20,16.9c0-0.1,0-0.1,0.1-0.2c0,0,0.1-0.1,0.2-0.1
					c0,0,0.1,0,0.1,0C20.5,16.7,20.5,16.7,20.6,16.7z M20.9,17.3c0-0.1-0.1-0.2-0.2-0.3c-0.1-0.1-0.2-0.2-0.3-0.2s-0.1,0-0.1,0
					c0,0.1-0.1,0.1-0.1,0.2c0,0.1,0.1,0.2,0.2,0.3c0.1,0.1,0.2,0.2,0.3,0.2c0.1,0.1,0.1,0.1,0.2,0C20.9,17.4,20.9,17.4,20.9,17.3z
					 M20.4,18L20.4,18l-0.3-0.2l-0.3,0.3l0-0.1l-0.1-0.8l0-0.1l0.5,0.5l0.1-0.1l0,0.1l-0.1,0.1L20.4,18z M20.1,17.7l-0.3-0.4
					l0.1,0.6L20.1,17.7z M18.9,18c0-0.1,0-0.1,0-0.2l0.1,0l0.8,0.8l-0.1,0.1L19,18.1c0,0,0,0.1,0,0.1c0,0.1,0,0.1,0,0.1l-0.1-0.1
					C18.9,18.2,18.9,18.1,18.9,18z M14.3,24.1c0,0,0,0.1,0,0.1c0,0.1,0.1,0.1,0.3,0.3c0.1,0.1,0.3,0.1,0.4,0.1c0,0,0.1,0,0.1,0
					c0-0.1,0-0.1,0-0.2s-0.1-0.1-0.3-0.2C14.7,24,14.5,24,14.3,24.1C14.4,24,14.4,24.1,14.3,24.1z M14.2,24.1c0-0.1,0-0.1,0-0.2
					c0.1,0,0.1,0,0.1,0c0.1,0,0.1,0,0.2,0s0.2,0,0.3,0.1c0.1,0.1,0.2,0.1,0.3,0.2c0.1,0.1,0.1,0.1,0.1,0.2s0,0.1-0.1,0.2
					c-0.1,0.1-0.1,0.1-0.2,0.2c-0.1,0-0.2,0-0.4-0.1c-0.1-0.1-0.2-0.1-0.3-0.2c-0.1-0.1-0.1-0.1-0.1-0.2
					C14.2,24.2,14.2,24.1,14.2,24.1z M13.5,25.4l0.9,0.5l0,0.1l-0.8-0.4c0,0,0,0.1,0,0.2c0,0,0,0.1,0,0.1l-0.1,0
					c0-0.1,0-0.1-0.1-0.2V25.4z M14.5,25.1c0,0.1,0,0.2,0,0.2s0,0.1,0,0.1l0.3-0.4l0.1,0l-0.3,0.6c0,0,0,0,0,0
					c0-0.1-0.1-0.1-0.1-0.2c0-0.1,0-0.1,0-0.3c0-0.1-0.1-0.2-0.1-0.3s-0.1-0.1-0.1-0.1c0,0-0.1,0-0.1,0c0,0-0.1,0.1-0.1,0.1
					c0,0,0,0.1,0,0.1c0,0.1,0,0.1,0.1,0.1l-0.1,0.2c-0.1-0.1-0.1-0.2-0.1-0.3c0-0.1,0-0.1,0-0.2c0.1-0.1,0.1-0.2,0.2-0.3
					c0.1,0,0.2,0,0.3,0c0,0,0.1,0.1,0.1,0.1c0,0,0.1,0.1,0.1,0.1C14.5,24.9,14.5,25,14.5,25.1z M12.1,32.2c0.1,0,0.3,0,0.4,0
					c0.1,0.1,0.1,0.1,0.1,0.2c0,0,0,0.1,0,0.2c0,0.1,0,0.2-0.1,0.3c-0.1,0-0.3,0-0.5,0c-0.1,0-0.2,0-0.3-0.1c-0.1,0-0.1-0.1-0.1-0.1
					c-0.1-0.1-0.1-0.1-0.1-0.2c0-0.1,0.1-0.1,0.1-0.2c0-0.1,0.1-0.1,0.1-0.1c0,0,0.1,0,0.1,0S12,32.2,12.1,32.2z M12.5,32.7
					c0-0.1,0-0.1,0-0.2c0-0.1-0.2-0.1-0.4-0.2c-0.2,0-0.3,0-0.3,0c0,0-0.1,0.1-0.1,0.2c0,0.1,0,0.1,0.1,0.1c0.1,0,0.2,0.1,0.3,0.1
					c0.2,0,0.3,0,0.3,0C12.5,32.8,12.5,32.7,12.5,32.7z M12.5,33.5c0,0.1,0,0.2-0.1,0.3c-0.1,0-0.3,0-0.5,0c-0.1,0-0.2,0-0.3-0.1
					c-0.1,0-0.1-0.1-0.1-0.1c-0.1-0.1-0.1-0.1-0.1-0.2c0-0.1,0.1-0.1,0.1-0.1c0-0.1,0.1-0.1,0.1-0.1c0,0,0.1,0,0.2,0s0.1,0,0.3,0
					c0.1,0,0.3,0,0.3,0c0.1,0.1,0.1,0.1,0.2,0.2C12.6,33.4,12.6,33.4,12.5,33.5z M12.4,33.5c0-0.1,0-0.1,0-0.2
					c0-0.1-0.1-0.1-0.3-0.2c-0.2,0-0.3,0-0.4,0.1c0,0-0.1,0.1-0.1,0.1c0,0.1,0,0.1,0,0.2c0.1,0,0.2,0.1,0.4,0.1
					C12.2,33.7,12.3,33.7,12.4,33.5C12.4,33.6,12.4,33.6,12.4,33.5z M12.4,34.3l-0.8-0.2c0,0,0.1,0.1,0.1,0.2c0,0,0,0.1,0,0.2
					l-0.1,0c0-0.1-0.1-0.1-0.2-0.2c0-0.1-0.1-0.1-0.1-0.1v-0.1L12.4,34.3L12.4,34.3z M13,41.3c0-0.1-0.2-0.1-0.4,0
					c-0.2,0-0.3,0.1-0.3,0.1c0,0,0,0.1,0,0.2c0,0.1,0,0.1,0,0.1c0.1,0,0.2,0,0.3,0c0.2,0,0.3-0.1,0.4-0.1c0.1-0.1,0.1-0.1,0.1-0.2
					C13.1,41.3,13,41.3,13,41.3z M12.6,41.1c0.1,0,0.3,0,0.4,0c0.1,0,0.1,0,0.1,0c0,0,0.1,0.1,0.1,0.2c0,0.1,0,0.2-0.1,0.3
					c-0.1,0.1-0.2,0.2-0.4,0.2c-0.1,0-0.2,0-0.3,0c-0.1,0-0.1-0.1-0.2-0.1c-0.1,0-0.1-0.1-0.1-0.2c0-0.1,0-0.1,0-0.2
					c0-0.1,0.1-0.1,0.1-0.1c0,0,0.1-0.1,0.1-0.1C12.4,41.1,12.5,41.1,12.6,41.1z M13.4,42.2c0,0.1,0,0.2-0.1,0.3
					c0,0.1,0,0.1-0.2,0.1c-0.1,0-0.1,0-0.2,0c-0.1,0-0.1-0.1-0.1-0.1c0,0,0,0.1,0,0.1c0,0-0.1,0.1-0.2,0.1c-0.1,0-0.1,0-0.3-0.1
					c-0.1,0-0.1,0-0.1-0.2c0-0.1,0-0.2,0-0.3c0.1-0.1,0.1-0.1,0.2-0.1c0.1,0,0.1,0,0.1,0c0,0,0.1,0.1,0.1,0.1c0-0.1,0.1-0.1,0.1-0.1
					c0-0.1,0.1-0.1,0.2-0.1c0.1,0,0.2,0,0.3,0.1C13.3,42,13.3,42.1,13.4,42.2z M13,42c-0.1,0-0.1,0-0.2,0.1c-0.1,0-0.1,0.1,0,0.2
					c0,0.1,0,0.1,0.1,0.2c0,0,0.1,0,0.2,0c0,0,0.1,0,0.1,0c0,0,0.1-0.1,0.1-0.2c0,0,0-0.1,0-0.1c0-0.1-0.1-0.1-0.1-0.1
					C13.1,42.1,13.1,42,13,42z M12.5,42.2c0,0-0.1,0-0.1,0.1c0,0,0,0.1,0,0.1c0,0,0,0.1,0.1,0.1c0,0,0.1,0,0.1,0s0.1,0,0.1-0.1
					c0,0,0.1-0.1,0.1-0.1C12.7,42.3,12.7,42.2,12.5,42.2C12.6,42.2,12.6,42.2,12.5,42.2z M16.8,48.8c0.1,0.1,0.1,0.2,0,0.3
					c0,0.1-0.1,0.3-0.3,0.3c-0.1,0.1-0.2,0.1-0.3,0.2c-0.1,0-0.2,0-0.3,0c0,0-0.1,0-0.2-0.1c0,0,0-0.1,0-0.2c0,0,0-0.1,0-0.2
					c0-0.1,0.1-0.1,0.1-0.1c0.1-0.1,0.1-0.1,0.2-0.2c0.1-0.1,0.2-0.1,0.3-0.1c0.1,0,0.2,0,0.3,0C16.7,48.7,16.7,48.8,16.8,48.8z
					 M16.5,48.8c0,0-0.1,0-0.3,0.2c-0.1,0.1-0.2,0.2-0.3,0.3c0,0.1,0,0.1,0.1,0.1c0,0.1,0.1,0.1,0.1,0.1c0.1,0,0.2-0.1,0.4-0.2
					c0.2-0.1,0.3-0.2,0.3-0.3c0-0.1,0-0.1,0-0.2C16.7,48.8,16.6,48.8,16.5,48.8z M17.3,49.5c0.1,0.1,0.1,0.2,0,0.3
					c0,0.1-0.1,0.3-0.3,0.3c-0.2,0.1-0.3,0.2-0.5,0.2c-0.1,0-0.2,0-0.3-0.1c-0.1-0.1-0.1-0.1-0.1-0.3c0-0.1,0-0.1,0.1-0.1l0.1,0
					c-0.1,0-0.1,0.1-0.1,0.2c0,0,0,0.1,0.1,0.1c0,0,0.1,0.1,0.1,0.1c0,0,0.1,0,0.2,0c0.1,0,0.1,0,0.3,0c-0.1,0-0.1,0-0.2,0
					c0,0-0.1-0.1-0.1-0.1c-0.1-0.1-0.1-0.2,0-0.3c0-0.1,0.1-0.2,0.2-0.3c0.1,0,0.1,0,0.2,0c0.1,0,0.1,0,0.2,0
					C17.2,49.4,17.2,49.5,17.3,49.5z M17,49.5c0,0-0.1,0-0.2,0c0,0-0.1,0.1-0.1,0.2c0,0.1,0,0.1,0,0.1s0.1,0.1,0.1,0.1
					c0.1,0,0.2,0,0.2-0.1c0,0,0-0.1,0-0.1c0,0,0.1-0.1,0.1-0.2c0,0,0-0.1,0-0.1C17.2,49.5,17.1,49.5,17,49.5z M44.2,13.6
					C44.1,13.6,44.1,13.6,44.2,13.6l-0.3,0C44,13.6,44,13.5,44.2,13.6c0-0.1,0.1-0.1,0.2-0.1c0.1,0,0.2,0.1,0.2,0.1
					c0.1,0.1,0.1,0.2,0,0.3c0,0-0.1,0.1-0.1,0.1c0,0,0,0.1-0.2,0.1c0,0-0.1,0.1-0.3,0.2c-0.1,0-0.1,0-0.1,0c0,0-0.1,0-0.1,0l0.5,0.2
					l0,0.1l-0.7-0.3c0,0,0-0.1,0.1-0.1c0,0,0.1,0,0.1-0.1c0.1,0,0.1-0.1,0.2-0.1c0.2,0,0.3-0.1,0.3-0.2c0,0,0.1-0.1,0.1-0.1
					c0-0.1,0-0.1,0-0.2c0-0.1-0.1-0.1-0.2-0.1C44.3,13.5,44.2,13.5,44.2,13.6z M46.2,14.4c0,0.1,0,0.2-0.1,0.3
					c0,0.1-0.1,0.2-0.1,0.3c0,0-0.1,0.1-0.2,0.1c-0.1,0-0.1,0-0.2,0c-0.1,0-0.2-0.1-0.2-0.2c-0.1-0.1-0.1-0.3,0-0.5
					c0.1-0.1,0.1-0.2,0.1-0.3c0.1-0.1,0.1-0.1,0.2-0.2c0.1,0,0.2,0,0.3,0c0.1,0,0.1,0,0.1,0.1l0.1,0.1
					C46.3,14.3,46.3,14.3,46.2,14.4z M45.8,14.2c-0.1,0-0.1,0.1-0.2,0.3c0,0.2,0,0.3,0,0.4c0,0,0.1,0.1,0.2,0.1c0.1,0,0.1,0,0.1,0
					c0.1-0.1,0.1-0.2,0.2-0.4c0.1-0.2,0.1-0.3,0.1-0.3c0-0.1-0.1-0.2-0.1-0.2C45.9,14.1,45.9,14.1,45.8,14.2z M45.3,13.8L45.3,13.8
					c0.1,0.1,0.1,0.2,0,0.3c0,0.1,0,0.2,0,0.3c0,0.1-0.1,0.2-0.2,0.3c0,0-0.1,0.1-0.1,0.1c-0.1,0-0.1,0-0.2,0
					c-0.1,0-0.2-0.1-0.2-0.2c-0.1-0.1-0.1-0.3,0-0.5c0.1-0.1,0.1-0.2,0.2-0.3c0.1-0.1,0.1-0.1,0.1-0.2c0.1,0,0.2,0,0.3,0.1
					C45.2,13.7,45.3,13.8,45.3,13.8z M45.3,14c0-0.1-0.1-0.2-0.2-0.2c-0.1,0-0.1,0-0.1,0c-0.1,0-0.1,0.1-0.2,0.3c0,0.2,0,0.3,0,0.4
					c0,0,0.1,0.1,0.1,0.1c0.1,0,0.1,0,0.2,0c0.1-0.1,0.1-0.2,0.1-0.3C45.2,14.2,45.3,14,45.3,14z M52,18.3c0,0-0.1,0.1-0.1,0.1
					c0,0-0.1,0-0.1,0c-0.1,0-0.2,0-0.3,0c-0.1,0-0.2,0-0.2,0c0,0-0.1,0-0.1,0l0.4,0.4l-0.1,0.1l-0.6-0.5l0.1,0
					c0-0.1,0.1-0.1,0.1-0.1s0.2,0,0.3,0c0.2,0,0.3,0,0.4,0c0.1,0,0.1,0,0.1-0.1c0,0,0-0.1,0-0.1c0,0,0-0.1-0.1-0.1
					c0-0.1-0.1-0.1-0.2-0.1c-0.1,0-0.1,0.1-0.1,0.1l-0.1-0.1c0.1-0.1,0.2-0.1,0.3-0.1c0.1,0,0.1,0,0.2,0.1C52,17.9,52,18,52,18.1
					C52.1,18.1,52,18.2,52,18.3z M52.6,18.6C52.6,18.5,52.5,18.5,52.6,18.6c-0.1-0.2-0.2-0.2-0.3-0.2c-0.1,0-0.1,0.1-0.2,0.1
					l-0.1-0.1c0.1-0.1,0.2-0.1,0.3-0.1c0.1,0,0.1,0,0.2,0.1C52.6,18.4,52.7,18.5,52.6,18.6c0.1,0.1,0.1,0.2,0,0.3
					c0,0-0.1,0.1-0.1,0.1c0,0-0.1,0-0.2,0c-0.1,0-0.2,0.1-0.3,0.1c-0.1,0-0.2,0-0.2,0c0,0,0,0,0,0l0.4,0.3l-0.1,0.1L51.6,19l0-0.1
					c0-0.1,0.1-0.1,0.2-0.1s0.1,0,0.3,0c0.2,0,0.3,0,0.3,0c0.1,0,0.1,0,0.2,0C52.6,18.7,52.6,18.6,52.6,18.6z M52.5,19.5
					c0,0.1,0,0.2,0,0.2c0.1,0.1,0.1,0.1,0.2,0c0.1,0,0.2-0.1,0.3-0.2c0.1-0.1,0.2-0.3,0.2-0.4c0,0,0-0.1-0.1-0.1c0,0-0.1,0-0.1,0
					c-0.1,0-0.2,0.1-0.3,0.3C52.6,19.4,52.5,19.5,52.5,19.5z M52.5,19.8c-0.1-0.1-0.1-0.1-0.1-0.2c0-0.1,0.1-0.3,0.2-0.4
					c0.1-0.1,0.2-0.2,0.3-0.3c0.1,0,0.1,0,0.2,0c0.1,0,0.2,0,0.2,0c0.1,0.1,0.1,0.1,0.2,0.2c0,0,0,0.1,0,0.2c0,0,0,0.1,0,0.2
					c0,0,0,0.1-0.1,0.2c-0.1,0.1-0.1,0.2-0.3,0.3c-0.1,0-0.1,0-0.2,0C52.6,19.9,52.5,19.8,52.5,19.8z M56.1,25.2c0,0,0.1,0,0.2,0.1
					c0.2,0.1,0.3,0.1,0.3,0.1c0,0,0.1,0,0.2,0c0,0,0.1-0.1,0.1-0.1c0-0.1,0-0.1,0-0.2c0,0-0.1-0.1-0.1-0.1c-0.1,0-0.1,0-0.2,0v-0.1
					c0.1,0,0.1,0,0.3,0c0.1,0,0.1,0.1,0.1,0.1C57,25,57,25.1,57,25.2c0,0.1-0.1,0.1-0.2,0.1c0,0-0.1,0-0.1,0c-0.1,0-0.1,0-0.2,0
					c-0.1,0-0.2,0-0.3,0c-0.1,0-0.2-0.1-0.2-0.1c0,0,0,0-0.1,0l0.3,0.5l-0.1,0l-0.4-0.6c0,0,0.1,0,0.1,0C56,25.1,56,25.1,56.1,25.2z
					 M57.5,25.9l-0.6,0.4l0.1,0.1l-0.1,0l-0.1-0.1l-0.3,0.1l0-0.1l0.3-0.2l-0.3-0.4l0.1-0.1L57.5,25.9L57.5,25.9z M56.7,25.8
					l0.2,0.3l0.4-0.3L56.7,25.8z M57.8,26.7c-0.1,0.1-0.1,0.1-0.1,0.1c-0.1,0-0.2,0.1-0.3,0.2c-0.1,0.1-0.2,0.1-0.3,0.1
					c-0.1,0-0.1,0-0.2,0c-0.1-0.1-0.1-0.1-0.2-0.2c0-0.1,0-0.2,0-0.3c0-0.1,0.1-0.2,0.3-0.3c0.1-0.1,0.2-0.1,0.3-0.1
					c0.1-0.1,0.1-0.1,0.2,0c0.1,0,0.1,0,0.2,0.1c0,0.1,0,0.1,0,0.2C57.8,26.6,57.8,26.7,57.8,26.7z M57.7,26.5
					C57.6,26.4,57.6,26.4,57.7,26.5c-0.2-0.1-0.3-0.1-0.5,0c-0.1,0.1-0.2,0.1-0.3,0.3c0,0.1,0,0.1,0,0.1C57,27,57,27,57.1,27
					s0.2,0,0.3-0.1c0.2-0.1,0.3-0.2,0.4-0.3C57.7,26.6,57.7,26.5,57.7,26.5z M59.4,32.5c0.1,0,0.1,0.1,0.2,0.3c0,0.1,0,0.2-0.1,0.2
					c-0.1,0.1-0.1,0.1-0.2,0.1c0,0-0.1,0-0.2,0C59,33,59,33,59,33c-0.1,0-0.1-0.1-0.2-0.2c-0.1-0.1-0.2-0.2-0.2-0.2l0,0l0,0.5h-0.2
					l0-0.7c0,0,0.1,0,0.1,0c0,0,0.1,0.1,0.1,0.1c0,0,0.1,0.1,0.2,0.1c0.1,0.1,0.2,0.2,0.3,0.3c0,0.1,0.1,0.1,0.2,0.1
					c0,0,0.1,0,0.1-0.1c0,0,0-0.1,0-0.1C59.4,32.7,59.4,32.6,59.4,32.5c-0.1,0-0.2,0-0.3,0l0-0.2C59.3,32.4,59.3,32.5,59.4,32.5z
					 M59.4,33.7c0,0,0.1-0.1,0.1-0.1s0-0.1-0.1-0.1c0-0.1-0.1-0.1-0.1-0.1c0,0-0.1,0-0.3,0c0.1,0,0.1,0.1,0.1,0.1
					c0.1,0.1,0.1,0.1,0.1,0.1c0,0.1,0,0.2-0.1,0.3S58.9,34,58.8,34c-0.1,0-0.1,0-0.2,0c0,0-0.1-0.1-0.1-0.2c0,0,0-0.1,0-0.2
					c0-0.1,0-0.2,0-0.3c0.1-0.1,0.2-0.1,0.4-0.1c0.2,0,0.4,0,0.5,0.1c0.1,0.1,0.2,0.2,0.2,0.3C59.6,33.7,59.5,33.8,59.4,33.7
					c0,0.2,0,0.2-0.1,0.2v-0.1C59.3,33.8,59.4,33.8,59.4,33.7z M58.5,33.5c0,0.1,0,0.1,0,0.1c0,0,0,0.1,0,0.2c0.1,0,0.1,0,0.2,0
					c0.1,0,0.1-0.1,0.2-0.1c0.1-0.1,0.1-0.1,0.1-0.2c0-0.1-0.1-0.1-0.2-0.2c0,0-0.1,0-0.1,0C58.7,33.4,58.7,33.4,58.5,33.5
					C58.6,33.5,58.6,33.5,58.5,33.5z M59,34.1c0.1,0,0.2,0,0.3,0c0.1,0,0.1,0.1,0.2,0.1c0,0.1,0.1,0.1,0.1,0.2c0,0.1,0,0.1,0,0.1
					c0,0.1-0.1,0.1-0.1,0.2c0,0-0.1,0-0.2,0c-0.1,0-0.2,0-0.3,0c-0.1,0-0.2,0-0.3,0c-0.1,0-0.2-0.1-0.2-0.1c0,0,0-0.1,0-0.2
					c0-0.1,0-0.2,0-0.3C58.7,34.2,58.8,34.2,59,34.1z M58.7,34.4c-0.1,0.1-0.1,0.1,0,0.2c0,0.1,0,0.1,0.1,0.1c0,0.1,0.1,0.1,0.3,0.1
					c0.2,0,0.3,0,0.3-0.1c0.1,0,0.1-0.1,0.1-0.1c0-0.1-0.1-0.1-0.2-0.2s-0.2,0-0.3,0C58.8,34.3,58.7,34.3,58.7,34.4z M58.6,40.4
					c0.1,0.1,0.1,0.2,0.2,0.3c0.1,0,0.1,0,0.2,0c0,0,0.1,0,0.1,0c0,0,0-0.1,0-0.2c0-0.1,0-0.1,0-0.1c0-0.1-0.1-0.1-0.1-0.1l0-0.1
					c0.1,0.1,0.2,0.1,0.2,0.1c0,0.1,0,0.2,0,0.3c0,0.1,0,0.2-0.1,0.3s-0.1,0.1-0.2,0c-0.1,0-0.1,0-0.1,0c0-0.1-0.1-0.1-0.2-0.1
					c0,0,0-0.1-0.1-0.3c0-0.1-0.1-0.2-0.1-0.2l0,0l-0.1,0.5l-0.2,0l0.2-0.7c0,0,0.1,0,0.1,0c0,0.1,0.1,0.1,0.1,0.2
					C58.5,40.3,58.6,40.3,58.6,40.4z M58.2,41c0.1,0,0.2,0,0.3,0c0.1,0,0.1,0.1,0.2,0.1c0,0,0,0.1,0,0.2c0,0,0-0.1,0.1-0.1
					c0.1,0,0.1,0,0.2,0c0.1,0,0.1,0.1,0.2,0.2c0,0,0,0.1,0,0.2c0,0.1,0,0.2-0.1,0.3c-0.1,0-0.1,0-0.2,0c-0.1,0-0.1,0-0.2,0
					c0-0.1,0-0.1,0-0.2c-0.1,0.1-0.1,0.1-0.1,0.1c-0.1,0-0.1,0-0.2,0c-0.1,0-0.2,0-0.2-0.1c0-0.1,0-0.2,0-0.3
					C58.1,41.2,58.1,41.1,58.2,41z M58.2,41.2c0,0,0,0.1,0,0.1c0,0.1,0,0.1,0,0.2c0,0.1,0,0.1,0.1,0.1c0.1,0,0.1,0,0.2,0
					c0,0,0-0.1,0-0.2c0-0.1,0-0.1,0-0.1c0,0-0.1-0.1-0.2-0.1c0,0-0.1,0-0.1,0C58.2,41.2,58.2,41.2,58.2,41.2z M58.8,41.3
					c0,0-0.1,0.1-0.1,0.1c0,0.1,0,0.1,0.1,0.2c0,0,0.1,0,0.1,0c0,0,0.1,0,0.1,0c0,0,0.1-0.1,0.1-0.1c0,0,0-0.1,0-0.1
					C58.9,41.3,58.9,41.3,58.8,41.3C58.8,41.3,58.8,41.3,58.8,41.3z M58.8,42c0,0.1,0.1,0.1,0.1,0.1c0,0.1,0,0.1,0,0.2
					c0,0.1,0,0.1,0,0.2c-0.1,0.1-0.1,0.1-0.1,0.1c-0.1,0-0.1,0-0.2,0c-0.1,0-0.2,0-0.3,0c-0.1,0-0.3-0.1-0.3-0.1
					c-0.1,0-0.1-0.1-0.1-0.2c0,0,0-0.1,0-0.2c0-0.1,0.1-0.2,0.2-0.3c0.1,0,0.3,0,0.5,0C58.6,41.9,58.7,41.9,58.8,42z M58.1,42
					c-0.1,0-0.1,0-0.2,0.1c0,0.1,0,0.1,0.1,0.2c0,0,0.1,0.1,0.3,0.1c0.2,0,0.3,0.1,0.4,0.1c0,0,0-0.1,0-0.2c0-0.1,0-0.1,0-0.2
					c-0.1-0.1-0.2-0.1-0.4-0.1C58.2,42,58.1,42,58.1,42z M55.2,47.7c0,0.1,0.1,0.2,0.2,0.2c0,0,0.1,0,0.2,0c0.1,0,0.1-0.1,0.1-0.1
					c0,0,0-0.1,0-0.1l0.2,0c0,0-0.1,0-0.1,0.1c0,0,0,0.1,0,0.1c0,0.1,0,0.1,0.1,0.2c0,0,0.1,0,0.1,0c0,0,0.1-0.1,0.1-0.2
					c0,0,0-0.1,0-0.1c0-0.1-0.1-0.1-0.2-0.1l0.1-0.1c0.1,0.1,0.1,0.1,0.1,0.2c0,0.1,0,0.1,0,0.2c0,0.1-0.1,0.1-0.1,0.2
					c0,0.1-0.1,0.1-0.2,0c0,0-0.1,0-0.1,0c-0.1,0-0.1-0.1-0.2-0.1c0,0,0-0.1,0-0.2c-0.1,0.1-0.1,0.1-0.2,0.1c-0.1,0-0.1,0-0.2,0
					c-0.1,0-0.2-0.1-0.2-0.2c0-0.1,0-0.2,0.1-0.3c0-0.1,0.1-0.1,0.2-0.2c0.1-0.1,0.1-0.1,0.2,0v0.2l-0.2-0.1c-0.1,0-0.1,0.1-0.1,0.1
					C55.2,47.6,55.2,47.6,55.2,47.7z M55,48.1c0.1,0,0.2,0,0.4,0.1c0.1,0,0.2,0.1,0.3,0.1c0.1,0.1,0.2,0.1,0.2,0.2c0,0,0,0.1,0,0.2
					c0,0,0,0.1-0.1,0.1c0,0.1,0,0.1-0.1,0c0,0-0.1,0-0.2,0.1c0,0-0.1-0.1-0.2-0.1c-0.1-0.1-0.2-0.1-0.3-0.2c-0.1,0-0.1-0.1-0.1-0.2
					c0,0,0-0.1,0-0.2C54.8,48.2,54.9,48.2,55,48.1z M54.8,48.4c0,0,0,0.1,0,0.2c0.1,0.1,0.2,0.1,0.3,0.3c0.2,0.1,0.3,0.1,0.3,0
					c0.1,0,0.2,0,0.2,0c0-0.1,0-0.1,0-0.2c0-0.1-0.1-0.1-0.3-0.2c-0.2-0.1-0.3-0.1-0.3-0.1C54.9,48.3,54.9,48.3,54.8,48.4z
					 M54.5,49.1c0,0,0,0.1,0,0.2c0.1,0.1,0.2,0.1,0.3,0.3c0.2,0.1,0.3,0.1,0.3,0c0.1,0,0.2,0,0.2,0c0-0.1,0-0.1,0-0.2
					c0-0.1-0.1-0.1-0.3-0.2C54.8,49,54.7,49,54.6,49C54.6,49,54.5,49.1,54.5,49.1z M54.4,49.1c0.1-0.1,0.2-0.2,0.3-0.2
					c0.1,0,0.2,0,0.4,0.1c0.1,0,0.2,0.1,0.3,0.1c0.1,0.1,0.1,0.1,0.1,0.2c0,0,0,0.1,0,0.2c0,0,0,0.1-0.1,0.1c0,0.1,0,0.1-0.2,0
					c0,0-0.1,0-0.1,0.1c0,0-0.1-0.1-0.2-0.1c-0.1-0.1-0.2-0.1-0.3-0.2c-0.1,0-0.1-0.1-0.1-0.2C54.3,49.2,54.3,49.1,54.4,49.1z
					 M51.4,53.1c-0.1,0-0.2-0.1-0.2-0.1c0,0-0.1,0-0.1,0c0,0,0,0.1,0,0.2c0,0,0,0.1,0,0.1c0,0.1,0.1,0.1,0.1,0.2c0.1,0,0.1,0,0.2,0
					c0,0,0.1-0.1,0.1-0.1v0.1c0,0,0,0.1,0,0.1c-0.1,0.1-0.1,0.1,0,0.2c0,0.1,0.1,0.1,0.1,0c0,0,0.1,0,0.1,0c0.1,0,0.1-0.1,0.1-0.2
					c0,0,0-0.1,0-0.1l0.1,0c0,0.1,0,0.1,0,0.3c0,0.1-0.1,0.1-0.2,0.2c0,0-0.1,0.1-0.1,0.1c-0.1,0-0.1,0-0.2,0
					c-0.1-0.1-0.1-0.1-0.2-0.2c0,0,0-0.1,0-0.1c0-0.1,0-0.1,0.1-0.1c-0.1,0-0.1,0-0.2,0c-0.1,0-0.1,0-0.2-0.1
					c-0.1-0.1-0.1-0.2,0-0.3c0-0.1,0.1-0.1,0.2-0.2c0.1-0.1,0.2-0.1,0.3-0.1C51.3,52.9,51.4,53,51.4,53.1L51.4,53.1z M50.6,53.4
					c0,0,0,0.1,0,0.2c0,0,0,0.1,0,0.3c-0.1,0.1-0.1,0.2-0.1,0.3s0,0.1,0,0.2s0.1,0.1,0.2,0.1c0,0,0.1,0,0.1,0c0.1,0,0.1-0.1,0.2-0.2
					c0-0.1,0-0.1-0.1-0.2H51c0.1,0.1,0.1,0.1,0,0.3c0,0.1,0,0.1-0.2,0.2c-0.1,0.1-0.2,0.1-0.3,0.1c-0.1,0-0.1,0-0.2-0.1
					c0,0-0.1-0.1-0.1-0.1c0-0.1,0-0.1,0-0.2c0-0.1,0-0.2,0.1-0.3c0-0.1,0-0.2,0-0.3c0,0,0,0,0,0L50,53.8l0-0.1L50.6,53.4
					C50.6,53.4,50.6,53.4,50.6,53.4z M50.2,54.9c0,0-0.1,0.1-0.2,0.1c0,0-0.1,0-0.2,0c-0.1,0-0.1-0.1-0.1-0.1
					c-0.1-0.1-0.1-0.1-0.2-0.2c-0.1-0.1-0.1-0.2-0.1-0.3c0-0.1,0-0.1,0-0.2c0-0.1,0-0.1,0.1-0.1c0.1-0.1,0.2-0.1,0.3,0
					c0.1,0,0.3,0.1,0.3,0.3c0.1,0.1,0.1,0.2,0.2,0.3c0,0.1,0,0.2,0,0.3C50.3,54.8,50.3,54.9,50.2,54.9z M49.8,54.1
					c-0.1,0-0.1,0-0.2,0c0,0,0,0.1,0,0.2c0,0,0,0.1,0.2,0.3c0.1,0.1,0.2,0.2,0.3,0.3c0.1,0,0.1,0,0.1,0c0.1,0,0.1-0.1,0.1-0.2
					c0-0.1-0.1-0.2-0.2-0.3C50,54.2,49.9,54.1,49.8,54.1z M44.4,56.6c0.1,0,0.2,0,0.3,0c0.1,0.1,0.1,0.1,0.2,0.2l-0.1,0.1
					c0-0.1-0.1-0.1-0.2-0.1c0,0-0.1,0-0.1,0c-0.1,0-0.1,0.1-0.2,0.1c0,0,0,0.1,0,0.2c0,0,0,0.1,0.2,0.1c0,0,0.1,0,0.1,0
					c0,0,0.1-0.1,0.1-0.1l0.1,0.1h-0.1c0,0,0,0.1,0,0.1c-0.1,0.1-0.1,0.1,0,0.2c0,0,0,0.1,0.1,0.1c0,0,0.1,0,0.2,0
					c0,0,0.1,0,0.1-0.1c0,0,0-0.1,0-0.1h0.2c0,0.1,0,0.1,0,0.2c-0.1,0.1-0.1,0.1-0.2,0.1s-0.1,0-0.1,0c-0.1,0-0.1,0-0.2,0
					c-0.1,0-0.1-0.1-0.1-0.1c0-0.1,0-0.1,0-0.2c0-0.1,0-0.1,0-0.1c-0.1,0-0.1,0-0.2,0c0,0-0.1,0-0.1-0.1c0-0.1,0-0.2,0-0.3
					C44.3,56.8,44.3,56.7,44.4,56.6z M44.1,57.2L44,58l-0.1,0l-0.3-0.7l-0.2,0.1l0-0.1l0.2-0.1l-0.1-0.3l0.1,0l0.1,0.3L44.1,57.2
					L44.1,57.2z M44,57.2l-0.3,0.1l0.2,0.5L44,57.2z M42.7,57.5c0,0,0.1-0.1,0.2-0.1c0.1-0.1,0.2-0.1,0.3,0c0.1,0.1,0.2,0.2,0.3,0.4
					c0,0.1,0.1,0.2,0.1,0.3s0,0.1,0,0.3c0,0.1-0.1,0.1-0.2,0.1c0,0-0.1,0-0.1,0c-0.1,0-0.1,0-0.1,0s-0.1-0.1-0.2-0.1
					c0,0-0.1-0.1-0.1-0.2c-0.1-0.1-0.1-0.3-0.1-0.3C42.6,57.7,42.6,57.6,42.7,57.5z M42.8,57.6c-0.1,0.1,0,0.2,0,0.4
					c0.1,0.2,0.2,0.3,0.3,0.3c0,0,0.1,0,0.1,0c0.1,0,0.1-0.1,0.1-0.2c0,0,0-0.1-0.1-0.3c-0.1-0.2-0.2-0.3-0.2-0.3
					C43,57.5,42.9,57.5,42.8,57.6C42.8,57.5,42.8,57.6,42.8,57.6z M30.2,58.2c0,0-0.1,0-0.1,0.1c0,0-0.1,0.1-0.2,0.1
					c-0.2,0-0.3,0.1-0.3,0.1c-0.1,0.1-0.1,0.1-0.1,0.1c0,0.1,0,0.1,0,0.2c0,0.1,0.1,0.1,0.2,0.1c0.1,0,0.1,0,0.2,0
					c0,0,0.1-0.1,0.1-0.1l0.2,0c-0.1,0.1-0.1,0.1-0.2,0.2s-0.2,0-0.3,0c-0.1,0-0.2-0.1-0.3-0.2c0-0.1,0-0.2,0-0.3c0,0,0-0.1,0.1-0.1
					c0-0.1,0-0.1,0.2-0.1c0,0,0.1-0.1,0.3-0.1c0.1,0,0.1,0,0.2,0c0,0,0-0.1,0-0.1L29.5,58l0-0.1l0.7,0.3
					C30.2,58.2,30.2,58.2,30.2,58.2z M37,58.8c0-0.1-0.1-0.1-0.2,0c-0.1,0-0.1,0-0.2,0.1c-0.1,0-0.1,0.2,0,0.3c0,0.2,0,0.3,0.1,0.4
					c0,0.1,0.1,0.1,0.1,0.1c0.1,0,0.1-0.1,0.2-0.1c0-0.1,0-0.2,0-0.4C37,58.9,37,58.8,37,58.8z M37.2,59.1c0,0.1,0,0.2-0.1,0.3
					c0,0.1,0,0.1,0,0.2c-0.1,0-0.1,0.1-0.2,0.1c-0.1,0-0.1,0-0.1-0.1c-0.1,0-0.2-0.1-0.2-0.1c0,0,0-0.1,0-0.2c0-0.1,0-0.1,0-0.3
					c0-0.1,0-0.2,0-0.3c0-0.1,0.1-0.2,0.1-0.2c0,0,0.1,0,0.2,0c0.1,0,0.2,0,0.3,0C37.1,58.8,37.2,58.9,37.2,59.1z M21.9,54.6
					c-0.1,0.2-0.1,0.3-0.1,0.4c0,0.1,0,0.1,0.1,0.1c0,0,0.1,0,0.1,0c0.1,0,0.2-0.1,0.3-0.3c0.1-0.1,0.2-0.2,0.2-0.3
					c0-0.1,0-0.2-0.1-0.2c0,0-0.1,0-0.2,0C22.1,54.4,22,54.5,21.9,54.6z M22,54.4c0.1-0.1,0.1-0.1,0.1-0.1c0.1,0,0.2,0,0.2,0.1
					c0.1,0.1,0.2,0.1,0.2,0.2c0,0.1-0.1,0.3-0.2,0.4c-0.1,0.1-0.2,0.2-0.3,0.3c0,0-0.1,0-0.2,0c-0.1,0-0.2,0-0.3,0c0,0,0-0.1,0-0.2
					c0,0,0-0.1,0-0.2c0,0,0-0.1,0-0.2c0,0,0.1-0.1,0.2-0.2C21.9,54.4,22,54.4,22,54.4z M22.2,55.6l0.5-0.5L22.5,55l0.1-0.1l0.1,0.1
					l0.1-0.2l0.1,0.1l-0.2,0.2l0.4,0.3l-0.1,0.1l-0.8,0.2L22.2,55.6z M22.7,55.2l-0.3,0.4l0.6-0.2L22.7,55.2z M28.9,57.8
					c-0.1,0.1-0.1,0.2-0.2,0.3c0,0.2,0,0.3,0,0.4c0,0.1,0.1,0.1,0.2,0.1c0.1,0,0.1,0,0.1,0c0.1,0,0.1-0.1,0.2-0.3
					c0.1-0.2,0.1-0.3,0.1-0.4c0,0-0.1-0.1-0.1-0.1C29,57.8,28.9,57.8,28.9,57.8z M29.1,57.7c0.1,0,0.2,0.1,0.2,0.2
					c0,0.1,0,0.3,0,0.5c0,0.1-0.1,0.2-0.2,0.3c0,0.1-0.1,0.1-0.2,0.2c-0.1,0-0.1,0-0.2,0c-0.1,0-0.1,0-0.2-0.1c0,0,0-0.1,0-0.1
					c0-0.1,0-0.1,0-0.2c0-0.1,0-0.2,0-0.3c0.1-0.1,0.1-0.2,0.2-0.3c0-0.1,0.1-0.1,0.1-0.1C28.9,57.6,29,57.6,29.1,57.7z"/>
			</g>
		</g>
	</g>
</g>
</svg>
