<?xml version="1.0" encoding="utf-8"?>
<!-- Generator: Adobe Illustrator 16.0.0, SVG Export Plug-In . SVG Version: 6.00 Build 0)  -->
<!DOCTYPE svg PUBLIC "-//W3C//DTD SVG 1.1//EN" "http://www.w3.org/Graphics/SVG/1.1/DTD/svg11.dtd">
<svg version="1.1" xmlns="http://www.w3.org/2000/svg" xmlns:xlink="http://www.w3.org/1999/xlink" x="0px" y="0px" width="700px"
	 height="700px" viewBox="0 0 700 700" enable-background="new 0 0 700 700" xml:space="preserve">
<g id="Layer_2">
	<linearGradient id="SVGID_1_" gradientUnits="userSpaceOnUse" x1="292.0781" y1="277.6611" x2="524.567" y2="564.1465">
		<stop  offset="0" style="stop-color:#333334"/>
		<stop  offset="1" style="stop-color:#000000"/>
	</linearGradient>
	<circle fill="url(#SVGID_1_)" cx="349.8" cy="348.8" r="263.3"/>
</g>
<g id="Layer_1">
	<line fill="none" stroke="#FFFFFF" stroke-miterlimit="10" x1="134.1" y1="368.9" x2="106.4" y2="371.3"/>
	<line fill="none" stroke="#FFFFFF" stroke-miterlimit="10" x1="593.6" y1="328.7" x2="565.9" y2="331.1"/>
	<line fill="none" stroke="#FFFFFF" stroke-miterlimit="10" x1="136.6" y1="387.6" x2="109.1" y2="392.5"/>
	<line fill="none" stroke="#FFFFFF" stroke-miterlimit="10" x1="590.9" y1="307.5" x2="563.4" y2="312.4"/>
	<line fill="none" stroke="#FFFFFF" stroke-miterlimit="10" x1="586.2" y1="286.7" x2="559.3" y2="293.9"/>
	<line fill="none" stroke="#FFFFFF" stroke-miterlimit="10" x1="140.7" y1="406.1" x2="113.8" y2="413.3"/>
	<line fill="none" stroke="#FFFFFF" stroke-miterlimit="10" x1="579.8" y1="266.3" x2="553.7" y2="275.9"/>
	<line fill="none" stroke="#FFFFFF" stroke-miterlimit="10" x1="146.3" y1="424.1" x2="120.2" y2="433.7"/>
	<line fill="none" stroke="#FFFFFF" stroke-miterlimit="10" x1="153.6" y1="441.6" x2="128.3" y2="453.4"/>
	<line fill="none" stroke="#FFFFFF" stroke-miterlimit="10" x1="571.7" y1="246.6" x2="546.4" y2="258.4"/>
	<line fill="none" stroke="#FFFFFF" stroke-miterlimit="10" x1="162.3" y1="458.4" x2="138.2" y2="472.3"/>
	<line fill="none" stroke="#FFFFFF" stroke-miterlimit="10" x1="561.8" y1="227.7" x2="537.7" y2="241.6"/>
	<line fill="none" stroke="#FFFFFF" stroke-miterlimit="10" x1="172.5" y1="474.3" x2="149.7" y2="490.3"/>
	<line fill="none" stroke="#FFFFFF" stroke-miterlimit="10" x1="550.3" y1="209.7" x2="527.5" y2="225.7"/>
	<line fill="none" stroke="#FFFFFF" stroke-miterlimit="10" x1="537.4" y1="192.8" x2="516" y2="210.7"/>
	<line fill="none" stroke="#FFFFFF" stroke-miterlimit="10" x1="184" y1="489.3" x2="162.6" y2="507.2"/>
	<line fill="none" stroke="#FFFFFF" stroke-miterlimit="10" x1="196.8" y1="503.2" x2="177.1" y2="522.9"/>
	<line fill="none" stroke="#FFFFFF" stroke-miterlimit="10" x1="522.9" y1="177.1" x2="503.2" y2="196.8"/>
	<line fill="none" stroke="#FFFFFF" stroke-miterlimit="10" x1="210.7" y1="516" x2="192.8" y2="537.4"/>
	<line fill="none" stroke="#FFFFFF" stroke-miterlimit="10" x1="507.2" y1="162.6" x2="489.3" y2="184"/>
	<line fill="none" stroke="#FFFFFF" stroke-miterlimit="10" x1="490.3" y1="149.7" x2="474.3" y2="172.5"/>
	<line fill="none" stroke="#FFFFFF" stroke-miterlimit="10" x1="225.7" y1="527.5" x2="209.7" y2="550.3"/>
	<line fill="none" stroke="#FFFFFF" stroke-miterlimit="10" x1="472.3" y1="138.2" x2="458.4" y2="162.3"/>
	<line fill="none" stroke="#FFFFFF" stroke-miterlimit="10" x1="241.6" y1="537.7" x2="227.7" y2="561.8"/>
	<line fill="none" stroke="#FFFFFF" stroke-miterlimit="10" x1="453.4" y1="128.3" x2="441.6" y2="153.6"/>
	<line fill="none" stroke="#FFFFFF" stroke-miterlimit="10" x1="258.4" y1="546.4" x2="246.6" y2="571.7"/>
	<line fill="none" stroke="#FFFFFF" stroke-miterlimit="10" x1="275.9" y1="553.7" x2="266.3" y2="579.8"/>
	<line fill="none" stroke="#FFFFFF" stroke-miterlimit="10" x1="433.7" y1="120.2" x2="424.1" y2="146.3"/>
	<line fill="none" stroke="#FFFFFF" stroke-miterlimit="10" x1="413.3" y1="113.8" x2="406.1" y2="140.7"/>
	<line fill="none" stroke="#FFFFFF" stroke-miterlimit="10" x1="293.9" y1="559.3" x2="286.7" y2="586.2"/>
	<line fill="none" stroke="#FFFFFF" stroke-miterlimit="10" x1="392.5" y1="109.1" x2="387.6" y2="136.6"/>
	<line fill="none" stroke="#FFFFFF" stroke-miterlimit="10" x1="312.4" y1="563.4" x2="307.5" y2="590.9"/>
	<line fill="none" stroke="#FFFFFF" stroke-miterlimit="10" x1="371.3" y1="106.4" x2="368.9" y2="134.1"/>
	<line fill="none" stroke="#FFFFFF" stroke-miterlimit="10" x1="328.7" y1="593.6" x2="331.1" y2="565.9"/>
	<line fill="none" stroke="#FFFFFF" stroke-miterlimit="10" x1="350" y1="105.4" x2="350" y2="133.3"/>
	<line fill="none" stroke="#FFFFFF" stroke-miterlimit="10" x1="371.3" y1="593.6" x2="368.9" y2="565.9"/>
	<line fill="none" stroke="#FFFFFF" stroke-miterlimit="10" x1="328.7" y1="106.4" x2="331.1" y2="134.1"/>
	<line fill="none" stroke="#FFFFFF" stroke-miterlimit="10" x1="307.5" y1="109.1" x2="312.4" y2="136.6"/>
	<line fill="none" stroke="#FFFFFF" stroke-miterlimit="10" x1="392.5" y1="590.9" x2="387.6" y2="563.4"/>
	<line fill="none" stroke="#FFFFFF" stroke-miterlimit="10" x1="293.9" y1="140.7" x2="286.7" y2="113.8"/>
	<line fill="none" stroke="#FFFFFF" stroke-miterlimit="10" x1="406.1" y1="559.3" x2="413.3" y2="586.2"/>
	<line fill="none" stroke="#FFFFFF" stroke-miterlimit="10" x1="433.7" y1="579.8" x2="424.1" y2="553.7"/>
	<line fill="none" stroke="#FFFFFF" stroke-miterlimit="10" x1="266.3" y1="120.2" x2="275.9" y2="146.3"/>
	<line fill="none" stroke="#FFFFFF" stroke-miterlimit="10" x1="258.4" y1="153.6" x2="246.6" y2="128.3"/>
	<line fill="none" stroke="#FFFFFF" stroke-miterlimit="10" x1="441.6" y1="546.4" x2="453.4" y2="571.7"/>
	<line fill="none" stroke="#FFFFFF" stroke-miterlimit="10" x1="472.3" y1="561.8" x2="458.4" y2="537.7"/>
	<line fill="none" stroke="#FFFFFF" stroke-miterlimit="10" x1="227.7" y1="138.2" x2="241.6" y2="162.3"/>
	<line fill="none" stroke="#FFFFFF" stroke-miterlimit="10" x1="474.3" y1="527.5" x2="490.3" y2="550.3"/>
	<line fill="none" stroke="#FFFFFF" stroke-miterlimit="10" x1="225.7" y1="172.5" x2="209.7" y2="149.7"/>
	<line fill="none" stroke="#FFFFFF" stroke-miterlimit="10" x1="192.8" y1="162.6" x2="210.7" y2="184"/>
	<line fill="none" stroke="#FFFFFF" stroke-miterlimit="10" x1="507.2" y1="537.4" x2="489.3" y2="516"/>
	<line fill="none" stroke="#FFFFFF" stroke-miterlimit="10" x1="196.8" y1="196.8" x2="177.1" y2="177.1"/>
	<line fill="none" stroke="#FFFFFF" stroke-miterlimit="10" x1="503.2" y1="503.2" x2="522.9" y2="522.9"/>
	<line fill="none" stroke="#FFFFFF" stroke-miterlimit="10" x1="162.6" y1="192.8" x2="184" y2="210.7"/>
	<line fill="none" stroke="#FFFFFF" stroke-miterlimit="10" x1="537.4" y1="507.2" x2="516" y2="489.3"/>
	<line fill="none" stroke="#FFFFFF" stroke-miterlimit="10" x1="172.5" y1="225.7" x2="149.7" y2="209.7"/>
	<line fill="none" stroke="#FFFFFF" stroke-miterlimit="10" x1="527.5" y1="474.3" x2="550.3" y2="490.3"/>
	<line fill="none" stroke="#FFFFFF" stroke-miterlimit="10" x1="138.2" y1="227.7" x2="162.3" y2="241.6"/>
	<line fill="none" stroke="#FFFFFF" stroke-miterlimit="10" x1="561.8" y1="472.3" x2="537.7" y2="458.4"/>
	<line fill="none" stroke="#FFFFFF" stroke-miterlimit="10" x1="546.4" y1="441.6" x2="571.7" y2="453.4"/>
	<line fill="none" stroke="#FFFFFF" stroke-miterlimit="10" x1="153.6" y1="258.4" x2="128.3" y2="246.6"/>
	<line fill="none" stroke="#FFFFFF" stroke-miterlimit="10" x1="146.3" y1="275.9" x2="120.2" y2="266.3"/>
	<line fill="none" stroke="#FFFFFF" stroke-miterlimit="10" x1="579.8" y1="433.6" x2="553.7" y2="424.1"/>
	<line fill="none" stroke="#FFFFFF" stroke-miterlimit="10" x1="559.3" y1="406.1" x2="586.2" y2="413.3"/>
	<line fill="none" stroke="#FFFFFF" stroke-miterlimit="10" x1="140.7" y1="293.9" x2="113.8" y2="286.7"/>
	<line fill="none" stroke="#FFFFFF" stroke-miterlimit="10" x1="590.9" y1="392.5" x2="563.4" y2="387.6"/>
	<line fill="none" stroke="#FFFFFF" stroke-miterlimit="10" x1="136.6" y1="312.4" x2="109.1" y2="307.5"/>
	<line fill="none" stroke="#FFFFFF" stroke-miterlimit="10" x1="134.1" y1="331.1" x2="106.4" y2="328.7"/>
	<line fill="none" stroke="#FFFFFF" stroke-miterlimit="10" x1="565.9" y1="368.9" x2="593.6" y2="371.3"/>
	<line fill="none" stroke="#FFFFFF" stroke-miterlimit="10" x1="350" y1="566.7" x2="350" y2="594.6"/>
	<line fill="none" stroke="#FFFFFF" stroke-miterlimit="10" x1="133.3" y1="350" x2="105.4" y2="350"/>
	<line fill="none" stroke="#FFFFFF" stroke-miterlimit="10" x1="594.6" y1="350" x2="566.7" y2="350"/>
	<line fill="none" stroke="#FFFFFF" stroke-miterlimit="10" x1="579.9" y1="346" x2="594.5" y2="345.7"/>
	<line fill="none" stroke="#FFFFFF" stroke-miterlimit="10" x1="120.1" y1="354" x2="105.5" y2="354.3"/>
	<line fill="none" stroke="#FFFFFF" stroke-miterlimit="10" x1="579.8" y1="342" x2="594.4" y2="341.5"/>
	<line fill="none" stroke="#FFFFFF" stroke-miterlimit="10" x1="120.2" y1="358" x2="105.6" y2="358.5"/>
	<line fill="none" stroke="#FFFFFF" stroke-miterlimit="10" x1="579.7" y1="338" x2="594.2" y2="337.2"/>
	<line fill="none" stroke="#FFFFFF" stroke-miterlimit="10" x1="120.3" y1="362" x2="105.8" y2="362.8"/>
	<line fill="none" stroke="#FFFFFF" stroke-miterlimit="10" x1="120.6" y1="366" x2="106" y2="367.1"/>
	<line fill="none" stroke="#FFFFFF" stroke-miterlimit="10" x1="579.4" y1="334" x2="594" y2="332.9"/>
	<line fill="none" stroke="#FFFFFF" stroke-miterlimit="10" x1="120.9" y1="370" x2="106.4" y2="371.3"/>
	<line fill="none" stroke="#FFFFFF" stroke-miterlimit="10" x1="579.1" y1="330" x2="593.6" y2="328.7"/>
	<line fill="none" stroke="#FFFFFF" stroke-miterlimit="10" x1="578.7" y1="326" x2="593.2" y2="324.4"/>
	<line fill="none" stroke="#FFFFFF" stroke-miterlimit="10" x1="121.3" y1="374" x2="106.8" y2="375.6"/>
	<line fill="none" stroke="#FFFFFF" stroke-miterlimit="10" x1="578.3" y1="322" x2="592.8" y2="320.2"/>
	<line fill="none" stroke="#FFFFFF" stroke-miterlimit="10" x1="121.7" y1="378" x2="107.2" y2="379.8"/>
	<line fill="none" stroke="#FFFFFF" stroke-miterlimit="10" x1="577.8" y1="318" x2="592.2" y2="316"/>
	<line fill="none" stroke="#FFFFFF" stroke-miterlimit="10" x1="122.2" y1="382" x2="107.8" y2="384"/>
	<line fill="none" stroke="#FFFFFF" stroke-miterlimit="10" x1="122.8" y1="386" x2="108.4" y2="388.3"/>
	<line fill="none" stroke="#FFFFFF" stroke-miterlimit="10" x1="577.2" y1="314" x2="591.6" y2="311.7"/>
	<line fill="none" stroke="#FFFFFF" stroke-miterlimit="10" x1="123.5" y1="389.9" x2="109.1" y2="392.5"/>
	<line fill="none" stroke="#FFFFFF" stroke-miterlimit="10" x1="576.5" y1="310.1" x2="590.9" y2="307.5"/>
	<line fill="none" stroke="#FFFFFF" stroke-miterlimit="10" x1="575.8" y1="306.1" x2="590.1" y2="303.3"/>
	<line fill="none" stroke="#FFFFFF" stroke-miterlimit="10" x1="124.2" y1="393.9" x2="109.9" y2="396.7"/>
	<line fill="none" stroke="#FFFFFF" stroke-miterlimit="10" x1="575" y1="302.2" x2="589.2" y2="299.1"/>
	<line fill="none" stroke="#FFFFFF" stroke-miterlimit="10" x1="125" y1="397.8" x2="110.8" y2="400.9"/>
	<line fill="none" stroke="#FFFFFF" stroke-miterlimit="10" x1="125.9" y1="401.7" x2="111.7" y2="405"/>
	<line fill="none" stroke="#FFFFFF" stroke-miterlimit="10" x1="574.1" y1="298.3" x2="588.3" y2="295"/>
	<line fill="none" stroke="#FFFFFF" stroke-miterlimit="10" x1="126.8" y1="405.6" x2="112.7" y2="409.2"/>
	<line fill="none" stroke="#FFFFFF" stroke-miterlimit="10" x1="573.2" y1="294.4" x2="587.3" y2="290.8"/>
	<line fill="none" stroke="#FFFFFF" stroke-miterlimit="10" x1="572.2" y1="290.5" x2="586.2" y2="286.7"/>
	<line fill="none" stroke="#FFFFFF" stroke-miterlimit="10" x1="127.8" y1="409.5" x2="113.8" y2="413.3"/>
	<line fill="none" stroke="#FFFFFF" stroke-miterlimit="10" x1="128.9" y1="413.4" x2="114.9" y2="417.4"/>
	<line fill="none" stroke="#FFFFFF" stroke-miterlimit="10" x1="571.1" y1="286.6" x2="585.1" y2="282.6"/>
	<line fill="none" stroke="#FFFFFF" stroke-miterlimit="10" x1="130" y1="417.3" x2="116.1" y2="421.5"/>
	<line fill="none" stroke="#FFFFFF" stroke-miterlimit="10" x1="570" y1="282.7" x2="583.9" y2="278.5"/>
	<line fill="none" stroke="#FFFFFF" stroke-miterlimit="10" x1="131.2" y1="421.1" x2="117.4" y2="425.6"/>
	<line fill="none" stroke="#FFFFFF" stroke-miterlimit="10" x1="568.8" y1="278.9" x2="582.6" y2="274.4"/>
	<line fill="none" stroke="#FFFFFF" stroke-miterlimit="10" x1="567.5" y1="275.1" x2="581.3" y2="270.4"/>
	<line fill="none" stroke="#FFFFFF" stroke-miterlimit="10" x1="132.5" y1="424.9" x2="118.7" y2="429.6"/>
	<line fill="none" stroke="#FFFFFF" stroke-miterlimit="10" x1="566.2" y1="271.3" x2="579.8" y2="266.3"/>
	<line fill="none" stroke="#FFFFFF" stroke-miterlimit="10" x1="133.8" y1="428.7" x2="120.2" y2="433.7"/>
	<line fill="none" stroke="#FFFFFF" stroke-miterlimit="10" x1="135.2" y1="432.4" x2="121.7" y2="437.6"/>
	<line fill="none" stroke="#FFFFFF" stroke-miterlimit="10" x1="564.8" y1="267.6" x2="578.3" y2="262.4"/>
	<line fill="none" stroke="#FFFFFF" stroke-miterlimit="10" x1="136.7" y1="436.2" x2="123.2" y2="441.6"/>
	<line fill="none" stroke="#FFFFFF" stroke-miterlimit="10" x1="563.3" y1="263.8" x2="576.8" y2="258.4"/>
	<line fill="none" stroke="#FFFFFF" stroke-miterlimit="10" x1="561.8" y1="260.1" x2="575.1" y2="254.4"/>
	<line fill="none" stroke="#FFFFFF" stroke-miterlimit="10" x1="138.2" y1="439.9" x2="124.9" y2="445.6"/>
	<line fill="none" stroke="#FFFFFF" stroke-miterlimit="10" x1="139.9" y1="443.6" x2="126.6" y2="449.5"/>
	<line fill="none" stroke="#FFFFFF" stroke-miterlimit="10" x1="560.1" y1="256.4" x2="573.4" y2="250.5"/>
	<line fill="none" stroke="#FFFFFF" stroke-miterlimit="10" x1="141.5" y1="447.2" x2="128.3" y2="453.4"/>
	<line fill="none" stroke="#FFFFFF" stroke-miterlimit="10" x1="558.5" y1="252.8" x2="571.7" y2="246.6"/>
	<line fill="none" stroke="#FFFFFF" stroke-miterlimit="10" x1="556.7" y1="249.2" x2="569.8" y2="242.8"/>
	<line fill="none" stroke="#FFFFFF" stroke-miterlimit="10" x1="143.3" y1="450.8" x2="130.2" y2="457.2"/>
	<line fill="none" stroke="#FFFFFF" stroke-miterlimit="10" x1="145" y1="454.4" x2="132.1" y2="461"/>
	<line fill="none" stroke="#FFFFFF" stroke-miterlimit="10" x1="555" y1="245.6" x2="567.9" y2="239"/>
	<line fill="none" stroke="#FFFFFF" stroke-miterlimit="10" x1="553.1" y1="242" x2="565.9" y2="235.2"/>
	<line fill="none" stroke="#FFFFFF" stroke-miterlimit="10" x1="146.9" y1="458" x2="134.1" y2="464.8"/>
	<line fill="none" stroke="#FFFFFF" stroke-miterlimit="10" x1="551.2" y1="238.5" x2="563.9" y2="231.4"/>
	<line fill="none" stroke="#FFFFFF" stroke-miterlimit="10" x1="148.8" y1="461.5" x2="136.1" y2="468.6"/>
	<line fill="none" stroke="#FFFFFF" stroke-miterlimit="10" x1="150.8" y1="465" x2="138.2" y2="472.3"/>
	<line fill="none" stroke="#FFFFFF" stroke-miterlimit="10" x1="549.2" y1="235" x2="561.8" y2="227.7"/>
	<line fill="none" stroke="#FFFFFF" stroke-miterlimit="10" x1="547.2" y1="231.5" x2="559.6" y2="224"/>
	<line fill="none" stroke="#FFFFFF" stroke-miterlimit="10" x1="152.8" y1="468.5" x2="140.4" y2="476"/>
	<line fill="none" stroke="#FFFFFF" stroke-miterlimit="10" x1="154.9" y1="471.9" x2="142.6" y2="479.6"/>
	<line fill="none" stroke="#FFFFFF" stroke-miterlimit="10" x1="545.1" y1="228.1" x2="557.4" y2="220.4"/>
	<line fill="none" stroke="#FFFFFF" stroke-miterlimit="10" x1="542.9" y1="224.7" x2="555.1" y2="216.8"/>
	<line fill="none" stroke="#FFFFFF" stroke-miterlimit="10" x1="157.1" y1="475.3" x2="144.9" y2="483.2"/>
	<line fill="none" stroke="#FFFFFF" stroke-miterlimit="10" x1="159.3" y1="478.6" x2="147.2" y2="486.8"/>
	<line fill="none" stroke="#FFFFFF" stroke-miterlimit="10" x1="540.7" y1="221.4" x2="552.8" y2="213.2"/>
	<line fill="none" stroke="#FFFFFF" stroke-miterlimit="10" x1="161.6" y1="481.9" x2="149.7" y2="490.3"/>
	<line fill="none" stroke="#FFFFFF" stroke-miterlimit="10" x1="538.4" y1="218.1" x2="550.3" y2="209.7"/>
	<line fill="none" stroke="#FFFFFF" stroke-miterlimit="10" x1="163.9" y1="485.2" x2="152.1" y2="493.8"/>
	<line fill="none" stroke="#FFFFFF" stroke-miterlimit="10" x1="536.1" y1="214.8" x2="547.9" y2="206.2"/>
	<line fill="none" stroke="#FFFFFF" stroke-miterlimit="10" x1="533.7" y1="211.6" x2="545.3" y2="202.8"/>
	<line fill="none" stroke="#FFFFFF" stroke-miterlimit="10" x1="166.3" y1="488.4" x2="154.7" y2="497.2"/>
	<line fill="none" stroke="#FFFFFF" stroke-miterlimit="10" x1="168.8" y1="491.6" x2="157.3" y2="500.6"/>
	<line fill="none" stroke="#FFFFFF" stroke-miterlimit="10" x1="531.2" y1="208.4" x2="542.7" y2="199.4"/>
	<line fill="none" stroke="#FFFFFF" stroke-miterlimit="10" x1="171.3" y1="494.7" x2="159.9" y2="503.9"/>
	<line fill="none" stroke="#FFFFFF" stroke-miterlimit="10" x1="528.7" y1="205.3" x2="540.1" y2="196.1"/>
	<line fill="none" stroke="#FFFFFF" stroke-miterlimit="10" x1="526.2" y1="202.2" x2="537.4" y2="192.8"/>
	<line fill="none" stroke="#FFFFFF" stroke-miterlimit="10" x1="173.8" y1="497.8" x2="162.6" y2="507.2"/>
	<line fill="none" stroke="#FFFFFF" stroke-miterlimit="10" x1="523.6" y1="199.1" x2="534.6" y2="189.5"/>
	<line fill="none" stroke="#FFFFFF" stroke-miterlimit="10" x1="176.4" y1="500.9" x2="165.4" y2="510.5"/>
	<line fill="none" stroke="#FFFFFF" stroke-miterlimit="10" x1="179.1" y1="503.9" x2="168.2" y2="513.7"/>
	<line fill="none" stroke="#FFFFFF" stroke-miterlimit="10" x1="520.9" y1="196.1" x2="531.8" y2="186.3"/>
	<line fill="none" stroke="#FFFFFF" stroke-miterlimit="10" x1="181.8" y1="506.8" x2="171.1" y2="516.8"/>
	<line fill="none" stroke="#FFFFFF" stroke-miterlimit="10" x1="518.2" y1="193.2" x2="528.9" y2="183.2"/>
	<line fill="none" stroke="#FFFFFF" stroke-miterlimit="10" x1="515.4" y1="190.2" x2="525.9" y2="180.1"/>
	<line fill="none" stroke="#FFFFFF" stroke-miterlimit="10" x1="184.6" y1="509.8" x2="174.1" y2="519.9"/>
	<line fill="none" stroke="#FFFFFF" stroke-miterlimit="10" x1="187.4" y1="512.6" x2="177.1" y2="522.9"/>
	<line fill="none" stroke="#FFFFFF" stroke-miterlimit="10" x1="512.6" y1="187.4" x2="522.9" y2="177.1"/>
	<line fill="none" stroke="#FFFFFF" stroke-miterlimit="10" x1="509.8" y1="184.6" x2="519.9" y2="174.1"/>
	<line fill="none" stroke="#FFFFFF" stroke-miterlimit="10" x1="190.2" y1="515.4" x2="180.1" y2="525.9"/>
	<line fill="none" stroke="#FFFFFF" stroke-miterlimit="10" x1="193.2" y1="518.2" x2="183.2" y2="528.9"/>
	<line fill="none" stroke="#FFFFFF" stroke-miterlimit="10" x1="506.8" y1="181.8" x2="516.8" y2="171.1"/>
	<line fill="none" stroke="#FFFFFF" stroke-miterlimit="10" x1="503.9" y1="179.1" x2="513.7" y2="168.2"/>
	<line fill="none" stroke="#FFFFFF" stroke-miterlimit="10" x1="196.1" y1="520.9" x2="186.3" y2="531.8"/>
	<line fill="none" stroke="#FFFFFF" stroke-miterlimit="10" x1="500.9" y1="176.4" x2="510.5" y2="165.4"/>
	<line fill="none" stroke="#FFFFFF" stroke-miterlimit="10" x1="199.1" y1="523.6" x2="189.5" y2="534.6"/>
	<line fill="none" stroke="#FFFFFF" stroke-miterlimit="10" x1="202.2" y1="526.2" x2="192.8" y2="537.4"/>
	<line fill="none" stroke="#FFFFFF" stroke-miterlimit="10" x1="497.8" y1="173.8" x2="507.2" y2="162.6"/>
	<line fill="none" stroke="#FFFFFF" stroke-miterlimit="10" x1="205.3" y1="528.7" x2="196.1" y2="540.1"/>
	<line fill="none" stroke="#FFFFFF" stroke-miterlimit="10" x1="494.7" y1="171.3" x2="503.9" y2="159.9"/>
	<line fill="none" stroke="#FFFFFF" stroke-miterlimit="10" x1="208.4" y1="531.2" x2="199.4" y2="542.7"/>
	<line fill="none" stroke="#FFFFFF" stroke-miterlimit="10" x1="491.6" y1="168.8" x2="500.6" y2="157.3"/>
	<line fill="none" stroke="#FFFFFF" stroke-miterlimit="10" x1="211.6" y1="533.7" x2="202.8" y2="545.3"/>
	<line fill="none" stroke="#FFFFFF" stroke-miterlimit="10" x1="488.4" y1="166.3" x2="497.2" y2="154.7"/>
	<line fill="none" stroke="#FFFFFF" stroke-miterlimit="10" x1="214.8" y1="536.1" x2="206.2" y2="547.9"/>
	<line fill="none" stroke="#FFFFFF" stroke-miterlimit="10" x1="485.2" y1="163.9" x2="493.8" y2="152.1"/>
	<line fill="none" stroke="#FFFFFF" stroke-miterlimit="10" x1="481.9" y1="161.6" x2="490.3" y2="149.7"/>
	<line fill="none" stroke="#FFFFFF" stroke-miterlimit="10" x1="218.1" y1="538.4" x2="209.7" y2="550.3"/>
	<line fill="none" stroke="#FFFFFF" stroke-miterlimit="10" x1="478.6" y1="159.3" x2="486.8" y2="147.2"/>
	<line fill="none" stroke="#FFFFFF" stroke-miterlimit="10" x1="221.4" y1="540.7" x2="213.2" y2="552.8"/>
	<line fill="none" stroke="#FFFFFF" stroke-miterlimit="10" x1="475.3" y1="157.1" x2="483.2" y2="144.9"/>
	<line fill="none" stroke="#FFFFFF" stroke-miterlimit="10" x1="224.7" y1="542.9" x2="216.8" y2="555.1"/>
	<line fill="none" stroke="#FFFFFF" stroke-miterlimit="10" x1="228.1" y1="545.1" x2="220.4" y2="557.4"/>
	<line fill="none" stroke="#FFFFFF" stroke-miterlimit="10" x1="471.9" y1="154.9" x2="479.6" y2="142.6"/>
	<line fill="none" stroke="#FFFFFF" stroke-miterlimit="10" x1="468.5" y1="152.8" x2="476" y2="140.4"/>
	<line fill="none" stroke="#FFFFFF" stroke-miterlimit="10" x1="231.5" y1="547.2" x2="224" y2="559.6"/>
	<line fill="none" stroke="#FFFFFF" stroke-miterlimit="10" x1="465" y1="150.8" x2="472.3" y2="138.2"/>
	<line fill="none" stroke="#FFFFFF" stroke-miterlimit="10" x1="235" y1="549.2" x2="227.7" y2="561.8"/>
	<line fill="none" stroke="#FFFFFF" stroke-miterlimit="10" x1="238.5" y1="551.2" x2="231.4" y2="563.9"/>
	<line fill="none" stroke="#FFFFFF" stroke-miterlimit="10" x1="461.5" y1="148.8" x2="468.6" y2="136.1"/>
	<line fill="none" stroke="#FFFFFF" stroke-miterlimit="10" x1="242" y1="553.1" x2="235.2" y2="565.9"/>
	<line fill="none" stroke="#FFFFFF" stroke-miterlimit="10" x1="458" y1="146.9" x2="464.8" y2="134.1"/>
	<line fill="none" stroke="#FFFFFF" stroke-miterlimit="10" x1="454.4" y1="145" x2="461" y2="132.1"/>
	<line fill="none" stroke="#FFFFFF" stroke-miterlimit="10" x1="245.6" y1="555" x2="239" y2="567.9"/>
	<line fill="none" stroke="#FFFFFF" stroke-miterlimit="10" x1="450.8" y1="143.3" x2="457.2" y2="130.2"/>
	<line fill="none" stroke="#FFFFFF" stroke-miterlimit="10" x1="249.2" y1="556.7" x2="242.8" y2="569.8"/>
	<line fill="none" stroke="#FFFFFF" stroke-miterlimit="10" x1="447.2" y1="141.5" x2="453.4" y2="128.3"/>
	<line fill="none" stroke="#FFFFFF" stroke-miterlimit="10" x1="252.8" y1="558.5" x2="246.6" y2="571.7"/>
	<line fill="none" stroke="#FFFFFF" stroke-miterlimit="10" x1="256.4" y1="560.1" x2="250.5" y2="573.4"/>
	<line fill="none" stroke="#FFFFFF" stroke-miterlimit="10" x1="443.6" y1="139.9" x2="449.5" y2="126.6"/>
	<line fill="none" stroke="#FFFFFF" stroke-miterlimit="10" x1="439.9" y1="138.2" x2="445.6" y2="124.9"/>
	<line fill="none" stroke="#FFFFFF" stroke-miterlimit="10" x1="260.1" y1="561.8" x2="254.4" y2="575.1"/>
	<line fill="none" stroke="#FFFFFF" stroke-miterlimit="10" x1="263.8" y1="563.3" x2="258.4" y2="576.8"/>
	<line fill="none" stroke="#FFFFFF" stroke-miterlimit="10" x1="436.2" y1="136.7" x2="441.6" y2="123.2"/>
	<line fill="none" stroke="#FFFFFF" stroke-miterlimit="10" x1="267.6" y1="564.8" x2="262.4" y2="578.3"/>
	<line fill="none" stroke="#FFFFFF" stroke-miterlimit="10" x1="432.4" y1="135.2" x2="437.6" y2="121.7"/>
	<line fill="none" stroke="#FFFFFF" stroke-miterlimit="10" x1="271.3" y1="566.2" x2="266.3" y2="579.8"/>
	<line fill="none" stroke="#FFFFFF" stroke-miterlimit="10" x1="428.7" y1="133.8" x2="433.7" y2="120.2"/>
	<line fill="none" stroke="#FFFFFF" stroke-miterlimit="10" x1="424.9" y1="132.5" x2="429.6" y2="118.7"/>
	<line fill="none" stroke="#FFFFFF" stroke-miterlimit="10" x1="275.1" y1="567.5" x2="270.4" y2="581.3"/>
	<line fill="none" stroke="#FFFFFF" stroke-miterlimit="10" x1="421.1" y1="131.2" x2="425.6" y2="117.4"/>
	<line fill="none" stroke="#FFFFFF" stroke-miterlimit="10" x1="278.9" y1="568.8" x2="274.4" y2="582.6"/>
	<line fill="none" stroke="#FFFFFF" stroke-miterlimit="10" x1="417.3" y1="130" x2="421.5" y2="116.1"/>
	<line fill="none" stroke="#FFFFFF" stroke-miterlimit="10" x1="282.7" y1="570" x2="278.5" y2="583.9"/>
	<line fill="none" stroke="#FFFFFF" stroke-miterlimit="10" x1="286.6" y1="571.1" x2="282.6" y2="585.1"/>
	<line fill="none" stroke="#FFFFFF" stroke-miterlimit="10" x1="413.4" y1="128.9" x2="417.4" y2="114.9"/>
	<line fill="none" stroke="#FFFFFF" stroke-miterlimit="10" x1="409.5" y1="127.8" x2="413.3" y2="113.8"/>
	<line fill="none" stroke="#FFFFFF" stroke-miterlimit="10" x1="286.7" y1="586.2" x2="290.5" y2="572.2"/>
	<line fill="none" stroke="#FFFFFF" stroke-miterlimit="10" x1="405.6" y1="126.8" x2="409.2" y2="112.7"/>
	<line fill="none" stroke="#FFFFFF" stroke-miterlimit="10" x1="294.4" y1="573.2" x2="290.8" y2="587.3"/>
	<line fill="none" stroke="#FFFFFF" stroke-miterlimit="10" x1="401.7" y1="125.9" x2="405" y2="111.7"/>
	<line fill="none" stroke="#FFFFFF" stroke-miterlimit="10" x1="298.3" y1="574.1" x2="295" y2="588.3"/>
	<line fill="none" stroke="#FFFFFF" stroke-miterlimit="10" x1="397.8" y1="125" x2="400.9" y2="110.8"/>
	<line fill="none" stroke="#FFFFFF" stroke-miterlimit="10" x1="302.2" y1="575" x2="299.1" y2="589.2"/>
	<line fill="none" stroke="#FFFFFF" stroke-miterlimit="10" x1="306.1" y1="575.8" x2="303.3" y2="590.1"/>
	<line fill="none" stroke="#FFFFFF" stroke-miterlimit="10" x1="393.9" y1="124.2" x2="396.7" y2="109.9"/>
	<line fill="none" stroke="#FFFFFF" stroke-miterlimit="10" x1="389.9" y1="123.5" x2="392.5" y2="109.1"/>
	<line fill="none" stroke="#FFFFFF" stroke-miterlimit="10" x1="310.1" y1="576.5" x2="307.5" y2="590.9"/>
	<line fill="none" stroke="#FFFFFF" stroke-miterlimit="10" x1="314" y1="577.2" x2="311.7" y2="591.6"/>
	<line fill="none" stroke="#FFFFFF" stroke-miterlimit="10" x1="386" y1="122.8" x2="388.3" y2="108.4"/>
	<line fill="none" stroke="#FFFFFF" stroke-miterlimit="10" x1="382" y1="122.2" x2="384" y2="107.8"/>
	<line fill="none" stroke="#FFFFFF" stroke-miterlimit="10" x1="318" y1="577.8" x2="316" y2="592.2"/>
	<line fill="none" stroke="#FFFFFF" stroke-miterlimit="10" x1="322" y1="578.3" x2="320.2" y2="592.8"/>
	<line fill="none" stroke="#FFFFFF" stroke-miterlimit="10" x1="378" y1="121.7" x2="379.8" y2="107.2"/>
	<line fill="none" stroke="#FFFFFF" stroke-miterlimit="10" x1="374" y1="121.3" x2="375.6" y2="106.8"/>
	<line fill="none" stroke="#FFFFFF" stroke-miterlimit="10" x1="326" y1="578.7" x2="324.4" y2="593.2"/>
	<line fill="none" stroke="#FFFFFF" stroke-miterlimit="10" x1="370" y1="120.9" x2="371.3" y2="106.4"/>
	<line fill="none" stroke="#FFFFFF" stroke-miterlimit="10" x1="330" y1="579.1" x2="328.7" y2="593.6"/>
	<line fill="none" stroke="#FFFFFF" stroke-miterlimit="10" x1="366" y1="120.6" x2="367.1" y2="106"/>
	<line fill="none" stroke="#FFFFFF" stroke-miterlimit="10" x1="334" y1="579.4" x2="332.9" y2="594"/>
	<line fill="none" stroke="#FFFFFF" stroke-miterlimit="10" x1="338" y1="579.7" x2="337.2" y2="594.2"/>
	<line fill="none" stroke="#FFFFFF" stroke-miterlimit="10" x1="362" y1="120.3" x2="362.8" y2="105.8"/>
	<line fill="none" stroke="#FFFFFF" stroke-miterlimit="10" x1="342" y1="579.8" x2="341.5" y2="594.4"/>
	<line fill="none" stroke="#FFFFFF" stroke-miterlimit="10" x1="358" y1="120.2" x2="358.5" y2="105.6"/>
	<line fill="none" stroke="#FFFFFF" stroke-miterlimit="10" x1="354" y1="120.1" x2="354.3" y2="105.5"/>
	<line fill="none" stroke="#FFFFFF" stroke-miterlimit="10" x1="346" y1="579.9" x2="345.7" y2="594.5"/>
	<line fill="none" stroke="#FFFFFF" stroke-miterlimit="10" x1="350" y1="120" x2="350" y2="105.4"/>
	<line fill="none" stroke="#FFFFFF" stroke-miterlimit="10" x1="354" y1="579.9" x2="354.3" y2="594.5"/>
	<line fill="none" stroke="#FFFFFF" stroke-miterlimit="10" x1="346" y1="120.1" x2="345.7" y2="105.5"/>
	<line fill="none" stroke="#FFFFFF" stroke-miterlimit="10" x1="342" y1="120.2" x2="341.5" y2="105.6"/>
	<line fill="none" stroke="#FFFFFF" stroke-miterlimit="10" x1="358" y1="579.8" x2="358.5" y2="594.4"/>
	<line fill="none" stroke="#FFFFFF" stroke-miterlimit="10" x1="362" y1="579.7" x2="362.8" y2="594.2"/>
	<line fill="none" stroke="#FFFFFF" stroke-miterlimit="10" x1="338" y1="120.3" x2="337.2" y2="105.8"/>
	<line fill="none" stroke="#FFFFFF" stroke-miterlimit="10" x1="366" y1="579.4" x2="367.1" y2="594"/>
	<line fill="none" stroke="#FFFFFF" stroke-miterlimit="10" x1="334" y1="120.6" x2="332.9" y2="106"/>
	<line fill="none" stroke="#FFFFFF" stroke-miterlimit="10" x1="370" y1="579.1" x2="371.3" y2="593.6"/>
	<line fill="none" stroke="#FFFFFF" stroke-miterlimit="10" x1="330" y1="120.9" x2="328.7" y2="106.4"/>
	<line fill="none" stroke="#FFFFFF" stroke-miterlimit="10" x1="326" y1="121.3" x2="324.4" y2="106.8"/>
	<line fill="none" stroke="#FFFFFF" stroke-miterlimit="10" x1="374" y1="578.7" x2="375.6" y2="593.2"/>
	<line fill="none" stroke="#FFFFFF" stroke-miterlimit="10" x1="322" y1="121.7" x2="320.2" y2="107.2"/>
	<line fill="none" stroke="#FFFFFF" stroke-miterlimit="10" x1="378" y1="578.3" x2="379.8" y2="592.8"/>
	<line fill="none" stroke="#FFFFFF" stroke-miterlimit="10" x1="382" y1="577.8" x2="384" y2="592.2"/>
	<line fill="none" stroke="#FFFFFF" stroke-miterlimit="10" x1="318" y1="122.2" x2="316" y2="107.8"/>
	<line fill="none" stroke="#FFFFFF" stroke-miterlimit="10" x1="386" y1="577.2" x2="388.3" y2="591.6"/>
	<line fill="none" stroke="#FFFFFF" stroke-miterlimit="10" x1="314" y1="122.8" x2="311.7" y2="108.4"/>
	<line fill="none" stroke="#FFFFFF" stroke-miterlimit="10" x1="310.1" y1="123.5" x2="307.5" y2="109.1"/>
	<line fill="none" stroke="#FFFFFF" stroke-miterlimit="10" x1="389.9" y1="576.5" x2="392.5" y2="590.9"/>
	<line fill="none" stroke="#FFFFFF" stroke-miterlimit="10" x1="393.9" y1="575.8" x2="396.7" y2="590.1"/>
	<line fill="none" stroke="#FFFFFF" stroke-miterlimit="10" x1="306.1" y1="124.2" x2="303.3" y2="109.9"/>
	<line fill="none" stroke="#FFFFFF" stroke-miterlimit="10" x1="397.8" y1="575" x2="400.9" y2="589.2"/>
	<line fill="none" stroke="#FFFFFF" stroke-miterlimit="10" x1="302.2" y1="125" x2="299.1" y2="110.8"/>
	<line fill="none" stroke="#FFFFFF" stroke-miterlimit="10" x1="298.3" y1="125.9" x2="295" y2="111.7"/>
	<line fill="none" stroke="#FFFFFF" stroke-miterlimit="10" x1="401.7" y1="574.1" x2="405" y2="588.3"/>
	<line fill="none" stroke="#FFFFFF" stroke-miterlimit="10" x1="294.4" y1="126.8" x2="290.8" y2="112.7"/>
	<line fill="none" stroke="#FFFFFF" stroke-miterlimit="10" x1="405.6" y1="573.2" x2="409.2" y2="587.3"/>
	<line fill="none" stroke="#FFFFFF" stroke-miterlimit="10" x1="290.5" y1="127.8" x2="286.7" y2="113.8"/>
	<line fill="none" stroke="#FFFFFF" stroke-miterlimit="10" x1="409.5" y1="572.2" x2="413.3" y2="586.2"/>
	<line fill="none" stroke="#FFFFFF" stroke-miterlimit="10" x1="413.4" y1="571.1" x2="417.4" y2="585.1"/>
	<line fill="none" stroke="#FFFFFF" stroke-miterlimit="10" x1="286.6" y1="128.9" x2="282.6" y2="114.9"/>
	<line fill="none" stroke="#FFFFFF" stroke-miterlimit="10" x1="417.3" y1="570" x2="421.5" y2="583.9"/>
	<line fill="none" stroke="#FFFFFF" stroke-miterlimit="10" x1="282.7" y1="130" x2="278.5" y2="116.1"/>
	<line fill="none" stroke="#FFFFFF" stroke-miterlimit="10" x1="278.9" y1="131.2" x2="274.4" y2="117.4"/>
	<line fill="none" stroke="#FFFFFF" stroke-miterlimit="10" x1="421.1" y1="568.8" x2="425.6" y2="582.6"/>
	<line fill="none" stroke="#FFFFFF" stroke-miterlimit="10" x1="424.9" y1="567.5" x2="429.6" y2="581.3"/>
	<line fill="none" stroke="#FFFFFF" stroke-miterlimit="10" x1="275.1" y1="132.5" x2="270.4" y2="118.7"/>
	<line fill="none" stroke="#FFFFFF" stroke-miterlimit="10" x1="428.7" y1="566.2" x2="433.7" y2="579.8"/>
	<line fill="none" stroke="#FFFFFF" stroke-miterlimit="10" x1="271.3" y1="133.8" x2="266.3" y2="120.2"/>
	<line fill="none" stroke="#FFFFFF" stroke-miterlimit="10" x1="432.4" y1="564.8" x2="437.7" y2="578.3"/>
	<line fill="none" stroke="#FFFFFF" stroke-miterlimit="10" x1="267.6" y1="135.2" x2="262.4" y2="121.7"/>
	<line fill="none" stroke="#FFFFFF" stroke-miterlimit="10" x1="263.8" y1="136.7" x2="258.4" y2="123.2"/>
	<line fill="none" stroke="#FFFFFF" stroke-miterlimit="10" x1="436.2" y1="563.3" x2="441.6" y2="576.8"/>
	<line fill="none" stroke="#FFFFFF" stroke-miterlimit="10" x1="260.1" y1="138.2" x2="254.4" y2="124.9"/>
	<line fill="none" stroke="#FFFFFF" stroke-miterlimit="10" x1="439.9" y1="561.8" x2="445.6" y2="575.1"/>
	<line fill="none" stroke="#FFFFFF" stroke-miterlimit="10" x1="256.4" y1="139.9" x2="250.5" y2="126.6"/>
	<line fill="none" stroke="#FFFFFF" stroke-miterlimit="10" x1="443.6" y1="560.1" x2="449.5" y2="573.4"/>
	<line fill="none" stroke="#FFFFFF" stroke-miterlimit="10" x1="252.8" y1="141.5" x2="246.6" y2="128.3"/>
	<line fill="none" stroke="#FFFFFF" stroke-miterlimit="10" x1="447.2" y1="558.5" x2="453.4" y2="571.7"/>
	<line fill="none" stroke="#FFFFFF" stroke-miterlimit="10" x1="450.8" y1="556.7" x2="457.2" y2="569.8"/>
	<line fill="none" stroke="#FFFFFF" stroke-miterlimit="10" x1="249.2" y1="143.3" x2="242.8" y2="130.2"/>
	<line fill="none" stroke="#FFFFFF" stroke-miterlimit="10" x1="454.4" y1="555" x2="461" y2="567.9"/>
	<line fill="none" stroke="#FFFFFF" stroke-miterlimit="10" x1="245.6" y1="145" x2="239" y2="132.1"/>
	<line fill="none" stroke="#FFFFFF" stroke-miterlimit="10" x1="458" y1="553.1" x2="464.8" y2="565.9"/>
	<line fill="none" stroke="#FFFFFF" stroke-miterlimit="10" x1="242" y1="146.9" x2="235.2" y2="134.1"/>
	<line fill="none" stroke="#FFFFFF" stroke-miterlimit="10" x1="238.5" y1="148.8" x2="231.4" y2="136.1"/>
	<line fill="none" stroke="#FFFFFF" stroke-miterlimit="10" x1="461.5" y1="551.2" x2="468.6" y2="563.9"/>
	<line fill="none" stroke="#FFFFFF" stroke-miterlimit="10" x1="465" y1="549.2" x2="472.3" y2="561.8"/>
	<line fill="none" stroke="#FFFFFF" stroke-miterlimit="10" x1="235" y1="150.8" x2="227.7" y2="138.2"/>
	<line fill="none" stroke="#FFFFFF" stroke-miterlimit="10" x1="468.5" y1="547.2" x2="476" y2="559.6"/>
	<line fill="none" stroke="#FFFFFF" stroke-miterlimit="10" x1="231.5" y1="152.8" x2="224" y2="140.4"/>
	<line fill="none" stroke="#FFFFFF" stroke-miterlimit="10" x1="228.1" y1="154.9" x2="220.4" y2="142.6"/>
	<line fill="none" stroke="#FFFFFF" stroke-miterlimit="10" x1="471.9" y1="545.1" x2="479.6" y2="557.4"/>
	<line fill="none" stroke="#FFFFFF" stroke-miterlimit="10" x1="224.7" y1="157.1" x2="216.8" y2="144.9"/>
	<line fill="none" stroke="#FFFFFF" stroke-miterlimit="10" x1="475.3" y1="542.9" x2="483.2" y2="555.1"/>
	<line fill="none" stroke="#FFFFFF" stroke-miterlimit="10" x1="478.6" y1="540.7" x2="486.8" y2="552.8"/>
	<line fill="none" stroke="#FFFFFF" stroke-miterlimit="10" x1="221.4" y1="159.3" x2="213.2" y2="147.2"/>
	<line fill="none" stroke="#FFFFFF" stroke-miterlimit="10" x1="481.9" y1="538.4" x2="490.3" y2="550.3"/>
	<line fill="none" stroke="#FFFFFF" stroke-miterlimit="10" x1="218.1" y1="161.6" x2="209.7" y2="149.7"/>
	<line fill="none" stroke="#FFFFFF" stroke-miterlimit="10" x1="214.8" y1="163.9" x2="206.2" y2="152.1"/>
	<line fill="none" stroke="#FFFFFF" stroke-miterlimit="10" x1="485.2" y1="536.1" x2="493.8" y2="547.9"/>
	<line fill="none" stroke="#FFFFFF" stroke-miterlimit="10" x1="211.6" y1="166.3" x2="202.8" y2="154.7"/>
	<line fill="none" stroke="#FFFFFF" stroke-miterlimit="10" x1="488.4" y1="533.7" x2="497.2" y2="545.3"/>
	<line fill="none" stroke="#FFFFFF" stroke-miterlimit="10" x1="208.4" y1="168.8" x2="199.4" y2="157.3"/>
	<line fill="none" stroke="#FFFFFF" stroke-miterlimit="10" x1="491.6" y1="531.2" x2="500.6" y2="542.7"/>
	<line fill="none" stroke="#FFFFFF" stroke-miterlimit="10" x1="205.3" y1="171.3" x2="196.1" y2="159.9"/>
	<line fill="none" stroke="#FFFFFF" stroke-miterlimit="10" x1="494.7" y1="528.7" x2="503.9" y2="540.1"/>
	<line fill="none" stroke="#FFFFFF" stroke-miterlimit="10" x1="202.2" y1="173.8" x2="192.8" y2="162.6"/>
	<line fill="none" stroke="#FFFFFF" stroke-miterlimit="10" x1="497.8" y1="526.2" x2="507.2" y2="537.4"/>
	<line fill="none" stroke="#FFFFFF" stroke-miterlimit="10" x1="500.9" y1="523.6" x2="510.5" y2="534.6"/>
	<line fill="none" stroke="#FFFFFF" stroke-miterlimit="10" x1="199.1" y1="176.4" x2="189.5" y2="165.4"/>
	<line fill="none" stroke="#FFFFFF" stroke-miterlimit="10" x1="196.1" y1="179.1" x2="186.3" y2="168.2"/>
	<line fill="none" stroke="#FFFFFF" stroke-miterlimit="10" x1="503.9" y1="520.9" x2="513.7" y2="531.8"/>
	<line fill="none" stroke="#FFFFFF" stroke-miterlimit="10" x1="193.2" y1="181.8" x2="183.2" y2="171.1"/>
	<line fill="none" stroke="#FFFFFF" stroke-miterlimit="10" x1="506.8" y1="518.2" x2="516.8" y2="528.9"/>
	<line fill="none" stroke="#FFFFFF" stroke-miterlimit="10" x1="519.9" y1="525.9" x2="509.8" y2="515.4"/>
	<line fill="none" stroke="#FFFFFF" stroke-miterlimit="10" x1="190.2" y1="184.6" x2="180.1" y2="174.1"/>
	<line fill="none" stroke="#FFFFFF" stroke-miterlimit="10" x1="187.4" y1="187.4" x2="177.1" y2="177.1"/>
	<line fill="none" stroke="#FFFFFF" stroke-miterlimit="10" x1="512.6" y1="512.6" x2="522.9" y2="522.9"/>
	<line fill="none" stroke="#FFFFFF" stroke-miterlimit="10" x1="184.6" y1="190.2" x2="174.1" y2="180.1"/>
	<line fill="none" stroke="#FFFFFF" stroke-miterlimit="10" x1="515.4" y1="509.8" x2="525.9" y2="519.9"/>
	<line fill="none" stroke="#FFFFFF" stroke-miterlimit="10" x1="181.8" y1="193.2" x2="171.1" y2="183.2"/>
	<line fill="none" stroke="#FFFFFF" stroke-miterlimit="10" x1="518.2" y1="506.8" x2="528.9" y2="516.8"/>
	<line fill="none" stroke="#FFFFFF" stroke-miterlimit="10" x1="520.9" y1="503.9" x2="531.8" y2="513.7"/>
	<line fill="none" stroke="#FFFFFF" stroke-miterlimit="10" x1="179.1" y1="196.1" x2="168.2" y2="186.3"/>
	<line fill="none" stroke="#FFFFFF" stroke-miterlimit="10" x1="523.6" y1="500.9" x2="534.6" y2="510.5"/>
	<line fill="none" stroke="#FFFFFF" stroke-miterlimit="10" x1="176.4" y1="199.1" x2="165.4" y2="189.5"/>
	<line fill="none" stroke="#FFFFFF" stroke-miterlimit="10" x1="173.8" y1="202.2" x2="162.6" y2="192.8"/>
	<line fill="none" stroke="#FFFFFF" stroke-miterlimit="10" x1="526.2" y1="497.8" x2="537.4" y2="507.2"/>
	<line fill="none" stroke="#FFFFFF" stroke-miterlimit="10" x1="528.7" y1="494.7" x2="540.1" y2="503.9"/>
	<line fill="none" stroke="#FFFFFF" stroke-miterlimit="10" x1="171.3" y1="205.3" x2="159.9" y2="196.1"/>
	<line fill="none" stroke="#FFFFFF" stroke-miterlimit="10" x1="168.8" y1="208.4" x2="157.3" y2="199.4"/>
	<line fill="none" stroke="#FFFFFF" stroke-miterlimit="10" x1="531.2" y1="491.6" x2="542.7" y2="500.6"/>
	<line fill="none" stroke="#FFFFFF" stroke-miterlimit="10" x1="533.7" y1="488.4" x2="545.3" y2="497.2"/>
	<line fill="none" stroke="#FFFFFF" stroke-miterlimit="10" x1="166.3" y1="211.6" x2="154.7" y2="202.8"/>
	<line fill="none" stroke="#FFFFFF" stroke-miterlimit="10" x1="536.1" y1="485.2" x2="547.9" y2="493.8"/>
	<line fill="none" stroke="#FFFFFF" stroke-miterlimit="10" x1="163.9" y1="214.8" x2="152.1" y2="206.2"/>
	<line fill="none" stroke="#FFFFFF" stroke-miterlimit="10" x1="161.6" y1="218.1" x2="149.7" y2="209.7"/>
	<line fill="none" stroke="#FFFFFF" stroke-miterlimit="10" x1="538.4" y1="481.9" x2="550.3" y2="490.3"/>
	<line fill="none" stroke="#FFFFFF" stroke-miterlimit="10" x1="159.3" y1="221.4" x2="147.2" y2="213.2"/>
	<line fill="none" stroke="#FFFFFF" stroke-miterlimit="10" x1="540.7" y1="478.6" x2="552.8" y2="486.8"/>
	<line fill="none" stroke="#FFFFFF" stroke-miterlimit="10" x1="157.1" y1="224.7" x2="144.9" y2="216.8"/>
	<line fill="none" stroke="#FFFFFF" stroke-miterlimit="10" x1="542.9" y1="475.3" x2="555.1" y2="483.2"/>
	<line fill="none" stroke="#FFFFFF" stroke-miterlimit="10" x1="154.9" y1="228.1" x2="142.6" y2="220.4"/>
	<line fill="none" stroke="#FFFFFF" stroke-miterlimit="10" x1="545.1" y1="471.9" x2="557.4" y2="479.6"/>
	<line fill="none" stroke="#FFFFFF" stroke-miterlimit="10" x1="547.2" y1="468.5" x2="559.6" y2="476"/>
	<line fill="none" stroke="#FFFFFF" stroke-miterlimit="10" x1="152.8" y1="231.5" x2="140.4" y2="224"/>
	<line fill="none" stroke="#FFFFFF" stroke-miterlimit="10" x1="150.8" y1="235" x2="138.2" y2="227.7"/>
	<line fill="none" stroke="#FFFFFF" stroke-miterlimit="10" x1="549.2" y1="465" x2="561.8" y2="472.3"/>
	<line fill="none" stroke="#FFFFFF" stroke-miterlimit="10" x1="551.2" y1="461.5" x2="563.9" y2="468.6"/>
	<line fill="none" stroke="#FFFFFF" stroke-miterlimit="10" x1="148.8" y1="238.5" x2="136.1" y2="231.4"/>
	<line fill="none" stroke="#FFFFFF" stroke-miterlimit="10" x1="553.1" y1="458" x2="566" y2="464.8"/>
	<line fill="none" stroke="#FFFFFF" stroke-miterlimit="10" x1="146.9" y1="242" x2="134" y2="235.2"/>
	<line fill="none" stroke="#FFFFFF" stroke-miterlimit="10" x1="555" y1="454.4" x2="567.9" y2="461"/>
	<line fill="none" stroke="#FFFFFF" stroke-miterlimit="10" x1="145" y1="245.6" x2="132.1" y2="239"/>
	<line fill="none" stroke="#FFFFFF" stroke-miterlimit="10" x1="143.3" y1="249.2" x2="130.2" y2="242.8"/>
	<line fill="none" stroke="#FFFFFF" stroke-miterlimit="10" x1="556.7" y1="450.8" x2="569.8" y2="457.2"/>
	<line fill="none" stroke="#FFFFFF" stroke-miterlimit="10" x1="558.5" y1="447.2" x2="571.7" y2="453.4"/>
	<line fill="none" stroke="#FFFFFF" stroke-miterlimit="10" x1="141.5" y1="252.8" x2="128.3" y2="246.6"/>
	<line fill="none" stroke="#FFFFFF" stroke-miterlimit="10" x1="139.9" y1="256.4" x2="126.6" y2="250.5"/>
	<line fill="none" stroke="#FFFFFF" stroke-miterlimit="10" x1="560.1" y1="443.6" x2="573.4" y2="449.5"/>
	<line fill="none" stroke="#FFFFFF" stroke-miterlimit="10" x1="561.8" y1="439.9" x2="575.1" y2="445.6"/>
	<line fill="none" stroke="#FFFFFF" stroke-miterlimit="10" x1="138.2" y1="260.1" x2="124.9" y2="254.4"/>
	<line fill="none" stroke="#FFFFFF" stroke-miterlimit="10" x1="136.7" y1="263.8" x2="123.2" y2="258.4"/>
	<line fill="none" stroke="#FFFFFF" stroke-miterlimit="10" x1="563.3" y1="436.2" x2="576.8" y2="441.6"/>
	<line fill="none" stroke="#FFFFFF" stroke-miterlimit="10" x1="135.2" y1="267.6" x2="121.7" y2="262.4"/>
	<line fill="none" stroke="#FFFFFF" stroke-miterlimit="10" x1="564.8" y1="432.4" x2="578.3" y2="437.6"/>
	<line fill="none" stroke="#FFFFFF" stroke-miterlimit="10" x1="133.8" y1="271.3" x2="120.2" y2="266.3"/>
	<line fill="none" stroke="#FFFFFF" stroke-miterlimit="10" x1="566.2" y1="428.7" x2="579.8" y2="433.6"/>
	<line fill="none" stroke="#FFFFFF" stroke-miterlimit="10" x1="132.5" y1="275.1" x2="118.7" y2="270.4"/>
	<line fill="none" stroke="#FFFFFF" stroke-miterlimit="10" x1="567.5" y1="424.9" x2="581.3" y2="429.6"/>
	<line fill="none" stroke="#FFFFFF" stroke-miterlimit="10" x1="568.8" y1="421.1" x2="582.6" y2="425.6"/>
	<line fill="none" stroke="#FFFFFF" stroke-miterlimit="10" x1="131.2" y1="278.9" x2="117.4" y2="274.4"/>
	<line fill="none" stroke="#FFFFFF" stroke-miterlimit="10" x1="130" y1="282.7" x2="116.1" y2="278.5"/>
	<line fill="none" stroke="#FFFFFF" stroke-miterlimit="10" x1="570" y1="417.3" x2="583.9" y2="421.5"/>
	<line fill="none" stroke="#FFFFFF" stroke-miterlimit="10" x1="128.9" y1="286.6" x2="114.9" y2="282.6"/>
	<line fill="none" stroke="#FFFFFF" stroke-miterlimit="10" x1="571.1" y1="413.4" x2="585.1" y2="417.4"/>
	<line fill="none" stroke="#FFFFFF" stroke-miterlimit="10" x1="572.2" y1="409.5" x2="586.2" y2="413.3"/>
	<line fill="none" stroke="#FFFFFF" stroke-miterlimit="10" x1="127.8" y1="290.5" x2="113.8" y2="286.7"/>
	<line fill="none" stroke="#FFFFFF" stroke-miterlimit="10" x1="573.2" y1="405.6" x2="587.3" y2="409.2"/>
	<line fill="none" stroke="#FFFFFF" stroke-miterlimit="10" x1="126.8" y1="294.4" x2="112.7" y2="290.8"/>
	<line fill="none" stroke="#FFFFFF" stroke-miterlimit="10" x1="125.9" y1="298.3" x2="111.7" y2="295"/>
	<line fill="none" stroke="#FFFFFF" stroke-miterlimit="10" x1="574.1" y1="401.7" x2="588.3" y2="405"/>
	<line fill="none" stroke="#FFFFFF" stroke-miterlimit="10" x1="575" y1="397.8" x2="589.2" y2="400.8"/>
	<line fill="none" stroke="#FFFFFF" stroke-miterlimit="10" x1="125" y1="302.2" x2="110.8" y2="299.1"/>
	<line fill="none" stroke="#FFFFFF" stroke-miterlimit="10" x1="575.8" y1="393.9" x2="590.1" y2="396.7"/>
	<line fill="none" stroke="#FFFFFF" stroke-miterlimit="10" x1="124.2" y1="306.1" x2="109.9" y2="303.3"/>
	<line fill="none" stroke="#FFFFFF" stroke-miterlimit="10" x1="576.5" y1="389.9" x2="590.9" y2="392.5"/>
	<line fill="none" stroke="#FFFFFF" stroke-miterlimit="10" x1="123.5" y1="310.1" x2="109.1" y2="307.5"/>
	<line fill="none" stroke="#FFFFFF" stroke-miterlimit="10" x1="122.8" y1="314" x2="108.4" y2="311.7"/>
	<line fill="none" stroke="#FFFFFF" stroke-miterlimit="10" x1="577.2" y1="386" x2="591.6" y2="388.3"/>
	<line fill="none" stroke="#FFFFFF" stroke-miterlimit="10" x1="577.8" y1="382" x2="592.2" y2="384"/>
	<line fill="none" stroke="#FFFFFF" stroke-miterlimit="10" x1="122.2" y1="318" x2="107.8" y2="316"/>
	<line fill="none" stroke="#FFFFFF" stroke-miterlimit="10" x1="578.3" y1="378" x2="592.8" y2="379.8"/>
	<line fill="none" stroke="#FFFFFF" stroke-miterlimit="10" x1="121.7" y1="322" x2="107.2" y2="320.2"/>
	<line fill="none" stroke="#FFFFFF" stroke-miterlimit="10" x1="121.3" y1="326" x2="106.8" y2="324.4"/>
	<line fill="none" stroke="#FFFFFF" stroke-miterlimit="10" x1="578.7" y1="374" x2="593.2" y2="375.6"/>
	<line fill="none" stroke="#FFFFFF" stroke-miterlimit="10" x1="120.9" y1="330" x2="106.4" y2="328.7"/>
	<line fill="none" stroke="#FFFFFF" stroke-miterlimit="10" x1="579.1" y1="370" x2="593.6" y2="371.3"/>
	<line fill="none" stroke="#FFFFFF" stroke-miterlimit="10" x1="579.4" y1="366" x2="594" y2="367.1"/>
	<line fill="none" stroke="#FFFFFF" stroke-miterlimit="10" x1="120.6" y1="334" x2="106" y2="332.9"/>
	<line fill="none" stroke="#FFFFFF" stroke-miterlimit="10" x1="120.3" y1="338" x2="105.8" y2="337.2"/>
	<line fill="none" stroke="#FFFFFF" stroke-miterlimit="10" x1="579.7" y1="362" x2="594.2" y2="362.8"/>
	<line fill="none" stroke="#FFFFFF" stroke-miterlimit="10" x1="579.8" y1="358" x2="594.4" y2="358.5"/>
	<line fill="none" stroke="#FFFFFF" stroke-miterlimit="10" x1="120.2" y1="342" x2="105.6" y2="341.5"/>
	<line fill="none" stroke="#FFFFFF" stroke-miterlimit="10" x1="105.5" y1="345.7" x2="120.1" y2="346"/>
	<line fill="none" stroke="#FFFFFF" stroke-miterlimit="10" x1="579.9" y1="354" x2="594.5" y2="354.3"/>
	<line fill="none" stroke="#FFFFFF" stroke-miterlimit="10" x1="350" y1="580" x2="350" y2="594.6"/>
	<line fill="none" stroke="#FFFFFF" stroke-miterlimit="10" x1="120" y1="350" x2="105.4" y2="350"/>
	<line fill="none" stroke="#FFFFFF" stroke-miterlimit="10" x1="580" y1="350" x2="594.6" y2="350"/>
</g>
<g id="Layer_5">
</g>
<g id="Layer_3">
	<g>
		<path fill="#FFFFFF" d="M346.9,556.4c0-2.9,1.1-4.6,3.1-4.5c1.7,0,2.8,1.6,2.8,4.5c0,2.9-1.3,4.5-3.1,4.5
			C347.9,560.8,346.9,559.2,346.9,556.4z M351.6,556.3c0-2.2-0.7-3.5-1.7-3.5c-1.2,0-1.8,1.4-1.8,3.6c0,2.1,0.5,3.5,1.7,3.5
			C350.9,559.9,351.6,558.7,351.6,556.3z"/>
	</g>
	<g>
		<path fill="#FFFFFF" d="M394,548.6c-0.4-0.1-1.2-0.3-2-0.2c-1.5,0.3-1.7,1.3-1.6,2c0.2,1.2,1.4,1.5,2.5,1.3l0.6-0.1l0.2,0.9
			l-0.6,0.1c-0.8,0.2-1.8,0.8-1.6,1.8c0.1,0.7,0.7,1.2,1.7,1c0.7-0.1,1.3-0.6,1.6-0.9l0.5,0.8c-0.4,0.4-1.2,0.9-2.1,1.1
			c-1.7,0.3-2.6-0.5-2.8-1.5c-0.2-0.9,0.2-1.7,1.2-2.3l0,0c-1.1,0-2.1-0.6-2.3-1.8c-0.3-1.4,0.6-2.8,2.6-3.2c1-0.2,1.8-0.1,2.3,0.1
			L394,548.6z"/>
		<path fill="#FFFFFF" d="M383.8,557.1l3.2-0.6l-0.1-2.2c-0.2,0.1-0.4,0.1-0.7,0.2c-0.7,0.1-1.3,0.1-1.9-0.1
			c-0.7-0.2-1.4-0.9-1.6-1.9c-0.3-1.7,0.7-3.2,2.6-3.5c0.9-0.2,1.8-0.1,2.2,0.1l-0.1,0.9c-0.4-0.1-1.1-0.3-1.9-0.1
			c-1.1,0.2-1.9,1.1-1.6,2.2c0.2,1.1,1.1,1.7,2.8,1.4c0.5-0.1,0.9-0.2,1.2-0.3l0.3,4.2l-4.1,0.8L383.8,557.1z"/>
		<path fill="#FFFFFF" d="M375.9,555.3c-0.6-2.9,0.2-4.7,2.1-5.1c1.7-0.3,3.1,1,3.7,3.8c0.6,2.8-0.4,4.7-2.1,5
			C377.7,559.4,376.4,558,375.9,555.3z M380.4,554.3c-0.4-2.2-1.4-3.3-2.4-3.1c-1.2,0.2-1.5,1.7-1,3.9c0.4,2.1,1.2,3.4,2.4,3.1
			C380.4,558,380.9,556.6,380.4,554.3z"/>
	</g>
	<g>
		<path fill="#FFFFFF" d="M427.9,538c-0.4-0.1-1.2-0.1-2,0.2c-1.4,0.5-1.5,1.6-1.2,2.3c0.4,1.1,1.7,1.2,2.7,0.8l0.6-0.2l0.3,0.8
			l-0.6,0.2c-0.8,0.3-1.6,1.1-1.3,2.1c0.3,0.6,0.9,1.1,1.9,0.7c0.6-0.2,1.2-0.8,1.4-1.2l0.6,0.7c-0.3,0.5-1,1.1-1.9,1.4
			c-1.6,0.6-2.7-0.1-3.1-1c-0.3-0.8-0.1-1.7,0.8-2.5l0,0c-1.1,0.2-2.2-0.2-2.6-1.4c-0.5-1.3,0.1-2.8,2-3.6c0.9-0.4,1.8-0.4,2.3-0.3
			L427.9,538z"/>
		<path fill="#FFFFFF" d="M417.9,540.4l0.8,2.2l3.7-1.4l0.3,0.7l-1.6,6.5l-1.2,0.5l-1.9-5l-1.1,0.4l-0.3-0.9l1.1-0.4l-0.8-2.2
			L417.9,540.4z M419.1,543.4l1,2.7c0.2,0.4,0.3,0.8,0.5,1.3l0,0c0.1-0.6,0.1-1,0.2-1.5l0.9-3.5l0,0L419.1,543.4z"/>
		<path fill="#FFFFFF" d="M411.2,547.7c-1.1-2.7-0.6-4.7,1.2-5.3c1.6-0.6,3.2,0.5,4.3,3.1c1,2.7,0.5,4.6-1.2,5.3
			C413.7,551.4,412.2,550.3,411.2,547.7z M415.5,545.9c-0.8-2.1-1.9-3-2.9-2.7c-1.1,0.4-1.1,1.9-0.4,4c0.8,2,1.8,3.1,2.9,2.7
			C416.1,549.5,416.3,548.1,415.5,545.9z"/>
	</g>
	<g>
		<path fill="#FFFFFF" d="M459,521.9c-0.4,0-1.2,0.1-1.9,0.5c-1.3,0.8-1.2,1.8-0.8,2.4c0.6,1,1.8,0.9,2.8,0.3l0.6-0.3l0.5,0.8
			l-0.6,0.3c-0.7,0.4-1.4,1.4-0.9,2.2c0.4,0.6,1,0.9,2,0.3c0.6-0.4,1-1,1.2-1.4l0.7,0.6c-0.2,0.5-0.8,1.3-1.6,1.7
			c-1.5,0.9-2.6,0.4-3.2-0.5c-0.5-0.8-0.4-1.7,0.3-2.6l0,0c-1,0.4-2.2,0.1-2.8-0.9c-0.7-1.2-0.4-2.8,1.4-3.8
			c0.8-0.5,1.7-0.7,2.2-0.7L459,521.9z"/>
		<path fill="#FFFFFF" d="M453.2,525.4c-0.4,0-1.2,0.1-1.9,0.5c-1.3,0.8-1.2,1.8-0.8,2.4c0.6,1,1.8,0.9,2.8,0.3l0.6-0.3l0.5,0.8
			l-0.6,0.3c-0.7,0.4-1.4,1.4-0.9,2.2c0.4,0.6,1,0.9,2,0.3c0.6-0.4,1-1,1.2-1.4l0.7,0.6c-0.2,0.5-0.8,1.3-1.6,1.7
			c-1.5,0.9-2.6,0.4-3.2-0.5c-0.5-0.8-0.4-1.7,0.3-2.6l0,0c-1,0.4-2.2,0.1-2.8-0.9c-0.7-1.2-0.4-2.8,1.4-3.8
			c0.8-0.5,1.7-0.7,2.2-0.7L453.2,525.4z"/>
		<path fill="#FFFFFF" d="M444.2,534.3c-1.5-2.5-1.4-4.5,0.2-5.5c1.5-0.9,3.2-0.1,4.7,2.3c1.5,2.5,1.2,4.5-0.3,5.4
			C447.3,537.6,445.6,536.7,444.2,534.3z M448.2,531.8c-1.2-1.9-2.4-2.7-3.3-2.1c-1,0.6-0.8,2.1,0.3,4c1.1,1.8,2.3,2.7,3.3,2.1
			C449.4,535.3,449.4,533.8,448.2,531.8z"/>
	</g>
	<g>
		<path fill="#FFFFFF" d="M487.2,500.5c-0.4,0.1-1.2,0.3-1.8,0.8c-1.1,1-0.9,2-0.4,2.5c0.8,0.9,2,0.6,2.8-0.2l0.5-0.4l0.6,0.7
			l-0.5,0.4c-0.6,0.6-1.2,1.6-0.5,2.4c0.5,0.5,1.2,0.7,2,0c0.5-0.5,0.8-1.1,0.9-1.6l0.8,0.4c-0.1,0.5-0.6,1.4-1.3,2
			c-1.3,1.1-2.5,0.9-3.2,0.1c-0.6-0.7-0.7-1.6-0.1-2.6l0,0c-0.9,0.5-2.1,0.5-2.9-0.4c-0.9-1-0.9-2.7,0.7-4c0.7-0.6,1.6-1,2.1-1
			L487.2,500.5z"/>
		<path fill="#FFFFFF" d="M481.3,503.8l0.5,0.5l-0.1,1.3c-0.3,3-0.3,4.5,0.5,5.5c0.6,0.7,1.4,1,2.4,0.2c0.6-0.5,0.8-1.2,0.9-1.8
			l0.8,0.4c-0.1,0.8-0.5,1.6-1.3,2.3c-1.4,1.2-2.8,0.8-3.6-0.2c-1-1.2-1-2.9-0.8-5.5l0.1-0.9l0,0l-2.9,2.5l-0.6-0.7L481.3,503.8z"/>
		<path fill="#FFFFFF" d="M474.7,515.3c-1.9-2.2-2.2-4.2-0.7-5.4c1.3-1.1,3.2-0.7,5.1,1.5c1.9,2.2,2,4.2,0.7,5.4
			C478.3,518,476.5,517.4,474.7,515.3z M478.2,512.2c-1.5-1.7-2.8-2.2-3.6-1.5c-0.9,0.8-0.4,2.2,1,3.9c1.4,1.6,2.7,2.3,3.6,1.5
			C480,515.4,479.7,513.9,478.2,512.2z"/>
	</g>
	<g>
		<path fill="#FFFFFF" d="M511.5,474.2c-0.4,0.1-1.1,0.5-1.6,1.1c-0.9,1.2-0.5,2.1,0.1,2.6c0.9,0.8,2,0.2,2.8-0.6l0.4-0.5l0.7,0.6
			l-0.4,0.5c-0.5,0.7-0.9,1.8-0.1,2.4c0.5,0.4,1.3,0.5,2-0.4c0.4-0.5,0.6-1.2,0.6-1.7l0.9,0.3c0,0.6-0.3,1.5-0.9,2.2
			c-1.1,1.3-2.3,1.3-3.2,0.6c-0.7-0.6-0.9-1.5-0.6-2.5l0,0c-0.8,0.7-2,0.9-2.9,0.1c-1.1-0.9-1.3-2.5,0-4.1c0.6-0.8,1.4-1.2,1.9-1.4
			L511.5,474.2z"/>
		<path fill="#FFFFFF" d="M510.6,485.1L510.6,485.1l0.3-1.7l0.8,0.4l-0.4,2.1l-0.6,0.8l-6.7-5.5l0.7-0.9L510.6,485.1z"/>
		<path fill="#FFFFFF" d="M501.9,491c-2.3-1.9-2.9-3.7-1.6-5.2c1.1-1.3,3-1.2,5.3,0.6c2.3,1.8,2.7,3.8,1.6,5.2
			C505.9,492.9,504,492.7,501.9,491z M504.7,487.2c-1.7-1.4-3.2-1.7-3.8-0.9c-0.8,0.9,0,2.3,1.7,3.6c1.7,1.3,3.1,1.8,3.8,0.9
			C507.1,490.1,506.6,488.7,504.7,487.2z"/>
	</g>
	<g>
		<path fill="#FFFFFF" d="M531,443.9c-0.3,0.2-1,0.7-1.4,1.4c-0.7,1.3-0.1,2.2,0.5,2.5c1.1,0.6,2-0.1,2.6-1.1l0.3-0.6l0.8,0.4
			l-0.3,0.6c-0.4,0.7-0.6,1.9,0.3,2.4c0.6,0.3,1.4,0.2,1.9-0.7c0.3-0.6,0.4-1.3,0.3-1.8l0.9,0.1c0.1,0.6-0.1,1.5-0.5,2.3
			c-0.8,1.5-2.1,1.7-3,1.2c-0.8-0.4-1.2-1.3-1-2.4l0,0c-0.7,0.8-1.8,1.2-2.9,0.6c-1.2-0.7-1.7-2.2-0.7-4c0.5-0.8,1.2-1.4,1.6-1.7
			L531,443.9z"/>
		<path fill="#FFFFFF" d="M527.7,456.2c-2.6-1.4-3.5-3.2-2.5-4.8c0.8-1.5,2.8-1.7,5.3-0.3c2.5,1.4,3.3,3.3,2.5,4.8
			C532,457.4,530.1,457.5,527.7,456.2z M529.9,452c-2-1.1-3.4-1.1-3.9-0.2c-0.6,1,0.4,2.2,2.3,3.3c1.9,1,3.3,1.2,3.9,0.2
			C532.7,454.4,531.9,453.1,529.9,452z"/>
		<path fill="#FFFFFF" d="M524.4,462.1c-2.6-1.4-3.5-3.2-2.5-4.8c0.8-1.5,2.8-1.7,5.3-0.3c2.5,1.4,3.3,3.3,2.5,4.8
			C528.7,463.4,526.8,463.5,524.4,462.1z M526.6,458c-2-1.1-3.4-1.1-3.9-0.2c-0.6,1,0.4,2.2,2.3,3.3c1.9,1,3.3,1.2,3.9,0.2
			C529.4,460.4,528.6,459.1,526.6,458z"/>
	</g>
	<g>
		<path fill="#FFFFFF" d="M543.3,411l0.7,0.2l0.5,1.2c1.3,2.8,2,4.1,3.2,4.5c0.8,0.3,1.7,0.2,2.2-1.1c0.3-0.7,0.1-1.5-0.1-2l0.9-0.1
			c0.3,0.7,0.4,1.7,0,2.6c-0.6,1.8-2.1,2.1-3.2,1.7c-1.5-0.5-2.3-2-3.4-4.3l-0.4-0.9l0,0l-1.3,3.7l-0.9-0.3L543.3,411z"/>
		<path fill="#FFFFFF" d="M541.7,418.4c-0.1,0.2-0.2,0.5-0.3,0.9c-0.1,0.7-0.1,1.4,0.2,2c0.3,0.7,0.9,1.4,1.8,1.8l0,0
			c-0.4-0.6-0.5-1.4-0.2-2.2c0.5-1.5,1.9-2,3.3-1.5c1.5,0.5,2.5,2.1,1.9,3.8c-0.6,1.7-2.3,2.2-4.4,1.5c-1.8-0.6-2.8-1.7-3.3-2.7
			c-0.4-0.8-0.5-1.8-0.3-2.8c0.1-0.4,0.2-0.8,0.3-1L541.7,418.4z M546.2,420.4c-1-0.4-1.9,0-2.3,1c-0.3,0.7-0.1,1.4,0.3,1.9
			c0.1,0.1,0.2,0.2,0.4,0.2c1.4,0.5,2.6,0.3,3-0.8C548,421.8,547.4,420.8,546.2,420.4z"/>
		<path fill="#FFFFFF" d="M541.1,430.8c-2.8-1-3.9-2.5-3.3-4.3c0.6-1.6,2.4-2.2,5.1-1.2c2.7,1,3.8,2.7,3.3,4.3
			C545.6,431.3,543.7,431.7,541.1,430.8z M542.6,426.3c-2.1-0.7-3.6-0.5-3.9,0.5c-0.4,1.1,0.7,2.1,2.8,2.9c2,0.7,3.5,0.6,3.9-0.5
			C545.7,428.2,544.8,427.1,542.6,426.3z"/>
	</g>
	<g>
		<path fill="#FFFFFF" d="M551.3,375.7l0.7,0.1l0.7,1c1.7,2.5,2.7,3.7,4,3.9c0.9,0.1,1.7-0.2,1.9-1.4c0.1-0.8-0.2-1.5-0.4-1.9
			l0.9-0.2c0.4,0.7,0.6,1.6,0.5,2.6c-0.3,1.8-1.7,2.4-2.9,2.2c-1.6-0.3-2.7-1.6-4.1-3.7l-0.5-0.8l0,0l-0.6,3.8l-1-0.2L551.3,375.7z"
			/>
		<path fill="#FFFFFF" d="M552.4,382.7c1.1,0.2,1.7,0.9,2,2.1l0,0c0.6-0.9,1.4-1.2,2.1-1c1.4,0.2,2.1,1.5,1.9,3
			c-0.3,1.7-1.4,2.3-2.5,2.2c-0.7-0.1-1.4-0.6-1.8-1.7l0,0c-0.6,1-1.4,1.5-2.5,1.4c-1.5-0.2-2.3-1.7-2-3.3
			C549.9,383.4,551.2,382.5,552.4,382.7z M551.8,387.3c1,0.2,1.7-0.5,2.2-1.6c-0.1-1-0.7-1.7-1.5-1.8c-0.9-0.2-1.7,0.4-1.9,1.5
			C550.3,386.4,550.9,387.1,551.8,387.3z M556.5,384.8c-0.9-0.1-1.4,0.4-1.8,1.4c0.1,0.8,0.6,1.4,1.3,1.5c0.7,0.1,1.5-0.2,1.6-1.2
			C557.8,385.5,557.3,384.9,556.5,384.8z"/>
		<path fill="#FFFFFF" d="M552.6,395.5c-2.9-0.5-4.3-1.8-4-3.7c0.3-1.7,2-2.6,4.8-2.1c2.9,0.5,4.2,1.9,4,3.7
			C557.1,395.2,555.4,396,552.6,395.5z M553.2,390.9c-2.2-0.4-3.6,0.1-3.8,1.2c-0.2,1.2,1.1,2,3.3,2.3c2.1,0.3,3.6,0,3.8-1.2
			C556.7,392.2,555.6,391.3,553.2,390.9z"/>
	</g>
	<g>
		<path fill="#FFFFFF" d="M552.9,339.9l0.7,0l0.9,0.9c2.1,2.2,3.3,3.1,4.6,3.1c0.9,0,1.7-0.5,1.7-1.7c0-0.8-0.4-1.4-0.8-1.8l0.8-0.4
			c0.5,0.6,0.9,1.4,0.9,2.4c0,1.9-1.2,2.7-2.5,2.7c-1.6,0-2.9-1.1-4.7-2.9l-0.7-0.7l0,0l0.1,3.9l-1,0L552.9,339.9z"/>
		<path fill="#FFFFFF" d="M561.8,352.2l-0.8,0l-8-3.6l0-1.2l7.7,3.6l0,0l-0.1-4.2l1,0L561.8,352.2z"/>
		<path fill="#FFFFFF" d="M557.7,359.2c-2.9,0.1-4.6-1-4.6-2.9c0-1.7,1.5-2.9,4.4-2.9c2.9-0.1,4.5,1.2,4.6,2.9
			C562,358.1,560.4,359.1,557.7,359.2z M557.5,354.5c-2.2,0-3.5,0.8-3.5,1.8c0,1.2,1.4,1.7,3.6,1.7c2.1,0,3.5-0.6,3.5-1.8
			C561.1,355.2,559.8,354.5,557.5,354.5z"/>
	</g>
	<g>
		<path fill="#FFFFFF" d="M548.4,305.4l0.7-0.1l1,0.7c2.5,1.8,3.8,2.5,5.1,2.3c0.9-0.2,1.6-0.7,1.3-2c-0.1-0.8-0.7-1.3-1.1-1.7
			l0.7-0.5c0.6,0.5,1.1,1.3,1.3,2.2c0.4,1.8-0.8,2.8-2,3.1c-1.6,0.3-3.1-0.6-5.1-2l-0.8-0.6l0,0l0.7,3.8l-1,0.2L548.4,305.4z"/>
		<path fill="#FFFFFF" d="M558.3,315.5c0-0.2-0.1-0.5-0.2-0.9c-0.6-1.7-2.2-2.4-3.6-2.4l0,0c0.6,0.3,1.2,0.9,1.4,1.9
			c0.3,1.5-0.6,2.8-2.2,3.1c-1.6,0.3-3.2-0.5-3.5-2.2c-0.4-1.8,0.8-3.3,3-3.7c1.7-0.3,3.1,0,4.1,0.7c0.8,0.6,1.4,1.4,1.8,2.5
			c0.1,0.3,0.2,0.6,0.2,0.8L558.3,315.5z M553.4,316.1c1.2-0.2,1.8-1.1,1.6-2.1c-0.1-0.7-0.7-1.2-1.4-1.4c-0.1-0.1-0.3-0.1-0.5,0
			c-1.4,0.3-2.3,1.1-2.1,2.3C551.2,315.8,552.1,316.4,553.4,316.1z"/>
		<path fill="#FFFFFF" d="M556.4,323.6c-2.9,0.6-4.7-0.2-5.1-2.1c-0.3-1.7,1-3.1,3.8-3.7c2.8-0.5,4.7,0.4,5,2.1
			C560.5,321.8,559.1,323.1,556.4,323.6z M555.4,319.1c-2.2,0.4-3.3,1.3-3.1,2.4c0.2,1.2,1.7,1.5,3.9,1.1c2.1-0.4,3.4-1.2,3.1-2.4
			C559.1,319.1,557.7,318.6,555.4,319.1z"/>
	</g>
	<g>
		<path fill="#FFFFFF" d="M537.7,271.2l0.7-0.3l1.2,0.5c2.8,1.3,4.2,1.8,5.4,1.4c0.8-0.3,1.4-1,1-2.2c-0.3-0.7-0.9-1.2-1.3-1.4
			l0.6-0.6c0.7,0.4,1.3,1,1.7,2c0.7,1.7-0.2,2.9-1.4,3.4c-1.5,0.6-3.1,0-5.4-1.1l-0.8-0.4l0,0l1.4,3.6l-0.9,0.3L537.7,271.2z"/>
		<path fill="#FFFFFF" d="M549.1,279.6l-1.2-3.1l-2.2,0.5c0.1,0.2,0.2,0.3,0.3,0.6c0.2,0.6,0.3,1.3,0.2,1.9c-0.1,0.8-0.6,1.6-1.6,2
			c-1.6,0.6-3.2-0.2-3.9-1.9c-0.3-0.9-0.4-1.7-0.3-2.2l0.9,0c-0.1,0.4-0.1,1.2,0.2,1.9c0.4,1,1.4,1.7,2.5,1.2c1-0.4,1.5-1.4,0.9-3
			c-0.2-0.5-0.4-0.8-0.5-1.1l4.1-1l1.5,3.9L549.1,279.6z"/>
		<path fill="#FFFFFF" d="M548.8,287.7c-2.7,1.1-4.7,0.6-5.3-1.2c-0.6-1.6,0.5-3.2,3.1-4.3c2.7-1,4.6-0.4,5.3,1.2
			C552.5,285.1,551.3,286.7,548.8,287.7z M546.9,283.3c-2.1,0.8-3,1.9-2.7,2.9c0.4,1.1,1.9,1.1,4,0.4c2-0.8,3.1-1.8,2.7-2.9
			C550.6,282.7,549.1,282.5,546.9,283.3z"/>
	</g>
	<g>
		<path fill="#FFFFFF" d="M521.5,240l0.6-0.4l1.2,0.3c2.9,0.8,4.4,1.1,5.5,0.4c0.8-0.5,1.2-1.2,0.6-2.3c-0.4-0.7-1.1-1-1.6-1.2
			l0.5-0.7c0.7,0.3,1.5,0.8,2,1.6c1,1.6,0.3,2.9-0.8,3.6c-1.4,0.8-3.1,0.5-5.5-0.2l-0.9-0.3l0,0l2,3.3l-0.8,0.5L521.5,240z"/>
		<path fill="#FFFFFF" d="M526.9,248.9l2-1.2l-2.1-3.4l0.7-0.4l6.7,0.5l0.7,1.1l-4.6,2.8l0.6,1l-0.8,0.5l-0.6-1l-2,1.2L526.9,248.9z
			 M529.7,247.3l2.5-1.5c0.4-0.2,0.8-0.5,1.2-0.7l0,0c-0.6,0-1,0-1.5,0l-3.6-0.3l0,0L529.7,247.3z"/>
		<path fill="#FFFFFF" d="M535.3,254.3c-2.5,1.5-4.5,1.4-5.5-0.2c-0.9-1.4-0.1-3.2,2.3-4.7c2.5-1.5,4.5-1.2,5.4,0.3
			C538.5,251.2,537.6,252.9,535.3,254.3z M532.7,250.4c-1.9,1.2-2.7,2.4-2.1,3.3c0.6,1,2.1,0.8,4-0.3c1.8-1.1,2.7-2.3,2.1-3.3
			C536.2,249.2,534.7,249.2,532.7,250.4z"/>
	</g>
	<g>
		<path fill="#FFFFFF" d="M500.4,212.3l0.5-0.5l1.3,0.1c3,0.3,4.5,0.3,5.5-0.5c0.7-0.6,1-1.4,0.2-2.4c-0.5-0.6-1.2-0.8-1.8-0.9
			l0.4-0.8c0.8,0.1,1.6,0.5,2.3,1.3c1.2,1.4,0.8,2.8-0.2,3.6c-1.2,1-2.9,1-5.5,0.8l-0.9-0.1l0,0l2.5,2.9l-0.7,0.6L500.4,212.3z"/>
		<path fill="#FFFFFF" d="M506,216.8c0.1,0.4,0.3,1.2,0.8,1.8c1,1.1,2,0.9,2.5,0.4c0.9-0.8,0.6-2-0.2-2.8l-0.4-0.5l0.7-0.6l0.4,0.5
			c0.6,0.6,1.6,1.2,2.4,0.5c0.5-0.5,0.7-1.2,0-2c-0.5-0.5-1.1-0.8-1.6-0.9l0.4-0.8c0.5,0.1,1.4,0.6,2,1.3c1.1,1.3,0.9,2.5,0.1,3.2
			c-0.7,0.6-1.6,0.7-2.6,0.1l0,0c0.5,0.9,0.5,2.1-0.4,2.9c-1,0.9-2.7,0.9-4-0.7c-0.6-0.7-1-1.6-1-2.1L506,216.8z"/>
		<path fill="#FFFFFF" d="M516.4,224c-2.2,1.9-4.2,2.2-5.4,0.7c-1.1-1.3-0.7-3.2,1.5-5.1c2.2-1.9,4.2-2,5.4-0.7
			C519,220.4,518.5,222.2,516.4,224z M513.2,220.6c-1.7,1.5-2.2,2.8-1.5,3.6c0.8,0.9,2.2,0.4,3.9-1c1.6-1.4,2.3-2.7,1.5-3.6
			C516.4,218.8,515,219,513.2,220.6z"/>
	</g>
	<g>
		<path fill="#FFFFFF" d="M474.1,188l0.5-0.6l1.3-0.1c3-0.2,4.5-0.5,5.4-1.5c0.6-0.7,0.7-1.6-0.3-2.4c-0.6-0.5-1.4-0.6-1.9-0.6
			l0.2-0.9c0.8,0,1.7,0.2,2.5,0.9c1.4,1.2,1.3,2.7,0.5,3.6c-1,1.2-2.7,1.5-5.2,1.7l-0.9,0.1l0,0l3,2.4l-0.6,0.8L474.1,188z"/>
		<path fill="#FFFFFF" d="M479.4,192.3l0.5-0.6l1.3-0.1c3-0.2,4.5-0.5,5.4-1.5c0.6-0.7,0.7-1.6-0.3-2.4c-0.6-0.5-1.4-0.6-1.9-0.6
			l0.2-0.9c0.8,0,1.7,0.2,2.5,0.9c1.4,1.2,1.2,2.7,0.5,3.6c-1,1.2-2.7,1.5-5.2,1.7l-0.9,0.1l0,0l3,2.4l-0.6,0.8L479.4,192.3z"/>
		<path fill="#FFFFFF" d="M491.9,196.8c-1.9,2.3-3.7,2.9-5.2,1.6c-1.3-1.1-1.2-3,0.6-5.3c1.8-2.3,3.8-2.7,5.2-1.6
			C493.9,192.7,493.7,194.6,491.9,196.8z M488.2,193.9c-1.4,1.7-1.7,3.2-0.9,3.8c0.9,0.8,2.3,0,3.6-1.7c1.3-1.7,1.8-3.1,0.9-3.8
			C491,191.6,489.7,192.1,488.2,193.9z"/>
	</g>
	<g>
		<path fill="#FFFFFF" d="M443.4,168.4l0.3-0.6l1.2-0.3c2.9-0.8,4.4-1.3,5-2.4c0.4-0.8,0.4-1.7-0.7-2.3c-0.7-0.4-1.5-0.3-2-0.2
			l0.1-0.9c0.8-0.2,1.7-0.1,2.6,0.4c1.6,0.9,1.7,2.4,1.1,3.5c-0.8,1.4-2.4,2-4.8,2.6l-0.9,0.2l0,0l3.4,1.9l-0.5,0.9L443.4,168.4z"/>
		<path fill="#FFFFFF" d="M455.3,166.3L455.3,166.3l-1.7,0l0.2-0.9l2.1,0l0.9,0.5l-4.2,7.6l-1-0.5L455.3,166.3z"/>
		<path fill="#FFFFFF" d="M462.6,173.9c-1.4,2.6-3.2,3.5-4.8,2.5c-1.5-0.8-1.7-2.8-0.4-5.3c1.4-2.5,3.3-3.3,4.8-2.5
			C463.8,169.6,463.9,171.5,462.6,173.9z M458.4,171.8c-1.1,2-1.1,3.4-0.2,3.9c1,0.6,2.2-0.4,3.3-2.3c1-1.9,1.2-3.4,0.2-3.9
			C460.8,169,459.5,169.7,458.4,171.8z"/>
	</g>
	<g>
		<path fill="#FFFFFF" d="M411,155l0.2-0.7l1.2-0.5c2.8-1.3,4.1-2,4.5-3.2c0.3-0.8,0.1-1.7-1.1-2.2c-0.7-0.3-1.5-0.1-2,0.1l-0.1-0.9
			c0.7-0.3,1.7-0.4,2.6,0c1.8,0.6,2.1,2.1,1.7,3.2c-0.5,1.5-2,2.4-4.3,3.4l-0.9,0.4l0,0l3.7,1.3l-0.3,0.9L411,155z"/>
		<path fill="#FFFFFF" d="M424.3,154.9c-1,2.8-2.5,4-4.3,3.3c-1.6-0.5-2.2-2.4-1.3-5.1c0.9-2.7,2.6-3.8,4.3-3.3
			C424.8,150.4,425.2,152.3,424.3,154.9z M419.8,153.5c-0.7,2.1-0.5,3.6,0.5,3.9c1.1,0.4,2.1-0.7,2.8-2.8c0.7-2,0.6-3.5-0.5-3.9
			C421.7,150.3,420.6,151.3,419.8,153.5z"/>
		<path fill="#FFFFFF" d="M430.8,157.1c-1,2.8-2.5,4-4.3,3.3c-1.6-0.5-2.2-2.4-1.3-5.1c0.9-2.7,2.6-3.8,4.3-3.3
			C431.2,152.6,431.7,154.5,430.8,157.1z M426.3,155.7c-0.7,2.1-0.5,3.6,0.5,3.9c1.1,0.4,2.1-0.7,2.8-2.8c0.7-2,0.6-3.5-0.5-3.9
			C428.2,152.6,427.1,153.5,426.3,155.7z"/>
	</g>
	<g>
		<path fill="#FFFFFF" d="M379,140.1L379,140.1l-1.6,0.6l-0.1-0.9l2-0.7l1,0.1l-1.3,8.6l-1.1-0.2L379,140.1z"/>
		<path fill="#FFFFFF" d="M382.9,147.5c0.2,0.1,0.5,0.1,0.9,0.1c0.7,0,1.4-0.2,1.9-0.6c0.6-0.4,1.2-1.1,1.5-2.1l0,0
			c-0.6,0.5-1.3,0.7-2.2,0.6c-1.5-0.2-2.4-1.5-2.1-3c0.2-1.6,1.6-2.9,3.4-2.6c1.8,0.3,2.6,1.8,2.3,4c-0.3,1.9-1.1,3.1-2.1,3.8
			c-0.8,0.5-1.7,0.8-2.7,0.8c-0.4,0-0.8,0-1.1-0.1L382.9,147.5z M384.1,142.6c-0.2,1.1,0.4,1.9,1.4,2.1c0.8,0.1,1.4-0.2,1.8-0.6
			c0.1-0.1,0.1-0.2,0.2-0.4c0.2-1.5-0.1-2.7-1.4-2.8C385.1,140.7,384.3,141.4,384.1,142.6z"/>
		<path fill="#FFFFFF" d="M395.2,145.7c-0.4,2.9-1.8,4.3-3.7,4.1c-1.7-0.3-2.6-2-2.2-4.8c0.4-2.9,1.9-4.3,3.6-4
			C394.8,141.3,395.6,143,395.2,145.7z M390.6,145.2c-0.3,2.2,0.2,3.6,1.2,3.7c1.2,0.2,2-1.1,2.3-3.3c0.3-2.1,0-3.6-1.2-3.7
			C391.8,141.7,390.9,142.8,390.6,145.2z"/>
	</g>
	<g>
		<path fill="#FFFFFF" d="M343,138.2L343,138.2l-1.5,0.8l-0.2-0.9l1.9-1.1l1,0l0.2,8.6l-1.1,0L343,138.2z"/>
		<path fill="#FFFFFF" d="M347.3,143.5c0-1.1,0.6-1.9,1.7-2.4l0,0c-1-0.4-1.4-1.2-1.4-1.9c0-1.4,1.1-2.3,2.6-2.4
			c1.7,0,2.5,1,2.6,2.1c0,0.7-0.3,1.5-1.4,2.1l0,0c1.1,0.4,1.8,1.1,1.8,2.2c0,1.5-1.2,2.5-2.9,2.6
			C348.4,145.8,347.3,144.7,347.3,143.5z M351.9,143.3c0-1.1-0.8-1.5-1.9-1.8c-1,0.3-1.5,1-1.5,1.8c0,0.9,0.7,1.6,1.8,1.6
			C351.3,144.9,352,144.2,351.9,143.3z M348.6,139.1c0,0.9,0.7,1.3,1.7,1.6c0.7-0.3,1.3-0.8,1.3-1.6c0-0.7-0.4-1.4-1.5-1.4
			C349.1,137.7,348.6,138.3,348.6,139.1z"/>
		<path fill="#FFFFFF" d="M359.9,141c0.1,2.9-1,4.6-2.9,4.6c-1.7,0-2.9-1.5-3-4.4c-0.1-2.9,1.2-4.5,2.9-4.6
			C358.8,136.6,359.9,138.2,359.9,141z M355.2,141.2c0,2.2,0.8,3.5,1.8,3.5c1.2,0,1.7-1.4,1.7-3.6c0-2.1-0.6-3.5-1.8-3.5
			C355.9,137.6,355.2,138.9,355.2,141.2z"/>
	</g>
	<g>
		<path fill="#FFFFFF" d="M305.5,142.8L305.5,142.8l-1.3,1.1l-0.4-0.8l1.7-1.4l1-0.2l1.7,8.5l-1.1,0.2L305.5,142.8z"/>
		<path fill="#FFFFFF" d="M315,139.8l0.2,0.8L313,149l-1.2,0.2l2.2-8.2l0,0l-4.1,0.8l-0.2-1L315,139.8z"/>
		<path fill="#FFFFFF" d="M322.7,142.5c0.6,2.9-0.2,4.7-2,5.1c-1.7,0.3-3.1-1-3.7-3.8c-0.6-2.8,0.3-4.7,2.1-5
			C320.8,138.4,322.1,139.8,322.7,142.5z M318.1,143.6c0.4,2.2,1.4,3.3,2.4,3.1c1.2-0.2,1.5-1.7,1-3.9c-0.4-2.1-1.2-3.3-2.4-3.1
			C318.1,139.9,317.6,141.3,318.1,143.6z"/>
	</g>
	<g>
		<path fill="#FFFFFF" d="M271.4,153.2L271.4,153.2l-1.1,1.3l-0.5-0.7l1.4-1.6l0.9-0.4l3.1,8.1l-1.1,0.4L271.4,153.2z"/>
		<path fill="#FFFFFF" d="M279.9,149.6c-0.2,0.1-0.5,0.2-0.8,0.4c-1.6,0.9-2,2.6-1.7,4l0,0c0.2-0.7,0.7-1.3,1.6-1.7
			c1.4-0.6,2.8,0.1,3.4,1.7c0.6,1.5,0.1,3.2-1.6,3.9c-1.7,0.7-3.4-0.2-4.2-2.3c-0.6-1.6-0.5-3.1,0-4.2c0.4-0.9,1.1-1.7,2.1-2.2
			c0.3-0.2,0.6-0.3,0.8-0.4L279.9,149.6z M281.4,154.4c-0.4-1.2-1.4-1.6-2.4-1.2c-0.7,0.3-1.1,0.9-1.2,1.6c0,0.2,0,0.3,0.1,0.5
			c0.5,1.3,1.5,2.1,2.7,1.6C281.5,156.6,281.8,155.6,281.4,154.4z"/>
		<path fill="#FFFFFF" d="M288.2,150.1c1.1,2.7,0.6,4.7-1.2,5.3c-1.6,0.6-3.2-0.5-4.3-3.1c-1-2.7-0.5-4.6,1.2-5.3
			C285.7,146.4,287.2,147.5,288.2,150.1z M283.9,151.9c0.8,2.1,1.9,3,2.9,2.7c1.1-0.4,1.1-1.9,0.3-4c-0.8-2-1.8-3.1-2.9-2.7
			C283.3,148.2,283.1,149.7,283.9,151.9z"/>
	</g>
	<g>
		<path fill="#FFFFFF" d="M238.4,170L238.4,170l-0.9,1.5l-0.7-0.6l1.1-1.8l0.9-0.5l4.5,7.4l-1,0.6L238.4,170z"/>
		<path fill="#FFFFFF" d="M246.4,165l-2.8,1.7l0.9,2.1c0.2-0.1,0.3-0.2,0.6-0.4c0.6-0.3,1.2-0.6,1.8-0.6c0.8,0,1.6,0.3,2.2,1.3
			c0.9,1.4,0.4,3.2-1.2,4.2c-0.8,0.5-1.6,0.7-2.1,0.7l-0.2-0.9c0.4,0,1.2-0.1,1.8-0.6c0.9-0.6,1.4-1.7,0.8-2.7
			c-0.6-0.9-1.6-1.2-3.1-0.3c-0.4,0.3-0.7,0.5-1,0.7l-1.7-3.8l3.5-2.1L246.4,165z"/>
		<path fill="#FFFFFF" d="M254.4,163.9c1.5,2.5,1.4,4.5-0.2,5.5c-1.4,0.9-3.2,0.1-4.8-2.3c-1.5-2.5-1.3-4.5,0.2-5.4
			C251.3,160.7,253,161.5,254.4,163.9z M250.5,166.4c1.2,1.9,2.4,2.7,3.3,2.1c1-0.6,0.8-2.1-0.4-4c-1.1-1.8-2.3-2.7-3.3-2.1
			C249.2,163,249.3,164.4,250.5,166.4z"/>
	</g>
	<g>
		<path fill="#FFFFFF" d="M207.9,193L207.9,193l-0.6,1.6l-0.8-0.5l0.7-2l0.7-0.7l5.8,6.5l-0.8,0.8L207.9,193z"/>
		<path fill="#FFFFFF" d="M218.8,193.4l-1.6-1.8l-3,2.7l-0.5-0.6l-0.8-6.7l0.9-0.8l3.6,4l0.9-0.8l0.6,0.7l-0.9,0.8l1.6,1.8
			L218.8,193.4z M216.7,191l-1.9-2.2c-0.3-0.3-0.6-0.7-0.9-1l0,0c0.1,0.6,0.2,1,0.3,1.4l0.4,3.6l0,0L216.7,191z"/>
		<path fill="#FFFFFF" d="M222.6,184.2c2,2.2,2.2,4.1,0.8,5.4c-1.3,1.1-3.2,0.7-5.1-1.4c-1.9-2.2-2.1-4.2-0.7-5.4
			C218.9,181.6,220.8,182.1,222.6,184.2z M219.2,187.4c1.5,1.7,2.9,2.2,3.7,1.5c0.9-0.8,0.4-2.2-1.1-3.9c-1.4-1.6-2.8-2.3-3.7-1.5
			C217.3,184.2,217.6,185.6,219.2,187.4z"/>
	</g>
	<g>
		<path fill="#FFFFFF" d="M184,218.7L184,218.7l-0.3,1.7l-0.8-0.4l0.4-2.1l0.6-0.8l6.7,5.4l-0.7,0.9L184,218.7z"/>
		<path fill="#FFFFFF" d="M191.7,219.1c0.4-0.1,1.1-0.5,1.6-1.2c0.9-1.2,0.5-2.1-0.1-2.6c-1-0.7-2-0.2-2.7,0.7l-0.4,0.5l-0.7-0.5
			l0.4-0.5c0.5-0.7,0.9-1.8,0.1-2.4c-0.5-0.4-1.3-0.5-2,0.4c-0.4,0.5-0.6,1.3-0.6,1.7l-0.9-0.3c0-0.6,0.3-1.5,0.9-2.2
			c1.1-1.3,2.3-1.3,3.2-0.6c0.7,0.6,1,1.4,0.6,2.5l0,0c0.8-0.7,2-0.9,2.9-0.1c1.1,0.9,1.3,2.5,0,4.1c-0.6,0.8-1.4,1.2-1.9,1.4
			L191.7,219.1z"/>
		<path fill="#FFFFFF" d="M197,207.6c2.3,1.8,2.9,3.7,1.7,5.2c-1.1,1.3-3,1.2-5.3-0.6c-2.3-1.8-2.7-3.8-1.6-5.2
			C193,205.6,194.9,205.8,197,207.6z M194.2,211.3c1.8,1.4,3.2,1.7,3.8,0.8c0.8-0.9,0-2.3-1.7-3.6c-1.7-1.3-3.1-1.8-3.8-0.8
			C191.8,208.5,192.4,209.8,194.2,211.3z"/>
	</g>
	<g>
		<path fill="#FFFFFF" d="M163.4,250.6L163.4,250.6l0,1.7l-0.9-0.2l0-2.1l0.5-0.9l7.6,4.1l-0.5,1L163.4,250.6z"/>
		<path fill="#FFFFFF" d="M172.1,250.4l-0.6-0.3l-0.3-1.2c-0.8-2.9-1.3-4.4-2.4-5c-0.8-0.4-1.7-0.4-2.3,0.7c-0.4,0.7-0.3,1.5-0.2,2
			l-0.9-0.1c-0.2-0.8-0.1-1.7,0.4-2.6c0.9-1.6,2.4-1.7,3.5-1.1c1.4,0.8,2,2.4,2.7,4.8l0.2,0.9l0,0l1.8-3.4l0.9,0.5L172.1,250.4z"/>
		<path fill="#FFFFFF" d="M174.2,237.3c2.6,1.4,3.5,3.1,2.6,4.8c-0.8,1.5-2.7,1.7-5.3,0.4c-2.6-1.4-3.4-3.2-2.5-4.8
			C169.8,236.1,171.7,236,174.2,237.3z M172,241.5c2,1.1,3.4,1.1,3.9,0.1c0.6-1.1-0.4-2.2-2.3-3.3c-1.9-1-3.4-1.2-3.9-0.1
			C169.2,239.1,170,240.4,172,241.5z"/>
	</g>
	<g>
		<path fill="#FFFFFF" d="M149.1,284.7L149.1,284.7l0.3,1.7l-0.9-0.1l-0.4-2.1l0.3-0.9l8.2,2.7l-0.4,1.1L149.1,284.7z"/>
		<path fill="#FFFFFF" d="M151.2,278.2L151.2,278.2l0.3,1.7l-0.9-0.1l-0.4-2.1l0.3-0.9l8.2,2.7l-0.4,1.1L151.2,278.2z"/>
		<path fill="#FFFFFF" d="M157.4,269.7c2.8,0.9,4,2.5,3.4,4.3c-0.5,1.6-2.4,2.2-5.1,1.3c-2.8-0.9-3.9-2.6-3.3-4.3
			C152.9,269.3,154.8,268.8,157.4,269.7z M156,274.2c2.1,0.7,3.6,0.5,3.9-0.6c0.4-1.1-0.8-2.1-2.9-2.8c-2-0.7-3.5-0.6-3.9,0.6
			C152.8,272.3,153.8,273.4,156,274.2z"/>
	</g>
	<g>
		<path fill="#FFFFFF" d="M141,320.1L141,320.1l0.6,1.6l-0.9,0.1l-0.7-2l0.1-1l8.6,1.3l-0.2,1.1L141,320.1z"/>
		<path fill="#FFFFFF" d="M145.6,310.7c2.9,0.4,4.4,1.8,4.1,3.6c-0.2,1.7-2,2.6-4.8,2.2c-2.9-0.4-4.3-1.9-4-3.6
			C141.1,311.1,142.9,310.3,145.6,310.7z M145.1,315.3c2.2,0.3,3.6-0.2,3.7-1.2c0.2-1.2-1.1-2-3.3-2.3c-2.1-0.3-3.6,0-3.7,1.2
			C141.6,314.1,142.7,315,145.1,315.3z"/>
		<path fill="#FFFFFF" d="M146.6,303.9c2.9,0.4,4.4,1.8,4.1,3.6c-0.2,1.7-2,2.6-4.8,2.2c-2.9-0.4-4.3-1.9-4-3.6
			C142.2,304.3,143.9,303.5,146.6,303.9z M146.1,308.6c2.2,0.3,3.6-0.2,3.7-1.2c0.2-1.2-1.1-2-3.3-2.3c-2.1-0.3-3.6,0-3.7,1.2
			C142.6,307.3,143.7,308.2,146.1,308.6z"/>
	</g>
	<g>
		<path fill="#FFFFFF" d="M145.9,355.2c0-0.3,0-0.5-0.1-0.9c-0.1-0.7-0.4-1.3-0.9-1.8c-0.5-0.6-1.3-1-2.3-1.1v0c0.6,0.5,0.9,1.2,1,2
			c0,1.6-1.1,2.6-2.6,2.6c-1.6,0-3.1-1.2-3.1-2.9c0-1.8,1.4-2.9,3.6-2.9c1.9,0,3.2,0.6,4.1,1.4c0.7,0.7,1.1,1.6,1.2,2.5
			c0.1,0.4,0.1,0.8,0.1,1.1L145.9,355.2z M140.9,354.9c1.1,0,1.8-0.7,1.8-1.7c0-0.8-0.4-1.4-0.9-1.7c-0.1-0.1-0.2-0.1-0.4-0.1
			c-1.5,0-2.6,0.6-2.6,1.8C138.8,354.2,139.7,354.9,140.9,354.9z"/>
		<path fill="#FFFFFF" d="M142.2,343.4c2.9,0,4.6,1,4.6,3c0,1.7-1.6,2.9-4.4,2.9c-2.9,0-4.5-1.2-4.5-3
			C137.8,344.5,139.4,343.4,142.2,343.4z M142.3,348.1c2.2,0,3.5-0.7,3.5-1.8c0-1.2-1.4-1.8-3.6-1.7c-2.1,0-3.5,0.6-3.5,1.8
			C138.7,347.4,140,348.1,142.3,348.1z"/>
	</g>
	<g>
		<path fill="#FFFFFF" d="M148.8,391.4c-1.1,0.2-2-0.3-2.6-1.3l0,0c-0.3,1-0.9,1.6-1.7,1.7c-1.3,0.3-2.5-0.7-2.8-2.2
			c-0.3-1.6,0.6-2.7,1.6-2.9c0.7-0.1,1.6,0.1,2.2,1l0,0c0.2-1.1,0.8-1.9,1.9-2.1c1.5-0.3,2.7,0.8,3,2.4
			C150.9,389.9,150.1,391.1,148.8,391.4z M144.3,390.8c0.9-0.2,1.2-0.9,1.3-1.9c-0.4-0.7-1-1.2-1.8-1c-0.7,0.1-1.3,0.7-1.1,1.7
			C142.8,390.5,143.5,390.9,144.3,390.8z M147.9,386.8c-1,0.2-1.4,1-1.5,2.2c0.5,0.9,1.2,1.4,2,1.2c0.9-0.1,1.5-0.9,1.3-2
			C149.6,387.2,148.8,386.6,147.9,386.8z"/>
		<path fill="#FFFFFF" d="M144.3,379.3c2.9-0.5,4.7,0.2,5,2.1c0.3,1.7-1,3.1-3.8,3.6c-2.9,0.5-4.6-0.4-5-2.1
			C140.2,381.1,141.6,379.8,144.3,379.3z M145.3,383.9c2.2-0.4,3.3-1.3,3.1-2.4c-0.2-1.2-1.7-1.5-3.9-1.1c-2.1,0.4-3.4,1.2-3.1,2.4
			C141.7,383.8,143,384.3,145.3,383.9z"/>
	</g>
	<g>
		<path fill="#FFFFFF" d="M151,421.9l0.7-0.3l8.7,0.8l0.4,1.1l-8.5-0.9l0,0l1.5,4l-0.9,0.3L151,421.9z"/>
		<path fill="#FFFFFF" d="M152.6,413.9c2.8-1,4.7-0.6,5.3,1.2c0.6,1.6-0.5,3.2-3.2,4.2c-2.7,1-4.7,0.4-5.3-1.3
			C148.8,416.4,150,414.9,152.6,413.9z M154.3,418.3c2.1-0.8,3.1-1.9,2.7-2.9c-0.4-1.1-1.9-1.2-4-0.4c-2,0.7-3.1,1.7-2.7,2.9
			C150.7,418.8,152.1,419.1,154.3,418.3z"/>
	</g>
	<g>
		<path fill="#FFFFFF" d="M168.4,456.5c0.1,0.2,0.3,0.5,0.5,0.7c1.2,1.4,2.9,1.6,4.2,1l0,0c-0.7-0.1-1.4-0.5-1.9-1.3
			c-0.8-1.3-0.4-2.8,1.1-3.7c1.4-0.8,3.2-0.6,4.1,0.9c0.9,1.6,0.3,3.4-1.6,4.5c-1.5,0.9-2.9,1-4.1,0.7c-1-0.3-1.8-0.9-2.5-1.7
			c-0.2-0.3-0.4-0.5-0.5-0.7L168.4,456.5z M172.8,454.3c-1.1,0.6-1.3,1.6-0.8,2.5c0.4,0.6,1.1,0.9,1.8,0.9c0.2,0,0.3,0,0.5-0.2
			c1.2-0.7,1.8-1.8,1.2-2.9C175,453.8,173.9,453.6,172.8,454.3z"/>
		<path fill="#FFFFFF" d="M167.4,448.2c2.5-1.5,4.5-1.4,5.5,0.3c0.9,1.5,0.1,3.2-2.4,4.7c-2.5,1.5-4.5,1.2-5.4-0.3
			C164.2,451.4,165,449.6,167.4,448.2z M169.9,452.2c1.9-1.1,2.7-2.4,2.1-3.3c-0.6-1-2.1-0.8-4,0.3c-1.8,1.1-2.8,2.3-2.1,3.3
			C166.4,453.4,167.9,453.4,169.9,452.2z"/>
	</g>
	<g>
		<path fill="#FFFFFF" d="M190,486.3l2.2,2.5l1.9-1.2c-0.1-0.1-0.3-0.3-0.5-0.5c-0.4-0.5-0.8-1.1-0.9-1.7c-0.2-0.8,0-1.7,0.9-2.4
			c1.3-1.1,3.1-0.9,4.3,0.5c0.6,0.7,0.9,1.5,1,2l-0.9,0.4c-0.1-0.4-0.3-1.1-0.8-1.7c-0.7-0.8-1.9-1.1-2.8-0.3
			c-0.8,0.7-1,1.8,0.2,3.1c0.3,0.4,0.6,0.6,0.9,0.8l-3.5,2.3l-2.7-3.1L190,486.3z"/>
		<path fill="#FFFFFF" d="M187.6,478.6c2.2-1.9,4.2-2.2,5.4-0.7c1.1,1.3,0.6,3.2-1.5,5.1c-2.2,1.9-4.2,2-5.4,0.7
			C184.9,482.2,185.5,480.4,187.6,478.6z M190.8,482c1.7-1.5,2.2-2.8,1.5-3.6c-0.8-0.9-2.2-0.4-3.9,1c-1.6,1.4-2.3,2.7-1.5,3.6
			C187.5,483.8,189,483.6,190.8,482z"/>
	</g>
	<g>
		<path fill="#FFFFFF" d="M222.2,507l-1.5,1.8l3.1,2.5l-0.5,0.6l-6.5,1.8l-1-0.8l3.4-4.2l-0.9-0.8l0.6-0.7l0.9,0.8l1.5-1.8
			L222.2,507z M220.2,509.5l-1.8,2.2c-0.3,0.4-0.6,0.7-0.9,1l0,0c0.5-0.2,0.9-0.4,1.4-0.5l3.5-0.9l0,0L220.2,509.5z"/>
		<path fill="#FFFFFF" d="M212.5,504.7c1.9-2.3,3.7-2.8,5.2-1.6c1.3,1.1,1.2,3-0.6,5.3c-1.8,2.2-3.8,2.7-5.2,1.6
			C210.5,508.8,210.8,506.9,212.5,504.7z M216.2,507.6c1.4-1.7,1.7-3.2,0.9-3.8c-0.9-0.8-2.3,0-3.7,1.7c-1.3,1.6-1.8,3.1-0.9,3.8
			C213.4,509.9,214.7,509.4,216.2,507.6z"/>
	</g>
	<g>
		<path fill="#FFFFFF" d="M254.4,529.8c-0.2-0.3-0.7-1-1.4-1.4c-1.3-0.7-2.2-0.1-2.5,0.5c-0.6,1.1,0.1,2,1.1,2.6l0.6,0.3l-0.4,0.8
			l-0.6-0.3c-0.7-0.4-1.9-0.6-2.4,0.3c-0.3,0.6-0.3,1.4,0.7,1.9c0.6,0.3,1.3,0.4,1.8,0.3l-0.1,0.9c-0.6,0.1-1.5-0.1-2.3-0.5
			c-1.5-0.8-1.7-2.1-1.2-3c0.4-0.8,1.3-1.2,2.4-1l0,0c-0.8-0.7-1.2-1.8-0.6-2.9c0.7-1.2,2.2-1.7,4-0.7c0.8,0.5,1.4,1.2,1.7,1.6
			L254.4,529.8z"/>
		<path fill="#FFFFFF" d="M242.2,526.5c1.4-2.6,3.2-3.5,4.8-2.5c1.5,0.8,1.7,2.8,0.3,5.3c-1.4,2.5-3.3,3.3-4.8,2.5
			C241,530.8,240.8,528.9,242.2,526.5z M246.4,528.7c1.1-2,1.1-3.4,0.2-3.9c-1-0.6-2.2,0.4-3.3,2.3c-1,1.9-1.2,3.3-0.2,3.9
			C243.9,531.5,245.2,530.7,246.4,528.7z"/>
	</g>
	<g>
		<path fill="#FFFFFF" d="M286.6,542l-0.2,0.7l-1.2,0.5c-2.8,1.2-4.1,2-4.5,3.2c-0.3,0.8-0.2,1.7,1.1,2.2c0.7,0.3,1.5,0.1,2-0.1
			l0.1,0.9c-0.7,0.3-1.7,0.3-2.6,0c-1.8-0.6-2.1-2.1-1.7-3.3c0.5-1.5,2.1-2.3,4.4-3.4l0.9-0.4l0,0l-3.7-1.3l0.3-0.9L286.6,542z"/>
		<path fill="#FFFFFF" d="M273.3,542c1-2.8,2.6-3.9,4.4-3.3c1.6,0.6,2.1,2.4,1.2,5.1c-1,2.7-2.7,3.8-4.3,3.2
			C272.8,546.4,272.3,544.5,273.3,542z M277.7,543.4c0.8-2.1,0.5-3.6-0.5-3.9c-1.1-0.4-2.1,0.7-2.9,2.8c-0.7,2-0.7,3.5,0.5,3.9
			C275.8,546.5,276.9,545.6,277.7,543.4z"/>
	</g>
	<g>
		<path fill="#FFFFFF" d="M318.1,557.2L318.1,557.2l1.6-0.6l0.1,0.9l-2,0.7l-1-0.2l1.4-8.5l1.1,0.2L318.1,557.2z"/>
		<path fill="#FFFFFF" d="M308.7,552.5c0.5-2.9,1.8-4.3,3.7-4c1.7,0.3,2.5,2,2.1,4.8c-0.5,2.9-2,4.2-3.7,4
			C309,557,308.3,555.2,308.7,552.5z M313.4,553.1c0.4-2.2-0.1-3.6-1.2-3.8c-1.2-0.2-2,1.1-2.3,3.3c-0.3,2.1,0,3.6,1.2,3.8
			C312,556.5,313,555.4,313.4,553.1z"/>
	</g>
</g>
<g id="Layer_4">
	<rect x="334.9" y="113.2" fill="#839E9C" stroke="#FFFFFF" stroke-miterlimit="10" width="30.9" height="474.5"/>
</g>
</svg>
