<?xml version="1.0" encoding="utf-8"?>
<!-- Generator: Adobe Illustrator 16.0.0, SVG Export Plug-In . SVG Version: 6.00 Build 0)  -->
<!DOCTYPE svg PUBLIC "-//W3C//DTD SVG 1.1//EN" "http://www.w3.org/Graphics/SVG/1.1/DTD/svg11.dtd">
<svg version="1.1" id="Layer_1" xmlns="http://www.w3.org/2000/svg" xmlns:xlink="http://www.w3.org/1999/xlink" x="0px" y="0px"
	 width="700px" height="700px" viewBox="0 0 700 700" enable-background="new 0 0 700 700" xml:space="preserve">
<g id="Layer_2">
	<g>
		<g>
			<rect x="-101" y="520.3" fill="#271E14" width="993.3" height="324.8"/>
		</g>
		<g>
			
				<radialGradient id="SVGID_1_" cx="381.0696" cy="333.3945" r="881.5625" gradientTransform="matrix(1 0 0 -1 -0.02 699.0947)" gradientUnits="userSpaceOnUse">
				<stop  offset="0.051" style="stop-color:#B4ACD2"/>
				<stop  offset="1" style="stop-color:#493E74"/>
			</radialGradient>
			<rect x="-101" y="-118.5" fill="url(#SVGID_1_)" width="993.3" height="551.5"/>
		</g>
		<g>
			<g>
				<path fill="none" stroke="#3E2F20" stroke-width="4" stroke-linecap="round" stroke-linejoin="round" stroke-miterlimit="3" d="
					M796.199,531v211.8H396V531 M343.4,531v211.8H-56.9v-3V531"/>
				<path fill="none" stroke="#53412B" stroke-width="4" stroke-linecap="round" stroke-linejoin="round" stroke-miterlimit="3" d="
					M396,531h400.199 M340.8,531h2.6 M-56.9,531h397.6"/>
				
					<polygon fill="none" stroke="#16100C" stroke-width="4" stroke-linecap="round" stroke-linejoin="round" stroke-miterlimit="3" points="
					-56.9,739.8 -59.5,739.8 -59.5,528 340.8,528 340.8,531 340.8,739.8 				"/>
			</g>
		</g>
		<g>
			
				<rect x="393.3" y="528" fill="none" stroke="#16100C" stroke-width="4" stroke-linecap="round" stroke-linejoin="round" stroke-miterlimit="3" width="400.2" height="211.8"/>
		</g>
		<g>
			
				<linearGradient id="SVGID_2_" gradientUnits="userSpaceOnUse" x1="-134.1218" y1="850.7354" x2="188.4031" y2="850.7354" gradientTransform="matrix(3.100535e-006 1 1 0.0051 -718.0204 -127.8168)">
				<stop  offset="0" style="stop-color:#FEFDDF;stop-opacity:0.2588"/>
				<stop  offset="0.9765" style="stop-color:#FEF9D3;stop-opacity:0"/>
			</linearGradient>
			<path fill="url(#SVGID_2_)" d="M243.9-75.3l136,132.7c11.3,17.7-53.6,35.7-194.5,54.2C44.4,130-44.8,122.9-82.1,90.2
				c-37.399-32.8-43.6-58.2-18.6-76c54.9-47.4,86.9-77.4,96.1-89.8C65.5-75.6,148.3-75.5,243.9-75.3z"/>
		</g>
		<g>
			
				<linearGradient id="SVGID_3_" gradientUnits="userSpaceOnUse" x1="-131.7219" y1="1368.8516" x2="190.8023" y2="1368.8516" gradientTransform="matrix(3.100535e-006 1 1 0.0049 -718.0204 -127.6456)">
				<stop  offset="0" style="stop-color:#FEFDDF;stop-opacity:0.2588"/>
				<stop  offset="0.9765" style="stop-color:#FEF9D3;stop-opacity:0"/>
			</linearGradient>
			<path fill="url(#SVGID_3_)" d="M759.699-70.4L892.6,62.4c11.1,17.7-52.3,35.7-190.1,54.2c-138,18.4-225.2,11.2-261.801-21.5
				C404.1,62.3,398.1,37,422.5,19.2c53.6-47.4,85-77.4,94-89.9C585.1-70.7,666.1-70.6,759.699-70.4z"/>
		</g>
		<g>
			
				<linearGradient id="SVGID_4_" gradientUnits="userSpaceOnUse" x1="-100.4797" y1="217.7144" x2="890.5198" y2="217.7144" gradientTransform="matrix(1 0 0 -1 -0.02 699.0947)">
				<stop  offset="0" style="stop-color:#B69354"/>
				<stop  offset="0.0745" style="stop-color:#BE9D5E"/>
				<stop  offset="0.2353" style="stop-color:#B1853D"/>
				<stop  offset="0.3804" style="stop-color:#AD7E2F"/>
				<stop  offset="0.5843" style="stop-color:#9E6D19"/>
				<stop  offset="0.7608" style="stop-color:#906215"/>
				<stop  offset="1" style="stop-color:#875A16"/>
				<stop  offset="1" style="stop-color:#D4D4D4"/>
				<stop  offset="1" style="stop-color:#D4D4D4"/>
			</linearGradient>
			<path fill="url(#SVGID_4_)" d="M890.5,415.8v0.2c0,3.5,0,7,0,10.5c0,1.2,0,2.4,0,3.7c0,0.399,0,0.8,0,1.3c0,0.1,0,0.2,0,0.3
				c0,1.101,0,2.101,0,3.2c0,0.1,0,0.3,0,0.5c0,0.1,0,0.3,0,0.4c0,0.1,0,0.199,0,0.399c0,0.3,0,0.601,0,0.8c0,0.101,0,0.301,0,0.5
				c0,0.101,0,0.2,0,0.301c0,0.1,0,0.3,0,0.5c0,0.899,0,1.899,0,2.8c0,0.1,0,0.2,0,0.399c0,0.101,0,0.301,0,0.5
				c0,0.101,0,0.2,0,0.301c0,0.199,0,0.3,0,0.5c0,1.199,0,2.399,0,3.6c0,0.1,0,0.3,0,0.4c0,0.3,0,0.6,0,0.899c0,0.101,0,0.2,0,0.4
				c0,2,0,4,0,6c0,0.2,0,0.3,0,0.5c0,2.6,0,5.1,0,7.8c0,0.1,0,0.2,0,0.3c0,6.1,0,12.2,0,18.3c0,0.2,0,0.3,0,0.4c0,2.6,0,5.1,0,7.7
				c0,0.199,0,0.3,0,0.399c0,0.4,0,0.8,0,1.3c0,0.101,0,0.301,0,0.4c0,0.8,0,1.6,0,2.5c0,0.1,0,0.3,0,0.3c0,0.3,0,0.601,0,0.8
				c0,0.101,0,0.301,0,0.5c0,0.5,0,1.101,0,1.601c0,0.1,0,0.3,0,0.5c0,0.399,0,0.8,0,1.2c0,0.1,0,0.3,0,0.5c0,2.399,0,4.899,0,7.3
				c0,0.1,0,0.3,0,0.3c0,0.4,0,0.9,0,1.3c0,0.101,0,0.3,0,0.5c0,0.4,0,0.8,0,1.2c0,0.1,0,0.3,0,0.4c0,11.199,0,22.399,0,33.699
				c0,0.101,0,0.2,0,0.301c0,0.699,0,1.399,0,2.1c0,0.2,0,0.3,0,0.4c0,0.1,0,0.199,0,0.399c0,0.101,0,0.101,0,0.101h-991V547.1
				c0-0.1,0-0.3,0-0.399c0-0.5,0-1.101,0-1.601c0-0.1,0-0.2,0-0.399c0-0.301,0-0.601,0-0.801c0-0.1,0-0.3,0-0.5c0-0.899,0-1.8,0-2.8
				c0-0.1,0-0.2,0-0.399c0-0.5,0-1.101,0-1.601c0-0.2,0-0.3,0-0.5c0-9.6,0-19.1,0-28.8c0-0.2,0-0.3,0-0.5c0-0.1,0-0.3,0-0.3
				c0-0.2,0-0.3,0-0.5c0-1.9,0-3.8,0-5.7c0-0.1,0-0.2,0-0.3c0-0.2,0-0.3,0-0.5c0-0.101,0-0.2,0-0.3c0-1.101,0-2.2,0-3.301
				c0-0.199,0-0.3,0-0.399c0-0.2,0-0.3,0-0.5c0-5,0-10,0-15c0-0.101,0-0.3,0-0.4c0-0.1,0-0.2,0-0.399c0-0.101,0-0.3,0-0.4
				c0-1.6,0-3.3,0-4.899c0-0.101,0-0.2,0-0.4c0-0.1,0-0.3,0-0.3c0-0.101,0-0.3,0-0.5c0-3.2,0-6.5,0-9.7c0-0.1,0-0.3,0-0.4
				c0-0.1,0-0.3,0-0.399c0-0.601,0-1.3,0-2c0-0.101,0-0.3,0-0.5c0-0.101,0-0.2,0-0.3c0-0.101,0-0.301,0-0.5c0-3,0-5.9,0-8.9
				c0-0.1,0-0.3,0-0.4c0-0.1,0-0.199,0-0.399c0-0.101,0-0.3,0-0.5c0-0.8,0-1.601,0-2.4c0-0.1,0-0.3,0-0.399c0-0.2,0-0.301,0-0.4
				c0-3.3,0-6.5,0-9.7c0-0.2,0-0.3,0-0.5s0-0.3,0-0.3c0-0.2,0-0.3,0-0.5c0-1.2,0-2.5,0-3.7c0-0.1,0-0.3,0-0.3c0-0.8,0-1.7,0-2.5
				c0-0.1,0-0.3,0-0.4c0-0.3,0-0.6,0-0.8s0-0.3,0-0.5c0-1.899,0-3.8,0-5.7c0-0.1,0-0.199,0-0.399c0-0.4,0-0.8,0-1.3
				c0-0.2,0-0.301,0-0.4c0-1.6,0-3.3,0-4.9c74.7,0,149.3,0,223.899,0c0.7,0,1.4,0,2.101,0c61.399,0,122.8,0,184.3,0
				c0.6,0,1.3,0,1.899,0c41.7,0,83.301,0,124.9,0c0.7,0,1.399,0,2,0c8.6,0,17.2,0,25.8,0c0.6,0,1.3,0,2,0c0.6,0,1.3,0,2,0
				c0.6,0,1.3,0,2,0c11.9,0,23.8,0,35.7,0c0.6,0,1.3,0,1.899,0c18.501,0,37.001,0,55.501,0c0.699,0,1.3,0,2,0c7.3,0,14.5,0,21.8,0
				c0.6,0,1.3,0,2,0c29.7,0,59.5,0,89.1,0c0.7,0,1.4,0,2.1,0c35.601,0,71.301,0,107,0c0.7,0,1.301,0,1.9,0c6.6,0,13.3,0,19.9,0
				c0.6,0,1.3,0,2,0c2,0,4,0,5.899,0c0.7,0,1.4,0,2,0c0.7,0,1.301,0,2,0c2,0,4,0,6,0c0.601,0,1.301,0,2,0c1.4,0,2.7,0,4,0
				c0.7,0,1.4,0,2,0C853.5,415.5,872,415.6,890.5,415.8z"/>
		</g>
		<g>
			<rect x="-102.9" y="547" fill="#493A25" width="996.6" height="18.2"/>
		</g>
		<g>
			<line fill="none" x1="-72.3" y1="546.5" x2="840.3" y2="546.5"/>
		</g>
	</g>
</g>
</svg>
