<?xml version="1.0" encoding="utf-8"?>
<!-- Generator: Adobe Illustrator 16.0.0, SVG Export Plug-In . SVG Version: 6.00 Build 0)  -->
<!DOCTYPE svg PUBLIC "-//W3C//DTD SVG 1.1//EN" "http://www.w3.org/Graphics/SVG/1.1/DTD/svg11.dtd">
<svg version="1.1" xmlns="http://www.w3.org/2000/svg" xmlns:xlink="http://www.w3.org/1999/xlink" x="0px" y="0px" width="800px"
	 height="800px" viewBox="0 0 800 800" enable-background="new 0 0 800 800" xml:space="preserve">
<g id="Layer_1">
</g>
<g id="Layer_2">
	<g>
		
			<radialGradient id="SVGID_1_" cx="993.0996" cy="320.3501" r="11.4" gradientTransform="matrix(0.2619 0 0 0.2619 412.2002 392.8997)" gradientUnits="userSpaceOnUse">
			<stop  offset="0" style="stop-color:#FFFFFF"/>
			<stop  offset="0.3804" style="stop-color:#FF5A27"/>
			<stop  offset="1" style="stop-color:#FF3300"/>
		</radialGradient>
		<path fill-rule="evenodd" clip-rule="evenodd" fill="url(#SVGID_1_)" d="M675.6,478.2c0,0.8-0.3,1.5-0.9,2.1
			c-0.6,0.6-1.3,0.9-2.1,0.9c-0.8,0-1.5-0.3-2.1-0.9c-0.6-0.6-0.9-1.3-0.9-2.1c0-0.8,0.3-1.5,0.9-2.1c0.6-0.6,1.3-0.9,2.1-0.9
			c0.8,0,1.5,0.3,2.1,0.9C675.3,476.7,675.6,477.4,675.6,478.2z"/>
		<g>
			<g>
				<linearGradient id="SVGID_2_" gradientUnits="userSpaceOnUse" x1="673.0752" y1="490.2871" x2="673.0752" y2="499.1121">
					<stop  offset="0" style="stop-color:#D07C77"/>
					<stop  offset="0.1804" style="stop-color:#D07C77"/>
					<stop  offset="0.2471" style="stop-color:#5D2117"/>
					<stop  offset="0.9294" style="stop-color:#5D2117"/>
					<stop  offset="1" style="stop-color:#31130D"/>
				</linearGradient>
				<path fill-rule="evenodd" clip-rule="evenodd" fill="url(#SVGID_2_)" d="M669.2,490.2h6.8l1,1.8c-0.3,2.8-0.6,5.1-1,6.8h-6.6
					c0.1-0.8,0.2-3.1,0.4-6.8L669.2,490.2z"/>
				<path fill-rule="evenodd" clip-rule="evenodd" fill="#4B1B13" d="M669.4,498.8l-0.3-0.4v-8.3l0.6,1.8
					C669.6,495.8,669.5,498,669.4,498.8z"/>
			</g>
		</g>
		<g>
			<path fill-rule="evenodd" clip-rule="evenodd" fill="#A0564F" d="M673.8,497.2c0,0.2-0.1,0.3-0.3,0.5v0c-0.1,0.1-0.3,0.1-0.5,0.1
				c-0.2,0-0.3-0.1-0.5-0.2c-0.1-0.1-0.1-0.3-0.1-0.5c0-0.2,0.1-0.4,0.3-0.5c0.1-0.1,0.2-0.2,0.4-0.2c0.2,0,0.4,0.1,0.5,0.2
				C673.8,496.8,673.9,497,673.8,497.2z M673.6,497.2c0-0.2,0-0.3,0-0.4s-0.2-0.1-0.3-0.1c-0.1,0-0.2,0-0.3,0.1
				c-0.1,0.1-0.2,0.2-0.3,0.4c0,0.1,0,0.2,0.1,0.3c0.1,0.1,0.2,0.2,0.3,0.2c0.1,0,0.3-0.1,0.4-0.2
				C673.5,497.4,673.6,497.3,673.6,497.2z"/>
		</g>
	</g>
</g>
</svg>
