<?xml version="1.0" encoding="utf-8"?>
<!-- Generator: Adobe Illustrator 16.0.0, SVG Export Plug-In . SVG Version: 6.00 Build 0)  -->
<!DOCTYPE svg PUBLIC "-//W3C//DTD SVG 1.1//EN" "http://www.w3.org/Graphics/SVG/1.1/DTD/svg11.dtd">
<svg version="1.1" id="Layer_1" xmlns="http://www.w3.org/2000/svg" xmlns:xlink="http://www.w3.org/1999/xlink" x="0px" y="0px"
	 width="800px" height="800px" viewBox="0 0 800 800" enable-background="new 0 0 800 800" xml:space="preserve">
<g>
	<g>
		<g>
			<path fill-rule="evenodd" clip-rule="evenodd" fill="#4B1B13" d="M669.6,489.8c0.1,0.8,0.2,3.1,0.4,6.9l-0.7,1.8v-8.3
				L669.6,489.8z"/>
			
				<linearGradient id="SVGID_1_" gradientUnits="userSpaceOnUse" x1="-499.0864" y1="673.332" x2="-490.2614" y2="673.332" gradientTransform="matrix(1.133145e-004 -1 1 -1.000000e-003 8.592429e-005 1.434796e-005)">
				<stop  offset="0" style="stop-color:#D07C77"/>
				<stop  offset="0.1804" style="stop-color:#D07C77"/>
				<stop  offset="0.2471" style="stop-color:#5D2117"/>
				<stop  offset="0.9294" style="stop-color:#5D2117"/>
				<stop  offset="1" style="stop-color:#31130D"/>
			</linearGradient>
			<path fill-rule="evenodd" clip-rule="evenodd" fill="url(#SVGID_1_)" d="M669.3,498.5l0.7-1.8c-0.2-3.8-0.3-6-0.4-6.9h6.7
				c0.4,1.8,0.7,4.1,1,6.9l-1,1.8H669.3z"/>
		</g>
	</g>
	<g>
		<path fill-rule="evenodd" clip-rule="evenodd" fill="#A0564F" d="M673.5,494.5c-0.1,0.1-0.2,0.2-0.3,0.4c0,0.1,0,0.2,0.1,0.3
			c0.1,0.1,0.2,0.1,0.3,0.1c0.1,0,0.3-0.1,0.4-0.2c0.1-0.1,0.1-0.2,0.1-0.3c0-0.2,0-0.3,0-0.3s-0.2-0.1-0.3-0.1
			C673.6,494.4,673.5,494.4,673.5,494.5z M674.3,494.3c0.1,0.1,0.1,0.3,0.1,0.6c0,0.2-0.1,0.3-0.3,0.4v0.1c-0.1,0.1-0.3,0.1-0.5,0.1
			c-0.2,0-0.3-0.1-0.5-0.2c-0.1-0.1-0.1-0.3-0.1-0.5c0-0.2,0.1-0.4,0.3-0.5c0.1-0.1,0.2-0.2,0.4-0.2
			C673.9,494.2,674.1,494.2,674.3,494.3z"/>
	</g>
</g>
<radialGradient id="SVGID_2_" cx="993.0996" cy="320.3501" r="11.4" gradientTransform="matrix(0.2619 0 0 0.2619 412.2002 392.8997)" gradientUnits="userSpaceOnUse">
	<stop  offset="0" style="stop-color:#FF0606"/>
	<stop  offset="0.4706" style="stop-color:#930000"/>
	<stop  offset="1" style="stop-color:#970000"/>
</radialGradient>
<path fill-rule="evenodd" clip-rule="evenodd" fill="url(#SVGID_2_)" d="M675.6,478.2c0,0.8-0.3,1.5-0.9,2.1
	c-0.6,0.6-1.3,0.9-2.1,0.9c-0.8,0-1.5-0.3-2.1-0.9c-0.6-0.6-0.9-1.3-0.9-2.1c0-0.8,0.3-1.5,0.9-2.1c0.6-0.6,1.3-0.9,2.1-0.9
	c0.8,0,1.5,0.3,2.1,0.9C675.3,476.7,675.6,477.4,675.6,478.2z"/>
</svg>
