<?xml version="1.0" encoding="utf-8"?>
<!-- Generator: Adobe Illustrator 16.0.0, SVG Export Plug-In . SVG Version: 6.00 Build 0)  -->
<!DOCTYPE svg PUBLIC "-//W3C//DTD SVG 1.1//EN" "http://www.w3.org/Graphics/SVG/1.1/DTD/svg11.dtd">
<svg version="1.1" id="Layer_1" xmlns="http://www.w3.org/2000/svg" xmlns:xlink="http://www.w3.org/1999/xlink" x="0px" y="0px"
	 width="125.5px" height="89.2px" viewBox="0 0 125.5 89.2" enable-background="new 0 0 125.5 89.2" xml:space="preserve">
<g>
	<g>
		<g>
			<linearGradient id="SVGID_1_" gradientUnits="userSpaceOnUse" x1="29.248" y1="30.0259" x2="29.3532" y2="54.8509">
				<stop  offset="0" style="stop-color:#1D1F1C"/>
				<stop  offset="7.058824e-002" style="stop-color:#3E4544"/>
				<stop  offset="0.1804" style="stop-color:#485050"/>
				<stop  offset="0.3294" style="stop-color:#CBDAD7"/>
				<stop  offset="0.4784" style="stop-color:#7C8B8E"/>
				<stop  offset="0.7098" style="stop-color:#37423C"/>
				<stop  offset="1" style="stop-color:#212421"/>
			</linearGradient>
			<path fill-rule="evenodd" clip-rule="evenodd" fill="url(#SVGID_1_)" d="M56.1,54.7H3.9c-0.3-0.2-0.5-0.8-0.7-1.8
				C3,52.5,3,51.8,2.9,51.2c-0.3-2.4-0.5-5.4-0.5-8.8c0-3.4,0.1-6.4,0.5-8.9c0.2-1.7,0.5-2.8,0.9-3.3c0,0,0,0,0,0h52.4V54.7z"/>
			<linearGradient id="SVGID_2_" gradientUnits="userSpaceOnUse" x1="29.248" y1="30.0259" x2="29.3532" y2="54.8509">
				<stop  offset="0" style="stop-color:#1D1F1C"/>
				<stop  offset="7.058824e-002" style="stop-color:#3E4544"/>
				<stop  offset="0.1804" style="stop-color:#485050"/>
				<stop  offset="0.3294" style="stop-color:#CBDAD7"/>
				<stop  offset="0.4784" style="stop-color:#7C8B8E"/>
				<stop  offset="0.7098" style="stop-color:#37423C"/>
				<stop  offset="1" style="stop-color:#212421"/>
			</linearGradient>
			<path fill-rule="evenodd" clip-rule="evenodd" fill="url(#SVGID_2_)" d="M56.1,54.7H3.9c-0.3-0.2-0.5-0.8-0.7-1.8
				C3,52.5,3,51.8,2.9,51.2c-0.3-2.4-0.5-5.4-0.5-8.8c0-3.4,0.1-6.4,0.5-8.9c0.2-1.7,0.5-2.8,0.9-3.3c0,0,0,0,0,0h52.4V54.7z"/>
		</g>
		<g>
			<g>
				<g>
					<path fill-rule="evenodd" clip-rule="evenodd" fill-opacity="0.498" d="M10.1,30.3h3.6v24.4h-3.6C9.5,46.7,9.5,38.5,10.1,30.3z
						"/>
					<path fill-rule="evenodd" clip-rule="evenodd" fill-opacity="0.498" d="M10.1,30.3h3.6v24.4h-3.6C9.5,46.7,9.5,38.5,10.1,30.3z
						"/>
				</g>
				<g>
					<linearGradient id="SVGID_3_" gradientUnits="userSpaceOnUse" x1="10.8623" y1="26.5" x2="10.8623" y2="58.2">
						<stop  offset="0" style="stop-color:#1D1F1C"/>
						<stop  offset="4.313726e-002" style="stop-color:#3E4544"/>
						<stop  offset="0.1373" style="stop-color:#FFFFFF"/>
						<stop  offset="0.2431" style="stop-color:#485050"/>
						<stop  offset="0.4196" style="stop-color:#CBDAD7"/>
						<stop  offset="0.5843" style="stop-color:#7C8B8E"/>
						<stop  offset="0.8314" style="stop-color:#212421"/>
					</linearGradient>
					<path fill-rule="evenodd" clip-rule="evenodd" fill="url(#SVGID_3_)" d="M12.9,27v31c-1.1,1-2.1,1-3.3,0
						c-1.1-10.1-1.1-20.4,0-31C10.8,25.7,11.8,25.7,12.9,27z"/>
					<linearGradient id="SVGID_4_" gradientUnits="userSpaceOnUse" x1="10.8623" y1="26.5" x2="10.8623" y2="58.2">
						<stop  offset="0" style="stop-color:#1D1F1C"/>
						<stop  offset="4.313726e-002" style="stop-color:#3E4544"/>
						<stop  offset="0.1373" style="stop-color:#FFFFFF"/>
						<stop  offset="0.2431" style="stop-color:#485050"/>
						<stop  offset="0.4196" style="stop-color:#CBDAD7"/>
						<stop  offset="0.5843" style="stop-color:#7C8B8E"/>
						<stop  offset="0.8314" style="stop-color:#212421"/>
					</linearGradient>
					<path fill-rule="evenodd" clip-rule="evenodd" fill="url(#SVGID_4_)" d="M12.9,27v31c-1.1,1-2.1,1-3.3,0
						c-1.1-10.1-1.1-20.4,0-31C10.8,25.7,11.8,25.7,12.9,27z"/>
				</g>
			</g>
			<g>
				<g>
					<path fill-rule="evenodd" clip-rule="evenodd" fill-opacity="0.498" d="M18.2,30.3h3.5v24.4h-3.5
						C17.5,46.7,17.5,38.5,18.2,30.3z"/>
					<path fill-rule="evenodd" clip-rule="evenodd" fill-opacity="0.498" d="M18.2,30.3h3.5v24.4h-3.5
						C17.5,46.7,17.5,38.5,18.2,30.3z"/>
				</g>
				<g>
					<linearGradient id="SVGID_5_" gradientUnits="userSpaceOnUse" x1="18.9126" y1="26.5" x2="18.9126" y2="58.2">
						<stop  offset="0" style="stop-color:#1D1F1C"/>
						<stop  offset="4.313726e-002" style="stop-color:#3E4544"/>
						<stop  offset="0.1373" style="stop-color:#FFFFFF"/>
						<stop  offset="0.2431" style="stop-color:#485050"/>
						<stop  offset="0.4196" style="stop-color:#CBDAD7"/>
						<stop  offset="0.5843" style="stop-color:#7C8B8E"/>
						<stop  offset="0.8314" style="stop-color:#212421"/>
					</linearGradient>
					<path fill-rule="evenodd" clip-rule="evenodd" fill="url(#SVGID_5_)" d="M21,27v31c-1.1,1-2.2,1-3.3,0c-1.1-10.1-1.1-20.4,0-31
						C18.8,25.7,19.9,25.7,21,27z"/>
					<linearGradient id="SVGID_6_" gradientUnits="userSpaceOnUse" x1="18.9126" y1="26.5" x2="18.9126" y2="58.2">
						<stop  offset="0" style="stop-color:#1D1F1C"/>
						<stop  offset="4.313726e-002" style="stop-color:#3E4544"/>
						<stop  offset="0.1373" style="stop-color:#FFFFFF"/>
						<stop  offset="0.2431" style="stop-color:#485050"/>
						<stop  offset="0.4196" style="stop-color:#CBDAD7"/>
						<stop  offset="0.5843" style="stop-color:#7C8B8E"/>
						<stop  offset="0.8314" style="stop-color:#212421"/>
					</linearGradient>
					<path fill-rule="evenodd" clip-rule="evenodd" fill="url(#SVGID_6_)" d="M21,27v31c-1.1,1-2.2,1-3.3,0c-1.1-10.1-1.1-20.4,0-31
						C18.8,25.7,19.9,25.7,21,27z"/>
				</g>
			</g>
			<g>
				<g>
					<path fill-rule="evenodd" clip-rule="evenodd" fill-opacity="0.498" d="M26.7,30.3h3.5v24.4h-3.5C26,46.7,26,38.5,26.7,30.3z"
						/>
					<path fill-rule="evenodd" clip-rule="evenodd" fill-opacity="0.498" d="M26.7,30.3h3.5v24.4h-3.5C26,46.7,26,38.5,26.7,30.3z"
						/>
				</g>
				<g>
					<linearGradient id="SVGID_7_" gradientUnits="userSpaceOnUse" x1="27.4126" y1="26.5" x2="27.4126" y2="58.2">
						<stop  offset="0" style="stop-color:#1D1F1C"/>
						<stop  offset="4.313726e-002" style="stop-color:#3E4544"/>
						<stop  offset="0.1373" style="stop-color:#FFFFFF"/>
						<stop  offset="0.2431" style="stop-color:#485050"/>
						<stop  offset="0.4196" style="stop-color:#CBDAD7"/>
						<stop  offset="0.5843" style="stop-color:#7C8B8E"/>
						<stop  offset="0.8314" style="stop-color:#212421"/>
					</linearGradient>
					<path fill-rule="evenodd" clip-rule="evenodd" fill="url(#SVGID_7_)" d="M29.5,27v31c-1.1,1-2.2,1-3.3,0
						c-1.1-10.1-1.1-20.4,0-31C27.3,25.7,28.4,25.7,29.5,27z"/>
					<linearGradient id="SVGID_8_" gradientUnits="userSpaceOnUse" x1="27.4126" y1="26.5" x2="27.4126" y2="58.2">
						<stop  offset="0" style="stop-color:#1D1F1C"/>
						<stop  offset="4.313726e-002" style="stop-color:#3E4544"/>
						<stop  offset="0.1373" style="stop-color:#FFFFFF"/>
						<stop  offset="0.2431" style="stop-color:#485050"/>
						<stop  offset="0.4196" style="stop-color:#CBDAD7"/>
						<stop  offset="0.5843" style="stop-color:#7C8B8E"/>
						<stop  offset="0.8314" style="stop-color:#212421"/>
					</linearGradient>
					<path fill-rule="evenodd" clip-rule="evenodd" fill="url(#SVGID_8_)" d="M29.5,27v31c-1.1,1-2.2,1-3.3,0
						c-1.1-10.1-1.1-20.4,0-31C27.3,25.7,28.4,25.7,29.5,27z"/>
				</g>
			</g>
			<g>
				<g>
					<path fill-rule="evenodd" clip-rule="evenodd" fill-opacity="0.498" d="M34.2,30.3h3.5v24.4h-3.5
						C33.5,46.7,33.5,38.5,34.2,30.3z"/>
					<path fill-rule="evenodd" clip-rule="evenodd" fill-opacity="0.498" d="M34.2,30.3h3.5v24.4h-3.5
						C33.5,46.7,33.5,38.5,34.2,30.3z"/>
				</g>
				<g>
					<linearGradient id="SVGID_9_" gradientUnits="userSpaceOnUse" x1="34.9126" y1="26.5" x2="34.9126" y2="58.2">
						<stop  offset="0" style="stop-color:#1D1F1C"/>
						<stop  offset="4.313726e-002" style="stop-color:#3E4544"/>
						<stop  offset="0.1373" style="stop-color:#FFFFFF"/>
						<stop  offset="0.2431" style="stop-color:#485050"/>
						<stop  offset="0.4196" style="stop-color:#CBDAD7"/>
						<stop  offset="0.5843" style="stop-color:#7C8B8E"/>
						<stop  offset="0.8314" style="stop-color:#212421"/>
					</linearGradient>
					<path fill-rule="evenodd" clip-rule="evenodd" fill="url(#SVGID_9_)" d="M37,27v31c-1.1,1-2.2,1-3.3,0c-1.1-10.1-1.1-20.4,0-31
						C34.8,25.7,35.9,25.7,37,27z"/>
					<linearGradient id="SVGID_10_" gradientUnits="userSpaceOnUse" x1="34.9126" y1="26.5" x2="34.9126" y2="58.2">
						<stop  offset="0" style="stop-color:#1D1F1C"/>
						<stop  offset="4.313726e-002" style="stop-color:#3E4544"/>
						<stop  offset="0.1373" style="stop-color:#FFFFFF"/>
						<stop  offset="0.2431" style="stop-color:#485050"/>
						<stop  offset="0.4196" style="stop-color:#CBDAD7"/>
						<stop  offset="0.5843" style="stop-color:#7C8B8E"/>
						<stop  offset="0.8314" style="stop-color:#212421"/>
					</linearGradient>
					<path fill-rule="evenodd" clip-rule="evenodd" fill="url(#SVGID_10_)" d="M37,27v31c-1.1,1-2.2,1-3.3,0
						c-1.1-10.1-1.1-20.4,0-31C34.8,25.7,35.9,25.7,37,27z"/>
				</g>
			</g>
		</g>
	</g>
	<g>
		<linearGradient id="SVGID_11_" gradientUnits="userSpaceOnUse" x1="47.0996" y1="21.1499" x2="47.0996" y2="64.3501">
			<stop  offset="0" style="stop-color:#586C60"/>
			<stop  offset="0.1176" style="stop-color:#6C7878"/>
			<stop  offset="0.3804" style="stop-color:#202C2C"/>
			<stop  offset="0.5882" style="stop-color:#4B5755"/>
			<stop  offset="0.8588" style="stop-color:#161F1E"/>
			<stop  offset="1" style="stop-color:#000000"/>
		</linearGradient>
		<path fill-rule="evenodd" clip-rule="evenodd" fill="url(#SVGID_11_)" d="M65.3,64.3H31.8c-0.7-0.8-1.3-2.8-1.8-6
			c-0.7-4.2-1.1-9.4-1.1-15.4c0-6,0.4-11.2,1.1-15.5c0.7-4.2,1.5-6.3,2.5-6.4h32.8V64.3z"/>
		<linearGradient id="SVGID_12_" gradientUnits="userSpaceOnUse" x1="47.0996" y1="21.1499" x2="47.0996" y2="64.3501">
			<stop  offset="0" style="stop-color:#586C60"/>
			<stop  offset="0.1176" style="stop-color:#6C7878"/>
			<stop  offset="0.3804" style="stop-color:#202C2C"/>
			<stop  offset="0.5882" style="stop-color:#4B5755"/>
			<stop  offset="0.8588" style="stop-color:#161F1E"/>
			<stop  offset="1" style="stop-color:#000000"/>
		</linearGradient>
		<path fill-rule="evenodd" clip-rule="evenodd" fill="url(#SVGID_12_)" d="M65.3,64.3H31.8c-0.7-0.8-1.3-2.8-1.8-6
			c-0.7-4.2-1.1-9.4-1.1-15.4c0-6,0.4-11.2,1.1-15.5c0.7-4.2,1.5-6.3,2.5-6.4h32.8V64.3z"/>
	</g>
	<g>
		<g>
			<path fill-rule="evenodd" clip-rule="evenodd" fill="#5E6A60" d="M116.1,6.5c0.2,0.1,0.5,0.3,0.8,0.5c-0.2-0.1-0.3-0.3-0.5-0.4
				l0.3,0c1.6,1.2,3,5.1,4.1,11.8c1.4,8.1,2,17.8,1.8,29.3c-0.2,11.4-1.2,21.2-2.9,29.3c-1.4,7-3.1,11-4.9,11.9l-0.8,0.2
				c-2.1,0-3.9-4-5.3-12.1c-0.9-5.3-1.5-11.2-1.7-17.9c-0.1-1-0.1-2.1-0.1-3.1c0-2.6,0-5.4,0-8.3c0-0.3,0-0.7,0-1c0-0.4,0-0.7,0-1.1
				c0-1.7,0.1-3.4,0.2-5c0.1-3.2,0.3-6.2,0.6-9c0-0.1,0-0.3,0-0.4c0.3-3.2,0.7-6.2,1.2-9c0.2-1.3,0.4-2.5,0.7-3.7
				c0.1-0.5,0.2-1,0.3-1.5c0.3-1.6,0.7-3.1,1.1-4.3c1.3-4.1,2.6-6.2,4.1-6.4L116.1,6.5z"/>
			<path fill-rule="evenodd" clip-rule="evenodd" fill="#5E6A60" d="M116.1,6.5c0.2,0.1,0.5,0.3,0.8,0.5c-0.2-0.1-0.3-0.3-0.5-0.4
				l0.3,0c1.6,1.2,3,5.1,4.1,11.8c1.4,8.1,2,17.8,1.8,29.3c-0.2,11.4-1.2,21.2-2.9,29.3c-1.4,7-3.1,11-4.9,11.9l-0.8,0.2
				c-2.1,0-3.9-4-5.3-12.1c-0.9-5.3-1.5-11.2-1.7-17.9c-0.1-1-0.1-2.1-0.1-3.1c0-2.6,0-5.4,0-8.3c0-0.3,0-0.7,0-1c0-0.4,0-0.7,0-1.1
				c0-1.7,0.1-3.4,0.2-5c0.1-3.2,0.3-6.2,0.6-9c0-0.1,0-0.3,0-0.4c0.3-3.2,0.7-6.2,1.2-9c0.2-1.3,0.4-2.5,0.7-3.7
				c0.1-0.5,0.2-1,0.3-1.5c0.3-1.6,0.7-3.1,1.1-4.3c1.3-4.1,2.6-6.2,4.1-6.4L116.1,6.5z"/>
			<path fill-rule="evenodd" clip-rule="evenodd" fill="#293835" d="M115.3,6.3c-1.5,0.1-2.9,2.3-4.1,6.4c-0.3-3.9-2.1-6.1-5.3-6.5
				l-48.8-1c1.8-1.5,3.2-2.3,4.2-2.4L109,3.9c2.7,0.5,4.9,1.3,6.7,2.3c0.1,0.1,0.3,0.2,0.6,0.5c0.2,0.1,0.3,0.2,0.5,0.4
				c-0.3-0.2-0.5-0.3-0.8-0.5c-0.3-0.1-0.5-0.2-0.6-0.2C115.4,6.3,115.4,6.3,115.3,6.3z"/>
			<path fill-rule="evenodd" clip-rule="evenodd" fill="#293835" d="M115.3,6.3c-1.5,0.1-2.9,2.3-4.1,6.4c-0.3-3.9-2.1-6.1-5.3-6.5
				l-48.8-1c1.8-1.5,3.2-2.3,4.2-2.4L109,3.9c2.7,0.5,4.9,1.3,6.7,2.3c0.1,0.1,0.3,0.2,0.6,0.5c0.2,0.1,0.3,0.2,0.5,0.4
				c-0.3-0.2-0.5-0.3-0.8-0.5c-0.3-0.1-0.5-0.2-0.6-0.2C115.4,6.3,115.4,6.3,115.3,6.3z"/>
			<linearGradient id="SVGID_13_" gradientUnits="userSpaceOnUse" x1="82.834" y1="5.1499" x2="82.834" y2="16.5499">
				<stop  offset="0" style="stop-color:#121818"/>
				<stop  offset="0.1961" style="stop-color:#121818"/>
				<stop  offset="0.7961" style="stop-color:#455957"/>
				<stop  offset="1" style="stop-color:#1F2825"/>
			</linearGradient>
			<path fill-rule="evenodd" clip-rule="evenodd" fill="url(#SVGID_13_)" d="M111.2,12.6c-0.4,1.2-0.8,2.7-1.1,4.3H54.9l-0.2-0.2
				c0-0.1,0-0.2,0-0.3c-0.4-4.8-0.3-7.8,0.3-8.9c0.6-1.2,1.3-2,2.1-2.5l48.8,1C109.1,6.6,110.9,8.8,111.2,12.6z"/>
			<linearGradient id="SVGID_14_" gradientUnits="userSpaceOnUse" x1="82.834" y1="5.1499" x2="82.834" y2="16.5499">
				<stop  offset="0" style="stop-color:#121818"/>
				<stop  offset="0.1961" style="stop-color:#121818"/>
				<stop  offset="0.7961" style="stop-color:#455957"/>
				<stop  offset="1" style="stop-color:#1F2825"/>
			</linearGradient>
			<path fill-rule="evenodd" clip-rule="evenodd" fill="url(#SVGID_14_)" d="M111.2,12.6c-0.4,1.2-0.8,2.7-1.1,4.3H54.9l-0.2-0.2
				c0-0.1,0-0.2,0-0.3c-0.4-4.8-0.3-7.8,0.3-8.9c0.6-1.2,1.3-2,2.1-2.5l48.8,1C109.1,6.6,110.9,8.8,111.2,12.6z"/>
			<path fill-rule="evenodd" clip-rule="evenodd" fill="#495456" d="M109,22.1H53.5c-0.6-1.8-0.3-3.5,1-5.2h0.4h55.2
				c-0.1,0.5-0.3,1-0.3,1.5C109.5,19.6,109.3,20.9,109,22.1z"/>
			<path fill-rule="evenodd" clip-rule="evenodd" fill="#495456" d="M109,22.1H53.5c-0.6-1.8-0.3-3.5,1-5.2h0.4h55.2
				c-0.1,0.5-0.3,1-0.3,1.5C109.5,19.6,109.3,20.9,109,22.1z"/>
			<path fill-rule="evenodd" clip-rule="evenodd" fill="#1E2628" d="M97.5,40.5c5.8-0.6,9.3-3.6,10.3-9c-0.3,2.8-0.5,5.8-0.6,9
				c-0.1,1.6-0.2,3.3-0.2,5h-1.8c-0.6-3.6-3.1-5.3-7.5-5H97.5z"/>
			<path fill-rule="evenodd" clip-rule="evenodd" fill="#1E2628" d="M97.5,40.5c5.8-0.6,9.3-3.6,10.3-9c-0.3,2.8-0.5,5.8-0.6,9
				c-0.1,1.6-0.2,3.3-0.2,5h-1.8c-0.6-3.6-3.1-5.3-7.5-5H97.5z"/>
			<path fill-rule="evenodd" clip-rule="evenodd" fill="#4C5252" d="M51.6,40.5h45.9h0.2c4.4-0.3,6.9,1.4,7.5,5H51.4
				c0-0.2,0-0.4,0-0.5C50.6,43.5,50.7,42,51.6,40.5z"/>
			<path fill-rule="evenodd" clip-rule="evenodd" fill="#4C5252" d="M51.6,40.5h45.9h0.2c4.4-0.3,6.9,1.4,7.5,5H51.4
				c0-0.2,0-0.4,0-0.5C50.6,43.5,50.7,42,51.6,40.5z"/>
			<linearGradient id="SVGID_15_" gradientUnits="userSpaceOnUse" x1="78.2471" y1="49.1553" x2="78.3267" y2="66.7553">
				<stop  offset="0" style="stop-color:#121818"/>
				<stop  offset="0.1961" style="stop-color:#121818"/>
				<stop  offset="0.7961" style="stop-color:#455957"/>
				<stop  offset="1" style="stop-color:#1F2825"/>
			</linearGradient>
			<path fill-rule="evenodd" clip-rule="evenodd" fill="url(#SVGID_15_)" d="M51.4,45.5h53.9h1.8c0,0.4,0,0.7,0,1.1c0,0.4,0,0.7,0,1
				c0,2.9,0,5.6,0,8.3c0,1.1,0,2.1,0.1,3.1c-1.3,4.1-3,6.6-5,7.6c-0.3,0.1-0.5,0.2-0.9,0.3H51.6c-2.5-5.3-2.7-12.4-0.6-21.4H51.4z"
				/>
			<linearGradient id="SVGID_16_" gradientUnits="userSpaceOnUse" x1="78.2471" y1="49.1553" x2="78.3267" y2="66.7553">
				<stop  offset="0" style="stop-color:#121818"/>
				<stop  offset="0.1961" style="stop-color:#121818"/>
				<stop  offset="0.7961" style="stop-color:#455957"/>
				<stop  offset="1" style="stop-color:#1F2825"/>
			</linearGradient>
			<path fill-rule="evenodd" clip-rule="evenodd" fill="url(#SVGID_16_)" d="M51.4,45.5h53.9h1.8c0,0.4,0,0.7,0,1.1c0,0.4,0,0.7,0,1
				c0,2.9,0,5.6,0,8.3c0,1.1,0,2.1,0.1,3.1c-1.3,4.1-3,6.6-5,7.6c-0.3,0.1-0.5,0.2-0.9,0.3H51.6c-2.5-5.3-2.7-12.4-0.6-21.4H51.4z"
				/>
			<linearGradient id="SVGID_17_" gradientUnits="userSpaceOnUse" x1="79.7959" y1="40.5498" x2="79.7959" y2="22.1499">
				<stop  offset="0" style="stop-color:#121818"/>
				<stop  offset="0.1961" style="stop-color:#121818"/>
				<stop  offset="0.7961" style="stop-color:#455957"/>
				<stop  offset="1" style="stop-color:#1F2825"/>
			</linearGradient>
			<path fill-rule="evenodd" clip-rule="evenodd" fill="url(#SVGID_17_)" d="M97.5,40.5H51.6c-0.8-3.3-1.1-6.4-1.1-9.5
				c0.1-3.1,1.1-6.1,3-8.9H109c-0.5,2.8-0.9,5.8-1.2,9c0,0.1,0,0.3,0,0.4C106.8,37,103.3,40,97.5,40.5z"/>
			<linearGradient id="SVGID_18_" gradientUnits="userSpaceOnUse" x1="79.7959" y1="40.5498" x2="79.7959" y2="22.1499">
				<stop  offset="0" style="stop-color:#121818"/>
				<stop  offset="0.1961" style="stop-color:#121818"/>
				<stop  offset="0.7961" style="stop-color:#455957"/>
				<stop  offset="1" style="stop-color:#1F2825"/>
			</linearGradient>
			<path fill-rule="evenodd" clip-rule="evenodd" fill="url(#SVGID_18_)" d="M97.5,40.5H51.6c-0.8-3.3-1.1-6.4-1.1-9.5
				c0.1-3.1,1.1-6.1,3-8.9H109c-0.5,2.8-0.9,5.8-1.2,9c0,0.1,0,0.3,0,0.4C106.8,37,103.3,40,97.5,40.5z"/>
			<path fill-rule="evenodd" clip-rule="evenodd" fill="#141615" d="M107,59.1c0.2,6.7,0.8,12.6,1.7,17.9c1.4,8.1,3.2,12.1,5.3,12.1
				v0.1l-56.7-0.3c-1.9-1.1-3.4-5.2-4.6-12.4c-0.5-3-0.8-6.2-1-9.5h49.5c0.3-0.1,0.6-0.2,0.9-0.3C104,65.7,105.7,63.2,107,59.1z"/>
			<path fill-rule="evenodd" clip-rule="evenodd" fill="#141615" d="M107,59.1c0.2,6.7,0.8,12.6,1.7,17.9c1.4,8.1,3.2,12.1,5.3,12.1
				v0.1l-56.7-0.3c-1.9-1.1-3.4-5.2-4.6-12.4c-0.5-3-0.8-6.2-1-9.5h49.5c0.3-0.1,0.6-0.2,0.9-0.3C104,65.7,105.7,63.2,107,59.1z"/>
		</g>
	</g>
</g>
</svg>
