<?xml version="1.0" encoding="utf-8"?>
<!-- Generator: Adobe Illustrator 16.0.0, SVG Export Plug-In . SVG Version: 6.00 Build 0)  -->
<!DOCTYPE svg PUBLIC "-//W3C//DTD SVG 1.1//EN" "http://www.w3.org/Graphics/SVG/1.1/DTD/svg11.dtd">
<svg version="1.1" id="Layer_1" xmlns="http://www.w3.org/2000/svg" xmlns:xlink="http://www.w3.org/1999/xlink" x="0px" y="0px"
	 width="378.5px" height="354.1px" viewBox="0 0 378.5 354.1" enable-background="new 0 0 378.5 354.1" xml:space="preserve">
<g>
	<g>
		
			<linearGradient id="SVGID_1_" gradientUnits="userSpaceOnUse" x1="73.5703" y1="-272.9009" x2="625.4774" y2="-272.9009" gradientTransform="matrix(5.653119e-002 0.9984 -0.9832 0.3247 -89.7365 77.3062)">
			<stop  offset="0" style="stop-color:#C3D5C9"/>
			<stop  offset="1" style="stop-color:#5D615B"/>
		</linearGradient>
		<rect fill-rule="evenodd" clip-rule="evenodd" fill="url(#SVGID_1_)" width="378.5" height="354.1"/>
	</g>
	<g>
		<g>
			<linearGradient id="SVGID_2_" gradientUnits="userSpaceOnUse" x1="166.8994" y1="261.6997" x2="207.9004" y2="261.6997">
				<stop  offset="0" style="stop-color:#0F1420"/>
				<stop  offset="0.5098" style="stop-color:#4E5A56"/>
				<stop  offset="1" style="stop-color:#0A1A1F"/>
			</linearGradient>
			<path fill-rule="evenodd" clip-rule="evenodd" fill="url(#SVGID_2_)" d="M207.9,261.7c0,0.8-2,1.5-6,2.1c-4.1,0.5-9,0.7-14.6,0.7
				c-5.6,0-10.5-0.2-14.6-0.7c-3.8-0.6-5.8-1.3-5.9-2.1v-0.2l0.2-0.3c0.6-0.5,2.5-0.9,5.7-1.4c4.1-0.6,9-1,14.6-1
				c5.6,0,10.5,0.3,14.6,1c2.9,0.3,4.7,0.8,5.5,1.4L207.9,261.7z"/>
			<linearGradient id="SVGID_3_" gradientUnits="userSpaceOnUse" x1="157.8623" y1="267.4009" x2="216.9373" y2="267.4009">
				<stop  offset="0" style="stop-color:#0F1420"/>
				<stop  offset="0.5098" style="stop-color:#242829"/>
				<stop  offset="1" style="stop-color:#0A1A1F"/>
			</linearGradient>
			<path fill-rule="evenodd" clip-rule="evenodd" fill="url(#SVGID_3_)" d="M217,269.6c-0.6,0.9-3.5,1.7-8.7,2.5
				c-5.8,0.8-12.8,1.2-21,1.2c-8.2,0-15.2-0.4-20.9-1.2c-5.7-0.8-8.6-1.7-8.7-2.7v0c0-0.6,0.4-1.1,1.2-1.5l7.9-6.3v0.2
				c0.1,0.8,2.1,1.5,5.9,2.1c4.1,0.5,9,0.7,14.6,0.7c5.6,0,10.5-0.2,14.6-0.7c4-0.6,6-1.3,6-2.1l9.1,7.1V269.6z"/>
			<linearGradient id="SVGID_4_" gradientUnits="userSpaceOnUse" x1="157.8623" y1="285.2749" x2="216.9373" y2="285.2749">
				<stop  offset="0" style="stop-color:#0B1817"/>
				<stop  offset="0.4784" style="stop-color:#37423F"/>
				<stop  offset="1" style="stop-color:#0E201E"/>
			</linearGradient>
			<path fill-rule="evenodd" clip-rule="evenodd" fill="url(#SVGID_4_)" d="M213.1,298.4c-1.2,0.3-2.8,0.7-4.8,1.2
				c-5.8,1.1-12.8,1.6-21,1.6c-8.2,0-15.2-0.5-20.9-1.6c-2-0.5-3.7-0.9-5.1-1.4c-2.4-0.7-3.6-1.6-3.6-2.7v-26c0,1,2.9,1.9,8.7,2.7
				c5.8,0.8,12.8,1.2,20.9,1.2c8.2,0,15.2-0.4,21-1.2c5.1-0.8,8-1.6,8.7-2.5v26.2C216.5,296.8,215.2,297.6,213.1,298.4z"/>
			<linearGradient id="SVGID_5_" gradientUnits="userSpaceOnUse" x1="155.8623" y1="326.4751" x2="218.9373" y2="326.4751">
				<stop  offset="0" style="stop-color:#1C2022"/>
				<stop  offset="0.2471" style="stop-color:#35403C"/>
				<stop  offset="1" style="stop-color:#212624"/>
			</linearGradient>
			<path fill-rule="evenodd" clip-rule="evenodd" fill="url(#SVGID_5_)" d="M217,324.8c0,1-3.5,2.1-10.3,3.3
				c-7,1.2-14.4,1.9-22.4,1.9c-8-0.2-14.4-0.8-19.1-1.9c-5-1.2-7.5-2.3-7.5-3.3c0-0.8,1.2-1.4,3.6-1.9h0.3c0,0.5,0.4,0.9,1.2,1.4
				c1.1,0.5,3.2,0.9,6.4,1.4c5,0.9,11.1,1.4,18.2,1.4c7,0,13.1-0.5,18.2-1.4c3.2-0.5,5.4-0.9,6.6-1.4c0.5-0.3,0.8-0.6,0.9-0.9
				c0.2-0.1,0.3-0.3,0.3-0.5C215.8,323.4,217,324,217,324.8z"/>
			<linearGradient id="SVGID_6_" gradientUnits="userSpaceOnUse" x1="157.7998" y1="343.2251" x2="217" y2="343.2251">
				<stop  offset="0" style="stop-color:#131313"/>
				<stop  offset="0.5098" style="stop-color:#394542"/>
				<stop  offset="1" style="stop-color:#010101"/>
			</linearGradient>
			<path fill-rule="evenodd" clip-rule="evenodd" fill="url(#SVGID_6_)" d="M157.8,324.8c0,1,2.5,2.2,7.5,3.3
				c4.7,1.1,11.1,1.7,19.1,1.9c7.9,0,15.4-0.6,22.4-1.9c6.8-1.2,10.2-2.3,10.3-3.3v29.8c0,2-2.9,3.6-8.7,5s-12.8,2-21,2
				c-8.2,0-15.2-0.7-20.9-2c-5.8-1.4-8.7-3-8.7-5V324.8z"/>
			<linearGradient id="SVGID_7_" gradientUnits="userSpaceOnUse" x1="161.5493" y1="312.5747" x2="213.2495" y2="312.5747">
				<stop  offset="0" style="stop-color:#090909"/>
				<stop  offset="0.5098" style="stop-color:#2A302E"/>
				<stop  offset="1" style="stop-color:#040404"/>
			</linearGradient>
			<path fill-rule="evenodd" clip-rule="evenodd" fill="url(#SVGID_7_)" d="M213.1,323.4c-0.1,0.3-0.4,0.6-0.9,0.9
				c-1.2,0.5-3.4,0.9-6.6,1.4c-5.1,0.9-11.2,1.4-18.2,1.4c-7.1,0-13.2-0.5-18.2-1.4c-3.2-0.5-5.3-0.9-6.4-1.4
				c-0.8-0.4-1.2-0.9-1.2-1.4h-0.3v-24.8c1.4,0.5,3.1,0.9,5.1,1.4c5.8,1.1,12.8,1.6,20.9,1.6c8.2,0,15.2-0.5,21-1.6
				c2-0.5,3.6-0.9,4.8-1.2V323.4z"/>
		</g>
	</g>
	<g>
		<g>
			<path fill-rule="evenodd" clip-rule="evenodd" fill="#242B2D" d="M188.5,294.4c-0.9,0-1.9,0.1-2.8,0.1c-0.9,0-1.9,0-2.8,0
				c-29.5,0-54.7-10.4-75.6-31.3c-8.9-8.8-15.9-18.5-21-28.9c-6.9-14.2-10.4-29.8-10.4-46.8s3.5-32.6,10.4-46.8
				c5.1-10.4,12.1-20,21-28.9c20.9-20.9,46.1-31.3,75.6-31.3c1,0,1.9,0,2.8,0c0.9,0,1.9,0.1,2.8,0.1c27.1,1.3,50.5,11.7,70,31.2
				c0.9,0.9,1.8,1.9,2.8,2.8c19.1,20.3,28.6,44.6,28.6,72.8c0,27.7-9.2,51.6-27.5,71.7c-1.2,1.3-2.5,2.6-3.8,4
				C238.9,282.8,215.6,293.2,188.5,294.4z M234.5,135.9c-14.3-14.3-31.5-21.4-51.7-21.4c-20.2,0-37.4,7.1-51.7,21.4
				c-14.3,14.3-21.5,31.5-21.5,51.7s7.1,37.5,21.5,51.8c14.3,14.3,31.5,21.4,51.7,21.4c20.2,0,37.4-7.1,51.7-21.4
				c14.3-14.3,21.5-31.5,21.5-51.8S248.8,150.1,234.5,135.9z"/>
			<path fill-rule="evenodd" clip-rule="evenodd" fill="#151616" d="M188.5,294.4c27.1-1.3,50.5-11.7,70-31.2c1.3-1.3,2.6-2.6,3.8-4
				c18.4-20.1,27.5-44,27.5-71.7c0-28.2-9.5-52.5-28.6-72.8c-0.9-0.9-1.8-1.9-2.8-2.8c-19.5-19.5-42.9-29.9-70-31.2v-0.1
				c28.1,0,52.3,9.5,72.6,28.4c0,0.1,0.1,0.1,0.1,0.1v0c1,0.9,1.9,1.8,2.9,2.8c20.9,20.9,31.4,46.1,31.4,75.7
				c0,29-10.1,53.8-30.2,74.5c-0.4,0.4-0.8,0.8-1.2,1.2c-1,1-1.9,1.9-2.9,2.8v0c0,0-0.1,0-0.1,0c-20.3,18.9-44.5,28.4-72.6,28.4
				V294.4z"/>
			<linearGradient id="SVGID_8_" gradientUnits="userSpaceOnUse" x1="116.478" y1="156.9331" x2="249.103" y2="218.2081">
				<stop  offset="0" style="stop-color:#141817"/>
				<stop  offset="0.3882" style="stop-color:#273435"/>
				<stop  offset="0.5176" style="stop-color:#7C8B8E"/>
				<stop  offset="0.7176" style="stop-color:#191F1D"/>
				<stop  offset="1" style="stop-color:#171B1C"/>
			</linearGradient>
			<path fill-rule="evenodd" clip-rule="evenodd" fill="url(#SVGID_8_)" d="M186.5,241.1c13.2-0.8,24.6-6,34.2-15.6
				c10.5-10.5,15.7-23.1,15.7-37.9s-5.2-27.4-15.7-37.9c-9.6-9.6-21-14.8-34.2-15.6c-1.2-0.1-2.4-0.1-3.7-0.1
				c-14.8,0-27.4,5.2-37.9,15.7c-10.4,10.5-15.6,23.1-15.6,37.9s5.2,27.4,15.6,37.9c10.5,10.5,23.1,15.7,37.9,15.7
				C184.1,241.2,185.3,241.2,186.5,241.1z M234.5,135.9c14.3,14.3,21.5,31.5,21.5,51.7s-7.2,37.5-21.5,51.8
				c-14.3,14.3-31.5,21.4-51.7,21.4c-20.2,0-37.4-7.1-51.7-21.4c-14.3-14.3-21.5-31.5-21.5-51.8s7.1-37.4,21.5-51.7
				c14.3-14.3,31.5-21.4,51.7-21.4C203,114.4,220.2,121.6,234.5,135.9z"/>
			<linearGradient id="SVGID_9_" gradientUnits="userSpaceOnUse" x1="158.1836" y1="166.7813" x2="195.7726" y2="266.9854">
				<stop  offset="0" style="stop-color:#141817"/>
				<stop  offset="0.3922" style="stop-color:#7C8B8E"/>
				<stop  offset="0.6392" style="stop-color:#333B3B"/>
				<stop  offset="1" style="stop-color:#303637"/>
			</linearGradient>
			<path fill-rule="evenodd" clip-rule="evenodd" fill="url(#SVGID_9_)" d="M186.5,134.1c-13.2,0.8-24.6,6-34.2,15.6
				c-10.5,10.5-15.7,23.1-15.7,37.9s5.2,27.4,15.7,37.9c9.6,9.6,21,14.8,34.2,15.6c-1.2,0.1-2.4,0.1-3.7,0.1
				c-14.8,0-27.4-5.2-37.9-15.7c-10.4-10.5-15.6-23.1-15.6-37.9s5.2-27.4,15.6-37.9c10.5-10.5,23.1-15.7,37.9-15.7
				C184.1,134,185.3,134,186.5,134.1z"/>
			<path fill-rule="evenodd" clip-rule="evenodd" fill="#829488" d="M186.5,241.1c-13.2-0.8-24.6-6-34.2-15.6
				c-10.5-10.5-15.7-23.1-15.7-37.9s5.2-27.4,15.7-37.9c9.6-9.6,21-14.8,34.2-15.6c13.2,0.8,24.6,6,34.2,15.6
				c10.5,10.5,15.7,23.1,15.7,37.9s-5.2,27.4-15.7,37.9C211.1,235.1,199.7,240.3,186.5,241.1z"/>
		</g>
	</g>
</g>
<line fill="none" stroke="#FFFFFF" stroke-width="0.5" stroke-miterlimit="10" x1="183.1" y1="114.5" x2="183.1" y2="97"/>
<line fill="none" stroke="#FFFFFF" stroke-width="0.5" stroke-miterlimit="10" x1="183.1" y1="277.8" x2="183.1" y2="262.5"/>
<line fill="none" stroke="#FFFFFF" stroke-width="0.5" stroke-miterlimit="10" x1="198.7" y1="98.2" x2="195.6" y2="115.6"/>
<line fill="none" stroke="#FFFFFF" stroke-width="0.5" stroke-miterlimit="10" x1="169.9" y1="261.4" x2="167.3" y2="276.2"/>
<line fill="none" stroke="#FFFFFF" stroke-width="0.5" stroke-miterlimit="10" x1="207.7" y1="118.8" x2="213.8" y2="102.1"/>
<line fill="none" stroke="#FFFFFF" stroke-width="0.5" stroke-miterlimit="10" x1="152" y1="272" x2="157.1" y2="257.9"/>
<line fill="none" stroke="#FFFFFF" stroke-width="0.5" stroke-miterlimit="10" x1="219.1" y1="124" x2="228" y2="108.5"/>
<line fill="none" stroke="#FFFFFF" stroke-width="0.5" stroke-miterlimit="10" x1="145.1" y1="252.2" x2="137.7" y2="265.1"/>
<line fill="none" stroke="#FFFFFF" stroke-width="0.5" stroke-miterlimit="10" x1="229.5" y1="131.1" x2="241" y2="117.4"/>
<line fill="none" stroke="#FFFFFF" stroke-width="0.5" stroke-miterlimit="10" x1="134.4" y1="244.4" x2="124.8" y2="255.8"/>
<line fill="none" stroke="#FFFFFF" stroke-width="0.5" stroke-miterlimit="10" x1="113.8" y1="244.5" x2="125.2" y2="235"/>
<line fill="none" stroke="#FFFFFF" stroke-width="0.5" stroke-miterlimit="10" x1="238.6" y1="139.8" x2="252.3" y2="128.3"/>
<line fill="none" stroke="#FFFFFF" stroke-width="0.5" stroke-miterlimit="10" x1="117.9" y1="224" x2="105" y2="231.5"/>
<line fill="none" stroke="#FFFFFF" stroke-width="0.5" stroke-miterlimit="10" x1="246.1" y1="150" x2="261.5" y2="141.1"/>
<line fill="none" stroke="#FFFFFF" stroke-width="0.5" stroke-miterlimit="10" x1="268.4" y1="155.3" x2="251.7" y2="161.4"/>
<line fill="none" stroke="#FFFFFF" stroke-width="0.5" stroke-miterlimit="10" x1="98.5" y1="217.2" x2="112.6" y2="212"/>
<line fill="none" stroke="#FFFFFF" stroke-width="0.5" stroke-miterlimit="10" x1="255.4" y1="173.6" x2="272.7" y2="170.6"/>
<line fill="none" stroke="#FFFFFF" stroke-width="0.5" stroke-miterlimit="10" x1="109.6" y1="199.3" x2="94.7" y2="202"/>
<line fill="none" stroke="#FFFFFF" stroke-width="0.5" stroke-miterlimit="10" x1="108.9" y1="186.4" x2="93.5" y2="186.4"/>
<line fill="none" stroke="#FFFFFF" stroke-width="0.5" stroke-miterlimit="10" x1="273" y1="202.2" x2="256.1" y2="199.2"/>
<line fill="none" stroke="#FFFFFF" stroke-width="0.5" stroke-miterlimit="10" x1="95" y1="170.8" x2="110.3" y2="173.5"/>
<line fill="none" stroke="#FFFFFF" stroke-width="0.5" stroke-miterlimit="10" x1="269" y1="217.7" x2="253.1" y2="211.8"/>
<line fill="none" stroke="#FFFFFF" stroke-width="0.5" stroke-miterlimit="10" x1="99.2" y1="155.8" x2="114" y2="161.2"/>
<line fill="none" stroke="#FFFFFF" stroke-width="0.5" stroke-miterlimit="10" x1="105.9" y1="141.8" x2="119.7" y2="149.8"/>
<line fill="none" stroke="#FFFFFF" stroke-width="0.5" stroke-miterlimit="10" x1="262.4" y1="232.1" x2="247.9" y2="223.8"/>
<line fill="none" stroke="#FFFFFF" stroke-width="0.5" stroke-miterlimit="10" x1="114.8" y1="129.1" x2="127.3" y2="139.6"/>
<line fill="none" stroke="#FFFFFF" stroke-width="0.5" stroke-miterlimit="10" x1="253.3" y1="245.3" x2="240.7" y2="234.7"/>
<line fill="none" stroke="#FFFFFF" stroke-width="0.5" stroke-miterlimit="10" x1="242" y1="256.6" x2="231.6" y2="244.2"/>
<line fill="none" stroke="#FFFFFF" stroke-width="0.5" stroke-miterlimit="10" x1="125.8" y1="118.1" x2="136.5" y2="130.8"/>
<line fill="none" stroke="#FFFFFF" stroke-width="0.5" stroke-miterlimit="10" x1="221" y1="251.9" x2="228.9" y2="265.7"/>
<line fill="none" stroke="#FFFFFF" stroke-width="0.5" stroke-miterlimit="10" x1="146.9" y1="123.7" x2="138.5" y2="109.2"/>
<line fill="none" stroke="#FFFFFF" stroke-width="0.5" stroke-miterlimit="10" x1="158.4" y1="118.6" x2="152.6" y2="102.6"/>
<line fill="none" stroke="#FFFFFF" stroke-width="0.5" stroke-miterlimit="10" x1="209.1" y1="257.7" x2="214.4" y2="272.5"/>
<line fill="none" stroke="#FFFFFF" stroke-width="0.5" stroke-miterlimit="10" x1="199" y1="276.5" x2="196.3" y2="261.3"/>
<line fill="none" stroke="#FFFFFF" stroke-width="0.5" stroke-miterlimit="10" x1="167.6" y1="98.5" x2="170.6" y2="115.5"/>
<line fill="none" stroke="#FFFFFF" stroke-width="0.5" stroke-miterlimit="10" x1="274.2" y1="186.4" x2="256.8" y2="186.4"/>
<line fill="none" stroke="#FFFFFF" stroke-width="0.5" stroke-miterlimit="10" x1="93.5" y1="186.4" x2="108.9" y2="186.4"/>
<line fill="none" stroke="#FFFFFF" stroke-width="0.5" stroke-miterlimit="10" x1="180.5" y1="262.5" x2="180.2" y2="269.4"/>
<line fill="none" stroke="#FFFFFF" stroke-width="0.5" stroke-miterlimit="10" x1="185.9" y1="107.1" x2="185.6" y2="114.5"/>
<line fill="none" stroke="#FFFFFF" stroke-width="0.5" stroke-miterlimit="10" x1="188.1" y1="114.7" x2="188.6" y2="107.2"/>
<line fill="none" stroke="#FFFFFF" stroke-width="0.5" stroke-miterlimit="10" x1="177.3" y1="269.2" x2="177.8" y2="262.3"/>
<line fill="none" stroke="#FFFFFF" stroke-width="0.5" stroke-miterlimit="10" x1="175.1" y1="262.1" x2="174.4" y2="269"/>
<line fill="none" stroke="#FFFFFF" stroke-width="0.5" stroke-miterlimit="10" x1="191.4" y1="107.5" x2="190.6" y2="114.9"/>
<line fill="none" stroke="#FFFFFF" stroke-width="0.5" stroke-miterlimit="10" x1="193.1" y1="115.2" x2="194.2" y2="107.8"/>
<line fill="none" stroke="#FFFFFF" stroke-width="0.5" stroke-miterlimit="10" x1="171.5" y1="268.6" x2="172.5" y2="261.8"/>
<line fill="none" stroke="#FFFFFF" stroke-width="0.5" stroke-miterlimit="10" x1="198.1" y1="116" x2="199.6" y2="108.8"/>
<line fill="none" stroke="#FFFFFF" stroke-width="0.5" stroke-miterlimit="10" x1="165.8" y1="267.6" x2="167.3" y2="260.9"/>
<line fill="none" stroke="#FFFFFF" stroke-width="0.5" stroke-miterlimit="10" x1="164.7" y1="260.3" x2="163" y2="267"/>
<line fill="none" stroke="#FFFFFF" stroke-width="0.5" stroke-miterlimit="10" x1="202.3" y1="109.4" x2="200.5" y2="116.6"/>
<line fill="none" stroke="#FFFFFF" stroke-width="0.5" stroke-miterlimit="10" x1="202.9" y1="117.3" x2="205" y2="110.1"/>
<line fill="none" stroke="#FFFFFF" stroke-width="0.5" stroke-miterlimit="10" x1="162.1" y1="259.6" x2="160.2" y2="266.2"/>
<line fill="none" stroke="#FFFFFF" stroke-width="0.5" stroke-miterlimit="10" x1="205.3" y1="118" x2="207.6" y2="110.9"/>
<line fill="none" stroke="#FFFFFF" stroke-width="0.5" stroke-miterlimit="10" x1="157.4" y1="265.4" x2="159.6" y2="258.8"/>
<line fill="none" stroke="#FFFFFF" stroke-width="0.5" stroke-miterlimit="10" x1="212.9" y1="112.8" x2="210.1" y2="119.7"/>
<line fill="none" stroke="#FFFFFF" stroke-width="0.5" stroke-miterlimit="10" x1="152" y1="263.4" x2="154.6" y2="256.9"/>
<line fill="none" stroke="#FFFFFF" stroke-width="0.5" stroke-miterlimit="10" x1="152.2" y1="255.9" x2="149.4" y2="262.2"/>
<line fill="none" stroke="#FFFFFF" stroke-width="0.5" stroke-miterlimit="10" x1="212.4" y1="120.6" x2="215.4" y2="113.8"/>
<line fill="none" stroke="#FFFFFF" stroke-width="0.5" stroke-miterlimit="10" x1="217.9" y1="115" x2="214.7" y2="121.7"/>
<line fill="none" stroke="#FFFFFF" stroke-width="0.5" stroke-miterlimit="10" x1="149.8" y1="254.7" x2="146.7" y2="261"/>
<line fill="none" stroke="#FFFFFF" stroke-width="0.5" stroke-miterlimit="10" x1="144.2" y1="259.6" x2="147.4" y2="253.5"/>
<line fill="none" stroke="#FFFFFF" stroke-width="0.5" stroke-miterlimit="10" x1="216.9" y1="122.8" x2="220.4" y2="116.2"/>
<line fill="none" stroke="#FFFFFF" stroke-width="0.5" stroke-miterlimit="10" x1="221.3" y1="125.2" x2="225.2" y2="118.9"/>
<line fill="none" stroke="#FFFFFF" stroke-width="0.5" stroke-miterlimit="10" x1="142.9" y1="250.8" x2="139.2" y2="256.7"/>
<line fill="none" stroke="#FFFFFF" stroke-width="0.5" stroke-miterlimit="10" x1="227.6" y1="120.4" x2="223.4" y2="126.6"/>
<line fill="none" stroke="#FFFFFF" stroke-width="0.5" stroke-miterlimit="10" x1="136.8" y1="255.1" x2="140.7" y2="249.3"/>
<line fill="none" stroke="#FFFFFF" stroke-width="0.5" stroke-miterlimit="10" x1="225.5" y1="128" x2="229.9" y2="122"/>
<line fill="none" stroke="#FFFFFF" stroke-width="0.5" stroke-miterlimit="10" x1="138.5" y1="247.8" x2="134.4" y2="253.4"/>
<line fill="none" stroke="#FFFFFF" stroke-width="0.5" stroke-miterlimit="10" x1="232.1" y1="123.7" x2="227.5" y2="129.5"/>
<line fill="none" stroke="#FFFFFF" stroke-width="0.5" stroke-miterlimit="10" x1="132.1" y1="251.6" x2="136.4" y2="246.1"/>
<line fill="none" stroke="#FFFFFF" stroke-width="0.5" stroke-miterlimit="10" x1="231.4" y1="132.7" x2="236.4" y2="127.2"/>
<line fill="none" stroke="#FFFFFF" stroke-width="0.5" stroke-miterlimit="10" x1="132.4" y1="242.7" x2="127.8" y2="247.9"/>
<line fill="none" stroke="#FFFFFF" stroke-width="0.5" stroke-miterlimit="10" x1="238.5" y1="129.1" x2="233.3" y2="134.4"/>
<line fill="none" stroke="#FFFFFF" stroke-width="0.5" stroke-miterlimit="10" x1="125.7" y1="245.9" x2="130.5" y2="240.9"/>
<line fill="none" stroke="#FFFFFF" stroke-width="0.5" stroke-miterlimit="10" x1="235.1" y1="136.1" x2="240.5" y2="131"/>
<line fill="none" stroke="#FFFFFF" stroke-width="0.5" stroke-miterlimit="10" x1="128.7" y1="238.9" x2="123.7" y2="243.8"/>
<line fill="none" stroke="#FFFFFF" stroke-width="0.5" stroke-miterlimit="10" x1="121.7" y1="241.6" x2="126.9" y2="237"/>
<line fill="none" stroke="#FFFFFF" stroke-width="0.5" stroke-miterlimit="10" x1="242.4" y1="133" x2="236.9" y2="138"/>
<line fill="none" stroke="#FFFFFF" stroke-width="0.5" stroke-miterlimit="10" x1="118.1" y1="237.2" x2="123.6" y2="232.9"/>
<line fill="none" stroke="#FFFFFF" stroke-width="0.5" stroke-miterlimit="10" x1="246" y1="137.2" x2="240.2" y2="141.8"/>
<line fill="none" stroke="#FFFFFF" stroke-width="0.5" stroke-miterlimit="10" x1="122" y1="230.7" x2="116.4" y2="234.9"/>
<line fill="none" stroke="#FFFFFF" stroke-width="0.5" stroke-miterlimit="10" x1="241.8" y1="143.7" x2="247.8" y2="139.4"/>
<line fill="none" stroke="#FFFFFF" stroke-width="0.5" stroke-miterlimit="10" x1="249.4" y1="141.7" x2="243.3" y2="145.8"/>
<line fill="none" stroke="#FFFFFF" stroke-width="0.5" stroke-miterlimit="10" x1="114.8" y1="232.5" x2="120.6" y2="228.5"/>
<line fill="none" stroke="#FFFFFF" stroke-width="0.5" stroke-miterlimit="10" x1="119.2" y1="226.3" x2="113.2" y2="230"/>
<line fill="none" stroke="#FFFFFF" stroke-width="0.5" stroke-miterlimit="10" x1="244.7" y1="147.9" x2="250.9" y2="144"/>
<line fill="none" stroke="#FFFFFF" stroke-width="0.5" stroke-miterlimit="10" x1="116.7" y1="221.7" x2="110.5" y2="225"/>
<line fill="none" stroke="#FFFFFF" stroke-width="0.5" stroke-miterlimit="10" x1="247.4" y1="152.2" x2="253.8" y2="148.8"/>
<line fill="none" stroke="#FFFFFF" stroke-width="0.5" stroke-miterlimit="10" x1="109.2" y1="222.4" x2="115.5" y2="219.3"/>
<line fill="none" stroke="#FFFFFF" stroke-width="0.5" stroke-miterlimit="10" x1="255.1" y1="151.2" x2="248.6" y2="154.5"/>
<line fill="none" stroke="#FFFFFF" stroke-width="0.5" stroke-miterlimit="10" x1="114.5" y1="216.9" x2="108" y2="219.8"/>
<line fill="none" stroke="#FFFFFF" stroke-width="0.5" stroke-miterlimit="10" x1="249.7" y1="156.7" x2="256.4" y2="153.7"/>
<line fill="none" stroke="#FFFFFF" stroke-width="0.5" stroke-miterlimit="10" x1="107" y1="217.1" x2="113.5" y2="214.5"/>
<line fill="none" stroke="#FFFFFF" stroke-width="0.5" stroke-miterlimit="10" x1="257.5" y1="156.3" x2="250.8" y2="159"/>
<line fill="none" stroke="#FFFFFF" stroke-width="0.5" stroke-miterlimit="10" x1="259.6" y1="161.5" x2="252.6" y2="163.8"/>
<line fill="none" stroke="#FFFFFF" stroke-width="0.5" stroke-miterlimit="10" x1="105.1" y1="211.7" x2="111.8" y2="209.5"/>
<line fill="none" stroke="#FFFFFF" stroke-width="0.5" stroke-miterlimit="10" x1="111.1" y1="207" x2="104.3" y2="209"/>
<line fill="none" stroke="#FFFFFF" stroke-width="0.5" stroke-miterlimit="10" x1="253.4" y1="166.2" x2="260.5" y2="164.2"/>
<line fill="none" stroke="#FFFFFF" stroke-width="0.5" stroke-miterlimit="10" x1="261.2" y1="166.9" x2="254.1" y2="168.7"/>
<line fill="none" stroke="#FFFFFF" stroke-width="0.5" stroke-miterlimit="10" x1="103.7" y1="206.2" x2="110.5" y2="204.5"/>
<line fill="none" stroke="#FFFFFF" stroke-width="0.5" stroke-miterlimit="10" x1="254.8" y1="171.1" x2="261.9" y2="169.6"/>
<line fill="none" stroke="#FFFFFF" stroke-width="0.5" stroke-miterlimit="10" x1="110" y1="201.9" x2="103.1" y2="203.4"/>
<line fill="none" stroke="#FFFFFF" stroke-width="0.5" stroke-miterlimit="10" x1="109.3" y1="196.8" x2="102.2" y2="197.7"/>
<line fill="none" stroke="#FFFFFF" stroke-width="0.5" stroke-miterlimit="10" x1="255.8" y1="176.2" x2="263" y2="175.1"/>
<line fill="none" stroke="#FFFFFF" stroke-width="0.5" stroke-miterlimit="10" x1="263.4" y1="177.9" x2="256.2" y2="178.7"/>
<line fill="none" stroke="#FFFFFF" stroke-width="0.5" stroke-miterlimit="10" x1="101.9" y1="194.9" x2="109" y2="194.2"/>
<line fill="none" stroke="#FFFFFF" stroke-width="0.5" stroke-miterlimit="10" x1="108.9" y1="191.6" x2="101.7" y2="192.1"/>
<line fill="none" stroke="#FFFFFF" stroke-width="0.5" stroke-miterlimit="10" x1="256.5" y1="181.2" x2="263.7" y2="180.7"/>
<line fill="none" stroke="#FFFFFF" stroke-width="0.5" stroke-miterlimit="10" x1="263.9" y1="183.6" x2="256.7" y2="183.8"/>
<line fill="none" stroke="#FFFFFF" stroke-width="0.5" stroke-miterlimit="10" x1="101.7" y1="189.2" x2="108.8" y2="189"/>
<line fill="none" stroke="#FFFFFF" stroke-width="0.5" stroke-miterlimit="10" x1="264" y1="189.2" x2="256.8" y2="189"/>
<line fill="none" stroke="#FFFFFF" stroke-width="0.5" stroke-miterlimit="10" x1="101.8" y1="183.5" x2="109" y2="183.8"/>
<line fill="none" stroke="#FFFFFF" stroke-width="0.5" stroke-miterlimit="10" x1="264" y1="192" x2="256.8" y2="191.5"/>
<line fill="none" stroke="#FFFFFF" stroke-width="0.5" stroke-miterlimit="10" x1="102" y1="180.7" x2="109.2" y2="181.2"/>
<line fill="none" stroke="#FFFFFF" stroke-width="0.5" stroke-miterlimit="10" x1="263.8" y1="194.9" x2="256.6" y2="194.1"/>
<line fill="none" stroke="#FFFFFF" stroke-width="0.5" stroke-miterlimit="10" x1="102.3" y1="177.9" x2="109.5" y2="178.6"/>
<line fill="none" stroke="#FFFFFF" stroke-width="0.5" stroke-miterlimit="10" x1="102.7" y1="175.1" x2="109.9" y2="176.1"/>
<line fill="none" stroke="#FFFFFF" stroke-width="0.5" stroke-miterlimit="10" x1="263.5" y1="197.7" x2="256.4" y2="196.7"/>
<line fill="none" stroke="#FFFFFF" stroke-width="0.5" stroke-miterlimit="10" x1="103.8" y1="169.5" x2="110.9" y2="171"/>
<line fill="none" stroke="#FFFFFF" stroke-width="0.5" stroke-miterlimit="10" x1="262.6" y1="203.3" x2="255.6" y2="201.8"/>
<line fill="none" stroke="#FFFFFF" stroke-width="0.5" stroke-miterlimit="10" x1="104.5" y1="166.8" x2="111.5" y2="168.5"/>
<line fill="none" stroke="#FFFFFF" stroke-width="0.5" stroke-miterlimit="10" x1="262.1" y1="206.1" x2="255.1" y2="204.3"/>
<line fill="none" stroke="#FFFFFF" stroke-width="0.5" stroke-miterlimit="10" x1="105.3" y1="164.1" x2="112.3" y2="166.1"/>
<line fill="none" stroke="#FFFFFF" stroke-width="0.5" stroke-miterlimit="10" x1="261.4" y1="208.8" x2="254.6" y2="206.9"/>
<line fill="none" stroke="#FFFFFF" stroke-width="0.5" stroke-miterlimit="10" x1="260.6" y1="211.6" x2="253.9" y2="209.4"/>
<line fill="none" stroke="#FFFFFF" stroke-width="0.5" stroke-miterlimit="10" x1="106.2" y1="161.4" x2="113.1" y2="163.6"/>
<line fill="none" stroke="#FFFFFF" stroke-width="0.5" stroke-miterlimit="10" x1="258.8" y1="217" x2="252.2" y2="214.3"/>
<line fill="none" stroke="#FFFFFF" stroke-width="0.5" stroke-miterlimit="10" x1="108.2" y1="156.1" x2="115" y2="158.9"/>
<line fill="none" stroke="#FFFFFF" stroke-width="0.5" stroke-miterlimit="10" x1="109.4" y1="153.6" x2="116" y2="156.5"/>
<line fill="none" stroke="#FFFFFF" stroke-width="0.5" stroke-miterlimit="10" x1="257.8" y1="219.6" x2="251.3" y2="216.7"/>
<line fill="none" stroke="#FFFFFF" stroke-width="0.5" stroke-miterlimit="10" x1="256.6" y1="222.2" x2="250.2" y2="219.1"/>
<line fill="none" stroke="#FFFFFF" stroke-width="0.5" stroke-miterlimit="10" x1="110.7" y1="151" x2="117.2" y2="154.2"/>
<line fill="none" stroke="#FFFFFF" stroke-width="0.5" stroke-miterlimit="10" x1="112" y1="148.6" x2="118.4" y2="152"/>
<line fill="none" stroke="#FFFFFF" stroke-width="0.5" stroke-miterlimit="10" x1="255.4" y1="224.8" x2="249.1" y2="221.5"/>
<line fill="none" stroke="#FFFFFF" stroke-width="0.5" stroke-miterlimit="10" x1="114.9" y1="143.8" x2="121.1" y2="147.6"/>
<line fill="none" stroke="#FFFFFF" stroke-width="0.5" stroke-miterlimit="10" x1="252.6" y1="229.8" x2="246.6" y2="226.1"/>
<line fill="none" stroke="#FFFFFF" stroke-width="0.5" stroke-miterlimit="10" x1="251.1" y1="232.2" x2="245.2" y2="228.3"/>
<line fill="none" stroke="#FFFFFF" stroke-width="0.5" stroke-miterlimit="10" x1="116.5" y1="141.4" x2="122.6" y2="145.5"/>
<line fill="none" stroke="#FFFFFF" stroke-width="0.5" stroke-miterlimit="10" x1="118.1" y1="139.2" x2="124.1" y2="143.5"/>
<line fill="none" stroke="#FFFFFF" stroke-width="0.5" stroke-miterlimit="10" x1="249.5" y1="234.6" x2="243.8" y2="230.5"/>
<line fill="none" stroke="#FFFFFF" stroke-width="0.5" stroke-miterlimit="10" x1="119.9" y1="137" x2="125.6" y2="141.5"/>
<line fill="none" stroke="#FFFFFF" stroke-width="0.5" stroke-miterlimit="10" x1="247.8" y1="236.9" x2="242.3" y2="232.6"/>
<line fill="none" stroke="#FFFFFF" stroke-width="0.5" stroke-miterlimit="10" x1="123.6" y1="132.8" x2="129" y2="137.7"/>
<line fill="none" stroke="#FFFFFF" stroke-width="0.5" stroke-miterlimit="10" x1="244.2" y1="241.4" x2="239" y2="236.7"/>
<line fill="none" stroke="#FFFFFF" stroke-width="0.5" stroke-miterlimit="10" x1="242.3" y1="243.5" x2="237.3" y2="238.7"/>
<line fill="none" stroke="#FFFFFF" stroke-width="0.5" stroke-miterlimit="10" x1="130.8" y1="135.9" x2="125.5" y2="130.7"/>
<line fill="none" stroke="#FFFFFF" stroke-width="0.5" stroke-miterlimit="10" x1="240.3" y1="245.6" x2="235.4" y2="240.6"/>
<line fill="none" stroke="#FFFFFF" stroke-width="0.5" stroke-miterlimit="10" x1="132.6" y1="134.1" x2="127.5" y2="128.8"/>
<line fill="none" stroke="#FFFFFF" stroke-width="0.5" stroke-miterlimit="10" x1="129.6" y1="126.9" x2="134.5" y2="132.4"/>
<line fill="none" stroke="#FFFFFF" stroke-width="0.5" stroke-miterlimit="10" x1="238.2" y1="247.6" x2="233.5" y2="242.4"/>
<line fill="none" stroke="#FFFFFF" stroke-width="0.5" stroke-miterlimit="10" x1="233.9" y1="251.4" x2="229.6" y2="245.9"/>
<line fill="none" stroke="#FFFFFF" stroke-width="0.5" stroke-miterlimit="10" x1="138.5" y1="129.2" x2="133.9" y2="123.4"/>
<line fill="none" stroke="#FFFFFF" stroke-width="0.5" stroke-miterlimit="10" x1="136.2" y1="121.8" x2="140.5" y2="127.8"/>
<line fill="none" stroke="#FFFFFF" stroke-width="0.5" stroke-miterlimit="10" x1="231.6" y1="253.2" x2="227.5" y2="247.5"/>
<line fill="none" stroke="#FFFFFF" stroke-width="0.5" stroke-miterlimit="10" x1="229.3" y1="254.8" x2="225.4" y2="249.1"/>
<line fill="none" stroke="#FFFFFF" stroke-width="0.5" stroke-miterlimit="10" x1="142.6" y1="126.3" x2="138.5" y2="120.2"/>
<line fill="none" stroke="#FFFFFF" stroke-width="0.5" stroke-miterlimit="10" x1="144.8" y1="125" x2="140.8" y2="118.7"/>
<line fill="none" stroke="#FFFFFF" stroke-width="0.5" stroke-miterlimit="10" x1="226.9" y1="256.4" x2="223.2" y2="250.5"/>
<line fill="none" stroke="#FFFFFF" stroke-width="0.5" stroke-miterlimit="10" x1="149.2" y1="122.6" x2="145.7" y2="116"/>
<line fill="none" stroke="#FFFFFF" stroke-width="0.5" stroke-miterlimit="10" x1="221.9" y1="259.4" x2="218.7" y2="253.3"/>
<line fill="none" stroke="#FFFFFF" stroke-width="0.5" stroke-miterlimit="10" x1="219.4" y1="260.7" x2="216.3" y2="254.5"/>
<line fill="none" stroke="#FFFFFF" stroke-width="0.5" stroke-miterlimit="10" x1="151.4" y1="121.4" x2="148.2" y2="114.8"/>
<line fill="none" stroke="#FFFFFF" stroke-width="0.5" stroke-miterlimit="10" x1="216.8" y1="262" x2="214" y2="255.7"/>
<line fill="none" stroke="#FFFFFF" stroke-width="0.5" stroke-miterlimit="10" x1="150.7" y1="113.6" x2="153.7" y2="120.4"/>
<line fill="none" stroke="#FFFFFF" stroke-width="0.5" stroke-miterlimit="10" x1="214.1" y1="263.2" x2="211.5" y2="256.7"/>
<line fill="none" stroke="#FFFFFF" stroke-width="0.5" stroke-miterlimit="10" x1="153.3" y1="112.6" x2="156.1" y2="119.5"/>
<line fill="none" stroke="#FFFFFF" stroke-width="0.5" stroke-miterlimit="10" x1="208.7" y1="265.2" x2="206.6" y2="258.6"/>
<line fill="none" stroke="#FFFFFF" stroke-width="0.5" stroke-miterlimit="10" x1="158.5" y1="110.7" x2="160.8" y2="117.8"/>
<line fill="none" stroke="#FFFFFF" stroke-width="0.5" stroke-miterlimit="10" x1="161.2" y1="110" x2="163.2" y2="117.1"/>
<line fill="none" stroke="#FFFFFF" stroke-width="0.5" stroke-miterlimit="10" x1="204.1" y1="259.4" x2="206" y2="266.1"/>
<line fill="none" stroke="#FFFFFF" stroke-width="0.5" stroke-miterlimit="10" x1="163.9" y1="109.3" x2="165.7" y2="116.5"/>
<line fill="none" stroke="#FFFFFF" stroke-width="0.5" stroke-miterlimit="10" x1="203.2" y1="266.9" x2="201.5" y2="260.1"/>
<line fill="none" stroke="#FFFFFF" stroke-width="0.5" stroke-miterlimit="10" x1="198.9" y1="260.8" x2="200.4" y2="267.5"/>
<line fill="none" stroke="#FFFFFF" stroke-width="0.5" stroke-miterlimit="10" x1="166.6" y1="108.6" x2="168.1" y2="115.9"/>
<line fill="none" stroke="#FFFFFF" stroke-width="0.5" stroke-miterlimit="10" x1="193.7" y1="261.7" x2="194.7" y2="268.6"/>
<line fill="none" stroke="#FFFFFF" stroke-width="0.5" stroke-miterlimit="10" x1="172.1" y1="107.7" x2="173.1" y2="115.1"/>
<line fill="none" stroke="#FFFFFF" stroke-width="0.5" stroke-miterlimit="10" x1="174.8" y1="107.4" x2="175.6" y2="114.8"/>
<line fill="none" stroke="#FFFFFF" stroke-width="0.5" stroke-miterlimit="10" x1="191.8" y1="268.9" x2="191.1" y2="262.1"/>
<line fill="none" stroke="#FFFFFF" stroke-width="0.5" stroke-miterlimit="10" x1="177.6" y1="107.2" x2="178.1" y2="114.6"/>
<line fill="none" stroke="#FFFFFF" stroke-width="0.5" stroke-miterlimit="10" x1="188.4" y1="262.3" x2="188.9" y2="269.2"/>
<line fill="none" stroke="#FFFFFF" stroke-width="0.5" stroke-miterlimit="10" x1="186" y1="269.4" x2="185.8" y2="262.5"/>
<line fill="none" stroke="#FFFFFF" stroke-width="0.5" stroke-miterlimit="10" x1="180.3" y1="107.1" x2="180.6" y2="114.5"/>
<text transform="matrix(1 0 0 1 175.8105 93.7095)" fill="#FFFFFF" font-family="'ArialMT'" font-size="9">180</text>
<text transform="matrix(0.939 0.3438 -0.3438 0.939 208.2354 97.8589)" fill="#FFFFFF" font-family="'ArialMT'" font-size="9">200</text>
<text transform="matrix(0.7667 0.642 -0.642 0.7667 237.2256 110.6982)" fill="#FFFFFF" font-family="'ArialMT'" font-size="9">220</text>
<text transform="matrix(0.5086 0.861 -0.861 0.5086 259.4873 133.0986)" fill="#FFFFFF" font-family="'ArialMT'" font-size="9">240</text>
<text transform="matrix(0.1821 0.9833 -0.9833 0.1821 273.2529 162.5698)" fill="#FFFFFF" font-family="'ArialMT'" font-size="9">260</text>
<text transform="matrix(-0.168 0.9858 -0.9858 -0.168 276.0508 195.1099)" fill="#FFFFFF" font-family="'ArialMT'" font-size="9">280</text>
<text transform="matrix(-0.4956 0.8686 -0.8686 -0.4956 267.5518 226.4312)" fill="#FFFFFF" font-family="'ArialMT'" font-size="9">300</text>
<text transform="matrix(-0.7652 0.6438 -0.6438 -0.7652 248.627 253.1509)" fill="#FFFFFF" font-family="'ArialMT'" font-size="9">320</text>
<text transform="matrix(-0.9379 0.3469 -0.3469 -0.9379 222.2852 271.3892)" fill="#FFFFFF" font-family="'ArialMT'" font-size="9">340</text>
<text transform="matrix(-1 3.254368e-003 -3.254368e-003 -1 185.7783 279.686)" fill="#FFFFFF" font-family="'ArialMT'" font-size="9">0</text>
<text transform="matrix(-0.9384 -0.3457 0.3457 -0.9384 155.8745 275.5122)" fill="#FFFFFF" font-family="'ArialMT'" font-size="9">20</text>
<text transform="matrix(-0.7582 -0.652 0.652 -0.7582 127.0615 260.0015)" fill="#FFFFFF" font-family="'ArialMT'" font-size="9">40</text>
<text transform="matrix(-0.5048 -0.8632 0.8632 -0.5048 106.561 237.9839)" fill="#FFFFFF" font-family="'ArialMT'" font-size="9">60</text>
<text transform="matrix(-0.18 -0.9837 0.9837 -0.18 92.9795 207.6597)" fill="#FFFFFF" font-family="'ArialMT'" font-size="9">80</text>
<text transform="matrix(0.1763 -0.9843 0.9843 0.1763 91.3057 177.5273)" fill="#FFFFFF" font-family="'ArialMT'" font-size="9">100</text>
<text transform="matrix(0.4851 -0.8745 0.8745 0.4851 100.2588 147.0093)" fill="#FFFFFF" font-family="'ArialMT'" font-size="9">120</text>
<text transform="matrix(0.7603 -0.6495 0.6495 0.7603 118.1602 121.7612)" fill="#FFFFFF" font-family="'ArialMT'" font-size="9">140</text>
<text transform="matrix(0.9373 -0.3484 0.3484 0.9373 143.8647 104.0923)" fill="#FFFFFF" font-family="'ArialMT'" font-size="9">160</text>
</svg>
