<?xml version="1.0" encoding="utf-8"?>
<!-- Generator: Adobe Illustrator 15.0.0, SVG Export Plug-In . SVG Version: 6.00 Build 0)  -->
<!DOCTYPE svg PUBLIC "-//W3C//DTD SVG 1.1//EN" "http://www.w3.org/Graphics/SVG/1.1/DTD/svg11.dtd">
<svg version="1.1" id="Layer_1" xmlns="http://www.w3.org/2000/svg" xmlns:xlink="http://www.w3.org/1999/xlink" x="0px" y="0px"
	 width="700px" height="700px" viewBox="0 0 700 700" enable-background="new 0 0 700 700" xml:space="preserve">
<g>
	<g>
		
			<linearGradient id="SVGID_1_" gradientUnits="userSpaceOnUse" x1="-24.3032" y1="-154.1484" x2="1130.2356" y2="-154.1484" gradientTransform="matrix(0.692 0.7219 -0.3951 1.0329 -22.4917 160.469)">
			<stop  offset="0" style="stop-color:#EFDBD3"/>
			<stop  offset="0.3647" style="stop-color:#A56835"/>
			<stop  offset="1" style="stop-color:#4F2306"/>
		</linearGradient>
		<polygon fill="url(#SVGID_1_)" points="0,662.3 0,-8 700,-9.7 700,662.3 		"/>
	</g>
</g>
<g>
	<g>
		<g>
			
				<linearGradient id="SVGID_2_" gradientUnits="userSpaceOnUse" x1="-188.0498" y1="493.0498" x2="712.2502" y2="493.0498" gradientTransform="matrix(1 0 0 1 8 89)">
				<stop  offset="0" style="stop-color:#542A14"/>
				<stop  offset="0.3137" style="stop-color:#AD9688"/>
				<stop  offset="0.5843" style="stop-color:#B0998B"/>
				<stop  offset="0.7255" style="stop-color:#7B7B71"/>
				<stop  offset="0.9294" style="stop-color:#643B25"/>
				<stop  offset="1" style="stop-color:#3B1B10"/>
			</linearGradient>
			<path fill="url(#SVGID_2_)" d="M720.3,655.8H-3V508.3h723.2v124.2v1.2c0,0.398,0,0.8,0,1.2c0,5.6,0,11.3,0,16.898v4L720.3,655.8
				L720.3,655.8z"/>
			<rect x="-3" y="655.8" fill="#3C3831" width="723.3" height="16.7"/>
			<rect x="-3" y="672.5" fill="#1E1E1E" width="723.3" height="48.8"/>
		</g>
	</g>
	<g>
		
			<linearGradient id="SVGID_3_" gradientUnits="userSpaceOnUse" x1="349.6001" y1="593.7246" x2="349.6001" y2="584.7746" gradientTransform="matrix(1 0 0 1 8 89)">
			<stop  offset="0" style="stop-color:#000000;stop-opacity:0"/>
			<stop  offset="1" style="stop-color:#000000"/>
		</linearGradient>
		<polygon fill="url(#SVGID_3_)" points="720.2,672.5 720.2,684.3 -5,684.3 -5,672.5 		"/>
	</g>
	<rect x="-3" y="655" fill="#D2D0B8" width="723.2" height="1.1"/>
</g>
<g>
	<g>
		
			<linearGradient id="SVGID_4_" gradientUnits="userSpaceOnUse" x1="-198.3311" y1="511.3096" x2="-149.8335" y2="511.3096" gradientTransform="matrix(0.9923 -0.1237 0.8275 0.9046 7.2387 76.7537)">
			<stop  offset="0" style="stop-color:#000000"/>
			<stop  offset="1" style="stop-color:#000000;stop-opacity:0"/>
		</linearGradient>
		<path fill="url(#SVGID_4_)" d="M284,561.4c3.5,0,6.3,0.6,8.4,1.8l21.1,13.5c0.4,1.2-0.9,1.8-3.7,1.8H131h-7.6H89.1H64.5
			c-2.8,0-4.4-0.6-4.9-1.8l-4.4-13.5c-0.4-1.2,0.9-1.8,3.7-1.8h30.2h34.3h7.6H284z"/>
	</g>
	<g>
		<path fill-opacity="0.2471" d="M218.7,586.8l-1.5,0.102c-29,1.5-50.1,1-63.1-1.802c-6.9-1.3-11.6-3.3-14.1-5.898
			c-3-2.8-3.7-6.3-1.9-10.4l0.5-1.3l2.7,1.1l-0.6,1.4c-1.3,2.9-0.9,5.2,1.2,7.1c2.3,2.4,6.6,4.102,12.8,5.302
			c12.9,2.698,33.7,3.198,62.4,1.6h1.5L218.7,586.8z M249.5,557.8l1.5,0.4c23.7,5.8,52.7,9.6,86.8,11.398c7.8,1,13,2.102,15.5,3.302
			c2.101,0.898,2.9,1.898,2.5,3c0.101,1-0.899,2-3,2.898c-5.6,2.2-21.5,4.602-47.9,7.3l-1.5,0.302l-0.3-3l1.4-0.102
			c26.1-2.6,41.9-5,47.4-7.1c0.398-0.2,0.8-0.3,1-0.4c-0.2,0-0.4,0-0.602-0.1c-2.3-1-7.2-1.9-14.6-2.8
			c-34.3-1.9-63.4-5.802-87.3-11.802l-1.4-0.3L249.5,557.8z"/>
	</g>
	<g>
		<g>
			
				<linearGradient id="SVGID_5_" gradientUnits="userSpaceOnUse" x1="207.9624" y1="480.3994" x2="236.3374" y2="480.3994" gradientTransform="matrix(1 0 0 1 8 89)">
				<stop  offset="0" style="stop-color:#283E4B"/>
				<stop  offset="0.3686" style="stop-color:#739EA2"/>
				<stop  offset="0.502" style="stop-color:#80C4C2"/>
				<stop  offset="0.5961" style="stop-color:#84ABAE"/>
				<stop  offset="1" style="stop-color:#494B58"/>
			</linearGradient>
			<path fill="url(#SVGID_5_)" d="M244.5,562l-4.2,13.8c-6.7,1.2-13.5,1.3-20.4,0.4l-5-14.102h29.6V562L244.5,562z"/>
			
				<linearGradient id="SVGID_6_" gradientUnits="userSpaceOnUse" x1="68.9624" y1="480.7266" x2="97.3374" y2="480.7266" gradientTransform="matrix(1 0 0 1 8 89)">
				<stop  offset="0" style="stop-color:#283E4B"/>
				<stop  offset="0.3686" style="stop-color:#739EA2"/>
				<stop  offset="0.502" style="stop-color:#80C4C2"/>
				<stop  offset="0.5961" style="stop-color:#84ABAE"/>
				<stop  offset="1" style="stop-color:#494B58"/>
			</linearGradient>
			<path fill="url(#SVGID_6_)" d="M101.4,576.3c-6.8,1.102-13.7,1.102-20.5,0.2L76,562.3h29.6L101.4,576.3z"/>
		</g>
	</g>
	<g>
		<g>
			
				<linearGradient id="SVGID_7_" gradientUnits="userSpaceOnUse" x1="78.8706" y1="440.9277" x2="86.2136" y2="436.6656" gradientTransform="matrix(1 0 0 1 8 89)">
				<stop  offset="0" style="stop-color:#717C90"/>
				<stop  offset="0.4235" style="stop-color:#D2EAEA"/>
				<stop  offset="0.5647" style="stop-color:#DEF0F0"/>
				<stop  offset="0.8" style="stop-color:#D1E9E8"/>
				<stop  offset="1" style="stop-color:#ABD7D6"/>
			</linearGradient>
			<path fill="url(#SVGID_7_)" d="M60.3,559.3c-0.6,1.2-1.2,3.2-1.8,6c-0.3,0.102-1.5-2.3-3.6-7.3c-1.3-3-2.2-5.3-2.7-7
				c-0.4-1.1-0.6-1.8-0.6-2.3v-82.2c0.3-2.5,2.3-4.1,6-4.8c11.1-0.102,16.5,0,16.4,0.2h136.2l39.9,10l2.1,1l0.7,0.1
				c1.8,0.6,2.9,1.7,3.5,3.3c0.2,0.602,0.3,1.4,0.3,2.3c0,0.102,0,0.2,0,0.302v38.5h-3v-38.5c-0.1-1.5-0.9-2.5-2.3-2.9
				c-0.1,0-0.3,0-0.6,0H63c-1.6,0.3-2.5,1.2-2.7,2.9c0,0.3,0,0.5,0,0.8V559.3z"/>
			<path fill="#DEF0F0" d="M60.3,559.3v6h-1.8C59.1,562.4,59.7,560.4,60.3,559.3z M256.7,534v15.3c0,6.4-0.1,11.8-0.2,16h-2.8V534
				H256.7z"/>
		</g>
	</g>
	<g>
		
			<linearGradient id="SVGID_8_" gradientUnits="userSpaceOnUse" x1="66.8374" y1="432.0996" x2="245.8624" y2="432.0996" gradientTransform="matrix(1 0 0 1 8 89)">
			<stop  offset="0" style="stop-color:#18243A"/>
			<stop  offset="1" style="stop-color:#151B2B"/>
		</linearGradient>
		<path fill="url(#SVGID_8_)" d="M251.5,476.8c1.4,0.3,2.2,1.3,2.3,2.8V565.4H60.5v-85c0-0.302,0-0.5,0.1-0.802
			c0.2-1.6,1.1-2.5,2.6-2.8c0.1,0,0.1,0,0.3,0H251C251.2,476.8,251.4,476.8,251.5,476.8z"/>
	</g>
	<g>
		<g>
			
				<linearGradient id="SVGID_9_" gradientUnits="userSpaceOnUse" x1="149.1499" y1="388.6377" x2="149.1499" y2="397.0627" gradientTransform="matrix(1 0 0 1 8 89)">
				<stop  offset="0" style="stop-color:#000000"/>
				<stop  offset="1" style="stop-color:#000000;stop-opacity:0"/>
			</linearGradient>
			<path fill="url(#SVGID_9_)" d="M71.5,486.8l-11-9.7c0.4-0.5,1-0.698,1.8-0.8h188.6c0.3,0,0.5,0,0.6,0c1.4,0.3,2.2,1.3,2.3,2.8
				v7.302l-182.3,0.3V486.8L71.5,486.8z"/>
			
				<linearGradient id="SVGID_10_" gradientUnits="userSpaceOnUse" x1="148.4829" y1="479.7871" x2="148.4829" y2="469.6121" gradientTransform="matrix(1 0 0 1 8 89)">
				<stop  offset="0.4196" style="stop-color:#000000"/>
				<stop  offset="1" style="stop-color:#000000;stop-opacity:0"/>
			</linearGradient>
			<path fill="url(#SVGID_10_)" d="M59.5,564.9l12.6-7.602h181.2c0.7,5.5-0.8,8.102-4.6,8H59.5V564.9z"/>
			
				<linearGradient id="SVGID_11_" gradientUnits="userSpaceOnUse" x1="52.25" y1="432" x2="62.55" y2="432" gradientTransform="matrix(1 0 0 1 8 89)">
				<stop  offset="0" style="stop-color:#000000"/>
				<stop  offset="1" style="stop-color:#000000;stop-opacity:0"/>
			</linearGradient>
			<path fill="url(#SVGID_11_)" d="M72.1,557.3L59.5,564.9v-85c0-0.302,0-0.602,0.1-0.802c0.1-0.8,0.3-1.5,0.8-2l11,9.7v70.5
				L72.1,557.3L72.1,557.3z"/>
		</g>
	</g>
	<g>
		<path fill="#DEF0F0" d="M250.5,473.8c4.3,0,6.5,2.2,6.5,6.602V562c0,4.3-2.2,6.5-6.5,6.5h-186c-4.4,0-6.6-2.2-6.6-6.5v-81.7
			c0-4.398,2.2-6.6,6.6-6.6h186V473.8z M253.6,480.3c0-2.1-1-3.2-3.1-3.2h-186c-2.2,0-3.3,1.102-3.3,3.2V562c0,2.1,1.1,3.1,3.3,3.1
			h186c2.1,0,3.1-1,3.1-3.1V480.3z"/>
	</g>
	<path fill="#0C0F18" d="M94.7,507.4c0-3.9,2-5.9,5.9-5.9H224c3.9,0,5.9,2,5.9,5.9V544.1c0,3.9-2,5.9-5.9,5.9H100.6
		c-3.9,0-5.9-2-5.9-5.9V507.4z"/>
	<g>
		<path fill="#260F15" d="M99.5,501.9h122.2c3.2,0,4.8,1.6,4.8,4.8v34.7c0,3.1-1.6,4.6-4.8,4.6H99.5c-3.1,0-4.6-1.5-4.6-4.6v-34.7
			C94.9,503.4,96.4,501.9,99.5,501.9z"/>
		<path fill="#77ABA9" d="M99.5,501.9c-3.1,0-4.6,1.6-4.6,4.8v34.7c0,3.1,1.5,4.6,4.6,4.6h122.2c3.2,0,4.8-1.5,4.8-4.6v-34.7
			c0-3.2-1.6-4.8-4.8-4.8H99.5L99.5,501.9z M92.3,506.6c0-4.8,2.4-7.3,7.3-7.3h122.2c4.8,0,7.3,2.4,7.3,7.3v34.7
			c0,4.8-2.4,7.102-7.3,7.102H99.5c-4.8,0-7.3-2.4-7.3-7.102v-34.7H92.3L92.3,506.6z"/>
	</g>
	<g>
		<g>
			<path fill="#FFFFFF" fill-opacity="0.4549" d="M189.7,488.8h-1.6v4.602H187V488.8h-1.6V487.9h4.3V488.8z M192.5,490.9v-3h1.2v3
				c0,0.398,0,0.8,0,0.898c0,0.2,0.1,0.3,0.4,0.5c0.2,0.2,0.4,0.3,0.7,0.3c0.3,0,0.6-0.1,0.8-0.3c0.2-0.2,0.3-0.3,0.3-0.398
				c0-0.302,0-0.602,0-1V487.8h1.1v2.8c0,0.7,0,1.2,0,1.5c-0.1,0.302-0.2,0.5-0.4,0.7c-0.1,0.2-0.3,0.4-0.7,0.5
				c-0.3,0.102-0.6,0.102-0.9,0.102c-0.5,0-0.9,0-1.2-0.102c-0.4-0.2-0.6-0.398-0.8-0.5c-0.1-0.2-0.2-0.398-0.2-0.7
				C192.6,492,192.5,491.5,192.5,490.9z M183.5,487.9h1.1v2.8c0,0.7-0.1,1.2-0.1,1.5s-0.1,0.5-0.3,0.7c-0.2,0.198-0.4,0.398-0.6,0.5
				c-0.4,0.1-0.8,0.1-1.2,0.1c-0.6,0-0.9,0-1.1-0.1c-0.4-0.2-0.6-0.4-0.6-0.5c-0.2-0.2-0.4-0.4-0.5-0.7c-0.1-0.3-0.1-0.7-0.1-1.3v-3
				h1.2v3c0,0.398,0,0.8,0,0.898c0.1,0.2,0.2,0.3,0.4,0.5c0.2,0.2,0.4,0.3,0.7,0.3c0.3,0,0.5-0.1,0.6-0.3c0.2-0.2,0.3-0.3,0.4-0.398
				c0-0.302,0-0.602,0-1v-3H183.5z M178.6,491c-0.2,0.2-0.4,0.3-0.6,0.3c-0.2,0.102-0.6,0.2-1.1,0.2h-0.6v2h-1.1V488h1.8
				c0.7,0,1.1,0,1.2,0c0.4,0.2,0.6,0.4,0.8,0.7c0.3,0.3,0.5,0.6,0.5,1.1c0,0.3-0.1,0.5-0.1,0.8C179,490.7,178.8,490.8,178.6,491z
				 M176.3,488.8v1.7h0.5c0.5,0,0.8,0,1-0.2c0.2-0.1,0.3-0.2,0.3-0.3c0.1-0.1,0.1-0.2,0.1-0.4c0-0.3,0-0.5-0.1-0.5
				c-0.1-0.198-0.2-0.3-0.4-0.3c-0.2-0.1-0.5-0.2-1-0.2h-0.4V488.8L176.3,488.8z M174.4,488.8h-1.6v4.602h-1.1V488.8H170V487.9h4.3
				v0.898L174.4,488.8L174.4,488.8z M210,488.8h-1.7v4.602h-1V488.8h-1.8V487.9h4.5V488.8z M205,487.9v5.5h-1.2v-5.5H205z
				 M202.6,487.9v5.5h-1.1l-2.3-3.5v3.5h-1.1v-5.5h1.1l2.3,3.6v-3.6H202.6z M152.3,487.9l2.3,3.6v-3.6h1v5.5h-1.1l-2.3-3.5v3.5h-1
				v-5.5H152.3z M150.2,490.8c0,0.9-0.2,1.602-0.7,2c-0.5,0.5-1.2,0.8-1.9,0.8c-0.8,0-1.5-0.3-2-0.8s-0.7-1.1-0.7-2
				c0-0.5,0.1-1,0.3-1.5c0.1-0.3,0.3-0.5,0.5-0.7c0.2-0.3,0.4-0.398,0.7-0.5c0.3-0.1,0.6-0.1,1-0.1c0.8,0,1.5,0.2,2,0.7
				C150,489,150.2,489.8,150.2,490.8z M148.8,489.3c-0.4-0.3-0.7-0.5-1.1-0.5c-0.5,0-0.9,0.2-1.1,0.5c-0.3,0.4-0.5,0.9-0.5,1.5
				c0,0.5,0.2,1,0.5,1.3c0.3,0.4,0.7,0.602,1.1,0.602c0.4,0,0.7-0.2,1.1-0.602c0.3-0.398,0.4-0.8,0.4-1.3
				C149.1,490.1,149,489.6,148.8,489.3z M144.1,487.9v5.5H143v-5.5H144.1z M138,487.9h4.3v0.898h-1.6v4.602h-1.2V488.8H138V487.9z
				 M137.3,489.4l-1,0.398c-0.1-0.398-0.2-0.6-0.3-0.8c-0.3-0.2-0.5-0.3-0.8-0.3c-0.4,0-0.8,0.2-1.1,0.5c-0.3,0.3-0.4,0.8-0.4,1.5
				c0,0.6,0.1,1.1,0.4,1.3c0.3,0.4,0.6,0.6,1.1,0.6c0.3,0,0.5-0.1,0.7-0.398c0.2-0.102,0.3-0.4,0.4-0.8l1,0.398
				c-0.1,0.602-0.3,1-0.8,1.2c-0.4,0.4-0.8,0.5-1.4,0.5c-0.8,0-1.4-0.3-1.9-0.8s-0.7-1.102-0.7-2c0-1,0.2-1.7,0.7-2.2
				c0.4-0.5,1-0.7,1.9-0.7c0.6,0,1.2,0.2,1.6,0.5C137,488.7,137.2,489,137.3,489.4z M169.2,490.8c0,0.7,0,1.2-0.1,1.5
				s-0.2,0.5-0.4,0.7c-0.1,0.2-0.3,0.4-0.7,0.5c-0.2,0.1-0.5,0.1-1,0.1s-0.9,0-1.2-0.1c-0.3-0.2-0.5-0.4-0.7-0.5
				c-0.2-0.2-0.3-0.4-0.3-0.7c-0.1-0.3-0.1-0.7-0.1-1.3v-3h1.1v3c0,0.4,0,0.8,0,0.9c0.1,0.198,0.2,0.3,0.4,0.5
				c0.2,0.198,0.4,0.3,0.8,0.3c0.3,0,0.5-0.102,0.7-0.3c0.2-0.2,0.3-0.302,0.3-0.4c0-0.3,0-0.6,0-1v-3.1h1.2V490.8z M163.9,490.8
				c0,0.9-0.2,1.602-0.7,2c-0.4,0.5-1.1,0.8-1.9,0.8c-0.8,0-1.4-0.3-1.9-0.8c-0.6-0.5-0.9-1.1-0.9-2v-0.2c0-0.398,0.1-0.898,0.2-1.3
				c0.2-0.3,0.4-0.5,0.7-0.7c0.2-0.3,0.4-0.398,0.6-0.5c0.4-0.1,0.8-0.1,1.2-0.1c0.8,0,1.5,0.2,1.9,0.7
				C163.6,489,163.9,489.8,163.9,490.8z M161.3,488.8c-0.4,0-0.8,0.2-1,0.5c-0.3,0.4-0.4,0.9-0.4,1.5c0,0.5,0.1,1,0.4,1.3
				c0.3,0.4,0.6,0.602,1,0.602c0.5,0,0.8-0.2,1.1-0.602c0.3-0.398,0.4-0.8,0.4-1.3c0-0.6-0.1-1.1-0.4-1.5
				C162.1,488.9,161.7,488.8,161.3,488.8z M112.2,487.9h2c0.4,0,0.7,0,0.9,0.1c0.4,0.1,0.6,0.3,0.8,0.5c0.3,0.3,0.5,0.5,0.7,0.8
				c0,0.5,0,0.9,0,1.3c0,0.5,0,0.9,0,1.2c-0.2,0.4-0.4,0.7-0.7,1c-0.2,0.2-0.4,0.4-0.8,0.5c-0.3,0-0.6,0-0.9,0h-2V487.9z
				 M128.8,492.5h3v1h-4.2V488h4.1v0.9h-2.8v1.3h2.7v0.898h-2.7v1.4L128.8,492.5L128.8,492.5z M125.1,488.8v4.602H124V488.8h-1.6
				V487.9h4.3v0.898L125.1,488.8L125.1,488.8z M121.8,488.8h-3v1.3h2.9v0.9h-2.9v1.5h3.1v1h-4.2V488h4v0.8H121.8z M113.1,488.8v3.7
				h1c0.3,0,0.5,0,0.6,0c0.2-0.1,0.3-0.2,0.4-0.3c0.1-0.102,0.2-0.3,0.3-0.5s0.1-0.5,0.1-1c0-0.4,0-0.8-0.1-1
				c-0.1-0.3-0.2-0.5-0.3-0.5c-0.1-0.2-0.3-0.3-0.5-0.3c-0.1-0.102-0.3-0.2-0.8-0.2h-0.7V488.8z"/>
			<path fill="#FFFFFF" fill-opacity="0.1882" d="M136.6,555.5c-0.4,0.4-0.6,0.9-0.6,1.5c0,0.7,0.2,1.2,0.6,1.5
				c0.2,0.3,0.4,0.4,0.8,0.4s0.6-0.102,0.8-0.302c0.3-0.198,0.4-0.398,0.5-0.8l1,0.3c-0.2,0.602-0.4,1.102-0.8,1.302
				c-0.4,0.398-0.9,0.6-1.5,0.6s-1.2-0.3-1.8-0.8c-0.4-0.5-0.6-1.102-0.6-2c0-0.9,0.2-1.602,0.6-2.102
				c0.5-0.398,1.2-0.698,1.9-0.698s1.2,0.198,1.6,0.5c0.3,0.198,0.5,0.5,0.6,1l-1,0.3c-0.1-0.3-0.3-0.5-0.5-0.7
				c-0.2-0.2-0.4-0.3-0.8-0.3S136.8,555.2,136.6,555.5z M142.6,554.3h1.1v3c0,0.5,0,0.8,0,1c0.1,0.3,0.2,0.4,0.4,0.5
				c0.2,0.102,0.4,0.102,0.8,0.102c0.3,0,0.5,0,0.7-0.102c0.2-0.1,0.3-0.3,0.3-0.5s0-0.5,0-1v-3h1.2v2.8c0,0.602,0,1.102-0.1,1.5
				c-0.1,0.302-0.3,0.5-0.5,0.7c-0.1,0.2-0.2,0.3-0.5,0.4c-0.3,0.2-0.6,0.3-1.1,0.3s-0.9-0.1-1.2-0.3c-0.3-0.2-0.5-0.3-0.7-0.4
				c-0.1-0.3-0.1-0.5-0.3-0.7c-0.1-0.398-0.1-0.898-0.1-1.5V554.3L142.6,554.3z M152.5,554.3c0.6,0,1,0,1.2,0.2
				c0.4,0.1,0.6,0.2,0.8,0.5c0.1,0.2,0.1,0.5,0.1,0.8c0,0.4-0.1,0.8-0.3,1c-0.3,0.2-0.7,0.3-1.2,0.4c0.3,0.2,0.5,0.398,0.6,0.5
				c0.1,0.1,0.3,0.5,0.6,1l0.7,1h-1.5l-0.7-1.2c-0.4-0.4-0.6-0.7-0.7-0.8c0-0.102-0.1-0.2-0.3-0.3c-0.1-0.102-0.3-0.2-0.6-0.2h-0.3
				v2.398h-1.1v-5.5h2.7V554.3z M152.3,556.5c0.5,0,0.8,0,0.8-0.1c0.2,0,0.3-0.102,0.4-0.2c0.1-0.102,0.1-0.2,0.1-0.5
				c0-0.102-0.1-0.2-0.1-0.3c-0.2-0.2-0.3-0.302-0.4-0.302s-0.4,0-0.8,0h-1v1.302h1V556.5z M161.4,554.4c0.2,0.1,0.4,0.198,0.6,0.5
				c0.2,0.198,0.3,0.5,0.3,0.8c0,0.398-0.1,0.8-0.4,1c-0.2,0.2-0.5,0.3-1,0.398c0.3,0.2,0.5,0.4,0.6,0.5c0.1,0.2,0.3,0.5,0.6,1
				l0.6,1h-1.2l-0.9-1.198c-0.2-0.4-0.4-0.7-0.6-0.802c-0.1-0.1-0.2-0.198-0.4-0.3c0-0.1-0.1-0.2-0.4-0.2h-0.3v2.4h-1.1V554h2.3
				C160.6,554.3,161,554.3,161.4,554.4z M160.9,556.3c0.1-0.1,0.1-0.2,0.1-0.5c0-0.1,0-0.2-0.1-0.3c-0.1-0.2-0.2-0.3-0.4-0.3
				c-0.1,0-0.4,0-0.8,0h-0.8v1.3h0.8c0.5,0,0.9,0,1.1-0.1L160.9,556.3z M166.4,556.4h2.7v0.898h-2.7v1.5h3.1v0.9h-4.4v-5.5h4.2v1h-3
				v1.2L166.4,556.4L166.4,556.4z M172.3,554.3h1.1l2.3,3.7v-3.7h0.9v5.5h-1.1l-2.3-3.6v3.6h-1v-5.5H172.3z M179.5,555.2v-1h4.3v1
				h-1.6v4.5H181v-4.5H179.5z"/>
		</g>
	</g>
	<g>
		<g>
			<path fill-opacity="0.498" d="M245.3,488.4c-0.8,0.8-1.7,1.198-2.9,1.198c-1.1,0-2.1-0.398-2.9-1.198c-0.8-0.802-1.2-1.7-1.2-2.9
				c0-1.1,0.4-2.1,1.2-2.9c0.8-0.8,1.7-1.198,2.9-1.198c1.1,0,2.1,0.398,2.9,1.198c0.8,0.802,1.2,1.7,1.2,2.9
				S246.1,487.6,245.3,488.4z"/>
			
				<linearGradient id="SVGID_12_" gradientUnits="userSpaceOnUse" x1="375.3301" y1="-244.6045" x2="399.5317" y2="-244.6045" gradientTransform="matrix(0.3336 0 0 0.3336 112.5764 566.9006)">
				<stop  offset="0" style="stop-color:#E8E8E0"/>
				<stop  offset="1" style="stop-color:#49484A"/>
			</linearGradient>
			<path fill="url(#SVGID_12_)" d="M244.7,488.2c-0.8,0.8-1.7,1.2-2.9,1.2c-1.1,0-2.1-0.4-2.9-1.2c-0.8-0.8-1.2-1.7-1.2-2.9
				c0-1.1,0.4-2.1,1.2-2.898c0.8-0.802,1.7-1.2,2.9-1.2c1.1,0,2.1,0.398,2.9,1.2c0.8,0.8,1.2,1.698,1.2,2.898
				S245.5,487.4,244.7,488.2z"/>
			
				<linearGradient id="SVGID_13_" gradientUnits="userSpaceOnUse" x1="409.0488" y1="-277.3633" x2="433.25" y2="-277.3633" gradientTransform="matrix(0.2969 0 0 0.2969 116.8435 567.6497)">
				<stop  offset="0" style="stop-color:#77777A"/>
				<stop  offset="1" style="stop-color:#595F6F"/>
			</linearGradient>
			<path fill="url(#SVGID_13_)" d="M244.4,487.8c-0.7,0.7-1.5,1.102-2.5,1.102s-1.8-0.4-2.5-1.102c-0.7-0.7-1.1-1.5-1.1-2.5
				s0.4-1.8,1.1-2.5c0.7-0.7,1.5-1.1,2.5-1.1s1.8,0.398,2.5,1.1c0.7,0.7,1.1,1.5,1.1,2.5S245.1,487.1,244.4,487.8z"/>
			
				<rect x="238.19" y="484.508" transform="matrix(0.3614 -0.9324 0.9324 0.3614 -297.9798 534.938)" fill="#363840" width="6.7" height="1"/>
			
				<rect x="238.79" y="484.808" transform="matrix(0.3614 -0.9324 0.9324 0.3614 -297.8763 535.6887)" fill="#AAB2B4" width="6.7" height="1"/>
			
				<rect x="238.265" y="484.552" transform="matrix(0.3613 -0.9324 0.9324 0.3613 -297.9697 535.0724)" fill="#6A7579" width="6.7" height="1"/>
			
				<rect x="238.411" y="484.695" transform="matrix(0.3614 -0.9324 0.9324 0.3614 -298.0126 535.2631)" fill="#363840" width="6.7" height="1"/>
		</g>
	</g>
	<g>
		<g>
			<g>
				
					<linearGradient id="SVGID_14_" gradientUnits="userSpaceOnUse" x1="226.436" y1="431.0664" x2="237.8513" y2="450.8843" gradientTransform="matrix(1 0 0 1 8 89)">
					<stop  offset="0" style="stop-color:#4D4D4D"/>
					<stop  offset="0.3059" style="stop-color:#A6A6A6"/>
					<stop  offset="1" style="stop-color:#000000"/>
				</linearGradient>
				<path fill="url(#SVGID_14_)" d="M240.1,521.8c2.4,0,4.4,0.8,5.9,2.5c1.7,1.5,2.6,3.4,2.6,5.8c0,2.2-0.9,4.102-2.6,5.7
					c-1.6,1.602-3.6,2.4-5.9,2.4c-2.2,0-4.1-0.8-5.8-2.4c-1.6-1.5-2.5-3.398-2.5-5.7c0-2.398,0.8-4.3,2.5-5.8
					C236,522.6,237.9,521.8,240.1,521.8z M244.7,525.5c-1.2-1.3-2.7-1.9-4.6-1.9c-1.7,0-3.2,0.602-4.5,1.9c-1.2,1.2-1.9,2.7-1.9,4.5
					c0,1.7,0.6,3.1,1.9,4.3c1.3,1.3,2.8,1.9,4.5,1.9c1.9,0,3.4-0.602,4.6-1.9c1.3-1.2,1.9-2.6,1.9-4.3
					C246.6,528.2,246,526.7,244.7,525.5z"/>
				
					<linearGradient id="SVGID_15_" gradientUnits="userSpaceOnUse" x1="224.75" y1="440.9004" x2="239.45" y2="440.9004" gradientTransform="matrix(1 0 0 1 8 89)">
					<stop  offset="0" style="stop-color:#081828"/>
					<stop  offset="0.5569" style="stop-color:#000E11"/>
					<stop  offset="1" style="stop-color:#41587A"/>
				</linearGradient>
				<path fill="url(#SVGID_15_)" d="M244.7,525.5c1.3,1.2,1.9,2.7,1.9,4.5c0,1.7-0.6,3.1-1.9,4.3c-1.2,1.3-2.7,1.9-4.6,1.9
					c-1.7,0-3.2-0.602-4.5-1.9c-1.2-1.2-1.9-2.6-1.9-4.3c0-1.8,0.6-3.3,1.9-4.5c1.3-1.3,2.8-1.9,4.5-1.9
					C242,523.7,243.5,524.3,244.7,525.5z"/>
			</g>
		</g>
		<g>
			<g>
				<g>
					
						<linearGradient id="SVGID_16_" gradientUnits="userSpaceOnUse" x1="230.4351" y1="445.3975" x2="235.8897" y2="437.9269" gradientTransform="matrix(1 0 0 1 8 89)">
						<stop  offset="0" style="stop-color:#081828"/>
						<stop  offset="0.5569" style="stop-color:#000E11"/>
						<stop  offset="1" style="stop-color:#41587A"/>
					</linearGradient>
					<path fill="url(#SVGID_16_)" d="M243.2,537.5l-3.9-1.9h-0.1c-0.1,0-0.2,0-0.3,0c-0.6-0.398-1.2-0.8-1.6-1.398
						c-1.3-1-1.9-2.3-1.9-4c0-1.5,0.6-2.9,1.9-4c1.2-1.2,2.6-1.8,4.2-1.8c1.8,0,3.3,0.6,4.3,1.8c0.3,0.2,0.5,0.398,0.7,0.8l2.4,3.1
						c-0.4-0.398-0.8-0.698-1.4-0.8c-0.6-0.398-1.3-0.5-2-0.5c-1.2,0-2.4,0.5-3.5,1.3c-0.9,0.9-1.4,2-1.4,3.302c0,1.1,0.3,2,1,2.898
						c0.1,0.2,0.2,0.3,0.4,0.3C242.5,536.9,242.9,537.3,243.2,537.5z"/>
					
						<linearGradient id="SVGID_17_" gradientUnits="userSpaceOnUse" x1="238.5977" y1="456.6748" x2="237.2148" y2="442.9933" gradientTransform="matrix(1 0 0 1 8 89)">
						<stop  offset="0" style="stop-color:#081828"/>
						<stop  offset="1" style="stop-color:#41587A"/>
					</linearGradient>
					<path fill="url(#SVGID_17_)" d="M248.9,530.1c0.1,0,0.1,0.102,0.1,0.2c0.1,0,0.1,0,0.1,0.2l0.1,0.1
						c0.1,0.102,0.1,0.2,0.1,0.302c0.6,0.8,0.9,1.698,0.9,2.5c0,1.3-0.5,2.3-1.4,3.1c-0.9,1-2,1.5-3.4,1.5c-0.5,0-1.1,0-1.6-0.2
						c-0.2-0.1-0.4-0.2-0.7-0.3c-0.3-0.3-0.7-0.7-1.2-1.1c-0.2,0-0.3-0.102-0.4-0.302c-0.6-0.8-1-1.8-1-2.898c0-1.3,0.5-2.3,1.4-3.3
						c1.1-0.9,2.3-1.302,3.5-1.302c0.7,0,1.4,0.2,2,0.5C248.1,529.4,248.5,529.7,248.9,530.1z M247.5,532.4c0-0.102,0-0.2-0.1-0.2
						c0-0.102,0-0.102-0.1-0.102c-0.1-0.198-0.2-0.398-0.5-0.6c-0.3-0.1-0.6-0.1-1-0.1c-0.5,0-1,0.198-1.3,0.698
						c-0.5,0.4-0.8,0.802-0.8,1.302c0,0.398,0.2,0.8,0.5,1.198c0.1,0.102,0.2,0.2,0.3,0.302c0.1,0.1,0.2,0.198,0.4,0.3l0.3,0.1
						c0.3,0.102,0.5,0.2,0.7,0.2c0.6,0,1.1-0.2,1.5-0.5c0.5-0.4,0.7-0.9,0.7-1.5C248,533,247.8,532.7,247.5,532.4z"/>
					<path d="M247.5,532.4c0.3,0.3,0.4,0.6,0.4,1.1s-0.2,1-0.7,1.5c-0.3,0.4-0.8,0.5-1.5,0.5c-0.2,0-0.4,0-0.7-0.2l-0.3-0.1
						c-0.2-0.102-0.3-0.2-0.4-0.3c-0.1-0.102-0.2-0.2-0.3-0.302c-0.3-0.398-0.5-0.8-0.5-1.198c0-0.5,0.3-1,0.8-1.302
						c0.4-0.5,0.8-0.698,1.3-0.698c0.3,0,0.7,0,1,0.1c0.3,0.2,0.4,0.4,0.5,0.6c0.1,0,0.1,0,0.1,0.102
						C247.5,532.3,247.5,532.3,247.5,532.4z"/>
				</g>
			</g>
		</g>
		<path d="M136.9,568.9h3c0,0.1,0,0.198,0,0.198c0.4,4.302,3,7.5,8,9.7c6.2,2.7,16.6,4.4,31.3,5c8.8,0.3,25.5,0.2,50.1-0.2
			c26.5-0.5,47.7-0.6,63.6-0.3c13.2,0.3,25-0.1,35.4-1.2c9.3-1,16.1-2.398,20.4-4.198c3.1-1.302,5.3-3.102,6.6-5.302
			c1.101-2.198,1.2-4.398,0.2-6.6c-2.8-6-10.8-9.8-24-11.3c-36.1-4.4-64.6-10.9-85.4-19.5c-0.4-0.2-0.6-0.4-0.8-0.8
			c-0.2-0.4-0.2-0.802,0-1.102c0.2-0.398,0.4-0.6,0.8-0.8s0.8-0.2,1.1,0c20.6,8.5,48.7,15,84.6,19.4c14.6,1.699,23.4,6.1,26.4,13
			c1.399,3,1.2,6-0.3,9.1c-1.602,2.9-4.301,5.1-8.2,6.7c-4.5,1.8-11.5,3.3-21.1,4.3c-10.5,1.1-22.4,1.6-35.8,1.4
			c-15.8-0.4-36.9-0.301-63.4,0.199c-24.7,0.5-41.5,0.601-50.2,0.199c-15.3-0.5-26.1-2.199-32.5-5.1c-6.2-2.8-9.5-7-9.8-12.5
			C136.9,569,136.9,568.9,136.9,568.9z"/>
		<g>
			
				<radialGradient id="SVGID_18_" cx="-0.416" cy="470.3857" r="10.4125" gradientTransform="matrix(2.2674 0 0 1.3202 159.7724 -46.2242)" gradientUnits="userSpaceOnUse">
				<stop  offset="0" style="stop-color:#FFFFFF"/>
				<stop  offset="1" style="stop-color:#FFFFFF;stop-opacity:0"/>
			</radialGradient>
			<path fill="url(#SVGID_18_)" d="M137.7,568.9h1c0.3,4.698,3.2,8.3,8.7,10.8c6.2,2.8,16.7,4.5,31.6,5h0.1c0.2,0,0.3,0,0.6,0.1
				c0.1,0,0.2,0,0.2,0.102c0.2,0.198,0.2,0.3,0.1,0.5c0,0.1-0.1,0.198-0.2,0.198c-0.1,0.2-0.2,0.2-0.2,0.102c-0.2,0-0.4,0-0.6,0
				c-15-0.5-25.7-2.2-32.1-5.102C141.1,577.9,138,574,137.7,568.9z"/>
			
				<radialGradient id="SVGID_19_" cx="53.3823" cy="373.6436" r="15.3634" gradientTransform="matrix(2.2674 0 0 0.5941 159.7724 320.2567)" gradientUnits="userSpaceOnUse">
				<stop  offset="0" style="stop-color:#FFFFFF"/>
				<stop  offset="1" style="stop-color:#FFFFFF;stop-opacity:0"/>
			</radialGradient>
			<path fill="url(#SVGID_19_)" d="M315.5,551.3c-0.2,0.102-0.3,0.102-0.3,0.102c-28.4-4.302-51.4-10.102-68.9-17.302
				c-0.1-0.1-0.2-0.198-0.2-0.198c-0.1-0.2-0.1-0.302,0-0.5c0.1-0.102,0.2-0.2,0.2-0.2c0.2-0.102,0.3-0.102,0.5,0
				c17.4,7.3,40.2,13,68.6,17.2c0.2,0,0.3,0.1,0.3,0.198c0.1,0.102,0.1,0.2,0,0.302C315.6,551.1,315.6,551.2,315.5,551.3z"/>
			
				<radialGradient id="SVGID_20_" cx="84.835" cy="493.833" r="9.1751" gradientTransform="matrix(2.2674 0 0 2.1593 159.7724 -497.8015)" gradientUnits="userSpaceOnUse">
				<stop  offset="0" style="stop-color:#FFFFFF"/>
				<stop  offset="1" style="stop-color:#FFFFFF;stop-opacity:0"/>
			</radialGradient>
			<path fill="url(#SVGID_20_)" d="M325.5,552.8c-0.1,0-0.2,0-0.3-0.1c-0.1-0.2-0.1-0.3,0-0.3c0-0.2,0-0.302,0.1-0.302
				c0.2-0.198,0.3-0.198,0.3-0.1c2,0.2,4,0.5,6,0.7c14.1,1.7,22.6,5.898,25.5,12.5c1.301,2.8,1.2,5.6-0.3,8.3
				c-1.399,2.6-4,4.7-7.6,6.2c-2.9,1.2-7.1,2.3-12.4,3.2c-2.6,0.5-5.4,0.8-8.5,1.1c-1.3,0.2-2.6,0.3-3.9,0.3c-0.1,0-0.2,0-0.2,0
				c-0.2-0.2-0.2-0.3-0.2-0.3c0-0.2,0-0.3,0.1-0.3c0.1-0.2,0.2-0.2,0.3-0.2c1.3-0.2,2.5-0.3,3.7-0.3c3.1-0.4,5.9-0.8,8.4-1.102
				c5.2-0.898,9.3-2,12.2-3.198c3.3-1.4,5.7-3.302,7.1-5.802c1.3-2.398,1.4-4.898,0.2-7.5c-2.9-6.3-11.1-10.198-24.7-11.8
				C329.5,553.3,327.4,553,325.5,552.8z"/>
			
				<radialGradient id="SVGID_21_" cx="42.8145" cy="313.8682" r="17.9411" gradientTransform="matrix(2.2674 0 0 0.3897 159.7724 462.5117)" gradientUnits="userSpaceOnUse">
				<stop  offset="0" style="stop-color:#FFFFFF"/>
				<stop  offset="1" style="stop-color:#FFFFFF;stop-opacity:0"/>
			</radialGradient>
			<path fill="url(#SVGID_21_)" d="M199.1,585.9c-0.2,0-0.3,0-0.3-0.102c-0.1-0.2-0.1-0.3-0.1-0.3c0-0.2,0-0.3,0.1-0.3
				c0.1-0.2,0.2-0.2,0.3-0.2c8.2,0,18.3-0.1,30.2-0.3c26.5-0.602,47.6-0.7,63.4-0.3c7.8,0.198,15.1,0.1,21.9-0.2
				c0.1,0,0.2,0,0.3,0.1c0.1,0.102,0.1,0.2,0.1,0.3c0,0.102,0,0.302-0.1,0.302s-0.2,0.1-0.3,0.1c-6.8,0.4-14.1,0.5-21.9,0.3
				c-15.8-0.398-36.9-0.3-63.4,0.2C217.4,585.6,207.3,585.8,199.1,585.9z"/>
		</g>
	</g>
	<g>
		<g>
			<path fill-opacity="0.498" d="M245.3,557.8c-0.8,0.8-1.7,1.2-2.9,1.2c-1.1,0-2.1-0.4-2.9-1.2s-1.2-1.7-1.2-2.898
				c0-1.102,0.4-2.102,1.2-2.9s1.7-1.2,2.9-1.2c1.1,0,2.1,0.4,2.9,1.2c0.8,0.8,1.2,1.7,1.2,2.9C246.5,556.1,246.1,557,245.3,557.8z"
				/>
			
				<linearGradient id="SVGID_22_" gradientUnits="userSpaceOnUse" x1="375.3301" y1="-244.604" x2="399.5317" y2="-244.604" gradientTransform="matrix(0.3336 0 0 0.3336 112.5764 636.3)">
				<stop  offset="0" style="stop-color:#E8E8E0"/>
				<stop  offset="1" style="stop-color:#49484A"/>
			</linearGradient>
			<path fill="url(#SVGID_22_)" d="M244.7,557.6c-0.8,0.802-1.7,1.2-2.9,1.2c-1.1,0-2.1-0.398-2.9-1.2c-0.8-0.8-1.2-1.698-1.2-2.898
				c0-1.102,0.4-2.102,1.2-2.9c0.8-0.8,1.7-1.2,2.9-1.2c1.1,0,2.1,0.4,2.9,1.2c0.8,0.8,1.2,1.7,1.2,2.9S245.5,556.8,244.7,557.6z"/>
			
				<linearGradient id="SVGID_23_" gradientUnits="userSpaceOnUse" x1="409.0488" y1="-277.3657" x2="433.25" y2="-277.3657" gradientTransform="matrix(0.2969 0 0 0.2969 116.8435 637.0491)">
				<stop  offset="0" style="stop-color:#77777A"/>
				<stop  offset="1" style="stop-color:#595F6F"/>
			</linearGradient>
			<path fill="url(#SVGID_23_)" d="M244.4,557.2c-0.7,0.7-1.5,1.1-2.5,1.1s-1.8-0.398-2.5-1.1c-0.7-0.7-1.1-1.5-1.1-2.5
				s0.4-1.8,1.1-2.5c0.7-0.7,1.5-1.102,2.5-1.102s1.8,0.4,2.5,1.102c0.7,0.7,1.1,1.5,1.1,2.5S245.1,556.5,244.4,557.2z"/>
			
				<rect x="238.192" y="553.938" transform="matrix(0.3614 -0.9324 0.9324 0.3614 -362.7156 579.277)" fill="#363840" width="6.7" height="1"/>
			
				<rect x="238.792" y="554.239" transform="matrix(0.3614 -0.9324 0.9324 0.3614 -362.613 580.0284)" fill="#AAB2B4" width="6.7" height="1"/>
			
				<rect x="238.245" y="553.971" transform="matrix(0.3614 -0.9324 0.9324 0.3614 -362.7122 579.3483)" fill="#6A7579" width="6.7" height="1"/>
			
				<rect x="238.412" y="554.124" transform="matrix(0.3614 -0.9324 0.9324 0.3614 -362.7485 579.6019)" fill="#363840" width="6.7" height="1"/>
		</g>
	</g>
	<g>
		<g>
			<path fill-opacity="0.498" d="M81.3,488.4c-0.8,0.8-1.7,1.198-2.9,1.198c-1.1,0-2.1-0.398-2.9-1.198c-0.8-0.802-1.2-1.7-1.2-2.9
				c0-1.1,0.4-2.1,1.2-2.9c0.8-0.8,1.7-1.198,2.9-1.198c1.1,0,2.1,0.398,2.9,1.198c0.8,0.802,1.2,1.7,1.2,2.9S82.1,487.6,81.3,488.4
				z"/>
			
				<linearGradient id="SVGID_24_" gradientUnits="userSpaceOnUse" x1="375.3311" y1="-244.6045" x2="399.5313" y2="-244.6045" gradientTransform="matrix(0.3336 0 0 0.3336 -51.4236 566.9006)">
				<stop  offset="0" style="stop-color:#E8E8E0"/>
				<stop  offset="1" style="stop-color:#49484A"/>
			</linearGradient>
			<path fill="url(#SVGID_24_)" d="M80.7,488.2c-0.8,0.8-1.7,1.2-2.9,1.2c-1.1,0-2.1-0.4-2.9-1.2c-0.8-0.8-1.2-1.7-1.2-2.9
				c0-1.1,0.4-2.1,1.2-2.898c0.8-0.802,1.7-1.2,2.9-1.2c1.1,0,2.1,0.398,2.9,1.2c0.8,0.8,1.2,1.698,1.2,2.898S81.5,487.4,80.7,488.2
				z"/>
			
				<linearGradient id="SVGID_25_" gradientUnits="userSpaceOnUse" x1="409.0488" y1="-277.3633" x2="433.25" y2="-277.3633" gradientTransform="matrix(0.2969 0 0 0.2969 -47.1565 567.6497)">
				<stop  offset="0" style="stop-color:#77777A"/>
				<stop  offset="1" style="stop-color:#595F6F"/>
			</linearGradient>
			<path fill="url(#SVGID_25_)" d="M80.4,487.8c-0.7,0.7-1.5,1.102-2.5,1.102s-1.8-0.4-2.5-1.102c-0.7-0.7-1.1-1.5-1.1-2.5
				s0.4-1.8,1.1-2.5c0.7-0.7,1.5-1.1,2.5-1.1s1.8,0.398,2.5,1.1c0.7,0.7,1.1,1.5,1.1,2.5S81.1,487.1,80.4,487.8z"/>
			
				<rect x="74.193" y="484.509" transform="matrix(0.3614 -0.9324 0.9324 0.3614 -402.7086 382.026)" fill="#363840" width="6.7" height="1"/>
			
				<rect x="74.793" y="484.81" transform="matrix(0.3614 -0.9324 0.9324 0.3614 -402.6057 382.7779)" fill="#AAB2B4" width="6.7" height="1"/>
			
				<rect x="74.247" y="484.542" transform="matrix(0.3614 -0.9324 0.9324 0.3614 -402.7046 382.0972)" fill="#6A7579" width="6.7" height="1"/>
			
				<rect x="74.414" y="484.695" transform="matrix(0.3614 -0.9324 0.9324 0.3614 -402.7403 382.3508)" fill="#363840" width="6.7" height="1"/>
		</g>
	</g>
	<g>
		<g>
			<path fill-opacity="0.498" d="M81.3,557.8c-0.8,0.8-1.7,1.2-2.9,1.2c-1.1,0-2.1-0.4-2.9-1.2s-1.2-1.7-1.2-2.898
				c0-1.102,0.4-2.102,1.2-2.9s1.7-1.2,2.9-1.2c1.1,0,2.1,0.4,2.9,1.2c0.8,0.8,1.2,1.7,1.2,2.9C82.5,556.1,82.1,557,81.3,557.8z"/>
			
				<linearGradient id="SVGID_26_" gradientUnits="userSpaceOnUse" x1="375.3311" y1="-244.604" x2="399.5313" y2="-244.604" gradientTransform="matrix(0.3336 0 0 0.3336 -51.4236 636.3)">
				<stop  offset="0" style="stop-color:#E8E8E0"/>
				<stop  offset="1" style="stop-color:#49484A"/>
			</linearGradient>
			<path fill="url(#SVGID_26_)" d="M80.7,557.6c-0.8,0.802-1.7,1.2-2.9,1.2c-1.1,0-2.1-0.398-2.9-1.2c-0.8-0.8-1.2-1.698-1.2-2.898
				c0-1.102,0.4-2.102,1.2-2.9c0.8-0.8,1.7-1.2,2.9-1.2c1.1,0,2.1,0.4,2.9,1.2c0.8,0.8,1.2,1.7,1.2,2.9S81.5,556.8,80.7,557.6z"/>
			
				<linearGradient id="SVGID_27_" gradientUnits="userSpaceOnUse" x1="409.0488" y1="-277.3657" x2="433.25" y2="-277.3657" gradientTransform="matrix(0.2969 0 0 0.2969 -47.1565 637.0491)">
				<stop  offset="0" style="stop-color:#77777A"/>
				<stop  offset="1" style="stop-color:#595F6F"/>
			</linearGradient>
			<path fill="url(#SVGID_27_)" d="M80.4,557.2c-0.7,0.7-1.5,1.1-2.5,1.1s-1.8-0.398-2.5-1.1c-0.7-0.7-1.1-1.5-1.1-2.5
				s0.4-1.8,1.1-2.5c0.7-0.7,1.5-1.102,2.5-1.102s1.8,0.4,2.5,1.102c0.7,0.7,1.1,1.5,1.1,2.5S81.1,556.5,80.4,557.2z"/>
			
				<rect x="74.187" y="553.937" transform="matrix(0.3614 -0.9324 0.9324 0.3614 -467.4474 426.3568)" fill="#363840" width="6.7" height="1"/>
			
				<rect x="74.787" y="554.237" transform="matrix(0.3614 -0.9324 0.9324 0.3614 -467.3443 427.1078)" fill="#AAB2B4" width="6.7" height="1"/>
			
				<rect x="74.257" y="553.987" transform="matrix(0.3613 -0.9324 0.9324 0.3613 -467.4576 426.4912)" fill="#6A7579" width="6.7" height="1"/>
			
				<rect x="74.408" y="554.122" transform="matrix(0.3614 -0.9324 0.9324 0.3614 -467.4785 426.6804)" fill="#363840" width="6.7" height="1"/>
		</g>
	</g>
</g>
<g>
	<path d="M314.8,516.7v3c-27.2,8.6-50.2,13.6-69,14.8c-0.4,0-0.8-0.1-1-0.3c-0.3-0.3-0.5-0.7-0.5-1c0-0.4,0.1-0.8,0.3-1.102
		c0.3-0.3,0.7-0.5,1.1-0.5C264.4,530.4,287.5,525.4,314.8,516.7z"/>
	
		<radialGradient id="SVGID_28_" cx="301.9375" cy="374.457" r="34.8438" gradientTransform="matrix(0.897 -0.442 0.1158 0.2351 -34.2464 571.0497)" gradientUnits="userSpaceOnUse">
		<stop  offset="0" style="stop-color:#FFFFFF"/>
		<stop  offset="1" style="stop-color:#FFFFFF;stop-opacity:0"/>
	</radialGradient>
	<path fill="url(#SVGID_28_)" d="M315.2,518.5c-0.1,0.1-0.2,0.2-0.3,0.2c-27.4,8.7-50.6,13.7-69.5,14.898c-0.1,0-0.2,0-0.3,0
		c-0.2-0.1-0.2-0.3-0.2-0.5c0-0.1,0-0.198,0.1-0.3c0.1-0.1,0.2-0.2,0.4-0.2c18.8-1.1,41.8-6.1,69.1-14.8c0.1-0.1,0.3,0,0.4,0
		s0.1,0.102,0.1,0.3C315.2,518.2,315.2,518.3,315.2,518.5z"/>
</g>
<g>
	<g>
		
			<radialGradient id="SVGID_29_" cx="160.1846" cy="61.5254" r="189.4523" gradientTransform="matrix(1.0205 0 0 1.1162 2.4324 72.5756)" gradientUnits="userSpaceOnUse">
			<stop  offset="0" style="stop-color:#FEFEFE"/>
			<stop  offset="1" style="stop-color:#DBDBDB"/>
		</radialGradient>
		<rect x="6.5" y="21.5" fill="url(#SVGID_29_)" width="318.8" height="239.5"/>
		
			<rect x="6.5" y="21.5" fill="none" stroke="#9C9C9C" stroke-linecap="round" stroke-linejoin="round" stroke-miterlimit="3" width="318.8" height="239.5"/>
	</g>
</g>
</svg>
