<?xml version="1.0" encoding="utf-8"?>
<!-- Generator: Adobe Illustrator 16.0.0, SVG Export Plug-In . SVG Version: 6.00 Build 0)  -->
<!DOCTYPE svg PUBLIC "-//W3C//DTD SVG 1.1//EN" "http://www.w3.org/Graphics/SVG/1.1/DTD/svg11.dtd">
<svg version="1.1" id="Layer_1" xmlns="http://www.w3.org/2000/svg" xmlns:xlink="http://www.w3.org/1999/xlink" x="0px" y="0px"
	 width="116.3px" height="49.2px" viewBox="2.8 497.5 116.3 49.2" enable-background="new 2.8 497.5 116.3 49.2"
	 xml:space="preserve">
<g>
	<g>
		
			<linearGradient id="SVGID_1_" gradientUnits="userSpaceOnUse" x1="-635.0508" y1="245.7295" x2="-617.0628" y2="245.7295" gradientTransform="matrix(0.9923 -0.1237 -0.8279 -0.9045 905.3177 680.3247)">
			<stop  offset="0" style="stop-color:#000000"/>
			<stop  offset="1" style="stop-color:#000000;stop-opacity:0"/>
		</linearGradient>
		<path fill="url(#SVGID_1_)" d="M6.9,535.7h11.2h12.7h2.9h56.7c1.3,0,2.4,0.2,3.1,0.7l7.8,5c0.1,0.4-0.3,0.7-1.3,0.7H33.6h-2.9
			H18.1H9c-1,0-1.6-0.2-1.8-0.7l-1.6-5C5.4,535.9,5.9,535.7,6.9,535.7z"/>
	</g>
	<g>
		<path fill-opacity="0.2471" d="M77.6,534.3l0.5,0.2c8.8,2.1,19.5,3.5,32.2,4.3c2.9,0.4,4.8,0.8,5.8,1.2c0.8,0.3,1.1,0.7,0.9,1.1
			c0,0.4-0.3,0.7-1.1,1c-2.1,0.8-8,1.7-17.8,2.7l-0.6,0.1l-0.1-1.1h0.5c9.7-1,15.5-1.9,17.5-2.7c0.2-0.1,0.3-0.1,0.4-0.1
			c-0.1,0-0.1,0-0.3-0.1c-0.9-0.4-2.7-0.7-5.4-1c-12.7-0.7-23.5-2.1-32.4-4.3l-0.5-0.1L77.6,534.3z M42.4,543.4
			c4.8,1,12.5,1.2,23.1,0.6h0.6v1h-0.5c-10.8,0.6-18.6,0.4-23.4-0.6c-2.6-0.5-4.3-1.2-5.3-2.2c-1.1-1-1.4-2.3-0.7-3.8l0.2-0.5l1,0.4
			l-0.3,0.5c-0.5,1.1-0.3,2,0.4,2.7C38.5,542.3,40.1,543,42.4,543.4z"/>
	</g>
	<g>
		<g>
			
				<linearGradient id="SVGID_2_" gradientUnits="userSpaceOnUse" x1="-137.2021" y1="241.4863" x2="-126.6772" y2="241.4863" gradientTransform="matrix(1 0 0 -1 202.3398 780.0391)">
				<stop  offset="0" style="stop-color:#283E4B"/>
				<stop  offset="0.3686" style="stop-color:#739EA2"/>
				<stop  offset="0.502" style="stop-color:#80C4C2"/>
				<stop  offset="0.5961" style="stop-color:#84ABAE"/>
				<stop  offset="1" style="stop-color:#494B58"/>
			</linearGradient>
			<path fill="url(#SVGID_2_)" d="M66.6,541.1l-1.9-5.3h11l-1.6,5.1C71.6,541.4,69.1,541.4,66.6,541.1z"/>
			
				<linearGradient id="SVGID_3_" gradientUnits="userSpaceOnUse" x1="-188.7524" y1="241.2822" x2="-178.2274" y2="241.2822" gradientTransform="matrix(1 0 0 -1 202.3398 780.0391)">
				<stop  offset="0" style="stop-color:#283E4B"/>
				<stop  offset="0.3686" style="stop-color:#739EA2"/>
				<stop  offset="0.502" style="stop-color:#80C4C2"/>
				<stop  offset="0.5961" style="stop-color:#84ABAE"/>
				<stop  offset="1" style="stop-color:#494B58"/>
			</linearGradient>
			<path fill="url(#SVGID_3_)" d="M15,541.3l-1.8-5.3h11l-1.6,5.2C20.1,541.6,17.6,541.6,15,541.3z"/>
		</g>
	</g>
	<g>
		<g>
			
				<linearGradient id="SVGID_4_" gradientUnits="userSpaceOnUse" x1="-185.0581" y1="256.0098" x2="-182.3355" y2="257.5888" gradientTransform="matrix(1 0 0 -1 202.3398 780.0391)">
				<stop  offset="0" style="stop-color:#717C90"/>
				<stop  offset="0.4235" style="stop-color:#D2EAEA"/>
				<stop  offset="0.5647" style="stop-color:#DEF0F0"/>
				<stop  offset="0.8" style="stop-color:#D1E9E8"/>
				<stop  offset="1" style="stop-color:#ABD7D6"/>
			</linearGradient>
			<path fill="url(#SVGID_4_)" d="M7.4,534.8c-0.2,0.4-0.4,1.2-0.6,2.3c-0.1,0-0.5-0.9-1.4-2.7c-0.5-1.1-0.8-2-1-2.6
				c-0.1-0.4-0.2-0.7-0.2-0.8v-30.5c0.1-0.9,0.8-1.5,2.2-1.8c4.1,0,6.1,0,6.1,0H63l14.8,3.7l0.8,0.4l0.3,0.1
				c0.7,0.2,1.1,0.6,1.3,1.2c0.1,0.2,0.1,0.5,0.1,0.9v0.1v14.3h-1.1V505c0-0.6-0.3-0.9-0.9-1c0,0-0.1,0-0.2,0H8.4
				c-0.6,0.1-0.9,0.5-1,1c0,0.1,0,0.2,0,0.3V534.8z"/>
			<path fill="#DEF0F0" d="M7.4,534.8v2.3H6.8C7,536,7.2,535.3,7.4,534.8z M79.1,537.1v-11.6h1.1v5.7c0,2.4,0,4.3,0,5.9H79.1
				L79.1,537.1z"/>
		</g>
	</g>
	<g>
		
			<linearGradient id="SVGID_5_" gradientUnits="userSpaceOnUse" x1="-189.54" y1="259.3394" x2="-123.14" y2="259.3394" gradientTransform="matrix(1 0 0 -1 202.3398 780.0391)">
			<stop  offset="0" style="stop-color:#18243A"/>
			<stop  offset="1" style="stop-color:#151B2B"/>
		</linearGradient>
		<path fill="url(#SVGID_5_)" d="M79.1,505.3v31.8H7.5v-31.5c0-0.1,0-0.2,0-0.3c0.1-0.6,0.4-1,1-1h0.1h69.6c0.1,0,0.2,0,0.2,0
			C78.8,504.4,79.1,504.7,79.1,505.3z"/>
	</g>
	<g>
		<g>
			
				<linearGradient id="SVGID_6_" gradientUnits="userSpaceOnUse" x1="-159.0396" y1="275.4521" x2="-159.0396" y2="272.3271" gradientTransform="matrix(1 0 0 -1 202.3398 780.0391)">
				<stop  offset="0" style="stop-color:#000000"/>
				<stop  offset="1" style="stop-color:#000000;stop-opacity:0"/>
			</linearGradient>
			<path fill="url(#SVGID_6_)" d="M11.5,508l-4.1-3.6c0.2-0.2,0.4-0.3,0.7-0.3h70c0.1,0,0.2,0,0.2,0c0.5,0.1,0.8,0.5,0.9,1.1v2.7
				L11.5,508L11.5,508z"/>
			
				<linearGradient id="SVGID_7_" gradientUnits="userSpaceOnUse" x1="-159.2524" y1="241.6523" x2="-159.2524" y2="245.4274" gradientTransform="matrix(1 0 0 -1 202.3398 780.0391)">
				<stop  offset="0.4196" style="stop-color:#000000"/>
				<stop  offset="1" style="stop-color:#000000;stop-opacity:0"/>
			</linearGradient>
			<path fill="url(#SVGID_7_)" d="M7.1,537l4.7-2.8H79c0.3,2-0.3,3-1.7,2.9L7.1,537L7.1,537z"/>
			
				<linearGradient id="SVGID_8_" gradientUnits="userSpaceOnUse" x1="-194.9521" y1="259.3389" x2="-191.1272" y2="259.3389" gradientTransform="matrix(1 0 0 -1 202.3398 780.0391)">
				<stop  offset="0" style="stop-color:#000000"/>
				<stop  offset="1" style="stop-color:#000000;stop-opacity:0"/>
			</linearGradient>
			<path fill="url(#SVGID_8_)" d="M11.8,534.2L7.1,537v-31.5c0-0.1,0-0.2,0-0.3c0-0.3,0.1-0.6,0.3-0.8l4.1,3.6v26.2H11.8z"/>
		</g>
	</g>
	<g>
		<path fill="#DEF0F0" d="M78,503.2c1.6,0,2.4,0.8,2.4,2.4v30.3c0,1.6-0.8,2.4-2.4,2.4H9c-1.6,0-2.5-0.8-2.5-2.4v-30.3
			c0-1.6,0.8-2.4,2.5-2.4H78L78,503.2z M79.1,505.6c0-0.8-0.4-1.2-1.1-1.2H9c-0.8,0-1.2,0.4-1.2,1.2v30.3c0,0.8,0.4,1.1,1.2,1.1h69
			c0.8,0,1.1-0.4,1.1-1.1V505.6z"/>
	</g>
	<path fill="#0C0F18" d="M19.9,515.6c0-1.5,0.7-2.2,2.2-2.2h45.8c1.5,0,2.2,0.7,2.2,2.2v13.6c0,1.5-0.7,2.2-2.2,2.2H22.1
		c-1.5,0-2.2-0.7-2.2-2.2V515.6z"/>
	<g>
		<path fill="#260F15" d="M21.7,513.5H67c1.2,0,1.8,0.6,1.8,1.8v12.9c0,1.2-0.6,1.7-1.8,1.7H21.7c-1.1,0-1.7-0.6-1.7-1.7v-12.9
			C20,514.1,20.6,513.5,21.7,513.5z"/>
		<path fill="#77ABA9" d="M19,515.3c0-1.8,0.9-2.7,2.7-2.7H67c1.8,0,2.7,0.9,2.7,2.7v12.9c0,1.8-0.9,2.7-2.7,2.7H21.7
			c-1.8,0-2.7-0.9-2.7-2.7V515.3z M21.7,513.5c-1.1,0-1.7,0.6-1.7,1.8v12.9c0,1.2,0.6,1.7,1.7,1.7H67c1.2,0,1.8-0.6,1.8-1.7v-12.9
			c0-1.2-0.6-1.8-1.8-1.8H21.7z"/>
	</g>
	<g>
		<g>
			<path fill-opacity="0.502" d="M12.5,519.7c0.6-0.6,1.3-0.9,2-0.9c0.8,0,1.5,0.3,2.1,0.9c0.6,0.5,0.9,1.2,0.9,2.1
				c0,0.8-0.3,1.5-0.9,2c-0.5,0.6-1.2,0.9-2.1,0.9c-0.8,0-1.5-0.3-2-0.9l0,0c-0.6-0.5-0.9-1.2-0.9-2
				C11.6,520.9,11.9,520.2,12.5,519.7z"/>
		</g>
		<g>
			<g>
				
					<linearGradient id="SVGID_9_" gradientUnits="userSpaceOnUse" x1="-189.6538" y1="264.1846" x2="-187.3377" y2="255.5072" gradientTransform="matrix(1 0 0 -1 202.3398 780.0391)">
					<stop  offset="0" style="stop-color:#A29C9C"/>
					<stop  offset="1" style="stop-color:#223148"/>
				</linearGradient>
				<path fill="url(#SVGID_9_)" d="M16.1,518.9L16.1,518.9c0.6,0.6,0.9,1.3,0.9,2.1s-0.3,1.5-0.9,2c-0.5,0.6-1.2,0.9-2,0.9
					c-0.8,0-1.5-0.3-2.1-0.9s-0.9-1.3-0.9-2c0-0.8,0.3-1.5,0.9-2c0.6-0.6,1.3-0.9,2.1-0.9C14.9,518.1,15.6,518.4,16.1,518.9z
					 M15.6,519.4c-0.4-0.4-0.9-0.6-1.5-0.6s-1.1,0.2-1.6,0.6c-0.4,0.4-0.6,1-0.6,1.6s0.2,1.1,0.6,1.5c0.5,0.4,1,0.7,1.6,0.7
					s1.1-0.2,1.5-0.7c0.5-0.4,0.7-1,0.7-1.5C16.4,520.4,16.1,519.8,15.6,519.4z"/>
				
					<radialGradient id="SVGID_10_" cx="-188.2402" cy="259.1396" r="2.0877" gradientTransform="matrix(1 0 0 -1 202.3398 780.0391)" gradientUnits="userSpaceOnUse">
					<stop  offset="0" style="stop-color:#5D1018"/>
					<stop  offset="0.2706" style="stop-color:#540F15"/>
					<stop  offset="1" style="stop-color:#300809"/>
				</radialGradient>
				<path fill="url(#SVGID_10_)" d="M15.6,519.4c0.5,0.4,0.7,1,0.7,1.6s-0.2,1.1-0.7,1.5c-0.4,0.4-0.9,0.7-1.5,0.7s-1.1-0.2-1.6-0.7
					c-0.4-0.4-0.6-1-0.6-1.5c0-0.6,0.2-1.2,0.6-1.6c0.5-0.4,1-0.6,1.6-0.6S15.2,519,15.6,519.4z"/>
			</g>
		</g>
		<g>
			<g>
				
					<linearGradient id="SVGID_11_" gradientUnits="userSpaceOnUse" x1="-187.77" y1="261.0981" x2="-189.0772" y2="259.5027" gradientTransform="matrix(1 0 0 -1 202.3398 780.0391)">
					<stop  offset="0" style="stop-color:#FFFFFF;stop-opacity:0.5216"/>
					<stop  offset="1" style="stop-color:#FAFAFA;stop-opacity:0"/>
				</linearGradient>
				<path fill="url(#SVGID_11_)" d="M15,519.8c0,0.2-0.1,0.3-0.3,0.5c-0.2,0.2-0.5,0.3-0.8,0.3c-0.3,0-0.5-0.1-0.8-0.3
					c-0.2-0.1-0.3-0.3-0.3-0.5s0.1-0.4,0.3-0.6c0.2-0.1,0.5-0.2,0.8-0.3c0.3,0,0.5,0,0.8,0.3C15,519.4,15,519.6,15,519.8z"/>
			</g>
		</g>
	</g>
	<g>
		<g>
			<path fill="#FFFFFF" fill-opacity="0.4549" d="M62.3,508.8v1.7h-0.4v-1.7h-0.6v-0.3h1.6v0.3H62.3z M61,510.5h-0.4v-2H61V510.5z
				 M49.7,508.8h-0.6v1.7h-0.4v-1.7h-0.6v-0.3h1.6V508.8z M50.4,508.8v0.6h0.2c0.2,0,0.3,0,0.4,0s0.1-0.1,0.1-0.1s0.1-0.1,0.1-0.2
				c0-0.1,0-0.1-0.1-0.1c0-0.1-0.1-0.1-0.1-0.1c-0.1,0-0.2,0-0.4,0h-0.2V508.8z M50.4,510.5H50v-2h0.6c0.3,0,0.4,0,0.5,0
				c0.1,0.1,0.2,0.1,0.3,0.3c0.1,0.1,0.1,0.2,0.1,0.4c0,0.1,0,0.2,0,0.3c-0.1,0.1-0.1,0.1-0.2,0.2c-0.1,0.1-0.1,0.1-0.3,0.1
				c-0.1,0-0.2,0-0.4,0h-0.3v0.7H50.4z M47.8,508.4v1c0,0.3,0,0.5,0,0.5s-0.1,0.2-0.1,0.3c0,0.1-0.1,0.1-0.3,0.2c-0.1,0-0.2,0-0.4,0
				s-0.4,0-0.5,0c-0.1-0.1-0.2-0.1-0.3-0.2c-0.1-0.1-0.1-0.2-0.1-0.3c0-0.1-0.1-0.3-0.1-0.5v-1.1h0.4v1.1c0,0.2,0,0.3,0,0.3
				c0,0.1,0.1,0.1,0.2,0.2c0.1,0.1,0.2,0.1,0.3,0.1s0.2,0,0.3-0.1c0.1-0.1,0.1-0.1,0.1-0.1c0-0.1,0-0.2,0-0.4v-1.1h0.5V508.4z
				 M45.5,508.7c0.2,0.2,0.3,0.4,0.3,0.8c0,0.3-0.1,0.6-0.3,0.8s-0.4,0.3-0.7,0.3c-0.3,0-0.5-0.1-0.7-0.3c-0.2-0.2-0.3-0.4-0.3-0.8
				l0,0c0-0.2,0-0.3,0-0.5c0.1-0.1,0.1-0.2,0.3-0.3c0.1-0.1,0.1-0.2,0.3-0.2c0.1,0,0.3,0,0.5,0C45.1,508.4,45.4,508.5,45.5,508.7z
				 M44.5,508.9c-0.1,0.1-0.2,0.3-0.2,0.5c0,0.2,0.1,0.4,0.2,0.5c0.1,0.1,0.2,0.2,0.4,0.2c0.2,0,0.3-0.1,0.4-0.2
				c0.1-0.1,0.1-0.3,0.1-0.5c0-0.2,0-0.4-0.1-0.5c-0.1-0.1-0.2-0.2-0.4-0.2C44.7,508.7,44.5,508.8,44.5,508.9z M42.7,508.4v2h-0.4
				l-0.8-1.3v1.3h-0.4v-2h0.4l0.9,1.3v-1.3H42.7z M40.5,510.2c-0.2,0.2-0.4,0.3-0.7,0.3c-0.3,0-0.5-0.1-0.8-0.3
				c-0.2-0.2-0.3-0.4-0.3-0.8c0-0.2,0-0.4,0.1-0.5c0-0.1,0.1-0.2,0.2-0.3c0.1-0.1,0.1-0.2,0.3-0.2c0.2,0,0.2,0,0.4,0
				c0.3,0,0.5,0.1,0.8,0.3c0.2,0.2,0.3,0.4,0.3,0.8C40.8,509.8,40.7,510,40.5,510.2z M60.2,508.4v2h-0.4l-0.8-1.3v1.3h-0.4v-2H59
				l0.8,1.3v-1.3H60.2z M58.1,508.4v1c0,0.3,0,0.5,0,0.5c0,0.1-0.1,0.2-0.1,0.3c0,0.1-0.1,0.1-0.3,0.2c-0.1,0-0.2,0-0.4,0
				c-0.2,0-0.4,0-0.5,0c-0.1-0.1-0.2-0.1-0.3-0.2c0-0.1-0.1-0.2-0.1-0.3c-0.1-0.1-0.1-0.3-0.1-0.5v-1.1h0.4v1.1c0,0.2,0,0.3,0,0.3
				c0,0.1,0.1,0.1,0.1,0.2c0.1,0.1,0.2,0.1,0.3,0.1s0.2,0,0.3-0.1c0.1-0.1,0.1-0.1,0.1-0.1c0-0.1,0-0.2,0-0.4v-1.1h0.6V508.4z
				 M54.8,508.8v1.7h-0.4v-1.7h-0.6v-0.3h1.6v0.3H54.8z M53.4,510.3c-0.1,0.1-0.1,0.1-0.2,0.2c-0.1,0-0.3,0-0.4,0
				c-0.2,0-0.3,0-0.4,0c-0.1-0.1-0.2-0.1-0.3-0.2c-0.1-0.1-0.1-0.2-0.1-0.3s0-0.3,0-0.5v-1.1h0.4v1.1c0,0.2,0,0.3,0,0.3
				c0,0.1,0.1,0.1,0.2,0.2s0.1,0.1,0.3,0.1c0.1,0,0.2,0,0.3-0.1c0.1-0.1,0.1-0.1,0.1-0.1c0-0.1,0-0.2,0-0.4v-1.1h0.4v1
				c0,0.3,0,0.5,0,0.5C53.5,510.1,53.4,510.2,53.4,510.3z M30.2,508.8h-1.1v0.5h1v0.3h-1v0.5h1.1v0.4h-1.5v-2h1.5V508.8z
				 M28.3,509.9c-0.1,0.1-0.1,0.3-0.3,0.3c-0.1,0.1-0.2,0.1-0.3,0.2c-0.1,0-0.2,0-0.4,0h-0.8v-2h0.8c0.1,0,0.3,0,0.4,0
				c0.1,0,0.2,0.1,0.3,0.2c0.1,0.1,0.2,0.2,0.3,0.3c0,0.2,0,0.3,0,0.5C28.3,509.6,28.3,509.8,28.3,509.9z M27.9,509.5
				c0-0.2,0-0.3,0-0.4c0-0.1-0.1-0.1-0.1-0.1c0-0.1-0.1-0.1-0.2-0.1c0,0-0.1,0-0.3,0H27v1.3h0.4c0.1,0,0.2,0,0.3,0
				c0.1,0,0.1-0.1,0.1-0.1s0.1-0.1,0.1-0.2C27.9,509.7,27.9,509.6,27.9,509.5z M39.8,508.7c-0.2,0-0.3,0.1-0.4,0.2
				c-0.1,0.1-0.2,0.3-0.2,0.5c0,0.2,0.1,0.4,0.2,0.5c0.1,0.1,0.2,0.2,0.4,0.2c0.1,0,0.3-0.1,0.4-0.2c0.1-0.1,0.1-0.3,0.1-0.5
				c0-0.2-0.1-0.4-0.1-0.5C40.1,508.8,39.9,508.7,39.8,508.7z M38.5,508.4v2h-0.4v-2H38.5z M37.8,508.8h-0.6v1.7h-0.5v-1.7h-0.5
				v-0.3h1.6V508.8z M35.5,509.1c0-0.1-0.1-0.2-0.1-0.3c-0.1-0.1-0.2-0.1-0.3-0.1c-0.2,0-0.3,0.1-0.4,0.2c-0.1,0.1-0.1,0.3-0.1,0.5
				c0,0.2,0,0.4,0.1,0.5c0.1,0.1,0.2,0.2,0.4,0.2c0.1,0,0.2-0.1,0.3-0.2c0.1,0,0.1-0.1,0.1-0.3l0.4,0.1c0,0.2-0.1,0.4-0.3,0.5
				c-0.1,0.1-0.3,0.2-0.5,0.2c-0.3,0-0.5-0.1-0.7-0.3c-0.2-0.2-0.3-0.4-0.3-0.8c0-0.4,0.1-0.6,0.3-0.8c0.2-0.2,0.4-0.3,0.7-0.3
				c0.2,0,0.4,0.1,0.6,0.2c0.1,0.1,0.2,0.2,0.2,0.4L35.5,509.1z M33.9,508.8h-1.1v0.5h1v0.3h-1v0.5h1.1v0.4h-1.5v-2h1.5V508.8z
				 M32,508.8h-0.6v1.7H31v-1.7h-0.6v-0.3H32V508.8z"/>
			<path fill="#FFFFFF" fill-opacity="0.1882" d="M50.5,533v2h-0.4l-0.9-1.3v1.3H49v-2h0.4l0.9,1.3V533H50.5z M47.9,533.3h-1.1v0.5
				h1v0.4h-1v0.5h1.1v0.3h-1.6v-2h1.6V533.3z M44.5,533.3c0,0-0.1,0-0.3,0H44v0.5h0.3c0.2,0,0.3,0,0.4,0h0.1c0,0,0-0.1,0-0.2v-0.1
				C44.7,533.4,44.6,533.3,44.5,533.3z M45.1,533.3c0.1,0.1,0.1,0.2,0.1,0.3c0,0.2-0.1,0.3-0.2,0.4s-0.2,0.1-0.4,0.1
				c0.1,0.1,0.2,0.1,0.3,0.2c0,0.1,0.1,0.2,0.3,0.4l0.2,0.4h-0.5l-0.4-0.5c-0.1-0.2-0.1-0.3-0.2-0.3l-0.1-0.1c0,0-0.1,0-0.2,0l0,0
				v0.9h-0.4v-2h0.9c0.2,0,0.4,0,0.5,0C45,533.1,45,533.2,45.1,533.3z M42.4,533.5c0,0.2,0,0.3-0.1,0.4c-0.1,0.1-0.3,0.1-0.4,0.1
				c0.1,0.1,0.2,0.1,0.3,0.2c0.1,0.1,0.1,0.2,0.3,0.4l0.3,0.4H42l-0.3-0.5c-0.1-0.2-0.2-0.3-0.3-0.3c0,0,0-0.1-0.1-0.1
				c0,0-0.1,0-0.2,0H41v0.9h-0.4v-2h0.9c0.2,0,0.4,0,0.4,0c0.1,0,0.2,0.1,0.3,0.2C42.4,533.3,42.4,533.4,42.4,533.5z M42,533.5
				c-0.1-0.1-0.1-0.1-0.2-0.1c0,0-0.1,0-0.3,0h-0.4v0.5h0.4c0.2,0,0.3,0,0.3,0c0.1,0,0.1,0,0.2,0C42,533.7,42,533.7,42,533.5
				L42,533.5z M53.2,533.3h-0.6v1.7h-0.5v-1.7h-0.5V533h1.6V533.3z M38.5,534.7c0.1,0,0.2,0,0.3,0c0.1,0,0.2,0,0.3,0
				s0.1-0.1,0.1-0.2s0-0.2,0-0.4V533h0.5v1c0,0.2,0,0.4-0.1,0.5c0,0.1-0.1,0.2-0.1,0.3c0,0.1-0.1,0.1-0.2,0.2
				c-0.1,0.1-0.2,0.1-0.4,0.1c-0.2,0-0.3,0-0.4-0.1s-0.2-0.1-0.3-0.2c0-0.1-0.1-0.2-0.1-0.3s0-0.3,0-0.5v-1h0.4v1.1
				c0,0.2,0,0.3,0,0.4C38.4,534.5,38.4,534.6,38.5,534.7z M36.3,533.4c-0.1-0.1-0.2-0.1-0.3-0.1s-0.2,0-0.3,0.2
				c-0.1,0.1-0.2,0.3-0.2,0.5c0,0.3,0.1,0.5,0.2,0.5c0.1,0.1,0.2,0.2,0.3,0.2s0.2,0,0.3-0.1c0.1-0.1,0.2-0.2,0.2-0.3l0.4,0.1
				c-0.1,0.2-0.2,0.4-0.3,0.5c-0.1,0.1-0.3,0.2-0.5,0.2c-0.2,0-0.5-0.1-0.6-0.3c-0.2-0.2-0.3-0.4-0.3-0.8c0-0.3,0.1-0.6,0.3-0.8
				s0.4-0.3,0.7-0.3c0.3,0,0.5,0.1,0.6,0.2c0.1,0.1,0.2,0.2,0.2,0.3l-0.4,0.1C36.5,533.5,36.4,533.5,36.3,533.4z"/>
		</g>
	</g>
	<g>
		<g>
			<path fill-opacity="0.502" d="M16.2,507.1c0.2,0,0.4,0.1,0.5,0.2h0.1c0,0,0.1,0,0.1,0.1c0,0.1,0.1,0.1,0.1,0.2
				c0.1,0.2,0.2,0.4,0.2,0.6l0,0c0,0.3-0.1,0.6-0.4,0.8c-0.1,0.1-0.2,0.1-0.4,0.2c-0.1,0.1-0.2,0.2-0.4,0.2l0,0
				c-0.1,0-0.3,0-0.4-0.1c-0.1,0-0.2-0.1-0.3-0.1l0,0c-0.1,0-0.2,0-0.3-0.1c0-0.1,0-0.1-0.1-0.2c-0.1-0.2-0.2-0.4-0.2-0.7
				s0.1-0.6,0.3-0.8c0.1,0,0.1-0.1,0.1-0.1h0.1C15.8,507.2,16,507.1,16.2,507.1z"/>
		</g>
		<g>
			<g>
				<path fill="#B4B1AC" d="M15.4,508.9L15.4,508.9c-0.1,0-0.1,0-0.1-0.1c-0.1-0.1-0.1-0.1-0.2-0.2c-0.1-0.2-0.2-0.4-0.2-0.6
					c0-0.3,0.1-0.6,0.4-0.8l0.1-0.1h0.1c0.2-0.1,0.4-0.2,0.6-0.2c0.2,0,0.4,0.1,0.5,0.2v0.1h-0.1l0,0c-0.1,0-0.1,0-0.2,0h-0.1h-0.1
					c-0.2,0-0.4,0-0.5,0.2l-0.1,0.1c-0.2,0.2-0.4,0.5-0.4,0.8c0,0.2,0.1,0.4,0.2,0.6C15.3,508.9,15.4,508.9,15.4,508.9
					C15.3,508.8,15.3,508.9,15.4,508.9z"/>
				
					<linearGradient id="SVGID_12_" gradientUnits="userSpaceOnUse" x1="-186.6582" y1="272.3345" x2="-187.0834" y2="271.9093" gradientTransform="matrix(1 0 0 -1 202.3398 780.0391)">
					<stop  offset="0" style="stop-color:#E8E8E0"/>
					<stop  offset="1" style="stop-color:#535258"/>
				</linearGradient>
				<path fill="url(#SVGID_12_)" d="M15.4,508.8L15.4,508.8c0,0-0.1,0-0.1-0.1c-0.1-0.1-0.1-0.1-0.1-0.1c-0.1-0.2-0.2-0.4-0.2-0.6
					c0-0.3,0.1-0.5,0.4-0.8c0.1-0.1,0.1-0.1,0.1-0.1c0.1-0.1,0.3-0.2,0.5-0.2l0,0c0.1,0,0.1,0,0.1,0l0,0H16c-0.2,0-0.4,0-0.5,0.2
					c0,0.1-0.1,0.1-0.1,0.1c-0.2,0.2-0.3,0.5-0.3,0.8c0,0.2,0.1,0.4,0.2,0.6C15.3,508.7,15.3,508.8,15.4,508.8z"/>
				
					<linearGradient id="SVGID_13_" gradientUnits="userSpaceOnUse" x1="-186.5557" y1="272.9023" x2="-187.2087" y2="271.7533" gradientTransform="matrix(1 0 0 -1 202.3398 780.0391)">
					<stop  offset="0" style="stop-color:#5F6170"/>
					<stop  offset="1" style="stop-color:#7C7C7C"/>
				</linearGradient>
				<path fill="url(#SVGID_13_)" d="M16.1,507l-0.8,1.8c0-0.1-0.1-0.1-0.1-0.2c-0.1-0.2-0.2-0.4-0.2-0.6c0-0.3,0.1-0.5,0.3-0.8
					c0.1,0,0.1-0.1,0.1-0.1C15.7,507.1,15.9,507,16.1,507L16.1,507z"/>
				
					<linearGradient id="SVGID_14_" gradientUnits="userSpaceOnUse" x1="404.6338" y1="1045.4238" x2="406.593" y2="1045.4238" gradientTransform="matrix(-0.3955 0.9185 0.9374 0.3515 -803.5458 -232.0947)">
					<stop  offset="0" style="stop-color:#3D3D47"/>
					<stop  offset="1" style="stop-color:#33363D"/>
				</linearGradient>
				<path fill="url(#SVGID_14_)" d="M16.4,507.2l-0.8,1.8l0,0c-0.1,0-0.1,0-0.1,0l0.8-1.9h0.1C16.3,507.1,16.4,507.1,16.4,507.2
					L16.4,507.2L16.4,507.2z"/>
				<polygon fill="#646F71" points="16.5,507.2 15.7,509 15.6,509 15.6,509 16.4,507.2 				"/>
				
					<linearGradient id="SVGID_15_" gradientUnits="userSpaceOnUse" x1="-185.4556" y1="272.8389" x2="-186.1721" y2="270.9096" gradientTransform="matrix(1 0 0 -1 202.3398 780.0391)">
					<stop  offset="0" style="stop-color:#666C7A"/>
					<stop  offset="1" style="stop-color:#494E61"/>
				</linearGradient>
				<path fill="url(#SVGID_15_)" d="M15.9,509l0.6-1.8l0,0l0.1,0.1c0.2,0.2,0.3,0.4,0.3,0.7l0,0c0,0.3-0.1,0.5-0.3,0.7
					c-0.1,0.1-0.3,0.2-0.4,0.3C16.1,509,16,509,15.9,509z"/>
				<path fill="#6A7579" d="M15.4,508.9l0.8-1.9h0.1L15.4,508.9L15.4,508.9z"/>
				<polygon fill="#31343D" points="15.4,508.8 16.1,507 16.1,507 15.4,508.9 				"/>
				<path fill="#A9AAAF" d="M16.5,507.1L16.5,507.1c0.1-0.1,0.1,0,0.1,0s0.1,0.1,0.1,0.2c0.1,0.1,0.1,0.1,0.1,0.2c0,0,0,0,0-0.1
					c-0.1,0-0.1-0.1-0.2-0.1C16.6,507.2,16.6,507.2,16.5,507.1L16.5,507.1z"/>
				
					<linearGradient id="SVGID_16_" gradientUnits="userSpaceOnUse" x1="-185.5464" y1="272.2988" x2="-185.993" y2="271.223" gradientTransform="matrix(1 0 0 -1 202.3398 780.0391)">
					<stop  offset="0" style="stop-color:#B9BDBE"/>
					<stop  offset="1" style="stop-color:#606068"/>
				</linearGradient>
				<path fill="url(#SVGID_16_)" d="M15.9,509c0.1,0,0.3,0,0.4-0.1c0.1,0,0.2-0.1,0.4-0.3c0.2-0.2,0.3-0.4,0.3-0.7l0,0
					c0-0.3-0.1-0.5-0.3-0.7c-0.1-0.1-0.1-0.1-0.1-0.1V507v0.1h0.1c0,0,0,0.1,0.1,0.1c0.2,0.2,0.3,0.5,0.3,0.8s-0.1,0.5-0.3,0.7
					c-0.2,0.2-0.5,0.3-0.8,0.3C15.9,509.1,15.9,509.1,15.9,509z"/>
				
					<linearGradient id="SVGID_17_" gradientUnits="userSpaceOnUse" x1="-185.5571" y1="272.0591" x2="-186.2571" y2="271.3591" gradientTransform="matrix(1 0 0 -1 202.3398 780.0391)">
					<stop  offset="0" style="stop-color:#696E74"/>
					<stop  offset="1" style="stop-color:#424041"/>
				</linearGradient>
				<path fill="url(#SVGID_17_)" d="M15.8,509.1L15.8,509.1c0.1,0,0.1,0,0.2,0c0.3,0,0.5-0.1,0.8-0.3c0.2-0.2,0.3-0.4,0.3-0.7
					c0-0.3-0.1-0.5-0.3-0.8l-0.1-0.1c0.1,0.1,0.1,0.1,0.2,0.1c0,0,0,0,0,0.1c0.1,0.2,0.2,0.4,0.3,0.6c0,0.3-0.1,0.6-0.4,0.8
					c-0.1,0.1-0.2,0.1-0.3,0.2s-0.2,0.1-0.4,0.1C15.9,509.1,15.9,509.1,15.8,509.1z"/>
				<polygon fill="#6B6A70" points="15.4,509 15.4,508.9 15.4,508.9 15.5,508.9 				"/>
				<polygon fill="#52525A" points="15.4,508.8 15.4,508.9 15.4,508.9 				"/>
				<path fill="#605D68" d="M15.6,509L15.6,509h0.1h0.1c0.1,0,0.2,0.1,0.3,0.1s0.3,0,0.4-0.1c-0.1,0.1-0.2,0.2-0.4,0.2l0,0
					C15.9,509.2,15.7,509.2,15.6,509L15.6,509z"/>
				<path fill="#38373C" d="M15.4,509L15.4,509c0.1-0.1,0.1,0,0.2,0l0,0v0.1C15.5,509.1,15.5,509,15.4,509z"/>
				<path fill="#B8C0C3" d="M15.7,509C15.8,509,15.8,509,15.7,509L15.7,509C15.8,509.1,15.7,509.1,15.7,509z"/>
				<path fill="#AAB2B4" d="M15.7,509l0.8-1.8l-0.6,1.8C15.8,509,15.8,509,15.7,509z"/>
			</g>
		</g>
	</g>
	<g>
		<g>
			<path fill-opacity="0.502" d="M16.9,533c0,0,0.1,0.1,0.1,0.2c0.1,0,0.1,0.1,0.1,0.1c0.1,0.2,0.2,0.4,0.2,0.7s-0.1,0.6-0.4,0.8
				c-0.1,0.1-0.2,0.2-0.4,0.2c-0.1,0.1-0.2,0.1-0.4,0.1l0,0c-0.1,0-0.3,0-0.4,0c-0.1,0-0.2,0-0.3-0.1l0,0c-0.1,0-0.2-0.1-0.3-0.1
				c0-0.1,0-0.1-0.1-0.2c-0.1-0.2-0.2-0.4-0.2-0.6c0-0.3,0.1-0.6,0.3-0.8c0.1-0.1,0.1-0.1,0.1-0.2h0.1c0.2-0.1,0.4-0.2,0.6-0.2
				c0.2,0,0.4,0.1,0.5,0.2L16.9,533L16.9,533z"/>
		</g>
		<g>
			<g>
				<path fill="#A9AAAF" d="M16.5,532.7c0.1,0,0.1,0,0.1,0s0.1,0.1,0.1,0.2c0.1,0,0.1,0.1,0.1,0.1l0,0c-0.1,0-0.1-0.1-0.2-0.1
					L16.5,532.7C16.5,532.8,16.5,532.8,16.5,532.7L16.5,532.7z"/>
				
					<linearGradient id="SVGID_18_" gradientUnits="userSpaceOnUse" x1="-185.5869" y1="246.5659" x2="-186.0338" y2="245.4896" gradientTransform="matrix(1 0 0 -1 202.3398 780.0391)">
					<stop  offset="0" style="stop-color:#B9BDBE"/>
					<stop  offset="1" style="stop-color:#606068"/>
				</linearGradient>
				<path fill="url(#SVGID_18_)" d="M16.5,532.8L16.5,532.8L16.5,532.8c0.1,0,0.2,0.1,0.2,0.1s0,0,0.1,0c0.2,0.2,0.3,0.4,0.3,0.8
					c0,0.3-0.1,0.5-0.3,0.8c-0.2,0.2-0.5,0.3-0.8,0.3c-0.1,0-0.1,0-0.1,0c0.1,0,0.3,0,0.4-0.1c0.1,0,0.2-0.1,0.4-0.2
					c0.2-0.2,0.3-0.5,0.3-0.8l0,0c0-0.3-0.1-0.5-0.3-0.7C16.5,532.9,16.5,532.9,16.5,532.8z"/>
				<path fill="#B4B1AC" d="M16.5,532.8c-0.1,0-0.1,0-0.2,0c-0.1,0-0.1,0-0.2,0H16h-0.1c-0.2,0-0.4,0-0.5,0.1c0,0.1-0.1,0.1-0.1,0.2
					c-0.2,0.2-0.4,0.4-0.4,0.8c0,0.2,0.1,0.4,0.2,0.5c0,0,0.1,0.1,0.1,0.2l0.1,0.1v0.1c-0.1,0-0.1-0.1-0.1-0.1
					c-0.1-0.1-0.1-0.1-0.2-0.2c-0.1-0.2-0.2-0.4-0.2-0.6c0-0.3,0.1-0.6,0.4-0.8c0-0.1,0.1-0.1,0.1-0.2h0.1c0.2-0.1,0.4-0.2,0.6-0.2
					C16.2,532.6,16.4,532.6,16.5,532.8L16.5,532.8z"/>
				
					<linearGradient id="SVGID_19_" gradientUnits="userSpaceOnUse" x1="-185.5132" y1="246.3159" x2="-186.2135" y2="245.6156" gradientTransform="matrix(1 0 0 -1 202.3398 780.0391)">
					<stop  offset="0" style="stop-color:#696E74"/>
					<stop  offset="1" style="stop-color:#424041"/>
				</linearGradient>
				<path fill="url(#SVGID_19_)" d="M16.9,533.1c0.2,0.2,0.3,0.4,0.3,0.7l0,0c0,0.3-0.1,0.5-0.4,0.8c-0.1,0.1-0.2,0.1-0.3,0.2
					c-0.1,0.1-0.2,0.1-0.4,0.1H16c-0.1,0-0.2,0-0.2,0h0.1c0,0,0,0,0.1,0c0.3,0,0.5-0.1,0.8-0.3c0.2-0.2,0.3-0.5,0.3-0.8
					s-0.1-0.6-0.3-0.8c0,0,0,0-0.1,0C16.7,533,16.8,533,16.9,533.1L16.9,533.1z"/>
				
					<linearGradient id="SVGID_20_" gradientUnits="userSpaceOnUse" x1="-185.438" y1="247.1323" x2="-186.1545" y2="245.2031" gradientTransform="matrix(1 0 0 -1 202.3398 780.0391)">
					<stop  offset="0" style="stop-color:#666C7A"/>
					<stop  offset="1" style="stop-color:#494E61"/>
				</linearGradient>
				<path fill="url(#SVGID_20_)" d="M15.9,534.8l0.6-1.8v-0.1c0,0,0.1,0.1,0.1,0.2c0.2,0.2,0.3,0.4,0.3,0.7l0,0
					c0,0.3-0.1,0.5-0.3,0.8c-0.1,0.1-0.3,0.2-0.4,0.2C16.1,534.7,16,534.8,15.9,534.8z"/>
				
					<linearGradient id="SVGID_21_" gradientUnits="userSpaceOnUse" x1="-186.6523" y1="246.5771" x2="-187.0771" y2="246.1524" gradientTransform="matrix(1 0 0 -1 202.3398 780.0391)">
					<stop  offset="0" style="stop-color:#E8E8E0"/>
					<stop  offset="1" style="stop-color:#535258"/>
				</linearGradient>
				<path fill="url(#SVGID_21_)" d="M16.1,532.7L16.1,532.7L16.1,532.7c-0.3,0-0.4,0.1-0.6,0.3l-0.1,0.1c-0.2,0.2-0.3,0.5-0.3,0.8
					c0,0.2,0.1,0.4,0.2,0.5c0,0.1,0.1,0.1,0.1,0.2l0,0l-0.1-0.1c-0.1-0.1-0.1-0.2-0.1-0.2c-0.1-0.2-0.2-0.3-0.2-0.5
					c0-0.3,0.1-0.6,0.4-0.8c0.1,0,0.1-0.1,0.1-0.2c0.1-0.1,0.3-0.1,0.5-0.1l0,0H16.1z"/>
				
					<linearGradient id="SVGID_22_" gradientUnits="userSpaceOnUse" x1="-186.4907" y1="247.1665" x2="-187.1438" y2="246.0174" gradientTransform="matrix(1 0 0 -1 202.3398 780.0391)">
					<stop  offset="0" style="stop-color:#5F6170"/>
					<stop  offset="1" style="stop-color:#7C7C7C"/>
				</linearGradient>
				<path fill="url(#SVGID_22_)" d="M16.1,532.8l-0.8,1.8l0,0c0-0.1-0.1-0.1-0.1-0.2c-0.1-0.2-0.2-0.3-0.2-0.5
					c0-0.3,0.1-0.5,0.3-0.8c0.1,0,0.1-0.1,0.1-0.1C15.7,532.8,15.9,532.8,16.1,532.8L16.1,532.8z"/>
				<path fill="#6A7579" d="M15.5,534.6L15.5,534.6l0.7-1.8h0.1L15.5,534.6z"/>
				<polygon fill="#646F71" points="16.5,532.9 15.7,534.8 15.6,534.8 15.6,534.7 16.4,532.8 16.5,532.8 				"/>
				
					<linearGradient id="SVGID_23_" gradientUnits="userSpaceOnUse" x1="428.7705" y1="1055.5664" x2="430.7302" y2="1055.5664" gradientTransform="matrix(-0.3955 0.9185 0.9374 0.3515 -803.5458 -232.0947)">
					<stop  offset="0" style="stop-color:#3D3D47"/>
					<stop  offset="1" style="stop-color:#33363D"/>
				</linearGradient>
				<path fill="url(#SVGID_23_)" d="M16.4,532.8l-0.8,1.9c-0.1,0-0.1-0.1-0.1-0.1l0.8-1.8l0,0H16.4L16.4,532.8z"/>
				<polygon fill="#31343D" points="16.1,532.8 15.4,534.6 15.4,534.6 				"/>
				<path fill="#605D68" d="M15.6,534.7L15.6,534.7h0.1h0.1c0,0,0.1,0,0.2,0C15.9,534.8,15.7,534.8,15.6,534.7L15.6,534.7z"/>
				<path fill="#38373C" d="M15.6,534.8c-0.1,0-0.1-0.1-0.2-0.1l0.1-0.1C15.5,534.6,15.5,534.7,15.6,534.8L15.6,534.8z"/>
				<path fill="#B8C0C3" d="M15.7,534.8C15.8,534.8,15.8,534.8,15.7,534.8L15.7,534.8C15.8,534.8,15.7,534.8,15.7,534.8z"/>
				<polygon fill="#6B6A70" points="15.4,534.7 15.4,534.6 15.4,534.6 15.5,534.6 15.4,534.7 				"/>
				<path fill="#AAB2B4" d="M15.7,534.8l0.8-1.8l-0.6,1.8C15.8,534.8,15.8,534.8,15.7,534.8z"/>
			</g>
		</g>
	</g>
	<g>
		<g>
			<path fill-opacity="0.502" d="M78.2,507.3c0.1,0.2,0.1,0.4,0.1,0.6l0,0c0,0.3-0.1,0.5-0.3,0.8c-0.1,0.1-0.2,0.2-0.3,0.3
				c-0.1,0.1-0.3,0.1-0.5,0.1c-0.2,0-0.3,0-0.4-0.1c-0.1,0-0.1,0-0.1,0h-0.1c0,0,0,0,0-0.1c-0.1,0-0.1-0.1-0.1-0.1
				c-0.1,0-0.1-0.1-0.2-0.2c-0.1-0.2-0.2-0.4-0.2-0.6c0-0.3,0.1-0.6,0.4-0.8c0,0,0-0.1,0.1-0.1h0.1c0.2-0.1,0.4-0.2,0.6-0.2
				c0.2,0,0.4,0,0.5,0.1c0,0,0,0,0.1,0c0.1,0.1,0.1,0.1,0.2,0.1C78.1,507.2,78.1,507.2,78.2,507.3z"/>
		</g>
		<g>
			<g>
				
					<linearGradient id="SVGID_24_" gradientUnits="userSpaceOnUse" x1="-125.7266" y1="272.7021" x2="-126.1518" y2="272.2769" gradientTransform="matrix(1 0 0 -1 202.3398 780.0391)">
					<stop  offset="0" style="stop-color:#E8E8E0"/>
					<stop  offset="1" style="stop-color:#535258"/>
				</linearGradient>
				<path fill="url(#SVGID_24_)" d="M77.1,506.7L77.1,506.7H77c-0.2,0-0.3,0-0.5,0.1c-0.1,0-0.1,0.1-0.1,0.2
					c-0.2,0.2-0.3,0.5-0.3,0.8c0,0.2,0,0.4,0.1,0.5c0,0.1,0.1,0.1,0.1,0.2l0,0l-0.1-0.1c0,0-0.1-0.1-0.1-0.2
					c-0.1-0.2-0.2-0.4-0.2-0.6c0-0.3,0.1-0.5,0.3-0.7c0.1-0.1,0.1-0.1,0.2-0.2c0.2-0.1,0.3-0.2,0.5-0.2l0,0
					C77.1,506.6,77.1,506.6,77.1,506.7z"/>
				<path fill="#B4B1AC" d="M76.5,508.5l-0.1,0.2c-0.1-0.1-0.1-0.1-0.2-0.2c0,0-0.1-0.1-0.1-0.2c-0.1-0.2-0.2-0.4-0.2-0.6
					c0-0.3,0.1-0.6,0.3-0.8l0.1-0.1l0,0c0.2-0.1,0.4-0.2,0.6-0.2c0.2,0,0.4,0,0.5,0.1v0.1c-0.1-0.1-0.3-0.1-0.4-0.1l-0.1-0.1l0,0
					c-0.2,0-0.3,0.1-0.5,0.2c-0.1,0-0.1,0.1-0.2,0.2c-0.2,0.2-0.3,0.4-0.3,0.7c0,0.2,0.1,0.4,0.2,0.6c0,0.1,0.1,0.1,0.1,0.2
					C76.3,508.4,76.4,508.5,76.5,508.5L76.5,508.5z"/>
				
					<linearGradient id="SVGID_25_" gradientUnits="userSpaceOnUse" x1="-125.4272" y1="273.207" x2="-126.0799" y2="272.0585" gradientTransform="matrix(1 0 0 -1 202.3398 780.0391)">
					<stop  offset="0" style="stop-color:#5F6170"/>
					<stop  offset="1" style="stop-color:#7C7C7C"/>
				</linearGradient>
				<path fill="url(#SVGID_25_)" d="M77.1,506.7l-0.7,1.8h-0.1l0,0c-0.1,0-0.1-0.1-0.1-0.2c-0.1-0.2-0.1-0.3-0.1-0.5
					c0-0.3,0.1-0.5,0.3-0.8c0-0.1,0.1-0.1,0.1-0.2c0.2-0.1,0.3-0.1,0.5-0.1C77.1,506.7,77.1,506.7,77.1,506.7z"/>
				<polygon fill="#31343D" points="77.2,506.7 76.5,508.5 76.5,508.5 77.1,506.7 				"/>
				<path fill="#A9AAAF" d="M77.5,506.8L77.5,506.8h0.1c0.1,0,0.1,0.1,0.1,0.1c0.1,0.1,0.1,0.1,0.2,0.2c0.1,0.2,0.1,0.4,0.1,0.5
					c0-0.2-0.1-0.4-0.3-0.6c0-0.1-0.1-0.1-0.1-0.2C77.6,506.8,77.6,506.8,77.5,506.8z"/>
				
					<linearGradient id="SVGID_26_" gradientUnits="userSpaceOnUse" x1="-124.623" y1="272.5234" x2="-125.3231" y2="271.8234" gradientTransform="matrix(1 0 0 -1 202.3398 780.0391)">
					<stop  offset="0" style="stop-color:#696E74"/>
					<stop  offset="1" style="stop-color:#424041"/>
				</linearGradient>
				<path fill="url(#SVGID_26_)" d="M77.5,508.7c-0.2,0-0.3,0-0.4,0s-0.2,0-0.4,0h0.1c0.1,0,0.1,0,0.1,0c0.3,0,0.5-0.1,0.8-0.3
					c0.2-0.2,0.3-0.5,0.3-0.8c0-0.3-0.1-0.5-0.3-0.7c-0.1-0.1-0.1-0.1-0.2-0.2c0,0,0.1,0,0.2,0c0.1,0,0.1,0.1,0.1,0.2
					c0.2,0.2,0.3,0.4,0.3,0.6v0.1c0,0.3-0.1,0.5-0.4,0.8C77.7,508.6,77.6,508.7,77.5,508.7z"/>
				
					<linearGradient id="SVGID_27_" gradientUnits="userSpaceOnUse" x1="-124.5869" y1="272.6865" x2="-125.0336" y2="271.6107" gradientTransform="matrix(1 0 0 -1 202.3398 780.0391)">
					<stop  offset="0" style="stop-color:#B9BDBE"/>
					<stop  offset="1" style="stop-color:#606068"/>
				</linearGradient>
				<path fill="url(#SVGID_27_)" d="M77.5,506.8c0.1,0,0.1,0.1,0.2,0.2c0.2,0.2,0.3,0.4,0.3,0.7s-0.1,0.5-0.3,0.8
					c-0.2,0.2-0.5,0.3-0.8,0.3h-0.1l0,0l0,0c0.1,0,0.3,0,0.4,0c0.1-0.1,0.3-0.2,0.4-0.3c0.2-0.2,0.3-0.5,0.3-0.8v-0.1
					c0-0.3-0.1-0.5-0.3-0.7L77.5,506.8z"/>
				
					<linearGradient id="SVGID_28_" gradientUnits="userSpaceOnUse" x1="-124.4482" y1="273.2056" x2="-125.1644" y2="271.2773" gradientTransform="matrix(1 0 0 -1 202.3398 780.0391)">
					<stop  offset="0" style="stop-color:#666C7A"/>
					<stop  offset="1" style="stop-color:#494E61"/>
				</linearGradient>
				<path fill="url(#SVGID_28_)" d="M76.9,508.7l0.6-1.9l0,0l0.1,0.1c0.2,0.2,0.3,0.4,0.3,0.7v0.1c0,0.3-0.1,0.5-0.3,0.8
					c-0.1,0.1-0.2,0.2-0.4,0.3C77.1,508.7,77,508.7,76.9,508.7L76.9,508.7z"/>
				
					<linearGradient id="SVGID_29_" gradientUnits="userSpaceOnUse" x1="382.8916" y1="1101.3164" x2="384.8514" y2="1101.3164" gradientTransform="matrix(-0.3955 0.9185 0.9374 0.3515 -803.5458 -232.0947)">
					<stop  offset="0" style="stop-color:#3D3D47"/>
					<stop  offset="1" style="stop-color:#33363D"/>
				</linearGradient>
				<path fill="url(#SVGID_29_)" d="M76.5,508.5l0.8-1.8h0.1h0.1l0,0l-0.8,1.9h-0.1C76.6,508.6,76.5,508.6,76.5,508.5z"/>
				<polygon fill="#6A7579" points="76.5,508.5 77.2,506.7 77.3,506.7 				"/>
				<polygon fill="#6B6A70" points="76.4,508.7 76.5,508.5 76.5,508.5 76.5,508.6 76.5,508.7 				"/>
				<path fill="#52525A" d="M76.5,508.5c0,0.1,0.1,0.1,0.1,0.1S76.5,508.6,76.5,508.5L76.5,508.5L76.5,508.5z"/>
				<path fill="#38373C" d="M76.7,508.7L76.7,508.7c-0.1,0-0.2,0-0.3,0v-0.1c0.1,0,0.1,0,0.1,0.1H76.7z"/>
				<path fill="#B8C0C3" d="M76.8,508.7h0.1l0,0H76.8L76.8,508.7z"/>
				<path fill="#605D68" d="M76.8,508.7c0.1,0,0.3,0,0.4,0c0.1,0,0.2,0,0.4,0c-0.2,0.1-0.3,0.1-0.5,0.1l0,0
					C77,508.8,76.8,508.8,76.8,508.7L76.8,508.7L76.8,508.7L76.8,508.7L76.8,508.7z"/>
				<polygon fill="#646F71" points="76.7,508.7 77.5,506.8 76.8,508.7 				"/>
				<path fill="#AAB2B4" d="M77.5,506.8l-0.6,1.9h-0.1L77.5,506.8z"/>
			</g>
		</g>
	</g>
	<g>
		<g>
			<path fill-opacity="0.502" d="M77.9,532.7c0.1,0,0.1,0.1,0.2,0.1c0,0.1,0.1,0.1,0.2,0.2c0.1,0.2,0.1,0.4,0.1,0.6v0.1
				c0,0.3-0.1,0.5-0.3,0.8c-0.1,0.1-0.2,0.2-0.3,0.3c-0.1,0.1-0.3,0.1-0.5,0.1c-0.2,0-0.3,0-0.4,0s-0.1-0.1-0.1-0.1h-0.1
				c-0.1-0.1-0.1-0.1-0.1-0.2c-0.1,0-0.1-0.1-0.2-0.2c-0.1-0.2-0.2-0.4-0.2-0.7c0-0.3,0.1-0.6,0.4-0.8c0,0,0-0.1,0.1-0.1h0.1
				c0.2-0.2,0.4-0.3,0.6-0.3c0.2,0,0.4,0,0.5,0.1C77.8,532.6,77.8,532.7,77.9,532.7z"/>
		</g>
		<g>
			<g>
				<path fill="#A9AAAF" d="M77.5,532.3l0.1,0.1c0.1,0,0.1,0,0.1,0.1c0.1,0.1,0.1,0.1,0.2,0.2c0.1,0.2,0.1,0.3,0.1,0.5
					c0-0.2-0.1-0.4-0.3-0.5c0-0.1-0.1-0.1-0.1-0.2c-0.1,0-0.1-0.1-0.2-0.1v-0.1H77.5z"/>
				<path fill="#B4B1AC" d="M77.5,532.5c-0.1-0.1-0.3-0.1-0.4-0.1H77l0,0c-0.2,0-0.3,0.1-0.5,0.2c-0.1,0-0.1,0.1-0.2,0.2
					c-0.2,0.2-0.3,0.4-0.3,0.7c0,0.2,0.1,0.4,0.2,0.6c0,0.1,0.1,0.1,0.1,0.1c0.1,0,0.1,0.1,0.2,0.2h-0.1c-0.1,0-0.1-0.1-0.2-0.1
					c0,0-0.1-0.1-0.1-0.2c-0.1-0.2-0.2-0.4-0.2-0.7c0-0.3,0.1-0.6,0.3-0.8l0.1-0.1l0,0c0.2-0.2,0.4-0.3,0.6-0.3c0.2,0,0.4,0,0.5,0.1
					v0.2H77.5z"/>
				
					<linearGradient id="SVGID_30_" gradientUnits="userSpaceOnUse" x1="-124.5381" y1="246.6904" x2="-125.2384" y2="245.9901" gradientTransform="matrix(1 0 0 -1 202.3398 780.0391)">
					<stop  offset="0" style="stop-color:#696E74"/>
					<stop  offset="1" style="stop-color:#424041"/>
				</linearGradient>
				<path fill="url(#SVGID_30_)" d="M78.1,533.3v0.2c0,0.3-0.1,0.5-0.4,0.8c-0.1,0.1-0.1,0.2-0.3,0.3c-0.1,0.1-0.3,0.1-0.4,0.1h-0.1
					l0,0c0,0-0.1,0-0.2,0h0.1c0.1,0,0.1,0,0.1,0c0.3,0,0.5-0.1,0.8-0.3c0.2-0.2,0.3-0.4,0.3-0.8c0-0.3-0.1-0.5-0.3-0.7
					c-0.1-0.1-0.1-0.1-0.2-0.2l0,0c0,0,0.1,0.1,0.2,0.1c0.1,0,0.1,0.1,0.1,0.2C78,532.9,78.1,533,78.1,533.3z"/>
				
					<linearGradient id="SVGID_31_" gradientUnits="userSpaceOnUse" x1="406.9824" y1="1111.5215" x2="408.9422" y2="1111.5215" gradientTransform="matrix(-0.3955 0.9185 0.9374 0.3515 -803.5458 -232.0947)">
					<stop  offset="0" style="stop-color:#3D3D47"/>
					<stop  offset="1" style="stop-color:#33363D"/>
				</linearGradient>
				<path fill="url(#SVGID_31_)" d="M76.5,534.3l0.8-1.8h0.1h0.1l0,0l-0.8,1.9h-0.1C76.6,534.3,76.5,534.3,76.5,534.3z"/>
				
					<linearGradient id="SVGID_32_" gradientUnits="userSpaceOnUse" x1="-124.4941" y1="246.9487" x2="-124.9412" y2="245.8719" gradientTransform="matrix(1 0 0 -1 202.3398 780.0391)">
					<stop  offset="0" style="stop-color:#B9BDBE"/>
					<stop  offset="1" style="stop-color:#606068"/>
				</linearGradient>
				<path fill="url(#SVGID_32_)" d="M76.9,534.4L76.9,534.4L76.9,534.4c0.2-0.1,0.3-0.1,0.4-0.1c0.1,0,0.3-0.1,0.4-0.3
					c0.2-0.2,0.3-0.4,0.3-0.7l0,0c0-0.3-0.1-0.5-0.3-0.7l-0.1-0.1c0.1,0,0.1,0.1,0.2,0.2c0.2,0.2,0.3,0.4,0.3,0.7s-0.1,0.6-0.3,0.8
					c-0.2,0.2-0.5,0.3-0.8,0.3C77,534.4,76.9,534.4,76.9,534.4z"/>
				
					<linearGradient id="SVGID_33_" gradientUnits="userSpaceOnUse" x1="-124.4658" y1="247.5122" x2="-125.182" y2="245.584" gradientTransform="matrix(1 0 0 -1 202.3398 780.0391)">
					<stop  offset="0" style="stop-color:#666C7A"/>
					<stop  offset="1" style="stop-color:#494E61"/>
				</linearGradient>
				<path fill="url(#SVGID_33_)" d="M76.9,534.3l0.6-1.8l0,0c0,0,0,0.1,0.1,0.1c0.2,0.2,0.3,0.4,0.3,0.7l0,0c0,0.3-0.1,0.5-0.3,0.7
					c-0.1,0.1-0.2,0.2-0.4,0.3C77.1,534.3,77,534.3,76.9,534.3L76.9,534.3z"/>
				<polygon fill="#646F71" points="76.7,534.3 77.5,532.5 77.5,532.5 77.5,532.5 76.8,534.4 76.7,534.4 				"/>
				<polygon fill="#31343D" points="76.5,534.2 77.1,532.4 77.2,532.4 76.5,534.3 				"/>
				
					<linearGradient id="SVGID_34_" gradientUnits="userSpaceOnUse" x1="-125.6768" y1="247.002" x2="-126.1015" y2="246.5772" gradientTransform="matrix(1 0 0 -1 202.3398 780.0391)">
					<stop  offset="0" style="stop-color:#E8E8E0"/>
					<stop  offset="1" style="stop-color:#535258"/>
				</linearGradient>
				<path fill="url(#SVGID_34_)" d="M77.1,532.4H77c-0.2,0-0.3,0-0.5,0.1c-0.1,0-0.1,0.1-0.1,0.2c-0.2,0.2-0.3,0.5-0.3,0.8
					c0,0.2,0,0.4,0.1,0.5c0,0.1,0.1,0.1,0.1,0.2c0,0,0,0,0.1,0l0,0c-0.1-0.1-0.1-0.1-0.2-0.2l-0.1-0.1c-0.1-0.2-0.2-0.4-0.2-0.6
					c0-0.3,0.1-0.5,0.3-0.7c0.1-0.1,0.1-0.1,0.2-0.2c0.2-0.1,0.3-0.2,0.5-0.2l0,0C77.1,532.3,77.1,532.3,77.1,532.4L77.1,532.4z"/>
				
					<linearGradient id="SVGID_35_" gradientUnits="userSpaceOnUse" x1="-125.4268" y1="247.5073" x2="-126.0795" y2="246.3588" gradientTransform="matrix(1 0 0 -1 202.3398 780.0391)">
					<stop  offset="0" style="stop-color:#5F6170"/>
					<stop  offset="1" style="stop-color:#7C7C7C"/>
				</linearGradient>
				<path fill="url(#SVGID_35_)" d="M77.1,532.4l-0.7,1.8h-0.1c-0.1,0-0.1-0.1-0.1-0.2c-0.1-0.1-0.1-0.3-0.1-0.5
					c0-0.3,0.1-0.5,0.3-0.8c0-0.1,0.1-0.1,0.1-0.2c0.2-0.1,0.3-0.1,0.5-0.1C77.1,532.4,77.1,532.4,77.1,532.4z"/>
				<path fill="#38373C" d="M76.7,534.3l-0.1,0.1c-0.1,0-0.1-0.1-0.2-0.1l0,0c0.1,0,0.1,0,0.1,0H76.7L76.7,534.3z"/>
				<path fill="#B8C0C3" d="M76.8,534.5C76.8,534.4,76.8,534.4,76.8,534.5c0-0.1,0-0.1,0.1-0.1L76.8,534.5L76.8,534.5z"/>
				<path fill="#AAB2B4" d="M77.5,532.5l-0.6,1.8c0,0-0.1,0-0.1,0.1L77.5,532.5z"/>
				<path fill="#605D68" d="M76.6,534.5l0.1-0.1L76.6,534.5h0.1l0,0c0.1,0,0.2,0,0.2,0S76.7,534.5,76.6,534.5z"/>
				<path fill="#52525A" d="M76.5,534.3L76.5,534.3c0.1,0,0.1,0,0.1,0H76.5L76.5,534.3z"/>
				<path fill="#6B6A70" d="M76.5,534.3h-0.1H76.5z"/>
				<polygon fill="#6A7579" points="76.5,534.3 77.2,532.4 77.3,532.4 				"/>
			</g>
		</g>
	</g>
	<g>
		<g>
			<g>
				
					<linearGradient id="SVGID_36_" gradientUnits="userSpaceOnUse" x1="-130.2847" y1="259.7539" x2="-126.0553" y2="252.4064" gradientTransform="matrix(1 0 0 -1 202.3398 780.0391)">
					<stop  offset="0" style="stop-color:#4D4D4D"/>
					<stop  offset="0.3059" style="stop-color:#A6A6A6"/>
					<stop  offset="1" style="stop-color:#000000"/>
				</linearGradient>
				<path fill="url(#SVGID_36_)" d="M76.3,521.8c0.6,0.6,1,1.3,1,2.2c0,0.8-0.3,1.5-1,2.1c-0.6,0.6-1.3,0.9-2.2,0.9
					c-0.8,0-1.6-0.3-2.1-0.9c-0.6-0.6-0.9-1.3-0.9-2.1c0-0.9,0.3-1.6,0.9-2.2c0.6-0.6,1.3-0.9,2.1-0.9C75,521,75.7,521.3,76.3,521.8
					z M74.1,521.7c-0.6,0-1.2,0.2-1.6,0.7c-0.5,0.4-0.7,1-0.7,1.7c0,0.6,0.2,1.2,0.7,1.6c0.5,0.5,1,0.7,1.6,0.7
					c0.7,0,1.3-0.2,1.7-0.7c0.5-0.4,0.7-1,0.7-1.6c0-0.7-0.2-1.2-0.7-1.7C75.4,521.9,74.8,521.7,74.1,521.7z"/>
				
					<linearGradient id="SVGID_37_" gradientUnits="userSpaceOnUse" x1="-130.9648" y1="255.9888" x2="-125.5148" y2="255.9888" gradientTransform="matrix(1 0 0 -1 202.3398 780.0391)">
					<stop  offset="0" style="stop-color:#081828"/>
					<stop  offset="0.5569" style="stop-color:#000E11"/>
					<stop  offset="1" style="stop-color:#41587A"/>
				</linearGradient>
				<path fill="url(#SVGID_37_)" d="M74.1,521.7c0.7,0,1.3,0.2,1.7,0.7c0.5,0.4,0.7,1,0.7,1.7c0,0.6-0.2,1.2-0.7,1.6
					c-0.4,0.5-1,0.7-1.7,0.7c-0.6,0-1.2-0.2-1.6-0.7c-0.5-0.4-0.7-1-0.7-1.6c0-0.7,0.2-1.2,0.7-1.7
					C72.9,521.9,73.5,521.7,74.1,521.7z"/>
			</g>
		</g>
		<g>
			<g>
				<g>
					
						<linearGradient id="SVGID_38_" gradientUnits="userSpaceOnUse" x1="-125.8345" y1="250.2158" x2="-126.3438" y2="255.2924" gradientTransform="matrix(1 0 0 -1 202.3398 780.0391)">
						<stop  offset="0" style="stop-color:#081828"/>
						<stop  offset="1" style="stop-color:#41587A"/>
					</linearGradient>
					<path fill="url(#SVGID_38_)" d="M75.3,526.8c-0.1-0.1-0.3-0.2-0.5-0.4c-0.1,0-0.1,0-0.1-0.1c-0.2-0.3-0.4-0.6-0.4-1
						c0-0.5,0.2-0.9,0.5-1.2c0.4-0.3,0.8-0.5,1.3-0.5c0.3,0,0.5,0.1,0.8,0.2c0.2,0,0.4,0.1,0.5,0.3l0,0c0,0,0.1,0,0.1,0.1l0,0v0.1
						c0.2,0.3,0.3,0.6,0.3,1c0,0.5-0.2,0.8-0.5,1.2c-0.3,0.4-0.8,0.5-1.3,0.5c-0.2,0-0.4,0-0.6,0C75.4,526.9,75.4,526.8,75.3,526.8z
						 M76.9,524.9C76.9,524.9,76.8,524.8,76.9,524.9c-0.1-0.1-0.1-0.1-0.1-0.1c0-0.1-0.1-0.1-0.2-0.2c-0.1,0-0.2,0-0.3,0
						c-0.2,0-0.4,0.1-0.5,0.3c-0.2,0.1-0.3,0.3-0.3,0.5c0,0.2,0.1,0.3,0.2,0.5l0.1,0.1l0.1,0.1H76c0.1,0,0.2,0,0.3,0
						c0.2,0,0.4-0.1,0.5-0.2c0.2-0.2,0.3-0.3,0.3-0.5C77,525.1,77,525,76.9,524.9z"/>
					
						<linearGradient id="SVGID_39_" gradientUnits="userSpaceOnUse" x1="-128.8745" y1="254.4048" x2="-126.8493" y2="257.1796" gradientTransform="matrix(1 0 0 -1 202.3398 780.0391)">
						<stop  offset="0" style="stop-color:#081828"/>
						<stop  offset="0.5569" style="stop-color:#000E11"/>
						<stop  offset="1" style="stop-color:#41587A"/>
					</linearGradient>
					<path fill="url(#SVGID_39_)" d="M77.4,524c-0.1-0.2-0.3-0.3-0.5-0.3c-0.2-0.1-0.5-0.2-0.8-0.2c-0.5,0-0.9,0.2-1.3,0.5
						c-0.3,0.3-0.5,0.7-0.5,1.2c0,0.4,0.1,0.8,0.4,1c0,0.1,0.1,0.1,0.1,0.1c0.2,0.2,0.3,0.3,0.5,0.4l-1.5-0.7l0,0h-0.1
						c-0.2-0.1-0.4-0.3-0.6-0.5c-0.5-0.4-0.7-0.9-0.7-1.5s0.2-1.1,0.7-1.5c0.4-0.4,1-0.6,1.6-0.6c0.7,0,1.2,0.2,1.6,0.6
						c0.1,0.1,0.2,0.2,0.3,0.3L77.4,524z"/>
					<path d="M76.9,524.9c0.1,0.1,0.1,0.2,0.1,0.4s-0.1,0.4-0.3,0.5c-0.1,0.1-0.3,0.2-0.5,0.2c-0.1,0-0.2,0-0.3,0h-0.1
						c-0.1,0-0.1-0.1-0.1-0.1l-0.1-0.1c-0.1-0.1-0.2-0.3-0.2-0.5c0-0.2,0.1-0.4,0.3-0.5c0.1-0.2,0.3-0.3,0.5-0.3c0.1,0,0.3,0,0.3,0
						c0.1,0.1,0.2,0.1,0.2,0.2C76.8,524.8,76.8,524.8,76.9,524.9C76.8,524.8,76.9,524.9,76.9,524.9z"/>
				</g>
			</g>
		</g>
		<path d="M35.6,538.4h1.1v0.1c0.1,1.6,1.1,2.8,3,3.6c2.3,1,6.2,1.6,11.6,1.9c3.3,0.1,9.5,0.1,18.6-0.1c9.8-0.2,17.7-0.2,23.6-0.1
			c4.9,0.1,9.3,0,13.1-0.5c3.4-0.4,6-0.9,7.6-1.6c1.1-0.5,2-1.1,2.4-2c0.4-0.8,0.4-1.6,0.1-2.4c-1-2.2-4-3.6-8.9-4.2
			c-13.4-1.6-24-4-31.7-7.2c-0.1-0.1-0.2-0.2-0.3-0.3c-0.1-0.1-0.1-0.3,0-0.4c0.1-0.1,0.2-0.2,0.3-0.3c0.1-0.1,0.3-0.1,0.4,0
			c7.6,3.2,18.1,5.6,31.4,7.2c5.4,0.6,8.7,2.3,9.8,4.8c0.5,1.1,0.5,2.2-0.1,3.4c-0.6,1.1-1.6,1.9-3,2.5c-1.7,0.7-4.3,1.2-7.8,1.6
			c-3.9,0.4-8.3,0.6-13.3,0.5c-5.9-0.1-13.7-0.1-23.5,0.1c-9.2,0.2-15.4,0.2-18.6,0.1c-5.7-0.2-9.7-0.8-12.1-1.9
			C36.9,542,35.7,540.5,35.6,538.4L35.6,538.4z"/>
		<g>
			
				<radialGradient id="SVGID_40_" cx="-153.8721" cy="168.8164" r="10.4125" gradientTransform="matrix(0.8411 0 0 -0.4897 173.1339 623.207)" gradientUnits="userSpaceOnUse">
				<stop  offset="0" style="stop-color:#FFFFFF"/>
				<stop  offset="1" style="stop-color:#FFFFFF;stop-opacity:0"/>
			</radialGradient>
			<path fill="url(#SVGID_40_)" d="M35.9,538.4h0.4c0.1,1.8,1.2,3.1,3.2,4c2.3,1,6.2,1.7,11.7,1.9l0,0c0.1,0,0.1,0,0.2,0h0.1
				c0.1,0.1,0.1,0.1,0,0.2c0,0,0,0.1-0.1,0.1c0,0.1-0.1,0.1-0.1,0c-0.1,0-0.2,0-0.2,0c-5.6-0.2-9.5-0.8-11.9-1.9
				C37.1,541.7,36,540.3,35.9,538.4z"/>
			
				<radialGradient id="SVGID_41_" cx="-100.0723" cy="7.3584" r="15.3625" gradientTransform="matrix(0.8411 0 0 -0.2204 173.1339 530.1161)" gradientUnits="userSpaceOnUse">
				<stop  offset="0" style="stop-color:#FFFFFF"/>
				<stop  offset="1" style="stop-color:#FFFFFF;stop-opacity:0"/>
			</radialGradient>
			<path fill="url(#SVGID_41_)" d="M101.8,531.8C101.7,531.8,101.7,531.8,101.8,531.8c-10.6-1.6-19.2-3.7-25.7-6.4l-0.1-0.1
				c0-0.1,0-0.1,0-0.2l0.1-0.1c0.1,0,0.1,0,0.2,0c6.4,2.7,14.9,4.8,25.4,6.4c0.1,0,0.1,0,0.1,0.1v0.1
				C101.9,531.8,101.9,531.8,101.8,531.8z"/>
			
				<radialGradient id="SVGID_42_" cx="-68.6226" cy="227.4849" r="9.175" gradientTransform="matrix(0.8411 0 0 -0.801 173.1339 720.4497)" gradientUnits="userSpaceOnUse">
				<stop  offset="0" style="stop-color:#FFFFFF"/>
				<stop  offset="1" style="stop-color:#FFFFFF;stop-opacity:0"/>
			</radialGradient>
			<path fill="url(#SVGID_42_)" d="M105.5,532.4h-0.1c0-0.1,0-0.1,0-0.1c0-0.1,0-0.1,0-0.1c0.1-0.1,0.1-0.1,0.1,0
				c0.7,0.1,1.5,0.2,2.2,0.3c5.2,0.6,8.4,2.2,9.5,4.6c0.5,1,0.4,2.1-0.1,3.1s-1.5,1.8-2.8,2.3c-1.1,0.4-2.6,0.8-4.6,1.2
				c-1,0.2-2,0.3-3.2,0.4c-0.5,0.1-1,0.1-1.4,0.1H105c-0.1-0.1-0.1-0.1-0.1-0.1c0-0.1,0-0.1,0-0.1c0-0.1,0.1-0.1,0.1-0.1
				c0.5-0.1,0.9-0.1,1.4-0.1c1.1-0.1,2.2-0.3,3.1-0.4c1.9-0.3,3.4-0.7,4.5-1.2c1.2-0.5,2.1-1.2,2.6-2.1c0.5-0.9,0.5-1.8,0.1-2.8
				c-1.1-2.3-4.1-3.8-9.2-4.4C107,532.6,106.3,532.5,105.5,532.4z"/>
			
				<radialGradient id="SVGID_43_" cx="-110.6738" cy="-179.0249" r="17.9631" gradientTransform="matrix(0.8411 0 0 -0.1446 173.1339 518.4189)" gradientUnits="userSpaceOnUse">
				<stop  offset="0" style="stop-color:#FFFFFF"/>
				<stop  offset="1" style="stop-color:#FFFFFF;stop-opacity:0"/>
			</radialGradient>
			<path fill="url(#SVGID_43_)" d="M58.6,544.7c-0.1,0-0.1,0-0.1,0c0-0.1,0-0.1,0-0.1c0-0.1,0-0.1,0-0.1c0-0.1,0.1-0.1,0.1-0.1
				c3.1,0,6.8,0,11.2-0.1c9.8-0.2,17.6-0.3,23.5-0.1c2.9,0.1,5.6,0,8.1-0.1h0.1v0.1v0.1h-0.1c-2.5,0.1-5.2,0.2-8.1,0.1
				c-5.9-0.1-13.7-0.1-23.5,0.1C65.4,544.6,61.7,544.6,58.6,544.7z"/>
		</g>
	</g>
	<g>
		<g>
			
				<linearGradient id="SVGID_44_" gradientUnits="userSpaceOnUse" x1="-130.7148" y1="265.939" x2="-124.7648" y2="265.939" gradientTransform="matrix(1 0 0 -1 202.3398 780.0391)">
				<stop  offset="0" style="stop-color:#E6E6E6"/>
				<stop  offset="0.102" style="stop-color:#FFFFFF"/>
				<stop  offset="0.251" style="stop-color:#E6E6E6"/>
				<stop  offset="0.5333" style="stop-color:#919191"/>
				<stop  offset="0.7882" style="stop-color:#FFFFFF"/>
				<stop  offset="1" style="stop-color:#AFAFAF"/>
			</linearGradient>
			<polygon fill="url(#SVGID_44_)" points="77.3,513.3 76.5,516.5 73.2,516.7 72,513.6 74.6,511.5 			"/>
		</g>
		<g>
			<g>
				
					<linearGradient id="SVGID_45_" gradientUnits="userSpaceOnUse" x1="-129.04" y1="265.2891" x2="-125.6396" y2="265.2891" gradientTransform="matrix(1 0 0 -1 202.3398 780.0391)">
					<stop  offset="0" style="stop-color:#E6E6E6"/>
					<stop  offset="0.102" style="stop-color:#FFFFFF"/>
					<stop  offset="0.251" style="stop-color:#E6E6E6"/>
					<stop  offset="0.5333" style="stop-color:#919191"/>
					<stop  offset="0.7882" style="stop-color:#FFFFFF"/>
					<stop  offset="1" style="stop-color:#AFAFAF"/>
				</linearGradient>
				<path fill="url(#SVGID_45_)" d="M75,513c0.5,0,0.9,0.2,1.2,0.5c0.4,0.4,0.5,0.8,0.5,1.3s-0.2,0.8-0.5,1.2
					c-0.3,0.4-0.7,0.5-1.2,0.5s-0.9-0.2-1.2-0.5c-0.3-0.3-0.5-0.7-0.5-1.2s0.2-0.9,0.5-1.3C74.1,513.2,74.5,513,75,513z M75.3,514.2
					c-0.3,0-0.5,0.1-0.7,0.3c-0.2,0.2-0.3,0.5-0.3,0.8c0,0.2,0.1,0.5,0.3,0.6c0.2,0.2,0.4,0.3,0.7,0.3c0.3,0,0.5-0.1,0.7-0.3
					c0.2-0.2,0.3-0.4,0.3-0.6c0-0.3-0.1-0.5-0.3-0.8C75.8,514.3,75.6,514.2,75.3,514.2z"/>
				<path d="M75.3,514.2c0.3,0,0.5,0.1,0.7,0.3s0.3,0.5,0.3,0.8c0,0.2-0.1,0.5-0.3,0.6c-0.2,0.2-0.4,0.3-0.7,0.3
					c-0.3,0-0.5-0.1-0.7-0.3c-0.2-0.2-0.3-0.4-0.3-0.6c0-0.3,0.1-0.5,0.3-0.8C74.8,514.3,75,514.2,75.3,514.2z"/>
			</g>
		</g>
		<g>
			<g>
				
					<linearGradient id="SVGID_46_" gradientUnits="userSpaceOnUse" x1="-456.6821" y1="360.8555" x2="-454.9268" y2="360.8555" gradientTransform="matrix(0.8118 -0.5839 -0.5551 -0.8326 646.3162 550.3729)">
					<stop  offset="0" style="stop-color:#E6E6E6"/>
					<stop  offset="0.102" style="stop-color:#FFFFFF"/>
					<stop  offset="0.251" style="stop-color:#E6E6E6"/>
					<stop  offset="0.5333" style="stop-color:#919191"/>
					<stop  offset="0.7882" style="stop-color:#FFFFFF"/>
					<stop  offset="1" style="stop-color:#AFAFAF"/>
				</linearGradient>
				<path fill="url(#SVGID_46_)" d="M77.9,516.7L77.9,516.7L77.9,516.7L77.9,516.7z M77.1,516c-0.1-0.1-0.3-0.2-0.5-0.2
					c-0.4,0-0.7,0.1-0.9,0.4c-0.2,0.2-0.3,0.4-0.3,0.7l-0.6-1.5c0-0.6,0.3-0.9,0.9-0.7L77.1,516z"/>
				
					<radialGradient id="SVGID_47_" cx="-125.8398" cy="263.2402" r="2" gradientTransform="matrix(1 0 0 -1 202.3398 780.0391)" gradientUnits="userSpaceOnUse">
					<stop  offset="0" style="stop-color:#FFFFFF"/>
					<stop  offset="0.1451" style="stop-color:#E4E4E4"/>
					<stop  offset="0.3451" style="stop-color:#C5C5C5"/>
					<stop  offset="0.6118" style="stop-color:#979797"/>
					<stop  offset="0.8039" style="stop-color:#AEAEAE"/>
					<stop  offset="1" style="stop-color:#595959"/>
				</radialGradient>
				<path fill="url(#SVGID_47_)" d="M77.1,516c0.1,0,0.2,0.1,0.4,0.3c0.1,0.1,0.2,0.3,0.3,0.4l0,0c0,0.1,0.1,0.3,0.1,0.4
					c0,0.4-0.1,0.7-0.4,1c-0.2,0.3-0.5,0.4-0.9,0.4s-0.7-0.1-0.9-0.4c-0.3-0.3-0.4-0.6-0.4-1c0-0.1,0-0.1,0.1-0.2
					c0-0.2,0.1-0.5,0.3-0.7c0.3-0.3,0.6-0.4,0.9-0.4C76.9,515.8,77,515.9,77.1,516z"/>
			</g>
		</g>
	</g>
</g>
</svg>
