<?xml version="1.0" encoding="utf-8"?>
<!-- Generator: Adobe Illustrator 16.0.0, SVG Export Plug-In . SVG Version: 6.00 Build 0)  -->
<!DOCTYPE svg PUBLIC "-//W3C//DTD SVG 1.1//EN" "http://www.w3.org/Graphics/SVG/1.1/DTD/svg11.dtd">
<svg version="1.1" id="Layer_1" xmlns="http://www.w3.org/2000/svg" xmlns:xlink="http://www.w3.org/1999/xlink" x="0px" y="0px"
	 width="700px" height="700px" viewBox="0 0 700 700" enable-background="new 0 0 700 700" xml:space="preserve">
<g>
	<g>
		<g>
			
				<radialGradient id="SVGID_1_" cx="353.9004" cy="402.2998" r="81.6" gradientTransform="matrix(1 0 0 0.5919 0 164.1738)" gradientUnits="userSpaceOnUse">
				<stop  offset="0" style="stop-color:#FFFFFF;stop-opacity:0.4902"/>
				<stop  offset="1" style="stop-color:#FFFFFF;stop-opacity:0"/>
			</radialGradient>
			<path fill-rule="evenodd" clip-rule="evenodd" fill="url(#SVGID_1_)" d="M297.6,402.3C297.6,402.3,297.6,402.2,297.6,402.3
				l151.3-0.1c0,0,0,0.1,0,0.1l0,0L297.6,402.3C297.6,402.3,297.6,402.3,297.6,402.3z"/>
			
				<radialGradient id="SVGID_2_" cx="365.25" cy="535.1504" r="81.6" gradientTransform="matrix(1 0 0 0.5919 0 218.3885)" gradientUnits="userSpaceOnUse">
				<stop  offset="0" style="stop-color:#FFFFFF;stop-opacity:0.2902"/>
				<stop  offset="1" style="stop-color:#FFFFFF;stop-opacity:0"/>
			</radialGradient>
			<path fill-rule="evenodd" clip-rule="evenodd" fill="url(#SVGID_2_)" d="M296.4,534.2c0,0,0-0.1,0-0.1h151.3c0,0,0,0.1,0,0.1
				l-0.1,0.1L296.4,534.2L296.4,534.2C296.3,534.2,296.3,534.2,296.4,534.2z"/>
			<radialGradient id="SVGID_3_" cx="449.5498" cy="438.9502" r="103.5125" gradientUnits="userSpaceOnUse">
				<stop  offset="0" style="stop-color:#000000"/>
				<stop  offset="1" style="stop-color:#070707;stop-opacity:0"/>
			</radialGradient>
			<path fill-rule="evenodd" clip-rule="evenodd" fill="url(#SVGID_3_)" d="M449.7,533L449.7,533c-0.1-0.1-0.1-0.1-0.1,0
				c0,0-0.1,0-0.1,0V405.5c0,0,0.1,0,0.1,0c0,0,0,0,0,0l0.1,0V533z"/>
			<radialGradient id="SVGID_4_" cx="449.5498" cy="470" r="103.5125" gradientUnits="userSpaceOnUse">
				<stop  offset="0" style="stop-color:#000000"/>
				<stop  offset="1" style="stop-color:#070707;stop-opacity:0"/>
			</radialGradient>
			<path fill-rule="evenodd" clip-rule="evenodd" fill="url(#SVGID_4_)" d="M449.7,533v0.5c0,0,0,0-0.1,0l0,0c0,0-0.1,0-0.1,0v-0.5
				c0,0,0.1,0,0.1,0C449.5,532.9,449.6,532.9,449.7,533L449.7,533z"/>
		</g>
		<g>
			<rect x="296.8" y="523.1" fill-rule="evenodd" clip-rule="evenodd" width="153.5" height="13.8"/>
		</g>
		<g>
			<g>
				<linearGradient id="SVGID_5_" gradientUnits="userSpaceOnUse" x1="296.7002" y1="401.4746" x2="450.2002" y2="401.4746">
					<stop  offset="0" style="stop-color:#151921"/>
					<stop  offset="0.5216" style="stop-color:#36455A"/>
					<stop  offset="1" style="stop-color:#1C2027"/>
				</linearGradient>
				<path fill-rule="evenodd" clip-rule="evenodd" fill="url(#SVGID_5_)" d="M450.2,402.3H296.8l0-0.1l6.6-1.5h142.9
					C447.7,401.1,449,401.7,450.2,402.3z"/>
				<linearGradient id="SVGID_6_" gradientUnits="userSpaceOnUse" x1="325.7451" y1="314.8154" x2="397.0695" y2="544.0156">
					<stop  offset="0" style="stop-color:#10141B"/>
					<stop  offset="1" style="stop-color:#2C364B"/>
				</linearGradient>
				<polygon fill-rule="evenodd" clip-rule="evenodd" fill="url(#SVGID_6_)" points="296.8,402.3 450.2,402.3 450.3,402.3 
					450.3,534.3 296.8,534.3 				"/>
			</g>
		</g>
	</g>
	<g>
		<g>
			<g>
				<path fill-rule="evenodd" clip-rule="evenodd" fill="#161B21" d="M417,434.3c2.6,5.8,3.9,12.1,3.9,19c0,6.8-1.3,13.1-3.9,18.9
					c-2.2,5-5.5,9.6-9.7,13.8c-1.9,1.9-3.9,3.5-5.9,5c-7.8,5.7-16.7,8.5-26.9,8.5c-12.8,0-23.7-4.5-32.8-13.5
					c-9-9.1-13.5-20-13.5-32.8c0-12.8,4.5-23.7,13.5-32.8c0.5-0.5,1-1,1.5-1.5c6.5-6,13.9-9.8,22.3-11.3l8.7-0.8c0.1,0,0.3,0,0.3,0
					c0.9,0,1.9,0,2.8,0.1l4,0.4c9.9,1.3,18.6,5.7,26,13.1C411.5,424.8,414.7,429.3,417,434.3z"/>
				
					<path fill-rule="evenodd" clip-rule="evenodd" fill="none" stroke="#000000" stroke-linecap="round" stroke-linejoin="round" stroke-miterlimit="3" d="
					M417,434.3c2.6,5.8,3.9,12.1,3.9,19c0,6.8-1.3,13.1-3.9,18.9c-2.2,5-5.5,9.6-9.7,13.8c-1.9,1.9-3.9,3.5-5.9,5
					c-7.8,5.7-16.7,8.5-26.9,8.5c-12.8,0-23.7-4.5-32.8-13.5c-9-9.1-13.5-20-13.5-32.8c0-12.8,4.5-23.7,13.5-32.8
					c0.5-0.5,1-1,1.5-1.5c6.5-6,13.9-9.8,22.3-11.3l8.7-0.8c0.1,0,0.3,0,0.3,0c0.9,0,1.9,0,2.8,0.1l4,0.4c9.9,1.3,18.6,5.7,26,13.1
					C411.5,424.8,414.7,429.3,417,434.3z"/>
			</g>
		</g>
		<g>
			<linearGradient id="SVGID_7_" gradientUnits="userSpaceOnUse" x1="374.2373" y1="507.4873" x2="374.7623" y2="399.2123">
				<stop  offset="0" style="stop-color:#080808;stop-opacity:0.298"/>
				<stop  offset="0.502" style="stop-color:#040404;stop-opacity:0"/>
				<stop  offset="1" style="stop-color:#000000;stop-opacity:0.2627"/>
			</linearGradient>
			<path fill-rule="evenodd" clip-rule="evenodd" fill="url(#SVGID_7_)" d="M374.5,412.1c11.4,0,21.1,4,29.2,12.1
				c8.1,8.1,12.1,17.8,12.1,29.1c0,11.4-4,21.1-12.1,29.2c-8.1,8-17.8,12-29.2,12c-11.4,0-21.1-4-29.1-12
				c-8.1-8.1-12.1-17.8-12.1-29.2c0-11.4,4-21.1,12.1-29.1C353.4,416.1,363.1,412.1,374.5,412.1z M401.3,426.5
				c-7.4-7.4-16.4-11.2-26.8-11.2c-10.5,0-19.5,3.7-26.9,11.2c-7.5,7.4-11.2,16.4-11.2,26.8c0,10.5,3.7,19.5,11.2,26.9
				c7.4,7.4,16.4,11.2,26.9,11.2c10.5,0,19.4-3.7,26.8-11.2c7.4-7.4,11.2-16.4,11.2-26.9C412.5,442.9,408.8,433.9,401.3,426.5z"/>
		</g>
		<g>
			<path fill-rule="evenodd" clip-rule="evenodd" fill="#4C261D" d="M396.9,430.7c6.3,6.3,9.4,13.9,9.4,22.8s-3.1,16.5-9.4,22.8
				c-0.4,0.3-0.7,0.7-1,1c-6.1,5.6-13.4,8.4-21.8,8.4c-8.9,0-16.5-3.1-22.8-9.4c-4.5-4.5-7.4-9.8-8.6-15.6c0-0.1-0.1-0.1-0.1-0.2
				c-0.4-2.2-0.6-4.6-0.6-7c0-8.9,3.1-16.5,9.4-22.8c1.3-1.3,2.7-2.5,4.2-3.5c5.4-4,11.6-6,18.7-6
				C383,421.3,390.6,424.4,396.9,430.7z"/>
		</g>
		<g>
			<g>
				
					<radialGradient id="SVGID_8_" cx="371.0996" cy="453.125" r="44.4859" gradientTransform="matrix(0.9908 0.1353 -0.1985 1.4537 93.3545 -255.7958)" gradientUnits="userSpaceOnUse">
					<stop  offset="0" style="stop-color:#FFFFFF"/>
					<stop  offset="1" style="stop-color:#F7F7F7;stop-opacity:0"/>
				</radialGradient>
				<path fill-rule="evenodd" clip-rule="evenodd" fill="url(#SVGID_8_)" d="M406.6,485.5c8.9-8.9,13.4-19.7,13.4-32.4
					c0-12.6-4.5-23.4-13.4-32.3c-8.9-8.9-19.7-13.4-32.4-13.4c-11.9,0-22.2,4-30.9,12c-0.5,0.4-1,0.9-1.5,1.4
					c-8.9,8.9-13.4,19.7-13.4,32.3c0,12.7,4.5,23.5,13.4,32.4c8.9,8.9,19.7,13.4,32.4,13.4c10,0,18.9-2.8,26.5-8.4
					C402.8,489,404.7,487.3,406.6,485.5z M420.7,453.1c0,12.8-4.5,23.8-13.6,32.9c-1.9,1.9-3.8,3.6-5.9,5.1
					c-7.8,5.7-16.8,8.5-27,8.5c-12.8,0-23.7-4.5-32.8-13.6c-9.1-9.1-13.6-20-13.6-32.9c0-12.8,4.5-23.7,13.6-32.8
					c0.5-0.5,1-1,1.5-1.5h0c8.8-8.1,19.2-12.1,31.4-12.1c12.8,0,23.8,4.5,32.8,13.6S420.7,440.3,420.7,453.1z"/>
				
					<radialGradient id="SVGID_9_" cx="374.2246" cy="453.5" r="20.2049" gradientTransform="matrix(1 0 0 2.8584 0 -842.7751)" gradientUnits="userSpaceOnUse">
					<stop  offset="0" style="stop-color:#FFFFFF"/>
					<stop  offset="0.2706" style="stop-color:#FFFFFF;stop-opacity:0.9451"/>
					<stop  offset="1" style="stop-color:#F9F9F9;stop-opacity:0"/>
				</radialGradient>
				<path fill-rule="evenodd" clip-rule="evenodd" fill="url(#SVGID_9_)" d="M374.2,421.1c8.9,0,16.6,3.2,23,9.5
					c6.3,6.3,9.5,14,9.5,22.9c0,9-3.2,16.6-9.5,23c-0.4,0.3-0.7,0.7-1,1c-6.2,5.6-13.5,8.5-22,8.5c-8.9,0-16.6-3.2-22.9-9.5
					c-4.6-4.6-7.5-9.8-8.8-15.7c0-0.1,0-0.2,0-0.2v0c-0.5-2.2-0.7-4.5-0.7-7c0-8.9,3.2-16.6,9.5-22.9c1.3-1.3,2.7-2.5,4.2-3.5
					C360.8,423.1,367.1,421.1,374.2,421.1z M396.9,430.8c-6.3-6.3-13.8-9.4-22.7-9.4c-7,0-13.2,2-18.5,5.9c-1.5,1-2.9,2.2-4.2,3.5
					c-6.2,6.2-9.4,13.8-9.4,22.7c0,2.4,0.2,4.8,0.6,7c0,0.1,0.1,0.1,0.1,0.3c1.3,5.8,4.1,11,8.6,15.5c6.3,6.2,13.8,9.3,22.7,9.3
					c8.4,0,15.6-2.8,21.7-8.3c0.3-0.3,0.7-0.7,1-1c6.3-6.3,9.4-13.9,9.4-22.8S403.2,437.1,396.9,430.8z"/>
			</g>
		</g>
		<g>
			<g>
				
					<radialGradient id="SVGID_10_" cx="372.5498" cy="413.5" r="18.525" gradientTransform="matrix(1 0 0 1.1673 0 -69.1957)" gradientUnits="userSpaceOnUse">
					<stop  offset="0" style="stop-color:#FFFFFF"/>
					<stop  offset="0.2706" style="stop-color:#FFFFFF;stop-opacity:0.9451"/>
					<stop  offset="1" style="stop-color:#F9F9F9;stop-opacity:0"/>
				</radialGradient>
				<path fill-rule="evenodd" clip-rule="evenodd" fill="url(#SVGID_10_)" d="M405,418.9c0,0.1,0,0.2,0,0.3
					c-0.1,0.1-0.2,0.1-0.3,0.1s-0.2,0-0.3,0c-8.5-7.7-18.5-11.6-30.2-11.6c-9.9,0-18.5,2.8-26,8.3c-1.4,1-2.8,2.1-4.1,3.4
					c-0.1,0-0.1,0-0.2,0c-0.1,0-0.2,0-0.3-0.1c-0.1-0.1-0.1-0.2-0.1-0.3c0-0.1,0-0.2,0.1-0.2c1.3-1.2,2.7-2.4,4.1-3.4
					c7.6-5.6,16.4-8.3,26.4-8.3c11.8,0,22,3.9,30.6,11.8C405,418.7,405,418.8,405,418.9z"/>
				
					<radialGradient id="SVGID_11_" cx="375.2002" cy="486.0498" r="7.6125" gradientTransform="matrix(1 0 0 -1.1691 0 1054.3051)" gradientUnits="userSpaceOnUse">
					<stop  offset="0" style="stop-color:#FFFFFF"/>
					<stop  offset="0.2706" style="stop-color:#FFFFFF;stop-opacity:0.9451"/>
					<stop  offset="1" style="stop-color:#F9F9F9;stop-opacity:0"/>
				</radialGradient>
				<path fill-rule="evenodd" clip-rule="evenodd" fill="url(#SVGID_11_)" d="M362.5,483.3C362.5,483.3,362.5,483.2,362.5,483.3
					c0-0.1,0.1-0.1,0.1-0.1c3.7,1.6,7.8,2.5,12.2,2.5c5.3,0,10.1-1.2,14.4-3.7c0,0,0,0,0,0l0,0v0.1l0,0c-4.3,2.4-9.1,3.6-14.5,3.6
					C370.4,485.8,366.3,485,362.5,483.3L362.5,483.3z"/>
			</g>
		</g>
		<g>
			<g>
				<radialGradient id="SVGID_12_" cx="409.5498" cy="436.4004" r="23.6625" gradientUnits="userSpaceOnUse">
					<stop  offset="0" style="stop-color:#FFFFFF;stop-opacity:0.2314"/>
					<stop  offset="1" style="stop-color:#F9F9F9;stop-opacity:0"/>
				</radialGradient>
				<path fill-rule="evenodd" clip-rule="evenodd" fill="url(#SVGID_12_)" d="M418.2,464.3C418.2,464.3,418.2,464.3,418.2,464.3
					c2.7-10.2,2.3-19.6-1.3-28.2c-2.5-6.1-6.6-11.8-12.2-17.1c0,0,0-0.1,0-0.1c0,0,0.1-0.1,0.1-0.1c0,0,0,0,0,0
					c5.6,5.4,9.7,11.1,12.2,17.2c3.6,8.7,4,18.1,1.3,28.3H418.2L418.2,464.3L418.2,464.3z"/>
				
					<radialGradient id="SVGID_13_" cx="374.0498" cy="418.25" r="8.1625" gradientTransform="matrix(1 0 0 1.1669 0 -69.8151)" gradientUnits="userSpaceOnUse">
					<stop  offset="0" style="stop-color:#FFFFFF;stop-opacity:0.5333"/>
					<stop  offset="1" style="stop-color:#F9F9F9;stop-opacity:0"/>
				</radialGradient>
				<path fill-rule="evenodd" clip-rule="evenodd" fill="url(#SVGID_13_)" d="M386.5,417c0,0.1,0,0.1,0,0.2
					c-0.1,0.1-0.1,0.2-0.2,0.2c-0.1,0.1-0.2,0.1-0.3,0c-3.6-1.1-7.3-1.6-11.3-1.6c-4.1,0-7.9,0.5-11.5,1.6c-0.1,0-0.1,0-0.2,0
					c-0.1,0-0.2-0.1-0.2-0.2c0-0.1,0-0.2,0-0.3c0.1-0.1,0.1-0.1,0.2-0.1c3.7-1.1,7.6-1.7,11.8-1.7c4.1,0,7.9,0.5,11.5,1.7
					C386.5,416.9,386.5,417,386.5,417z"/>
				<radialGradient id="SVGID_14_" cx="376.5" cy="491.7002" r="16.225" gradientUnits="userSpaceOnUse">
					<stop  offset="0" style="stop-color:#FFFFFF;stop-opacity:0.3255"/>
					<stop  offset="1" style="stop-color:#F9F9F9;stop-opacity:0"/>
				</radialGradient>
				<path fill-rule="evenodd" clip-rule="evenodd" fill="url(#SVGID_14_)" d="M358.8,488.3c0,0,0.1,0,0.1,0
					c11.8,4.3,23,3.9,33.5-1.2h0c0,0,0,0,0,0v0c0,0,0,0.1,0,0.1c-10.6,5.1-21.8,5.5-33.7,1.2v0C358.8,488.4,358.8,488.4,358.8,488.3
					z"/>
			</g>
		</g>
		<g>
			<linearGradient id="SVGID_15_" gradientUnits="userSpaceOnUse" x1="335.4204" y1="440.4648" x2="413.5704" y2="465.9648">
				<stop  offset="0" style="stop-color:#FFFFFF;stop-opacity:9.411765e-002"/>
				<stop  offset="0.9804" style="stop-color:#FEFEFE;stop-opacity:6.666667e-002"/>
				<stop  offset="1" style="stop-color:#FBFBFB;stop-opacity:0"/>
			</linearGradient>
			<path fill-rule="evenodd" clip-rule="evenodd" fill="url(#SVGID_15_)" d="M374.5,412c11.4,0,21.1,4,29.2,12
				c8.1,8.1,12.1,17.8,12.1,29.2c0,11.4-4,21.1-12.1,29.1c-8,8.1-17.8,12.1-29.2,12.1c-11.4,0-21.1-4-29.1-12.1
				c-8-8.1-12-17.8-12-29.1c0-11.4,4-21.1,12-29.2C353.4,416,363.1,412,374.5,412z M403.5,424.2c-8-8-17.6-12-29-12
				c-11.3,0-21,4-29,12s-12,17.7-12,29c0,11.3,4,21,12,29c8,8,17.7,12,29,12c11.4,0,21-4,29-12c8-8,12-17.7,12-29
				C415.5,441.9,411.5,432.2,403.5,424.2z"/>
		</g>
	</g>
	<g>
		<g>
			<path fill-rule="evenodd" clip-rule="evenodd" d="M427.8,520.8c-1.9,1.9-4.2,2.9-6.9,2.9s-5.1-1-7-2.9c-1.9-1.9-2.9-4.2-2.9-6.9
				s1-5.1,2.9-7c1.9-1.9,4.2-2.9,7-2.9s5,1,6.9,2.9c1.9,1.9,2.9,4.2,2.9,7S429.8,519,427.8,520.8z"/>
		</g>
		<g>
			<linearGradient id="SVGID_16_" gradientUnits="userSpaceOnUse" x1="418.4932" y1="517.7461" x2="426.8001" y2="504.3504">
				<stop  offset="0" style="stop-color:#4D5C5E;stop-opacity:0.9804"/>
				<stop  offset="9.803922e-002" style="stop-color:#627373;stop-opacity:0.9804"/>
				<stop  offset="0.2039" style="stop-color:#6C7D7D;stop-opacity:0.9804"/>
				<stop  offset="0.3294" style="stop-color:#778988;stop-opacity:0.9804"/>
				<stop  offset="0.4745" style="stop-color:#869997;stop-opacity:0.9882"/>
				<stop  offset="0.5686" style="stop-color:#C7D1CD;stop-opacity:0.9922"/>
				<stop  offset="0.6941" style="stop-color:#E1EAE6"/>
				<stop  offset="1" style="stop-color:#426053"/>
			</linearGradient>
			<path fill-rule="evenodd" clip-rule="evenodd" fill="url(#SVGID_16_)" d="M428,513.9c0,1.9-0.7,3.6-2,4.9
				c-0.7,0.7-1.5,1.2-2.3,1.6c-0.9,0.4-1.8,0.5-2.8,0.5c-1.9,0-3.6-0.7-5-2.1c-1.4-1.4-2.1-3-2.1-4.9c0-2,0.7-3.7,2.1-5.1
				c0.9-0.9,2-1.5,3.2-1.8c0.6-0.1,1.2-0.2,1.8-0.2c1.9,0,3.6,0.7,5,2C427.3,510.3,428,511.9,428,513.9z"/>
		</g>
		<g>
			<radialGradient id="SVGID_17_" cx="421.5" cy="513.3496" r="3.6625" gradientUnits="userSpaceOnUse">
				<stop  offset="0" style="stop-color:#3D4341"/>
				<stop  offset="0.8667" style="stop-color:#37403F;stop-opacity:0.9922"/>
				<stop  offset="1" style="stop-color:#171C1C;stop-opacity:0.9804"/>
			</radialGradient>
			<path fill-rule="evenodd" clip-rule="evenodd" fill="url(#SVGID_17_)" d="M423.7,516.5c-0.7,0.7-1.6,1.1-2.7,1.1
				s-1.9-0.4-2.7-1.1s-1.1-1.6-1.1-2.7s0.4-1.9,1.1-2.6s1.6-1.1,2.7-1.1s1.9,0.4,2.7,1.1s1.1,1.6,1.1,2.6S424.4,515.7,423.7,516.5z"
				/>
		</g>
		<g>
			<path fill-rule="evenodd" clip-rule="evenodd" fill="#FFFFFF" d="M423.3,516.8c-1.2,1.3-2.5,1.5-3.8,0.7l-0.6-0.5
				c0.8,0.5,1.7,0.7,2.5,0.6C422.1,517.5,422.8,517.2,423.3,516.8z M425,512.8l0,0.7c-0.2-0.9-0.6-1.7-1.1-2.3
				c-0.5-0.6-1.1-1-1.7-1.2C423.7,510.3,424.7,511.3,425,512.8z"/>
		</g>
		<g>
			<linearGradient id="SVGID_18_" gradientUnits="userSpaceOnUse" x1="421.2783" y1="509.3174" x2="420.8533" y2="516.1924">
				<stop  offset="0.102" style="stop-color:#E6E6E6"/>
				<stop  offset="0.2667" style="stop-color:#636363;stop-opacity:0.5333"/>
				<stop  offset="0.5176" style="stop-color:#151515;stop-opacity:0.2706"/>
				<stop  offset="1" style="stop-color:#6A6A6A"/>
			</linearGradient>
			<path fill-rule="evenodd" clip-rule="evenodd" fill="url(#SVGID_18_)" d="M423.5,516.3c-0.7,0.7-1.5,1-2.5,1
				c-0.9,0-1.7-0.3-2.4-1c-0.7-0.7-1-1.5-1-2.5c0-0.9,0.4-1.8,1-2.5c0.7-0.7,1.5-1,2.4-1c1,0,1.8,0.3,2.5,1c0.7,0.7,1,1.5,1,2.5
				C424.5,514.8,424.1,515.6,423.5,516.3z"/>
		</g>
	</g>
	<g>
		<g>
			<path fill-rule="evenodd" clip-rule="evenodd" d="M318.1,513.9c0-2.7,1-5.1,2.9-7c1.9-1.9,4.2-2.9,7-2.9c2.7,0,5,1,6.9,2.9
				c1.9,1.9,2.9,4.2,2.9,7s-1,5-2.9,6.9c-1.9,1.9-4.2,2.9-6.9,2.9c-2.8,0-5.1-1-7-2.9C319.1,519,318.1,516.6,318.1,513.9z"/>
		</g>
		<g>
			<linearGradient id="SVGID_19_" gradientUnits="userSpaceOnUse" x1="325.5571" y1="517.7236" x2="333.864" y2="504.3279">
				<stop  offset="0" style="stop-color:#4D5C5E;stop-opacity:0.9804"/>
				<stop  offset="9.803922e-002" style="stop-color:#627373;stop-opacity:0.9804"/>
				<stop  offset="0.2039" style="stop-color:#6C7D7D;stop-opacity:0.9804"/>
				<stop  offset="0.3294" style="stop-color:#778988;stop-opacity:0.9804"/>
				<stop  offset="0.4745" style="stop-color:#869997;stop-opacity:0.9882"/>
				<stop  offset="0.5686" style="stop-color:#C7D1CD;stop-opacity:0.9922"/>
				<stop  offset="0.6941" style="stop-color:#E1EAE6"/>
				<stop  offset="1" style="stop-color:#426053"/>
			</linearGradient>
			<path fill-rule="evenodd" clip-rule="evenodd" fill="url(#SVGID_19_)" d="M320.9,513.9c0-2,0.7-3.7,2.1-5.1
				c0.9-0.9,2-1.5,3.2-1.8c0.6-0.1,1.2-0.2,1.9-0.2c1.9,0,3.6,0.7,5,2c1.4,1.4,2,3.1,2,5.1c0,1.9-0.7,3.6-2,4.9
				c-0.7,0.7-1.4,1.2-2.3,1.6c-0.8,0.4-1.7,0.5-2.7,0.5c-2,0-3.6-0.7-5-2.1C321.6,517.5,320.9,515.8,320.9,513.9z"/>
		</g>
		<g>
			<radialGradient id="SVGID_20_" cx="328.5498" cy="513.3496" r="3.6625" gradientUnits="userSpaceOnUse">
				<stop  offset="0" style="stop-color:#3D4341"/>
				<stop  offset="0.8667" style="stop-color:#37403F;stop-opacity:0.9922"/>
				<stop  offset="1" style="stop-color:#171C1C;stop-opacity:0.9804"/>
			</radialGradient>
			<path fill-rule="evenodd" clip-rule="evenodd" fill="url(#SVGID_20_)" d="M330.8,516.5c-0.7,0.7-1.6,1.1-2.6,1.1
				c-1.1,0-2-0.4-2.7-1.1s-1.1-1.6-1.1-2.7s0.4-1.9,1.1-2.6s1.6-1.1,2.7-1.1c1,0,1.9,0.4,2.6,1.1s1.1,1.6,1.1,2.6
				S331.5,515.7,330.8,516.5z"/>
		</g>
		<g>
			<path fill-rule="evenodd" clip-rule="evenodd" fill="#FFFFFF" d="M325.9,517c0.8,0.5,1.6,0.7,2.5,0.6c0.8-0.1,1.5-0.4,2-0.8
				c-1.2,1.3-2.5,1.5-3.9,0.7L325.9,517z M331,511.2c-0.5-0.6-1.1-1-1.7-1.2c1.5,0.3,2.4,1.2,2.8,2.8v0.7
				C331.9,512.6,331.5,511.8,331,511.2z"/>
		</g>
		<g>
			<linearGradient id="SVGID_21_" gradientUnits="userSpaceOnUse" x1="328.353" y1="509.3193" x2="327.928" y2="516.1943">
				<stop  offset="0.102" style="stop-color:#E6E6E6"/>
				<stop  offset="0.2667" style="stop-color:#636363;stop-opacity:0.5333"/>
				<stop  offset="0.5176" style="stop-color:#151515;stop-opacity:0.2706"/>
				<stop  offset="1" style="stop-color:#6A6A6A"/>
			</linearGradient>
			<path fill-rule="evenodd" clip-rule="evenodd" fill="url(#SVGID_21_)" d="M330.5,516.3c-0.7,0.7-1.5,1-2.4,1c-1,0-1.8-0.3-2.5-1
				c-0.7-0.7-1-1.5-1-2.5c0-0.9,0.4-1.8,1-2.5c0.7-0.7,1.5-1,2.5-1c0.9,0,1.7,0.3,2.4,1c0.7,0.7,1,1.5,1,2.5
				C331.5,514.8,331.2,515.6,330.5,516.3z"/>
		</g>
	</g>
</g>
</svg>
