<?xml version="1.0" encoding="utf-8"?>
<!-- Generator: Adobe Illustrator 16.0.0, SVG Export Plug-In . SVG Version: 6.00 Build 0)  -->
<!DOCTYPE svg PUBLIC "-//W3C//DTD SVG 1.1//EN" "http://www.w3.org/Graphics/SVG/1.1/DTD/svg11.dtd">
<svg version="1.1" id="Layer_1" xmlns="http://www.w3.org/2000/svg" xmlns:xlink="http://www.w3.org/1999/xlink" x="0px" y="0px"
	 width="183.1px" height="107.1px" viewBox="573.7 447.8 183.1 107.1" enable-background="new 573.7 447.8 183.1 107.1"
	 xml:space="preserve">
<g>
	<g>
		
			<linearGradient id="SVGID_1_" gradientUnits="userSpaceOnUse" x1="438.8574" y1="220.6323" x2="438.7114" y2="242.8582" gradientTransform="matrix(1 0 0 -1 202.3398 780.0391)">
			<stop  offset="0" style="stop-color:#1C232C;stop-opacity:0"/>
			<stop  offset="1" style="stop-color:#1C232C"/>
		</linearGradient>
		<polygon fill="url(#SVGID_1_)" points="686.8,549.6 686.8,554.5 595.5,554.5 595.5,549.5 595.5,549.6 		"/>
	</g>
	<g>
		
			<linearGradient id="SVGID_2_" gradientUnits="userSpaceOnUse" x1="390.7227" y1="226.7275" x2="399.7965" y2="237.3753" gradientTransform="matrix(1 0 0 -1 202.3398 780.0391)">
			<stop  offset="0" style="stop-color:#1C232C;stop-opacity:0"/>
			<stop  offset="1" style="stop-color:#1C232C"/>
		</linearGradient>
		<polygon fill="url(#SVGID_2_)" points="593.8,547.1 595.5,549.5 595.5,555.8 593.8,553.5 		"/>
	</g>
	<g>
		
			<linearGradient id="SVGID_3_" gradientUnits="userSpaceOnUse" x1="-608.8701" y1="199.4624" x2="-584.0056" y2="199.4624" gradientTransform="matrix(0.9984 -5.630529e-002 -1.6624 -0.9078 1615.9713 693.2065)">
			<stop  offset="0" style="stop-color:#000000"/>
			<stop  offset="1" style="stop-color:#000000;stop-opacity:0"/>
		</linearGradient>
		<path fill="url(#SVGID_3_)" d="M701.8,545.7c1.8,0,3.2,0.2,4.3,0.4l10,3.1c0.1,0.3-0.5,0.4-2,0.4H605.3h-8.1c-0.5,0-0.9,0-1.3,0
			l-2.7-3.5c-0.2-0.3,0.5-0.4,1.9-0.4h6.7H701.8z"/>
	</g>
	<g>
		<g>
			<path fill="#3A393F" d="M686.8,518.6h-89.9h-0.6c-0.6,0-1-0.2-1.3-0.6l-1.3-2.2h87.6L686.8,518.6z"/>
			
				<linearGradient id="SVGID_4_" gradientUnits="userSpaceOnUse" x1="392.2705" y1="245.2192" x2="445.7952" y2="246.4321" gradientTransform="matrix(1 0 0 -1 202.3398 780.0391)">
				<stop  offset="0" style="stop-color:#393E41"/>
				<stop  offset="0.3216" style="stop-color:#28292C"/>
				<stop  offset="1" style="stop-color:#090909"/>
			</linearGradient>
			<polygon fill="url(#SVGID_4_)" points="596.9,522.5 596.9,518.6 686.8,518.6 686.8,548.9 596.9,548.9 596.9,540.5 			"/>
			
				<linearGradient id="SVGID_5_" gradientUnits="userSpaceOnUse" x1="391.3848" y1="260.8892" x2="392.6348" y2="260.8892" gradientTransform="matrix(1 0 0 -1 202.3398 780.0391)">
				<stop  offset="0" style="stop-color:#4B3D34"/>
				<stop  offset="1" style="stop-color:#725D4C"/>
			</linearGradient>
			<polygon fill="url(#SVGID_5_)" points="595.1,522.5 593.8,522.5 593.8,515.8 595.1,518 595,518 			"/>
			
				<linearGradient id="SVGID_6_" gradientUnits="userSpaceOnUse" x1="392.7598" y1="259.7891" x2="394.4598" y2="259.7891" gradientTransform="matrix(1 0 0 -1 202.3398 780.0391)">
				<stop  offset="0" style="stop-color:#725D4C"/>
				<stop  offset="0.2353" style="stop-color:#030303"/>
				<stop  offset="0.4471" style="stop-color:#6F7677"/>
				<stop  offset="1" style="stop-color:#353A3D"/>
			</linearGradient>
			<path fill="url(#SVGID_6_)" d="M596.9,518.6v3.9h-1.8V518l0,0c0.2,0.4,0.7,0.6,1.3,0.6H596.9z"/>
			
				<linearGradient id="SVGID_7_" gradientUnits="userSpaceOnUse" x1="392.7598" y1="235.3389" x2="394.4598" y2="235.3389" gradientTransform="matrix(1 0 0 -1 202.3398 780.0391)">
				<stop  offset="0" style="stop-color:#725D4C"/>
				<stop  offset="0.2353" style="stop-color:#030303"/>
				<stop  offset="0.4471" style="stop-color:#6F7677"/>
				<stop  offset="1" style="stop-color:#353A3D"/>
			</linearGradient>
			<polygon fill="url(#SVGID_7_)" points="595.1,548.4 595.1,540.5 596.9,540.5 596.9,548.9 595.4,548.9 			"/>
			
				<linearGradient id="SVGID_8_" gradientUnits="userSpaceOnUse" x1="392.7598" y1="248.5391" x2="394.4598" y2="248.5391" gradientTransform="matrix(1 0 0 -1 202.3398 780.0391)">
				<stop  offset="0" style="stop-color:#725D4C"/>
				<stop  offset="0.2353" style="stop-color:#030303"/>
				<stop  offset="0.4471" style="stop-color:#6F7677"/>
				<stop  offset="1" style="stop-color:#353A3D"/>
			</linearGradient>
			<path fill="url(#SVGID_8_)" d="M595.1,522.5h1.8v18h-1.8c0-0.6,0-1.1,0-1.7V522.5z"/>
			
				<linearGradient id="SVGID_9_" gradientUnits="userSpaceOnUse" x1="391.3848" y1="235.5889" x2="392.6348" y2="235.5889" gradientTransform="matrix(1 0 0 -1 202.3398 780.0391)">
				<stop  offset="0" style="stop-color:#4B3D34"/>
				<stop  offset="1" style="stop-color:#725D4C"/>
			</linearGradient>
			<polygon fill="url(#SVGID_9_)" points="593.8,540.5 595.1,540.5 595.1,548.4 593.8,546.5 			"/>
			
				<linearGradient id="SVGID_10_" gradientUnits="userSpaceOnUse" x1="391.3848" y1="248.5391" x2="392.6348" y2="248.5391" gradientTransform="matrix(1 0 0 -1 202.3398 780.0391)">
				<stop  offset="0" style="stop-color:#4B3D34"/>
				<stop  offset="1" style="stop-color:#725D4C"/>
			</linearGradient>
			<path fill="url(#SVGID_10_)" d="M595.1,540.5h-1.3v-18h1.3v16.3C595.1,539.3,595.1,539.9,595.1,540.5z"/>
		</g>
	</g>
	<g>
		
			<radialGradient id="SVGID_11_" cx="439.0605" cy="314.6387" r="44.7119" gradientTransform="matrix(1 0 0 -4.1664 202.3398 1829.8428)" gradientUnits="userSpaceOnUse">
			<stop  offset="0" style="stop-color:#A3A3A3;stop-opacity:0.7333"/>
			<stop  offset="1" style="stop-color:#DEDEDE;stop-opacity:0"/>
			<stop  offset="1" style="stop-color:#000000;stop-opacity:0"/>
		</radialGradient>
		<path fill="url(#SVGID_11_)" d="M686.2,519.1C686.2,519.1,686.1,519.2,686.2,519.1l-89.6,0.1c0,0,0,0,0-0.1c0-0.1,0-0.1,0-0.1
			c0-0.1,0-0.1,0-0.2l0,0h89.5h0.1C686.2,518.9,686.2,518.9,686.2,519.1C686.2,519,686.2,519,686.2,519.1z"/>
	</g>
	<g>
		<polygon points="683.3,517 685.2,518.7 595.4,518.7 594.3,517.2 594.6,517.2 		"/>
	</g>
	<g>
		<g>
			<path d="M709.9,476.7c0.1,0,0.1,0,0.2,0c9.1-0.5,16.1,9,20.9,28.3c2.2,6.8,4.1,10.8,5.8,11.8c1.9,0.9,4.9,1.3,9,1.1
				c5.3-0.2,8.6,1.3,9.9,4.4c1.3,2.8,1.4,6,0.3,9.8c-1.1,3.6-3.2,6.8-6.3,9.6c-0.3,0.2-0.7,0.3-1.1,0.3c-0.4,0-0.7-0.2-1-0.5
				c-0.3-0.3-0.4-0.6-0.3-1c0-0.4,0.2-0.7,0.5-1c2.7-2.4,4.6-5.2,5.5-8.3c0.9-3,0.9-5.6-0.1-7.8c-1-1.9-3.4-2.8-7.1-2.7
				c-4.9,0.2-8.4-0.3-10.5-1.4c-2.3-1-4.7-5.5-7.3-13.5v-0.1c-4.3-17.5-10.3-26.3-18-26.3c-4.6,0.8-8.8,0.6-12.8-0.4
				c-0.4-0.1-0.7-0.4-0.9-0.7c-0.2-0.4-0.2-0.7-0.1-1.1c0.1-0.4,0.3-0.7,0.6-0.9c0.3-0.2,0.7-0.3,1.1-0.2
				C701.8,477.3,705.7,477.4,709.9,476.7z"/>
		</g>
		<g>
			<g>
				
					<radialGradient id="SVGID_12_" cx="512.1602" cy="212.9678" r="13.1753" gradientTransform="matrix(1 0 0 -0.4497 202.3398 576.614)" gradientUnits="userSpaceOnUse">
					<stop  offset="0" style="stop-color:#FFFFFF"/>
					<stop  offset="1" style="stop-color:#FDFDFD;stop-opacity:0"/>
				</radialGradient>
				<path fill="url(#SVGID_12_)" d="M697.5,477.7c0-0.1,0-0.1,0.2-0.2c0.1,0,0.1,0,0.2,0c3.8,1,7.8,1.1,12.2,0.3h0.1
					c5.6-0.2,10.4,3.7,14.3,11.7c0,0.1,0,0.1,0,0.2c0,0.1-0.1,0.1-0.2,0.1c-0.1,0.1-0.1,0.1-0.3,0.1c0,0-0.1-0.1-0.1-0.2
					c-3.8-7.7-8.3-11.5-13.7-11.3c-4.5,0.7-8.6,0.6-12.5-0.4c-0.1,0-0.1-0.1-0.2-0.1C697.5,477.8,697.5,477.8,697.5,477.7z"/>
			</g>
		</g>
	</g>
	<g>
		<g>
			
				<linearGradient id="SVGID_13_" gradientUnits="userSpaceOnUse" x1="476.959" y1="302.2739" x2="489.4085" y2="302.0084" gradientTransform="matrix(1 0 0 -1 202.3398 780.0391)">
				<stop  offset="0" style="stop-color:#222222"/>
				<stop  offset="1" style="stop-color:#121110"/>
			</linearGradient>
			<path fill="url(#SVGID_13_)" d="M690.2,482.2l-9.4-0.4v-7.7l5.8-0.1l3.7-0.2c-0.3,1.6-0.4,3.3-0.4,4.9
				C689.9,479.8,690,481,690.2,482.2z"/>
			
				<linearGradient id="SVGID_14_" gradientUnits="userSpaceOnUse" x1="483.6914" y1="308.5532" x2="483.7156" y2="306.3282" gradientTransform="matrix(1 0 0 -1 202.3398 780.0391)">
				<stop  offset="0" style="stop-color:#040000"/>
				<stop  offset="1" style="stop-color:#191816"/>
			</linearGradient>
			<path fill="url(#SVGID_14_)" d="M691.3,473.8h-1l-3.7,0.2l-5.8,0.1v-2.7h9.2c0.8,0.1,1.3,0.4,1.3,1V473.8z"/>
			
				<linearGradient id="SVGID_15_" gradientUnits="userSpaceOnUse" x1="483.71" y1="296.1025" x2="483.71" y2="297.4775" gradientTransform="matrix(1 0 0 -1 202.3398 780.0391)">
				<stop  offset="0" style="stop-color:#040000"/>
				<stop  offset="1" style="stop-color:#191816"/>
			</linearGradient>
			<path fill="url(#SVGID_15_)" d="M680.8,481.8l9.4,0.4h1.1v0.8c-0.1,0.7-0.6,1.2-1.3,1.3h-9.2V481.8z"/>
			
				<linearGradient id="SVGID_16_" gradientUnits="userSpaceOnUse" x1="495.4844" y1="305.2466" x2="494.7515" y2="295.2471" gradientTransform="matrix(1 0 0 -1 202.3398 780.0391)">
				<stop  offset="0" style="stop-color:#2F2F2F"/>
				<stop  offset="0.1098" style="stop-color:#171513"/>
				<stop  offset="0.3216" style="stop-color:#171513"/>
			</linearGradient>
			<path fill="url(#SVGID_16_)" d="M701.6,475.2l0.6,0.1v0.3v0.4h-0.5L701.6,475.2z M701.4,475.2l0.1,1h0.8l0.1-1.3v-0.1h0.2
				l1.6,0.2v0.4v2.3l-12.9-1v-2.8l1.8,0.1l0,0c0,0,0,0.1,0,0.2c0,0.1,0,0.2,0,0.3l0.1,1.3h0.9l0,0l0.1-1.5l1.7,0.1v0.1v0.1l0,0
				c0,0.1,0.1,0.2,0.1,0.3l0.1,1.2h0.8V476l0.1-1.4l1.5,0.1l0,0v0.2l0,0c0,0,0,0.1,0,0.2l0.1,1h0.9v-1.3v-0.1l1.8,0.2l0.1,0.1
				L701.4,475.2L701.4,475.2C701.4,475,701.4,475.1,701.4,475.2z M693.3,474.5h0.7l0,0l-0.1,1h-0.6V474.5z M696.7,475.8h-0.6v-1h0.6
				l0,0V475.8z M699.3,475L699.3,475v0.8h-0.6l-0.1-0.8H699.3z"/>
			<path fill="#989494" d="M694.2,474.2l-0.1,1.5l-0.2-0.2l0.1-1l0,0V474L694.2,474.2z M696.9,474.4l-0.1,1.4l-0.1-0.1l0,0v-1l0,0
				v-0.4L696.9,474.4z M699.3,475.8V475l0,0v-0.5l0.2,0.1v1.3L699.3,475.8z M702.2,476v-0.4v-0.3v-0.4h0.2l-0.1,1.3L702.2,476z"/>
			<path d="M693.1,474.5h0.2v1h0.6l0.2,0.2l0,0h-0.9L693.1,474.5z M696,474.8v1h0.6l0,0l0.1,0.1v0.1H696V474.8L696,474.8z
				 M699.5,476h-0.9l-0.1-1h0.1l0.1,0.8h0.6L699.5,476z M701.4,475.2h0.2l0.1,0.8h0.5l0.1,0.2h-0.8L701.4,475.2z M702.3,481
				l-0.1,0.2h-0.5l-0.1,0.8h-0.2l0.1-0.9L702.3,481L702.3,481z M698.5,482.2l0.1-1.1l0.9,0.1l-0.2,0.2v0.1h-0.6L698.5,482.2
				L698.5,482.2z M696.8,481.3l-0.1,0.2l0,0h-0.6v1H696l0.1-1.2H696.8z M693.1,482.7l0.1-1.3h0.9v0.1l-0.2,0.1h-0.6v1L693.1,482.7z"
				/>
			
				<linearGradient id="SVGID_17_" gradientUnits="userSpaceOnUse" x1="495.25" y1="299.6621" x2="495.3497" y2="297.4121" gradientTransform="matrix(1 0 0 -1 202.3398 780.0391)">
				<stop  offset="0.4275" style="stop-color:#171513"/>
				<stop  offset="0.6941" style="stop-color:#000000"/>
				<stop  offset="1" style="stop-color:#000000"/>
			</linearGradient>
			<path fill="url(#SVGID_17_)" d="M698.5,482.2v0.3l-1.6,0.1v-0.3l-0.1-1H696l-0.1,1.2l-0.1,0.3l-1.7,0.1l-0.1-0.3v-1.1v-0.1h-0.9
				l-0.1,1.3c0,0,0,0.1,0,0.2v0.1l-1.8,0.1v-0.8v-1.4l12.9-0.5v1.5v0.3l-1.8,0.2v-0.3l-0.1-0.9h-0.8l-0.1,0.9v0.3l-1.9,0.2v-0.3v-1
				l-0.9-0.1V482.2z M701.6,482l0.1-0.8h0.5v0.7L701.6,482z M699.3,481.4v0.8h-0.8l0.1-0.8H699.3z M696,482.4v-1h0.6v0.9L696,482.4z
				 M693.9,481.5l0.1,1h-0.7v-1H693.9z"/>
			<path fill="#38322E" d="M702.2,481.2l0.1-0.2l0.1,0.9h-0.2V481.2L702.2,481.2z M699.3,481.4L699.3,481.4l0.2-0.3v1h-0.2V481.4z
				 M696.8,481.3l0.1,1h-0.2v-0.9l0,0L696.8,481.3z M694,482.5l-0.1-1l0.2-0.1L694,482.5L694,482.5z"/>
			<polygon fill="#171513" points="704.2,480.2 691.3,480.8 691.3,476.8 704.2,477.7 704.2,478.7 			"/>
			<path fill="#181715" d="M691.3,473.9v2.8v4v1.4h-1.1c-0.2-1.2-0.3-2.3-0.3-3.5c0-1.6,0.1-3.2,0.4-4.9h1V473.9L691.3,473.9z"/>
		</g>
	</g>
	<g>
		<path d="M688.5,474h0.2v7.8l0,0v0.1c0,0-0.1,0-0.1-0.1l0,0L688.5,474L688.5,474z M690.1,474L690.1,474h0.1v7.8l0,0l0,0h-0.1l0,0
			V474L690.1,474z M682.9,474L682.9,474l0.1,7.9c0,0,0,0,0-0.1l0,0L682.9,474L682.9,474z M681.5,474L681.5,474L681.5,474l0.1,7.8
			l0,0l0,0l0,0L681.5,474L681.5,474z M684.4,474C684.4,474,684.5,474,684.4,474l0.1,7.8h-0.1h-0.1L684.4,474L684.4,474z M685.8,474
			h0.1v7.8l-0.1,0.1v-0.1V474L685.8,474z M687.3,474L687.3,474v7.8l0,0l0,0l0,0l0,0V474L687.3,474L687.3,474z"/>
	</g>
	<g>
		
			<linearGradient id="SVGID_18_" gradientUnits="userSpaceOnUse" x1="-862.1733" y1="1364.4785" x2="-840.5178" y2="1364.4785" gradientTransform="matrix(-0.9986 -5.310415e-002 -0.1315 0.9944 15.3891 -924.136)">
			<stop  offset="0" style="stop-color:#3A3534"/>
			<stop  offset="1" style="stop-color:#222222"/>
		</linearGradient>
		<path fill="url(#SVGID_18_)" d="M690.3,474L690.3,474h0.1l0,0v7.8l0,0l0,0h-0.1l0,0V474z M688.8,474L688.8,474c0.1,0,0.1,0,0.2,0
			v7.8l-0.1,0.1l-0.1-0.1V474L688.8,474z M683.2,474L683.2,474l0.1,7.8l0,0v0.1c0,0,0,0,0-0.1l0,0L683.2,474L683.2,474z M681.7,474
			C681.7,474,681.8,474,681.7,474L681.7,474l0.1,7.8l0,0h-0.1V474z M684.7,474L684.7,474v7.8l0,0h-0.1V474H684.7z M686,474
			C686,474,686.1,474,686,474h0.2v7.8l-0.1,0.1c0,0-0.1,0-0.1-0.1V474L686,474z M687.5,474C687.5,474,687.6,474,687.5,474l0.1,7.8
			h-0.1V474z"/>
	</g>
	<g>
		<g>
			<polygon fill="#130F10" points="683.3,449.7 596.1,449.7 593.8,448.3 680.8,448.3 			"/>
			
				<linearGradient id="SVGID_19_" gradientUnits="userSpaceOnUse" x1="333.0918" y1="352.3438" x2="470.9889" y2="278.0133" gradientTransform="matrix(1 0 0 -1 202.3398 780.0391)">
				<stop  offset="0" style="stop-color:#ADB5B8"/>
				<stop  offset="1" style="stop-color:#000000"/>
			</linearGradient>
			<polygon fill="url(#SVGID_19_)" points="596.1,449.7 683.3,449.7 683.3,518.1 596.1,518.1 596.1,513.2 596.1,475.8 			"/>
			
				<linearGradient id="SVGID_20_" gradientUnits="userSpaceOnUse" x1="392.8301" y1="329.8545" x2="391.6639" y2="278.6298" gradientTransform="matrix(1 0 0 -1 202.3398 780.0391)">
				<stop  offset="0" style="stop-color:#BAA497"/>
				<stop  offset="0.5529" style="stop-color:#0C0808"/>
				<stop  offset="0.8627" style="stop-color:#2E2727"/>
				<stop  offset="1" style="stop-color:#000000"/>
			</linearGradient>
			<polygon fill="url(#SVGID_20_)" points="596.1,475.8 593.7,475.8 593.7,448.3 593.8,448.3 596.1,449.7 			"/>
			
				<linearGradient id="SVGID_21_" gradientUnits="userSpaceOnUse" x1="-453.0947" y1="1393.1543" x2="643.917" y2="1393.1543" gradientTransform="matrix(-1.048289e-003 1 0.9995 0.4767 -797.3921 -326.3934)">
				<stop  offset="0" style="stop-color:#BAA497"/>
				<stop  offset="0.5529" style="stop-color:#0C0808"/>
				<stop  offset="0.8627" style="stop-color:#2E2727"/>
				<stop  offset="1" style="stop-color:#000000"/>
			</linearGradient>
			<polygon fill="url(#SVGID_21_)" points="596.1,475.8 596.1,513.2 593.7,513.2 593.7,477.8 593.7,475.8 			"/>
			
				<linearGradient id="SVGID_22_" gradientUnits="userSpaceOnUse" x1="393.2852" y1="296.2417" x2="392.1193" y2="245.0273" gradientTransform="matrix(1 0 0 -1 202.3398 780.0391)">
				<stop  offset="0" style="stop-color:#BAA497"/>
				<stop  offset="0.5529" style="stop-color:#0C0808"/>
				<stop  offset="0.8627" style="stop-color:#2E2727"/>
				<stop  offset="1" style="stop-color:#000000"/>
			</linearGradient>
			<polygon fill="url(#SVGID_22_)" points="593.7,513.2 596.1,513.2 596.1,518.1 593.7,515.3 			"/>
		</g>
	</g>
	<g>
		<g>
			<g>
				
					<linearGradient id="SVGID_23_" gradientUnits="userSpaceOnUse" x1="382.7314" y1="325.9399" x2="382.6477" y2="300.0391" gradientTransform="matrix(1 0 0 -1 202.3398 780.0391)">
					<stop  offset="0" style="stop-color:#1E0F22"/>
					<stop  offset="3.921569e-002" style="stop-color:#4F3B3D"/>
					<stop  offset="6.666666e-002" style="stop-color:#291F1D"/>
					<stop  offset="0.2392" style="stop-color:#10100E"/>
					<stop  offset="0.3686" style="stop-color:#353134"/>
					<stop  offset="0.4863" style="stop-color:#FFFFFF"/>
					<stop  offset="0.5647" style="stop-color:#2D3333"/>
					<stop  offset="0.6353" style="stop-color:#1E1E20"/>
					<stop  offset="0.6941" style="stop-color:#42453C"/>
					<stop  offset="0.8471" style="stop-color:#1E1D1B"/>
					<stop  offset="0.9255" style="stop-color:#0E0A09"/>
					<stop  offset="1" style="stop-color:#000000"/>
				</linearGradient>
				<path fill="url(#SVGID_23_)" d="M574.8,480.3c0.2-0.2,0.4-1.5,0.5-3.9c0.1-2.6,0.2-5.7,0.2-9.3c0-3.7-0.1-6.8-0.2-9.4
					c-0.2-2.6-0.3-3.9-0.5-3.9h19.8c0.2,0,0.4,1.3,0.5,3.9c0.1,2.6,0.2,5.7,0.2,9.4c0,3.6-0.1,6.7-0.2,9.3c-0.1,2.4-0.3,3.7-0.5,3.9
					H574.8z"/>
				
					<linearGradient id="SVGID_24_" gradientUnits="userSpaceOnUse" x1="372.46" y1="334.29" x2="372.46" y2="296.39" gradientTransform="matrix(1 0 0 -1 202.3398 780.0391)">
					<stop  offset="0" style="stop-color:#565A5C"/>
					<stop  offset="1" style="stop-color:#000000"/>
				</linearGradient>
				<path fill="url(#SVGID_24_)" d="M574.8,480.3L574.8,480.3c-0.2-0.2-0.4-1.5-0.5-3.9c-0.1-2.6-0.2-5.7-0.2-9.3
					c0-3.7,0.1-6.8,0.2-9.4c0.2-2.6,0.3-3.9,0.5-3.9s0.4,1.3,0.5,3.9c0.1,2.6,0.2,5.7,0.2,9.4c0,3.6-0.1,6.7-0.2,9.3
					C575.2,478.8,575,480.1,574.8,480.3z"/>
			</g>
		</g>
	</g>
	<g>
		
			<linearGradient id="SVGID_25_" gradientUnits="userSpaceOnUse" x1="418.21" y1="269.8125" x2="418.079" y2="261.8617" gradientTransform="matrix(1 0 0 -1 202.3398 780.0391)">
			<stop  offset="0" style="stop-color:#343036"/>
			<stop  offset="0.3451" style="stop-color:#212123"/>
			<stop  offset="0.8353" style="stop-color:#1C1E20"/>
			<stop  offset="0.9176" style="stop-color:#000000"/>
			<stop  offset="1" style="stop-color:#000000"/>
		</linearGradient>
		<path fill="url(#SVGID_25_)" d="M642.2,514.2v4.3h-43.5v-4.3c0-0.3,0-0.6,0.1-1c0.5-1.4,1.4-2.3,2.7-2.7l0,0h0.2
			c0.2,0,0.5-0.1,0.8-0.1h35.8c0.3,0,0.6,0.1,0.8,0.1h0.3l0,0c1.2,0.4,2.1,1.3,2.7,2.7C642.1,513.5,642.2,513.8,642.2,514.2z"/>
	</g>
	<g>
		<g>
			
				<radialGradient id="SVGID_26_" cx="400.21" cy="-106.9648" r="43.975" gradientTransform="matrix(1 0 0 -0.1575 202.3398 493.2655)" gradientUnits="userSpaceOnUse">
				<stop  offset="0" style="stop-color:#FFFFFF;stop-opacity:0.6627"/>
				<stop  offset="1" style="stop-color:#FAFAFA;stop-opacity:0"/>
			</radialGradient>
			<path fill="url(#SVGID_26_)" d="M602.7,510.8c-0.3,0-0.5,0-0.8,0.1l0,0l-0.2,0.1l0,0c-1.2,0.4-2.1,1.3-2.6,2.6
				c-0.1,0.3-0.1,0.5-0.1,0.9v2.6l0,0l0,0h-0.1v-2.6c0-0.3,0.1-0.6,0.2-1c0.5-1.4,1.4-2.3,2.7-2.7h0.1h0.2c0.2-0.1,0.5-0.1,0.8-0.2
				L602.7,510.8L602.7,510.8z M638,510.8L638,510.8c0-0.1,0-0.1,0-0.2c0.3,0,0.6,0.1,0.8,0.2h0.3c1.1,0.4,2,1.1,2.5,2.3l0,0v0.1l0,0
				c0,0,0,0,0-0.1c-0.5-1.1-1.3-1.8-2.4-2.2l-0.2-0.1C638.6,510.8,638.3,510.8,638,510.8L638,510.8z"/>
			
				<radialGradient id="SVGID_27_" cx="400.21" cy="-106.9639" r="43.975" gradientTransform="matrix(1 0 0 -0.1575 202.3398 493.2655)" gradientUnits="userSpaceOnUse">
				<stop  offset="0" style="stop-color:#FFFFFF;stop-opacity:0.5725"/>
				<stop  offset="1" style="stop-color:#FAFAFA;stop-opacity:0"/>
			</radialGradient>
			<path fill="url(#SVGID_27_)" d="M602.7,510.6H638c0,0,0,0,0,0.1v0.1h-35.3V510.6L602.7,510.6z"/>
		</g>
	</g>
	<g>
		<g>
			<g>
				
					<radialGradient id="SVGID_28_" cx="422.5732" cy="322.4707" r="2.0557" gradientTransform="matrix(0.7837 -0.6211 -1.0322 -1.3025 658.901 1197.0709)" gradientUnits="userSpaceOnUse">
					<stop  offset="0" style="stop-color:#73737B"/>
					<stop  offset="1" style="stop-color:#222224"/>
				</radialGradient>
				<path fill="url(#SVGID_28_)" d="M655.2,512.2c0.3-0.2,0.6-0.3,0.9-0.3c0.3,0,0.6,0.1,0.9,0.3c0,0,0.1,0,0.1,0.1
					c0.1,0.1,0.2,0.2,0.3,0.3c0.1,0.1,0.2,0.2,0.3,0.3c0.2,0.3,0.3,0.7,0.3,1c0,0.5-0.2,0.9-0.5,1.3c-0.2,0.1-0.3,0.2-0.5,0.3
					s-0.4,0.2-0.7,0.2h-0.1c-0.2,0-0.4,0-0.6-0.1c-0.1-0.1-0.2-0.1-0.3-0.1l0,0c0,0,0,0-0.1,0c-0.1-0.1-0.2-0.1-0.3-0.2
					c-0.1-0.1-0.2-0.2-0.2-0.3c-0.2-0.3-0.4-0.6-0.4-1c0-0.5,0.2-1,0.5-1.3c0.1,0,0.1-0.1,0.2-0.2
					C655,512.2,655.1,512.2,655.2,512.2z M656.8,512.3c-0.2-0.1-0.3-0.2-0.5-0.2v0.1h0.1c0.1,0,0.1,0,0.2,0
					C656.7,512.2,656.7,512.2,656.8,512.3C656.7,512.2,656.7,512.2,656.8,512.3L656.8,512.3L656.8,512.3L656.8,512.3z M657,512.3
					L657,512.3L657,512.3L657,512.3z"/>
			</g>
			<g>
				<g>
					<path fill="#646F71" d="M655.5,512.3l1.5,2.4l0,0l0,0h-0.1l0,0L655.5,512.3L655.5,512.3L655.5,512.3z"/>
					
						<linearGradient id="SVGID_29_" gradientUnits="userSpaceOnUse" x1="453.4199" y1="268.1411" x2="454.9483" y2="265.6935" gradientTransform="matrix(1 0 0 -1 202.3398 780.0391)">
						<stop  offset="0" style="stop-color:#A8AEB5"/>
						<stop  offset="1" style="stop-color:#646A82"/>
					</linearGradient>
					<path fill="url(#SVGID_29_)" d="M657,514.7l-1.5-2.3l0,0c0,0,0.1,0,0.2,0c0.4-0.1,0.8,0,1,0.3l0,0c0.3,0.2,0.5,0.5,0.6,1
						c0,0.2,0,0.4,0,0.6C657.2,514.5,657.2,514.6,657,514.7L657,514.7L657,514.7z"/>
					<path fill="#CAC8C6" d="M655.4,512.2c-0.1,0.1-0.3,0.2-0.5,0.3c0,0.1-0.1,0.1-0.2,0.2v0.1c-0.1,0.2-0.2,0.5-0.3,0.7
						c0,0.1,0,0.2,0,0.3c0.1,0.4,0.3,0.8,0.5,1c0.3,0.2,0.5,0.3,0.9,0.3c0.1,0,0.2,0,0.3,0h0.1h0.1l0,0l0.1,0.1
						c-0.1,0-0.3,0.1-0.3,0.1c-0.1,0-0.2,0-0.3,0c-0.3,0-0.6-0.2-0.9-0.4c-0.4-0.3-0.6-0.6-0.6-1.1c0,0,0-0.1,0-0.2v-0.1
						c0-0.3,0.1-0.6,0.3-0.8c0.2-0.2,0.4-0.4,0.6-0.5C655.3,512.2,655.3,512.2,655.4,512.2c0.1-0.1,0.2-0.1,0.3-0.1
						c0.1,0,0.3,0,0.3,0c0.3,0,0.6,0.1,0.9,0.3l0,0c-0.3-0.2-0.6-0.3-1-0.3c-0.1,0-0.2,0-0.3,0C655.6,512.1,655.6,512.1,655.4,512.2
						C655.5,512.2,655.5,512.2,655.4,512.2L655.4,512.2z"/>
					
						<linearGradient id="SVGID_30_" gradientUnits="userSpaceOnUse" x1="454.082" y1="267.5894" x2="454.9011" y2="266.1857" gradientTransform="matrix(1 0 0 -1 202.3398 780.0391)">
						<stop  offset="0" style="stop-color:#EDEFEF"/>
						<stop  offset="1" style="stop-color:#606068"/>
					</linearGradient>
					<path fill="url(#SVGID_30_)" d="M657.1,514.5c0.1-0.1,0.2-0.3,0.2-0.5s0-0.4,0-0.6c-0.1-0.4-0.3-0.7-0.6-1l0,0
						c-0.3-0.2-0.7-0.3-1-0.3c-0.1,0-0.2,0-0.2,0V512l0,0l0,0c0.1,0,0.1-0.1,0.2-0.1l0,0c0.4,0,0.8,0.1,1.2,0.3
						c0.3,0.3,0.5,0.6,0.5,1C657.5,513.8,657.4,514.2,657.1,514.5L657.1,514.5z"/>
					
						<linearGradient id="SVGID_31_" gradientUnits="userSpaceOnUse" x1="650.5449" y1="1090.5215" x2="653.3552" y2="1090.5215" gradientTransform="matrix(0.4894 0.8721 0.878 -0.4789 -620.7339 467.2237)">
						<stop  offset="0" style="stop-color:#3D3D47"/>
						<stop  offset="1" style="stop-color:#33363D"/>
					</linearGradient>
					<path fill="url(#SVGID_31_)" d="M656.5,515l-1.4-2.5v-0.1h0.1h0.1l1.4,2.5l0,0C656.7,514.9,656.6,515,656.5,515z"/>
					<path fill="#31343D" d="M655,512.5l1.5,2.5h-0.1L655,512.5C655,512.6,655,512.5,655,512.5L655,512.5z"/>
					<path fill="#6A7579" d="M655.2,512.5l1.4,2.5l0,0l-1.5-2.5C655.1,512.5,655.1,512.5,655.2,512.5z"/>
					
						<linearGradient id="SVGID_32_" gradientUnits="userSpaceOnUse" x1="452.9736" y1="266.3418" x2="453.0775" y2="265.5173" gradientTransform="matrix(1 0 0 -1 202.3398 780.0391)">
						<stop  offset="0" style="stop-color:#E8E8E0"/>
						<stop  offset="1" style="stop-color:#535258"/>
					</linearGradient>
					<path fill="url(#SVGID_32_)" d="M655,512.6L655,512.6c-0.2,0.3-0.3,0.5-0.3,0.8c0,0.1,0,0.2,0,0.3c0,0.4,0.2,0.7,0.5,1
						c0.2,0.2,0.5,0.3,0.8,0.3c0.1,0,0.2,0,0.3,0c-0.1,0-0.1,0-0.1,0c-0.1,0-0.2,0-0.3,0c-0.3,0-0.6-0.1-0.9-0.3s-0.5-0.6-0.5-1
						c0-0.1,0-0.2,0-0.3c0-0.2,0.1-0.5,0.3-0.7v-0.1C654.9,512.6,654.9,512.6,655,512.6L655,512.6z"/>
					
						<linearGradient id="SVGID_33_" gradientUnits="userSpaceOnUse" x1="452.5801" y1="267.0967" x2="453.3148" y2="265.3253" gradientTransform="matrix(1 0 0 -1 202.3398 780.0391)">
						<stop  offset="0" style="stop-color:#797D8E"/>
						<stop  offset="1" style="stop-color:#BFBFBF"/>
					</linearGradient>
					<path fill="url(#SVGID_33_)" d="M655,512.6l1.4,2.4h-0.1c-0.1,0-0.2,0-0.3,0c-0.3,0-0.6-0.1-0.8-0.3c-0.3-0.3-0.5-0.6-0.5-1
						c0-0.1,0-0.2,0-0.3C654.7,513.1,654.8,512.9,655,512.6L655,512.6z"/>
					
						<linearGradient id="SVGID_34_" gradientUnits="userSpaceOnUse" x1="454.3379" y1="267.3984" x2="454.5146" y2="266.0237" gradientTransform="matrix(1 0 0 -1 202.3398 780.0391)">
						<stop  offset="0" style="stop-color:#696E74"/>
						<stop  offset="1" style="stop-color:#424041"/>
					</linearGradient>
					<path fill="url(#SVGID_34_)" d="M657.6,514c0,0.2-0.1,0.3-0.2,0.4c-0.1,0.1-0.2,0.2-0.3,0.3l0,0v-0.1l0,0c0,0,0-0.1,0.1-0.1
						c0.3-0.3,0.4-0.7,0.3-1c-0.1-0.4-0.3-0.7-0.5-1c-0.3-0.2-0.7-0.3-1.2-0.3l0,0c0.1,0,0.2,0,0.3,0c0.4-0.1,0.7,0,1,0.3l0,0
						c0.3,0.3,0.5,0.6,0.5,1C657.6,513.5,657.6,513.7,657.6,514L657.6,514z"/>
					<path fill="#605D68" d="M656.8,515L656.8,515l0.1-0.1l0,0l0,0h0.1c0.1-0.1,0.2-0.2,0.3-0.3c0.1-0.1,0.2-0.2,0.2-0.4
						c0,0.2-0.1,0.3-0.2,0.5l0,0C657.2,514.7,657,514.8,656.8,515z"/>
					<path fill="#B8C0C3" d="M657,514.8C657,514.7,657,514.7,657,514.8L657,514.8C657,514.7,657,514.8,657,514.8z"/>
					<path fill="#AAB2B4" d="M655.5,512.3l1.5,2.3v0.1L655.5,512.3z"/>
					<path fill="#52525A" d="M656.5,515L656.5,515L656.5,515L656.5,515L656.5,515C656.4,515,656.5,515,656.5,515z"/>
					<path fill="#6B6A70" d="M656.5,515L656.5,515C656.6,515,656.6,515,656.5,515L656.5,515L656.5,515L656.5,515L656.5,515z"/>
					<path fill="#38373C" d="M656.8,514.8v0.1c-0.1,0-0.1,0.1-0.2,0.1l-0.1-0.1C656.6,515,656.7,514.9,656.8,514.8L656.8,514.8z"/>
				</g>
			</g>
		</g>
	</g>
	<g>
		<g>
			<g>
				
					<radialGradient id="SVGID_35_" cx="444.4736" cy="323.2212" r="2.0554" gradientTransform="matrix(0.7837 -0.6211 -1.0322 -1.3025 664.4127 1210.901)" gradientUnits="userSpaceOnUse">
					<stop  offset="0" style="stop-color:#73737B"/>
					<stop  offset="1" style="stop-color:#222224"/>
				</radialGradient>
				<path fill="url(#SVGID_35_)" d="M677,511.5c0.3-0.2,0.6-0.3,1-0.3c0.3,0,0.6,0.1,0.8,0.2c0.1,0,0.1,0.1,0.2,0.1
					c0.1,0.1,0.2,0.1,0.3,0.2c0.1,0.1,0.1,0.2,0.2,0.3c0.2,0.3,0.3,0.6,0.3,1v0.1c0,0.5-0.2,0.9-0.5,1.2c-0.2,0.2-0.3,0.3-0.5,0.3
					c-0.2,0.1-0.4,0.2-0.7,0.2H678c-0.2,0-0.4,0-0.5-0.2c-0.1,0-0.2-0.1-0.3-0.1h-0.1H677c-0.1-0.1-0.2-0.1-0.3-0.2
					c-0.1-0.1-0.1-0.2-0.2-0.3c-0.2-0.3-0.3-0.7-0.3-1c0-0.5,0.2-0.9,0.5-1.3C676.8,511.6,676.8,511.6,677,511.5
					C677,511.5,677,511.5,677,511.5z M678.3,511.4L678.3,511.4c0.1,0,0.1,0,0.2,0h0.1c0.1,0,0.1,0.1,0.2,0.1h0.1
					c-0.2-0.1-0.3-0.2-0.5-0.3v0.2H678.3z"/>
			</g>
			<g>
				<g>
					
						<linearGradient id="SVGID_36_" gradientUnits="userSpaceOnUse" x1="475.374" y1="267.8823" x2="474.5982" y2="267.6852" gradientTransform="matrix(1 0 0 -1 202.3398 780.0391)">
						<stop  offset="0" style="stop-color:#E8E8E0"/>
						<stop  offset="1" style="stop-color:#535258"/>
					</linearGradient>
					<path fill="url(#SVGID_36_)" d="M676.6,513.4L676.6,513.4c-0.1-0.1-0.1-0.2-0.1-0.3c0-0.1,0-0.2,0-0.3c0-0.3,0.1-0.6,0.3-0.9
						c0.2-0.3,0.5-0.6,0.9-0.7c0.1,0,0.2,0,0.3,0c0.3,0,0.5,0.1,0.8,0.3h0.1c0,0,0.1,0.1,0.1,0.2l0,0l0,0c-0.3-0.1-0.5-0.2-0.8-0.2
						c-0.1,0-0.3,0-0.3,0c-0.4,0.1-0.7,0.3-0.9,0.7c-0.2,0.3-0.3,0.5-0.3,0.8C676.5,513.1,676.5,513.2,676.6,513.4
						C676.6,513.3,676.6,513.4,676.6,513.4z"/>
					
						<linearGradient id="SVGID_37_" gradientUnits="userSpaceOnUse" x1="476.1436" y1="268.1992" x2="474.4676" y2="267.276" gradientTransform="matrix(1 0 0 -1 202.3398 780.0391)">
						<stop  offset="0" style="stop-color:#797D8E"/>
						<stop  offset="1" style="stop-color:#BFBFBF"/>
					</linearGradient>
					<path fill="url(#SVGID_37_)" d="M678.8,511.8l-2.2,1.7v-0.1c0-0.1,0-0.2,0-0.3c0-0.3,0.1-0.6,0.3-0.8c0.2-0.3,0.5-0.5,0.9-0.7
						c0.1,0,0.2,0,0.3,0C678.2,511.5,678.5,511.6,678.8,511.8C678.8,511.7,678.8,511.7,678.8,511.8z"/>
					<path fill="#CAC8C6" d="M679.2,512.1c-0.1-0.2-0.2-0.3-0.4-0.4c-0.1-0.1-0.1-0.1-0.1-0.2h-0.1c-0.2-0.2-0.5-0.3-0.8-0.3
						c-0.1,0-0.2,0-0.3,0c-0.4,0.1-0.7,0.4-0.9,0.7c-0.2,0.3-0.3,0.5-0.3,0.9c0,0.1,0,0.1,0,0.3c0,0.1,0.1,0.2,0.1,0.3l-0.1,0.1
						c0-0.1-0.1-0.2-0.1-0.3c0-0.1,0-0.2,0-0.3c0-0.3,0.1-0.6,0.3-0.9c0.2-0.4,0.6-0.7,1-0.8c0.1,0,0.2,0,0.2,0s0.1,0,0.2,0
						c0.3,0,0.6,0,0.8,0.3C679,511.6,679.2,511.8,679.2,512.1c0.1-0.1,0.2,0,0.2,0c0.1,0.1,0.1,0.2,0.1,0.3c0,0.1,0,0.3,0,0.3
						c0,0.3-0.1,0.7-0.3,1c0.2-0.4,0.2-0.7,0.2-1.1c0-0.1-0.1-0.2-0.1-0.3C679.3,512.3,679.3,512.2,679.2,512.1
						C679.3,512.1,679.2,512.1,679.2,512.1z"/>
					<path fill="#6B6A70" d="M676.7,513.5l-0.2,0.1v-0.1l0,0l0.1-0.1C676.5,513.4,676.6,513.5,676.7,513.5
						C676.6,513.5,676.6,513.5,676.7,513.5z"/>
					<path fill="#52525A" d="M676.6,513.5C676.6,513.5,676.5,513.4,676.6,513.5L676.6,513.5L676.6,513.5z"/>
					<polygon fill="#31343D" points="676.6,513.4 678.8,511.8 678.8,511.8 678.8,511.8 676.6,513.5 					"/>
					<path fill="#6A7579" d="M676.6,513.5l2.3-1.7h0.1L676.6,513.5L676.6,513.5z"/>
					
						<linearGradient id="SVGID_38_" gradientUnits="userSpaceOnUse" x1="476.5547" y1="266.7241" x2="475.2061" y2="266.3933" gradientTransform="matrix(1 0 0 -1 202.3398 780.0391)">
						<stop  offset="0" style="stop-color:#696E74"/>
						<stop  offset="1" style="stop-color:#424041"/>
					</linearGradient>
					<path fill="url(#SVGID_38_)" d="M679.3,512.2c0,0.1,0,0.1,0,0.2c0,0.1,0.1,0.2,0.1,0.3c0.1,0.4,0,0.7-0.2,1.1
						c-0.2,0.4-0.6,0.6-1,0.7c-0.2,0-0.4,0-0.5,0c-0.2,0-0.3-0.1-0.5-0.3c-0.1,0-0.2-0.1-0.3-0.3l0,0c0.1,0,0.1,0.1,0.2,0.1
						c0.3,0.2,0.7,0.3,1.1,0.2c0.4-0.1,0.7-0.3,0.9-0.7c0.2-0.4,0.3-0.8,0.2-1.1C679.3,512.4,679.3,512.3,679.3,512.2L679.3,512.2z"
						/>
					<path fill="#605D68" d="M676.8,513.9L676.8,513.9c0.2,0.2,0.3,0.3,0.4,0.3c0.2,0.1,0.4,0.2,0.5,0.3c-0.2,0-0.4-0.1-0.6-0.2
						c0,0,0,0-0.1,0c-0.2-0.1-0.3-0.2-0.4-0.4l0.1-0.1l0,0C676.8,513.8,676.8,513.8,676.8,513.9L676.8,513.9z"/>
					
						<linearGradient id="SVGID_39_" gradientUnits="userSpaceOnUse" x1="476.7305" y1="267.0176" x2="475.4061" y2="266.0417" gradientTransform="matrix(1 0 0 -1 202.3398 780.0391)">
						<stop  offset="0" style="stop-color:#EDEFEF"/>
						<stop  offset="1" style="stop-color:#606068"/>
					</linearGradient>
					<path fill="url(#SVGID_39_)" d="M679.2,512.1L679.2,512.1L679.2,512.1c0.1,0.2,0.2,0.3,0.2,0.4c0.1,0.4,0,0.8-0.2,1.1
						c-0.2,0.3-0.5,0.6-0.9,0.7c-0.4,0.1-0.8,0-1.1-0.2c-0.1-0.1-0.1-0.1-0.2-0.1l0,0c0.2,0.1,0.3,0.2,0.5,0.2s0.4,0,0.6,0
						c0.4-0.1,0.8-0.4,1-0.7l0,0c0.2-0.3,0.3-0.7,0.2-1.1C679.2,512.3,679.2,512.2,679.2,512.1z"/>
					
						<linearGradient id="SVGID_40_" gradientUnits="userSpaceOnUse" x1="477.2832" y1="267.5527" x2="475.0051" y2="265.7567" gradientTransform="matrix(1 0 0 -1 202.3398 780.0391)">
						<stop  offset="0" style="stop-color:#A8AEB5"/>
						<stop  offset="1" style="stop-color:#646A82"/>
					</linearGradient>
					<path fill="url(#SVGID_40_)" d="M677,514l2.1-1.8l0.1-0.1c0,0.1,0.1,0.2,0.1,0.3c0.1,0.4,0,0.7-0.2,1.1l0,0
						c-0.2,0.3-0.5,0.6-1,0.7c-0.2,0-0.4,0-0.6,0C677.3,514.1,677.2,514,677,514L677,514z"/>
					<path fill="#646F71" d="M676.8,513.8l2.4-1.7l-0.1,0.1l-2.3,1.8C676.8,513.9,676.8,513.9,676.8,513.8L676.8,513.8L676.8,513.8z
						"/>
					<path fill="#38373C" d="M676.5,513.7l0.2-0.1c0,0.1,0,0.1,0,0.2l0,0l-0.1,0.1C676.6,513.8,676.6,513.7,676.5,513.7z"/>
					
						<linearGradient id="SVGID_41_" gradientUnits="userSpaceOnUse" x1="-274.9814" y1="1687.4736" x2="-272.1658" y2="1687.4736" gradientTransform="matrix(-0.8167 0.577 0.6258 0.7823 -601.4988 -649.5441)">
						<stop  offset="0" style="stop-color:#3D3D47"/>
						<stop  offset="1" style="stop-color:#33363D"/>
					</linearGradient>
					<path fill="url(#SVGID_41_)" d="M679,511.8C679,511.8,679,511.9,679,511.8c0.1,0.1,0.1,0.2,0.1,0.2s0,0,0.1,0l-2.4,1.7l0,0
						c0,0,0-0.1,0-0.2L679,511.8z"/>
					<path fill="#B8C0C3" d="M676.9,514L676.9,514C676.9,513.9,676.9,513.9,676.9,514L676.9,514z"/>
					<path fill="#AAB2B4" d="M679.1,512.2L677,514h-0.1L679.1,512.2z"/>
				</g>
			</g>
		</g>
	</g>
	<g>
		<g>
			
				<radialGradient id="SVGID_42_" cx="369.9736" cy="322.4707" r="2.0557" gradientTransform="matrix(0.7837 -0.6211 -1.0322 -1.3025 647.525 1164.399)" gradientUnits="userSpaceOnUse">
				<stop  offset="0" style="stop-color:#73737B"/>
				<stop  offset="1" style="stop-color:#222224"/>
			</radialGradient>
			<path fill="url(#SVGID_42_)" d="M602.5,512.2c0.3-0.2,0.6-0.3,1-0.3c0.3,0,0.6,0.1,0.9,0.3c0,0,0.1,0,0.1,0.1
				c0.1,0.1,0.2,0.2,0.3,0.3c0.1,0.1,0.1,0.2,0.2,0.3c0.2,0.3,0.3,0.7,0.3,1c0,0.5-0.2,0.9-0.5,1.3c-0.1,0.1-0.3,0.2-0.5,0.3
				s-0.4,0.2-0.7,0.2l0,0c-0.2,0-0.5,0-0.6-0.1c-0.1-0.1-0.2-0.1-0.3-0.1l-0.1-0.1c-0.1-0.1-0.2-0.1-0.3-0.2
				c-0.1-0.1-0.2-0.2-0.3-0.3c-0.2-0.3-0.3-0.6-0.3-1c0-0.5,0.2-1,0.5-1.3C602.3,512.4,602.4,512.3,602.5,512.2L602.5,512.2z
				 M604.2,512.3C604.2,512.3,604.3,512.3,604.2,512.3L604.2,512.3c-0.1-0.1-0.3-0.2-0.5-0.2v0.1h0.2c0.1,0,0.1,0,0.1,0
				C604.1,512.2,604.2,512.2,604.2,512.3z M602.9,515.2L602.9,515.2L602.9,515.2L602.9,515.2z"/>
		</g>
		<g>
			<g>
				
					<linearGradient id="SVGID_43_" gradientUnits="userSpaceOnUse" x1="400.6309" y1="266.9697" x2="400.0311" y2="266.37" gradientTransform="matrix(1 0 0 -1 202.3398 780.0391)">
					<stop  offset="0" style="stop-color:#E8E8E0"/>
					<stop  offset="1" style="stop-color:#535258"/>
				</linearGradient>
				<path fill="url(#SVGID_43_)" d="M602.5,514.8c-0.1,0-0.1,0-0.2-0.2c0-0.1-0.1-0.1-0.1-0.2c-0.2-0.3-0.3-0.6-0.3-0.9
					c0-0.4,0.1-0.8,0.4-1c0.1-0.1,0.2-0.1,0.3-0.2c0.2-0.2,0.5-0.3,0.8-0.3h0.1c0.1,0,0.2,0,0.3,0l-0.1,0.1l0,0
					c-0.3,0-0.5,0.1-0.8,0.3c-0.1,0.1-0.2,0.1-0.3,0.2c-0.3,0.3-0.5,0.7-0.5,1.1c0,0.3,0.1,0.6,0.3,0.8
					C602.4,514.5,602.5,514.6,602.5,514.8L602.5,514.8z"/>
				<path fill="#CAC8C6" d="M602.5,514.8v0.2c-0.1-0.1-0.2-0.1-0.3-0.2c-0.1-0.1-0.1-0.2-0.2-0.3c-0.2-0.3-0.3-0.6-0.3-0.9
					c0-0.4,0.2-0.8,0.5-1.1c0,0,0.1-0.1,0.2-0.2h0.1c0.3-0.2,0.6-0.3,0.9-0.3c0.3,0,0.5,0.1,0.8,0.2c0.1,0,0.1,0.1,0.1,0.1
					c0.1,0.1,0.2,0.1,0.3,0.2c0.1,0.1,0.1,0.2,0.2,0.3c0.2,0.3,0.3,0.6,0.3,0.9l0,0c0-0.4-0.1-0.7-0.4-1c-0.1-0.1-0.2-0.1-0.3-0.2
					c0,0-0.1-0.1-0.2-0.1h-0.1c-0.2-0.1-0.3-0.2-0.5-0.2c-0.1,0-0.2,0-0.3,0h-0.1c-0.3,0-0.5,0.1-0.8,0.3c-0.1,0-0.1,0.1-0.3,0.2
					c-0.3,0.3-0.4,0.7-0.4,1s0.1,0.6,0.3,0.9c0.1,0.1,0.1,0.1,0.1,0.2C602.4,514.7,602.5,514.8,602.5,514.8z"/>
				
					<linearGradient id="SVGID_44_" gradientUnits="userSpaceOnUse" x1="82.5459" y1="1620.9766" x2="84.4624" y2="1620.9766" gradientTransform="matrix(-0.5087 0.8609 0.8677 0.4972 -761.1898 -364.6239)">
					<stop  offset="0" style="stop-color:#797D8E"/>
					<stop  offset="1" style="stop-color:#BFBFBF"/>
				</linearGradient>
				<path fill="url(#SVGID_44_)" d="M603.6,512.2l-1,2.6l0,0c-0.1-0.1-0.1-0.2-0.2-0.3c-0.2-0.2-0.3-0.5-0.3-0.8
					c0-0.4,0.2-0.8,0.5-1.1c0.1-0.1,0.2-0.1,0.3-0.2C603,512.2,603.3,512.2,603.6,512.2L603.6,512.2z"/>
				<path fill="#31343D" d="M603.7,512.2l-1,2.6h-0.1l1-2.6H603.7z"/>
				
					<linearGradient id="SVGID_45_" gradientUnits="userSpaceOnUse" x1="402.2109" y1="266.5391" x2="401.2113" y2="265.5394" gradientTransform="matrix(1 0 0 -1 202.3398 780.0391)">
					<stop  offset="0" style="stop-color:#696E74"/>
					<stop  offset="1" style="stop-color:#424041"/>
				</linearGradient>
				<path fill="url(#SVGID_45_)" d="M604.2,515c-0.2,0.1-0.4,0.2-0.6,0.2c-0.2,0-0.3,0-0.4-0.1l0,0c0.1,0,0.1,0,0.2,0
					c0.4,0,0.8-0.1,1-0.5c0.3-0.3,0.5-0.6,0.5-1c0-0.4-0.2-0.8-0.5-1c-0.1-0.1-0.1-0.1-0.2-0.2c0.1,0,0.1,0,0.2,0.1
					c0.1,0.1,0.2,0.1,0.3,0.2c0.3,0.3,0.4,0.6,0.4,1l0,0c0,0.4-0.2,0.8-0.5,1.2C604.5,514.9,604.3,515,604.2,515z"/>
				
					<linearGradient id="SVGID_46_" gradientUnits="userSpaceOnUse" x1="402.1934" y1="266.8198" x2="401.5919" y2="265.2954" gradientTransform="matrix(1 0 0 -1 202.3398 780.0391)">
					<stop  offset="0" style="stop-color:#EDEFEF"/>
					<stop  offset="1" style="stop-color:#606068"/>
				</linearGradient>
				<path fill="url(#SVGID_46_)" d="M604.3,512.3c0.1,0,0.1,0.1,0.2,0.2c0.3,0.3,0.5,0.7,0.5,1c0,0.4-0.2,0.8-0.5,1
					c-0.3,0.3-0.6,0.5-1,0.5c-0.1,0-0.1,0-0.2,0l0,0c0.2,0,0.4,0,0.5-0.1c0.2-0.1,0.4-0.2,0.5-0.4c0.3-0.3,0.4-0.6,0.4-1l0,0
					c0-0.4-0.1-0.7-0.4-1C604.2,512.4,604.2,512.4,604.3,512.3L604.3,512.3C604.2,512.3,604.2,512.3,604.3,512.3z"/>
				
					<linearGradient id="SVGID_47_" gradientUnits="userSpaceOnUse" x1="402.3262" y1="267.6226" x2="401.327" y2="264.8974" gradientTransform="matrix(1 0 0 -1 202.3398 780.0391)">
					<stop  offset="0" style="stop-color:#A8AEB5"/>
					<stop  offset="1" style="stop-color:#646A82"/>
				</linearGradient>
				<path fill="url(#SVGID_47_)" d="M603.2,515l1-2.7l0.1,0.1c0.3,0.3,0.4,0.6,0.4,1l0,0c0,0.4-0.1,0.8-0.4,1
					c-0.1,0.2-0.3,0.3-0.5,0.4C603.6,515,603.5,515,603.2,515L603.2,515z"/>
				
					<linearGradient id="SVGID_48_" gradientUnits="userSpaceOnUse" x1="152.7881" y1="1588.8223" x2="155.5981" y2="1588.8223" gradientTransform="matrix(-0.4004 0.9164 0.9105 0.4138 -781.4011 -285.3948)">
					<stop  offset="0" style="stop-color:#3D3D47"/>
					<stop  offset="1" style="stop-color:#33363D"/>
				</linearGradient>
				<path fill="url(#SVGID_48_)" d="M602.7,514.8l1.1-2.7h0.1c0.1,0,0.1,0.1,0.1,0.1l0,0l-1,2.8l0,0c0,0,0,0-0.1,0
					C602.8,514.9,602.8,514.9,602.7,514.8z"/>
				<path fill="#646F71" d="M604.2,512.3L603,515l0,0l0,0L604.2,512.3C604.1,512.3,604.1,512.3,604.2,512.3z"/>
				<path fill="#6A7579" d="M602.7,514.8l1-2.6h0.1L602.7,514.8L602.7,514.8z"/>
				<path fill="#6B6A70" d="M602.5,514.9v-0.2l0,0h0.1L602.5,514.9C602.6,515,602.6,515,602.5,514.9L602.5,514.9z"/>
				<path fill="#52525A" d="M602.7,514.8L602.7,514.8C602.7,514.8,602.6,514.8,602.7,514.8h-0.1
					C602.6,514.8,602.6,514.8,602.7,514.8z"/>
				<path fill="#38373C" d="M602.7,514.8c0.1,0,0.1,0.1,0.1,0.1h0.1l0,0l-0.1,0.1c-0.1,0-0.1-0.1-0.2-0.1L602.7,514.8z"/>
				<path fill="#605D68" d="M603.2,515c0.1,0.1,0.3,0.1,0.4,0.1c0.2,0,0.4-0.1,0.6-0.2c-0.2,0.1-0.4,0.2-0.7,0.2l0,0
					c-0.2,0-0.4,0-0.6-0.1l0.1-0.1h0.1l0,0C603.1,515,603.1,515,603.2,515z"/>
				<path fill="#B8C0C3" d="M603.2,515h-0.1C603.1,515,603.1,515,603.2,515L603.2,515z"/>
				<path fill="#AAB2B4" d="M603,515l1.1-2.7L603,515C603.1,515,603.1,515,603,515z"/>
			</g>
		</g>
	</g>
	<g>
		<g>
			
				<radialGradient id="SVGID_49_" cx="400.6729" cy="322.4712" r="2.0557" gradientTransform="matrix(0.7837 -0.6211 -1.0322 -1.3025 654.1647 1183.4674)" gradientUnits="userSpaceOnUse">
				<stop  offset="0" style="stop-color:#73737B"/>
				<stop  offset="1" style="stop-color:#222224"/>
			</radialGradient>
			<path fill="url(#SVGID_49_)" d="M633.2,512.2c0.3-0.2,0.6-0.3,1-0.3c0.3,0,0.6,0.1,0.8,0.3c0.1,0,0.1,0,0.2,0.1
				c0.1,0.1,0.2,0.2,0.3,0.3c0.1,0.1,0.2,0.2,0.3,0.3c0.2,0.3,0.3,0.7,0.3,1c0,0.5-0.2,0.9-0.5,1.3c-0.1,0.1-0.3,0.2-0.5,0.3
				c-0.2,0.1-0.5,0.2-0.7,0.2h-0.1c-0.2,0-0.4,0-0.6-0.1c-0.1-0.1-0.1-0.1-0.3-0.1l0,0h-0.1c-0.1-0.1-0.2-0.1-0.3-0.2
				c-0.1-0.1-0.1-0.2-0.2-0.3c-0.2-0.3-0.3-0.6-0.3-1c0-0.5,0.2-1,0.5-1.3c0.1,0,0.1-0.1,0.2-0.2
				C633.1,512.2,633.2,512.2,633.2,512.2z M635,512.3c-0.2-0.1-0.4-0.2-0.5-0.2l-0.1,0.1h0.1h0.1c0,0,0.1,0,0.2,0
				C634.9,512.2,634.9,512.2,635,512.3L635,512.3L635,512.3z M635,512.3L635,512.3L635,512.3L635,512.3z M633.6,515.3L633.6,515.3
				C633.6,515.2,633.5,515.2,633.6,515.3C633.5,515.2,633.6,515.2,633.6,515.3z"/>
		</g>
		<g>
			<g>
				
					<linearGradient id="SVGID_50_" gradientUnits="userSpaceOnUse" x1="432.1309" y1="267.5884" x2="432.9498" y2="266.1849" gradientTransform="matrix(1 0 0 -1 202.3398 780.0391)">
					<stop  offset="0" style="stop-color:#EDEFEF"/>
					<stop  offset="1" style="stop-color:#606068"/>
				</linearGradient>
				<path fill="url(#SVGID_50_)" d="M633.8,512.1L633.8,512.1c0.5,0,0.9,0.1,1.2,0.3c0.3,0.3,0.5,0.6,0.6,1c0.1,0.4,0,0.8-0.3,1
					c-0.1,0.1-0.1,0.2-0.2,0.2v-0.1c0.1-0.2,0.2-0.3,0.3-0.5c0-0.2,0.1-0.4,0.1-0.6c-0.1-0.4-0.3-0.7-0.6-1l0,0
					c-0.3-0.2-0.7-0.3-1-0.3c-0.1,0-0.2,0-0.3,0V512l0,0C633.6,512.1,633.7,512.1,633.8,512.1z"/>
				<path fill="#CAC8C6" d="M633.3,512.4c-0.1,0-0.1,0.1-0.2,0.1c0,0.1-0.1,0.1-0.1,0.2l-0.1,0.1c-0.2,0.2-0.3,0.5-0.3,0.7
					c0,0.1,0,0.2,0,0.3c0.1,0.4,0.3,0.8,0.6,1c0.2,0.2,0.5,0.3,0.8,0.3c0.1,0,0.2,0,0.3,0c0.1,0,0.1,0,0.3,0l0,0v0.1
					c-0.1,0-0.1,0.1-0.3,0.1c-0.1,0-0.2,0-0.3,0c-0.3,0-0.7-0.2-1-0.4c-0.3-0.3-0.5-0.6-0.6-1.1c0,0,0-0.1,0-0.2v-0.1
					c0-0.3,0.1-0.6,0.3-0.8s0.4-0.4,0.6-0.5h0.1c0.1-0.1,0.3-0.1,0.3-0.1c0.1,0,0.3,0,0.4,0c0.3,0,0.6,0.1,0.9,0.3l0,0
					c-0.3-0.2-0.7-0.3-1-0.3c-0.1,0-0.2,0-0.3,0c-0.1,0-0.1,0-0.2,0.1l0,0C633.4,512.3,633.3,512.3,633.3,512.4L633.3,512.4
					L633.3,512.4z"/>
				<path fill="#646F71" d="M633.5,512.3l1.5,2.4l0,0l0,0l0,0h-0.1L633.5,512.3L633.5,512.3z"/>
				
					<linearGradient id="SVGID_51_" gradientUnits="userSpaceOnUse" x1="431.5547" y1="268.165" x2="433.0832" y2="265.717" gradientTransform="matrix(1 0 0 -1 202.3398 780.0391)">
					<stop  offset="0" style="stop-color:#A8AEB5"/>
					<stop  offset="1" style="stop-color:#646A82"/>
				</linearGradient>
				<path fill="url(#SVGID_51_)" d="M635.1,514.7l-1.5-2.3l0,0c0.1,0,0.2,0,0.3,0c0.4-0.1,0.7,0,1,0.3l0,0c0.3,0.2,0.5,0.5,0.6,1
					c0,0.2,0,0.4-0.1,0.6C635.3,514.3,635.2,514.4,635.1,514.7L635.1,514.7z"/>
				
					<linearGradient id="SVGID_52_" gradientUnits="userSpaceOnUse" x1="432.3975" y1="267.3931" x2="432.5742" y2="266.0182" gradientTransform="matrix(1 0 0 -1 202.3398 780.0391)">
					<stop  offset="0" style="stop-color:#696E74"/>
					<stop  offset="1" style="stop-color:#424041"/>
				</linearGradient>
				<path fill="url(#SVGID_52_)" d="M635.1,514.7L635.1,514.7c0-0.1,0.1-0.2,0.2-0.3c0.3-0.3,0.4-0.7,0.3-1c-0.1-0.4-0.3-0.7-0.6-1
					c-0.3-0.2-0.7-0.3-1.1-0.3h-0.1c0.1,0,0.2,0,0.3,0c0.4-0.1,0.7,0,1,0.3c0.3,0.3,0.5,0.6,0.6,1c0,0.2,0,0.4,0,0.6v0.1
					c0,0.2-0.1,0.3-0.2,0.4C635.3,514.5,635.2,514.6,635.1,514.7z"/>
				
					<linearGradient id="SVGID_53_" gradientUnits="userSpaceOnUse" x1="640.0576" y1="1071.4238" x2="642.8679" y2="1071.4238" gradientTransform="matrix(0.4894 0.8721 0.878 -0.4789 -620.7339 467.2237)">
					<stop  offset="0" style="stop-color:#3D3D47"/>
					<stop  offset="1" style="stop-color:#33363D"/>
				</linearGradient>
				<path fill="url(#SVGID_53_)" d="M634.6,515l-1.4-2.5v-0.1l0,0l0,0c0.1,0,0.1,0,0.2,0l0,0l1.3,2.5l0,0
					C634.8,514.9,634.7,514.9,634.6,515z"/>
				
					<linearGradient id="SVGID_54_" gradientUnits="userSpaceOnUse" x1="431.0771" y1="266.3486" x2="431.181" y2="265.5242" gradientTransform="matrix(1 0 0 -1 202.3398 780.0391)">
					<stop  offset="0" style="stop-color:#E8E8E0"/>
					<stop  offset="1" style="stop-color:#535258"/>
				</linearGradient>
				<path fill="url(#SVGID_54_)" d="M633,512.5L633,512.5L633,512.5c-0.2,0.4-0.3,0.6-0.3,0.9c0,0.1,0,0.2,0,0.3
					c0.1,0.4,0.3,0.7,0.5,1c0.3,0.2,0.5,0.3,0.9,0.3c0.1,0,0.2,0,0.3,0h0.1c-0.1,0-0.2,0-0.3,0c-0.1,0-0.2,0-0.3,0
					c-0.3,0-0.6-0.1-0.8-0.3c-0.3-0.2-0.5-0.6-0.6-1c0-0.1,0-0.2,0-0.3c0-0.2,0.1-0.5,0.3-0.7C632.8,512.7,632.8,512.6,633,512.5
					C633,512.6,633,512.6,633,512.5z"/>
				<path fill="#31343D" d="M633.2,512.5l1.4,2.5l0,0l-1.5-2.4L633.2,512.5C633.1,512.5,633.1,512.5,633.2,512.5z"/>
				
					<linearGradient id="SVGID_55_" gradientUnits="userSpaceOnUse" x1="430.6309" y1="267.0962" x2="431.3654" y2="265.3251" gradientTransform="matrix(1 0 0 -1 202.3398 780.0391)">
					<stop  offset="0" style="stop-color:#797D8E"/>
					<stop  offset="1" style="stop-color:#BFBFBF"/>
				</linearGradient>
				<path fill="url(#SVGID_55_)" d="M633,512.6l1.5,2.4h-0.1c-0.1,0-0.2,0-0.3,0c-0.3,0-0.6-0.1-0.9-0.3c-0.3-0.3-0.5-0.6-0.5-1
					c0-0.1,0-0.2,0-0.3C632.8,513.1,632.8,512.9,633,512.6L633,512.6z"/>
				<path fill="#6A7579" d="M633.2,512.5l1.4,2.5l0,0L633.2,512.5L633.2,512.5z"/>
				<path fill="#605D68" d="M635,514.8C635.1,514.8,635.1,514.7,635,514.8c0.2-0.2,0.3-0.3,0.4-0.3c0.1-0.1,0.2-0.2,0.2-0.4
					c0,0.2-0.1,0.3-0.2,0.5h-0.1c-0.1,0.1-0.3,0.3-0.4,0.4l-0.1-0.1c0,0,0,0,0.1,0C634.9,514.8,635,514.8,635,514.8L635,514.8
					L635,514.8z"/>
				<path fill="#52525A" d="M634.5,515L634.5,515L634.5,515L634.5,515c0.2-0.1,0.2-0.1,0.3-0.2C634.7,514.9,634.7,514.9,634.5,515
					C634.6,515,634.6,515,634.5,515z"/>
				<path fill="#6B6A70" d="M634.5,515L634.5,515L634.5,515L634.5,515C634.6,515.1,634.6,515.1,634.5,515L634.5,515z"/>
				<path fill="#38373C" d="M634.8,514.8l0.1,0.1c-0.1,0-0.2,0.1-0.3,0.1v-0.1C634.7,515,634.8,514.9,634.8,514.8z"/>
				<path fill="#B8C0C3" d="M634.8,514.8L634.8,514.8L634.8,514.8C634.9,514.8,634.9,514.8,634.8,514.8z M635,514.8
					C635,514.7,635.1,514.7,635,514.8L635,514.8C635.1,514.7,635.1,514.8,635,514.8z"/>
				<path fill="#AAB2B4" d="M633.5,512.3l1.5,2.3v0.1L633.5,512.3z"/>
			</g>
		</g>
	</g>
	<g>
		<g>
			
				<radialGradient id="SVGID_56_" cx="-14.0708" cy="1645.5117" r="2.7058" gradientTransform="matrix(-0.619 0.7854 0.2448 0.1848 188.3346 219.0203)" gradientUnits="userSpaceOnUse">
				<stop  offset="0" style="stop-color:#FFFFFF;stop-opacity:0.6902"/>
				<stop  offset="0.1725" style="stop-color:#FFFFFF;stop-opacity:0.2118"/>
				<stop  offset="0.3529" style="stop-color:#FEFEFE;stop-opacity:7.058824e-002"/>
				<stop  offset="0.8" style="stop-color:#FEFEFE;stop-opacity:0"/>
				<stop  offset="1" style="stop-color:#FAFAFA;stop-opacity:0"/>
			</radialGradient>
			<path fill="url(#SVGID_56_)" d="M600.6,510.2c0.4-0.3,0.7-0.5,0.8-0.4c0.1,0.1,0.1,0.4-0.2,0.9c-0.2,0.5-0.5,1-1,1.5
				c-0.4,0.5-0.8,1-1.3,1.3c-0.4,0.3-0.7,0.4-0.8,0.4c-0.1-0.1,0-0.4,0.1-0.9c0.2-0.5,0.5-1,1-1.5
				C599.8,511,600.2,510.5,600.6,510.2z"/>
		</g>
	</g>
</g>
</svg>
