<?xml version="1.0" encoding="utf-8"?>
<!-- Generator: Adobe Illustrator 16.0.0, SVG Export Plug-In . SVG Version: 6.00 Build 0)  -->
<!DOCTYPE svg PUBLIC "-//W3C//DTD SVG 1.1//EN" "http://www.w3.org/Graphics/SVG/1.1/DTD/svg11.dtd">
<svg version="1.1" id="Layer_1" xmlns="http://www.w3.org/2000/svg" xmlns:xlink="http://www.w3.org/1999/xlink" x="0px" y="0px"
	 width="66.3px" height="56.7px" viewBox="0 0 66.3 56.7" enable-background="new 0 0 66.3 56.7" xml:space="preserve">
<g>
	<g>
		<linearGradient id="SVGID_1_" gradientUnits="userSpaceOnUse" x1="12.2241" y1="25.9307" x2="65.6582" y2="25.9307">
			<stop  offset="0" style="stop-color:#FFFFFF"/>
			<stop  offset="0.1412" style="stop-color:#8E8E8E"/>
			<stop  offset="0.2431" style="stop-color:#F2F2F2"/>
			<stop  offset="0.3569" style="stop-color:#DCDCDC"/>
			<stop  offset="0.6941" style="stop-color:#585858"/>
			<stop  offset="0.8745" style="stop-color:#FFFFFF"/>
			<stop  offset="1" style="stop-color:#9C9C9C"/>
		</linearGradient>
		<path fill-rule="evenodd" clip-rule="evenodd" fill="url(#SVGID_1_)" d="M45.4,50c0.1-0.1,0.2-0.2,0.3-0.2
			c1.8-1.5,3.5-3.2,4.9-5.1c4.2-2.3,7.4-5.7,9.6-10.2c2.9-5.8,3.3-11.7,1.2-17.7c-2.1-5.9-5.9-10.2-11.5-12.9
			c-0.4-0.2-0.6-0.5-0.8-0.9c-0.2-0.4-0.1-0.8,0-1.1c0.2-0.4,0.5-0.6,0.9-0.8C50.4,1,50.8,1,51.1,1.2c6.3,3.1,10.6,7.9,13,14.6
			c2.4,6.8,2,13.5-1.3,20c-3.2,6.5-8.3,11-15.3,13.5C46.8,49.5,46.1,49.8,45.4,50z M20.7,12.1C19.8,13,19,14,18.2,15
			c-0.2,0.3-0.4,0.6-0.6,1c-0.2,0.3-0.3,0.6-0.5,0.9c-0.4,0.8-0.8,1.7-1.2,2.6c-0.1,0.2-0.2,0.6-0.3,1.1c-0.8,3.9-0.5,7.8,0.9,11.8
			h0c1.3,3.7,3.4,6.8,6.1,9.3c0.1,0.1,0.2,0.2,0.3,0.3l0,0c1.6,1.4,3.5,2.5,5.6,3.5c2.3,1.1,4.7,1.8,7.1,2.1
			c2.7,0.3,5.5,0.2,8.4-0.4c-0.1,0.1-0.2,0.1-0.3,0.2c-1,0.8-2.1,1.5-3.2,2.1c-0.9,0.5-1.8,0.9-2.7,1.3c-0.9,0-1.8-0.1-2.6-0.2
			c-2.7-0.4-5.3-1.2-7.9-2.4c-2.4-1.1-4.5-2.4-6.3-4c0,0-0.1-0.1-0.1-0.1c-0.1-0.1-0.2-0.2-0.3-0.3c-3.1-2.8-5.4-6.3-6.9-10.5
			c-0.5-1.5-0.9-3-1.1-4.5c-1.3-6.6,0.8-12.8,6.3-18.6l0.3-0.2C19,10.8,19.5,11.5,20.7,12.1z"/>
		<linearGradient id="SVGID_2_" gradientUnits="userSpaceOnUse" x1="0.8115" y1="29.9082" x2="55.9615" y2="29.9082">
			<stop  offset="0" style="stop-color:#FFFFFF"/>
			<stop  offset="0.1412" style="stop-color:#8E8E8E"/>
			<stop  offset="0.2431" style="stop-color:#F2F2F2"/>
			<stop  offset="0.3569" style="stop-color:#DCDCDC"/>
			<stop  offset="0.6941" style="stop-color:#585858"/>
			<stop  offset="0.8745" style="stop-color:#FFFFFF"/>
			<stop  offset="1" style="stop-color:#9C9C9C"/>
		</linearGradient>
		<path fill-rule="evenodd" clip-rule="evenodd" fill="url(#SVGID_2_)" d="M45.4,50c-1.1,0.8-2.2,1.5-3.3,2.1
			c-1.5,0.8-3.1,1.5-4.8,2.1c-7.2,2.5-14.2,2.1-21-1.1l0,0.1c-2.5-1.1-4.8-2.6-6.6-4.3c0,0,0-0.1,0-0.1c0,0-0.1-0.1-0.2-0.2l0.1,0.1
			c-3.3-2.9-5.7-6.5-7.2-11c-1.9-5.4-2.1-10.8-0.4-16C2,21.4,2.3,21,2.6,20.9c0.4-0.2,0.8-0.2,1.2-0.1c0.4,0.1,0.7,0.3,0.9,0.7
			c0.2,0.4,0.2,0.8,0.1,1.1C3.4,27.2,3.5,32,5.2,36.8c1.3,3.9,3.4,7.1,6.3,9.7l0,0c0.1,0.1,0.1,0.1,0.1,0.2c0,0,0,0,0.1,0
			c1.7,1.4,3.6,2.7,5.8,3.7c6.1,2.9,12.3,3.2,18.7,0.9c0.5-0.2,1.1-0.4,1.6-0.6c0.9-0.4,1.8-0.8,2.7-1.3c1.1-0.6,2.2-1.3,3.2-2.1
			c0.1-0.1,0.1-0.1,0.3-0.2c2.6-2.2,4.8-4.9,6.4-8.2c2.9-6,3.3-12.2,1.2-18.4c-1.7-4.9-4.6-8.7-8.7-11.5C37.7,6.3,32.4,6,27.2,8
			C26.1,8.4,25,8.9,24,9.5l-1.2-2.4c0.5-0.4,1.1-0.7,1.8-1.1c6.1-2.6,12.1-2.7,17.9-0.5c0.6,0.3,1.3,0.6,1.9,0.9
			c0.7,0.4,1.3,0.9,1.9,1.4c3.8,3,6.5,6.9,8.3,11.8c2.4,7.1,2,14-1.4,20.8v0c-0.8,1.5-1.6,3-2.6,4.3c-1.4,1.9-3.1,3.6-4.9,5.1
			C45.5,49.8,45.5,49.9,45.4,50z"/>
		<linearGradient id="SVGID_3_" gradientUnits="userSpaceOnUse" x1="19.7554" y1="10.6592" x2="23.0489" y2="8.897">
			<stop  offset="0" style="stop-color:#919191"/>
			<stop  offset="1" style="stop-color:#C8C8C8"/>
		</linearGradient>
		<path fill-rule="evenodd" clip-rule="evenodd" fill="url(#SVGID_3_)" d="M24,9.5c-1.2,0.7-2.3,1.6-3.3,2.6
			c-1.2-0.6-1.7-1.3-1.6-2.1l1.3-1c0.7-0.6,1.4-1.2,2.3-1.8c0,0,0.1-0.1,0.1-0.1L24,9.5z"/>
	</g>
</g>
</svg>
