<?xml version="1.0" encoding="utf-8"?>
<!-- Generator: Adobe Illustrator 16.0.0, SVG Export Plug-In . SVG Version: 6.00 Build 0)  -->
<!DOCTYPE svg PUBLIC "-//W3C//DTD SVG 1.1//EN" "http://www.w3.org/Graphics/SVG/1.1/DTD/svg11.dtd">
<svg version="1.1" id="Layer_1" xmlns="http://www.w3.org/2000/svg" xmlns:xlink="http://www.w3.org/1999/xlink" x="0px" y="0px"
	 width="79.4px" height="106.8px" viewBox="288.9 448.8 79.4 106.8" enable-background="new 288.9 448.8 79.4 106.8"
	 xml:space="preserve">
<g>
	<g>
		<path fill="#28262A" d="M336.8,526c-0.2,0-0.5,0-0.9,0c-0.1,0-0.3,0-0.4,0l0,0l0,0c-0.5,0-1.2,0-2,0c-0.6,0-1.1,0-1.6,0h-0.1
			c-0.2,0-0.5,0-0.7,0c-0.5,0-0.8,0-0.9,0c0.1,0,0.4,0,0.9,0c0.2,0,0.5,0,0.7,0h0.1c0.5,0,1,0,1.6,0c0.8,0,1.4,0,2,0l0,0
			c0.1,0,0.3,0,0.4,0C336.3,525.9,336.6,525.9,336.8,526z"/>
		
			<linearGradient id="SVGID_1_" gradientUnits="userSpaceOnUse" x1="133.6494" y1="252.9946" x2="134.949" y2="253.6203" gradientTransform="matrix(1 0 0 -1 202.3398 780.0391)">
			<stop  offset="0" style="stop-color:#0B0706"/>
			<stop  offset="0.4902" style="stop-color:#2F2D31"/>
			<stop  offset="0.8314" style="stop-color:#0C0A0C"/>
			<stop  offset="1" style="stop-color:#0C0A0C"/>
		</linearGradient>
		<path fill="url(#SVGID_1_)" d="M337.7,527.5h-1.6l-0.6-1.5c0.1,0,0.3,0,0.4,0c0.4,0,0.7,0,0.9,0h0.1L337.7,527.5z"/>
		<path fill="#666666" d="M335.5,526L335.5,526L335.5,526z"/>
		
			<linearGradient id="SVGID_2_" gradientUnits="userSpaceOnUse" x1="129.1279" y1="253.1719" x2="133.4026" y2="253.3788" gradientTransform="matrix(1 0 0 -1 202.3398 780.0391)">
			<stop  offset="0" style="stop-color:#0B0706"/>
			<stop  offset="0.302" style="stop-color:#0D0B0E"/>
			<stop  offset="0.5412" style="stop-color:#2F2D31"/>
			<stop  offset="1" style="stop-color:#0C0A0C"/>
		</linearGradient>
		<path fill="url(#SVGID_2_)" d="M336.1,527.5h-4.9l0.5-1.5h0.1c0.5,0,1,0,1.6,0c0.8,0,1.4,0,2,0l0,0L336.1,527.5z"/>
		
			<linearGradient id="SVGID_3_" gradientUnits="userSpaceOnUse" x1="126.6729" y1="243.3887" x2="135.1479" y2="243.3887" gradientTransform="matrix(1 0 0 -1 202.3398 780.0391)">
			<stop  offset="0" style="stop-color:#65443D"/>
			<stop  offset="0.1725" style="stop-color:#0C090A"/>
			<stop  offset="0.302" style="stop-color:#0D0B0E"/>
			<stop  offset="0.4549" style="stop-color:#312C3A"/>
			<stop  offset="0.5412" style="stop-color:#7C7582"/>
			<stop  offset="0.6353" style="stop-color:#272525"/>
			<stop  offset="0.7059" style="stop-color:#3C3C3C"/>
			<stop  offset="1" style="stop-color:#140C09"/>
		</linearGradient>
		<path fill="url(#SVGID_3_)" d="M337.7,527.5V545c0,0.1,0,0.2-0.1,0.3c-0.1,0.1-0.5,0.3-1.1,0.4c-0.9,0.1-1.9,0.2-3,0.2
			s-2.1-0.1-3-0.2c-0.5-0.1-0.9-0.2-1.1-0.4c-0.1,0-0.1-0.1-0.1-0.3v-17.6h2h4.9L337.7,527.5L337.7,527.5z"/>
		
			<linearGradient id="SVGID_4_" gradientUnits="userSpaceOnUse" x1="353.3047" y1="404.6641" x2="355.3336" y2="404.6641" gradientTransform="matrix(0.9242 0.382 0.4215 -0.9078 -167.4777 758.7331)">
			<stop  offset="0" style="stop-color:#0B0706"/>
			<stop  offset="0.302" style="stop-color:#0D0B0E"/>
			<stop  offset="0.5412" style="stop-color:#090909"/>
			<stop  offset="1" style="stop-color:#0C0A0C"/>
		</linearGradient>
		<path fill="url(#SVGID_4_)" d="M331.3,527.5h-2l0,0l1-1.5c0.1,0,0.4,0,0.9,0c0.2,0,0.5,0,0.7,0L331.3,527.5z"/>
	</g>
	<g>
		
			<linearGradient id="SVGID_5_" gradientUnits="userSpaceOnUse" x1="150.8481" y1="236.4468" x2="161.4196" y2="238.0204" gradientTransform="matrix(1 0 0 -1 202.3398 780.0391)">
			<stop  offset="0" style="stop-color:#000000"/>
			<stop  offset="1" style="stop-color:#000000;stop-opacity:0"/>
		</linearGradient>
		<path fill="url(#SVGID_5_)" d="M320.5,543.2c0.1-0.3,0.5-0.5,1-0.5h2.7h39.6c0.7,0,1.2,0.2,1.5,0.5l2.3,3.5
			c-0.1,0.3-0.4,0.5-1,0.5h-43.1H320c-0.6,0-0.8-0.2-0.6-0.5L320.5,543.2z"/>
	</g>
	<g>
		<g>
			
				<linearGradient id="SVGID_6_" gradientUnits="userSpaceOnUse" x1="137.3452" y1="244.665" x2="151.7904" y2="250.0779" gradientTransform="matrix(1 0 0 -1 202.3398 780.0391)">
				<stop  offset="0" style="stop-color:#2C1912"/>
				<stop  offset="1" style="stop-color:#090909"/>
			</linearGradient>
			<path fill="url(#SVGID_6_)" d="M334.9,536.2l1.4-3.8h13v0.5l-0.5,3.3h-0.1h0.1h-11.6H334.9z"/>
			<polygon fill="#080607" points="337.1,536.3 337.1,546.8 334.9,545.8 334.9,536.2 			"/>
			
				<linearGradient id="SVGID_7_" gradientUnits="userSpaceOnUse" x1="137.5039" y1="243.0225" x2="142.1062" y2="236.3491" gradientTransform="matrix(1 0 0 -1 202.3398 780.0391)">
				<stop  offset="0" style="stop-color:#0D0D0D"/>
				<stop  offset="1" style="stop-color:#1C1E1B"/>
			</linearGradient>
			<path fill="url(#SVGID_7_)" d="M348.7,536.3v10.4l0,0h-11.6v-10.5L348.7,536.3l-0.1-0.1C348.6,536.3,348.7,536.3,348.7,536.3
				L348.7,536.3z"/>
			<polygon fill="#080705" points="348.7,546.8 348.7,536.3 348.7,536.3 349.3,533 349.3,545.3 			"/>
		</g>
	</g>
	<g>
		<g>
			
				<linearGradient id="SVGID_8_" gradientUnits="userSpaceOnUse" x1="122.1064" y1="244.6387" x2="136.5516" y2="250.0513" gradientTransform="matrix(1 0 0 -1 202.3398 780.0391)">
				<stop  offset="0" style="stop-color:#2C1912"/>
				<stop  offset="1" style="stop-color:#090909"/>
			</linearGradient>
			<path fill="url(#SVGID_8_)" d="M334,533l-0.5,3.3h-0.1h0.1h-11.6l-2.3-0.1l1.4-3.8h13V533z"/>
			<polygon fill="#080607" points="321.9,536.3 321.9,546.8 319.6,545.8 319.6,536.2 			"/>
			
				<linearGradient id="SVGID_9_" gradientUnits="userSpaceOnUse" x1="122.2402" y1="243.0137" x2="126.8425" y2="236.3403" gradientTransform="matrix(1 0 0 -1 202.3398 780.0391)">
				<stop  offset="0" style="stop-color:#0D0D0D"/>
				<stop  offset="1" style="stop-color:#1C1E1B"/>
			</linearGradient>
			<path fill="url(#SVGID_9_)" d="M333.5,546.8L333.5,546.8h-11.6v-10.5h11.6h-0.1h0.1l0,0V546.8z"/>
			<polygon fill="#080705" points="333.5,536.3 334,533 334,545.3 333.5,546.8 			"/>
		</g>
	</g>
	<g>
		<g>
			<g>
				<g>
					
						<linearGradient id="SVGID_10_" gradientUnits="userSpaceOnUse" x1="94.71" y1="307.4648" x2="94.71" y2="317.6148" gradientTransform="matrix(1 0 0 -1 202.3398 780.0391)">
						<stop  offset="0" style="stop-color:#0E080A"/>
						<stop  offset="0.2353" style="stop-color:#1A1715"/>
						<stop  offset="0.4549" style="stop-color:#3C3C3A"/>
						<stop  offset="0.7137" style="stop-color:#252420"/>
						<stop  offset="0.8039" style="stop-color:#1A1916"/>
						<stop  offset="1" style="stop-color:#1D1A18"/>
					</linearGradient>
					<path fill="url(#SVGID_10_)" d="M301.1,462.5c-0.2,0.1-0.4,0.5-0.6,1.5c-0.1,0.4-0.2,0.9-0.2,1.3c0,0.2,0,0.5,0,0.7l0,0
						c0,0.5,0,1,0,1.6c0,1.4,0.1,2.6,0.3,3.6c0.1,0.8,0.3,1.3,0.5,1.5h-7.3c-0.2-0.1-0.4-0.6-0.5-1.5c-0.2-1-0.3-2.2-0.3-3.6
						c0-0.4,0-0.7,0-1c0-0.1,0-0.2,0-0.3V466c0-0.2,0-0.5,0.1-0.8l-0.1,0.1c0.1-0.5,0.2-0.9,0.3-1.3c0.2-0.9,0.4-1.4,0.6-1.5
						c0,0,0,0,0.1,0H301.1L301.1,462.5z M299.8,465.3h0.1c0-0.1,0-0.3,0-0.3h-0.2L299.8,465.3z"/>
					<path fill="#483427" d="M301.1,462.5L301.1,462.5c0.3,0,0.5,0.5,0.7,1.5c0.1,0.6,0.2,1.3,0.3,2c0,0.5,0.1,1,0.1,1.6
						c0,1.4-0.1,2.6-0.3,3.6c-0.2,0.8-0.3,1.3-0.5,1.5H301c-0.2-0.1-0.4-0.6-0.5-1.5c-0.2-1-0.3-2.2-0.3-3.6c0-0.6,0-1.1,0-1.6l0,0
						c0-0.2,0-0.5,0-0.7c0-0.5,0.1-0.9,0.2-1.3C300.7,463.1,300.9,462.6,301.1,462.5z"/>
					<path fill="#2D1D17" d="M299.8,465.3l-0.1-0.3h0.2c0,0.1,0,0.2,0,0.3H299.8z"/>
				</g>
			</g>
		</g>
		<g>
			<g>
				
					<linearGradient id="SVGID_11_" gradientUnits="userSpaceOnUse" x1="93.0601" y1="320.5771" x2="93.0601" y2="314.2021" gradientTransform="matrix(1 0 0 -1 202.3398 780.0391)">
					<stop  offset="0.1098" style="stop-color:#1A1615"/>
					<stop  offset="0.1569" style="stop-color:#242022"/>
					<stop  offset="0.2196" style="stop-color:#211D1C"/>
					<stop  offset="0.502" style="stop-color:#1A1715"/>
					<stop  offset="0.6824" style="stop-color:#24221F"/>
					<stop  offset="1" style="stop-color:#1A1615"/>
				</linearGradient>
				<path fill="url(#SVGID_11_)" d="M297.4,458.5l1.6,4h-4.6c0,0,0,0-0.1,0l0,0h-1c0,0.1,0.1,0.2,0.1,0.3l-1.6-3.6L297.4,458.5z
					 M294.3,462.5h0.2c0-0.3-0.1-0.3-0.4,0H294.3z"/>
				
					<linearGradient id="SVGID_12_" gradientUnits="userSpaceOnUse" x1="93.9102" y1="308.5518" x2="93.9102" y2="317.4283" gradientTransform="matrix(1 0 0 -1 202.3398 780.0391)">
					<stop  offset="0" style="stop-color:#1C1817"/>
					<stop  offset="0.2118" style="stop-color:#534D46"/>
					<stop  offset="0.5098" style="stop-color:#515151"/>
					<stop  offset="0.7059" style="stop-color:#201F1C"/>
					<stop  offset="0.7725" style="stop-color:#25231F"/>
					<stop  offset="0.8863" style="stop-color:#1A1916"/>
					<stop  offset="1" style="stop-color:#1B1716"/>
				</linearGradient>
				<path fill="url(#SVGID_12_)" d="M293.3,462.8c0-0.1-0.1-0.2-0.1-0.3h1h0.1h4.6l0.6,2.5H293c0.1-1,0.2-1.6,0.3-1.8
					c0,0-0.1-0.1-0.1-0.2L293.3,462.8z M294.3,462.5H294c0.3-0.3,0.4-0.3,0.4,0H294.3z"/>
				<path fill="#2D1D17" d="M299,462.5l-1.6-4c0.3-0.8,0.3-2.4,0-5l3.2,9c-0.2,0.1-0.4,0.5-0.5,1.3c0,0.4-0.1,0.8-0.1,1.2h-0.2
					L299,462.5z"/>
			</g>
		</g>
		<g>
			<g>
				<path fill="#483427" d="M296.6,458.1c-0.1-0.2-0.1-0.5-0.2-0.7l-0.4-3V451l0.4-1.4c0,0,0,0,0.1,0c0.2,0,0.5,0.5,0.7,1.5
					c0.2,1,0.4,2.1,0.5,3.5c0.1,1.1,0.1,2.1,0.1,2.9c0,0.2-0.1,0.3-0.1,0.5c-0.1,0.9-0.3,1.4-0.5,1.4L296.6,458.1z"/>
				
					<linearGradient id="SVGID_13_" gradientUnits="userSpaceOnUse" x1="373.1621" y1="1053.2012" x2="380.2302" y2="1053.2012" gradientTransform="matrix(7.074429e-002 0.9975 1.0025 -8.605199e-005 -789.2101 78.7391)">
					<stop  offset="0" style="stop-color:#0E080A"/>
					<stop  offset="0.1961" style="stop-color:#211D1C"/>
					<stop  offset="0.4549" style="stop-color:#3C3C3A"/>
					<stop  offset="0.7137" style="stop-color:#252420"/>
					<stop  offset="1" style="stop-color:#1A1615"/>
				</linearGradient>
				<path fill="url(#SVGID_13_)" d="M296.6,458.1l0.5,1.2H291c-0.2,0-0.5-0.5-0.7-1.4c-0.2-1-0.4-2.1-0.5-3.4
					c-0.1-1.4-0.1-2.5,0-3.5c0.1-1,0.3-1.5,0.5-1.5h6l0,0L296,451v3.5l0.4,3l0.1,0.4L296.6,458.1z"/>
				<path fill="#37261E" d="M296.4,457.4c0.1,0.2,0.1,0.5,0.2,0.7l-0.1-0.3L296.4,457.4z"/>
			</g>
		</g>
		<g>
			
				<linearGradient id="SVGID_14_" gradientUnits="userSpaceOnUse" x1="386.7266" y1="1095.8789" x2="392.7789" y2="1095.8789" gradientTransform="matrix(2.478577e-002 0.9997 1.0002 -2.968053e-003 -794.1255 81.5192)">
				<stop  offset="0" style="stop-color:#1E1A1B"/>
				<stop  offset="8.627451e-002" style="stop-color:#251C1D"/>
				<stop  offset="0.302" style="stop-color:#92798C"/>
				<stop  offset="0.3647" style="stop-color:#F9F9F9"/>
				<stop  offset="0.4431" style="stop-color:#FEFFFD"/>
				<stop  offset="0.5843" style="stop-color:#573A8C"/>
				<stop  offset="0.6902" style="stop-color:#4F514E"/>
				<stop  offset="0.7843" style="stop-color:#323637"/>
				<stop  offset="1" style="stop-color:#000000"/>
			</linearGradient>
			<path fill="url(#SVGID_14_)" d="M300.6,468.1c0-1.2,0.1-2.3,0.4-3.3h21.6v6.2H301C300.7,470.2,300.6,469.2,300.6,468.1z"/>
		</g>
	</g>
	<g>
		<g>
			<g>
				
					<linearGradient id="SVGID_15_" gradientUnits="userSpaceOnUse" x1="134.083" y1="301.4639" x2="136.308" y2="301.8888" gradientTransform="matrix(1 0 0 -1 202.3398 780.0391)">
					<stop  offset="0" style="stop-color:#39313E"/>
					<stop  offset="0.3373" style="stop-color:#54475A"/>
					<stop  offset="1" style="stop-color:#383740"/>
				</linearGradient>
				<path fill="url(#SVGID_15_)" d="M336.5,477h0.8l1.4,2.7c-0.7,0-1.4,0.1-2.2,0.1V477z"/>
				
					<linearGradient id="SVGID_16_" gradientUnits="userSpaceOnUse" x1="134.3188" y1="301.7378" x2="131.6203" y2="301.5548" gradientTransform="matrix(1 0 0 -1 202.3398 780.0391)">
					<stop  offset="0" style="stop-color:#38313D"/>
					<stop  offset="0.4275" style="stop-color:#3B3340"/>
					<stop  offset="0.8157" style="stop-color:#827F90"/>
					<stop  offset="1" style="stop-color:#797488"/>
				</linearGradient>
				<path fill="url(#SVGID_16_)" d="M333.8,479.9l0.1-2.9h2.6v2.8c-0.6,0-1.2,0.1-1.9,0.1C334.3,479.9,334.1,479.9,333.8,479.9z"/>
				
					<linearGradient id="SVGID_17_" gradientUnits="userSpaceOnUse" x1="125.5264" y1="293.437" x2="139.1768" y2="293.3379" gradientTransform="matrix(1 0 0 -1 202.3398 780.0391)">
					<stop  offset="0" style="stop-color:#1E1A1B"/>
					<stop  offset="0.102" style="stop-color:#271A38"/>
					<stop  offset="0.2353" style="stop-color:#7457C5"/>
					<stop  offset="0.3333" style="stop-color:#876DCE"/>
					<stop  offset="0.4078" style="stop-color:#FFFBFF"/>
					<stop  offset="0.4706" style="stop-color:#FCEBFF"/>
					<stop  offset="0.5373" style="stop-color:#856BAC"/>
					<stop  offset="0.6275" style="stop-color:#513D3E"/>
					<stop  offset="0.7412" style="stop-color:#1D1814"/>
					<stop  offset="0.7529" style="stop-color:#140C0A"/>
					<stop  offset="0.8549" style="stop-color:#0C0706"/>
					<stop  offset="1" style="stop-color:#433626"/>
				</linearGradient>
				<path fill="url(#SVGID_17_)" d="M338.7,479.8c0.3,0,0.6-0.1,0.8-0.1c1.2-0.2,1.9-0.3,2.1-0.5v15h-14.1V479
					c0,0.2,0.7,0.4,2.1,0.6c0.4,0,0.9,0.1,1.4,0.1c0.9,0.1,1.8,0.1,2.8,0.2c0.3,0,0.5,0,0.8,0c0.7,0,1.3,0,1.9-0.1
					C337.3,479.8,338,479.8,338.7,479.8z"/>
				
					<linearGradient id="SVGID_18_" gradientUnits="userSpaceOnUse" x1="-142.1489" y1="231.6245" x2="-140.8518" y2="231.6245" gradientTransform="matrix(0.8866 -0.4626 -0.4505 -0.8929 568.5371 619.7922)">
					<stop  offset="0" style="stop-color:#403B48"/>
					<stop  offset="1" style="stop-color:#120E0B"/>
				</linearGradient>
				<path fill="url(#SVGID_18_)" d="M337.3,477h2.1l2.2,2.1c-0.2,0.2-0.9,0.3-2.1,0.5c-0.3,0-0.5,0.1-0.8,0.1L337.3,477z"/>
				
					<linearGradient id="SVGID_19_" gradientUnits="userSpaceOnUse" x1="126.645" y1="302.5083" x2="128.4958" y2="301.5098" gradientTransform="matrix(1 0 0 -1 202.3398 780.0391)">
					<stop  offset="0" style="stop-color:#161513"/>
					<stop  offset="0.6314" style="stop-color:#261A36"/>
					<stop  offset="1" style="stop-color:#463559"/>
				</linearGradient>
				<path fill="url(#SVGID_19_)" d="M332.3,477l-1.3,2.7c-0.5,0-0.9-0.1-1.4-0.1c-1.3-0.2-2-0.4-2.1-0.6l0,0l1.7-2H332.3z"/>
				
					<linearGradient id="SVGID_20_" gradientUnits="userSpaceOnUse" x1="129.2471" y1="302.0059" x2="131.497" y2="301.1807" gradientTransform="matrix(1 0 0 -1 202.3398 780.0391)">
					<stop  offset="0" style="stop-color:#463559"/>
					<stop  offset="0.2431" style="stop-color:#2C242F"/>
					<stop  offset="0.5412" style="stop-color:#656570"/>
					<stop  offset="1" style="stop-color:#797488"/>
				</linearGradient>
				<path fill="url(#SVGID_20_)" d="M333.9,477l-0.1,2.9c-1,0-2-0.1-2.8-0.2l1.3-2.7H333.9L333.9,477z"/>
			</g>
		</g>
	</g>
	<g>
		<g>
			
				<linearGradient id="SVGID_21_" gradientUnits="userSpaceOnUse" x1="323.0317" y1="454.0918" x2="330.0225" y2="454.0918" gradientTransform="matrix(0.9083 0.4184 0.404 -0.9149 -154.9716 770.2137)">
				<stop  offset="0" style="stop-color:#0B0706"/>
				<stop  offset="0.302" style="stop-color:#0D0B0E"/>
				<stop  offset="0.5412" style="stop-color:#090909"/>
				<stop  offset="1" style="stop-color:#0C0A0C"/>
			</linearGradient>
			<path fill="url(#SVGID_21_)" d="M327.5,494h-6.7l0,0l2.9-5.4l0.1,0.1c0.4,0,1.4,0.1,3.2,0.1c0.7,0,1.5,0,2.3,0h0.1L327.5,494z"/>
			<path fill="#28262A" d="M346.1,488.5L346.1,488.5c-0.5,0.1-1.5,0.2-3.1,0.2c-0.4,0-0.8,0-1.3,0l0,0c-1.9,0-4.2,0-6.7,0
				c-2.1,0-3.9,0-5.6,0l0,0h-0.1c-0.8,0-1.6,0-2.3,0c-1.8,0-2.8-0.1-3.2-0.1l-0.1-0.1l0,0l0,0h0.1c0.4,0,1.4-0.1,3.2-0.1
				c0.7,0,1.5,0,2.3,0h0.1c1.7,0,3.5-0.1,5.6-0.1c2.5,0,4.8,0,6.7,0.1h0.1c0.4,0,0.9,0,1.3,0C344.6,488.4,345.7,488.5,346.1,488.5z"
				/>
			
				<linearGradient id="SVGID_22_" gradientUnits="userSpaceOnUse" x1="117.6226" y1="266.6392" x2="146.1724" y2="266.6392" gradientTransform="matrix(1 0 0 -1 202.3398 780.0391)">
				<stop  offset="0" style="stop-color:#0B0706"/>
				<stop  offset="0.302" style="stop-color:#0D0B0E"/>
				<stop  offset="0.4549" style="stop-color:#312C3A"/>
				<stop  offset="0.5412" style="stop-color:#7C7582"/>
				<stop  offset="0.6353" style="stop-color:#272525"/>
				<stop  offset="0.7059" style="stop-color:#0C0C0C"/>
				<stop  offset="1" style="stop-color:#140C09"/>
			</linearGradient>
			<path fill="url(#SVGID_22_)" d="M320.8,494h6.7h16.4h5.4l0,0v37.1c0,0.2-0.1,0.4-0.3,0.6l0,0c-0.6,0.3-2.1,0.5-4.5,0.8
				s-5.5,0.3-9.5,0.3c-3.9,0-7.1-0.1-9.5-0.3c-2.3-0.2-3.8-0.4-4.4-0.7c-0.3-0.1-0.4-0.4-0.4-0.7L320.8,494L320.8,494z"/>
			<path d="M320.8,531.1c0,0.3,0.1,0.5,0.4,0.7c0.6,0.3,2.1,0.5,4.4,0.7c2.4,0.2,5.5,0.3,9.5,0.3s7.1,0,9.5-0.3
				c2.4-0.3,3.9-0.5,4.5-0.8l0,0c0.2-0.2,0.3-0.4,0.3-0.6v0.3v0.1v0.7c0,0.3-0.1,0.5-0.3,0.8l0,0c-0.6,0.3-1.9,0.5-3.9,0.8
				c-2.8,0.3-6.1,0.5-10.1,0.5c-3.9,0-7.3-0.2-10.1-0.5c-1.9-0.2-3.1-0.5-3.8-0.8c-0.3-0.1-0.4-0.3-0.4-0.8V531.1z"/>
			
				<linearGradient id="SVGID_23_" gradientUnits="userSpaceOnUse" x1="125.7344" y1="288.1377" x2="140.11" y2="288.9017" gradientTransform="matrix(1 0 0 -1 202.3398 780.0391)">
				<stop  offset="0" style="stop-color:#0B0706"/>
				<stop  offset="0.302" style="stop-color:#0D0B0E"/>
				<stop  offset="0.5412" style="stop-color:#2F2D31"/>
				<stop  offset="1" style="stop-color:#0C0A0C"/>
			</linearGradient>
			<path fill="url(#SVGID_23_)" d="M329.4,488.8L329.4,488.8c1.7,0,3.6,0,5.6,0c2.5,0,4.8,0,6.7,0l0,0l2.1,5.3h-16.4L329.4,488.8z"
				/>
			
				<linearGradient id="SVGID_24_" gradientUnits="userSpaceOnUse" x1="-128.2661" y1="217.1309" x2="-123.3243" y2="217.1309" gradientTransform="matrix(0.8954 -0.4452 -0.4286 -0.9037 551.226 631.5792)">
				<stop  offset="0" style="stop-color:#0B0706"/>
				<stop  offset="0.4902" style="stop-color:#2F2D31"/>
				<stop  offset="0.8314" style="stop-color:#0C0A0C"/>
				<stop  offset="1" style="stop-color:#0C0A0C"/>
			</linearGradient>
			<path fill="url(#SVGID_24_)" d="M349.3,494h-5.4l-2.1-5.3c0.5,0,0.9,0,1.3,0c1.6,0,2.6-0.1,3.1-0.1h0.1L349.3,494L349.3,494z"/>
			<polygon fill="#666666" points="346.2,488.7 346.1,488.7 346.1,488.5 346.1,488.5 			"/>
		</g>
	</g>
	<g>
		<g>
			
				<linearGradient id="SVGID_25_" gradientUnits="userSpaceOnUse" x1="131.4087" y1="322.8291" x2="131.5763" y2="302.054" gradientTransform="matrix(1 0 0 -1 202.3398 780.0391)">
				<stop  offset="0" style="stop-color:#20110C"/>
				<stop  offset="0.2549" style="stop-color:#292423"/>
				<stop  offset="0.3765" style="stop-color:#4A5041"/>
				<stop  offset="0.4784" style="stop-color:#383C33"/>
				<stop  offset="0.6314" style="stop-color:#0C0D11"/>
				<stop  offset="1" style="stop-color:#070604"/>
			</linearGradient>
			<path fill="url(#SVGID_25_)" d="M348.2,457.2c-0.1,0.1-0.1,0.2-0.2,0.4c-0.1,0.1-0.1,0.3-0.1,0.5c-0.1,0.5-0.1,1.2-0.2,2.2
				c-0.1,1.5-0.2,3.3-0.2,5.3c0,0.1,0,0.3,0,0.5v1.6c0,0.1,0,0.1,0,0.2v1.5c0,0.1,0,0.3,0,0.4c0,2,0.1,3.8,0.2,5.3
				c0,0.3,0.1,0.6,0.1,1v0.1c0.1,1,0.2,1.7,0.4,1.9l0,0h-27.7c-0.4-0.1-0.6-0.3-0.6-0.5c-0.1-0.3-0.2-0.8-0.2-1.3l0,0v-0.1
				c0-0.3-0.1-0.6-0.1-1c-0.1-1.5-0.2-3.3-0.2-5.3c0-0.1,0-0.2,0-0.4V468c0-0.1,0-0.1,0-0.2V466c0-0.2,0-0.3,0-0.5
				c0-2,0.1-3.8,0.2-5.3c0.1-0.9,0.1-1.7,0.2-2.2c0-0.1,0.1-0.3,0.1-0.3c0.1-0.3,0.3-0.5,0.6-0.5H348.2z"/>
			<path fill="#483427" d="M348.2,457.2L348.2,457.2c0.2,0.2,0.3,1.2,0.4,3c0.1,2.1,0.2,4.5,0.2,7.4c0,2.9-0.1,5.4-0.2,7.4
				c-0.1,1.8-0.2,2.8-0.4,3l0,0l0,0c-0.2-0.2-0.3-0.8-0.4-1.9V476c0-0.3-0.1-0.6-0.1-1c-0.1-1.5-0.2-3.3-0.2-5.3c0-0.1,0-0.2,0-0.4
				v-1.5c0-0.1,0-0.1,0-0.2V466c0-0.2,0-0.3,0-0.5c0-2,0.1-3.8,0.2-5.3c0.1-0.9,0.1-1.7,0.2-2.2c0-0.2,0.1-0.3,0.1-0.5
				C348.1,457.3,348.1,457.2,348.2,457.2z"/>
		</g>
	</g>
	<g>
		<g>
			
				<linearGradient id="SVGID_26_" gradientUnits="userSpaceOnUse" x1="125.9209" y1="287.6084" x2="138.0264" y2="269.3871" gradientTransform="matrix(1 0 0 -1 202.3398 780.0391)">
				<stop  offset="0" style="stop-color:#20110C"/>
				<stop  offset="0.3451" style="stop-color:#2A2C2B"/>
				<stop  offset="0.4314" style="stop-color:#797E70"/>
				<stop  offset="0.4941" style="stop-color:#E3ECD1"/>
				<stop  offset="0.5647" style="stop-color:#707469"/>
				<stop  offset="0.6314" style="stop-color:#46474C"/>
				<stop  offset="1" style="stop-color:#070604"/>
			</linearGradient>
			<path fill="url(#SVGID_26_)" d="M327.6,493c1.9-1.5,4.2-2.2,6.7-2.2c3,0,5.6,1.1,7.8,3.2c2.1,2.1,3.2,4.6,3.2,7.5
				c0,3-1.1,5.5-3.2,7.6c-0.4,0.4-0.9,0.8-1.3,1.1c-1.9,1.4-4,2-6.4,2c-3,0-5.6-1-7.8-3.1c-2.2-2.1-3.3-4.6-3.3-7.6
				c0-2.9,1.1-5.5,3.3-7.5C326.9,493.7,327.3,493.3,327.6,493z M344,501.7c0-2.6-0.9-4.8-2.8-6.7c-1.9-1.9-4.1-2.8-6.8-2.8
				c-2.6,0-4.9,0.9-6.8,2.8c-1.9,1.9-2.8,4-2.8,6.7c0,2.6,0.9,4.8,2.8,6.6c1.9,1.8,4.1,2.8,6.8,2.8c2.7,0,4.9-0.9,6.8-2.8
				C343.1,506.4,344,504.2,344,501.7z"/>
			
				<linearGradient id="SVGID_27_" gradientUnits="userSpaceOnUse" x1="134.2822" y1="268.7529" x2="130.1768" y2="286.5272" gradientTransform="matrix(1 0 0 -1 202.3398 780.0391)">
				<stop  offset="0" style="stop-color:#4B5147"/>
				<stop  offset="0.6314" style="stop-color:#484055"/>
				<stop  offset="1" style="stop-color:#424242"/>
			</linearGradient>
			<path fill="url(#SVGID_27_)" d="M344,501.7c0,2.6-0.9,4.8-2.8,6.6c-1.9,1.8-4.1,2.8-6.8,2.8c-2.6,0-4.9-0.9-6.8-2.8
				c-1.9-1.9-2.8-4-2.8-6.6c0-2.6,0.9-4.8,2.8-6.7c1.9-1.9,4.1-2.8,6.8-2.8c2.7,0,4.9,0.9,6.8,2.8C343.1,496.9,344,499,344,501.7z"
				/>
			
				<path fill="none" stroke="#000000" stroke-width="2.2" stroke-linecap="round" stroke-linejoin="round" stroke-miterlimit="3" d="
				M344,501.7c0,2.6-0.9,4.8-2.8,6.6c-1.9,1.8-4.1,2.8-6.8,2.8c-2.6,0-4.9-0.9-6.8-2.8c-1.9-1.9-2.8-4-2.8-6.6
				c0-2.6,0.9-4.8,2.8-6.7c1.9-1.9,4.1-2.8,6.8-2.8c2.7,0,4.9,0.9,6.8,2.8C343.1,496.9,344,499,344,501.7z"/>
		</g>
	</g>
	<g>
		
			<linearGradient id="SVGID_28_" gradientUnits="userSpaceOnUse" x1="-775.7588" y1="570.6729" x2="-764.0338" y2="570.6729" gradientTransform="matrix(-2.132191e-003 -1 -1 1.226965e-002 903.0206 -230.395)">
			<stop  offset="0" style="stop-color:#1C232C;stop-opacity:0"/>
			<stop  offset="1" style="stop-color:#1C232C"/>
		</linearGradient>
		<rect x="319.5" y="547.7" fill="url(#SVGID_28_)" width="29" height="7.5"/>
	</g>
</g>
</svg>
