<?xml version="1.0" encoding="utf-8"?>
<!-- Generator: Adobe Illustrator 15.0.0, SVG Export Plug-In . SVG Version: 6.00 Build 0)  -->
<!DOCTYPE svg PUBLIC "-//W3C//DTD SVG 1.1//EN" "http://www.w3.org/Graphics/SVG/1.1/DTD/svg11.dtd">
<svg version="1.1" id="Layer_1" xmlns="http://www.w3.org/2000/svg" xmlns:xlink="http://www.w3.org/1999/xlink" x="0px" y="0px"
	 width="700px" height="700px" viewBox="0 0 700 700" enable-background="new 0 0 700 700" xml:space="preserve">
<g>
	<g>
		<path fill-opacity="0.502" d="M73.9,529.5c-1.5-1.4-2.3-3.2-2.3-5.4c0-2.3,0.8-4.199,2.4-5.6c1.5-1.6,3.4-2.5,5.6-2.5
			c2.2,0,4.1,0.8,5.5,2.5c1.5,1.4,2.3,3.3,2.3,5.6c0,2.2-0.8,4-2.3,5.4c-1.4,1.6-3.3,2.4-5.5,2.4c-2.2,0-4-0.801-5.6-2.4H73.9z"/>
	</g>
	<g>
		<g>
			
				<linearGradient id="SVGID_1_" gradientUnits="userSpaceOnUse" x1="70.5981" y1="186.9927" x2="76.8468" y2="163.6107" gradientTransform="matrix(1 0 0 -1 4 695)">
				<stop  offset="0" style="stop-color:#A29C9C"/>
				<stop  offset="1" style="stop-color:#223148"/>
			</linearGradient>
			<path fill="url(#SVGID_1_)" d="M70.4,521.9c0-2.301,0.8-4.101,2.3-5.601c1.6-1.5,3.5-2.3,5.6-2.3c2.3,0,4.1,0.7,5.5,2.2v0.1
				c1.6,1.4,2.4,3.3,2.4,5.601c0,2.199-0.8,4-2.4,5.5c-1.4,1.6-3.3,2.399-5.5,2.399c-2.1,0-4-0.8-5.6-2.399
				C71.2,525.9,70.4,524.1,70.4,521.9z M72.3,521.9c0,1.6,0.6,3,1.8,4.1c1.3,1.2,2.7,1.8,4.3,1.8s3-0.6,4.2-1.8
				c1.3-1.2,1.9-2.5,1.9-4.1c0-1.7-0.6-3.101-1.9-4.301c-1.2-1.1-2.6-1.6-4.2-1.6s-3,0.5-4.3,1.6C72.9,518.8,72.3,520.2,72.3,521.9z
				"/>
			
				<radialGradient id="SVGID_2_" cx="74.3501" cy="173.4004" r="5.625" gradientTransform="matrix(1 0 0 -1 4 695)" gradientUnits="userSpaceOnUse">
				<stop  offset="0" style="stop-color:#5D1018"/>
				<stop  offset="0.2706" style="stop-color:#540F15"/>
				<stop  offset="1" style="stop-color:#300809"/>
			</radialGradient>
			<path fill="url(#SVGID_2_)" d="M72.3,521.9c0-1.7,0.6-3.101,1.8-4.301c1.3-1.1,2.7-1.6,4.3-1.6s3,0.5,4.2,1.6
				c1.3,1.2,1.9,2.601,1.9,4.301c0,1.6-0.6,3-1.9,4.1c-1.2,1.2-2.6,1.8-4.2,1.8s-3-0.6-4.3-1.8C72.9,524.9,72.3,523.5,72.3,521.9z"
				/>
		</g>
	</g>
	<g>
		<g>
			
				<linearGradient id="SVGID_3_" gradientUnits="userSpaceOnUse" x1="75.8193" y1="178.5112" x2="72.302" y2="174.2002" gradientTransform="matrix(1 0 0 -1 4 695)">
				<stop  offset="0" style="stop-color:#FFFFFF;stop-opacity:0.5216"/>
				<stop  offset="1" style="stop-color:#FAFAFA;stop-opacity:0"/>
			</linearGradient>
			<path fill="url(#SVGID_3_)" d="M80.1,520c-0.5,0.5-1.2,0.7-2,0.7c-0.7,0-1.4-0.2-2.1-0.7c-0.4-0.4-0.6-0.8-0.6-1.2
				c0-0.6,0.2-1.2,0.6-1.6c0.6-0.3,1.3-0.601,2.1-0.7c0.8-0.1,1.5,0.1,2,0.7c0.5,0.5,0.8,1,0.8,1.6C80.9,519.2,80.6,519.6,80.1,520z
				"/>
		</g>
	</g>
</g>
</svg>
