<?xml version="1.0" encoding="utf-8"?>
<!-- Generator: Adobe Illustrator 16.0.0, SVG Export Plug-In . SVG Version: 6.00 Build 0)  -->
<!DOCTYPE svg PUBLIC "-//W3C//DTD SVG 1.1//EN" "http://www.w3.org/Graphics/SVG/1.1/DTD/svg11.dtd">
<svg version="1.1" id="Layer_1" xmlns="http://www.w3.org/2000/svg" xmlns:xlink="http://www.w3.org/1999/xlink" x="0px" y="0px"
	 width="700px" height="700px" viewBox="0 0 700 700" enable-background="new 0 0 700 700" xml:space="preserve">
<g>
	<g>
		<linearGradient id="SVGID_1_" gradientUnits="userSpaceOnUse" x1="349.9443" y1="197.5933" x2="349.9211" y2="240.0094">
			<stop  offset="0" style="stop-color:#000000;stop-opacity:0.502"/>
			<stop  offset="1" style="stop-color:#000000;stop-opacity:0"/>
			<stop  offset="1" style="stop-color:#000000"/>
			<stop  offset="1" style="stop-color:#000000"/>
		</linearGradient>
		<rect x="-0.1" y="136" fill-rule="evenodd" clip-rule="evenodd" fill="url(#SVGID_1_)" width="700.1" height="104"/>
	</g>
	<g>
		<polygon fill-rule="evenodd" clip-rule="evenodd" fill="#DE9869" points="685.2,29 699.7,29 699.7,198.6 -0.8,198.6 -0.8,29 
			13.7,29 13.7,29 685.2,29 		"/>
	</g>
</g>
<g>
	<g>
		<linearGradient id="SVGID_2_" gradientUnits="userSpaceOnUse" x1="60.2749" y1="169.2124" x2="60.2749" y2="199.7874">
			<stop  offset="0" style="stop-color:#BB7551"/>
			<stop  offset="1" style="stop-color:#DED1C9"/>
		</linearGradient>
		<rect x="3.6" y="158.1" fill-rule="evenodd" clip-rule="evenodd" fill="url(#SVGID_2_)" width="113.4" height="33.1"/>
	</g>
	<g>
		<rect x="4.8" y="159.6" fill-rule="evenodd" clip-rule="evenodd" fill="#4B2F1F" width="110.8" height="29.6"/>
	</g>
</g>
<g>
	<g>
		<linearGradient id="SVGID_3_" gradientUnits="userSpaceOnUse" x1="176.2749" y1="169.2124" x2="176.2749" y2="199.7874">
			<stop  offset="0" style="stop-color:#BB7551"/>
			<stop  offset="1" style="stop-color:#DED1C9"/>
		</linearGradient>
		<rect x="119.6" y="158.1" fill-rule="evenodd" clip-rule="evenodd" fill="url(#SVGID_3_)" width="113.4" height="33.1"/>
	</g>
	<g>
		<rect x="120.8" y="159.6" fill-rule="evenodd" clip-rule="evenodd" fill="#4B2F1F" width="110.8" height="29.6"/>
	</g>
</g>
<g>
	<g>
		<linearGradient id="SVGID_4_" gradientUnits="userSpaceOnUse" x1="292.2251" y1="169.2124" x2="292.2251" y2="199.7874">
			<stop  offset="0" style="stop-color:#BB7551"/>
			<stop  offset="1" style="stop-color:#DED1C9"/>
		</linearGradient>
		<rect x="235.5" y="158.1" fill-rule="evenodd" clip-rule="evenodd" fill="url(#SVGID_4_)" width="113.4" height="33.1"/>
	</g>
	<g>
		<rect x="236.7" y="159.6" fill-rule="evenodd" clip-rule="evenodd" fill="#4B2F1F" width="110.8" height="29.6"/>
	</g>
</g>
<g>
	<g>
		<linearGradient id="SVGID_5_" gradientUnits="userSpaceOnUse" x1="408.1748" y1="169.2124" x2="408.1748" y2="199.7874">
			<stop  offset="0" style="stop-color:#BB7551"/>
			<stop  offset="1" style="stop-color:#DED1C9"/>
		</linearGradient>
		<rect x="351.5" y="158.1" fill-rule="evenodd" clip-rule="evenodd" fill="url(#SVGID_5_)" width="113.3" height="33.1"/>
	</g>
	<g>
		<rect x="352.7" y="159.6" fill-rule="evenodd" clip-rule="evenodd" fill="#4B2F1F" width="110.7" height="29.6"/>
	</g>
</g>
<g>
	<g>
		<linearGradient id="SVGID_6_" gradientUnits="userSpaceOnUse" x1="524.125" y1="169.2124" x2="524.125" y2="199.7874">
			<stop  offset="0" style="stop-color:#BB7551"/>
			<stop  offset="1" style="stop-color:#DED1C9"/>
		</linearGradient>
		<rect x="467.5" y="158.1" fill-rule="evenodd" clip-rule="evenodd" fill="url(#SVGID_6_)" width="113.3" height="33.1"/>
	</g>
	<g>
		<rect x="468.7" y="159.6" fill-rule="evenodd" clip-rule="evenodd" fill="#4B2F1F" width="110.8" height="29.6"/>
	</g>
</g>
<g>
	<g>
		<linearGradient id="SVGID_7_" gradientUnits="userSpaceOnUse" x1="640.0996" y1="169.2124" x2="640.0996" y2="199.7874">
			<stop  offset="0" style="stop-color:#BB7551"/>
			<stop  offset="1" style="stop-color:#DED1C9"/>
		</linearGradient>
		<rect x="583.5" y="158.1" fill-rule="evenodd" clip-rule="evenodd" fill="url(#SVGID_7_)" width="113.3" height="33.1"/>
	</g>
	<g>
		<rect x="584.5" y="159.6" fill-rule="evenodd" clip-rule="evenodd" fill="#4B2F1F" width="110.8" height="29.6"/>
	</g>
</g>
<g>
	<g>
		<path fill-rule="evenodd" clip-rule="evenodd" fill="#9A452E" d="M116.8,152.5l-2.6-2.9l0-0.1V40.3h2.9v112.5L116.8,152.5z
			 M6.6,40.3v109.4L4,152.5l-0.3,0.3V40.3H6.6z"/>
		<polygon fill-rule="evenodd" clip-rule="evenodd" fill="#946538" points="116.8,152.5 4,152.5 6.6,149.6 31.5,149.6 31.5,149.5 
			42.5,149.4 42.5,149.6 114.1,149.6 		"/>
		
			<linearGradient id="SVGID_8_" gradientUnits="userSpaceOnUse" x1="-89.3716" y1="60.377" x2="-47.2466" y2="60.377" gradientTransform="matrix(2.373887e-005 -1 1 -1.000000e-003 1.250937e-004 -2.034975e-004)">
			<stop  offset="0" style="stop-color:#C9805B"/>
			<stop  offset="1" style="stop-color:#A0603D"/>
		</linearGradient>
		<polygon fill-rule="evenodd" clip-rule="evenodd" fill="url(#SVGID_8_)" points="6.6,40.3 114.1,40.3 114.1,149.5 114.1,149.6 
			42.5,149.6 42.5,149.4 31.5,149.5 31.5,149.6 6.6,149.6 		"/>
	</g>
</g>
<g>
	<g>
		<path fill-rule="evenodd" clip-rule="evenodd" fill="#9A452E" d="M232.6,152.5l-2.6-2.9l0-0.1V40.3h3v112.5L232.6,152.5z
			 M122.5,40.3v109.3l0,0.1l-2.6,2.9l-0.3,0.3V40.3H122.5z"/>
		<polygon fill-rule="evenodd" clip-rule="evenodd" fill="#946538" points="232.6,152.5 119.9,152.5 122.5,149.6 147.4,149.6 
			147.4,149.5 158.5,149.4 158.5,149.6 230,149.6 		"/>
		
			<linearGradient id="SVGID_9_" gradientUnits="userSpaceOnUse" x1="-89.4873" y1="176.2285" x2="-47.3623" y2="176.2285" gradientTransform="matrix(2.373887e-005 -1 1 -1.000000e-003 1.250937e-004 -2.034975e-004)">
			<stop  offset="0" style="stop-color:#C9805B"/>
			<stop  offset="1" style="stop-color:#A0603D"/>
		</linearGradient>
		<polygon fill-rule="evenodd" clip-rule="evenodd" fill="url(#SVGID_9_)" points="122.5,40.3 230,40.3 230,149.5 230,149.6 
			158.5,149.6 158.5,149.4 147.4,149.5 147.4,149.6 122.5,149.6 122.5,149.5 		"/>
	</g>
</g>
<g>
	<g>
		<path fill-rule="evenodd" clip-rule="evenodd" fill="#9A452E" d="M348.5,152.5l-2.6-2.9l0-0.1V40.3h2.9v112.5L348.5,152.5z
			 M238.4,40.3v109.3l-0.1,0.1l-2.6,2.9l-0.3,0.3V40.3H238.4z"/>
		<polygon fill-rule="evenodd" clip-rule="evenodd" fill="#946538" points="348.5,152.5 235.7,152.5 238.3,149.6 263.3,149.6 
			263.3,149.5 274.3,149.4 274.3,149.6 345.9,149.6 		"/>
		
			<linearGradient id="SVGID_10_" gradientUnits="userSpaceOnUse" x1="-89.603" y1="292.1035" x2="-47.478" y2="292.1035" gradientTransform="matrix(2.373887e-005 -1 1 -1.000000e-003 1.250937e-004 -2.034975e-004)">
			<stop  offset="0" style="stop-color:#C9805B"/>
			<stop  offset="1" style="stop-color:#A0603D"/>
		</linearGradient>
		<polygon fill-rule="evenodd" clip-rule="evenodd" fill="url(#SVGID_10_)" points="238.4,40.3 345.9,40.3 345.9,149.5 345.9,149.6 
			274.3,149.6 274.3,149.4 263.3,149.5 263.3,149.6 238.3,149.6 238.4,149.5 		"/>
	</g>
</g>
<g>
	<g>
		<path fill-rule="evenodd" clip-rule="evenodd" fill="#9A452E" d="M464.3,152.5l-2.6-2.9l0-0.1V40.3h3v112.5L464.3,152.5z
			 M354.2,40.3v109.3l0,0.1l-2.6,2.9l-0.3,0.3V40.3H354.2z"/>
		
			<linearGradient id="SVGID_11_" gradientUnits="userSpaceOnUse" x1="-89.7192" y1="407.9531" x2="-47.5942" y2="407.9531" gradientTransform="matrix(2.373887e-005 -1 1 -1.000000e-003 1.250937e-004 -2.034975e-004)">
			<stop  offset="0" style="stop-color:#C9805B"/>
			<stop  offset="1" style="stop-color:#A0603D"/>
		</linearGradient>
		<polygon fill-rule="evenodd" clip-rule="evenodd" fill="url(#SVGID_11_)" points="354.2,40.3 461.7,40.3 461.7,149.5 461.8,149.6 
			390.2,149.6 390.2,149.4 379.1,149.5 379.1,149.6 354.2,149.6 354.2,149.5 		"/>
		<polygon fill-rule="evenodd" clip-rule="evenodd" fill="#946538" points="464.3,152.5 351.5,152.5 354.2,149.6 379.1,149.6 
			379.1,149.5 390.2,149.4 390.2,149.6 461.8,149.6 		"/>
	</g>
</g>
<g>
	<g>
		<path fill-rule="evenodd" clip-rule="evenodd" fill="#9A452E" d="M580.2,152.5l-2.6-2.9l0-0.1V40.3h3v112.5L580.2,152.5z
			 M470.1,40.3v109.3l0,0.1l-2.6,2.9l-0.3,0.3V40.3H470.1z"/>
		<polygon fill-rule="evenodd" clip-rule="evenodd" fill="#946538" points="580.2,152.5 467.4,152.5 470,149.6 495,149.6 495,149.5 
			506,149.4 506,149.6 577.6,149.6 		"/>
		
			<linearGradient id="SVGID_12_" gradientUnits="userSpaceOnUse" x1="-89.835" y1="523.8281" x2="-47.71" y2="523.8281" gradientTransform="matrix(2.373887e-005 -1 1 -1.000000e-003 1.250937e-004 -2.034975e-004)">
			<stop  offset="0" style="stop-color:#C9805B"/>
			<stop  offset="1" style="stop-color:#A0603D"/>
		</linearGradient>
		<polygon fill-rule="evenodd" clip-rule="evenodd" fill="url(#SVGID_12_)" points="470.1,40.3 577.5,40.3 577.5,149.5 577.6,149.6 
			506,149.6 506,149.4 495,149.5 495,149.6 470,149.6 470.1,149.5 		"/>
	</g>
</g>
<g>
	<g>
		<path fill-rule="evenodd" clip-rule="evenodd" fill="#9A452E" d="M696.3,152.5l-2.7-2.9l0-0.1V40.3h3v112.5L696.3,152.5z
			 M586.1,40.3v109.3l0,0.1l-2.6,2.9l-0.3,0.3V40.3H586.1z"/>
		<polygon fill-rule="evenodd" clip-rule="evenodd" fill="#946538" points="696.3,152.5 583.5,152.5 586,149.6 611,149.6 611,149.5 
			622,149.4 622,149.6 693.6,149.6 		"/>
		
			<linearGradient id="SVGID_13_" gradientUnits="userSpaceOnUse" x1="-89.9507" y1="639.8281" x2="-47.8257" y2="639.8281" gradientTransform="matrix(2.373887e-005 -1 1 -1.000000e-003 1.250937e-004 -2.034975e-004)">
			<stop  offset="0" style="stop-color:#C9805B"/>
			<stop  offset="1" style="stop-color:#A0603D"/>
		</linearGradient>
		<polygon fill-rule="evenodd" clip-rule="evenodd" fill="url(#SVGID_13_)" points="586.1,40.3 693.5,40.3 693.5,149.5 693.6,149.6 
			622,149.6 622,149.4 611,149.5 611,149.6 586,149.6 586.1,149.5 		"/>
	</g>
</g>
</svg>
