<?xml version="1.0" encoding="utf-8"?>
<!-- Generator: Adobe Illustrator 16.0.0, SVG Export Plug-In . SVG Version: 6.00 Build 0)  -->
<!DOCTYPE svg PUBLIC "-//W3C//DTD SVG 1.1//EN" "http://www.w3.org/Graphics/SVG/1.1/DTD/svg11.dtd">
<svg version="1.1" xmlns="http://www.w3.org/2000/svg" xmlns:xlink="http://www.w3.org/1999/xlink" x="0px" y="0px" width="700px"
	 height="700px" viewBox="0 0 700 700" enable-background="new 0 0 700 700" xml:space="preserve">
<g id="Layer_1">
	<g id="Layer_2">
		
			<linearGradient id="SVGID_1_" gradientUnits="userSpaceOnUse" x1="147.0708" y1="593.5322" x2="147.0519" y2="558.3915" gradientTransform="matrix(1 0 0 -1 202.3398 780.0391)">
			<stop  offset="0" style="stop-color:#000000;stop-opacity:0.502"/>
			<stop  offset="1" style="stop-color:#000000;stop-opacity:0"/>
		</linearGradient>
		<rect x="-5.8" y="135.5" fill="url(#SVGID_1_)" width="710.4" height="140.5"/>
	</g>
	<g id="Layer_1_1_">
		<g>
			<g>
				<path fill="#DE9869" d="M689.9,18.5h14.8v168H-5.8v-168H9l0,0H689.9L689.9,18.5z M687,30H566.8H560v113v0.8h130v-2.9V30H687z
					 M547,30H428h-6.8v113v0.8h131.5V30H547z M408.2,30H287.5h-6.9v113v0.8h133.3V30H408.2z M267.6,30H149.5h-6.8v113v0.8h130.6V30
					H267.6z M129.7,30H12H9v110.9v2.9h126.5V30H129.7z"/>
				<path fill="#9A452E" d="M689.9,140.9H687v-0.1V30h3L689.9,140.9L689.9,140.9z M566.8,30v110.9l-0.1,0.1l-6.7,2V30H566.8z
					 M547,140.9V30h5.8v113.8L547,140.9z M428,30v110.9l-0.2,0.1l-6.7,2V30H428z M408.2,140.9V30h5.8v113.8L408.2,140.9z M280.6,143
					V30h6.9v110.9l-0.1,0.1L280.6,143z M273.4,143.8l-5.7-2.9V30h5.7V143.8z M149.5,30v110.9l-0.1,0.1l-6.7,2V30H149.5z
					 M135.5,143.8l-5.8-2.9V30h5.8V143.8z M12,30v110.8l-0.1,0.1H9V30H12z"/>
				<path fill="#946538" d="M560,143l6.7-2l0.1-0.1H687h2.9v2.9H560V143z M428,140.9h119l5.8,2.9H421.2V143l6.7-2L428,140.9z
					 M273.4,143.8H142.7V143l6.7-2l0.1-0.1h118.1L273.4,143.8z M287.5,140.9h120.7l5.8,2.9H280.6V143l6.8-2L287.5,140.9z
					 M129.7,140.9l5.8,2.9H9v-2.9h2.9h72.6v-0.2l11.2,0.1v0.1H129.7z"/>
				
					<linearGradient id="SVGID_2_" gradientUnits="userSpaceOnUse" x1="147.1099" y1="701.0771" x2="147.1099" y2="743.8021" gradientTransform="matrix(1 0 0 -1 202.3398 780.0391)">
					<stop  offset="0" style="stop-color:#C9805B"/>
					<stop  offset="1" style="stop-color:#A0603D"/>
				</linearGradient>
				<path fill="url(#SVGID_2_)" d="M566.8,140.9V30H687v110.8v0.1H566.8z M547,140.9H428V30h119V140.9z M287.5,140.9V30h120.7v110.9
					H287.5z M267.6,140.9H149.5V30h118.1V140.9z M129.7,30v110.9h-34v-0.1l-11.2-0.1v0.2H11.9l0.1-0.1V30H129.7z"/>
			</g>
		</g>
		<g>
			
				<linearGradient id="SVGID_3_" gradientUnits="userSpaceOnUse" x1="423.8105" y1="620.29" x2="423.8105" y2="589.29" gradientTransform="matrix(1 0 0 -1 202.3398 780.0391)">
				<stop  offset="0" style="stop-color:#BB7551"/>
				<stop  offset="1" style="stop-color:#DED1C9"/>
			</linearGradient>
			<rect x="566.3" y="148.5" fill="url(#SVGID_3_)" width="119.7" height="33.5"/>
		</g>
		<g>
			
				<linearGradient id="SVGID_4_" gradientUnits="userSpaceOnUse" x1="283.8101" y1="620.29" x2="283.8101" y2="589.29" gradientTransform="matrix(1 0 0 -1 202.3398 780.0391)">
				<stop  offset="0" style="stop-color:#BB7551"/>
				<stop  offset="1" style="stop-color:#DED1C9"/>
			</linearGradient>
			<rect x="426.3" y="148.5" fill="url(#SVGID_4_)" width="119.7" height="33.5"/>
		</g>
		<g>
			
				<linearGradient id="SVGID_5_" gradientUnits="userSpaceOnUse" x1="145.3101" y1="620.29" x2="145.3101" y2="589.29" gradientTransform="matrix(1 0 0 -1 202.3398 780.0391)">
				<stop  offset="0" style="stop-color:#BB7551"/>
				<stop  offset="1" style="stop-color:#DED1C9"/>
			</linearGradient>
			<rect x="287.8" y="148.5" fill="url(#SVGID_5_)" width="119.7" height="33.5"/>
		</g>
		<g>
			
				<linearGradient id="SVGID_6_" gradientUnits="userSpaceOnUse" x1="4.8101" y1="620.29" x2="4.8101" y2="589.29" gradientTransform="matrix(1 0 0 -1 202.3398 780.0391)">
				<stop  offset="0" style="stop-color:#BB7551"/>
				<stop  offset="1" style="stop-color:#DED1C9"/>
			</linearGradient>
			<rect x="147.3" y="148.5" fill="url(#SVGID_6_)" width="119.7" height="33.5"/>
		</g>
		<g>
			
				<linearGradient id="SVGID_7_" gradientUnits="userSpaceOnUse" x1="-131.6899" y1="620.29" x2="-131.6899" y2="589.29" gradientTransform="matrix(1 0 0 -1 202.3398 780.0391)">
				<stop  offset="0" style="stop-color:#BB7551"/>
				<stop  offset="1" style="stop-color:#DED1C9"/>
			</linearGradient>
			<rect x="10.8" y="148.5" fill="url(#SVGID_7_)" width="119.7" height="33.5"/>
		</g>
		<g>
			<path fill="#4B2F1F" d="M684.5,180h-117v-30h117V180z M544,180H427v-30h117V180z M405.5,180h-117v-30h117V180z M265.5,180h-117
				v-30h117V180z M12,150h117v30H12V150z"/>
		</g>
	</g>
</g>
<g id="Layer_2_1_">
	<g id="Layer_2_3_">
		
			<linearGradient id="SVGID_8_" gradientUnits="userSpaceOnUse" x1="144.1211" y1="425.7412" x2="144.1022" y2="390.6759" gradientTransform="matrix(1 0 0 -1 202.3398 780.0391)">
			<stop  offset="0" style="stop-color:#000000;stop-opacity:0.502"/>
			<stop  offset="1" style="stop-color:#000000;stop-opacity:0"/>
		</linearGradient>
		<rect x="272.2" y="303.3" fill="url(#SVGID_8_)" width="148.5" height="140.5"/>
	</g>
	<g id="Layer_1_3_">
		<g>
			<g>
				<path fill="#DE9869" d="M420.7,186.5v168H272.2v-168 M408.2,198H287.5h-6.9v113v0.8h133.3V198H408.2z"/>
				<path fill="#9A452E" d="M408.2,308.9V198h5.8v113.8L408.2,308.9z M280.6,311V198h6.9v110.9l-0.1,0.1L280.6,311z"/>
				<path fill="#946538" d="M287.5,308.9h120.7l5.8,2.9H280.6V311l6.8-2L287.5,308.9z"/>
				
					<linearGradient id="SVGID_9_" gradientUnits="userSpaceOnUse" x1="145.5103" y1="533.0771" x2="145.5103" y2="575.8021" gradientTransform="matrix(1 0 0 -1 202.3398 780.0391)">
					<stop  offset="0" style="stop-color:#C9805B"/>
					<stop  offset="1" style="stop-color:#A0603D"/>
				</linearGradient>
				<path fill="url(#SVGID_9_)" d="M287.5,308.9V198h120.7v110.9H287.5z"/>
			</g>
		</g>
		<g>
			
				<linearGradient id="SVGID_10_" gradientUnits="userSpaceOnUse" x1="145.3101" y1="452.29" x2="145.3101" y2="421.29" gradientTransform="matrix(1 0 0 -1 202.3398 780.0391)">
				<stop  offset="0" style="stop-color:#BB7551"/>
				<stop  offset="1" style="stop-color:#DED1C9"/>
			</linearGradient>
			<rect x="287.8" y="316.5" fill="url(#SVGID_10_)" width="119.7" height="33.5"/>
		</g>
		<g>
			<path fill="#4B2F1F" d="M405.5,348h-117v-30h117V348z"/>
		</g>
	</g>
</g>
</svg>
