<?xml version="1.0" encoding="utf-8"?>
<!-- Generator: Adobe Illustrator 15.0.0, SVG Export Plug-In . SVG Version: 6.00 Build 0)  -->
<!DOCTYPE svg PUBLIC "-//W3C//DTD SVG 1.1//EN" "http://www.w3.org/Graphics/SVG/1.1/DTD/svg11.dtd">
<svg version="1.1" id="Layer_1" xmlns="http://www.w3.org/2000/svg" xmlns:xlink="http://www.w3.org/1999/xlink" x="0px" y="0px"
	 width="700px" height="700px" viewBox="0 0 700 700" enable-background="new 0 0 700 700" xml:space="preserve">
<g>
	<g>
		
			<linearGradient id="SVGID_1_" gradientUnits="userSpaceOnUse" x1="229.4248" y1="191.75" x2="245.4748" y2="191.75" gradientTransform="matrix(1 0 0 -1 4 695)">
			<stop  offset="0" style="stop-color:#E6E6E6"/>
			<stop  offset="0.102" style="stop-color:#FFFFFF"/>
			<stop  offset="0.251" style="stop-color:#E6E6E6"/>
			<stop  offset="0.5333" style="stop-color:#919191"/>
			<stop  offset="0.7882" style="stop-color:#FFFFFF"/>
			<stop  offset="1" style="stop-color:#AFAFAF"/>
		</linearGradient>
		<polygon fill="url(#SVGID_1_)" points="234.4,502 241.5,496.3 248.8,501 246.6,509.8 237.7,510.2 		"/>
	</g>
	<g>
		<g>
			
				<linearGradient id="SVGID_2_" gradientUnits="userSpaceOnUse" x1="233.9624" y1="190.1001" x2="243.1374" y2="190.1001" gradientTransform="matrix(1 0 0 -1 4 695)">
				<stop  offset="0" style="stop-color:#E6E6E6"/>
				<stop  offset="0.102" style="stop-color:#FFFFFF"/>
				<stop  offset="0.251" style="stop-color:#E6E6E6"/>
				<stop  offset="0.5333" style="stop-color:#919191"/>
				<stop  offset="0.7882" style="stop-color:#FFFFFF"/>
				<stop  offset="1" style="stop-color:#AFAFAF"/>
			</linearGradient>
			<path fill="url(#SVGID_2_)" d="M239.3,501.5c0.9-0.8,2-1.3,3.3-1.3c1.3,0,2.4,0.399,3.3,1.3c1,1,1.5,2.1,1.5,3.5
				c0,1.3-0.5,2.3-1.5,3.1c-0.9,1-2,1.5-3.3,1.5c-1.3,0-2.3-0.5-3.3-1.5c-0.9-0.8-1.3-1.8-1.3-3.1S238.4,502.5,239.3,501.5z
				 M240.8,506.3c0,0.601,0.2,1.2,0.7,1.8c0.6,0.5,1.2,0.7,1.9,0.7c0.7,0,1.3-0.2,1.8-0.7c0.6-0.5,0.9-1.1,0.9-1.8
				c0-0.8-0.3-1.5-0.9-2c-0.4-0.6-1-0.8-1.8-0.8c-0.7,0-1.3,0.3-1.9,0.8C241,504.8,240.8,505.5,240.8,506.3z"/>
			<path d="M240.8,506.3c0-0.8,0.2-1.5,0.7-2c0.6-0.6,1.2-0.8,1.9-0.8c0.7,0,1.3,0.3,1.8,0.8c0.6,0.5,0.9,1.2,0.9,2
				c0,0.601-0.3,1.2-0.9,1.8c-0.4,0.5-1,0.7-1.8,0.7c-0.7,0-1.3-0.2-1.9-0.7C241,507.5,240.8,506.9,240.8,506.3z"/>
		</g>
	</g>
	<g>
		<g>
			
				<radialGradient id="SVGID_3_" cx="242.6001" cy="104.25" r="5.3875" gradientTransform="matrix(1 0 0 1 4 397.5)" gradientUnits="userSpaceOnUse">
				<stop  offset="0" style="stop-color:#FFFFFF"/>
				<stop  offset="0.1451" style="stop-color:#E4E4E4"/>
				<stop  offset="0.3451" style="stop-color:#C5C5C5"/>
				<stop  offset="0.6118" style="stop-color:#979797"/>
				<stop  offset="0.8039" style="stop-color:#AEAEAE"/>
				<stop  offset="1" style="stop-color:#595959"/>
			</radialGradient>
			<path fill="url(#SVGID_3_)" d="M250.4,502l-0.1,0.2c-0.2,0.3-0.5,0.7-0.9,1c-0.4,0.399-0.8,0.6-1,0.7
				c-0.4,0.3-0.8,0.399-1.4,0.399c-1,0-1.9-0.399-2.5-1.1c-0.5-0.5-0.8-1.101-0.8-1.8c-0.2-0.2-0.3-0.4-0.3-0.5
				c0-1,0.4-1.801,1.1-2.601c0.7-0.7,1.5-1,2.5-1s1.8,0.4,2.4,1c0.7,0.7,1.1,1.601,1.1,2.601C250.5,501.3,250.5,501.6,250.4,502z"/>
			
				<linearGradient id="SVGID_4_" gradientUnits="userSpaceOnUse" x1="444.6904" y1="447.917" x2="449.4362" y2="447.917" gradientTransform="matrix(0.8112 0.5847 0.5538 -0.8335 -365.5927 615.6341)">
				<stop  offset="0" style="stop-color:#E6E6E6"/>
				<stop  offset="0.102" style="stop-color:#FFFFFF"/>
				<stop  offset="0.251" style="stop-color:#E6E6E6"/>
				<stop  offset="0.5333" style="stop-color:#919191"/>
				<stop  offset="0.7882" style="stop-color:#FFFFFF"/>
				<stop  offset="1" style="stop-color:#AFAFAF"/>
			</linearGradient>
			<path fill="url(#SVGID_4_)" d="M243.6,501.5c0,0.6,0.3,1.2,0.8,1.8c0.7,0.7,1.5,1.101,2.5,1.101c0.5,0,1-0.101,1.4-0.4l-3.9,3.5
				c-1.6,0.4-2.5-0.2-2.5-1.9L243.6,501.5z M250.4,502v0.2h-0.1L250.4,502z"/>
		</g>
	</g>
</g>
</svg>
