<?xml version="1.0" encoding="utf-8"?>
<!-- Generator: Adobe Illustrator 16.0.0, SVG Export Plug-In . SVG Version: 6.00 Build 0)  -->
<!DOCTYPE svg PUBLIC "-//W3C//DTD SVG 1.1//EN" "http://www.w3.org/Graphics/SVG/1.1/DTD/svg11.dtd">
<svg version="1.1" id="Layer_1" xmlns="http://www.w3.org/2000/svg" xmlns:xlink="http://www.w3.org/1999/xlink" x="0px" y="0px"
	 width="128.3px" height="44px" viewBox="0 0 128.3 44" enable-background="new 0 0 128.3 44" xml:space="preserve">
<g>
	<g>
		<linearGradient id="SVGID_1_" gradientUnits="userSpaceOnUse" x1="94.0225" y1="11.4873" x2="94.0225" y2="32.3123">
			<stop  offset="0" style="stop-color:#758793"/>
			<stop  offset="8.627451e-002" style="stop-color:#A8C1D5"/>
			<stop  offset="0.2431" style="stop-color:#FFFFFF"/>
			<stop  offset="0.3686" style="stop-color:#9FB1BD"/>
			<stop  offset="0.7529" style="stop-color:#363741"/>
			<stop  offset="1" style="stop-color:#8A7D89"/>
		</linearGradient>
		<path fill-rule="evenodd" clip-rule="evenodd" fill="url(#SVGID_1_)" d="M126.6,12.6c0,0.2,0.1,0.4,0.1,0.7c0.4,1.1,0.7,3.1,0.9,6
			c0.2,2.8,0.1,5.7-0.4,8.5c-0.1,0.9-0.3,1.8-0.4,2.6c-0.3,1.2-0.9,1.9-2,1.9H60.3V11.5h64.9C125.9,11.5,126.3,11.9,126.6,12.6z"/>
	</g>
	<g>
		<g>
			<g>
				<linearGradient id="SVGID_2_" gradientUnits="userSpaceOnUse" x1="94.4995" y1="0.7251" x2="94.4995" y2="43.4751">
					<stop  offset="0" style="stop-color:#758793"/>
					<stop  offset="8.627451e-002" style="stop-color:#A8C1D5"/>
					<stop  offset="0.1961" style="stop-color:#FFFFFF"/>
					<stop  offset="0.3843" style="stop-color:#9FB1BD"/>
					<stop  offset="0.7562" style="stop-color:#4E505C"/>
					<stop  offset="1" style="stop-color:#A49EA5"/>
				</linearGradient>
				<path fill-rule="evenodd" clip-rule="evenodd" fill="url(#SVGID_2_)" d="M70.4,43.5c0.1,0,0.1-0.1,0.2-0.1
					c1.8-14.5,1.8-28.5,0-42.1c0-0.1,0-0.3-0.1-0.5v0h0.1V0.6c0,0.1,0,0.1,0,0.1h0H113c1.7,0.4,2.8,1.3,3.1,2.8
					c0.6,2.3,1.2,5.5,1.8,9.6c0.9,6.4,0.9,12.8,0,19.1v0.1l-0.4,2.6c-0.5,2.6-1.1,4.9-1.9,6.9c-0.7,1.1-1.9,1.7-3.5,1.7H70.6H70.4z"
					/>
				<linearGradient id="SVGID_3_" gradientUnits="userSpaceOnUse" x1="5.9351" y1="3.0176" x2="9.3451" y2="39.194">
					<stop  offset="0" style="stop-color:#646369"/>
					<stop  offset="8.627451e-002" style="stop-color:#C0C7CD"/>
					<stop  offset="0.1608" style="stop-color:#9A9EA7"/>
					<stop  offset="0.3647" style="stop-color:#FCFFFF"/>
					<stop  offset="0.4745" style="stop-color:#FEFFFF"/>
					<stop  offset="0.6431" style="stop-color:#A3ACB5"/>
					<stop  offset="1" style="stop-color:#393C3C"/>
				</linearGradient>
				<path fill-rule="evenodd" clip-rule="evenodd" fill="url(#SVGID_3_)" d="M14.1,2.3c1.1,14.6,1.1,27.6,0,39L0.9,37
					C1.8,26.2,1.7,15.7,0.7,5.5c0-0.1,0-0.1,0-0.2c2.7-0.6,6.7-1.5,12-2.7C13.1,2.5,13.6,2.4,14.1,2.3z"/>
				<linearGradient id="SVGID_4_" gradientUnits="userSpaceOnUse" x1="41.291" y1="2.25" x2="41.291" y2="41.5">
					<stop  offset="0" style="stop-color:#646369"/>
					<stop  offset="8.627451e-002" style="stop-color:#C0C7CD"/>
					<stop  offset="0.1608" style="stop-color:#9A9EA7"/>
					<stop  offset="0.3647" style="stop-color:#FCFFFF"/>
					<stop  offset="0.4745" style="stop-color:#FEFFFF"/>
					<stop  offset="0.6431" style="stop-color:#A3ACB5"/>
					<stop  offset="1" style="stop-color:#37383A"/>
				</linearGradient>
				<path fill-rule="evenodd" clip-rule="evenodd" fill="url(#SVGID_4_)" d="M67.2,2.3h0.2v0.6c0.6,5,0.9,10.1,1.1,15.1
					c0.2,5.5,0,11.1-0.5,16.8c-0.1,2.2-0.3,4.4-0.6,6.6H14.1v-0.1c1.1-11.5,1.1-24.5,0-39H67.2z"/>
				<linearGradient id="SVGID_5_" gradientUnits="userSpaceOnUse" x1="69.3555" y1="-2.0864" x2="69.5994" y2="46.0883">
					<stop  offset="0" style="stop-color:#758793"/>
					<stop  offset="0.5529" style="stop-color:#363741"/>
					<stop  offset="1" style="stop-color:#8A7D89"/>
				</linearGradient>
				<path fill-rule="evenodd" clip-rule="evenodd" fill="url(#SVGID_5_)" d="M70.5,0.8c0,0.2,0.1,0.4,0.1,0.5
					c1.8,13.6,1.8,27.6,0,42.1c0,0-0.1,0-0.2,0.1l-3.3-2l0-0.1l0.2,0.1v-0.1c0.3-2.2,0.5-4.4,0.6-6.6c0.5-5.7,0.7-11.3,0.5-16.8
					c-0.2-5-0.5-10.1-1.1-15.1V2.3h-0.2L70.5,0.8z"/>
			</g>
		</g>
		<g>
			<linearGradient id="SVGID_6_" gradientUnits="userSpaceOnUse" x1="71.8623" y1="6.2373" x2="71.8623" y2="38.5623">
				<stop  offset="0" style="stop-color:#FFFFFF;stop-opacity:0"/>
				<stop  offset="0.4863" style="stop-color:#FFFFFF"/>
				<stop  offset="1" style="stop-color:#FFFFFF;stop-opacity:0"/>
			</linearGradient>
			<path fill-rule="evenodd" clip-rule="evenodd" fill="url(#SVGID_6_)" d="M71.1,5.1L71.3,5c1.9,11.8,2.1,23.5,0.7,35l-1.3,0
				C72.2,28.4,72.3,16.8,71.1,5.1z"/>
		</g>
		<g>
			<linearGradient id="SVGID_7_" gradientUnits="userSpaceOnUse" x1="-19.75" y1="21.8252" x2="22.2" y2="21.8252">
				<stop  offset="0" style="stop-color:#000000"/>
				<stop  offset="1" style="stop-color:#000000;stop-opacity:0"/>
			</linearGradient>
			<path fill-rule="evenodd" clip-rule="evenodd" fill="url(#SVGID_7_)" d="M0.7,5.5c0-0.1,0-0.1,0-0.2c2.7-0.6,6.7-1.5,12-2.7
				c0.5-0.1,0.9-0.3,1.4-0.4h0.3c0.7,12.9,0.7,26,0,39.1h-0.2c-6.5-2-11-3.5-13.3-4.5C1.7,26.4,1.7,15.9,0.7,5.5z"/>
		</g>
	</g>
</g>
</svg>
