<?xml version="1.0" encoding="UTF-8" standalone="no"?>
<!-- Generator: Adobe Illustrator 16.0.0, SVG Export Plug-In . SVG Version: 6.00 Build 0)  -->
<!DOCTYPE svg  PUBLIC '-//W3C//DTD SVG 1.1//EN'  'http://www.w3.org/Graphics/SVG/1.1/DTD/svg11.dtd'>
<svg id="Layer_1" xmlns="http://www.w3.org/2000/svg" xml:space="preserve" height="700px" viewBox="0 0 700 700" width="700px" version="1.1" y="0px" x="0px" xmlns:xlink="http://www.w3.org/1999/xlink" enable-background="new 0 0 700 700">
			<linearGradient id="SVGID_1_" y2="363" gradientUnits="userSpaceOnUse" x2="-367.74" gradientTransform="matrix(.0000026347 -1 1 -0.001 .00019534 .00028827)" y1="363" x1="-747.29">
			<stop stop-color="#D5B487" offset="0"/>
			<stop stop-color="#71502F" offset="1"/>
		</linearGradient>
		<rect fill-rule="evenodd" height="429" width="758" clip-rule="evenodd" y="370" x="-16" fill="url(#SVGID_1_)"/>
		<g clip-rule="evenodd" fill-rule="evenodd">
			<linearGradient id="SVGID_2_" y2="-29.112" gradientUnits="userSpaceOnUse" x2="363" y1="418.21" x1="363">
				<stop stop-color="#777" offset="0"/>
				<stop stop-color="#E4E4E4" offset="1"/>
			</linearGradient>
			<rect height="374.3" width="758" y="-32" x="-16" fill="url(#SVGID_2_)"/>
			<rect height="3.4" width="758" y="342.3" x="-16" fill="#8C6C39"/>
			<linearGradient id="SVGID_3_" y2="357.8" gradientUnits="userSpaceOnUse" x2="742" y1="357.8" x1="-16">
				<stop stop-color="#5D381D" offset="0"/>
				<stop stop-color="#5A3D1D" offset=".2353"/>
				<stop stop-color="#583515" offset="1"/>
			</linearGradient>
			<rect height="24.4" width="758" y="345.6" x="-16" fill="url(#SVGID_3_)"/>
		</g>
		<path fill-opacity=".5098" fill="#fff" clip-rule="evenodd" d="m744 345c0.1 0 0.3 0 0.3 0.1 0.1 0.1 0.2 0.1 0.2 0.3s0 0.2-0.2 0.3c-0.1 0.1-0.2 0.1-0.3 0.1h-758c-0.1 0-0.3 0-0.4-0.1s-0.1-0.2-0.1-0.3 0-0.2 0.1-0.3c0.1-0.1 0.2-0.1 0.4-0.1h758z" fill-rule="evenodd"/>
	<path fill-opacity=".251" clip-rule="evenodd" d="m662.5 646.3l0.3 1.5c0 0.5-0.1 1.1-0.2 1.6v11.3c-0.3 1.3-1.1 2.4-2.3 3.5-1.9 1.8-4.6 2.8-8 2.8h-0.5-1.9-10c-0.4 2.2-2.4 3.3-6.1 3.2h-417.7c-3.3-0.3-5.3-1.4-5.9-3.2h-18.8-1.9-0.5c-3.4-0.1-6.1-1-8.1-2.8-1.2-1-2-2.2-2.3-3.5v-11.3c-0.1-0.5-0.2-1.1-0.2-1.6s0.1-1 0.3-1.5c0.7-2.4 2.3-4.5 4.9-6.3h27.7v-21.5c2.3 0.6 4.3 1.6 6 2.9 0.4 0.3 0.7 0.6 1 0.9l60.4-165.3-0.6 3.4 1.7-5.5h299.1l1.6 5.5h1.2l47.3 148h-0.3l0.6 0.9 3.5 12 4-2.2c1-0.4 2-0.6 3.1-0.8l4.2-0.4h0.2 0.4v26h17.3c-0.1 0-0.1 0.1-0.2 0.1 0.2 0.8 0.5 1.6 0.7 2.3z" fill-rule="evenodd"/>
	<path clip-rule="evenodd" d="m652.2 656.3h-0.5-1.9-10c-0.4 2.2-2.4 3.3-6.1 3.2h-417.7c-3.3-0.3-5.3-1.4-5.9-3.2h-14.8-1.9-0.5c-3.4-0.1-6.1-1-8.1-2.8-1.2-1-2-2.2-2.3-3.5v-4h479.8v4c-0.3 1.3-1.1 2.4-2.3 3.5-1.7 1.7-4.4 2.7-7.8 2.8z" fill-rule="evenodd"/>
		<g clip-rule="evenodd" fill-rule="evenodd">
				<linearGradient id="SVGID_4_" y2="-634.4" gradientUnits="userSpaceOnUse" x2="-187.05" gradientTransform="scale(-1)" y1="-634.4" x1="-240.85">
				<stop stop-color="#2D3031" offset="0"/>
				<stop stop-color="#2F3233" offset=".094118"/>
				<stop stop-color="#798287" offset="1"/>
			</linearGradient>
			<path fill="url(#SVGID_4_)" d="m236.4 643.7h-44c-2.9-0.2-5.2-1-7-2.5-0.1-0.1-0.2-0.2-0.4-0.3-1.2-1-2-2.2-2.3-3.4-0.1-0.5-0.1-1-0.1-1.5s0.1-1 0.3-1.5c0.7-2.7 2.6-4.9 5.7-6.8 2.8-1.7 5.9-2.6 9.3-2.7h38.5v18.7z"/>
				<linearGradient id="SVGID_5_" y2="-646.2" gradientUnits="userSpaceOnUse" x2="-176.38" gradientTransform="scale(-1)" y1="-646.2" x1="-230.02">
				<stop offset="0"/>
				<stop stop-color="#1D1D1B" offset=".4196"/>
				<stop stop-color="#54544C" offset=".5255"/>
				<stop stop-color="#5B5B53" offset=".698"/>
				<stop stop-color="#838178" offset=".7843"/>
				<stop stop-color="#5B5A53" offset=".8471"/>
				<stop stop-color="#090808" offset=".9412"/>
			</linearGradient>
			<path fill="url(#SVGID_5_)" d="m236.4 643.7v11.1h-40.9-1.9-0.5c-3.4-0.1-6.1-1-8.1-2.8-1.2-1.1-2-2.2-2.3-3.4v-11.1c0.3 1.2 1.1 2.4 2.3 3.4 0.1 0.1 0.3 0.2 0.4 0.3 1.7 1.4 4.1 2.3 7 2.5h44z"/>
		</g>
			<radialGradient id="SVGID_6_" gradientUnits="userSpaceOnUse" cy="643.15" cx="188.35" gradientTransform="matrix(1 0 0 1.7917 0 -509.16)" r="2.1">
			<stop stop-color="#fff" offset="0"/>
			<stop stop-color="#FEFEFE" stop-opacity=".1922" offset=".4078"/>
			<stop stop-color="#FEFEFE" stop-opacity="0" offset=".8"/>
			<stop stop-color="#FAFAFA" stop-opacity="0" offset="1"/>
		</radialGradient>
		<path fill="url(#SVGID_6_)" clip-rule="evenodd" d="m189.8 640.8c0.4 0.7 0.7 1.6 0.7 2.6s-0.2 1.8-0.7 2.5c-0.4 0.7-0.9 1.1-1.4 1.1s-1-0.4-1.5-1.1c-0.4-0.7-0.6-1.5-0.6-2.5s0.2-1.8 0.6-2.6c0.4-0.7 0.9-1 1.5-1s1 0.4 1.4 1z" fill-rule="evenodd"/>
		<g clip-rule="evenodd" fill-rule="evenodd">
			<linearGradient id="SVGID_7_" y2="646.2" gradientUnits="userSpaceOnUse" x2="669.03" y1="646.2" x1="615.38">
				<stop offset="0"/>
				<stop stop-color="#1D1D1B" offset=".4196"/>
				<stop stop-color="#54544C" offset=".5255"/>
				<stop stop-color="#5B5B53" offset=".698"/>
				<stop stop-color="#838178" offset=".7843"/>
				<stop stop-color="#5B5A53" offset=".8471"/>
				<stop stop-color="#090808" offset=".9412"/>
			</linearGradient>
			<path fill="url(#SVGID_7_)" d="m609 643.7h44c2.9-0.2 5.2-1 7-2.5l0.3-0.3c1.2-1 2-2.2 2.3-3.4v11.1c-0.3 1.2-1.1 2.3-2.3 3.4-2 1.8-4.7 2.7-8.1 2.8h-0.5-1.8-40.9v-11.1z"/>
			<linearGradient id="SVGID_8_" y2="634.4" gradientUnits="userSpaceOnUse" x2="658.35" y1="634.4" x1="604.55">
				<stop stop-color="#2D3031" offset="0"/>
				<stop stop-color="#2F3233" offset=".094118"/>
				<stop stop-color="#798287" offset="1"/>
			</linearGradient>
			<path fill="url(#SVGID_8_)" d="m662.7 637.5c-0.3 1.2-1.1 2.4-2.3 3.4-0.1 0.1-0.3 0.2-0.3 0.3-1.7 1.4-4 2.3-7 2.5h-44.1v-18.6h38.5c3.4 0.1 6.5 1 9.3 2.7 3.1 1.8 5 4.1 5.7 6.8l0.3 1.5c0 0.4 0 0.9-0.1 1.4z"/>
		</g>
			<radialGradient id="SVGID_9_" gradientUnits="userSpaceOnUse" cy="643.15" cx="657.15" gradientTransform="matrix(1 0 0 1.7917 0 -509.16)" r="2.1">
			<stop stop-color="#fff" offset="0"/>
			<stop stop-color="#FEFEFE" stop-opacity=".1922" offset=".4078"/>
			<stop stop-color="#FEFEFE" stop-opacity="0" offset=".8"/>
			<stop stop-color="#FAFAFA" stop-opacity="0" offset="1"/>
		</radialGradient>
		<path fill="url(#SVGID_9_)" clip-rule="evenodd" d="m659.3 643.4c0 1-0.2 1.8-0.7 2.5-0.4 0.7-0.9 1.1-1.4 1.1s-1-0.4-1.5-1.1c-0.4-0.7-0.6-1.5-0.6-2.5s0.2-1.8 0.6-2.6c0.4-0.7 0.9-1 1.5-1 0.5 0 1 0.4 1.4 1 0.4 0.8 0.7 1.6 0.7 2.6z" fill-rule="evenodd"/>
		<radialGradient id="SVGID_10_" gradientUnits="userSpaceOnUse" cy="633.8" cx="645.8" gradientTransform="matrix(1 0 0 .3349 0 421.57)" r="19.112">
		<stop offset="0"/>
		<stop offset=".4863"/>
		<stop stop-opacity="0" offset="1"/>
	</radialGradient>
	<path fill="url(#SVGID_10_)" clip-rule="evenodd" d="m655.2 638.3c-3.4 1.5-7.6 2.3-12.4 2.5h-0.4-1c-5.4 0-10-0.8-13.9-2.5-3.8-1.6-5.7-3.5-5.7-5.8s1.9-4.2 5.7-5.8c3.8-1.6 8.4-2.3 13.9-2.3h0.5 0.9c4.8 0.1 9 0.8 12.4 2.3 3.8 1.6 5.8 3.5 5.8 5.8s-2 4.2-5.8 5.8z" fill-rule="evenodd"/>
		<radialGradient id="SVGID_11_" gradientUnits="userSpaceOnUse" cy="633.8" cx="205.2" gradientTransform="matrix(1 0 0 .3349 0 421.57)" r="19.112">
		<stop offset="0"/>
		<stop offset=".4863"/>
		<stop stop-opacity="0" offset="1"/>
	</radialGradient>
	<path fill="url(#SVGID_11_)" clip-rule="evenodd" d="m214.6 638.3c-3.5 1.5-7.6 2.3-12.4 2.5h-0.5-0.9c-5.4 0-10-0.8-13.9-2.5-3.8-1.6-5.8-3.5-5.8-5.8s1.9-4.2 5.8-5.8c3.8-1.6 8.4-2.3 13.9-2.3h0.4 1c4.8 0.1 8.9 0.8 12.4 2.3 3.8 1.6 5.8 3.5 5.8 5.8s-1.9 4.2-5.8 5.8z" fill-rule="evenodd"/>
		<g clip-rule="evenodd" fill-rule="evenodd">
				<linearGradient id="SVGID_12_" y2="472.21" gradientUnits="userSpaceOnUse" x2="884.54" gradientTransform="matrix(.9783 .207 -.4243 .9324 -.00010401 -.000091165)" y1="472.21" x1="846.62">
				<stop stop-color="#DCE5F6" offset="0"/>
				<stop stop-color="#C5D0E6" offset="1"/>
			</linearGradient>
			<path fill="url(#SVGID_12_)" d="m666 622.8v0.4c0 0.1-0.1 0.2-0.1 0.3v0.1s0 0.1 0 0.1v0.1c-0.5 1.8-1.6 3.4-3.3 4.9-2.2 1.9-5 3-8.4 3.5-1.2 0.2-2.5 0.3-3.8 0.3-5.1 0-9.8-1.3-14-3.8s-6.8-5.5-7.6-9.1c-0.1-0.6-0.2-1.1-0.3-1.6v-1.2c0-0.3 0.1-0.5 0.2-0.8 0.3-2.1 1.5-3.9 3.4-5.5 3-2.5 7.1-3.8 12.3-3.8 5.1 0 9.8 1.3 14 3.8 3.6 2.1 5.9 4.6 7.1 7.5 0.2 0.5 0.3 1 0.5 1.6 0.1 0.5 0.2 0.9 0.3 1.4v0.3 0.8 0.3c-0.3 0.1-0.3 0.3-0.3 0.4z"/>
			<linearGradient id="SVGID_13_" y2="627.05" gradientUnits="userSpaceOnUse" x2="666" y1="627.05" x1="628.35">
				<stop offset="0"/>
				<stop offset=".2353"/>
				<stop offset=".4275"/>
				<stop stop-color="#373737" offset=".502"/>
				<stop offset=".5804"/>
				<stop stop-color="#605142" offset=".7216"/>
				<stop offset=".8353"/>
				<stop offset="1"/>
			</linearGradient>
			<path fill="url(#SVGID_13_)" d="m628.3 618c0 0.5 0.1 1.1 0.3 1.6 0.8 3.5 3.4 6.6 7.6 9.1s8.9 3.8 14 3.8c1.3 0 2.6-0.1 3.8-0.3 3.4-0.5 6.2-1.7 8.4-3.5 1.8-1.4 2.9-3.1 3.3-4.9v-0.1-0.1s0-0.1 0-0.1c0-0.1 0-0.2 0.1-0.3v-0.4 0.2c0 0.3-0.1 0.8-0.2 1.7 0-0.1 0-0.1 0.1-0.2v-0.3 0.2c0 0.4-0.1 1.2-0.3 2.5-0.5 1.5-1.4 3-2.8 4.3-2.7 2.5-5.7 4-9 4.5-1.3 0.2-2.6 0.3-4 0.3-5.1 0-9.8-1.3-14-3.8s-6.7-5.5-7.5-9c0-0.1-0.1-0.3-0.1-0.3v-4.9z"/>
		</g>
		<g clip-rule="evenodd" fill-rule="evenodd">
				<linearGradient id="SVGID_14_" y2="-670.18" gradientUnits="userSpaceOnUse" x2="603.43" gradientTransform="matrix(-.037852 .9993 -1 -.017846 .00021205 -.000070777)" y1="-670.18" x1="590.22">
				<stop stop-color="#fff" offset="0"/>
				<stop stop-color="#FCFDFE" stop-opacity="0" offset="1"/>
			</linearGradient>
			<path fill="url(#SVGID_14_)" d="m665.3 618c0.2 0.5 0.3 1 0.5 1.6 0.1 0.5 0.2 0.9 0.3 1.4v0.2 0.7 0.4l-0.1 0.1c-0.1-0.3-0.1-0.6-0.2-0.9-0.2-0.6-0.3-1.1-0.5-1.6-1.2-2.9-3.5-5.4-7.1-7.5-4.2-2.5-8.9-3.8-14-3.8-2 0-3.9 0.2-5.6 0.6-2.6 0.6-4.8 1.7-6.7 3.2-1.9 1.6-3.1 3.4-3.4 5.5-0.1-0.4-0.1-0.7-0.2-1.1 0-0.3 0.1-0.5 0.2-0.8 0.3-2.1 1.5-3.9 3.4-5.5 1.9-1.5 4.1-2.5 6.7-3.2 1.7-0.4 3.6-0.6 5.6-0.6 5.1 0 9.8 1.3 14 3.8 3.5 2.1 5.9 4.6 7.1 7.5z"/>
				<radialGradient id="SVGID_15_" gradientUnits="userSpaceOnUse" cy="630.5" cx="648.55" gradientTransform="matrix(1 0 0 .6846 0 198.87)" r="15.812">
				<stop stop-color="#8D8FF3" offset="0"/>
				<stop stop-color="#999BF3" stop-opacity="0" offset="1"/>
			</radialGradient>
			<path fill="url(#SVGID_15_)" d="m628.4 618.5c0.1 0.4 0.1 0.8 0.2 1.1 0.8 3.5 3.4 6.6 7.6 9.1 0.8 0.5 1.6 0.9 2.4 1.3 3.5 1.7 7.4 2.5 11.6 2.5 1.3 0 2.6-0.1 3.8-0.3 3.4-0.5 6.2-1.7 8.4-3.5 1.9-1.5 3-3.2 3.4-5.1 0 0.1 0.1 0.1 0.1 0.2v0.4c-0.5 1.9-1.6 3.6-3.5 5.1-2.2 1.8-5 3-8.4 3.5-1.2 0.2-2.5 0.3-3.8 0.3-4.2 0-8.1-0.8-11.6-2.5-0.8-0.4-1.6-0.8-2.4-1.3-4.2-2.5-6.8-5.5-7.6-9-0.1-0.4-0.1-0.8-0.3-1.2v-0.3s0.1-0.3 0.1-0.3z"/>
				<linearGradient id="SVGID_16_" y2="867.45" gradientUnits="userSpaceOnUse" x2="-449.22" gradientTransform="matrix(.4861 -.8739 .9997 .2599 .00033659 -.00013170)" y1="867.45" x1="-464.24">
				<stop stop-color="#fff" offset="0"/>
				<stop stop-color="#FCFDFE" stop-opacity="0" offset="1"/>
			</linearGradient>
			<path fill="url(#SVGID_16_)" d="m665.8 623.5c-0.4 1.9-1.5 3.6-3.4 5.1-2.2 1.9-5 3-8.4 3.5-1.2 0.2-2.5 0.3-3.8 0.3-4.2 0-8.1-0.8-11.6-2.5-0.8-0.4-1.6-0.8-2.4-1.3-4.2-2.5-6.8-5.5-7.6-9.1-0.1-0.4-0.1-0.8-0.2-1.1 0-0.2 0.1-0.3 0.1-0.5 0 0.1 0.1 0.3 0.1 0.5 0.8 3.5 3.4 6.5 7.6 9 0.8 0.5 1.6 0.9 2.4 1.3 3.5 1.7 7.4 2.5 11.6 2.5 1.3 0 2.6-0.1 3.8-0.3 3.4-0.5 6.2-1.7 8.4-3.5 1.8-1.5 3-3.1 3.5-4.9v0.2c0 0.1-0.1 0.3-0.1 0.4 0.1 0.2 0 0.3 0 0.4z"/>
		</g>
			<linearGradient id="SVGID_17_" y2="-22.394" gradientUnits="userSpaceOnUse" x2="897.41" gradientTransform="matrix(.7008 .7134 -.9662 .4434 .00021201 -.00037125)" y1="-22.394" x1="867.76">
			<stop stop-color="#fff" stop-opacity=".6431" offset="0"/>
			<stop stop-color="#F2F2F2" stop-opacity="0" offset="1"/>
		</linearGradient>
		<path fill="url(#SVGID_17_)" clip-rule="evenodd" d="m650.2 631.3c-5.1 0-9.8-1.3-14-3.8-2.1-1.3-3.8-2.6-5.1-4.1 2.9-1.9 6.6-2.9 11.1-2.9 5.1 0 9.8 1.3 14 3.8 2.1 1.3 3.8 2.7 5 4.2-2 1.3-4.4 2.2-7.2 2.6-1.2 0.1-2.5 0.2-3.8 0.2z" fill-rule="evenodd"/>
			<radialGradient id="SVGID_18_" gradientUnits="userSpaceOnUse" cy="-499.04" cx="784.86" gradientTransform="matrix(.222 .975 -4.8945 1.3515 -1961 541.5)" r="1.2948">
			<stop stop-color="#fff" offset="0"/>
			<stop stop-color="#FEFEFE" stop-opacity=".1922" offset=".4078"/>
			<stop stop-color="#FEFEFE" stop-opacity="0" offset=".8"/>
			<stop stop-color="#FAFAFA" stop-opacity="0" offset="1"/>
		</radialGradient>
		<path fill="url(#SVGID_18_)" clip-rule="evenodd" d="m655.7 633.7c-1.7 0.5-3.1 0.7-4.3 0.8-1.3 0.1-2 0-2.1-0.3s0.5-0.8 1.7-1.5c1.1-0.5 2.5-1 4.1-1.4 1.6-0.5 3-0.8 4.3-0.9 1.2-0.1 1.9 0.1 2 0.4s-0.5 0.8-1.6 1.3c-1.2 0.6-2.5 1.1-4.1 1.6z" fill-rule="evenodd"/>
		<radialGradient id="SVGID_19_" gradientUnits="userSpaceOnUse" cy="619.1" cx="222.65" gradientTransform="matrix(1 0 0 .6566 0 212.63)" r="33.775">
		<stop stop-opacity=".035294" offset="0"/>
		<stop stop-opacity=".062745" offset=".6157"/>
		<stop stop-opacity=".5137" offset="1"/>
	</radialGradient>
	<path fill="url(#SVGID_19_)" clip-rule="evenodd" d="m223.7 617.3c0 0.5-0.1 1-0.3 1.6-0.8 3.4-3.4 6.3-7.6 8.7s-8.9 3.6-14 3.6c-1.4 0-2.6-0.1-3.9-0.2-3.4-0.5-6.2-1.6-8.4-3.4-1.2-1-2.1-2-2.8-3.1-0.3-0.5-0.5-1-0.6-1.5v-0.2-0.1-0.1c0-0.1 0-0.2-0.1-0.3v-0.3-0.4c0-0.1 0-0.2-0.1-0.3 0-0.3 0-0.5 0.1-0.8v-0.2c0-0.4 0.1-0.8 0.3-1.3 0.1-0.5 0.3-1 0.5-1.5 1.1-2.7 3.5-5.1 7-7.1 4.2-2.4 8.9-3.6 14-3.6 5.2 0 9.3 1.2 12.3 3.6 2 1.5 3.1 3.3 3.5 5.3 0 0.2 0.1 0.5 0.1 0.8v0.8z" fill-rule="evenodd"/>
		<g clip-rule="evenodd" fill-rule="evenodd">
				<linearGradient id="SVGID_20_" y2="-647.23" gradientUnits="userSpaceOnUse" x2="100.89" gradientTransform="matrix(-.98 .1988 -.4417 -.9308 .00010967 .00013933)" y1="-647.23" x1="63.032">
				<stop stop-color="#DCE5F6" offset="0"/>
				<stop stop-color="#C5D0E6" offset="1"/>
			</linearGradient>
			<path fill="url(#SVGID_20_)" d="m223.7 617.3c0 0.5-0.1 1-0.3 1.6-0.8 3.4-3.4 6.3-7.6 8.7s-8.9 3.6-14 3.6c-1.4 0-2.6-0.1-3.9-0.2-3.4-0.5-6.2-1.6-8.4-3.4-1.2-1-2.1-2-2.8-3.1-0.3-0.5-0.5-1-0.6-1.5v-0.2-0.1-0.1c0-0.1 0-0.2-0.1-0.3v-0.3-0.4c0-0.1 0-0.2-0.1-0.3 0-0.3 0-0.5 0.1-0.8v-0.2c0-0.4 0.1-0.8 0.3-1.3 0.1-0.5 0.3-1 0.5-1.5 1.1-2.7 3.5-5.1 7-7.1 4.2-2.4 8.9-3.6 14-3.6 5.2 0 9.3 1.2 12.3 3.6 2 1.5 3.1 3.3 3.5 5.3 0 0.2 0.1 0.5 0.1 0.8v0.8z"/>
				<linearGradient id="SVGID_21_" y2="643.41" gradientUnits="userSpaceOnUse" x2="93.289" gradientTransform="matrix(.996 -.089624 .2034 .9857 -.000050053 .000025362)" y1="643.41" x1="56.19">
				<stop offset="0"/>
				<stop offset=".2353"/>
				<stop offset=".4275"/>
				<stop stop-color="#373737" offset=".502"/>
				<stop offset=".5804"/>
				<stop stop-color="#605142" offset=".7216"/>
				<stop offset=".8353"/>
				<stop offset="1"/>
			</linearGradient>
			<path fill="url(#SVGID_21_)" d="m186.4 624.5l0.5-0.1c0.6 1.1 1.5 2.2 2.8 3.1 2.2 1.8 5 2.9 8.4 3.4 1.2 0.1 2.5 0.2 3.9 0.2 5.1 0 9.8-1.2 14-3.6s6.7-5.3 7.6-8.7h0.3v3.2c0 0.1-0.1 0.3-0.1 0.4-0.9 3.4-3.4 6.3-7.6 8.6-4.2 2.4-8.9 3.7-14 3.7-1.4 0-2.7-0.1-4-0.3-3.3-0.5-6.3-1.9-8.9-4.4-1.2-1.1-2.1-2.3-2.6-3.6l-0.3-1.9z"/>
			<path d="m186.1 622v0.3c0 0.1 0.1 0.2 0.1 0.3v0.1 0.1 0.2c0.1 0.5 0.3 1 0.6 1.5l-0.5 0.1c-0.2-1.3-0.3-2.1-0.3-2.5l0.1-0.1zm37.6-4.7v1.6h-0.3c0.2-0.6 0.3-1.1 0.3-1.6z"/>
		</g>
		<g clip-rule="evenodd" fill-rule="evenodd">
				<radialGradient id="SVGID_22_" gradientUnits="userSpaceOnUse" cy="-629.3" cx="-203.5" gradientTransform="matrix(-1 0 0 .6561 0 1042.2)" r="15.812">
				<stop stop-color="#8D8FF3" offset="0"/>
				<stop stop-color="#999BF3" stop-opacity="0" offset="1"/>
			</radialGradient>
			<path fill="url(#SVGID_22_)" d="m186.3 622.7c0.4 1.8 1.6 3.4 3.4 4.9 2.2 1.8 5 2.9 8.4 3.4 1.2 0.1 2.5 0.2 3.9 0.2 4.2 0 8-0.8 11.6-2.4 0.8-0.4 1.6-0.8 2.4-1.3 4.2-2.4 6.7-5.3 7.6-8.7 0.1-0.4 0.2-0.8 0.2-1.1 0 0.1 0.1 0.3 0.1 0.3v0.2l-0.3 1.2c-0.8 3.4-3.4 6.3-7.6 8.7-0.8 0.5-1.6 0.9-2.4 1.3-3.6 1.6-7.4 2.4-11.6 2.4-1.4 0-2.6-0.1-3.9-0.2-3.4-0.5-6.2-1.6-8.4-3.4-1.8-1.5-3-3.1-3.5-4.9v-0.4c0-0.1 0-0.2 0.1-0.2z"/>
				<linearGradient id="SVGID_23_" y2="-134.19" gradientUnits="userSpaceOnUse" x2="-674.76" gradientTransform="matrix(-.5021 -.8648 1.01 -.252 .000038743 -.00091666)" y1="-134.19" x1="-689.3">
				<stop stop-color="#fff" offset="0"/>
				<stop stop-color="#FCFDFE" stop-opacity="0" offset="1"/>
			</linearGradient>
			<path fill="url(#SVGID_23_)" d="m186.3 622.7c0-0.1-0.1-0.3-0.1-0.4v-0.4-0.2c0.5 1.7 1.7 3.3 3.5 4.8 2.2 1.8 5 2.9 8.4 3.3 1.2 0.2 2.5 0.3 3.9 0.3 4.2 0 8-0.8 11.6-2.4l2.4-1.2c4.2-2.4 6.7-5.3 7.6-8.7 0-0.2 0.1-0.3 0.1-0.4h0.1v0.4c0 0.4-0.1 0.8-0.2 1.1-0.8 3.4-3.4 6.3-7.6 8.7-0.8 0.5-1.6 0.9-2.4 1.3-3.6 1.6-7.4 2.4-11.6 2.4-1.4 0-2.6-0.1-3.9-0.2-3.4-0.5-6.2-1.6-8.4-3.4-1.9-1.6-3-3.2-3.4-5z"/>
				<linearGradient id="SVGID_24_" y2="-180.28" gradientUnits="userSpaceOnUse" x2="617.97" gradientTransform="matrix(.039495 .9992 -1.0001 .017186 .00038441 -.00014850)" y1="-180.28" x1="605.31">
				<stop stop-color="#fff" offset="0"/>
				<stop stop-color="#FCFDFE" stop-opacity="0" offset="1"/>
			</linearGradient>
			<path fill="url(#SVGID_24_)" d="m223.6 615.4c0 0.2 0.1 0.5 0.1 0.8s-0.1 0.7-0.2 1c-0.3-1.9-1.5-3.7-3.4-5.2-1.8-1.4-4-2.5-6.6-3-1.7-0.4-3.6-0.5-5.6-0.5-5.1 0-9.8 1.2-14 3.6-3.6 2-5.9 4.4-7 7.2-0.2 0.5-0.4 1-0.5 1.5-0.1 0.3-0.1 0.6-0.2 0.8 0-0.1 0-0.3-0.1-0.4 0-0.2 0-0.5 0.1-0.7v-0.1-0.2c0-0.4 0.1-0.8 0.3-1.3 0.1-0.5 0.3-1 0.5-1.5 1.1-2.7 3.5-5.1 7-7.1 4.2-2.4 8.9-3.6 14-3.6 2 0 3.9 0.2 5.6 0.5 2.6 0.6 4.8 1.6 6.6 3.1 1.9 1.4 3.1 3.1 3.4 5.1z"/>
		</g>
			<linearGradient id="SVGID_25_" y2="-590.99" gradientUnits="userSpaceOnUse" x2="532.77" gradientTransform="matrix(-.7157 .6984 -.9862 -.4348 .00020361 -.00014850)" y1="-590.99" x1="503.74">
			<stop stop-color="#fff" stop-opacity=".6431" offset="0"/>
			<stop stop-color="#F2F2F2" stop-opacity="0" offset="1"/>
		</linearGradient>
		<path fill="url(#SVGID_25_)" clip-rule="evenodd" d="m210 619.7c4.5 0 8.1 0.9 11 2.8-1.3 1.4-3 2.7-5.1 4-4.2 2.4-8.9 3.6-14 3.6-1.4 0-2.6-0.1-3.9-0.3-2.8-0.4-5.2-1.2-7.2-2.5 1.3-1.4 3-2.8 5.1-4 4.2-2.4 8.9-3.6 14.1-3.6z" fill-rule="evenodd"/>
		<g clip-rule="evenodd" fill-rule="evenodd">
			<path fill="#171715" d="m663.5 539.5c0.4 0.2 0.6 0.3 0.7 0.3 1.2 0.8 2.4 2.9 3.6 6.3 1.2 3.2 2.3 6.9 3 11.1 0.3 1.6 0.6 3.3 0.9 5 0.3 2 0.5 3.9 0.7 5.7v0.1c0.3 4 0.4 7.5 0.1 10.6-0.3 4.6-1.2 6.9-2.6 7h-0.1c-0.2 0-0.5-0.1-0.6-0.2-1.2-0.6-2.5-2.7-3.9-6.4-0.3-1-0.7-2-1-3.1-1.1-3.8-2.1-8.1-2.8-13.1-0.7-5.1-1.1-9.7-1-13.7 0-1 0-1.9 0.1-2.8 0.3-3.8 1-6 2-6.7 0.3-0.2 0.5-0.3 0.8-0.3 0 0.2 0 0.2 0.1 0.2z"/>
			<linearGradient id="SVGID_26_" y2="585.11" gradientUnits="userSpaceOnUse" x2="675.56" y1="539.66" x1="676.38">
				<stop stop-color="#737173" offset="0"/>
				<stop stop-color="#FDFDFD" offset=".098039"/>
				<stop stop-color="#AFB3CE" offset=".2863"/>
				<stop stop-color="#A1A5C0" offset=".549"/>
				<stop stop-color="#F8FBFF" offset=".7216"/>
				<stop stop-color="#818082" offset=".8353"/>
				<stop stop-color="#1F1D1E" offset="1"/>
			</linearGradient>
			<path fill="url(#SVGID_26_)" d="m669.9 585.7c1.4-0.1 2.3-2.4 2.6-7 0.3-3.1 0.2-6.6-0.1-10.6v-0.1c-0.2-1.8-0.4-3.7-0.7-5.7-0.3-1.8-0.5-3.5-0.9-5-0.8-4.2-1.8-7.9-3-11.1-1.3-3.4-2.5-5.5-3.6-6.3-0.1 0-0.3-0.1-0.6-0.3h16.4l0.1 0.1c0.1 0 0.2 0.1 0.3 0.1 1.1 0.8 2.2 2.9 3.4 6.1 1.7 4.5 3 9.9 3.9 16.2 0.9 6.4 1.2 11.9 0.8 16.5-0.3 4.1-1 6.4-2.2 6.9h-10c-0.2 0.1-0.4 0.2-0.6 0.2h-5.8z"/>
		</g>
		<g clip-rule="evenodd" fill-rule="evenodd">
			<linearGradient id="SVGID_27_" y2="588.08" gradientUnits="userSpaceOnUse" x2="672.36" y1="530.43" x1="672.27">
				<stop stop-color="#0D0D0D" offset="0"/>
				<stop stop-color="#070707" stop-opacity=".3804" offset=".4941"/>
				<stop stop-opacity=".5804" offset="1"/>
			</linearGradient>
			<path fill="url(#SVGID_27_)" d="m671.1 540.7v0 0.2h0.1-5.5-0.1v-0.1-0.1h0.1 5.4zm1.6 2v0 0.2h0.1-5.4-0.1v-0.1-0.1s0.1 0 0.1 0h5.3zm1 2.3c-0.1 0-0.1 0.1 0 0v0.2h-5.4-0.1s0-0.1 0-0.1v-0.1s0.1 0 0.1 0h5.4zm3 10.9h-5.5v-0.1-0.1h5.3v0.1c0.1 0.1 0.2 0.1 0.2 0.1zm-1.1-4.4h-5.4-0.1s0-0.1 0-0.1v-0.1s0.1 0 0.1 0h5.3v0.1l0.1 0.1c-0.1 0 0 0 0 0zm0.8 2.3h-5.4-0.1v-0.1-0.1h0.1 5.3v0.1 0.1h0.1zm-1.8-6.5h-5.4-0.1s0 0 0 0v-0.1h0.1 5.3l0.1 0.1c-0.1 0-0.1 0 0 0-0.1 0 0 0 0 0zm0.5 2.2h-5.4-0.1v-0.1-0.1h0.1 5.3v0.1l0.1 0.1c-0.1 0 0 0 0 0zm3.2 14.8v0.1h0.1-5.4-0.1s0 0 0 0v-0.1h0.1 5.3zm-0.3-1.8h-5.5-0.1v-0.1s0-0.1 0-0.1h0.1 5.3v0.1 0.1c0.1-0.1 0.1-0.1 0.2 0zm-0.4-2.3h-5.4s-0.1 0-0.1-0.1v-0.1-0.1h0.1 5.3v0.1s0 0.1 0.1 0.2c-0.1-0.1 0-0.1 0 0zm0.9 8.3v0.2h0.1-5.4-0.1v-0.1-0.1h0.1 5.3zm0-2v0.2h0.1-5.4-0.1v-0.1-0.1h0.1 5.3zm0.2 4.3v0.2h0.1-5.4-0.1s0-0.1 0-0.1v-0.1s0.1 0 0.1 0h5.3zm0 4.2c-0.1 0-0.1 0.1 0 0v0.2h0.1-5.4-0.1s0-0.1 0-0.1v-0.1s0.1 0 0.1 0h5.3zm-0.4 6.5c-0.1 0-0.1 0 0 0v0.2h-5.3-0.1v-0.1-0.1s0.1 0 0.1 0h5.3zm0.5-4.2h-5.4-0.1s0-0.1 0-0.1v-0.1s0.1 0 0.1 0h5.3v0.1c-0.1-0.1-0.1 0 0.1 0.1-0.1-0.1-0.1-0.1 0 0zm-0.3 2.2h-5.5-0.1s0-0.1 0-0.1v-0.1s0.1 0 0.1 0h5.4v0.1s0 0.1 0.1 0.1zm0.5-6.4h-5.4-0.1v-0.1h0.1 5.3c0-0.1 0 0 0.1 0.1-0.1-0.1-0.1-0.1 0 0-0.1 0 0 0 0 0zm-1.4 10.7h-5.4-0.1v-0.1-0.1h0.1 5.3v0.1l0.1 0.1c-0.1 0 0 0 0 0z"/>
			<linearGradient id="SVGID_28_" y2="588.07" gradientUnits="userSpaceOnUse" x2="679.38" y1="530.42" x1="679.3">
				<stop stop-color="#0D0D0D" offset="0"/>
				<stop stop-color="#070707" stop-opacity=".3804" offset=".4941"/>
				<stop stop-opacity=".5804" offset="1"/>
			</linearGradient>
			<path fill="url(#SVGID_28_)" d="m671.2 541h-0.1v-0.1-0.1h0.1 3 0.1 5.4 0.1s0 0.1 0 0.1 0 0.1 0 0.1h-0.1-8.5zm3.9 8.5s-0.1 0 0 0c-0.1-0.1-0.1-0.1-0.1-0.2v-0.1s0.1 0 0.1 0h3.1 0.1 5.3 0.1v0.1 0.1h-0.1-8.5zm-2.4-6.8s0.1 0 0 0h3.1 0.1 5.3 0.1l0.1 0.1s0 0.1-0.1 0.1h-0.1-8.5-0.1c0.1 0 0.1-0.1 0.1-0.2v0zm1.9 4.6s-0.1 0 0 0c-0.1 0-0.1 0 0 0-0.1-0.1-0.1-0.2-0.1-0.2h0.1 3 0.1 5.3 0.1v0.1h-0.1-8.4zm-0.9-2v0c-0.1-0.1-0.1-0.1 0-0.2v-0.1h3 0.1 5.4v0.1 0.1h-8.5zm2.7 8.5h-0.1v-0.1-0.1s0.1 0 0.1 0h3 0.1 5.3 0.1s0 0.1 0 0.1v0.1s-0.1 0-0.1 0h-8.4zm-0.8-2.3s-0.1 0 0 0c-0.1-0.1-0.1-0.1-0.1-0.2v-0.1s0.1 0 0.1 0h3 0.1 5.3 0.1v0.1 0.1h-0.1-8.4zm1.1 4.4s-0.1 0-0.1-0.1v-0.1h0.1 8.4 0.1s0 0.1 0 0.1 0 0 0 0l-0.1 0.1h-8.4zm0.9 4.3c0-0.1-0.1-0.1 0 0-0.1-0.1-0.1-0.1-0.1-0.2v-0.1h0.1 3.1 0.1 5.3 0.1v0.1s0 0.1 0 0.1l-0.1 0.1h-8.5zm0.4 2.3h-0.1v-0.1-0.1h0.1 8.4 0.1s0 0.1 0 0.1 0 0.1 0 0.1h-0.1-8.4zm0.8 8.5s-0.1 0 0 0c-0.1-0.1-0.1-0.1-0.1-0.2v-0.1s0.1 0 0.1 0h3 0.1 5.3 0.1l0.1 0.1s0 0.1-0.1 0.1h-0.1-8.4zm-0.3-4.5h0.1 3 0.1 5.4s0 0.1 0 0.1 0 0.1 0 0.1h-8.5-0.1v-0.2zm0 2h0.1 3 0.1 5.4s0 0.1 0 0.1 0 0.1 0 0.1h-8.5-0.1v-0.2zm-0.2-4.2h3.1 0.1 5.3 0.1v0.1h-0.1-8.5-0.1l0.1-0.1zm0.5 11c-0.1-0.1-0.1-0.1 0 0-0.1-0.1-0.1-0.1-0.1-0.2v-0.1h0.1 3 0.1 5.3 0.1s0 0.1 0 0.1v0.1s-0.1 0-0.1 0h-8.4zm0.2-2.2s-0.1 0 0 0c-0.1-0.1-0.1-0.1 0 0-0.1-0.1-0.1-0.2-0.1-0.2h0.1 3 0.1 5.3 0.1v0.1s0 0 0 0h-0.1-8.4zm-0.2 4.2c-0.1-0.1-0.1-0.1 0 0-0.1-0.1-0.1-0.1-0.1-0.2v-0.1h0.1 3 0.1 5.3 0.1s0 0.1 0 0.1v0.1s-0.1 0-0.1 0h-8.4zm-0.3 2.2l-0.1-0.1v-0.1s0.1 0 0.1 0h3 0.1 5.3 0.1l0.1 0.1s0 0.1-0.1 0.1h-0.1-8.4zm-0.2 2.2v-0.1-0.1s0.1 0 0.1 0h3 0.1 5.3 0.1v0.1s0 0.1 0 0.1h-0.1-8.5zm-0.8 1.8s0.1 0 0 0h3.2 0.1 5.3 0.1v0.1 0.1h-0.1-8.5-0.1v-0.1-0.1z"/>
			<linearGradient id="SVGID_29_" y2="584.97" gradientUnits="userSpaceOnUse" x2="674.4" y1="539.42" x1="674.34">
				<stop stop-color="#0D0D0D" stop-opacity=".4235" offset="0"/>
				<stop stop-color="#070707" stop-opacity=".1804" offset=".4941"/>
				<stop offset="1"/>
			</linearGradient>
			<path fill="url(#SVGID_29_)" d="m677.2 558.2h-5.5s-0.1 0-0.1-0.1v-0.1-0.1h0.1 5.3v0.1 0.1c0.1 0 0.1 0 0.2 0.1z"/>
			<linearGradient id="SVGID_30_" y2="584.97" gradientUnits="userSpaceOnUse" x2="681.43" y1="539.42" x1="681.36">
				<stop stop-color="#0D0D0D" stop-opacity=".4235" offset="0"/>
				<stop stop-color="#070707" stop-opacity=".1804" offset=".4941"/>
				<stop offset="1"/>
			</linearGradient>
			<path fill="url(#SVGID_30_)" d="m677.2 558.2s-0.1 0-0.1-0.1v-0.1-0.1h0.1 3 0.1 5.3 0.1v0.1s0 0.1 0 0.1l-0.1 0.1h-8.4z"/>
		</g>
		<path fill-opacity=".4196" fill="#fff" clip-rule="evenodd" d="m672.2 584.1v0c0.1-0.2 0.2-0.2 0.3-0.2h13.5c0.1 0 0.1 0 0.2 0.1v0.1 0.2h-0.2-13.6-0.2v-0.2zm0.8-2.1c0-0.1 0-0.1 0.1-0.2 0-0.1 0.1-0.1 0.1-0.1h13.5c0.1 0 0.1 0 0.2 0.1v0.2s0 0.1 0 0.2h-0.2-13.5-0.1c0-0.1-0.1-0.1-0.1-0.2zm14.2-1.9s-0.1 0.1-0.2 0.1h-13.7c-0.1 0-0.1 0-0.1-0.1-0.1-0.1-0.1-0.1-0.1-0.2s0-0.1 0.1-0.2c0-0.1 0.1-0.1 0.1-0.1h13.7c0.1 0 0.1 0 0.2 0.1v0.2 0.2zm0.2-2.3h-0.2-13.7-0.1c-0.1-0.1-0.1-0.1-0.1-0.2s0-0.1 0.1-0.1c0-0.1 0.1-0.1 0.1-0.1h13.7c0.1 0 0.1 0 0.2 0.1v0.1c0.1 0.1 0 0.1 0 0.2zm0-2h-0.2-13.7-0.1c-0.1-0.1-0.1-0.1-0.1-0.2 0 0 0-0.1 0.1-0.1 0-0.1 0.1-0.1 0.1-0.1h13.7c0.1 0 0.1 0 0.2 0.1v0.1c0.1 0 0 0.1 0 0.2zm0.3-2.1h-0.2-13.7-0.1c-0.1-0.1-0.1-0.1-0.1-0.2s0-0.1 0.1-0.2c0-0.1 0-0.1 0.1-0.1h13.7c0.1 0 0.1 0 0.2 0.1v0.2s0 0.1 0 0.2zm-0.4-2.6c0.1 0 0.1 0 0.2 0.1v0.1 0.2h-0.2-13.7-0.1c-0.1-0.1-0.1-0.1-0.1-0.2s0-0.1 0.1-0.1c0-0.1 0.1-0.1 0.1-0.1h13.7zm-14.1-2.1c0-0.1 0-0.1 0.1-0.1 0-0.1 0.1-0.1 0.2-0.1h13.7s0.1 0 0.1 0.1v0.1s0 0.1 0 0.2h-0.1-13.7-0.2c-0.1 0-0.1-0.1-0.1-0.2zm0-2v0c0.1-0.2 0.2-0.2 0.3-0.2h13.7s0.1 0 0.1 0.1v0.1s0 0.1 0 0.2h-0.1-13.7-0.2c-0.1-0.1-0.1-0.1-0.1-0.2zm0-2.2c0-0.1 0.1-0.1 0.1-0.1h13.5c0.1 0 0.1 0 0.2 0.1v0.2 0.2c-0.1 0-0.1 0.1-0.2 0.1h-13.5c-0.1 0-0.1 0-0.1-0.1-0.1-0.1-0.1-0.1-0.1-0.2-0.1-0.2 0-0.2 0.1-0.2zm-0.7-2.1c0-0.1 0.1-0.1 0.2-0.1h13.7c0.1 0 0.1 0 0.2 0.1l0.1 0.1s0 0.1-0.1 0.2h-0.2-13.7-0.2c-0.1-0.1-0.1-0.1-0.1-0.2s0.1-0.1 0.1-0.1zm-0.2-2.4c0-0.1 0.1-0.1 0.2-0.1h13.5c0.1 0 0.1 0 0.2 0.1v0.2s0 0.1 0 0.2h-0.2-13.6-0.2c-0.1-0.1-0.1-0.1-0.1-0.2s0.1-0.1 0.2-0.2zm-0.5-2h0.2 13.7 0.2v0.2s0 0.1 0 0.2h-0.2-13.7-0.2c-0.1-0.1-0.1-0.1-0.1-0.2s0-0.2 0.1-0.2zm13-4.4c0.1 0 0.1 0 0.2 0.1v0.2 0.2c-0.1 0-0.1 0.1-0.2 0.1h-13.6c-0.1 0-0.1 0-0.2-0.1s-0.1-0.1-0.1-0.2 0-0.1 0.1-0.2c0-0.1 0.1-0.1 0.2-0.1h13.6zm0.5 2.6h-0.2-13.7-0.2c-0.1-0.1-0.1-0.1-0.1-0.2s0-0.1 0.1-0.2c0-0.1 0.1-0.1 0.2-0.1h13.7c0.1 0 0.1 0 0.2 0.1 0 0 0.1 0.1 0.1 0.2s0 0.1-0.1 0.2zm-1-4.7v0.2h-0.2-13.7-0.1c-0.1-0.1-0.1-0.1-0.1-0.2s0-0.1 0.1-0.1c0-0.1 0.1-0.1 0.1-0.1h13.6c0.1 0 0.1 0 0.2 0.1 0.1 0 0.1 0.1 0.1 0.1zm-1-4.1v0.2h-0.2-13.7-0.1c-0.1-0.1-0.1-0.1-0.1-0.2s0-0.1 0.1-0.2c0-0.1 0.1-0.1 0.1-0.1h13.6c0.1 0 0.1 0 0.2 0.1s0.1 0.1 0.1 0.2zm-1-1.9h-0.1-13.7-0.2c-0.1-0.1-0.1-0.1-0.1-0.2s0-0.1 0.1-0.1c0-0.1 0.1-0.1 0.2-0.1h13.7s0.1 0 0.1 0.1l0.1 0.1c0 0.1 0 0.1-0.1 0.2zm1.5 3.9v0.3h-0.2-13.6-0.2c-0.1-0.1-0.1-0.1-0.1-0.2s0-0.1 0.1-0.1c0-0.1 0.1-0.1 0.2-0.1h13.6s0.1 0 0.2 0.1zm-18.1-8.4c0-0.1 0-0.1 0.1-0.2h0.2 13.7 0.1v0.2s0 0.1 0 0.2h-0.1-13.7-0.2c-0.1-0.1-0.1-0.2-0.1-0.2zm1.8 2.2c-0.1-0.1-0.1-0.1-0.1-0.2s0-0.1 0.1-0.1c0-0.1 0.1-0.1 0.1-0.1h13.7c0.1 0 0.1 0 0.2 0.1v0.1s0 0.1 0 0.2h-0.2-13.8z" fill-rule="evenodd"/>
		<g clip-rule="evenodd" fill-rule="evenodd">
			<linearGradient id="SVGID_31_" y2="571.85" gradientUnits="userSpaceOnUse" x2="664.54" y1="553.65" x1="664.61">
				<stop stop-color="#161719" offset="0"/>
				<stop stop-color="#262726" offset=".1294"/>
				<stop stop-color="#6A6B63" offset=".2667"/>
				<stop stop-color="#232321" offset=".5373"/>
				<stop stop-color="#1C1C1C" offset=".9882"/>
			</linearGradient>
			<path fill="url(#SVGID_31_)" d="m663.5 572.2c0.4-0.3 0.7-1.2 0.9-2.9 0.1-0.7 0.1-1.4 0-2.2v-0.1c0-0.7 0-1.5-0.1-2.3-0.1-0.7-0.2-1.5-0.3-2.4-0.1-0.7-0.3-1.4-0.3-2.1-0.2-0.8-0.4-1.6-0.5-2.4-0.2-0.8-0.5-1.6-0.7-2.3-0.6-1.5-1.1-2.3-1.5-2.6h-0.1 3.8 0.1c0.5 0.3 1 1.1 1.5 2.6 0.5 1.4 0.9 2.9 1.2 4.7 0.1 0.7 0.3 1.4 0.4 2.1 0.1 0.9 0.2 1.7 0.3 2.4 0.1 1.7 0.1 3.2 0 4.5-0.2 1.9-0.5 2.8-1 2.9l-3.7 0.1z"/>
			<path fill="#161415" d="m661.3 569.4h1.6v-0.1c0.1-1.3 0.1-2.8 0-4.5-0.1-0.7-0.2-1.5-0.3-2.4l-0.3-2.1c-0.2-0.9-0.4-1.8-0.6-2.6h-2.4v-0.8-1.2c0.1-1.2 0.3-2 0.6-2.4 0.1-0.2 0.1-0.3 0.3-0.4h0.7 0.1c0.5 0.3 1 1.1 1.5 2.6 0.2 0.7 0.5 1.5 0.7 2.3s0.4 1.6 0.5 2.4l0.3 2.1c0.1 0.9 0.2 1.7 0.3 2.4 0.1 0.8 0.1 1.5 0.1 2.3v0.1 2.2c-0.1 1.6-0.4 2.6-0.9 2.9h-0.5c-0.2-0.1-0.4-0.2-0.5-0.4-0.4-0.5-0.8-1.3-1.2-2.4z"/>
			<linearGradient id="SVGID_32_" y2="569.16" gradientUnits="userSpaceOnUse" x2="644.52" y1="557.91" x1="644.58">
				<stop stop-color="#282428" offset="0"/>
				<stop stop-color="#6C6865" offset=".2431"/>
				<stop stop-color="#A3A7A3" offset=".3647"/>
				<stop stop-color="#8B8B88" offset=".4275"/>
				<stop stop-color="#1E1C1D" offset=".7294"/>
				<stop stop-color="#1A1A1A" offset=".8471"/>
				<stop stop-color="#161616" offset=".9882"/>
			</linearGradient>
			<path fill="url(#SVGID_32_)" d="m659.3 557.8h2.4c0.2 0.8 0.4 1.7 0.6 2.6 0.1 0.7 0.3 1.4 0.3 2.1 0.1 0.9 0.2 1.7 0.3 2.4 0.1 1.7 0.1 3.2 0 4.5v0.1h-35.5v-0.1c0.1-1.4 0.1-2.9-0.1-4.5l-1.3-7h33.3z"/>
		</g>
			<path fill-opacity=".4314" clip-rule="evenodd" d="m640.2 558.1v-0.2c0-0.1 0-0.1 0.1-0.1h0.2c0.1 0 0.1 0 0.1 0.1 0.1 0.2 0.2 0.3 0.3 0.4 0.8 1.6 1.4 3.5 1.7 5.8 0.2 1.8 0.2 3.4 0 4.8 0 0.1 0 0.1-0.1 0.2h-0.2s-0.1 0-0.2-0.1v-0.2c0.2-1.3 0.2-2.9 0-4.7-0.2-2.2-0.8-4.1-1.5-5.6-0.3-0.1-0.4-0.3-0.4-0.4zm3-0.3c0.1 0 0.1 0 0.1 0.1 0.1 0.2 0.2 0.3 0.3 0.4 0.8 1.6 1.4 3.5 1.7 5.8 0.2 1.8 0.2 3.4 0 4.8 0 0.1 0 0.1-0.1 0.2h-0.2s-0.1 0-0.2-0.1v-0.2c0.2-1.3 0.2-2.9 0-4.7-0.3-2.2-0.8-4.1-1.6-5.6-0.1-0.2-0.2-0.4-0.2-0.5v-0.2-0.1c0.1 0.1 0.1 0.1 0.2 0.1zm2.5 0h0.2c0.1 0 0.1 0 0.1 0.1 0.1 0.2 0.2 0.3 0.3 0.4 0.8 1.6 1.3 3.5 1.6 5.8 0.2 1.8 0.2 3.4 0 4.8 0 0.1 0 0.1-0.1 0.2h-0.2c-0.1 0-0.1 0-0.2-0.1v-0.2c0.2-1.3 0.2-2.9 0-4.7-0.3-2.2-0.8-4.1-1.6-5.6-0.1-0.2-0.2-0.4-0.3-0.5v-0.2h0.2zm-13.7 0.3v-0.2c0-0.1 0-0.1 0.1-0.1h0.2c0.1 0 0.1 0 0.2 0.1 0.1 0.2 0.1 0.3 0.3 0.4 0.8 1.6 1.4 3.5 1.6 5.8 0.2 1.8 0.2 3.4 0 4.8v0.2h-0.2s-0.1 0-0.1-0.1c0-0.1-0.1-0.1-0.1-0.2 0.2-1.3 0.2-2.9 0-4.7-0.3-2.2-0.8-4.1-1.6-5.6-0.3-0.1-0.4-0.3-0.4-0.4zm3.3 0.2c0.9 1.7 1.4 3.6 1.6 5.9 0.2 1.8 0.2 3.4 0 4.8 0 0.1 0 0.1-0.1 0.2h-0.1s-0.1 0-0.2-0.1v-0.2c0.2-1.3 0.2-2.9 0-4.7-0.3-2.2-0.8-4.1-1.5-5.6-0.1-0.2-0.2-0.4-0.3-0.5v-0.2c0-0.1 0-0.1 0.1-0.1h0.2c0.1 0 0.1 0 0.1 0.1s0.1 0.3 0.2 0.4zm2.2-0.4c0-0.1 0-0.1 0.1-0.1h0.2c0.1 0 0.1 0 0.2 0.1 0 0.2 0.1 0.3 0.2 0.4 0.8 1.6 1.3 3.5 1.6 5.8 0.2 1.8 0.2 3.4 0 4.8 0 0.1 0 0.1-0.1 0.2h-0.2s-0.1 0-0.1-0.1c0-0.1-0.1-0.1-0.1-0.2 0.2-1.3 0.2-2.9 0-4.7-0.3-2.2-0.8-4.1-1.5-5.6-0.1-0.2-0.2-0.4-0.3-0.5v-0.1zm22 0.7c-0.1-0.2-0.2-0.4-0.3-0.5v-0.2c0-0.1 0-0.1 0.1-0.1h0.2c0.1 0 0.1 0 0.2 0.1 0.1 0.2 0.1 0.3 0.3 0.4 0.8 1.6 1.4 3.5 1.6 5.8 0.2 1.8 0.2 3.4 0 4.8 0 0.1 0 0.1-0.1 0.2h-0.2c-0.1 0-0.1 0-0.1-0.1s-0.1-0.1-0.1-0.2c0.2-1.3 0.2-2.9 0-4.7-0.3-2.1-0.8-4-1.6-5.5zm-10.6-0.7c0.1 0.2 0.1 0.3 0.2 0.4 0.8 1.6 1.4 3.5 1.7 5.8 0.2 1.8 0.2 3.4 0 4.8 0 0.1 0 0.1-0.1 0.2h-0.2s-0.1 0-0.2-0.1v-0.2c0.2-1.3 0.2-2.9 0-4.7-0.3-2.2-0.8-4.1-1.6-5.6-0.1-0.2-0.2-0.4-0.3-0.5v-0.2c0-0.1 0-0.1 0.1-0.1h0.2c0.1 0.1 0.2 0.1 0.2 0.2zm2.4 0.7c-0.1-0.2-0.2-0.4-0.3-0.5v-0.2c0-0.1 0-0.1 0.1-0.1h0.2c0.1 0 0.1 0 0.1 0.1 0 0.2 0.1 0.3 0.2 0.4 0.8 1.6 1.4 3.5 1.7 5.8 0.2 1.8 0.2 3.4 0 4.8 0 0.1 0 0.1-0.1 0.2h-0.2c-0.1 0-0.1 0-0.1-0.1v-0.2c0.2-1.3 0.2-2.9 0-4.7-0.2-2.1-0.7-4-1.6-5.5zm2.7-0.8c0.1 0 0.1 0 0.2 0.1 0.1 0.2 0.1 0.3 0.3 0.4 0.8 1.6 1.3 3.5 1.6 5.8 0.3 1.8 0.3 3.4 0 4.8 0 0.1 0 0.1-0.1 0.2h-0.2s-0.1 0-0.2-0.1v-0.2c0.3-1.3 0.3-2.9 0-4.7-0.2-2.2-0.8-4.1-1.5-5.6-0.1-0.2-0.2-0.4-0.2-0.5v-0.2c0-0.1 0-0.1 0.1-0.1v0.1zm2.5 0.3v-0.2-0.1h0.2c0.1 0 0.1 0 0.1 0.1 0.1 0.2 0.2 0.3 0.3 0.4 0.8 1.6 1.4 3.5 1.7 5.8 0.2 1.8 0.2 3.4 0 4.8 0 0.1 0 0.1-0.1 0.2h-0.2s-0.1 0-0.2-0.1v-0.2c0.2-1.3 0.2-2.9 0-4.7-0.3-2.2-0.8-4.1-1.6-5.6-0.2-0.1-0.2-0.3-0.2-0.4z" fill-rule="evenodd"/>
			<linearGradient id="SVGID_33_" y2="569.14" gradientUnits="userSpaceOnUse" x2="647.46" y1="557.76" x1="647.36">
				<stop stop-color="#FCFCFC" stop-opacity="0" offset="0"/>
				<stop stop-color="#fff" stop-opacity=".6235" offset=".302"/>
				<stop stop-color="#FCFCFC" stop-opacity=".2706" offset=".5216"/>
				<stop stop-color="#F9F9F9" stop-opacity="0" offset="1"/>
			</linearGradient>
			<path fill="url(#SVGID_33_)" clip-rule="evenodd" d="m638 557.9c0-0.1 0-0.1 0.1-0.1h0.2c0.1 0 0.1 0 0.2 0.1 0.1 0.2 0.2 0.3 0.3 0.4 0.8 1.6 1.3 3.5 1.7 5.8 0.2 1.8 0.2 3.4 0 4.8 0 0.1 0 0.1-0.1 0.2h-0.2c-0.1 0-0.1 0-0.1-0.1v-0.2c0.2-1.3 0.2-2.9 0-4.7-0.3-2.2-0.8-4.1-1.6-5.6-0.1-0.2-0.2-0.4-0.3-0.5-0.2 0-0.2 0-0.2-0.1zm3-0.1c0.1 0 0.1 0 0.2 0.1 0.1 0.2 0.1 0.3 0.3 0.4 0.8 1.6 1.4 3.5 1.6 5.8 0.2 1.8 0.2 3.4 0 4.8v0.2h-0.2s-0.1 0-0.2-0.1v-0.2c0.2-1.3 0.2-2.9 0-4.7-0.3-2.2-0.8-4.1-1.6-5.6-0.1-0.2-0.2-0.4-0.3-0.5v-0.2c0-0.1 0-0.1 0.1-0.1 0 0.1 0 0.1 0.1 0.1zm2.8 0c0.1 0 0.1 0 0.2 0.1 0.1 0.2 0.1 0.3 0.3 0.4 0.8 1.6 1.4 3.5 1.6 5.8 0.2 1.8 0.2 3.4 0 4.8 0 0.1 0 0.1-0.1 0.2h-0.2s-0.1 0-0.1-0.1v-0.2c0.2-1.3 0.2-2.9 0-4.7-0.3-2.2-0.8-4.1-1.6-5.6-0.1-0.2-0.2-0.4-0.3-0.5v-0.2c0-0.1 0-0.1 0.1-0.1-0.1 0.1 0 0.1 0.1 0.1zm-10.8 0.1c0.1 0.2 0.1 0.3 0.2 0.4 0.8 1.6 1.4 3.5 1.6 5.8 0.2 1.8 0.2 3.4 0 4.8 0 0.1 0 0.1-0.1 0.2h-0.2s-0.1 0-0.1-0.1c0-0.1-0.1-0.1-0.1-0.2 0.2-1.3 0.2-2.9 0-4.7-0.2-2.2-0.8-4.1-1.5-5.6-0.1-0.2-0.2-0.4-0.3-0.5v-0.2c0-0.1 0-0.1 0.1-0.1h0.2c0.1 0.1 0.2 0.1 0.2 0.2zm2.6 0c0 0.1 0.1 0.3 0.3 0.4h0.1c0.8 1.6 1.3 3.5 1.6 5.8 0.2 1.8 0.2 3.4 0 4.8 0 0.1 0 0.1-0.1 0.2h-0.2s-0.1 0-0.2-0.1v-0.2c0.2-1.3 0.2-2.9 0-4.7-0.2-2.2-0.7-4.1-1.5-5.6-0.1-0.2-0.2-0.4-0.3-0.5v-0.2c0-0.1 0-0.1 0.1-0.1h0.2c-0.1 0.1 0 0.1 0 0.2zm24.4 0.7c-0.1-0.2-0.2-0.4-0.3-0.5v-0.2c0-0.1 0-0.1 0.1-0.1h0.2s0.1 0 0.1 0.1c0.1 0.2 0.1 0.3 0.3 0.4 0.8 1.6 1.4 3.5 1.6 5.8 0.2 1.8 0.2 3.4 0 4.8 0 0.1 0 0.1-0.1 0.2h-0.2s-0.1 0-0.1-0.1c0-0.1-0.1-0.1-0.1-0.2 0.2-1.3 0.2-2.9 0-4.7-0.1-2.1-0.7-4-1.5-5.5zm-11.8 10.6c-0.1 0-0.1 0-0.2-0.1v-0.2c0.2-1.3 0.2-2.9 0-4.7-0.3-2.2-0.8-4.1-1.5-5.6-0.1-0.2-0.2-0.4-0.3-0.5v-0.2c0-0.1 0-0.1 0.1-0.1h0.2c0.1 0 0.1 0 0.1 0.1 0 0.2 0.1 0.3 0.2 0.4 0.8 1.6 1.4 3.5 1.7 5.8 0.2 1.8 0.2 3.4 0 4.8 0 0.1 0 0.1-0.1 0.2s-0.2 0.1-0.2 0.1zm1.2-11.3c0.1 0.2 0.1 0.3 0.3 0.4 0.8 1.6 1.4 3.5 1.6 5.8 0.2 1.8 0.2 3.4 0 4.8 0 0.1 0 0.1-0.1 0.2h-0.2s-0.1 0-0.2-0.1v-0.2c0.2-1.3 0.2-2.9 0-4.7-0.3-2.2-0.8-4.1-1.6-5.6-0.1-0.2-0.2-0.4-0.2-0.5v-0.2-0.1h0.2c0.1 0.1 0.2 0.1 0.2 0.2zm2.4 0.7c-0.1-0.2-0.2-0.4-0.3-0.5v-0.2c0-0.1 0-0.1 0.1-0.1h0.2c0.1 0 0.1 0 0.1 0.1 0.1 0.2 0.2 0.3 0.3 0.4 0.8 1.6 1.4 3.5 1.7 5.8 0.2 1.8 0.2 3.4 0 4.8 0 0.1 0 0.1-0.1 0.2h-0.2c-0.1 0-0.1 0-0.2-0.1v-0.2c0.2-1.3 0.2-2.9 0-4.7-0.2-2.1-0.7-4-1.6-5.5zm2.8-0.8c0.1 0 0.1 0 0.2 0.1 0.1 0.2 0.2 0.3 0.3 0.4 0.8 1.6 1.3 3.5 1.5 5.8 0.3 1.8 0.3 3.4 0 4.8 0 0.1 0 0.1-0.1 0.2h-0.2s-0.1 0-0.1-0.1c0-0.1-0.1-0.1-0.1-0.2 0.2-1.3 0.2-2.9 0-4.7-0.3-2.2-0.8-4.1-1.5-5.6-0.1-0.2-0.2-0.4-0.3-0.5v-0.2c0-0.1 0-0.1 0.1-0.1 0.1 0.1 0.1 0.1 0.2 0.1zm2.4 0.3v-0.2c0-0.1 0-0.1 0.1-0.1h0.2c0.1 0 0.1 0 0.2 0.1 0.1 0.2 0.1 0.3 0.3 0.4 0.8 1.6 1.4 3.5 1.6 5.8 0.2 1.8 0.2 3.4 0 4.8 0 0.1 0 0.1-0.1 0.2h-0.2s-0.1 0-0.1-0.1v-0.2c0.2-1.3 0.2-2.9 0-4.7-0.3-2.2-0.8-4.1-1.6-5.6-0.3-0.1-0.4-0.3-0.4-0.4z" fill-rule="evenodd"/>
		<g clip-rule="evenodd" fill-rule="evenodd">
			<linearGradient id="SVGID_34_" y2="572.14" gradientUnits="userSpaceOnUse" x2="626.54" y1="558.44" x1="626.85">
				<stop stop-color="#878B8C" offset="0"/>
				<stop stop-color="#9AA2AD" offset=".070588"/>
				<stop stop-color="#ACB4BF" offset=".1765"/>
				<stop stop-color="#828692" offset=".298"/>
				<stop stop-color="#292325" offset=".5529"/>
				<stop stop-color="#3D3633" offset=".7765"/>
				<stop stop-color="#3C3734" offset=".9804"/>
			</linearGradient>
			<path fill="url(#SVGID_34_)" d="m624 573c0.3 0 0.6-0.5 0.8-1.3 0.1-0.1 0.2-1.6 0.2-4.7 0-3-0.3-5.6-0.8-7.9s-0.9-3.7-1-4.4l0.1 0.1 7 2.8-0.3 0.1c0.3 0.3 0.5 0.5 0.5 0.7 0.2 0.3 0.4 0.7 0.6 1.2 0.3 0.8 0.6 1.7 0.8 2.8 0.1 0.4 0.2 0.8 0.3 1.3s0.1 1 0.1 1.5c0.1 1 0.1 1.9 0 2.6-0.1 1.1-0.3 1.7-0.6 1.7l-6.4 3.5h-1.3zm-2.2-18.1v0.9l-0.6-0.9h0.6z"/>
			<linearGradient id="SVGID_35_" y2="573.45" gradientUnits="userSpaceOnUse" x2="617.28" y1="555.45" x1="616.9">
				<stop stop-color="#878B8C" offset="0"/>
				<stop stop-color="#9AA2AD" offset=".070588"/>
				<stop stop-color="#fff" offset=".1765"/>
				<stop stop-color="#828692" offset=".298"/>
				<stop stop-color="#797BCE" offset=".3686"/>
				<stop stop-color="#282E57" offset=".5216"/>
				<stop stop-color="#7E808C" offset=".5961"/>
				<stop stop-color="#6A6D77" offset=".6627"/>
				<stop stop-color="#242528" offset=".7686"/>
				<stop stop-color="#585B64" offset=".8667"/>
				<stop stop-color="#383745" offset=".9804"/>
			</linearGradient>
			<path fill="url(#SVGID_35_)" d="m623.2 554.8c0.1 0.6 0.5 2.1 1 4.4s0.8 4.9 0.8 7.9c0 3.1 0 4.6-0.2 4.7-0.2 0.8-0.5 1.3-0.8 1.3h-11.3-0.3c-0.4-0.2-0.9-1-1.5-2.4-0.1-0.4-0.2-0.8-0.4-1.2-0.4-1.4-0.8-3-1-4.9-0.3-1.9-0.4-3.6-0.3-5.1v-1.1c0.1-1.4 0.3-2.5 0.7-3.4h11.3l0.6 0.9v-0.9l1.4-0.2z"/>
		</g>
		<path clip-rule="evenodd" d="m816.5 459.3c-3.5 0-6.9-0.1-10.2-0.2h-0.1-7.5-9.5c-3.6 0-7.2 0.1-10.8 0.2h-0.2c-1.9 0-3.9 0-5.8 0.2h-0.2-11.8c-3.1 0.1-6.1 0.2-9 0.2-3.4 0.1-6.7 0.1-10.1 0h-10.2-0.2c-3.1-0.3-6.1-0.5-9-0.7-3.9-0.3-7.7-0.8-11.5-1.6h0.1c-4-0.8-7.7-2-11.1-3.6-2.8-1.4-5.4-2.8-7.7-4.2-2.2-1.5-4.6-2.8-7.1-4 0 0-0.1 0-0.1-0.1-2.1-0.9-4.3-1.8-6.5-2.5-2.9-0.9-5.9-1.5-9.1-1.8-2.8-0.3-5.5-0.5-8.3-0.8-3-0.1-6.1-0.3-9.2-0.4h-0.2-9.8c-3.1 0-6.1 0-9.1 0.2-3.1 0.1-6.1 0.3-9.1 0.4-3 0.2-5.9 0.4-8.9 0.7h-0.1c-2.9 0.2-5.7 0.4-8.5 0.6-3.7 0.3-7.5 0.5-11.2 0.8-3.8 0.2-7.4 0.3-11 0.2-3.2 0-6.4-0.1-9.5-0.2h-0.3c-2.8-0.4-5.6-0.7-8.3-1h-0.2c-3.9-0.6-7.7-1.7-11.2-3.1s-6.9-2.8-10-4c-3.2-1.3-6.8-2.1-10.6-2.3-3.7-0.3-7.2-0.1-10.7 0.6-3.7 0.6-7 1.7-9.7 3.3-2.2 1.4-4.1 3-5.6 4.7-0.8 1-1.6 2-2.5 3-0.3 0.3-0.7 0.5-1.2 0.6s-1 0.1-1.5 0c-0.5-0.2-0.8-0.4-1-0.8s-0.1-0.7 0.2-1c0.8-1 1.5-2 2.3-3v-0.1c1.8-2 3.9-3.8 6.5-5.3v-0.1c3.2-1.9 7-3.2 11.4-3.9 3.9-0.7 7.9-0.9 12-0.6 4.5 0.3 8.7 1.2 12.5 2.7 3.2 1.3 6.5 2.7 10 4.1 3.3 1.3 6.6 2.2 10.1 2.8h-0.2c2.6 0.3 5.3 0.6 8.1 0.9 3.1 0.1 6.2 0.2 9.3 0.2 3.5 0.1 7 0 10.6-0.2 3.7-0.2 7.3-0.5 11-0.8 2.9-0.2 5.7-0.4 8.5-0.6 3-0.3 6-0.5 9.2-0.7 3.1-0.1 6.1-0.3 9.1-0.4 3.1-0.1 6.3-0.2 9.5-0.2h10 0.2c3.1 0.1 6.3 0.3 9.5 0.4 2.8 0.3 5.5 0.5 8.3 0.8 3.6 0.4 7 1.1 10.4 2.1 2.5 0.8 4.9 1.7 7.3 2.8h0.1c2.5 1.3 5 2.8 7.5 4.3 2.1 1.4 4.6 2.7 7.3 4 2.9 1.4 6.1 2.5 9.7 3.2 3.4 0.7 7 1.2 10.6 1.5 3 0.2 6 0.4 9.2 0.7h9.9 9.8c2.9 0 5.9 0 9-0.2h0.1 11.9c1.9-0.1 3.9-0.2 6-0.2 3.6-0.1 7.2-0.2 10.8-0.2 3.1 0 6.3 0 9.4-0.1h7.7c3.3 0.1 6.6 0.2 10 0.2 3.4-0.1 6.9-0.1 10.6-0.2v2.7c-3.3-0.2-6.8-0.1-10.1 0z" fill-rule="evenodd"/>
		<g clip-rule="evenodd" fill-rule="evenodd">
				<radialGradient id="SVGID_36_" gradientUnits="userSpaceOnUse" cy="441.3" cx="653.25" gradientTransform="matrix(1 0 0 .6501 0 154.43)" r="47.15">
				<stop stop-color="#fff" stop-opacity=".6235" offset="0"/>
				<stop stop-color="#FAFAFA" stop-opacity="0" offset="1"/>
			</radialGradient>
			<path fill="url(#SVGID_36_)" d="m694.3 449.3c0 0.1 0 0.1 0.2 0.2 0 0-0.1 0.1-0.2 0.1 0 0-0.1 0-0.2 0.1-0.1 0-0.1 0-0.1-0.1h-0.1c-0.5-0.3-1-0.6-1.4-0.9h0.1c-2.4-1.5-4.9-2.9-7.3-4.2-2.2-1-4.6-1.8-7-2.5-2.8-0.8-6-1.4-9.7-1.9-3.7-0.4-7.4-0.8-10.9-1-3.6-0.3-6.5-0.4-8.6-0.3-2.2 0.1-5 0.1-8.3 0.1-3.1 0-6.3 0.1-9.4 0.2s-6.1 0.3-9.1 0.4c-3 0.2-6 0.4-8.9 0.6h-0.1c-2.9 0.2-5.8 0.4-8.6 0.6-3.7 0.2-7.5 0.5-11.3 0.8-1.8 0.1-3.7 0.2-5.6 0.2h-2-0.2s-0.1-0.1 0-0.1c-0.1 0-0.1-0.1 0-0.1 0.1-0.1 0.1-0.1 0.2 0h2c1.9-0.1 3.8-0.1 5.6-0.3 3.8-0.2 7.5-0.4 11.2-0.7 2.9-0.3 5.8-0.5 8.7-0.6 3-0.3 6-0.5 9-0.7 3-0.1 6.1-0.3 9.1-0.4 3.1-0.1 6.2-0.2 9.4-0.2 2.9 0 5.9-0.1 8.9-0.2h1.4 2.1c1.1 0 2.2 0 3.2 0.1 1.7 0 3.7 0.1 6 0.2 2.6 0.1 5.2 0.4 7.8 0.8 2.5 0.4 5.3 1.1 8.5 2.1 2.4 0.8 4.8 1.7 7 2.7 2.6 1.3 5 2.7 7.4 4.2 0.2 0.3 0.7 0.5 1.2 0.8z"/>
				<radialGradient id="SVGID_37_" gradientUnits="userSpaceOnUse" cy="441.3" cx="653.25" gradientTransform="matrix(1 0 0 .6501 0 154.43)" r="47.15">
				<stop stop-color="#fff" stop-opacity=".4627" offset="0"/>
				<stop stop-color="#FAFAFA" stop-opacity="0" offset="1"/>
			</radialGradient>
			<path fill="url(#SVGID_37_)" d="m694.3 449.3c0.4 0.3 0.9 0.5 1.3 0.8 0 0.1 0.1 0.1 0.2 0.2 0 0 0 0.1-0.2 0.2h-0.2-0.1c-0.6-0.3-1-0.5-1.5-0.8h0.1s0 0.1 0.1 0.1 0.2-0.1 0.2-0.1c0.1-0.1 0.2-0.1 0.2-0.1-0.1-0.2-0.1-0.2-0.1-0.3z"/>
				<radialGradient id="SVGID_38_" gradientUnits="userSpaceOnUse" cy="431.9" cx="536.95" gradientTransform="matrix(1 0 0 .1898 0 349.91)" r="32.725">
				<stop stop-color="#fff" stop-opacity=".6706" offset="0"/>
				<stop stop-color="#FAFAFA" stop-opacity="0" offset="1"/>
			</radialGradient>
			<path fill="url(#SVGID_38_)" d="m565 440.3v-0.3c0.8 0.1 1.6 0.2 2.5 0.4 0.1 0 0.1 0 0.1 0.1-0.1 0-0.1 0-0.1 0.1s-0.1 0.1-0.2 0.1c-0.8-0.1-1.5-0.3-2.3-0.3v-0.1z"/>
				<radialGradient id="SVGID_39_" gradientUnits="userSpaceOnUse" cy="431.75" cx="536.95" gradientTransform="matrix(1 0 0 .1898 0 349.79)" r="32.725">
				<stop stop-color="#fff" stop-opacity=".6706" offset="0"/>
				<stop stop-color="#FAFAFA" stop-opacity="0" offset="1"/>
			</radialGradient>
			<path fill="url(#SVGID_39_)" d="m565 440.3h-0.2c-3.7-0.6-7.3-1.6-10.8-3s-6.8-2.8-10-4c-1.2-0.5-2.5-0.9-3.8-1.2-5.8-1.1-11.4-1.3-16.8-0.7-5.5 0.6-9.8 1.8-12.8 3.6-2.4 1.5-4.5 3.1-6.2 5-0.9 1-1.7 2-2.5 3 0 0.1 0 0.1-0.1 0.1h-0.2v-0.1c-0.1 0-0.1-0.1 0-0.1 0.8-1 1.6-2 2.5-3 1.7-1.9 3.7-3.6 6.2-5.1 3.1-1.7 6.7-3 10.8-3.7 3.7-0.7 7.5-0.9 11.4-0.6l0.2 0.1c4.1 0.2 8 1 11.6 2.5 3.2 1.3 6.5 2.7 10 4 3.4 1.4 6.9 2.3 10.6 3v0.2z"/>
		</g>
	<g clip-rule="evenodd" fill-rule="evenodd">
		<path fill="#4F4D48" d="m490 483.5h-0.8v-99.2h0.8v99.2zm14.3 0v-99.2h1v99.2h-1z"/>
		<polygon points="489.3 384.3 490.1 376.2 504.9 376.2 505.3 384.3 504.3 384.3 490 384.3" fill="#77736F"/>
		<linearGradient id="SVGID_40_" y2="483.61" gradientUnits="userSpaceOnUse" x2="496.27" y1="384.19" x1="497.98">
			<stop stop-color="#4F4D48" offset="0"/>
			<stop stop-color="#615E5A" offset=".3804"/>
			<stop stop-color="#232221" offset="1"/>
		</linearGradient>
		<rect height="99.2" width="14.3" y="384.3" x="490" fill="url(#SVGID_40_)"/>
	</g>
	<linearGradient id="SVGID_41_" y2="326.09" gradientUnits="userSpaceOnUse" x2="495.94" y1="382.89" x1="496.21">
		<stop stop-color="#4F4D48" offset="0"/>
		<stop stop-color="#6C6868" offset=".8039"/>
		<stop stop-color="#888480" offset=".8314"/>
		<stop stop-color="#75716D" offset=".8549"/>
		<stop stop-color="#77736F" offset="1"/>
	</linearGradient>
	<polygon points="475.6 334.8 477.8 326.7 515.4 326.7 516.6 335 516.6 383.4 475.6 383.4" fill="url(#SVGID_41_)" clip-rule="evenodd" fill-rule="evenodd"/>
		<g clip-rule="evenodd" fill-rule="evenodd">
			<path d="m497.2 339c0.7 0 1.3 0.3 1.8 0.8s0.8 1.1 0.8 1.8v33.9c0 0.7-0.3 1.3-0.8 1.8s-1.1 0.8-1.8 0.8c-0.7 0-1.4-0.3-1.9-0.8s-0.7-1.1-0.7-1.8v-33.9c0-0.7 0.2-1.3 0.7-1.8s1.1-0.8 1.9-0.8z"/>
				<path stroke-linejoin="round" d="m497.2 339c-0.7 0-1.4 0.3-1.9 0.8s-0.7 1.1-0.7 1.8v33.9c0 0.7 0.2 1.3 0.7 1.8s1.1 0.8 1.9 0.8c0.7 0 1.3-0.3 1.8-0.8s0.8-1.1 0.8-1.8v-33.9c0-0.7-0.3-1.3-0.8-1.8s-1.2-0.8-1.8-0.8z" stroke="#626059" stroke-linecap="round" stroke-miterlimit="3" stroke-width=".5" fill="none"/>
		</g>
		<g clip-rule="evenodd" fill-rule="evenodd">
			<linearGradient id="SVGID_42_" y2="545.38" gradientUnits="userSpaceOnUse" x2="552.32" y1="545.38" x1="385.47">
				<stop stop-color="#201F1D" offset="0"/>
				<stop stop-color="#798287" offset="1"/>
			</linearGradient>
			<path fill="url(#SVGID_42_)" d="m639.8 636.4c-0.5 0.9-1.8 1.5-3.8 1.9-0.5 0.1-1 0.2-1.6 0.2h-417.5c-4.2-0.5-6.4-1.7-6.8-3.8l68.9-182.4h301.5l57.5 175.6 1.8 6.1 0.2 0.5 0.1 0.4c0 0.6-0.1 1.1-0.3 1.5z"/>
			<linearGradient id="SVGID_43_" y2="646.3" gradientUnits="userSpaceOnUse" x2="692.35" y1="646.3" x1="324.95">
				<stop stop-color="#272521" offset="0"/>
				<stop stop-color="#55564C" offset="1"/>
			</linearGradient>
			<path fill="url(#SVGID_43_)" d="m210.1 634.7c0.3 2.1 2.6 3.3 6.8 3.8h417.4c0.6 0 1.1-0.1 1.6-0.2 2.1-0.4 3.3-1 3.8-1.9v17c0.3 3.1-1.7 4.6-6.1 4.5h-417.6c-4.4-0.4-6.4-2.2-6-5.3v-18h0.1z"/>
		</g>
		<path fill="#09090B" clip-rule="evenodd" d="m234.2 588.1l0.3-0.5 385.4 0.2 1 1.3v6.4c-0.2 1.5-1.1 2.2-2.9 2.1h0.4l-381.5-0.1h0.3c-1.8 0.1-2.8-0.7-2.9-2.2v-7.2z" fill-rule="evenodd"/>
		<linearGradient id="SVGID_44_" y2="521.24" gradientUnits="userSpaceOnUse" x2="699.05" y1="521.24" x1="250.15">
			<stop stop-color="#272928" offset=".0039216"/>
			<stop stop-color="#5B606F" offset="1"/>
		</linearGradient>
		<path fill="url(#SVGID_44_)" clip-rule="evenodd" d="m258.6 519.5c0.6-2.6 2.2-3.8 4.9-3.6h332.8c0.9 0 1.8 0.6 2.6 1.9l3.1 9h-346l2.7-7.7-0.1 0.4z" fill-rule="evenodd"/>
		<linearGradient id="SVGID_45_" y2="558.62" gradientUnits="userSpaceOnUse" x2="664.89" y1="558.62" x1="214.01">
			<stop stop-color="#7B8177" offset="0"/>
			<stop stop-color="#DCE3EB" offset="1"/>
		</linearGradient>
		<path fill="url(#SVGID_45_)" clip-rule="evenodd" d="m234.4 589c-0.1-0.3-0.2-0.6-0.1-0.9l3.8-11.9 17.1-48.5c0.5-1.2 1.3-1.8 2.4-1.9h341.7c1 0.1 1.9 0.3 2.7 0.7 0.4 0.2 0.6 0.4 0.8 0.8l18.1 61.1c0.3 1.7-1.2 2.6-4.5 2.8h-377.1c-2.8-0.3-4.4-1-4.9-2.2z" fill-rule="evenodd"/>
		<g clip-rule="evenodd" fill-rule="evenodd">
			<linearGradient id="SVGID_46_" y2="577.22" gradientUnits="userSpaceOnUse" x2="425.56" y1="532.97" x1="425.56">
				<stop stop-color="#6D7292" offset=".086275"/>
				<stop stop-color="#232529" offset=".298"/>
				<stop stop-color="#07090A" offset=".9333"/>
				<stop stop-color="#64564F" offset="1"/>
			</linearGradient>
			<path fill="url(#SVGID_46_)" d="m551 541.3c2.1 1.8 2.8 4.2 2.3 7.2l-2.3 29.9h-253.3v-36.9c0.5-0.1 1-0.2 1.6-0.2h0.1 0.2 251.2 0.2z"/>
				<linearGradient id="SVGID_47_" y2="320.63" gradientUnits="userSpaceOnUse" x2="571.15" gradientTransform="matrix(.8486 .529 -.5553 .8322 .00015175 -.00049770)" y1="320.63" x1="508.25">
				<stop stop-color="#fff" offset="0"/>
				<stop offset="1"/>
			</linearGradient>
			<path fill="url(#SVGID_47_)" d="m297.7 578.4h-9.4c-3.1-0.3-4.3-1.3-3.6-3.2l9.5-30.5c0.6-1.7 1.8-2.8 3.5-3.2v36.9z"/>
			<path d="m551 541.3c3.1 0.2 4.8 1.3 5.2 3.4l4.6 29.5c0.2 2.3-0.8 3.7-2.9 4.2h-6.9l2.3-29.9c0.5-3-0.3-5.4-2.3-7.2z"/>
		</g>
		<linearGradient id="SVGID_48_" y2="559.88" gradientUnits="userSpaceOnUse" x2="562.73" y1="559.88" x1="541.78">
			<stop stop-color="#020202" stop-opacity="0" offset="0"/>
			<stop stop-color="#020202" stop-opacity=".3333" offset=".2353"/>
			<stop stop-color="#010101" offset=".5725"/>
			<stop stop-color="#010101" stop-opacity=".3137" offset=".7451"/>
			<stop stop-opacity="0" offset="1"/>
		</linearGradient>
		<path fill="url(#SVGID_48_)" clip-rule="evenodd" d="m550.8 541.3h0.2c3.1 0.2 4.8 1.3 5.2 3.4l4.6 29.5c0.2 2.3-0.8 3.7-2.9 4.2h-30.3v-37.1h23.2z" fill-rule="evenodd"/>
		<linearGradient id="SVGID_49_" y2="559.88" gradientUnits="userSpaceOnUse" x2="308.56" y1="559.88" x1="288.04">
			<stop stop-color="#010101" stop-opacity="0" offset=".1176"/>
			<stop stop-color="#010101" stop-opacity=".3216" offset=".3059"/>
			<stop stop-color="#010101" stop-opacity=".9333" offset=".5176"/>
			<stop stop-color="#010101" stop-opacity=".2431" offset=".7373"/>
			<stop stop-opacity="0" offset="1"/>
		</linearGradient>
		<path fill="url(#SVGID_49_)" clip-rule="evenodd" d="m299.5 541.3h0.2 30.2v37.1h-41.4c-3.1-0.3-4.3-1.3-3.6-3.2l9.5-30.5c0.6-1.7 1.7-2.8 3.4-3.2 0.5-0.1 1-0.2 1.6-0.2h0.1z" fill-rule="evenodd"/>
		<g clip-rule="evenodd" fill-rule="evenodd">
			<radialGradient id="SVGID_50_" gradientUnits="userSpaceOnUse" cy="542.3" cx="296.7" r="3.85">
				<stop stop-color="#fff" offset="0"/>
				<stop stop-color="#F7F7F7" stop-opacity="0" offset="1"/>
			</radialGradient>
			<path fill="url(#SVGID_50_)" d="m300.6 541c-0.2 0.2-0.4 0.3-0.5 0.3h-0.5c-2.7-0.2-4.6 0.8-5.5 3v-0.2c-0.1-0.2-0.3-0.3-0.5-0.4s-0.4 0-0.6 0-0.3 0.3-0.4 0.5l-0.1 0.2c-0.1-0.2-0.1-0.4 0-0.6 1.1-3.2 3.5-4.6 7.3-4.3h0.4c0.2 0 0.4 0.1 0.5 0.3-0.2 0.2-0.3 0.4-0.3 0.6s0.1 0.4 0.2 0.6z"/>
			<radialGradient id="SVGID_51_" gradientUnits="userSpaceOnUse" cy="557.39" cx="289.31" r="13.545">
				<stop stop-color="#fff" offset="0"/>
				<stop stop-color="#F7F7F7" stop-opacity="0" offset="1"/>
			</radialGradient>
			<path fill="url(#SVGID_51_)" d="m294.1 544.3c0.1 0.2 0.1 0.3 0 0.5l-8.1 25.8c-0.1 0.2-0.2 0.4-0.4 0.5s-0.4 0.1-0.6 0-0.4-0.3-0.5-0.4c-0.1-0.2-0.2-0.4-0.1-0.6l8.1-25.6 0.1-0.2c0.1-0.2 0.2-0.4 0.4-0.5s0.4-0.1 0.6 0c0.2 0.1 0.4 0.2 0.5 0.4v0.1z"/>
			<radialGradient id="SVGID_52_" gradientUnits="userSpaceOnUse" cy="540.35" cx="326.35" r="25.525">
				<stop stop-color="#fff" offset="0"/>
				<stop stop-color="#F7F7F7" stop-opacity="0" offset="1"/>
			</radialGradient>
			<path fill="url(#SVGID_52_)" d="m300.6 539.8c0.2-0.2 0.4-0.3 0.6-0.3h50.7c0.2 0 0.4 0.1 0.5 0.3 0.2 0.2 0.3 0.4 0.3 0.5 0 0.2-0.1 0.4-0.3 0.6s-0.4 0.3-0.5 0.3h-50.7c-0.2 0-0.4-0.1-0.6-0.3s-0.3-0.4-0.3-0.6c0.1-0.1 0.2-0.3 0.3-0.5z"/>
			<radialGradient id="SVGID_53_" gradientUnits="userSpaceOnUse" cy="540.2" cx="461.65" r="87.162">
				<stop stop-color="#fff" offset="0"/>
				<stop stop-color="#fff" stop-opacity=".6627" offset=".7922"/>
				<stop stop-color="#fff" stop-opacity="0" offset="1"/>
			</radialGradient>
			<path fill="url(#SVGID_53_)" d="m548.5 539.3h0.3c0.2 0 0.4 0.1 0.6 0.3s0.3 0.4 0.3 0.6-0.1 0.4-0.3 0.6 0 0.1-0.1 0.1c-0.1 0.1-0.3 0.1-0.5 0.1h-174.3c-0.2 0-0.4-0.1-0.6-0.3s-0.3-0.4-0.3-0.6 0.1-0.4 0.3-0.6c0.2-0.2 0.4-0.3 0.6-0.3h174z"/>
			<radialGradient id="SVGID_54_" gradientUnits="userSpaceOnUse" cy="543.15" cx="553.1" r="4.775">
				<stop stop-color="#fff" offset="0"/>
				<stop stop-color="#fff" stop-opacity=".6627" offset=".7922"/>
				<stop stop-color="#fff" stop-opacity="0" offset="1"/>
			</radialGradient>
			<path fill="url(#SVGID_54_)" d="m548.5 539.3c0.1-0.1 0.3-0.1 0.5-0.1 3.1-0.1 5.3 0.4 6.8 1.5 1.6 1.1 2.4 2.7 2.2 5 0 0.2-0.1 0.4-0.3 0.5-0.2 0.2-0.4 0.2-0.6 0.2s-0.4-0.1-0.6-0.3-0.3-0.3-0.3-0.5c0.1-1.6-0.3-2.7-1.4-3.5-1.2-0.8-3.1-1.2-5.6-1.1l0.1-0.1c0.2-0.2 0.3-0.4 0.3-0.6s-0.1-0.4-0.3-0.6c-0.2-0.2-0.4-0.3-0.6-0.3h-0.2z"/>
		</g>
		<linearGradient id="SVGID_55_" y2="481.38" gradientUnits="userSpaceOnUse" x2="547.21" y1="481.38" x1="316.99">
			<stop stop-color="#D1D6D9" offset="0"/>
			<stop stop-color="#E9ECED" offset="1"/>
		</linearGradient>
		<path fill="url(#SVGID_55_)" clip-rule="evenodd" d="m282.7 449.6c0.6-1.7 1.9-2.6 4-2.7h286.5c0.9 0 1.7 0.2 2.4 0.5 0.5 0.3 0.8 0.6 0.9 0.9l19.6 67.5h-336.7l23.3-66.2z" fill-rule="evenodd"/>
		<g clip-rule="evenodd" fill-rule="evenodd">
			<path d="m567.9 478.8c0.1 0 0.3 0 0.4 0.1 0.2 0 0.3 0.1 0.3 0.3v0.1l-0.5 0.7c0 0.1 0 0.3 0.1 0.3 0.1 0.1 0.2 0.2 0.3 0.2l1.4 0.4v0.1c0.1 0.1 0 0.3 0 0.5 0 0-0.1 0.1-0.2 0.1-0.1 0.1-0.3 0.2-0.5 0.2l-1-0.3h-0.3c-0.5 0-0.9 0.2-1.2 0.5l-0.4 0.6c-0.1 0.1-0.2 0.2-0.4 0.1l-0.7-0.2c-0.1 0-0.1 0-0.1-0.1v-0.1l0.3-0.6c0.2-0.3 0.2-0.5 0-0.7-0.1-0.1-0.2-0.2-0.4-0.2h-0.1l-0.9-0.3c-0.1-0.1-0.2-0.1-0.1-0.3l0.3-0.5c0.1-0.1 0.2-0.2 0.4-0.1l0.9 0.2c0.2 0.1 0.4 0.1 0.7 0 0.1 0 0.3-0.1 0.3-0.2 0.2 0 0.4-0.1 0.5-0.3l0.5-0.6c0.2 0.1 0.3 0.1 0.4 0.1z"/>
			<path fill="#473A32" d="m565.2 482.5v0.3l-0.3-0.2 0.4-1c0.2-0.2 0.2-0.4 0-0.6-0.3-0.1-0.5-0.2-0.8-0.3h-0.8c-0.1 0-0.1-0.1-0.1-0.2l0.5-0.7c0.1-0.2 0.5-0.2 1 0 0.5 0.1 1 0.1 1.3 0 0.3-0.2 0.5-0.4 0.7-0.6l0.2-0.2c0.1-0.1 0.3-0.2 0.6-0.2v0.1c-0.1 0-0.3 0-0.4 0.1l-0.5 0.6c-0.1 0.1-0.3 0.2-0.5 0.3-0.1 0.1-0.2 0.1-0.3 0.2h-0.7l-0.9-0.2c-0.2-0.1-0.3 0-0.4 0.1l-0.3 0.5c-0.1 0.1 0 0.2 0.1 0.3l0.9 0.3h0.1c0.2 0 0.3 0.1 0.4 0.2 0.2 0.2 0.2 0.4 0 0.7l-0.3 0.6c0.1-0.2 0.1-0.2 0.1-0.1z"/>
				<radialGradient id="SVGID_56_" gradientUnits="userSpaceOnUse" cy="-561.12" cx="483.54" gradientTransform="matrix(.0075401 1 1.5203 -.011464 1414.2 -10.664)" r="5.2126">
				<stop stop-color="#FDFDFB" offset="0"/>
				<stop stop-color="#030303" offset="1"/>
			</radialGradient>
			<path fill="url(#SVGID_56_)" d="m565.2 482.7l1.1 0.3 0.7-0.9c0.2-0.3 0.6-0.5 1-0.5h0.3l1.2 0.5 0.5-0.2 0.4-0.5c0.2-0.2 0.1-0.3-0.3-0.3v-0.1l-1.4-0.4c-0.1 0-0.2-0.1-0.3-0.2l0.6-1.1-0.1-0.3-0.5-0.2h-0.4c-0.3 0-0.5 0.1-0.6 0.2l-0.2 0.2c-0.2 0.2-0.4 0.4-0.7 0.6-0.3 0.1-0.8 0.1-1.3 0-0.5-0.2-0.9-0.2-1 0l-0.5 0.7c0 0.1 0 0.2 0.1 0.2h0.8c0.3 0.1 0.5 0.2 0.8 0.3 0.1 0.2 0.1 0.4 0 0.6l-0.4 1 0.2 0.1zm5.1 0.1c-0.1 0.1-0.3 0.2-0.3 0.3-0.8 0.5-1.8 0.7-3 0.7s-2.3-0.3-3.2-0.8c-0.1 0-0.1-0.1-0.2-0.1-0.4-0.3-0.8-0.6-1.1-1 0-0.1-0.1-0.3-0.1-0.4-0.1-0.2-0.1-0.4-0.2-0.6 0.1-0.7 0.6-1.3 1.4-1.8 0.9-0.6 2-1 3.3-1s2.5 0.3 3.5 0.8c0.6 0.4 1 0.9 1.3 1.4v0.1s0 0.2 0 0.3c0 1-0.5 1.6-1.4 2.1z"/>
			<path fill="#FEFFF7" d="m565.2 482.7v-0.3c0 0.1 0.1 0.1 0.1 0.1l0.7 0.2c0.1 0.1 0.3 0 0.4-0.1l0.4-0.6c0.3-0.3 0.7-0.5 1.2-0.5-0.4 0.1-0.8 0.3-1 0.5l-0.7 0.9-1.1-0.2zm3.1-1.1l1.1 0.3c0.2 0 0.4-0.1 0.5-0.2 0.1 0 0.1-0.1 0.2-0.1 0.1-0.2 0.1-0.4 0-0.5 0.4 0 0.5 0.1 0.3 0.3l-0.4 0.5-0.5 0.2-1.2-0.5zm0.5-2.6l-0.1 0.2c0-0.1-0.1-0.2-0.3-0.3s-0.3-0.1-0.4-0.1v-0.1h0.4l0.4 0.3z"/>
			<path fill="#fff" d="m568.7 479.2l0.1-0.2 0.1 0.3-0.6 1.1c-0.1-0.1-0.1-0.2-0.1-0.3l0.5-0.7v-0.2z"/>
				<linearGradient id="SVGID_57_" y2="517.39" gradientUnits="userSpaceOnUse" x2="504.08" gradientTransform="matrix(.998 -.063071 .1301 .9938 .00047411 .00012676)" y1="517.39" x1="497.34">
				<stop stop-color="#070707" offset="0"/>
				<stop stop-color="#EFEFED" offset=".4471"/>
				<stop stop-color="#0E0E0E" offset="1"/>
			</linearGradient>
			<path fill="url(#SVGID_57_)" d="m562.3 481v0.6l0.1 0.1s0 0.1 0 0.1 0.1 0.1 0.1 0.2c0.2 0.4 0.5 0.8 1 1.1 0.1 0 0.1 0.1 0.2 0.1 1 0.6 2.1 0.8 3.3 0.8s2.2-0.3 3.1-0.8c0.1 0 0.1 0 0.2-0.1s0.1-0.1 0.2-0.1c0.7-0.5 1-1 1.2-1.7v-0.5-0.1c0.1 0.2 0.1 0.4 0.1 0.6 0 0.9-0.5 1.6-1.5 2.2-0.9 0.6-2 1-3.4 1-1.3 0-2.4-0.3-3.4-0.9-0.7-0.5-1.1-1-1.3-1.6v-0.3s0-0.1 0-0.2v-0.3c0.1 0 0.1-0.1 0.1-0.2z"/>
				<linearGradient id="SVGID_58_" y2="526.98" gradientUnits="userSpaceOnUse" x2="471.86" gradientTransform="matrix(.9965 -.084089 .1889 .9876 -.00012544 .000040084)" y1="526.98" x1="465.92">
				<stop stop-color="#6C6B67" offset="0"/>
				<stop stop-color="#2B281F" offset="1"/>
			</linearGradient>
			<polygon points="571.8 480.7 571.8 480.7 571.8 480.5" fill="url(#SVGID_58_)"/>
				<linearGradient id="SVGID_59_" y2="338.94" gradientUnits="userSpaceOnUse" x2="761.16" gradientTransform="matrix(.9733 .2296 -.5047 .9084 .00020409 .00031707)" y1="338.94" x1="752.99">
				<stop stop-color="#070707" offset="0"/>
				<stop stop-color="#EFEFED" offset=".4471"/>
				<stop stop-color="#0E0E0E" offset="1"/>
			</linearGradient>
			<path fill="url(#SVGID_59_)" d="m567 484c-1.3 0-2.4-0.3-3.3-0.8 0 0-0.1-0.1-0.2-0.1-0.4-0.3-0.8-0.7-1-1.1 0-0.1-0.1-0.1-0.1-0.2s0-0.1 0-0.1 0-0.1-0.1-0.1v-0.6c0 0.2 0.1 0.5 0.2 0.6s0.1 0.2 0.1 0.4c0.3 0.4 0.6 0.7 1.1 1 0.1 0 0.1 0.1 0.2 0.1 0.9 0.5 2 0.8 3.2 0.8s2.2-0.2 3-0.7c0.1-0.1 0.2-0.2 0.3-0.2h0.2l-0.2-0.1c0.9-0.5 1.3-1.2 1.4-2v0.5c-0.1 0.6-0.5 1.2-1.2 1.7 0 0-0.1 0.1-0.2 0.1s-0.1 0.1-0.2 0.1c-0.9 0.4-1.9 0.7-3.2 0.7z"/>
			<polygon points="567 484 567 484" fill="#100A00"/>
		</g>
				<g clip-rule="evenodd" fill-rule="evenodd">
						<radialGradient id="SVGID_60_" gradientUnits="userSpaceOnUse" cy="-560.98" cx="483.77" gradientTransform="matrix(.0079335 1 1.5227 -.012081 1415.2 -11.227)" r="4.9501">
						<stop stop-color="#FFFDFD" offset="0"/>
						<stop stop-color="#FFFDFD" offset=".066667"/>
						<stop stop-color="#A3A3A2" offset=".3176"/>
						<stop stop-color="#6E6E6D" offset=".6471"/>
						<stop stop-color="#171717" offset="1"/>
					</radialGradient>
					<path fill="url(#SVGID_60_)" d="m572.2 480.3c0 0.1-0.1 0.2-0.2 0.4-0.2 0.5-0.7 1-1.4 1.3-1 0.5-2.1 0.8-3.5 0.8s-2.7-0.3-3.7-0.8c-0.7-0.4-1.1-0.8-1.3-1.3-0.1-0.1-0.1-0.3-0.1-0.5v-0.2c0-0.8 0.5-1.4 1.5-2 1-0.5 2.2-0.8 3.6-0.8 1.3 0 2.4 0.2 3.3 0.7 0.1 0 0.2 0 0.3 0.1 1 0.5 1.5 1.2 1.5 1.9v0.1 0.3z"/>
						<linearGradient id="SVGID_61_" y2="-486.24" gradientUnits="userSpaceOnUse" x2="-558.34" gradientTransform="matrix(-1 .0073169 -.0073169 -1 .00033622 -.000057446)" y1="-486.24" x1="-568.57">
						<stop stop-color="#292928" offset="0"/>
						<stop stop-color="#FFFDFD" offset=".3882"/>
						<stop stop-color="#6E6E6D" offset=".6824"/>
						<stop stop-color="#171717" offset="1"/>
					</linearGradient>
					<path fill="url(#SVGID_61_)" d="m561.9 480.2c0 0.2 0 0.3 0.1 0.5 0.2 0.5 0.7 1 1.3 1.3 1 0.6 2.3 0.8 3.7 0.8s2.6-0.3 3.5-0.8c0.7-0.4 1.2-0.8 1.4-1.3 0.1-0.2 0.1-0.3 0.2-0.4 0 0.8 0 1.2-0.1 1.3-0.3 0.8-1 1.5-2 1.9-0.9 0.3-1.9 0.5-3.1 0.5-1.4 0-2.6-0.3-3.6-0.8-0.8-0.4-1.4-0.9-1.6-1.6 0.1-0.9 0.2-1.4 0.2-1.4z"/>
				</g>
				<polygon points="567.8 479.6 569.5 480.3 568.5 480.8 566.8 480.2 565 481.3 564 480.7 565.7 479.8 564.3 479.2 565.3 478.6 566.7 479.2 568.5 478.1 569.6 478.5" fill="#030303" clip-rule="evenodd" fill-rule="evenodd"/>
				<radialGradient id="SVGID_62_" gradientUnits="userSpaceOnUse" cy="-743.38" cx="272.89" gradientTransform="matrix(-.6568 .7541 2.5177 .9365 2616.2 973.16)" r="1.0277">
				<stop stop-color="#fff" offset="0"/>
				<stop stop-color="#FEFEFE" stop-opacity=".1922" offset=".4078"/>
				<stop stop-color="#FEFEFE" stop-opacity="0" offset=".8"/>
				<stop stop-color="#FAFAFA" stop-opacity="0" offset="1"/>
			</radialGradient>
			<path fill="url(#SVGID_62_)" clip-rule="evenodd" d="m567.5 482.9c0.3 0.3 0.3 0.6 0.1 0.8-0.2 0.3-0.6 0.4-1.1 0.4-0.6 0-1.2-0.1-1.9-0.3-0.6-0.2-1-0.5-1.3-0.8s-0.3-0.6-0.2-0.8c0.2-0.3 0.7-0.4 1.3-0.4s1.2 0.1 1.9 0.3c0.5 0.1 0.9 0.4 1.2 0.8z" fill-rule="evenodd"/>
				<radialGradient id="SVGID_63_" gradientUnits="userSpaceOnUse" cy="-561.99" cx="483.98" gradientTransform="matrix(.0081206 1 2.9119 -.023647 2198.4 -17.853)" r="1.5625">
				<stop stop-color="#fff" offset="0"/>
				<stop stop-color="#FEFEFE" stop-opacity=".1922" offset=".4078"/>
				<stop stop-color="#FEFEFE" stop-opacity="0" offset=".8"/>
				<stop stop-color="#FAFAFA" stop-opacity="0" offset="1"/>
			</radialGradient>
			<path fill="url(#SVGID_63_)" clip-rule="evenodd" d="m569.3 480.3c-0.6 0.3-1.4 0.5-2.3 0.5s-1.7-0.1-2.3-0.4c-0.7-0.2-1-0.6-1-1s0.3-0.8 0.9-1.1c0.7-0.3 1.5-0.5 2.4-0.5s1.6 0.1 2.3 0.4 1 0.7 1 1c0 0.5-0.4 0.8-1 1.1z" fill-rule="evenodd"/>
				<radialGradient id="SVGID_64_" gradientUnits="userSpaceOnUse" cy="-649.08" cx="407.53" gradientTransform="matrix(-.1871 .9823 3.8826 .4912 3165.3 400.43)" r=".5344">
				<stop stop-color="#fff" offset="0"/>
				<stop stop-color="#FEFEFE" stop-opacity=".1922" offset=".4078"/>
				<stop stop-color="#FEFEFE" stop-opacity="0" offset=".8"/>
				<stop stop-color="#FAFAFA" stop-opacity="0" offset="1"/>
			</radialGradient>
			<path fill="url(#SVGID_64_)" clip-rule="evenodd" d="m567.8 481.4h1.3c0.5 0.1 0.9 0.2 1.2 0.3 0.3 0.2 0.5 0.3 0.5 0.5-0.1 0.2-0.3 0.3-0.6 0.3-0.4 0.1-0.8 0.1-1.3 0.1-0.5-0.1-0.9-0.2-1.2-0.4s-0.5-0.3-0.5-0.5c0.1-0.1 0.3-0.2 0.6-0.3z" fill-rule="evenodd"/>
		<g clip-rule="evenodd" fill-rule="evenodd">
			<path d="m295.2 481c0.1 0.1 0 0.3-0.1 0.5-0.1 0-0.1 0.1-0.1 0.1-0.1 0.1-0.3 0.2-0.5 0.2l-1-0.3h-0.3c-0.5 0-0.9 0.2-1.2 0.5l-0.4 0.6c0 0.1-0.1 0.2-0.3 0.1l-0.7-0.2s-0.1 0-0.1-0.1v-0.1l0.3-0.6c0.2-0.3 0.2-0.5 0-0.7-0.1-0.1-0.2-0.2-0.4-0.2h-0.1l-0.9-0.3c-0.1-0.1-0.2-0.1-0.1-0.3l0.3-0.5c0.1-0.1 0.3-0.2 0.5-0.1l0.8 0.2c0.2 0.1 0.4 0.1 0.6 0 0.1 0 0.3-0.1 0.5-0.2 0.2 0 0.3-0.1 0.4-0.3l0.5-0.6c0.1-0.1 0.2-0.1 0.4-0.1 0.1 0 0.3 0 0.4 0.1 0.2 0 0.3 0.1 0.3 0.3v0.1l-0.5 0.7c0 0.1 0 0.3 0.1 0.3 0.1 0.1 0.2 0.2 0.3 0.2l1.3 0.7c-0.1 0 0 0 0 0z"/>
			<path fill="#fff" d="m293.5 480.3c-0.1-0.1-0.1-0.2-0.1-0.3l0.5-0.7v-0.1l0.1-0.2 0.1 0.3-0.6 1z"/>
			<path fill="#FEFFF7" d="m293.4 481.6l1.1 0.3c0.2 0 0.4-0.1 0.5-0.2l0.1-0.1c0.1-0.2 0.1-0.4 0.1-0.5 0.3 0 0.4 0.1 0.3 0.3l-0.5 0.5-0.4 0.2-1.2-0.5zm-2.9 1.1v-0.3c0 0.1 0.1 0.1 0.1 0.1l0.7 0.2c0.2 0.1 0.3 0 0.3-0.1l0.4-0.6c0.3-0.3 0.7-0.5 1.2-0.5-0.4 0.1-0.8 0.3-1 0.5l-0.6 0.9-1.1-0.2zm2.6-3.9c0.1-0.1 0.2-0.1 0.4 0l0.4 0.2-0.1 0.2c0-0.1-0.1-0.2-0.3-0.3-0.1 0-0.2-0.1-0.4-0.1z"/>
				<radialGradient id="SVGID_65_" gradientUnits="userSpaceOnUse" cy="-286.36" cx="481.51" gradientTransform="matrix(.0076752 1 1.47 -.011283 707.31 -5.4288)" r="5.2126">
				<stop stop-color="#FDFDFB" offset="0"/>
				<stop stop-color="#030303" offset="1"/>
			</radialGradient>
			<path fill="url(#SVGID_65_)" d="m294 479l-0.4-0.2h-0.4c-0.4 0-0.6 0.1-0.6 0.2l-0.2 0.2-0.6 0.6c-0.4 0.1-0.8 0.1-1.3 0-0.5-0.2-0.9-0.2-1 0l-0.5 0.7c-0.1 0.1 0 0.2 0 0.2h0.8c0.3 0.1 0.5 0.2 0.8 0.3 0.1 0.2 0.1 0.4-0.1 0.6l-0.3 1 0.3 0.2 1.1 0.3 0.6-0.9c0.2-0.3 0.5-0.5 1-0.5h0.2l1.3 0.5 0.4-0.2 0.5-0.5c0.1-0.2 0-0.3-0.3-0.3l-0.1-0.1-1.4-0.4c-0.1 0-0.2-0.1-0.3-0.2l0.6-1.1-0.1-0.4zm2.8 1.8c-0.1 0.8-0.5 1.5-1.3 2v0.1c-0.1 0-0.2 0.1-0.3 0.2-0.8 0.5-1.8 0.7-2.9 0.7-1.2 0-2.2-0.3-3.1-0.8-0.1 0-0.1-0.1-0.1-0.1-0.4-0.3-0.8-0.6-1-1-0.1-0.1-0.1-0.3-0.2-0.4s-0.1-0.3-0.1-0.4v-0.1c0.1-0.7 0.5-1.3 1.3-1.8 0.9-0.6 2-1 3.3-1s2.4 0.3 3.3 0.8c0.6 0.4 1 0.9 1.2 1.4v0.1c-0.1 0.1-0.1 0.2-0.1 0.3z"/>
				<linearGradient id="SVGID_66_" y2="500.56" gradientUnits="userSpaceOnUse" x2="234.84" gradientTransform="matrix(.9979 -.064996 .1223 .9942 .00041359 .000012904)" y1="500.56" x1="228.3">
				<stop stop-color="#070707" offset="0"/>
				<stop stop-color="#EFEFED" offset=".4471"/>
				<stop stop-color="#0E0E0E" offset="1"/>
			</linearGradient>
			<path fill="url(#SVGID_66_)" d="m296.8 480.8v-0.2h0.1c0.1 0.2 0.1 0.4 0.1 0.6 0 0.9-0.5 1.6-1.4 2.2s-1.9 1-3.2 1-2.4-0.3-3.4-0.9c-0.7-0.5-1.1-1-1.3-1.6v-0.3c0-0.1-0.1-0.1-0.1-0.2v-0.3c0-0.1 0-0.3 0.1-0.3v0.2 0.4 0.1 0.1s0.1 0.1 0.1 0.2c0.2 0.4 0.5 0.8 1 1.1 0.1 0 0.1 0.1 0.1 0.1 0.9 0.6 2 0.8 3.3 0.8 1.2 0 2.2-0.3 3-0.8 0.1 0 0.1 0 0.2-0.1s0.1-0.1 0.2-0.1c0.6-0.5 1-1 1.1-1.7 0.1 0.1 0.1-0.1 0.1-0.3z"/>
				<linearGradient id="SVGID_67_" y2="504.51" gradientUnits="userSpaceOnUse" x2="206.28" gradientTransform="matrix(.9962 -.086630 .1772 .9884 -.00035565 -.000023171)" y1="504.51" x1="200.51">
				<stop stop-color="#6C6B67" offset="0"/>
				<stop stop-color="#2B281F" offset="1"/>
			</linearGradient>
			<path fill="url(#SVGID_67_)" d="m296.9 480.7l-0.1-0.1c0-0.1 0.1 0 0.1 0.1z"/>
				<linearGradient id="SVGID_68_" y2="399.15" gradientUnits="userSpaceOnUse" x2="503.38" gradientTransform="matrix(.9716 .2366 -.4865 .9108 -.000022948 0)" y1="399.15" x1="495.45">
				<stop stop-color="#070707" offset="0"/>
				<stop stop-color="#EFEFED" offset=".4471"/>
				<stop stop-color="#0E0E0E" offset="1"/>
			</linearGradient>
			<path fill="url(#SVGID_68_)" d="m287.7 481.2c0 0.1 0 0.3 0.1 0.4s0.1 0.2 0.2 0.4c0.2 0.4 0.6 0.7 1 1l0.1 0.1c0.9 0.5 1.9 0.8 3.1 0.8 1.1 0 2.1-0.2 2.9-0.7 0.1-0.1 0.2-0.2 0.3-0.2h0.2c-0.1 0-0.1 0.1-0.2 0.1 0 0-0.1 0.1-0.2 0.1-0.8 0.5-1.8 0.8-3 0.8-1.3 0-2.4-0.3-3.3-0.8l-0.1-0.1c-0.4-0.3-0.8-0.7-1-1.1 0-0.1-0.1-0.1-0.1-0.2v-0.1-0.1-0.4zm9.1-0.4v0.5c-0.1 0.6-0.5 1.2-1.1 1.7l-0.2-0.1c0.8-0.6 1.2-1.2 1.3-2.1z"/>
			<path fill="#473A32" d="m290.5 482.5v0.3l-0.3-0.2 0.3-1c0.2-0.2 0.2-0.4 0.1-0.6-0.3-0.1-0.5-0.2-0.8-0.3h-0.8c-0.1 0-0.1-0.1 0-0.2l0.5-0.7c0.1-0.2 0.5-0.2 1 0 0.5 0.1 0.9 0.1 1.3 0l0.6-0.6 0.2-0.2c0-0.1 0.2-0.2 0.6-0.2v0.1c-0.2 0-0.3 0-0.4 0.1l-0.5 0.6c-0.1 0.1-0.2 0.2-0.4 0.3s-0.3 0.1-0.5 0.2h-0.6l-0.8-0.2c-0.2-0.1-0.3 0-0.5 0.1l-0.3 0.5c-0.1 0.1 0 0.2 0.1 0.3l0.9 0.3h0.1c0.1 0 0.3 0.1 0.4 0.2 0.2 0.2 0.2 0.4 0 0.7l-0.3 0.6c0.1-0.2 0.1-0.2 0.1-0.1z"/>
		</g>
				<g clip-rule="evenodd" fill-rule="evenodd">
						<radialGradient id="SVGID_69_" gradientUnits="userSpaceOnUse" cy="-286.22" cx="481.63" gradientTransform="matrix(.0080757 1 1.4722 -.011889 707.58 -5.7142)" r="4.9501">
						<stop stop-color="#FFFDFD" offset="0"/>
						<stop stop-color="#FFFDFD" offset=".066667"/>
						<stop stop-color="#A3A3A2" offset=".3176"/>
						<stop stop-color="#6E6E6D" offset=".6471"/>
						<stop stop-color="#171717" offset="1"/>
					</radialGradient>
					<path fill="url(#SVGID_69_)" d="m287.3 480.2v-0.2c0-0.8 0.5-1.4 1.5-2 0.9-0.5 2.1-0.8 3.5-0.8 1.2 0 2.3 0.2 3.3 0.7 0.1 0 0.2 0 0.3 0.1 0.9 0.5 1.4 1.2 1.5 1.9v0.1c0 0.2-0.1 0.3-0.2 0.5-0.2 0.5-0.6 1-1.3 1.3-0.9 0.5-2.1 0.8-3.5 0.8s-2.5-0.3-3.5-0.8c-0.7-0.4-1.2-0.8-1.4-1.3-0.2 0-0.2-0.1-0.2-0.3z"/>
						<linearGradient id="SVGID_70_" y2="-484.27" gradientUnits="userSpaceOnUse" x2="-283.65" gradientTransform="matrix(-1 .0074373 -.0074373 -1 .00013030 -.00035790)" y1="-484.27" x1="-293.55">
						<stop stop-color="#292928" offset="0"/>
						<stop stop-color="#FFFDFD" offset=".3882"/>
						<stop stop-color="#6E6E6D" offset=".6824"/>
						<stop stop-color="#171717" offset="1"/>
					</linearGradient>
					<path fill="url(#SVGID_70_)" d="m297.2 480.2c0 0.9 0 1.3-0.1 1.4-0.3 0.8-1 1.5-1.9 1.9-0.9 0.3-1.9 0.5-3 0.5-1.4 0-2.5-0.3-3.5-0.8-0.8-0.4-1.3-0.9-1.5-1.6v-1.4c0 0.2 0 0.3 0.1 0.5 0.2 0.5 0.6 1 1.4 1.3 1 0.6 2.1 0.8 3.5 0.8s2.5-0.3 3.5-0.8c0.7-0.4 1.1-0.8 1.3-1.3 0.1-0.2 0.2-0.3 0.2-0.5z"/>
				</g>
				<polygon points="294.7 480.3 293.6 480.8 292 480.2 290.3 481.3 289.3 480.7 291 479.8 289.6 479.2 290.6 478.6 291.9 479.2 293.6 478.1 294.8 478.5 292.9 479.6" fill="#030303" clip-rule="evenodd" fill-rule="evenodd"/>
				<radialGradient id="SVGID_71_" gradientUnits="userSpaceOnUse" cy="-532.88" cx="365.89" gradientTransform="matrix(-.6426 .7662 2.4716 .9516 1842.8 709.47)" r="1.0115">
				<stop stop-color="#fff" offset="0"/>
				<stop stop-color="#FEFEFE" stop-opacity=".1922" offset=".4078"/>
				<stop stop-color="#FEFEFE" stop-opacity="0" offset=".8"/>
				<stop stop-color="#FAFAFA" stop-opacity="0" offset="1"/>
			</radialGradient>
			<path fill="url(#SVGID_71_)" clip-rule="evenodd" d="m289.6 481.7c0.6 0 1.2 0.1 1.8 0.3s1 0.5 1.3 0.9c0.3 0.3 0.3 0.6 0.1 0.8-0.2 0.3-0.5 0.4-1.1 0.4s-1.1-0.1-1.8-0.3-1-0.5-1.3-0.8c-0.3-0.3-0.3-0.6-0.1-0.8 0.2-0.4 0.6-0.5 1.1-0.5z" fill-rule="evenodd"/>
				<radialGradient id="SVGID_72_" gradientUnits="userSpaceOnUse" cy="-287.18" cx="481.79" gradientTransform="matrix(.0082611 1 2.8159 -.023263 1095.8 -9.0533)" r="1.5625">
				<stop stop-color="#fff" offset="0"/>
				<stop stop-color="#FEFEFE" stop-opacity=".1922" offset=".4078"/>
				<stop stop-color="#FEFEFE" stop-opacity="0" offset=".8"/>
				<stop stop-color="#FAFAFA" stop-opacity="0" offset="1"/>
			</radialGradient>
			<path fill="url(#SVGID_72_)" clip-rule="evenodd" d="m292.1 477.8c0.8 0 1.6 0.1 2.2 0.4s1 0.7 1 1c0 0.4-0.3 0.8-1 1-0.6 0.3-1.4 0.5-2.2 0.5-0.9 0-1.6-0.1-2.3-0.4-0.6-0.2-1-0.6-1-1s0.3-0.8 0.9-1.1c0.8-0.2 1.6-0.4 2.4-0.4z" fill-rule="evenodd"/>
				<radialGradient id="SVGID_73_" gradientUnits="userSpaceOnUse" cy="-379.13" cx="440.31" gradientTransform="matrix(-.1871 .9823 3.7422 .4912 1795.3 235.64)" r=".5344">
				<stop stop-color="#fff" offset="0"/>
				<stop stop-color="#FEFEFE" stop-opacity=".1922" offset=".4078"/>
				<stop stop-color="#FEFEFE" stop-opacity="0" offset=".8"/>
				<stop stop-color="#FAFAFA" stop-opacity="0" offset="1"/>
			</radialGradient>
			<path fill="url(#SVGID_73_)" clip-rule="evenodd" d="m293 481.4h1.3c0.4 0.1 0.8 0.2 1.1 0.3 0.4 0.2 0.5 0.3 0.5 0.5s-0.3 0.3-0.7 0.3c-0.4 0.1-0.8 0.1-1.2 0.1-0.5-0.1-0.9-0.2-1.3-0.4-0.3-0.2-0.4-0.3-0.4-0.5 0.2-0.1 0.4-0.2 0.7-0.3z" fill-rule="evenodd"/>
		<linearGradient id="SVGID_74_" y2="637.85" gradientUnits="userSpaceOnUse" x2="633.28" y1="637.85" x1="218.33">
			<stop stop-color="#fff" stop-opacity="0" offset="0"/>
			<stop stop-color="#fff" offset=".2157"/>
			<stop stop-color="#fff" stop-opacity=".9804" offset=".5176"/>
			<stop stop-color="#fff" stop-opacity=".7451" offset=".749"/>
			<stop stop-color="#FDFDFD" stop-opacity="0" offset="1"/>
		</linearGradient>
		<path fill="url(#SVGID_74_)" clip-rule="evenodd" d="m216.4 638.3v-1h418.9c0.2 0 0.4 0.1 0.6 0.2s0.3 0.2 0.3 0.3-0.1 0.3-0.3 0.4-0.4 0.1-0.6 0.1h-418.9z" fill-rule="evenodd"/>
			<radialGradient id="SVGID_75_" gradientUnits="userSpaceOnUse" cy="640.95" cx="636.25" gradientTransform="matrix(1 0 0 2.275 0 -817.21)" r="3">
			<stop stop-color="#fff" offset="0"/>
			<stop stop-color="#FEFEFE" stop-opacity=".1922" offset=".4078"/>
			<stop stop-color="#FEFEFE" stop-opacity="0" offset=".8"/>
			<stop stop-color="#FAFAFA" stop-opacity="0" offset="1"/>
		</radialGradient>
		<path fill="url(#SVGID_75_)" clip-rule="evenodd" d="m639.3 641.5c0 1.8-0.3 3.3-1 4.5-0.6 1.4-1.3 2-2.1 2s-1.5-0.7-2.1-2c-0.5-1.2-0.8-2.7-0.8-4.5 0-1.7 0.3-3.3 0.8-4.7 0.6-1.3 1.3-1.9 2.1-1.9s1.5 0.6 2.1 1.9c0.7 1.4 1 2.9 1 4.7z" fill-rule="evenodd"/>
				<g clip-rule="evenodd" fill-rule="evenodd">
					<polygon points="539.1 408.4 445.3 408.4 447 394.8 535.2 394.8 539 408.3 539.1 408.1" fill="#73481E"/>
					<polygon points="445.1 410.3 539.1 410.3 539.1 410.3 539.3 411 445.1 411" fill="#24160D"/>
					<polygon points="445.3 408.4 539.1 408.4 539.1 410.3 445.1 410.3 445.1 410" fill="#613E20"/>
						<radialGradient id="SVGID_76_" fx="472.34" gradientUnits="userSpaceOnUse" cy="457.65" cx="468.95" r="86.375">
						<stop stop-color="#321F11" offset="0"/>
						<stop stop-color="#543314" offset="1"/>
					</radialGradient>
					<polygon points="445.1 411 539.3 411 554.5 500 554.8 501.4 554.5 501.4 554.5 500 436 500 435.3 499.8 445 411" fill="url(#SVGID_76_)"/>
					<linearGradient id="SVGID_77_" y2="516.33" gradientUnits="userSpaceOnUse" x2="495.92" y1="506.77" x1="494.78">
						<stop stop-color="#1C0E0B" offset="0"/>
						<stop stop-color="#101012" offset=".9882"/>
					</linearGradient>
					<polygon points="436 501.4 554.5 501.4 554.8 501.4 554.8 514.2 435 514.2 435 501.4" fill="url(#SVGID_77_)"/>
					<radialGradient id="SVGID_78_" gradientUnits="userSpaceOnUse" cy="500.75" cx="494.55" r="59.938">
						<stop stop-color="#5F4223" offset="0"/>
						<stop stop-color="#4A2D13" offset="1"/>
					</radialGradient>
					<rect height="1.5" width="118.5" y="500" x="436" fill="url(#SVGID_78_)"/>
					<polygon points="436 501.4 435 501.4 435.3 499.8 436 500" fill="#654725"/>
				</g>
			<radialGradient id="SVGID_79_" fx="490.15" gradientUnits="userSpaceOnUse" cy="451.75" cx="490.9" r="47.625">
				<stop stop-opacity=".4118" offset="0"/>
				<stop stop-opacity=".349" offset=".4902"/>
				<stop stop-opacity=".2" offset=".7725"/>
				<stop stop-opacity="0" offset="1"/>
			</radialGradient>
			<polygon points="535.2 394.8 539 408.3 539.1 410.3 554.8 501.4 554.8 514.2 435 514.2 435 501.4 445 411 445.1 411 445.1 410 447 394.8" fill="url(#SVGID_79_)" clip-rule="evenodd" fill-rule="evenodd"/>
			<polygon fill-opacity=".1098" points="545.8 500.5 445.3 500.5 450 411.4 535.2 411.4" fill="#fff" clip-rule="evenodd" fill-rule="evenodd"/>
				<g clip-rule="evenodd" fill-rule="evenodd">
					<polygon points="538 408.4 525.2 408.4 523.6 406.9 523.8 407 536.5 407" fill="#817A70"/>
					<polygon points="525.2 408.4 539.8 502 538.1 501.5 523.1 408.5 523.6 406.9" fill="#191611"/>
					<linearGradient id="SVGID_80_" y2="502.03" gradientUnits="userSpaceOnUse" x2="540.78" y1="398.13" x1="538.1">
						<stop stop-color="#43525F" offset="0"/>
						<stop stop-color="#5E6E85" offset=".549"/>
						<stop stop-color="#5E6E85" offset="1"/>
					</linearGradient>
					<polygon points="539.8 502 525.2 408.4 538 408.4 554 502.3 539.9 502.3" fill="url(#SVGID_80_)"/>
				</g>
				<g clip-rule="evenodd" fill-rule="evenodd">
					<linearGradient id="SVGID_81_" y2="518.48" gradientUnits="userSpaceOnUse" x2="437.72" y1="394.1" x1="458.56">
						<stop stop-color="#43525F" offset="0"/>
						<stop stop-color="#5E6E85" offset=".549"/>
						<stop stop-color="#5E6E85" offset="1"/>
					</linearGradient>
					<polygon points="450.2 502 450.2 502.3 436.1 502.3 446.5 408.4 459.2 408.4" fill="url(#SVGID_81_)"/>
					<polygon points="459.2 408.4 446.5 408.4 447.8 407 460.5 407 460.7 406.9" fill="#817A70"/>
					<polygon points="460.7 406.9 461.3 408.5 451.9 501.5 450.2 502 459.2 408.4" fill="#191611"/>
				</g>
					<path clip-rule="evenodd" d="m514.5 432.5c5.7 5.7 8.6 12.7 8.6 20.8s-2.9 15-8.6 20.7-12.6 8.6-20.6 8.6c-8.1 0-15-2.9-20.8-8.6-5.7-5.7-8.6-12.6-8.6-20.7s2.9-15 8.6-20.8c5.7-5.7 12.6-8.5 20.8-8.5 8.1 0 14.9 2.9 20.6 8.5z" fill-rule="evenodd"/>
			<linearGradient id="SVGID_82_" y2="443.23" gradientUnits="userSpaceOnUse" x2="521.11" y1="463.36" x1="466.69">
				<stop stop-color="#928C58" stop-opacity="0" offset="0"/>
				<stop stop-color="#928C58" offset=".3765"/>
				<stop stop-color="#948E5B" stop-opacity="0" offset="1"/>
			</linearGradient>
			<path fill="url(#SVGID_82_)" clip-rule="evenodd" d="m493.9 423.8c8.1 0 15.1 2.9 20.8 8.6 5.8 5.8 8.6 12.7 8.6 20.8s-2.9 15.1-8.6 20.8c-5.7 5.8-12.7 8.7-20.8 8.7s-15.1-2.9-20.9-8.7c-5.7-5.7-8.6-12.7-8.6-20.8s2.9-15.1 8.6-20.8c5.8-5.7 12.8-8.6 20.9-8.6zm20.6 8.9c-5.7-5.7-12.5-8.5-20.5-8.5-8.1 0-14.9 2.8-20.6 8.5s-8.5 12.6-8.5 20.6 2.8 14.9 8.5 20.5c5.7 5.7 12.5 8.5 20.6 8.5 8 0 14.9-2.8 20.5-8.5 5.7-5.7 8.5-12.5 8.5-20.5s-2.9-14.9-8.5-20.6z" fill-rule="evenodd"/>
				<radialGradient id="SVGID_83_" gradientUnits="userSpaceOnUse" cy="414.85" cx="522.4" gradientTransform="matrix(.9985 -.055013 .1229 2.2304 -50.189 -481.71)" r="2.0905">
				<stop stop-color="#fff" offset="0"/>
				<stop stop-color="#FEFEFE" stop-opacity=".1922" offset=".4078"/>
				<stop stop-color="#FEFEFE" stop-opacity="0" offset=".8"/>
				<stop stop-color="#FAFAFA" stop-opacity="0" offset="1"/>
			</radialGradient>
			<path fill="url(#SVGID_83_)" clip-rule="evenodd" d="m520.7 412.1c0.4-0.9 0.9-1.4 1.5-1.4 0.5 0 1 0.4 1.5 1.3s0.8 1.9 0.8 3.1c0.1 1.3-0.1 2.3-0.5 3.1-0.4 0.9-0.8 1.4-1.3 1.4-0.6 0.1-1.1-0.3-1.6-1.3-0.4-0.8-0.7-1.8-0.8-3 0-1.2 0.1-2.3 0.4-3.2z" fill-rule="evenodd"/>
				<radialGradient id="SVGID_84_" gradientUnits="userSpaceOnUse" cy="-480.67" cx="410.72" gradientTransform="matrix(.012986 .9999 -26.284 -.038958 -12153 -18.013)" r=".9626">
				<stop stop-color="#fff" offset="0"/>
				<stop stop-color="#FEFEFE" stop-opacity=".1922" offset=".4078"/>
				<stop stop-color="#FEFEFE" stop-opacity="0" offset=".8"/>
				<stop stop-color="#FAFAFA" stop-opacity="0" offset="1"/>
			</radialGradient>
			<path fill="url(#SVGID_84_)" clip-rule="evenodd" d="m501.4 412.1c-5 0.2-10.7 0.3-17.2 0.3-6.7 0-12.3-0.1-16.8-0.3-5-0.2-7.5-0.4-7.5-0.7 0-0.2 2.5-0.4 7.5-0.6 4.4-0.1 10-0.2 16.8-0.2 6.4 0 12.2 0.1 17.2 0.3 4.7 0.2 7 0.4 7 0.7 0.1 0.1-2.3 0.3-7 0.5z" fill-rule="evenodd"/>
				<radialGradient id="SVGID_85_" gradientUnits="userSpaceOnUse" cy="-494.29" cx="499.29" gradientTransform="matrix(.0091739 1 -18.568 -.027522 -8683.7 -12.871)" r="1.3626">
				<stop stop-color="#fff" offset="0"/>
				<stop stop-color="#FEFEFE" stop-opacity=".1922" offset=".4078"/>
				<stop stop-color="#FEFEFE" stop-opacity="0" offset=".8"/>
				<stop stop-color="#FAFAFA" stop-opacity="0" offset="1"/>
			</radialGradient>
			<path fill="url(#SVGID_85_)" clip-rule="evenodd" d="m514.3 499c4.7 0.3 7 0.6 7 1 0 0.3-2.3 0.7-7 1-5 0.3-10.7 0.4-17.2 0.3-6.7 0-12.3-0.1-16.7-0.4-5-0.3-7.5-0.6-7.5-1s2.5-0.7 7.5-1c4.4-0.2 10-0.3 16.7-0.3 6.5 0.1 12.2 0.2 17.2 0.4z" fill-rule="evenodd"/>
			<linearGradient id="SVGID_86_" y2="403.31" gradientUnits="userSpaceOnUse" x2="491.92" y1="383.89" x1="491.74">
				<stop stop-opacity=".4118" offset="0"/>
				<stop stop-opacity=".349" offset=".4627"/>
				<stop stop-opacity="0" offset="1"/>
			</linearGradient>
			<polygon points="535.2 394.8 538.3 406.5 445.5 406.5 446.8 394.8" fill="url(#SVGID_86_)" clip-rule="evenodd" fill-rule="evenodd"/>
			<g clip-rule="evenodd" fill-rule="evenodd">
				<path fill="#08080A" d="m510.2 513.2v4.5c-0.4 1.3-1.8 1.9-4.2 2h-23c-2.4-0.1-3.8-0.7-4.2-2v-4.4c0.4 1.2 1.8 1.9 4.2 1.9h23c2.4-0.1 3.8-0.7 4.2-2z"/>
				<linearGradient id="SVGID_87_" y2="513.79" gradientUnits="userSpaceOnUse" x2="494.45" y1="507.97" x1="494.5">
					<stop stop-color="#1C0E0B" offset=".0039216"/>
					<stop stop-color="#3D1C18" offset=".1294"/>
					<stop stop-color="#1E1E1F" offset=".2667"/>
					<stop stop-color="#1F2326" offset="1"/>
				</linearGradient>
				<path fill="url(#SVGID_87_)" d="m510.2 513.2c-0.4 1.3-1.8 2-4.2 2h-23c-2.3 0-3.7-0.7-4.2-1.9v-0.1-5.2h31.4v5.2z"/>
			</g>
					<radialGradient id="SVGID_88_" gradientUnits="userSpaceOnUse" cy="515.15" cx="494.2" gradientTransform="matrix(1 0 0 .089534 0 469.03)" r="20.662">
					<stop stop-color="#fff" stop-opacity=".3529" offset="0"/>
					<stop stop-color="#fff" stop-opacity="0" offset="1"/>
				</radialGradient>
				<path fill="url(#SVGID_88_)" clip-rule="evenodd" d="m502.3 515c4.2 0 6.6-0.3 7.2-0.8-0.9 0.9-2 1.3-3.5 1.3h-23c-1.7 0-2.9-0.5-3.7-1.5 0.1 0.1 0.3 0.2 0.5 0.3 0.4 0.3 3.2 0.5 8.4 0.6s9.9 0.2 14.1 0.1z" fill-rule="evenodd"/>
	<linearGradient id="SVGID_89_" y2="573.68" gradientUnits="userSpaceOnUse" x2="424.53" y1="552.56" x1="424.46">
		<stop stop-color="#16171B" offset="0"/>
		<stop stop-color="#595E61" offset=".098039"/>
		<stop stop-color="#77848D" offset=".2196"/>
		<stop stop-color="#FAFBFF" offset=".3059"/>
		<stop stop-color="#fff" offset=".3608"/>
		<stop stop-color="#A4ADE4" offset=".4314"/>
		<stop stop-color="#555C8A" offset=".502"/>
		<stop stop-color="#565B6F" offset=".6196"/>
		<stop stop-color="#353A3E" offset=".7373"/>
		<stop stop-color="#0F1012" offset="1"/>
	</linearGradient>
	<path fill="url(#SVGID_89_)" clip-rule="evenodd" d="m291.9 570.8c-0.4-2.1-0.5-4.6-0.4-7.3 0.1-2.9 0.5-5.4 1.1-7.5 0.6-2 1.3-3 1.9-3.1h260c0.7 0 1.3 1.1 2 3.1 0.6 2.1 1 4.6 1.1 7.5s0 5.3-0.4 7.3c-0.3 1.2-0.6 2.1-0.9 2.5h-263.5c-0.3-0.4-0.6-1.3-0.9-2.5z" fill-rule="evenodd"/>
	<path clip-rule="evenodd" d="m213.5 633.3l1.8-5.4h419.7c0.3 0 0.5-0.1 0.5-0.4l1.7 5.8h-1.1-422.6z" fill-rule="evenodd"/>
		<g clip-rule="evenodd" fill-rule="evenodd">
			<linearGradient id="SVGID_90_" y2="640.47" gradientUnits="userSpaceOnUse" x2="644.6" y1="623.16" x1="247.01">
				<stop stop-color="#6A6968" offset=".015686"/>
				<stop stop-color="#858481" offset=".3647"/>
				<stop stop-color="#797672" offset="1"/>
			</linearGradient>
			<path fill="url(#SVGID_90_)" d="m214.1 629.7h422.1v2.5h-420.4c-0.5-0.1-1.1-0.2-1.6-0.3-0.1-0.6-0.1-1.3-0.1-2.2z"/>
			<linearGradient id="SVGID_91_" y2="618.95" gradientUnits="userSpaceOnUse" x2="624.61" y1="618.95" x1="227.19">
				<stop stop-color="#858889" offset="0"/>
				<stop stop-color="#C2C8CD" offset=".066667"/>
				<stop stop-color="#E8ECF5" offset=".3137"/>
				<stop stop-color="#A7AEB9" offset=".4863"/>
				<stop stop-color="#B5BCC6" offset=".6"/>
				<stop stop-color="#F3F6FF" offset=".7255"/>
				<stop stop-color="#fff" offset=".8941"/>
				<stop stop-color="#E6EAF3" offset="1"/>
			</linearGradient>
			<polygon points="636.2 629.7 597.4 629.7 214.1 629.7 222.4 608.2 597.4 608.3 629.5 608.3" fill="url(#SVGID_91_)"/>
		</g>
		<path fill="#333" clip-rule="evenodd" d="m308.5 618.7v2.5h-0.3v-2l-0.3 0.3s-0.2 0.1-0.3 0.1v-0.3c0.2-0.1 0.3-0.2 0.4-0.3l0.3-0.3h0.2zm-12.9 0.5c-0.1-0.1-0.2-0.2-0.4-0.2s-0.3 0-0.3 0.1c-0.1 0.2-0.2 0.5-0.2 0.9s0 0.7 0.1 0.8 0.2 0.2 0.4 0.2 0.3-0.1 0.4-0.2c0.1-0.2 0.1-0.4 0.1-0.8 0.1-0.5 0-0.7-0.1-0.8zm0.4 0.1v0.6s0 0.5-0.1 0.7c-0.1 0.2-0.2 0.3-0.3 0.4s-0.3 0.2-0.5 0.2-0.4-0.1-0.5-0.3c-0.2-0.2-0.3-0.5-0.3-1 0-0.3 0-0.5 0.1-0.8 0.1-0.2 0.2-0.3 0.3-0.4s0.3-0.1 0.5-0.1h0.4l0.3 0.3c0 0.2 0.1 0.3 0.1 0.4zm25.7 1.9h-1.6v-0.2c0.1-0.1 0.1-0.3 0.3-0.4 0.1-0.1 0.2-0.2 0.4-0.3 0.3-0.2 0.5-0.4 0.5-0.5 0.1-0.2 0.1-0.3 0.1-0.4s0-0.2-0.1-0.3-0.2-0.1-0.3-0.1c-0.2 0-0.3 0-0.4 0.1s-0.1 0.2-0.1 0.4h-0.3c0-0.2 0.1-0.4 0.3-0.5 0.1-0.1 0.3-0.2 0.6-0.2 0.2 0 0.4 0.1 0.5 0.2s0.2 0.3 0.2 0.4 0 0.2-0.1 0.3c0 0.1-0.1 0.2-0.2 0.3s-0.2 0.2-0.5 0.4c-0.2 0.1-0.3 0.2-0.4 0.3 0 0 0 0.1-0.1 0.1h1.2v0.4zm154.5-2.5v1.5h0.3v0.3h-0.3v0.6h-0.4v-0.6h-1v-0.3l1.2-1.5h0.2zm-2.1 0v2.5h-0.3v-2l-0.3 0.3c-0.1 0.1-0.2 0.1-0.3 0.1v-0.3c0.2-0.1 0.3-0.2 0.4-0.3 0.2-0.1 0.3-0.2 0.3-0.3h0.2zm-12.8 0v2.5h-0.3v-2l-0.3 0.3c-0.1 0.1-0.2 0.1-0.3 0.1v-0.3c0.2-0.1 0.3-0.2 0.5-0.3l0.3-0.3h0.1zm-12.8 0v2.5h-0.3v-2l-0.3 0.3c-0.1 0.1-0.2 0.1-0.3 0.1v-0.3c0.2-0.1 0.3-0.2 0.4-0.3 0.2-0.1 0.3-0.2 0.3-0.3h0.2zm15.1 1.3c0.1 0.1 0.2 0.3 0.2 0.5s-0.1 0.4-0.3 0.5-0.4 0.2-0.6 0.2-0.4-0.1-0.6-0.2c-0.1-0.1-0.2-0.3-0.3-0.5h0.4c0 0.2 0 0.3 0.1 0.3 0.1 0.1 0.2 0.2 0.3 0.2s0.3 0 0.3-0.2c0.1-0.1 0.2-0.2 0.2-0.3s-0.1-0.3-0.2-0.4-0.2-0.1-0.3-0.1h-0.3v-0.3h0.1c0.1 0 0.3 0 0.4-0.1s0.1-0.2 0.1-0.4c0-0.1 0-0.2-0.1-0.3s-0.2-0.1-0.3-0.1-0.2 0-0.3 0.1-0.1 0.2-0.1 0.4l-0.3-0.1c0-0.2 0.1-0.3 0.3-0.5 0.1-0.1 0.3-0.1 0.5-0.1h0.3l0.3 0.3c0.1 0.1 0.1 0.2 0.1 0.3s0 0.2-0.1 0.3c0 0.1-0.1 0.2-0.3 0.2 0.3 0.1 0.4 0.2 0.5 0.3zm-12.8 1.2h-1.6v-0.2c0-0.1 0.1-0.3 0.2-0.4s0.2-0.2 0.4-0.3c0.3-0.2 0.4-0.4 0.5-0.5 0.1-0.2 0.2-0.3 0.2-0.4s0-0.2-0.2-0.3c-0.1-0.1-0.2-0.1-0.3-0.1-0.2 0-0.3 0-0.4 0.1s-0.2 0.2-0.2 0.4h-0.3c0-0.2 0.1-0.4 0.3-0.5 0.1-0.1 0.3-0.2 0.5-0.2s0.4 0.1 0.5 0.2c0.2 0.1 0.3 0.3 0.3 0.4v0.3c-0.1 0.1-0.1 0.2-0.2 0.3s-0.3 0.2-0.5 0.4c-0.2 0.1-0.3 0.2-0.3 0.3 0 0-0.1 0.1-0.2 0.1h1.3v0.4zm24.2-0.9h0.8v-1l-0.8 1zm-37.4-1.6v2.5h-0.3v-2l-0.3 0.3c-0.1 0.1-0.2 0.1-0.3 0.1v-0.3c0.2-0.1 0.3-0.2 0.4-0.3l0.3-0.3h0.2zm-1.6 0v2.5h-0.3v-2l-0.3 0.3c-0.1 0.1-0.2 0.1-0.3 0.1v-0.3c0.2-0.1 0.3-0.2 0.5-0.3l0.3-0.3h0.1zm-13.5 0v2.5h-0.3v-2c0 0.1-0.1 0.2-0.3 0.3-0.1 0.1-0.2 0.1-0.3 0.1v-0.3c0.2-0.1 0.3-0.2 0.5-0.3l0.3-0.3h0.1zm1.9 0.5c-0.1-0.1-0.3-0.2-0.4-0.2s-0.2 0-0.3 0.1c-0.1 0.2-0.2 0.5-0.2 0.9s0 0.7 0.1 0.8 0.3 0.2 0.3 0.2c0.1 0 0.3-0.1 0.4-0.2 0.1-0.2 0.1-0.4 0.1-0.8 0.1-0.5 0.1-0.7 0-0.8zm0.4 0.1c0.1 0.1 0.1 0.3 0.1 0.6s0 0.5-0.1 0.7c0 0.2-0.1 0.3-0.3 0.4-0.1 0.1-0.3 0.2-0.5 0.2s-0.4-0.1-0.5-0.3c-0.2-0.2-0.3-0.5-0.3-1 0-0.3 0-0.5 0.1-0.8 0-0.2 0.1-0.3 0.3-0.4 0.1-0.1 0.2-0.1 0.4-0.1h0.4c0.1 0.1 0.1 0.2 0.3 0.3 0 0.2 0 0.3 0.1 0.4zm-13.2 0.6c0 0.3 0 0.5-0.1 0.7 0 0.2-0.1 0.4-0.3 0.5s-0.3 0.2-0.5 0.2-0.3 0-0.5-0.2c-0.1-0.1-0.2-0.3-0.3-0.5h0.3c0 0.1 0.1 0.2 0.2 0.3s0.1 0.1 0.3 0.1h0.3l0.2-0.2c0-0.1 0.1-0.2 0.1-0.3v-0.4c-0.1 0.1-0.1 0.2-0.3 0.3h-0.3c-0.2 0-0.4-0.1-0.5-0.2-0.2-0.1-0.3-0.3-0.3-0.6 0-0.2 0.1-0.4 0.3-0.5 0.2-0.2 0.3-0.3 0.5-0.3s0.3 0 0.5 0.1c0.1 0.1 0.2 0.2 0.3 0.4 0 0.1 0.1 0.3 0.1 0.6zm-0.4-0.8c-0.1-0.1-0.3-0.1-0.4-0.1s-0.3 0-0.3 0.1c-0.1 0.1-0.2 0.2-0.2 0.4s0 0.3 0.2 0.4c0.1 0.1 0.2 0.1 0.3 0.1s0.3 0 0.4-0.1 0.1-0.2 0.1-0.4-0.1-0.3-0.1-0.4zm-26.5 1.4c0.1-0.3 0.2-0.5 0.3-0.8s0.3-0.5 0.5-0.7h-1.2v-0.3h1.6v0.3c-0.2 0.2-0.3 0.4-0.5 0.7-0.2 0.2-0.3 0.5-0.3 0.8-0.1 0.2-0.1 0.4-0.2 0.7h-0.3c-0.1-0.2 0-0.5 0.1-0.7zm-11.8-1.5c-0.1-0.1-0.2-0.1-0.3-0.1h-0.3l-0.3 0.3c-0.1 0.1-0.1 0.3-0.1 0.6l0.3-0.3c0.1-0.1 0.2-0.1 0.3-0.1 0.2 0 0.4 0.1 0.6 0.2 0.1 0.2 0.2 0.4 0.2 0.6 0 0.1 0 0.3-0.1 0.4 0 0.2-0.1 0.3-0.3 0.3-0.1 0.1-0.2 0.2-0.4 0.2-0.3 0-0.5-0.1-0.6-0.3-0.2-0.2-0.3-0.5-0.3-0.9 0-0.5 0.1-0.8 0.3-1s0.4-0.3 0.6-0.3 0.4 0 0.5 0.1 0.2 0.3 0.3 0.5h-0.3s-0.1-0.1-0.1-0.2zm-0.7 1c-0.1 0.1-0.2 0.2-0.2 0.3s0 0.2 0.1 0.3c0 0.1 0.1 0.2 0.1 0.2 0.1 0.1 0.2 0.1 0.3 0.1s0.3-0.1 0.4-0.2 0.1-0.2 0.1-0.4 0-0.3-0.1-0.3c-0.1-0.1-0.2-0.2-0.4-0.2-0.1 0-0.2 0.1-0.3 0.2zm26-1c-0.1-0.1-0.2-0.1-0.3-0.1s-0.2 0-0.3 0.1-0.1 0.2-0.1 0.3 0 0.2 0.1 0.3 0.2 0.1 0.3 0.1 0.2 0 0.3-0.1 0.1-0.2 0.1-0.3-0.1-0.1-0.1-0.3zm0.4 0.3c0 0.1 0 0.3-0.1 0.4s-0.2 0.1-0.3 0.1l0.3 0.3c0.1 0.1 0.2 0.3 0.2 0.4 0 0.2-0.1 0.4-0.2 0.5-0.2 0.1-0.4 0.2-0.6 0.2-0.3 0-0.5-0.1-0.6-0.2-0.2-0.2-0.3-0.3-0.3-0.5s0-0.3 0.2-0.4l0.3-0.3c-0.1 0-0.2-0.1-0.3-0.1v-0.4c0-0.2 0-0.3 0.1-0.4s0.3-0.2 0.5-0.2 0.4 0.1 0.6 0.2c0.1 0.1 0.2 0.2 0.2 0.4zm-1.1 0.8c-0.1 0.1-0.1 0.2-0.1 0.4v0.3c0 0.1 0.1 0.1 0.1 0.2h0.3c0.1 0 0.3 0 0.3-0.2 0.1-0.1 0.2-0.2 0.2-0.3s-0.1-0.3-0.2-0.4-0.2-0.1-0.4-0.1c0 0-0.1 0-0.2 0.1zm-50.5-1.4v1.5h0.4v0.3h-0.4v0.6h-0.3v-0.6h-1.1v-0.3l1.1-1.5h0.3zm13 0v0.3h-1l-0.1 0.7c0.1-0.1 0.3-0.2 0.4-0.2 0.2 0 0.4 0.1 0.6 0.3 0.1 0.2 0.2 0.3 0.2 0.5s0 0.4-0.1 0.6c-0.2 0.2-0.4 0.3-0.7 0.3-0.2 0-0.4 0-0.5-0.2s-0.2-0.3-0.3-0.5h0.3c0 0.2 0.1 0.3 0.2 0.3 0.1 0.1 0.2 0.2 0.3 0.2s0.3-0.1 0.4-0.2 0.1-0.2 0.1-0.4 0-0.3-0.1-0.4-0.2-0.2-0.4-0.2h-0.3l-0.2 0.2h-0.3l0.2-1.3h1.3zm-25.6 2.3c-0.2 0.1-0.4 0.2-0.6 0.2s-0.4-0.1-0.5-0.2-0.2-0.3-0.3-0.5h0.3c0 0.2 0.1 0.3 0.2 0.3 0.1 0.1 0.2 0.2 0.3 0.2s0.3 0 0.4-0.2c0.1-0.1 0.1-0.2 0.1-0.3s0-0.3-0.1-0.4-0.2-0.1-0.3-0.1h-0.3v-0.3h0.1c0.1 0 0.2 0 0.4-0.1 0.1-0.1 0.1-0.2 0.1-0.4 0-0.1 0-0.2-0.1-0.3s-0.2-0.1-0.3-0.1-0.2 0-0.3 0.1-0.2 0.2-0.2 0.4l-0.3-0.1c0-0.2 0.1-0.3 0.3-0.5 0.1-0.1 0.3-0.1 0.5-0.1h0.4l0.3 0.3c0.1 0.1 0.1 0.2 0.1 0.3s0 0.2-0.1 0.3c0 0.1-0.1 0.2-0.3 0.2 0.2 0 0.3 0.1 0.4 0.2s0.1 0.3 0.1 0.5c-0.1 0.3-0.2 0.4-0.3 0.6zm12.3-1.8l-0.8 1h0.8v-1zm191.3-0.5v2.5h-0.3v-2l-0.3 0.3c-0.1 0.1-0.2 0.1-0.3 0.1v-0.3c0.2-0.1 0.3-0.2 0.5-0.3l0.3-0.3h0.1zm2.3 1.2c0 0.3 0 0.5-0.1 0.7s-0.2 0.4-0.3 0.5-0.3 0.2-0.5 0.2-0.4 0-0.5-0.2c-0.1-0.1-0.2-0.3-0.3-0.5h0.3c0 0.1 0.1 0.2 0.2 0.3s0.1 0.1 0.3 0.1h0.3c0.1-0.1 0.1-0.1 0.1-0.2 0.1-0.1 0.1-0.2 0.2-0.3v-0.4c-0.1 0.1-0.1 0.2-0.3 0.3h-0.3c-0.2 0-0.4-0.1-0.5-0.2s-0.2-0.3-0.2-0.6c0-0.2 0.1-0.4 0.3-0.5 0.1-0.2 0.3-0.3 0.5-0.3s0.3 0 0.4 0.1 0.2 0.2 0.3 0.4c0.1 0.1 0.1 0.3 0.1 0.6zm-0.8-0.9c-0.1 0-0.3 0-0.4 0.1s-0.1 0.2-0.1 0.4 0 0.3 0.1 0.4c0.1 0.1 0.3 0.1 0.3 0.1 0.1 0 0.3 0 0.3-0.1 0.1-0.1 0.2-0.2 0.2-0.4s0-0.3-0.2-0.4c0.1-0.1 0-0.1-0.2-0.1zm-12.3 0c0-0.1-0.1-0.1-0.3-0.1-0.1 0-0.2 0-0.3 0.1s-0.2 0.2-0.2 0.3 0 0.2 0.2 0.3c0 0.1 0.1 0.1 0.3 0.1 0.1 0 0.2 0 0.3-0.1s0.1-0.2 0.1-0.3 0-0.1-0.1-0.3zm0.5 0.3c0 0.1-0.1 0.3-0.2 0.4 0 0.1-0.1 0.1-0.3 0.1 0.1 0.1 0.3 0.2 0.3 0.3 0.1 0.1 0.1 0.3 0.1 0.4 0 0.2-0.1 0.4-0.2 0.5-0.2 0.1-0.4 0.2-0.6 0.2s-0.4-0.1-0.6-0.2c-0.2-0.2-0.3-0.3-0.3-0.5s0-0.3 0.1-0.4l0.3-0.3c-0.1 0-0.2-0.1-0.3-0.1-0.1-0.1-0.1-0.2-0.1-0.4s0.1-0.3 0.2-0.4 0.3-0.2 0.5-0.2 0.4 0.1 0.5 0.2c0.5 0.1 0.6 0.2 0.6 0.4zm-1.2 0.8c-0.1 0.1-0.1 0.2-0.1 0.4v0.3l0.2 0.2h0.3c0.2 0 0.3 0 0.3-0.2 0.1-0.1 0.2-0.2 0.2-0.3s-0.1-0.3-0.2-0.4-0.2-0.1-0.3-0.1c-0.2 0-0.3 0-0.4 0.1zm26.9-0.8c0.1 0.1 0.1 0.3 0.1 0.6s0 0.5-0.2 0.7c0 0.2-0.1 0.3-0.3 0.4-0.1 0.1-0.3 0.2-0.4 0.2-0.2 0-0.4-0.1-0.6-0.3s-0.3-0.5-0.3-1c0-0.3 0.1-0.5 0.2-0.8 0-0.2 0.1-0.3 0.3-0.4 0.1-0.1 0.2-0.1 0.4-0.1h0.4l0.3 0.3c0 0.2 0.1 0.3 0.1 0.4zm-1.2 0.7c0 0.4 0 0.7 0.1 0.8s0.3 0.2 0.4 0.2 0.3-0.1 0.4-0.2c0.1-0.2 0.1-0.4 0.1-0.8s0-0.7-0.1-0.8-0.3-0.2-0.4-0.2-0.2 0-0.3 0.1c-0.1 0.2-0.2 0.4-0.2 0.9zm-0.9-0.7c0-0.1 0-0.2-0.1-0.3s-0.2-0.1-0.4-0.1-0.3 0-0.3 0.1c-0.1 0.1-0.2 0.2-0.2 0.4h-0.3c0-0.2 0.1-0.4 0.3-0.5 0.1-0.1 0.3-0.2 0.5-0.2s0.4 0.1 0.5 0.2c0.1 0.1 0.2 0.3 0.2 0.4v0.3c0 0.1-0.1 0.2-0.2 0.3s-0.2 0.2-0.5 0.4c-0.2 0.1-0.3 0.2-0.4 0.3 0 0 0 0.1-0.1 0.1h1.2v0.3h-1.5v-0.2c0.1-0.1 0.1-0.3 0.3-0.4l0.3-0.3c0.3-0.2 0.5-0.4 0.5-0.5 0.1 0 0.2-0.1 0.2-0.3zm-26-0.6v2.5h-0.3v-2l-0.3 0.3c-0.1 0.1-0.2 0.1-0.3 0.1v-0.3c0.2-0.1 0.3-0.2 0.4-0.3 0.2-0.1 0.3-0.2 0.3-0.3h0.2zm-10 0v0.3c-0.2 0.2-0.3 0.4-0.5 0.7-0.2 0.2-0.3 0.5-0.3 0.8-0.1 0.2-0.1 0.4-0.2 0.7h-0.3c0-0.2 0-0.4 0.2-0.7 0.1-0.3 0.2-0.5 0.3-0.8s0.3-0.5 0.5-0.7h-1.2v-0.3h1.5zm-2.4 0v2.5h-0.3v-2l-0.3 0.3c-0.1 0.1-0.2 0.1-0.3 0.1v-0.3c0.2-0.1 0.3-0.2 0.4-0.3 0.2-0.1 0.3-0.2 0.3-0.3h0.2zm-12.9 0v2.5h-0.3v-2l-0.3 0.3c-0.1 0.1-0.2 0.1-0.3 0.1v-0.3c0.2-0.1 0.3-0.2 0.4-0.3l0.3-0.3h0.2zm-10.6 0v0.3h-1l-0.1 0.7c0.1-0.1 0.3-0.2 0.5-0.2s0.4 0.1 0.5 0.3 0.2 0.3 0.2 0.5 0 0.4-0.2 0.6-0.4 0.3-0.7 0.3c-0.2 0-0.4 0-0.6-0.2-0.1-0.2-0.2-0.3-0.3-0.5h0.4c0 0.2 0.1 0.3 0.1 0.3 0.1 0.1 0.2 0.2 0.3 0.2s0.3-0.1 0.4-0.2 0.2-0.2 0.2-0.4 0-0.3-0.2-0.4c-0.1-0.1-0.2-0.2-0.4-0.2h-0.3l-0.2 0.2 0.2-1.3h1.2zm-2.3 0v2.5h-0.3v-2c0 0.1-0.1 0.2-0.3 0.3-0.1 0.1-0.2 0.1-0.3 0.1v-0.3c0.2-0.1 0.3-0.2 0.4-0.3l0.3-0.3h0.2zm14.9 0.6c0-0.1 0-0.2-0.1-0.3s-0.2-0.1-0.3-0.1h-0.3l-0.3 0.3c-0.1 0.1-0.1 0.3-0.1 0.6l0.3-0.3c0.1-0.1 0.2-0.1 0.3-0.1 0.2 0 0.4 0.1 0.5 0.2 0.1 0.2 0.2 0.4 0.2 0.6 0 0.1 0 0.3-0.1 0.4-0.1 0.2-0.1 0.3-0.3 0.3-0.1 0.1-0.3 0.2-0.5 0.2s-0.4-0.1-0.5-0.3c-0.2-0.2-0.3-0.5-0.3-0.9 0-0.5 0.1-0.8 0.3-1s0.4-0.3 0.6-0.3 0.3 0 0.4 0.1 0.2 0.3 0.3 0.5h-0.1zm-0.7 0.7c-0.1 0.1-0.2 0.2-0.2 0.3s0 0.2 0.1 0.3 0.1 0.2 0.1 0.2c0.1 0.1 0.2 0.1 0.3 0.1s0.3-0.1 0.4-0.2 0.1-0.2 0.1-0.4 0-0.3-0.1-0.3c-0.1-0.1-0.2-0.2-0.4-0.2-0.1 0-0.2 0.1-0.3 0.2z" fill-rule="evenodd"/>
			<path stroke-linejoin="round" d="m312.6 611v2.9m-3.1-2.9v4.2m0.6-4.2v2.9m-5.8-2.9v4.3m4.5-4.3v2.9m-1.3-2.9v2.9m-1.9-2.9v4.3m-0.7-4.3v2.9m1.4-2.9v2.9m4.5-2.9v4.2m2.5-4.2v4.2m-1.3-4.2v4.2m-0.6-4.2v2.9m-3.2-2.9v6.3m-1.3-6.3v4.3m12.7-4.3v4.3m3.9-4.3v4.2m-8.9-4.2v5.3m4.4-5.3v2.9m-0.6-2.9v4.3m-2.5-4.3v4.3m0.6-4.3v2.9m0.6-2.9v4.3m3.9-4.3v6.3m-7.1-6.3v2.9m6.5-2.9v2.9m1.9-2.9v4.2m-0.7-4.2v2.9m1.4-2.9v2.9m-7.8-2.9v2.9m2.6-2.9v2.9m-22.4-2.9v6.3m1.9-6.3v2.9m-1.3-2.9v2.9m0.6-2.9v4.2m2-4.2v2.9m-0.7-2.9v4.2m5.1-4.2v4.3m0.6-4.3v2.9m-1.2-2.9v2.9m-0.6-2.9v5.3m-0.7-5.3v2.9m-1.2-2.9v2.9m-0.8-2.9v4.2m1.4-4.2v4.2m175-4.2v2.9m-4.5-2.9v4.3m-1.9-4.3v2.9m-3.2-2.9v4.2m3.9-4.2v4.3m-1.3-4.3v5.3m-1.3-5.3v4.2m3.1-4.2v2.9m4.6-2.9v6.3m-2.6-6.3v4.3m-0.6-4.3v2.9m1.3-2.9v2.9m0.6-2.9v4.3m0.7-4.3v2.9m-6.5-2.9v2.9m-1.2-2.9v2.9m17.9-2.9v2.9m0.6-2.9v4.3m-4.5-4.3v2.9m-0.6-2.9v4.2m-0.7-4.2v2.9m-1.2-2.9v2.9m-0.6-2.9v4.2m-1.3-4.2v4.2m0.6-4.2v2.9m4.5-2.9v5.3m0.5-5.3v2.9m1.4-2.9v2.9m-0.7-2.9v4.3m3.3-4.3v2.9m-2-2.9v4.3m-5.1-4.3v4.2m-28.9-4.2v2.9m-0.5-2.9v6.3m3.2-6.3v2.9m1.2-2.9v2.9m-2.5-2.9v2.9m3.1-2.9v4.2m-1.3-4.2v4.2m-1.2-4.2v4.2m3.2-4.2v2.9m-6.5-2.9v2.9m-0.6-2.9v4.3m-0.6-4.3v2.9m-0.6-2.9v4.3m3.8-4.3v4.2m-4.5-4.2v2.9m18-2.9v2.9m0.7-2.9v4.2m-5.9-4.2v2.9m-2.5-2.9v2.9m0.6-2.9v4.3m1.3-4.3v4.3m1.3-4.3v4.3m-2-4.3v2.9m3.2-2.9v4.3m-5-4.3v5.3m5.7-5.3v2.9m1.3-2.9v2.9m2.6-2.9v2.9m-1.9-2.9v4.2m-1.3-4.2v6.3m-1.9-6.3v2.9m-25.7-2.9v2.9m0.5-2.9v4.3m-5.7-4.3v2.9m-2.5-2.9v2.9m-0.7-2.9v4.2m1.9-4.2v2.9m-2.5-2.9v2.9m4.5-2.9v5.3m-1.4-5.3v4.2m1.9-4.2v2.9m2.6-2.9v2.9m-1.3-2.9v2.9m0.7-2.9v4.3m1.3-4.3v4.3m-2.6-4.3v4.3m-3.9-4.3v4.2m17.4-4.2v2.9m-1.3-2.9v2.9m-3.7-2.9v2.9m0.5-2.9v4.2m-2.5-4.2v4.2m0.6-4.2v2.9m-1.3-2.9v2.9m2-2.9v4.2m-2.6-4.2v6.3m6.4-6.3v5.3m-1.3-5.3v4.2m0.7-4.2v2.9m3.2-2.9v4.3m-1.3-4.3v4.3m-3.2-4.3v2.9m-5.2-2.9v2.9m-28.8-2.9v4.3m-1.3-4.3v4.3m5.8-4.3v2.9m0.6-2.9v4.2m0.7-4.2v2.9m0.6-2.9v4.2m0.7-4.2v2.9m0.6-2.9v4.2m-3.8-4.2v6.3m-3.3-6.3v2.9m-1.3-2.9v2.9m2-2.9v4.3m0.6-4.3v2.9m0.6-2.9v4.3m0.7-4.3v2.9m11.6-2.9v2.9m-0.7-2.9v4.3m-0.7-4.3v2.9m-3.1-2.9v5.3m-1.4-5.3v4.2m2.7-4.2v4.3m-0.7-4.3v2.9m1.2-2.9v2.9m0.8-2.9v4.3m-4.5-4.3v2.9m9.5-2.9v4.2m-0.6-4.2v2.9m-1.3-2.9v2.9m-0.6-2.9v4.3m-5.8-4.3v2.9m7-2.9v6.3m-37-6.3v4.2m-0.7-4.2v2.9m5.1-2.9v2.9m3.3-2.9v4.3m-1.4-4.3v4.3m0.6-4.3v2.9m1.3-2.9v2.9m-3.2-2.9v5.3m-1.2-5.3v4.2m-1.9-4.2v2.9m1.3-2.9v2.9m-0.7-2.9v4.2m-1.9-4.2v2.9m0.6-2.9v4.2m-2.5-4.2v6.3m7-6.3v2.9m9-2.9v2.9m2.5-2.9v2.9m-6.4-2.9v2.9m-0.6-2.9v4.3m-0.7-4.3v2.9m-0.6-2.9v4.3m4.4-4.3v2.9m-0.5-2.9v4.2m-0.8-4.2v2.9m6.5-2.9v2.9m-2-2.9v4.2m-1.2-4.2v4.2m-1.3-4.2v4.2m1.9-4.2v2.9m1.9-2.9v5.3m-6.3-5.3v6.3m-32.1-6.3v5.3m3.9-5.3v4.3m1.9-4.3v2.9m2-2.9v4.2m-2.7-4.2v4.3m-0.6-4.3v2.9m2.6-2.9v2.9m1.3-2.9v2.9m-2-2.9v6.3m-7-6.3v2.9m3.2-2.9v4.3m-1.3-4.3v4.3m0.6-4.3v2.9m1.2-2.9v2.9m-2.5-2.9v2.9m-1.9-2.9v4.2m15.4-4.2v4.3m1.3-4.3v4.3m-6.4-4.3v4.2m0.6-4.2v2.9m1.3-2.9v2.9m2-2.9v5.3m0.5-5.3v2.9m-3.1-2.9v4.2m1.2-4.2v4.2m5.9-4.2v2.9m0.5-2.9v4.3m0.7-4.3v2.9m-2.6-2.9v2.9m-1.3-2.9v2.9m1.9-2.9v4.3m-4.4-4.3v2.9m-26.3-2.9v4.2m0.7-4.2v2.9m-6.5-2.9v2.9m-0.7-2.9v4.3m-0.6-4.3v2.9m4.6-2.9v4.2m-0.7-4.2v2.9m-0.6-2.9v4.2m-0.7-4.2v2.9m6.4-2.9v2.9m-0.6-2.9v5.3m-1.9-5.3v2.9m-1.3-2.9v2.9m0.6-2.9v4.2m3.8-4.2v4.3m-7.6-4.3v6.3m16.1-6.3v2.9m-2-2.9v4.2m-0.6-4.2v2.9m-5.2-2.9v2.9m1.3-2.9v2.9m-0.6-2.9v4.3m1.9-4.3v2.9m0.6-2.9v4.3m1.3-4.3v6.3m3.8-6.3v4.2m-1.3-4.2v4.2m2-4.2v2.9m-2.5-2.9v2.9m-2.7-2.9v2.9m-1.9-2.9v4.3m-30.1-4.3v2.9m6.3-2.9v2.9m-0.6-2.9v4.3m-0.6-4.3v2.9m-1.9-2.9v4.3m1.3-4.3v4.3m-2-4.3v2.9m1.2-2.9v2.9m3.3-2.9v6.3m-6.4-6.3v5.3m1.2-5.3v4.3m-0.6-4.3v2.9m-2.5-2.9v2.9m-1.2-2.9v2.9m0.5-2.9v4.2m1.2-4.2v4.2m14.3-4.2v5.3m-0.8-5.3v2.9m-4.4-2.9v4.2m2.5-4.2v4.2m1.3-4.2v4.2m-2.5-4.2v4.2m1.9-4.2v2.9m-3.8-2.9v2.9m1.3-2.9v2.9m7.6-2.9v2.9m-1.3-2.9v2.9m-0.6-2.9v4.3m2.5-4.3v4.3m-1.2-4.3v4.3m-2-4.3v2.9m-3.8-2.9v2.9m210.3-2.9v2.9m-0.5-2.9v4.3m4.5-4.3v2.9m-0.7-2.9v4.3m-0.6-4.3v2.9m-1.9-2.9v4.3m1.2-4.3v4.3m-0.6-4.3v2.9m3.3-2.9v6.3m-23.8-6.3v2.9m8.3-2.9v4.3m-0.7-4.3v2.9m-3.8-2.9v2.9m0.7-2.9v5.3m2.5-5.3v4.3m-1.3-4.3v4.3m0.6-4.3v2.9m-1.2-2.9v2.9m-2-2.9v4.2m-3.8-4.2v4.2m-0.6-4.2v2.9m3.9-2.9v2.9m-1.3-2.9v2.9m-0.7-2.9v4.2m1.2-4.2v4.2m15.5-4.2v5.3m-2.5-5.3v4.2m-0.7-4.2v2.9m-1.9-2.9v4.2m0.6-4.2v2.9m-3.8-2.9v2.9m2.6-2.9v2.9m1.9-2.9v4.2m-2.6-4.2v6.3m5.1-6.3v4.2m0.6-4.2v2.9m-1.2-2.9v2.9m2.5-2.9v2.9m-7.7-2.9v2.9m-0.6-2.9v4.3m-25.7-4.3v4.3m0.7-4.3v2.9m-3.3-2.9v4.3m-1.2-4.3v4.3m-0.7-4.3v2.9m1.2-2.9v2.9m2-2.9v4.3m-4.5-4.3v2.9m0.7-2.9v5.3m9-5.3v4.2m-1.2-4.2v4.2m-0.8-4.2v2.9m1.3-2.9v2.9m-3.8-2.9v2.9m2-2.9v6.3m-3.3-6.3v2.9m11.5-2.9v2.9m0.7-2.9v4.3m-4.5-4.3v2.9m-1.2-2.9v2.9m0.6-2.9v4.2m2.5-4.2v5.3m0.7-5.3v2.9m-2-2.9v4.2m7.8-4.2v6.3m-0.7-6.3v2.9m-0.7-2.9v4.3m-0.6-4.3v2.9m-1.3-2.9v2.9m0.7-2.9v4.3m-4.5-4.3v2.9m1.9-2.9v4.3m-33.3-4.3v6.3m7.6-6.3v4.3m-1.9-4.3v2.9m1.3-2.9v2.9m1.2-2.9v2.9m-3.7-2.9v2.9m1.9-2.9v5.3m-1.4-5.3v4.2m-1.3-4.2v4.2m-2.5-4.2v4.2m0.7-4.2v2.9m1.3-2.9v2.9m-0.7-2.9v4.2m-2-4.2v2.9m-1.3-2.9v2.9m-0.7-2.9v4.3m16.2-4.3v2.9m-0.6-2.9v4.2m3.8-4.2v4.2m-7-4.2v2.9m0.5-2.9v4.3m0.7-4.3v2.9m-2.6-2.9v2.9m0.7-2.9v4.3m2.6-4.3v6.3m2.6-6.3v4.2m0.6-4.2v2.9m1.3-2.9v2.9m-0.7-2.9v4.2m-7.7-4.2v4.3m4.6-4.3v2.9" fill-rule="evenodd" stroke="#7C8188" stroke-linecap="round" clip-rule="evenodd" stroke-miterlimit="3" fill="none"/>
			<path clip-rule="evenodd" d="m614.8 615c1.2 0 2.2 0.3 3 1s1.2 1.5 1.2 2.3c0 0.9-0.4 1.7-1.2 2.4s-1.8 1-3 1c-1.1 0-2.1-0.3-3-1-0.8-0.6-1.2-1.4-1.2-2.4 0-0.9 0.4-1.7 1.2-2.3 0.9-0.6 1.9-1 3-1z" fill-rule="evenodd"/>
				<radialGradient id="SVGID_92_" fx="613.18" gradientUnits="userSpaceOnUse" cy="617.7" cx="615.25" r="5.7875">
				<stop stop-color="#C4C4CA" offset="0"/>
				<stop stop-color="#686777" offset=".149"/>
				<stop stop-color="#4E4D59" offset="1"/>
			</radialGradient>
			<path fill="url(#SVGID_92_)" clip-rule="evenodd" d="m614.8 614.8c1.1 0 2.1 0.3 2.9 1 0.8 0.6 1.3 1.4 1.3 2.3s-0.4 1.7-1.3 2.3c-0.8 0.6-1.8 1-2.9 1s-2.1-0.3-2.9-1c-0.8-0.6-1.2-1.4-1.2-2.3s0.4-1.7 1.2-2.3c0.8-0.7 1.8-1 2.9-1z" fill-rule="evenodd"/>
			<path clip-rule="evenodd" d="m617.8 617l0.2 0.9c-2.2-1.3-4.5-1.3-6.7-0.2l0.2-0.8c2.2-1.1 4.3-1.1 6.3 0.1z" fill-rule="evenodd"/>
			<path fill="#fff" clip-rule="evenodd" d="m615.2 617c0.1-0.1 0.3-0.1 0.5 0s0.3 0.1 0.4 0.3c0.1 0.1 0.1 0.3 0.1 0.3 0 0.1-0.1 0.2-0.3 0.3h-0.5c-0.2 0-0.3-0.1-0.5-0.2-0.1-0.2-0.1-0.3-0.1-0.5 0.2-0.1 0.3-0.2 0.4-0.2z" fill-rule="evenodd"/>
			<path clip-rule="evenodd" d="m235.5 615c1.2 0 2.2 0.3 3 1s1.3 1.5 1.3 2.3c0 0.9-0.4 1.7-1.3 2.4-0.8 0.7-1.8 1-3 1-1.1 0-2.1-0.3-2.9-1-0.8-0.6-1.3-1.4-1.3-2.4 0-0.9 0.4-1.7 1.3-2.3s1.9-1 2.9-1z" fill-rule="evenodd"/>
			<radialGradient id="SVGID_93_" fx="233.96" gradientUnits="userSpaceOnUse" cy="617.7" cx="236" r="5.7875">
				<stop stop-color="#C4C4CA" offset="0"/>
				<stop stop-color="#686777" offset=".149"/>
				<stop stop-color="#4E4D59" offset="1"/>
			</radialGradient>
			<path fill="url(#SVGID_93_)" clip-rule="evenodd" d="m235.5 614.8c1.1 0 2.1 0.3 3 1 0.8 0.6 1.2 1.4 1.2 2.3s-0.4 1.7-1.2 2.3-1.8 1-3 1c-1.1 0-2.1-0.3-2.9-1-0.8-0.6-1.2-1.4-1.2-2.3s0.4-1.7 1.2-2.3c0.9-0.7 1.9-1 2.9-1z" fill-rule="evenodd"/>
			<path clip-rule="evenodd" d="m232.3 617c2.1-1.1 4.2-1.1 6.3 0.1l0.3 0.9c-2.2-1.3-4.5-1.3-6.7-0.2l0.1-0.8z" fill-rule="evenodd"/>
			<path fill="#fff" clip-rule="evenodd" d="m236.4 617c0.2 0.1 0.4 0.1 0.4 0.3 0.1 0.1 0.1 0.3 0.1 0.3 0 0.1-0.1 0.2-0.3 0.3h-0.5c-0.2 0-0.3-0.1-0.4-0.2-0.1-0.2-0.1-0.3-0.1-0.5 0-0.1 0.1-0.2 0.3-0.2 0.1-0.1 0.3-0.1 0.5 0z" fill-rule="evenodd"/>
</svg>
