<?xml version="1.0" encoding="utf-8"?>
<!-- Generator: Adobe Illustrator 16.0.0, SVG Export Plug-In . SVG Version: 6.00 Build 0)  -->
<!DOCTYPE svg PUBLIC "-//W3C//DTD SVG 1.1//EN" "http://www.w3.org/Graphics/SVG/1.1/DTD/svg11.dtd">
<svg version="1.1" id="Layer_1" xmlns="http://www.w3.org/2000/svg" xmlns:xlink="http://www.w3.org/1999/xlink" x="0px" y="0px"
	 width="2293px" height="155.9px" viewBox="0 0 2293 155.9" enable-background="new 0 0 2293 155.9" xml:space="preserve">
<rect y="-0.1" fill="#E2E7EE" width="2293" height="156"/>
<line fill="none" stroke="#231F20" stroke-miterlimit="10" x1="90.6" y1="0" x2="90.6" y2="50.9"/>
<line fill="none" stroke="#231F20" stroke-miterlimit="10" x1="95.9" y1="0" x2="95.9" y2="22.9"/>
<line fill="none" stroke="#231F20" stroke-miterlimit="10" x1="101.1" y1="0" x2="101.1" y2="30.3"/>
<line fill="none" stroke="#231F20" stroke-miterlimit="10" x1="106.4" y1="0" x2="106.4" y2="22.9"/>
<line fill="none" stroke="#231F20" stroke-miterlimit="10" x1="111.6" y1="0" x2="111.6" y2="30.3"/>
<line fill="none" stroke="#231F20" stroke-miterlimit="10" x1="116.9" y1="0" x2="116.9" y2="22.9"/>
<line fill="none" stroke="#231F20" stroke-miterlimit="10" x1="122.1" y1="0" x2="122.1" y2="30.3"/>
<line fill="none" stroke="#231F20" stroke-miterlimit="10" x1="127.4" y1="0" x2="127.4" y2="22.9"/>
<line fill="none" stroke="#231F20" stroke-miterlimit="10" x1="132.6" y1="0" x2="132.6" y2="30.3"/>
<line fill="none" stroke="#231F20" stroke-miterlimit="10" x1="137.9" y1="0" x2="137.9" y2="22.9"/>
<line fill="none" stroke="#231F20" stroke-miterlimit="10" x1="143.1" y1="0" x2="143.1" y2="38.3"/>
<line fill="none" stroke="#231F20" stroke-miterlimit="10" x1="148.4" y1="0" x2="148.4" y2="22.9"/>
<line fill="none" stroke="#231F20" stroke-miterlimit="10" x1="153.6" y1="0" x2="153.6" y2="30.3"/>
<line fill="none" stroke="#231F20" stroke-miterlimit="10" x1="158.9" y1="0" x2="158.9" y2="22.9"/>
<line fill="none" stroke="#231F20" stroke-miterlimit="10" x1="164.1" y1="0" x2="164.1" y2="30.3"/>
<line fill="none" stroke="#231F20" stroke-miterlimit="10" x1="169.4" y1="0" x2="169.4" y2="22.9"/>
<line fill="none" stroke="#231F20" stroke-miterlimit="10" x1="174.6" y1="0" x2="174.6" y2="30.3"/>
<line fill="none" stroke="#231F20" stroke-miterlimit="10" x1="179.9" y1="0" x2="179.9" y2="22.9"/>
<line fill="none" stroke="#231F20" stroke-miterlimit="10" x1="185.2" y1="0" x2="185.2" y2="30.3"/>
<line fill="none" stroke="#231F20" stroke-miterlimit="10" x1="190.4" y1="0" x2="190.4" y2="22.9"/>
<line fill="none" stroke="#231F20" stroke-miterlimit="10" x1="195.7" y1="0" x2="195.7" y2="50.9"/>
<line fill="none" stroke="#231F20" stroke-miterlimit="10" x1="200.9" y1="0" x2="200.9" y2="22.9"/>
<line fill="none" stroke="#231F20" stroke-miterlimit="10" x1="206.2" y1="0" x2="206.2" y2="30.3"/>
<line fill="none" stroke="#231F20" stroke-miterlimit="10" x1="211.4" y1="0" x2="211.4" y2="22.9"/>
<line fill="none" stroke="#231F20" stroke-miterlimit="10" x1="216.7" y1="0" x2="216.7" y2="30.3"/>
<line fill="none" stroke="#231F20" stroke-miterlimit="10" x1="221.9" y1="0" x2="221.9" y2="22.9"/>
<line fill="none" stroke="#231F20" stroke-miterlimit="10" x1="227.2" y1="0" x2="227.2" y2="30.3"/>
<line fill="none" stroke="#231F20" stroke-miterlimit="10" x1="232.4" y1="0" x2="232.4" y2="22.9"/>
<line fill="none" stroke="#231F20" stroke-miterlimit="10" x1="237.7" y1="0" x2="237.7" y2="30.3"/>
<line fill="none" stroke="#231F20" stroke-miterlimit="10" x1="242.9" y1="0" x2="242.9" y2="22.9"/>
<line fill="none" stroke="#231F20" stroke-miterlimit="10" x1="248.2" y1="0" x2="248.2" y2="38.3"/>
<line fill="none" stroke="#231F20" stroke-miterlimit="10" x1="253.4" y1="0" x2="253.4" y2="22.9"/>
<line fill="none" stroke="#231F20" stroke-miterlimit="10" x1="258.7" y1="0" x2="258.7" y2="30.3"/>
<line fill="none" stroke="#231F20" stroke-miterlimit="10" x1="264" y1="0" x2="264" y2="22.9"/>
<line fill="none" stroke="#231F20" stroke-miterlimit="10" x1="269.2" y1="0" x2="269.2" y2="30.3"/>
<line fill="none" stroke="#231F20" stroke-miterlimit="10" x1="274.5" y1="0" x2="274.5" y2="22.9"/>
<line fill="none" stroke="#231F20" stroke-miterlimit="10" x1="279.7" y1="0" x2="279.7" y2="30.3"/>
<line fill="none" stroke="#231F20" stroke-miterlimit="10" x1="285" y1="0" x2="285" y2="22.9"/>
<line fill="none" stroke="#231F20" stroke-miterlimit="10" x1="290.2" y1="0" x2="290.2" y2="30.3"/>
<line fill="none" stroke="#231F20" stroke-miterlimit="10" x1="295.5" y1="0" x2="295.5" y2="22.9"/>
<line fill="none" stroke="#231F20" stroke-miterlimit="10" x1="300.7" y1="0" x2="300.7" y2="50.9"/>
<line fill="none" stroke="#231F20" stroke-miterlimit="10" x1="306" y1="0" x2="306" y2="22.9"/>
<line fill="none" stroke="#231F20" stroke-miterlimit="10" x1="311.2" y1="0" x2="311.2" y2="30.3"/>
<line fill="none" stroke="#231F20" stroke-miterlimit="10" x1="316.5" y1="0" x2="316.5" y2="22.9"/>
<line fill="none" stroke="#231F20" stroke-miterlimit="10" x1="321.7" y1="0" x2="321.7" y2="30.3"/>
<line fill="none" stroke="#231F20" stroke-miterlimit="10" x1="327" y1="0" x2="327" y2="22.9"/>
<line fill="none" stroke="#231F20" stroke-miterlimit="10" x1="332.2" y1="0" x2="332.2" y2="30.3"/>
<line fill="none" stroke="#231F20" stroke-miterlimit="10" x1="337.5" y1="0" x2="337.5" y2="22.9"/>
<line fill="none" stroke="#231F20" stroke-miterlimit="10" x1="342.8" y1="0" x2="342.8" y2="30.3"/>
<line fill="none" stroke="#231F20" stroke-miterlimit="10" x1="348" y1="0" x2="348" y2="22.9"/>
<line fill="none" stroke="#231F20" stroke-miterlimit="10" x1="353.3" y1="0" x2="353.3" y2="38.3"/>
<line fill="none" stroke="#231F20" stroke-miterlimit="10" x1="358.5" y1="0" x2="358.5" y2="22.9"/>
<line fill="none" stroke="#231F20" stroke-miterlimit="10" x1="363.8" y1="0" x2="363.8" y2="30.3"/>
<line fill="none" stroke="#231F20" stroke-miterlimit="10" x1="369" y1="0" x2="369" y2="22.9"/>
<line fill="none" stroke="#231F20" stroke-miterlimit="10" x1="374.3" y1="0" x2="374.3" y2="30.3"/>
<line fill="none" stroke="#231F20" stroke-miterlimit="10" x1="379.5" y1="0" x2="379.5" y2="22.9"/>
<line fill="none" stroke="#231F20" stroke-miterlimit="10" x1="384.8" y1="0" x2="384.8" y2="30.3"/>
<line fill="none" stroke="#231F20" stroke-miterlimit="10" x1="390" y1="0" x2="390" y2="22.9"/>
<line fill="none" stroke="#231F20" stroke-miterlimit="10" x1="395.3" y1="0" x2="395.3" y2="30.3"/>
<line fill="none" stroke="#231F20" stroke-miterlimit="10" x1="400.5" y1="0" x2="400.5" y2="22.9"/>
<line fill="none" stroke="#231F20" stroke-miterlimit="10" x1="405.8" y1="0" x2="405.8" y2="50.9"/>
<line fill="none" stroke="#231F20" stroke-miterlimit="10" x1="411" y1="0" x2="411" y2="22.9"/>
<line fill="none" stroke="#231F20" stroke-miterlimit="10" x1="416.3" y1="0" x2="416.3" y2="30.3"/>
<line fill="none" stroke="#231F20" stroke-miterlimit="10" x1="421.5" y1="0" x2="421.5" y2="22.9"/>
<line fill="none" stroke="#231F20" stroke-miterlimit="10" x1="426.8" y1="0" x2="426.8" y2="30.3"/>
<line fill="none" stroke="#231F20" stroke-miterlimit="10" x1="432.1" y1="0" x2="432.1" y2="22.9"/>
<line fill="none" stroke="#231F20" stroke-miterlimit="10" x1="437.3" y1="0" x2="437.3" y2="30.3"/>
<line fill="none" stroke="#231F20" stroke-miterlimit="10" x1="442.6" y1="0" x2="442.6" y2="22.9"/>
<line fill="none" stroke="#231F20" stroke-miterlimit="10" x1="447.8" y1="0" x2="447.8" y2="30.3"/>
<line fill="none" stroke="#231F20" stroke-miterlimit="10" x1="453.1" y1="0" x2="453.1" y2="22.9"/>
<line fill="none" stroke="#231F20" stroke-miterlimit="10" x1="458.3" y1="0" x2="458.3" y2="38.3"/>
<line fill="none" stroke="#231F20" stroke-miterlimit="10" x1="463.6" y1="0" x2="463.6" y2="22.9"/>
<line fill="none" stroke="#231F20" stroke-miterlimit="10" x1="468.8" y1="0" x2="468.8" y2="30.3"/>
<line fill="none" stroke="#231F20" stroke-miterlimit="10" x1="474.1" y1="0" x2="474.1" y2="22.9"/>
<line fill="none" stroke="#231F20" stroke-miterlimit="10" x1="479.3" y1="0" x2="479.3" y2="30.3"/>
<line fill="none" stroke="#231F20" stroke-miterlimit="10" x1="484.6" y1="0" x2="484.6" y2="22.9"/>
<line fill="none" stroke="#231F20" stroke-miterlimit="10" x1="489.8" y1="0" x2="489.8" y2="30.3"/>
<line fill="none" stroke="#231F20" stroke-miterlimit="10" x1="495.1" y1="0" x2="495.1" y2="22.9"/>
<line fill="none" stroke="#231F20" stroke-miterlimit="10" x1="500.3" y1="0" x2="500.3" y2="30.3"/>
<line fill="none" stroke="#231F20" stroke-miterlimit="10" x1="505.6" y1="0" x2="505.6" y2="22.9"/>
<line fill="none" stroke="#231F20" stroke-miterlimit="10" x1="510.9" y1="0" x2="510.9" y2="50.9"/>
<line fill="none" stroke="#231F20" stroke-miterlimit="10" x1="516.1" y1="0" x2="516.1" y2="22.9"/>
<line fill="none" stroke="#231F20" stroke-miterlimit="10" x1="521.4" y1="0" x2="521.4" y2="30.3"/>
<line fill="none" stroke="#231F20" stroke-miterlimit="10" x1="526.6" y1="0" x2="526.6" y2="22.9"/>
<line fill="none" stroke="#231F20" stroke-miterlimit="10" x1="531.9" y1="0" x2="531.9" y2="30.3"/>
<line fill="none" stroke="#231F20" stroke-miterlimit="10" x1="537.1" y1="0" x2="537.1" y2="22.9"/>
<line fill="none" stroke="#231F20" stroke-miterlimit="10" x1="542.4" y1="0" x2="542.4" y2="30.3"/>
<line fill="none" stroke="#231F20" stroke-miterlimit="10" x1="547.6" y1="0" x2="547.6" y2="22.9"/>
<line fill="none" stroke="#231F20" stroke-miterlimit="10" x1="552.9" y1="0" x2="552.9" y2="30.3"/>
<line fill="none" stroke="#231F20" stroke-miterlimit="10" x1="558.1" y1="0" x2="558.1" y2="22.9"/>
<line fill="none" stroke="#231F20" stroke-miterlimit="10" x1="563.4" y1="0" x2="563.4" y2="38.3"/>
<line fill="none" stroke="#231F20" stroke-miterlimit="10" x1="568.6" y1="0" x2="568.6" y2="22.9"/>
<line fill="none" stroke="#231F20" stroke-miterlimit="10" x1="573.9" y1="0" x2="573.9" y2="30.3"/>
<line fill="none" stroke="#231F20" stroke-miterlimit="10" x1="579.1" y1="0" x2="579.1" y2="22.9"/>
<line fill="none" stroke="#231F20" stroke-miterlimit="10" x1="584.4" y1="0" x2="584.4" y2="30.3"/>
<line fill="none" stroke="#231F20" stroke-miterlimit="10" x1="589.6" y1="0" x2="589.6" y2="22.9"/>
<line fill="none" stroke="#231F20" stroke-miterlimit="10" x1="594.9" y1="0" x2="594.9" y2="30.3"/>
<line fill="none" stroke="#231F20" stroke-miterlimit="10" x1="600.2" y1="0" x2="600.2" y2="22.9"/>
<line fill="none" stroke="#231F20" stroke-miterlimit="10" x1="605.4" y1="0" x2="605.4" y2="30.3"/>
<line fill="none" stroke="#231F20" stroke-miterlimit="10" x1="610.7" y1="0" x2="610.7" y2="22.9"/>
<line fill="none" stroke="#231F20" stroke-miterlimit="10" x1="615.9" y1="0" x2="615.9" y2="50.9"/>
<line fill="none" stroke="#231F20" stroke-miterlimit="10" x1="621.2" y1="0" x2="621.2" y2="22.9"/>
<line fill="none" stroke="#231F20" stroke-miterlimit="10" x1="626.4" y1="0" x2="626.4" y2="30.3"/>
<line fill="none" stroke="#231F20" stroke-miterlimit="10" x1="631.7" y1="0" x2="631.7" y2="22.9"/>
<line fill="none" stroke="#231F20" stroke-miterlimit="10" x1="636.9" y1="0" x2="636.9" y2="30.3"/>
<line fill="none" stroke="#231F20" stroke-miterlimit="10" x1="642.2" y1="0" x2="642.2" y2="22.9"/>
<line fill="none" stroke="#231F20" stroke-miterlimit="10" x1="647.4" y1="0" x2="647.4" y2="30.3"/>
<line fill="none" stroke="#231F20" stroke-miterlimit="10" x1="652.7" y1="0" x2="652.7" y2="22.9"/>
<line fill="none" stroke="#231F20" stroke-miterlimit="10" x1="657.9" y1="0" x2="657.9" y2="30.3"/>
<line fill="none" stroke="#231F20" stroke-miterlimit="10" x1="663.2" y1="0" x2="663.2" y2="22.9"/>
<line fill="none" stroke="#231F20" stroke-miterlimit="10" x1="668.4" y1="0" x2="668.4" y2="38.3"/>
<line fill="none" stroke="#231F20" stroke-miterlimit="10" x1="673.7" y1="0" x2="673.7" y2="22.9"/>
<line fill="none" stroke="#231F20" stroke-miterlimit="10" x1="679" y1="0" x2="679" y2="30.3"/>
<line fill="none" stroke="#231F20" stroke-miterlimit="10" x1="684.2" y1="0" x2="684.2" y2="22.9"/>
<line fill="none" stroke="#231F20" stroke-miterlimit="10" x1="689.5" y1="0" x2="689.5" y2="30.3"/>
<line fill="none" stroke="#231F20" stroke-miterlimit="10" x1="694.7" y1="0" x2="694.7" y2="22.9"/>
<line fill="none" stroke="#231F20" stroke-miterlimit="10" x1="700" y1="0" x2="700" y2="30.3"/>
<line fill="none" stroke="#231F20" stroke-miterlimit="10" x1="705.2" y1="0" x2="705.2" y2="22.9"/>
<line fill="none" stroke="#231F20" stroke-miterlimit="10" x1="710.5" y1="0" x2="710.5" y2="30.3"/>
<line fill="none" stroke="#231F20" stroke-miterlimit="10" x1="715.7" y1="0" x2="715.7" y2="22.9"/>
<line fill="none" stroke="#231F20" stroke-miterlimit="10" x1="721" y1="0" x2="721" y2="50.9"/>
<line fill="none" stroke="#231F20" stroke-miterlimit="10" x1="726.2" y1="0" x2="726.2" y2="22.9"/>
<line fill="none" stroke="#231F20" stroke-miterlimit="10" x1="731.5" y1="0" x2="731.5" y2="30.3"/>
<line fill="none" stroke="#231F20" stroke-miterlimit="10" x1="736.7" y1="0" x2="736.7" y2="22.9"/>
<line fill="none" stroke="#231F20" stroke-miterlimit="10" x1="742" y1="0" x2="742" y2="30.3"/>
<line fill="none" stroke="#231F20" stroke-miterlimit="10" x1="747.2" y1="0" x2="747.2" y2="22.9"/>
<line fill="none" stroke="#231F20" stroke-miterlimit="10" x1="752.5" y1="0" x2="752.5" y2="30.3"/>
<line fill="none" stroke="#231F20" stroke-miterlimit="10" x1="757.8" y1="0" x2="757.8" y2="22.9"/>
<line fill="none" stroke="#231F20" stroke-miterlimit="10" x1="763" y1="0" x2="763" y2="30.3"/>
<line fill="none" stroke="#231F20" stroke-miterlimit="10" x1="768.3" y1="0" x2="768.3" y2="22.9"/>
<line fill="none" stroke="#231F20" stroke-miterlimit="10" x1="773.5" y1="0" x2="773.5" y2="38.3"/>
<line fill="none" stroke="#231F20" stroke-miterlimit="10" x1="778.8" y1="0" x2="778.8" y2="22.9"/>
<line fill="none" stroke="#231F20" stroke-miterlimit="10" x1="784" y1="0" x2="784" y2="30.3"/>
<line fill="none" stroke="#231F20" stroke-miterlimit="10" x1="789.3" y1="0" x2="789.3" y2="22.9"/>
<line fill="none" stroke="#231F20" stroke-miterlimit="10" x1="794.5" y1="0" x2="794.5" y2="30.3"/>
<line fill="none" stroke="#231F20" stroke-miterlimit="10" x1="799.8" y1="0" x2="799.8" y2="22.9"/>
<line fill="none" stroke="#231F20" stroke-miterlimit="10" x1="805" y1="0" x2="805" y2="30.3"/>
<line fill="none" stroke="#231F20" stroke-miterlimit="10" x1="810.3" y1="0" x2="810.3" y2="22.9"/>
<line fill="none" stroke="#231F20" stroke-miterlimit="10" x1="815.5" y1="0" x2="815.5" y2="30.3"/>
<line fill="none" stroke="#231F20" stroke-miterlimit="10" x1="820.8" y1="0" x2="820.8" y2="22.9"/>
<line fill="none" stroke="#231F20" stroke-miterlimit="10" x1="826" y1="0" x2="826" y2="50.9"/>
<line fill="none" stroke="#231F20" stroke-miterlimit="10" x1="831.3" y1="0" x2="831.3" y2="22.9"/>
<line fill="none" stroke="#231F20" stroke-miterlimit="10" x1="836.5" y1="0" x2="836.5" y2="30.3"/>
<line fill="none" stroke="#231F20" stroke-miterlimit="10" x1="841.8" y1="0" x2="841.8" y2="22.9"/>
<line fill="none" stroke="#231F20" stroke-miterlimit="10" x1="847.1" y1="0" x2="847.1" y2="30.3"/>
<line fill="none" stroke="#231F20" stroke-miterlimit="10" x1="852.3" y1="0" x2="852.3" y2="22.9"/>
<line fill="none" stroke="#231F20" stroke-miterlimit="10" x1="857.6" y1="0" x2="857.6" y2="30.3"/>
<line fill="none" stroke="#231F20" stroke-miterlimit="10" x1="862.8" y1="0" x2="862.8" y2="22.9"/>
<line fill="none" stroke="#231F20" stroke-miterlimit="10" x1="868.1" y1="0" x2="868.1" y2="30.3"/>
<line fill="none" stroke="#231F20" stroke-miterlimit="10" x1="873.3" y1="0" x2="873.3" y2="22.9"/>
<line fill="none" stroke="#231F20" stroke-miterlimit="10" x1="878.6" y1="0" x2="878.6" y2="38.3"/>
<line fill="none" stroke="#231F20" stroke-miterlimit="10" x1="883.8" y1="0" x2="883.8" y2="22.9"/>
<line fill="none" stroke="#231F20" stroke-miterlimit="10" x1="889.1" y1="0" x2="889.1" y2="30.3"/>
<line fill="none" stroke="#231F20" stroke-miterlimit="10" x1="894.3" y1="0" x2="894.3" y2="22.9"/>
<line fill="none" stroke="#231F20" stroke-miterlimit="10" x1="899.6" y1="0" x2="899.6" y2="30.3"/>
<line fill="none" stroke="#231F20" stroke-miterlimit="10" x1="904.8" y1="0" x2="904.8" y2="22.9"/>
<line fill="none" stroke="#231F20" stroke-miterlimit="10" x1="910.1" y1="0" x2="910.1" y2="30.3"/>
<line fill="none" stroke="#231F20" stroke-miterlimit="10" x1="915.3" y1="0" x2="915.3" y2="22.9"/>
<line fill="none" stroke="#231F20" stroke-miterlimit="10" x1="920.6" y1="0" x2="920.6" y2="30.3"/>
<line fill="none" stroke="#231F20" stroke-miterlimit="10" x1="925.9" y1="0" x2="925.9" y2="22.9"/>
<line fill="none" stroke="#231F20" stroke-miterlimit="10" x1="931.1" y1="0" x2="931.1" y2="50.9"/>
<line fill="none" stroke="#231F20" stroke-miterlimit="10" x1="936.4" y1="0" x2="936.4" y2="22.9"/>
<line fill="none" stroke="#231F20" stroke-miterlimit="10" x1="941.6" y1="0" x2="941.6" y2="30.3"/>
<line fill="none" stroke="#231F20" stroke-miterlimit="10" x1="946.9" y1="0" x2="946.9" y2="22.9"/>
<line fill="none" stroke="#231F20" stroke-miterlimit="10" x1="952.1" y1="0" x2="952.1" y2="30.3"/>
<line fill="none" stroke="#231F20" stroke-miterlimit="10" x1="957.4" y1="0" x2="957.4" y2="22.9"/>
<line fill="none" stroke="#231F20" stroke-miterlimit="10" x1="962.6" y1="0" x2="962.6" y2="30.3"/>
<line fill="none" stroke="#231F20" stroke-miterlimit="10" x1="967.9" y1="0" x2="967.9" y2="22.9"/>
<line fill="none" stroke="#231F20" stroke-miterlimit="10" x1="973.1" y1="0" x2="973.1" y2="30.3"/>
<line fill="none" stroke="#231F20" stroke-miterlimit="10" x1="978.4" y1="0" x2="978.4" y2="22.9"/>
<line fill="none" stroke="#231F20" stroke-miterlimit="10" x1="983.6" y1="0" x2="983.6" y2="38.3"/>
<line fill="none" stroke="#231F20" stroke-miterlimit="10" x1="988.9" y1="0" x2="988.9" y2="22.9"/>
<line fill="none" stroke="#231F20" stroke-miterlimit="10" x1="994.1" y1="0" x2="994.1" y2="30.3"/>
<line fill="none" stroke="#231F20" stroke-miterlimit="10" x1="999.4" y1="0" x2="999.4" y2="22.9"/>
<line fill="none" stroke="#231F20" stroke-miterlimit="10" x1="1004.6" y1="0" x2="1004.6" y2="30.3"/>
<line fill="none" stroke="#231F20" stroke-miterlimit="10" x1="1009.9" y1="0" x2="1009.9" y2="22.9"/>
<line fill="none" stroke="#231F20" stroke-miterlimit="10" x1="1015.2" y1="0" x2="1015.2" y2="30.3"/>
<line fill="none" stroke="#231F20" stroke-miterlimit="10" x1="1020.4" y1="0" x2="1020.4" y2="22.9"/>
<line fill="none" stroke="#231F20" stroke-miterlimit="10" x1="1025.7" y1="0" x2="1025.7" y2="30.3"/>
<line fill="none" stroke="#231F20" stroke-miterlimit="10" x1="1030.9" y1="0" x2="1030.9" y2="22.9"/>
<line fill="none" stroke="#231F20" stroke-miterlimit="10" x1="1036.2" y1="0" x2="1036.2" y2="50.9"/>
<line fill="none" stroke="#231F20" stroke-miterlimit="10" x1="1041.4" y1="0" x2="1041.4" y2="22.9"/>
<line fill="none" stroke="#231F20" stroke-miterlimit="10" x1="1046.7" y1="0" x2="1046.7" y2="30.3"/>
<line fill="none" stroke="#231F20" stroke-miterlimit="10" x1="1051.9" y1="0" x2="1051.9" y2="22.9"/>
<line fill="none" stroke="#231F20" stroke-miterlimit="10" x1="1057.2" y1="0" x2="1057.2" y2="30.3"/>
<line fill="none" stroke="#231F20" stroke-miterlimit="10" x1="1062.4" y1="0" x2="1062.4" y2="22.9"/>
<line fill="none" stroke="#231F20" stroke-miterlimit="10" x1="1067.7" y1="0" x2="1067.7" y2="30.3"/>
<line fill="none" stroke="#231F20" stroke-miterlimit="10" x1="1072.9" y1="0" x2="1072.9" y2="22.9"/>
<line fill="none" stroke="#231F20" stroke-miterlimit="10" x1="1078.2" y1="0" x2="1078.2" y2="30.3"/>
<line fill="none" stroke="#231F20" stroke-miterlimit="10" x1="1083.4" y1="0" x2="1083.4" y2="22.9"/>
<line fill="none" stroke="#231F20" stroke-miterlimit="10" x1="1088.7" y1="0" x2="1088.7" y2="38.3"/>
<line fill="none" stroke="#231F20" stroke-miterlimit="10" x1="1094" y1="0" x2="1094" y2="22.9"/>
<line fill="none" stroke="#231F20" stroke-miterlimit="10" x1="1099.2" y1="0" x2="1099.2" y2="30.3"/>
<line fill="none" stroke="#231F20" stroke-miterlimit="10" x1="1104.5" y1="0" x2="1104.5" y2="22.9"/>
<line fill="none" stroke="#231F20" stroke-miterlimit="10" x1="1109.7" y1="0" x2="1109.7" y2="30.3"/>
<line fill="none" stroke="#231F20" stroke-miterlimit="10" x1="1115" y1="0" x2="1115" y2="22.9"/>
<line fill="none" stroke="#231F20" stroke-miterlimit="10" x1="1120.2" y1="0" x2="1120.2" y2="30.3"/>
<line fill="none" stroke="#231F20" stroke-miterlimit="10" x1="1125.5" y1="0" x2="1125.5" y2="22.9"/>
<line fill="none" stroke="#231F20" stroke-miterlimit="10" x1="1130.7" y1="0" x2="1130.7" y2="30.3"/>
<line fill="none" stroke="#231F20" stroke-miterlimit="10" x1="1136" y1="0" x2="1136" y2="22.9"/>
<line fill="none" stroke="#231F20" stroke-miterlimit="10" x1="1141.2" y1="0" x2="1141.2" y2="50.9"/>
<line fill="none" stroke="#231F20" stroke-miterlimit="10" x1="1146.5" y1="0" x2="1146.5" y2="22.9"/>
<line fill="none" stroke="#231F20" stroke-miterlimit="10" x1="1151.7" y1="0" x2="1151.7" y2="30.3"/>
<line fill="none" stroke="#231F20" stroke-miterlimit="10" x1="1157" y1="0" x2="1157" y2="22.9"/>
<line fill="none" stroke="#231F20" stroke-miterlimit="10" x1="1162.2" y1="0" x2="1162.2" y2="30.3"/>
<line fill="none" stroke="#231F20" stroke-miterlimit="10" x1="1167.5" y1="0" x2="1167.5" y2="22.9"/>
<line fill="none" stroke="#231F20" stroke-miterlimit="10" x1="1172.8" y1="0" x2="1172.8" y2="30.3"/>
<line fill="none" stroke="#231F20" stroke-miterlimit="10" x1="1178" y1="0" x2="1178" y2="22.9"/>
<line fill="none" stroke="#231F20" stroke-miterlimit="10" x1="1183.3" y1="0" x2="1183.3" y2="30.3"/>
<line fill="none" stroke="#231F20" stroke-miterlimit="10" x1="1188.5" y1="0" x2="1188.5" y2="22.9"/>
<line fill="none" stroke="#231F20" stroke-miterlimit="10" x1="1193.8" y1="0" x2="1193.8" y2="38.3"/>
<line fill="none" stroke="#231F20" stroke-miterlimit="10" x1="1199" y1="0" x2="1199" y2="22.9"/>
<line fill="none" stroke="#231F20" stroke-miterlimit="10" x1="1204.3" y1="0" x2="1204.3" y2="30.3"/>
<line fill="none" stroke="#231F20" stroke-miterlimit="10" x1="1209.5" y1="0" x2="1209.5" y2="22.9"/>
<line fill="none" stroke="#231F20" stroke-miterlimit="10" x1="1214.8" y1="0" x2="1214.8" y2="30.3"/>
<line fill="none" stroke="#231F20" stroke-miterlimit="10" x1="1220" y1="0" x2="1220" y2="22.9"/>
<line fill="none" stroke="#231F20" stroke-miterlimit="10" x1="1225.3" y1="0" x2="1225.3" y2="30.3"/>
<line fill="none" stroke="#231F20" stroke-miterlimit="10" x1="1230.5" y1="0" x2="1230.5" y2="22.9"/>
<line fill="none" stroke="#231F20" stroke-miterlimit="10" x1="1235.8" y1="0" x2="1235.8" y2="30.3"/>
<line fill="none" stroke="#231F20" stroke-miterlimit="10" x1="1241" y1="0" x2="1241" y2="22.9"/>
<line fill="none" stroke="#231F20" stroke-miterlimit="10" x1="1246.3" y1="0" x2="1246.3" y2="50.9"/>
<line fill="none" stroke="#231F20" stroke-miterlimit="10" x1="1251.5" y1="0" x2="1251.5" y2="22.9"/>
<line fill="none" stroke="#231F20" stroke-miterlimit="10" x1="1256.8" y1="0" x2="1256.8" y2="30.3"/>
<line fill="none" stroke="#231F20" stroke-miterlimit="10" x1="1262.1" y1="0" x2="1262.1" y2="22.9"/>
<line fill="none" stroke="#231F20" stroke-miterlimit="10" x1="1267.3" y1="0" x2="1267.3" y2="30.3"/>
<line fill="none" stroke="#231F20" stroke-miterlimit="10" x1="1272.6" y1="0" x2="1272.6" y2="22.9"/>
<line fill="none" stroke="#231F20" stroke-miterlimit="10" x1="1277.8" y1="0" x2="1277.8" y2="30.3"/>
<line fill="none" stroke="#231F20" stroke-miterlimit="10" x1="1283.1" y1="0" x2="1283.1" y2="22.9"/>
<line fill="none" stroke="#231F20" stroke-miterlimit="10" x1="1288.3" y1="0" x2="1288.3" y2="30.3"/>
<line fill="none" stroke="#231F20" stroke-miterlimit="10" x1="1293.6" y1="0" x2="1293.6" y2="22.9"/>
<line fill="none" stroke="#231F20" stroke-miterlimit="10" x1="1298.8" y1="0" x2="1298.8" y2="38.3"/>
<line fill="none" stroke="#231F20" stroke-miterlimit="10" x1="1304.1" y1="0" x2="1304.1" y2="22.9"/>
<line fill="none" stroke="#231F20" stroke-miterlimit="10" x1="1309.3" y1="0" x2="1309.3" y2="30.3"/>
<line fill="none" stroke="#231F20" stroke-miterlimit="10" x1="1314.6" y1="0" x2="1314.6" y2="22.9"/>
<line fill="none" stroke="#231F20" stroke-miterlimit="10" x1="1319.8" y1="0" x2="1319.8" y2="30.3"/>
<line fill="none" stroke="#231F20" stroke-miterlimit="10" x1="1325.1" y1="0" x2="1325.1" y2="22.9"/>
<line fill="none" stroke="#231F20" stroke-miterlimit="10" x1="1330.3" y1="0" x2="1330.3" y2="30.3"/>
<line fill="none" stroke="#231F20" stroke-miterlimit="10" x1="1335.6" y1="0" x2="1335.6" y2="22.9"/>
<line fill="none" stroke="#231F20" stroke-miterlimit="10" x1="1340.9" y1="0" x2="1340.9" y2="30.3"/>
<line fill="none" stroke="#231F20" stroke-miterlimit="10" x1="1346.1" y1="0" x2="1346.1" y2="22.9"/>
<line fill="none" stroke="#231F20" stroke-miterlimit="10" x1="1351.4" y1="0" x2="1351.4" y2="50.9"/>
<line fill="none" stroke="#231F20" stroke-miterlimit="10" x1="1356.6" y1="0" x2="1356.6" y2="22.9"/>
<line fill="none" stroke="#231F20" stroke-miterlimit="10" x1="1361.9" y1="0" x2="1361.9" y2="30.3"/>
<line fill="none" stroke="#231F20" stroke-miterlimit="10" x1="1367.1" y1="0" x2="1367.1" y2="22.9"/>
<line fill="none" stroke="#231F20" stroke-miterlimit="10" x1="1372.4" y1="0" x2="1372.4" y2="30.3"/>
<line fill="none" stroke="#231F20" stroke-miterlimit="10" x1="1377.6" y1="0" x2="1377.6" y2="22.9"/>
<line fill="none" stroke="#231F20" stroke-miterlimit="10" x1="1382.9" y1="0" x2="1382.9" y2="30.3"/>
<line fill="none" stroke="#231F20" stroke-miterlimit="10" x1="1388.1" y1="0" x2="1388.1" y2="22.9"/>
<line fill="none" stroke="#231F20" stroke-miterlimit="10" x1="1393.4" y1="0" x2="1393.4" y2="30.3"/>
<line fill="none" stroke="#231F20" stroke-miterlimit="10" x1="1398.6" y1="0" x2="1398.6" y2="22.9"/>
<line fill="none" stroke="#231F20" stroke-miterlimit="10" x1="1403.9" y1="0" x2="1403.9" y2="38.3"/>
<line fill="none" stroke="#231F20" stroke-miterlimit="10" x1="1409.1" y1="0" x2="1409.1" y2="22.9"/>
<line fill="none" stroke="#231F20" stroke-miterlimit="10" x1="1414.4" y1="0" x2="1414.4" y2="30.3"/>
<line fill="none" stroke="#231F20" stroke-miterlimit="10" x1="1419.6" y1="0" x2="1419.6" y2="22.9"/>
<line fill="none" stroke="#231F20" stroke-miterlimit="10" x1="1424.9" y1="0" x2="1424.9" y2="30.3"/>
<line fill="none" stroke="#231F20" stroke-miterlimit="10" x1="1430.2" y1="0" x2="1430.2" y2="22.9"/>
<line fill="none" stroke="#231F20" stroke-miterlimit="10" x1="1435.4" y1="0" x2="1435.4" y2="30.3"/>
<line fill="none" stroke="#231F20" stroke-miterlimit="10" x1="1440.7" y1="0" x2="1440.7" y2="22.9"/>
<line fill="none" stroke="#231F20" stroke-miterlimit="10" x1="1445.9" y1="0" x2="1445.9" y2="30.3"/>
<line fill="none" stroke="#231F20" stroke-miterlimit="10" x1="1451.2" y1="0" x2="1451.2" y2="22.9"/>
<line fill="none" stroke="#231F20" stroke-miterlimit="10" x1="1456.4" y1="0" x2="1456.4" y2="50.9"/>
<line fill="none" stroke="#231F20" stroke-miterlimit="10" x1="1461.7" y1="0" x2="1461.7" y2="22.9"/>
<line fill="none" stroke="#231F20" stroke-miterlimit="10" x1="1466.9" y1="0" x2="1466.9" y2="30.3"/>
<line fill="none" stroke="#231F20" stroke-miterlimit="10" x1="1472.2" y1="0" x2="1472.2" y2="22.9"/>
<line fill="none" stroke="#231F20" stroke-miterlimit="10" x1="1477.4" y1="0" x2="1477.4" y2="30.3"/>
<line fill="none" stroke="#231F20" stroke-miterlimit="10" x1="1482.7" y1="0" x2="1482.7" y2="22.9"/>
<line fill="none" stroke="#231F20" stroke-miterlimit="10" x1="1487.9" y1="0" x2="1487.9" y2="30.3"/>
<line fill="none" stroke="#231F20" stroke-miterlimit="10" x1="1493.2" y1="0" x2="1493.2" y2="22.9"/>
<line fill="none" stroke="#231F20" stroke-miterlimit="10" x1="1498.4" y1="0" x2="1498.4" y2="30.3"/>
<line fill="none" stroke="#231F20" stroke-miterlimit="10" x1="1503.7" y1="0" x2="1503.7" y2="22.9"/>
<line fill="none" stroke="#231F20" stroke-miterlimit="10" x1="1509" y1="0" x2="1509" y2="38.3"/>
<line fill="none" stroke="#231F20" stroke-miterlimit="10" x1="1514.2" y1="0" x2="1514.2" y2="22.9"/>
<line fill="none" stroke="#231F20" stroke-miterlimit="10" x1="1519.5" y1="0" x2="1519.5" y2="30.3"/>
<line fill="none" stroke="#231F20" stroke-miterlimit="10" x1="1524.7" y1="0" x2="1524.7" y2="22.9"/>
<line fill="none" stroke="#231F20" stroke-miterlimit="10" x1="1530" y1="0" x2="1530" y2="30.3"/>
<line fill="none" stroke="#231F20" stroke-miterlimit="10" x1="1535.2" y1="0" x2="1535.2" y2="22.9"/>
<line fill="none" stroke="#231F20" stroke-miterlimit="10" x1="1540.5" y1="0" x2="1540.5" y2="30.3"/>
<line fill="none" stroke="#231F20" stroke-miterlimit="10" x1="1545.7" y1="0" x2="1545.7" y2="22.9"/>
<line fill="none" stroke="#231F20" stroke-miterlimit="10" x1="1551" y1="0" x2="1551" y2="30.3"/>
<line fill="none" stroke="#231F20" stroke-miterlimit="10" x1="1556.2" y1="0" x2="1556.2" y2="22.9"/>
<line fill="none" stroke="#231F20" stroke-miterlimit="10" x1="1561.5" y1="0" x2="1561.5" y2="50.9"/>
<line fill="none" stroke="#231F20" stroke-miterlimit="10" x1="1566.7" y1="0" x2="1566.7" y2="22.9"/>
<line fill="none" stroke="#231F20" stroke-miterlimit="10" x1="1572" y1="0" x2="1572" y2="30.3"/>
<line fill="none" stroke="#231F20" stroke-miterlimit="10" x1="1577.2" y1="0" x2="1577.2" y2="22.9"/>
<line fill="none" stroke="#231F20" stroke-miterlimit="10" x1="1582.5" y1="0" x2="1582.5" y2="30.3"/>
<line fill="none" stroke="#231F20" stroke-miterlimit="10" x1="1587.8" y1="0" x2="1587.8" y2="22.9"/>
<line fill="none" stroke="#231F20" stroke-miterlimit="10" x1="1593" y1="0" x2="1593" y2="30.3"/>
<line fill="none" stroke="#231F20" stroke-miterlimit="10" x1="1598.3" y1="0" x2="1598.3" y2="22.9"/>
<line fill="none" stroke="#231F20" stroke-miterlimit="10" x1="1603.5" y1="0" x2="1603.5" y2="30.3"/>
<line fill="none" stroke="#231F20" stroke-miterlimit="10" x1="1608.8" y1="0" x2="1608.8" y2="22.9"/>
<line fill="none" stroke="#231F20" stroke-miterlimit="10" x1="1614" y1="0" x2="1614" y2="38.3"/>
<line fill="none" stroke="#231F20" stroke-miterlimit="10" x1="1619.3" y1="0" x2="1619.3" y2="22.9"/>
<line fill="none" stroke="#231F20" stroke-miterlimit="10" x1="1624.5" y1="0" x2="1624.5" y2="30.3"/>
<line fill="none" stroke="#231F20" stroke-miterlimit="10" x1="1629.8" y1="0" x2="1629.8" y2="22.9"/>
<line fill="none" stroke="#231F20" stroke-miterlimit="10" x1="1635" y1="0" x2="1635" y2="30.3"/>
<line fill="none" stroke="#231F20" stroke-miterlimit="10" x1="1640.3" y1="0" x2="1640.3" y2="22.9"/>
<line fill="none" stroke="#231F20" stroke-miterlimit="10" x1="1645.5" y1="0" x2="1645.5" y2="30.3"/>
<line fill="none" stroke="#231F20" stroke-miterlimit="10" x1="1650.8" y1="0" x2="1650.8" y2="22.9"/>
<line fill="none" stroke="#231F20" stroke-miterlimit="10" x1="1656" y1="0" x2="1656" y2="30.3"/>
<line fill="none" stroke="#231F20" stroke-miterlimit="10" x1="1661.3" y1="0" x2="1661.3" y2="22.9"/>
<line fill="none" stroke="#231F20" stroke-miterlimit="10" x1="1666.5" y1="0" x2="1666.5" y2="50.9"/>
<line fill="none" stroke="#231F20" stroke-miterlimit="10" x1="1671.8" y1="0" x2="1671.8" y2="22.9"/>
<line fill="none" stroke="#231F20" stroke-miterlimit="10" x1="1677.1" y1="0" x2="1677.1" y2="30.3"/>
<line fill="none" stroke="#231F20" stroke-miterlimit="10" x1="1682.3" y1="0" x2="1682.3" y2="22.9"/>
<line fill="none" stroke="#231F20" stroke-miterlimit="10" x1="1687.6" y1="0" x2="1687.6" y2="30.3"/>
<line fill="none" stroke="#231F20" stroke-miterlimit="10" x1="1692.8" y1="0" x2="1692.8" y2="22.9"/>
<line fill="none" stroke="#231F20" stroke-miterlimit="10" x1="1698.1" y1="0" x2="1698.1" y2="30.3"/>
<line fill="none" stroke="#231F20" stroke-miterlimit="10" x1="1703.3" y1="0" x2="1703.3" y2="22.9"/>
<line fill="none" stroke="#231F20" stroke-miterlimit="10" x1="1708.6" y1="0" x2="1708.6" y2="30.3"/>
<line fill="none" stroke="#231F20" stroke-miterlimit="10" x1="1713.8" y1="0" x2="1713.8" y2="22.9"/>
<line fill="none" stroke="#231F20" stroke-miterlimit="10" x1="1719.1" y1="0" x2="1719.1" y2="38.3"/>
<line fill="none" stroke="#231F20" stroke-miterlimit="10" x1="1724.3" y1="0" x2="1724.3" y2="22.9"/>
<line fill="none" stroke="#231F20" stroke-miterlimit="10" x1="1729.6" y1="0" x2="1729.6" y2="30.3"/>
<line fill="none" stroke="#231F20" stroke-miterlimit="10" x1="1734.8" y1="0" x2="1734.8" y2="22.9"/>
<line fill="none" stroke="#231F20" stroke-miterlimit="10" x1="1740.1" y1="0" x2="1740.1" y2="30.3"/>
<line fill="none" stroke="#231F20" stroke-miterlimit="10" x1="1745.3" y1="0" x2="1745.3" y2="22.9"/>
<line fill="none" stroke="#231F20" stroke-miterlimit="10" x1="1750.6" y1="0" x2="1750.6" y2="30.3"/>
<line fill="none" stroke="#231F20" stroke-miterlimit="10" x1="1755.9" y1="0" x2="1755.9" y2="22.9"/>
<line fill="none" stroke="#231F20" stroke-miterlimit="10" x1="1761.1" y1="0" x2="1761.1" y2="30.3"/>
<line fill="none" stroke="#231F20" stroke-miterlimit="10" x1="1766.4" y1="0" x2="1766.4" y2="22.9"/>
<line fill="none" stroke="#231F20" stroke-miterlimit="10" x1="1771.6" y1="0" x2="1771.6" y2="50.9"/>
<line fill="none" stroke="#231F20" stroke-miterlimit="10" x1="1776.9" y1="0" x2="1776.9" y2="22.9"/>
<line fill="none" stroke="#231F20" stroke-miterlimit="10" x1="1782.1" y1="0" x2="1782.1" y2="30.3"/>
<line fill="none" stroke="#231F20" stroke-miterlimit="10" x1="1787.4" y1="0" x2="1787.4" y2="22.9"/>
<line fill="none" stroke="#231F20" stroke-miterlimit="10" x1="1792.6" y1="0" x2="1792.6" y2="30.3"/>
<line fill="none" stroke="#231F20" stroke-miterlimit="10" x1="1797.9" y1="0" x2="1797.9" y2="22.9"/>
<line fill="none" stroke="#231F20" stroke-miterlimit="10" x1="1803.1" y1="0" x2="1803.1" y2="30.3"/>
<line fill="none" stroke="#231F20" stroke-miterlimit="10" x1="1808.4" y1="0" x2="1808.4" y2="22.9"/>
<line fill="none" stroke="#231F20" stroke-miterlimit="10" x1="1813.6" y1="0" x2="1813.6" y2="30.3"/>
<line fill="none" stroke="#231F20" stroke-miterlimit="10" x1="1818.9" y1="0" x2="1818.9" y2="22.9"/>
<line fill="none" stroke="#231F20" stroke-miterlimit="10" x1="1824.1" y1="0" x2="1824.1" y2="38.3"/>
<line fill="none" stroke="#231F20" stroke-miterlimit="10" x1="1829.4" y1="0" x2="1829.4" y2="22.9"/>
<line fill="none" stroke="#231F20" stroke-miterlimit="10" x1="1834.6" y1="0" x2="1834.6" y2="30.3"/>
<line fill="none" stroke="#231F20" stroke-miterlimit="10" x1="1839.9" y1="0" x2="1839.9" y2="22.9"/>
<line fill="none" stroke="#231F20" stroke-miterlimit="10" x1="1845.2" y1="0" x2="1845.2" y2="30.3"/>
<line fill="none" stroke="#231F20" stroke-miterlimit="10" x1="1850.4" y1="0" x2="1850.4" y2="22.9"/>
<line fill="none" stroke="#231F20" stroke-miterlimit="10" x1="1855.7" y1="0" x2="1855.7" y2="30.3"/>
<line fill="none" stroke="#231F20" stroke-miterlimit="10" x1="1860.9" y1="0" x2="1860.9" y2="22.9"/>
<line fill="none" stroke="#231F20" stroke-miterlimit="10" x1="1866.2" y1="0" x2="1866.2" y2="30.3"/>
<line fill="none" stroke="#231F20" stroke-miterlimit="10" x1="1871.4" y1="0" x2="1871.4" y2="22.9"/>
<line fill="none" stroke="#231F20" stroke-miterlimit="10" x1="1876.7" y1="0" x2="1876.7" y2="50.9"/>
<line fill="none" stroke="#231F20" stroke-miterlimit="10" x1="1881.9" y1="0" x2="1881.9" y2="22.9"/>
<line fill="none" stroke="#231F20" stroke-miterlimit="10" x1="1887.2" y1="0" x2="1887.2" y2="30.3"/>
<line fill="none" stroke="#231F20" stroke-miterlimit="10" x1="1892.4" y1="0" x2="1892.4" y2="22.9"/>
<line fill="none" stroke="#231F20" stroke-miterlimit="10" x1="1897.7" y1="0" x2="1897.7" y2="30.3"/>
<line fill="none" stroke="#231F20" stroke-miterlimit="10" x1="1902.9" y1="0" x2="1902.9" y2="22.9"/>
<line fill="none" stroke="#231F20" stroke-miterlimit="10" x1="1908.2" y1="0" x2="1908.2" y2="30.3"/>
<line fill="none" stroke="#231F20" stroke-miterlimit="10" x1="1913.4" y1="0" x2="1913.4" y2="22.9"/>
<line fill="none" stroke="#231F20" stroke-miterlimit="10" x1="1918.7" y1="0" x2="1918.7" y2="30.3"/>
<line fill="none" stroke="#231F20" stroke-miterlimit="10" x1="1924" y1="0" x2="1924" y2="22.9"/>
<line fill="none" stroke="#231F20" stroke-miterlimit="10" x1="1929.2" y1="0" x2="1929.2" y2="38.3"/>
<line fill="none" stroke="#231F20" stroke-miterlimit="10" x1="1934.5" y1="0" x2="1934.5" y2="22.9"/>
<line fill="none" stroke="#231F20" stroke-miterlimit="10" x1="1939.7" y1="0" x2="1939.7" y2="30.3"/>
<line fill="none" stroke="#231F20" stroke-miterlimit="10" x1="1945" y1="0" x2="1945" y2="22.9"/>
<line fill="none" stroke="#231F20" stroke-miterlimit="10" x1="1950.2" y1="0" x2="1950.2" y2="30.3"/>
<line fill="none" stroke="#231F20" stroke-miterlimit="10" x1="1955.5" y1="0" x2="1955.5" y2="22.9"/>
<line fill="none" stroke="#231F20" stroke-miterlimit="10" x1="1960.7" y1="0" x2="1960.7" y2="30.3"/>
<line fill="none" stroke="#231F20" stroke-miterlimit="10" x1="1966" y1="0" x2="1966" y2="22.9"/>
<line fill="none" stroke="#231F20" stroke-miterlimit="10" x1="1971.2" y1="0" x2="1971.2" y2="30.3"/>
<line fill="none" stroke="#231F20" stroke-miterlimit="10" x1="1976.5" y1="0" x2="1976.5" y2="22.9"/>
<line fill="none" stroke="#231F20" stroke-miterlimit="10" x1="1981.7" y1="0" x2="1981.7" y2="50.9"/>
<line fill="none" stroke="#231F20" stroke-miterlimit="10" x1="1987" y1="0" x2="1987" y2="22.9"/>
<line fill="none" stroke="#231F20" stroke-miterlimit="10" x1="1992.2" y1="0" x2="1992.2" y2="30.3"/>
<line fill="none" stroke="#231F20" stroke-miterlimit="10" x1="1997.5" y1="0" x2="1997.5" y2="22.9"/>
<line fill="none" stroke="#231F20" stroke-miterlimit="10" x1="2002.8" y1="0" x2="2002.8" y2="30.3"/>
<line fill="none" stroke="#231F20" stroke-miterlimit="10" x1="2008" y1="0" x2="2008" y2="22.9"/>
<line fill="none" stroke="#231F20" stroke-miterlimit="10" x1="2013.3" y1="0" x2="2013.3" y2="30.3"/>
<line fill="none" stroke="#231F20" stroke-miterlimit="10" x1="2018.5" y1="0" x2="2018.5" y2="22.9"/>
<line fill="none" stroke="#231F20" stroke-miterlimit="10" x1="2023.8" y1="0" x2="2023.8" y2="30.3"/>
<line fill="none" stroke="#231F20" stroke-miterlimit="10" x1="2029" y1="0" x2="2029" y2="22.9"/>
<line fill="none" stroke="#231F20" stroke-miterlimit="10" x1="2034.3" y1="0" x2="2034.3" y2="38.3"/>
<line fill="none" stroke="#231F20" stroke-miterlimit="10" x1="2039.5" y1="0" x2="2039.5" y2="22.9"/>
<line fill="none" stroke="#231F20" stroke-miterlimit="10" x1="2044.8" y1="0" x2="2044.8" y2="30.3"/>
<line fill="none" stroke="#231F20" stroke-miterlimit="10" x1="2050" y1="0" x2="2050" y2="22.9"/>
<line fill="none" stroke="#231F20" stroke-miterlimit="10" x1="2055.3" y1="0" x2="2055.3" y2="30.3"/>
<line fill="none" stroke="#231F20" stroke-miterlimit="10" x1="2060.5" y1="0" x2="2060.5" y2="22.9"/>
<line fill="none" stroke="#231F20" stroke-miterlimit="10" x1="2065.8" y1="0" x2="2065.8" y2="30.3"/>
<line fill="none" stroke="#231F20" stroke-miterlimit="10" x1="2071" y1="0" x2="2071" y2="22.9"/>
<line fill="none" stroke="#231F20" stroke-miterlimit="10" x1="2076.3" y1="0" x2="2076.3" y2="30.3"/>
<line fill="none" stroke="#231F20" stroke-miterlimit="10" x1="2081.5" y1="0" x2="2081.5" y2="22.9"/>
<line fill="none" stroke="#231F20" stroke-miterlimit="10" x1="2086.8" y1="0" x2="2086.8" y2="50.9"/>
<line fill="none" stroke="#231F20" stroke-miterlimit="10" x1="2092" y1="0" x2="2092" y2="22.9"/>
<line fill="none" stroke="#231F20" stroke-miterlimit="10" x1="2097.2" y1="0" x2="2097.2" y2="30.3"/>
<line fill="none" stroke="#231F20" stroke-miterlimit="10" x1="2102.5" y1="0" x2="2102.5" y2="22.9"/>
<line fill="none" stroke="#231F20" stroke-miterlimit="10" x1="2107.8" y1="0" x2="2107.8" y2="30.3"/>
<line fill="none" stroke="#231F20" stroke-miterlimit="10" x1="2113" y1="0" x2="2113" y2="22.9"/>
<line fill="none" stroke="#231F20" stroke-miterlimit="10" x1="2118.3" y1="0" x2="2118.3" y2="30.3"/>
<line fill="none" stroke="#231F20" stroke-miterlimit="10" x1="2123.5" y1="0" x2="2123.5" y2="22.9"/>
<line fill="none" stroke="#231F20" stroke-miterlimit="10" x1="2128.8" y1="0" x2="2128.8" y2="30.3"/>
<line fill="none" stroke="#231F20" stroke-miterlimit="10" x1="2134" y1="0" x2="2134" y2="22.9"/>
<line fill="none" stroke="#231F20" stroke-miterlimit="10" x1="2139.3" y1="0" x2="2139.3" y2="38.3"/>
<line fill="none" stroke="#231F20" stroke-miterlimit="10" x1="2144.5" y1="0" x2="2144.5" y2="22.9"/>
<line fill="none" stroke="#231F20" stroke-miterlimit="10" x1="2149.8" y1="0" x2="2149.8" y2="30.3"/>
<line fill="none" stroke="#231F20" stroke-miterlimit="10" x1="2155" y1="0" x2="2155" y2="22.9"/>
<line fill="none" stroke="#231F20" stroke-miterlimit="10" x1="2160.3" y1="0" x2="2160.3" y2="30.3"/>
<line fill="none" stroke="#231F20" stroke-miterlimit="10" x1="2165.5" y1="0" x2="2165.5" y2="22.9"/>
<line fill="none" stroke="#231F20" stroke-miterlimit="10" x1="2170.8" y1="0" x2="2170.8" y2="30.3"/>
<line fill="none" stroke="#231F20" stroke-miterlimit="10" x1="2176" y1="0" x2="2176" y2="22.9"/>
<line fill="none" stroke="#231F20" stroke-miterlimit="10" x1="2181.3" y1="0" x2="2181.3" y2="30.3"/>
<line fill="none" stroke="#231F20" stroke-miterlimit="10" x1="2186.5" y1="0" x2="2186.5" y2="22.9"/>
<line fill="none" stroke="#231F20" stroke-miterlimit="10" x1="2191.8" y1="0" x2="2191.8" y2="50.9"/>
<g>
	<path fill="#010101" d="M195,55.3L195,55.3l-2.6,1.4l-0.4-1.5l3.2-1.7h1.7V68H195V55.3z"/>
</g>
<g>
	<path fill="#010101" d="M295.8,68v-1.2l1.5-1.5c3.7-3.5,5.4-5.4,5.4-7.6c0-1.5-0.7-2.8-2.9-2.8c-1.3,0-2.4,0.7-3.1,1.2l-0.6-1.4
		c1-0.8,2.4-1.5,4.1-1.5c3.1,0,4.4,2.1,4.4,4.2c0,2.7-1.9,4.8-5,7.8l-1.2,1.1v0h6.5V68H295.8z"/>
</g>
<g>
	<path fill="#010101" d="M401.4,65.8c0.6,0.4,1.9,0.9,3.2,0.9c2.5,0,3.3-1.6,3.3-2.8c0-2-1.9-2.9-3.8-2.9h-1.1v-1.5h1.1
		c1.4,0,3.2-0.7,3.2-2.5c0-1.2-0.7-2.2-2.5-2.2c-1.2,0-2.3,0.5-2.9,1l-0.5-1.4c0.8-0.6,2.2-1.1,3.8-1.1c2.9,0,4.2,1.7,4.2,3.5
		c0,1.5-0.9,2.8-2.7,3.4v0c1.8,0.4,3.2,1.7,3.2,3.7c0,2.3-1.8,4.4-5.3,4.4c-1.6,0-3.1-0.5-3.8-1L401.4,65.8z"/>
</g>
<g>
	<path fill="#010101" d="M512.1,68v-4h-6.7v-1.3l6.5-9.3h2.1v9h2v1.5h-2v4H512.1z M512.1,62.5v-4.8c0-0.8,0-1.5,0.1-2.3h-0.1
		c-0.4,0.8-0.8,1.5-1.2,2.1l-3.5,4.9v0H512.1z"/>
</g>
<g>
	<path fill="#010101" d="M618.9,55.2h-5.5l-0.6,3.7c0.3,0,0.6-0.1,1.2-0.1c1.1,0,2.2,0.2,3.1,0.8c1.1,0.6,2.1,1.9,2.1,3.7
		c0,2.8-2.3,5-5.4,5c-1.6,0-2.9-0.4-3.6-0.9l0.5-1.5c0.6,0.4,1.8,0.8,3.1,0.8c1.9,0,3.4-1.2,3.4-3.1c0-1.9-1.3-3.2-4.2-3.2
		c-0.8,0-1.5,0.1-2,0.2l0.9-7h6.9V55.2z"/>
</g>
<g>
	<path fill="#010101" d="M724.6,54.9c-0.4,0-0.9,0-1.5,0.1c-3.1,0.5-4.7,2.8-5,5.2h0.1c0.7-0.9,1.9-1.7,3.5-1.7
		c2.6,0,4.4,1.9,4.4,4.7c0,2.7-1.8,5.1-4.8,5.1c-3.1,0-5.1-2.4-5.1-6.2c0-2.9,1-5.1,2.5-6.5c1.2-1.2,2.8-1.9,4.6-2.1
		c0.6-0.1,1.1-0.1,1.4-0.1V54.9z M724,63.3c0-2.1-1.2-3.3-3-3.3c-1.2,0-2.3,0.7-2.8,1.8c-0.1,0.2-0.2,0.5-0.2,0.9
		c0,2.4,1.1,4.2,3.2,4.2C722.9,66.7,724,65.3,724,63.3z"/>
</g>
<g>
	<path fill="#010101" d="M830.8,53.5v1.3L824.5,68h-2l6.3-12.8v0h-7.1v-1.6H830.8z"/>
</g>
<g>
	<path fill="#010101" d="M925.4,64.3c0-1.8,1.1-3.1,2.9-3.9l0-0.1c-1.6-0.8-2.3-2-2.3-3.3c0-2.3,1.9-3.9,4.5-3.9
		c2.8,0,4.2,1.8,4.2,3.6c0,1.2-0.6,2.5-2.4,3.4v0.1c1.8,0.7,2.9,2,2.9,3.8c0,2.5-2.2,4.2-4.9,4.2C927.2,68.3,925.4,66.5,925.4,64.3z
		 M933.2,64.2c0-1.8-1.2-2.6-3.2-3.2c-1.7,0.5-2.6,1.6-2.6,3c-0.1,1.5,1,2.8,2.9,2.8C932.1,66.8,933.2,65.7,933.2,64.2z M927.8,57
		c0,1.5,1.1,2.2,2.8,2.7c1.3-0.4,2.2-1.3,2.2-2.6c0-1.2-0.7-2.4-2.5-2.4C928.7,54.7,927.8,55.7,927.8,57z"/>
</g>
<g>
	<path fill="#010101" d="M1031.8,66.6c0.4,0,0.9,0,1.6-0.1c1.1-0.2,2.2-0.6,3-1.4c1-0.9,1.7-2.1,1.9-3.9h-0.1c-0.8,1-2,1.6-3.4,1.6
		c-2.6,0-4.3-2-4.3-4.4c0-2.7,2-5.2,5-5.2s4.8,2.4,4.8,6.1c0,3.2-1.1,5.4-2.5,6.8c-1.1,1.1-2.7,1.8-4.2,1.9
		c-0.7,0.1-1.3,0.1-1.8,0.1V66.6z M1032.6,58.3c0,1.8,1.1,3.1,2.8,3.1c1.3,0,2.3-0.6,2.9-1.5c0.1-0.2,0.2-0.4,0.2-0.7
		c0-2.5-0.9-4.4-3-4.4C1033.7,54.8,1032.6,56.2,1032.6,58.3z"/>
</g>
<g>
	<path fill="#010101" d="M1134.5,55.3L1134.5,55.3l-2.6,1.4l-0.4-1.5l3.2-1.7h1.7V68h-1.9V55.3z"/>
	<path fill="#010101" d="M1151.3,60.6c0,4.9-1.8,7.7-5,7.7c-2.8,0-4.8-2.7-4.8-7.5c0-4.9,2.1-7.5,5-7.5
		C1149.6,53.3,1151.3,56,1151.3,60.6z M1143.4,60.8c0,3.8,1.2,5.9,2.9,5.9c2,0,3-2.3,3-6.1c0-3.6-0.9-5.9-2.9-5.9
		C1144.7,54.8,1143.4,56.9,1143.4,60.8z"/>
</g>
<g>
	<path fill="#010101" d="M1239.6,55.3L1239.6,55.3l-2.6,1.4l-0.4-1.5l3.2-1.7h1.7V68h-1.9V55.3z"/>
	<path fill="#010101" d="M1251.1,55.3L1251.1,55.3l-2.6,1.4l-0.4-1.5l3.2-1.7h1.7V68h-1.9V55.3z"/>
</g>
<g>
	<path fill="#010101" d="M1344.7,55.3L1344.7,55.3l-2.6,1.4l-0.4-1.5l3.2-1.7h1.7V68h-1.9V55.3z"/>
	<path fill="#010101" d="M1351.9,68v-1.2l1.5-1.5c3.7-3.5,5.4-5.4,5.4-7.6c0-1.5-0.7-2.8-2.9-2.8c-1.3,0-2.4,0.7-3.1,1.2l-0.6-1.4
		c1-0.8,2.4-1.5,4.1-1.5c3.1,0,4.4,2.1,4.4,4.2c0,2.7-1.9,4.8-5,7.8l-1.2,1.1v0h6.5V68H1351.9z"/>
</g>
<g>
	<path fill="#010101" d="M1449.8,55.3L1449.8,55.3l-2.6,1.4l-0.4-1.5l3.2-1.7h1.7V68h-1.9V55.3z"/>
	<path fill="#010101" d="M1457.5,65.8c0.6,0.4,1.9,0.9,3.2,0.9c2.5,0,3.3-1.6,3.3-2.8c0-2-1.9-2.9-3.8-2.9h-1.1v-1.5h1.1
		c1.4,0,3.2-0.7,3.2-2.5c0-1.2-0.7-2.2-2.5-2.2c-1.2,0-2.3,0.5-2.9,1l-0.5-1.4c0.8-0.6,2.2-1.1,3.8-1.1c2.9,0,4.2,1.7,4.2,3.5
		c0,1.5-0.9,2.8-2.7,3.4v0c1.8,0.4,3.2,1.7,3.2,3.7c0,2.3-1.8,4.4-5.3,4.4c-1.6,0-3.1-0.5-3.8-1L1457.5,65.8z"/>
</g>
<g>
	<path fill="#010101" d="M1554.9,55.3L1554.9,55.3l-2.6,1.4l-0.4-1.5l3.2-1.7h1.7V68h-1.9V55.3z"/>
	<path fill="#010101" d="M1568.2,68v-4h-6.7v-1.3l6.5-9.3h2.1v9h2v1.5h-2v4H1568.2z M1568.2,62.5v-4.8c0-0.8,0-1.5,0.1-2.3h-0.1
		c-0.4,0.8-0.8,1.5-1.2,2.1l-3.6,4.9v0H1568.2z"/>
</g>
<g>
	<path fill="#010101" d="M1660.1,55.3L1660.1,55.3l-2.6,1.4l-0.4-1.5l3.2-1.7h1.7V68h-1.9V55.3z"/>
	<path fill="#010101" d="M1675.9,55.2h-5.5l-0.6,3.7c0.3,0,0.6-0.1,1.2-0.1c1.1,0,2.2,0.2,3.1,0.8c1.1,0.6,2.1,1.9,2.1,3.7
		c0,2.8-2.3,5-5.4,5c-1.6,0-2.9-0.4-3.6-0.9l0.5-1.5c0.6,0.4,1.8,0.8,3.1,0.8c1.9,0,3.4-1.2,3.4-3.1c0-1.9-1.3-3.2-4.2-3.2
		c-0.8,0-1.5,0.1-2,0.2l0.9-7h6.9V55.2z"/>
</g>
<g>
	<path fill="#010101" d="M1765.2,55.3L1765.2,55.3l-2.6,1.4l-0.4-1.5l3.2-1.7h1.7V68h-1.9V55.3z"/>
	<path fill="#010101" d="M1780.6,54.9c-0.4,0-0.9,0-1.5,0.1c-3.1,0.5-4.7,2.8-5,5.2h0.1c0.7-0.9,1.9-1.7,3.5-1.7
		c2.6,0,4.4,1.9,4.4,4.7c0,2.7-1.8,5.1-4.8,5.1c-3.1,0-5.1-2.4-5.1-6.2c0-2.9,1-5.1,2.5-6.5c1.2-1.2,2.8-1.9,4.6-2.1
		c0.6-0.1,1.1-0.1,1.4-0.1V54.9z M1780.1,63.3c0-2.1-1.2-3.3-3-3.3c-1.2,0-2.3,0.7-2.8,1.8c-0.1,0.2-0.2,0.5-0.2,0.9
		c0,2.4,1.1,4.2,3.2,4.2C1778.9,66.7,1780.1,65.3,1780.1,63.3z"/>
</g>
<g>
	<path fill="#010101" d="M1870.3,55.3L1870.3,55.3l-2.6,1.4l-0.4-1.5l3.2-1.7h1.7V68h-1.9V55.3z"/>
	<path fill="#010101" d="M1886.9,53.5v1.3l-6.3,13.2h-2l6.3-12.8v0h-7.1v-1.6H1886.9z"/>
</g>
<g>
	<path fill="#010101" d="M1975.4,55.3L1975.4,55.3l-2.6,1.4l-0.4-1.5l3.2-1.7h1.7V68h-1.9V55.3z"/>
	<path fill="#010101" d="M1982.4,64.3c0-1.8,1.1-3.1,2.9-3.9l0-0.1c-1.6-0.8-2.3-2-2.3-3.3c0-2.3,1.9-3.9,4.5-3.9
		c2.8,0,4.2,1.8,4.2,3.6c0,1.2-0.6,2.5-2.4,3.4v0.1c1.8,0.7,2.9,2,2.9,3.8c0,2.5-2.2,4.2-4.9,4.2
		C1984.2,68.3,1982.4,66.5,1982.4,64.3z M1990.2,64.2c0-1.8-1.2-2.6-3.2-3.2c-1.7,0.5-2.6,1.6-2.6,3c-0.1,1.5,1,2.8,2.9,2.8
		C1989.1,66.8,1990.2,65.7,1990.2,64.2z M1984.8,57c0,1.5,1.1,2.2,2.8,2.7c1.3-0.4,2.2-1.3,2.2-2.6c0-1.2-0.7-2.4-2.5-2.4
		C1985.7,54.7,1984.8,55.7,1984.8,57z"/>
</g>
<g>
	<path fill="#010101" d="M2080.5,55.3L2080.5,55.3l-2.6,1.4l-0.4-1.5l3.2-1.7h1.7V68h-1.9V55.3z"/>
	<path fill="#010101" d="M2088.8,66.6c0.4,0,0.9,0,1.6-0.1c1.1-0.2,2.2-0.6,3-1.4c1-0.9,1.7-2.1,1.9-3.9h-0.1c-0.8,1-2,1.6-3.4,1.6
		c-2.6,0-4.3-2-4.3-4.4c0-2.7,2-5.2,5-5.2c3,0,4.8,2.4,4.8,6.1c0,3.2-1.1,5.4-2.5,6.8c-1.1,1.1-2.7,1.8-4.2,1.9
		c-0.7,0.1-1.3,0.1-1.8,0.1V66.6z M2089.5,58.3c0,1.8,1.1,3.1,2.8,3.1c1.3,0,2.3-0.6,2.9-1.5c0.1-0.2,0.2-0.4,0.2-0.7
		c0-2.5-0.9-4.4-3-4.4C2090.7,54.8,2089.5,56.2,2089.5,58.3z"/>
</g>
<g>
	<path fill="#010101" d="M2181.4,68v-1.2l1.5-1.5c3.7-3.5,5.4-5.4,5.4-7.6c0-1.5-0.7-2.8-2.9-2.8c-1.3,0-2.4,0.7-3.1,1.2l-0.6-1.4
		c1-0.8,2.4-1.5,4.1-1.5c3.1,0,4.4,2.1,4.4,4.2c0,2.7-1.9,4.8-5,7.8l-1.2,1.1v0h6.5V68H2181.4z"/>
	<path fill="#010101" d="M2202.5,60.6c0,4.9-1.8,7.7-5,7.7c-2.8,0-4.8-2.7-4.8-7.5c0-4.9,2.1-7.5,5-7.5
		C2200.7,53.3,2202.5,56,2202.5,60.6z M2194.6,60.8c0,3.8,1.2,5.9,2.9,5.9c2,0,3-2.3,3-6.1c0-3.6-0.9-5.9-2.9-5.9
		C2195.8,54.8,2194.6,56.9,2194.6,60.8z"/>
</g>
<g>
	<path fill="#010101" d="M95.4,60.7c0,5-1.9,7.7-5.1,7.7c-2.9,0-4.8-2.7-4.9-7.5c0-4.9,2.1-7.6,5.1-7.6C93.7,53.2,95.4,56,95.4,60.7
		z M87.4,60.9c0,3.8,1.2,6,3,6c2,0,3-2.4,3-6.1c0-3.6-0.9-6-3-6C88.7,54.8,87.4,56.9,87.4,60.9z"/>
</g>
</svg>
