<?xml version="1.0" encoding="utf-8"?>
<!-- Generator: Adobe Illustrator 16.0.0, SVG Export Plug-In . SVG Version: 6.00 Build 0)  -->
<!DOCTYPE svg PUBLIC "-//W3C//DTD SVG 1.1//EN" "http://www.w3.org/Graphics/SVG/1.1/DTD/svg11.dtd">
<svg version="1.1" id="Layer_1" xmlns="http://www.w3.org/2000/svg" xmlns:xlink="http://www.w3.org/1999/xlink" x="0px" y="0px"
	 width="700px" height="700px" viewBox="0 0 700 700" enable-background="new 0 0 700 700" xml:space="preserve">
<g>
	<g>
		
			<path fill-rule="evenodd" clip-rule="evenodd" fill="none" stroke="#FFFFCC" stroke-width="5" stroke-linecap="round" stroke-linejoin="round" stroke-miterlimit="3" d="
			M205.3,47.6c-20.7-20.7-45.6-31-74.9-31c-12.1,0-23.4,1.8-33.9,5.3c-5.9,1.9-11.6,4.4-17.1,7.4c-4.4,2.5-8.6,5.3-12.7,8.4
			c-3.9,3-7.7,6.3-11.3,9.9C47.9,55.2,41.7,63.3,37,72c-3.2,5.7-5.7,11.6-7.7,17.8c-1.7,5.3-2.9,10.8-3.7,16.5
			c-0.8,5.3-1.2,10.8-1.2,16.4c0,0.1,0,0.1,0,0.2c0,6.1,0.5,12.1,1.4,17.8c0.9,6,2.4,11.9,4.4,17.5c2,6,4.7,11.7,7.9,17.3
			c1.1,1.8,2.2,3.6,3.4,5.4c1.4,2.1,2.9,4.2,4.5,6.3c1.2,1.5,2.4,3,3.6,4.4c0.7,0.8,1.4,1.5,2,2.3c1.2,1.3,2.5,2.7,3.8,4
			c0.5,0.5,0.9,0.9,1.4,1.4c1.9,1.8,3.8,3.6,5.7,5.3c1.6,1.4,3.3,2.7,4.9,3.9c3.1,2.3,6.3,4.4,9.5,6.4c0.8,0.5,1.6,0.9,2.4,1.4
			c3.4,1.9,6.8,3.5,10.3,4.9c2.2,0.9,4.4,1.8,6.8,2.5c10.6,3.5,21.9,5.3,33.9,5.3c12.1,0,23.5-1.8,34.1-5.3c2.2-0.8,4.4-1.6,6.5-2.5
			c3.5-1.4,6.8-3,10.1-4.8c8.6-4.8,16.6-10.9,24.1-18.4c2.1-2.1,4-4.2,5.9-6.3c1.6-1.9,3.2-3.8,4.6-5.8c2.8-3.7,5.4-7.6,7.6-11.6
			c2.9-5.1,5.3-10.4,7.1-15.9c1.3-3.8,2.4-7.6,3.3-11.6c0.4-1.9,0.8-3.9,1.1-5.9c0.3-2,0.6-4.1,0.8-6.1c0.4-3.8,0.5-7.7,0.5-11.7
			c0-0.1,0-0.1,0-0.2c0-4.9-0.3-9.7-0.9-14.3c-0.1-0.7-0.2-1.4-0.3-2c-1.8-12.2-5.6-23.6-11.4-34.3C219,63.3,212.8,55.2,205.3,47.6z
			"/>
		
			<path fill-rule="evenodd" clip-rule="evenodd" fill="none" stroke="#663300" stroke-width="2.1" stroke-linecap="round" stroke-linejoin="round" stroke-miterlimit="3" stroke-opacity="0.5843" d="
			M26.6,123.6h102.1V21.3 M128.8,225.5V123.6h102.1"/>
	</g>
</g>
</svg>
