<?xml version="1.0" encoding="utf-8"?>
<!-- Generator: Adobe Illustrator 16.0.0, SVG Export Plug-In . SVG Version: 6.00 Build 0)  -->
<!DOCTYPE svg PUBLIC "-//W3C//DTD SVG 1.1//EN" "http://www.w3.org/Graphics/SVG/1.1/DTD/svg11.dtd">
<svg version="1.1" id="Layer_1" xmlns="http://www.w3.org/2000/svg" xmlns:xlink="http://www.w3.org/1999/xlink" x="0px" y="0px"
	 width="347.3px" height="118.7px" viewBox="0 0 347.3 118.7" enable-background="new 0 0 347.3 118.7" xml:space="preserve">
<rect fill="#CECBCB" width="347.3" height="119"/>
<line fill="none" stroke="#231F20" stroke-miterlimit="10" x1="33.6" y1="71.7" x2="33.6" y2="118.7"/>
<line fill="none" stroke="#231F20" stroke-miterlimit="10" x1="38.7" y1="93" x2="38.7" y2="118.7"/>
<line fill="none" stroke="#231F20" stroke-miterlimit="10" x1="43.9" y1="92.8" x2="43.9" y2="118.7"/>
<line fill="none" stroke="#231F20" stroke-miterlimit="10" x1="49" y1="93" x2="49" y2="118.7"/>
<line fill="none" stroke="#231F20" stroke-miterlimit="10" x1="54.2" y1="92.8" x2="54.2" y2="118.7"/>
<line fill="none" stroke="#231F20" stroke-miterlimit="10" x1="59.3" y1="85.6" x2="59.3" y2="118.7"/>
<line fill="none" stroke="#231F20" stroke-miterlimit="10" x1="64.5" y1="92.8" x2="64.5" y2="118.7"/>
<line fill="none" stroke="#231F20" stroke-miterlimit="10" x1="69.6" y1="93" x2="69.6" y2="118.7"/>
<line fill="none" stroke="#231F20" stroke-miterlimit="10" x1="74.8" y1="92.8" x2="74.8" y2="118.7"/>
<line fill="none" stroke="#231F20" stroke-miterlimit="10" x1="79.9" y1="93" x2="79.9" y2="118.7"/>
<line fill="none" stroke="#231F20" stroke-miterlimit="10" x1="85.1" y1="70.5" x2="85.1" y2="118.7"/>
<line fill="none" stroke="#231F20" stroke-miterlimit="10" x1="90.2" y1="93" x2="90.2" y2="118.7"/>
<line fill="none" stroke="#231F20" stroke-miterlimit="10" x1="95.4" y1="92.8" x2="95.4" y2="118.7"/>
<line fill="none" stroke="#231F20" stroke-miterlimit="10" x1="100.5" y1="93" x2="100.5" y2="118.7"/>
<line fill="none" stroke="#231F20" stroke-miterlimit="10" x1="105.7" y1="92.8" x2="105.7" y2="118.7"/>
<line fill="none" stroke="#231F20" stroke-miterlimit="10" x1="110.8" y1="85.6" x2="110.8" y2="118.7"/>
<line fill="none" stroke="#231F20" stroke-miterlimit="10" x1="116" y1="92.8" x2="116" y2="118.7"/>
<line fill="none" stroke="#231F20" stroke-miterlimit="10" x1="121.1" y1="93" x2="121.1" y2="118.7"/>
<line fill="none" stroke="#231F20" stroke-miterlimit="10" x1="126.3" y1="92.8" x2="126.3" y2="118.7"/>
<line fill="none" stroke="#231F20" stroke-miterlimit="10" x1="131.4" y1="93" x2="131.4" y2="118.7"/>
<line fill="none" stroke="#231F20" stroke-miterlimit="10" x1="136.6" y1="70.5" x2="136.6" y2="118.7"/>
<line fill="none" stroke="#231F20" stroke-miterlimit="10" x1="141.7" y1="93" x2="141.7" y2="118.7"/>
<line fill="none" stroke="#231F20" stroke-miterlimit="10" x1="146.9" y1="92.8" x2="146.9" y2="118.7"/>
<line fill="none" stroke="#231F20" stroke-miterlimit="10" x1="152" y1="93" x2="152" y2="118.7"/>
<line fill="none" stroke="#231F20" stroke-miterlimit="10" x1="157.2" y1="92.8" x2="157.2" y2="118.7"/>
<line fill="none" stroke="#231F20" stroke-miterlimit="10" x1="162.3" y1="85.6" x2="162.3" y2="118.7"/>
<line fill="none" stroke="#231F20" stroke-miterlimit="10" x1="167.4" y1="92.8" x2="167.4" y2="118.7"/>
<line fill="none" stroke="#231F20" stroke-miterlimit="10" x1="172.6" y1="93" x2="172.6" y2="118.7"/>
<line fill="none" stroke="#231F20" stroke-miterlimit="10" x1="177.7" y1="92.8" x2="177.7" y2="118.7"/>
<line fill="none" stroke="#231F20" stroke-miterlimit="10" x1="182.9" y1="93" x2="182.9" y2="118.7"/>
<line fill="none" stroke="#231F20" stroke-miterlimit="10" x1="188" y1="70.5" x2="188" y2="118.7"/>
<line fill="none" stroke="#231F20" stroke-miterlimit="10" x1="193.2" y1="93" x2="193.2" y2="118.7"/>
<line fill="none" stroke="#231F20" stroke-miterlimit="10" x1="198.3" y1="92.8" x2="198.3" y2="118.7"/>
<line fill="none" stroke="#231F20" stroke-miterlimit="10" x1="203.5" y1="93" x2="203.5" y2="118.7"/>
<line fill="none" stroke="#231F20" stroke-miterlimit="10" x1="208.6" y1="92.8" x2="208.6" y2="118.7"/>
<line fill="none" stroke="#231F20" stroke-miterlimit="10" x1="213.8" y1="85.6" x2="213.8" y2="118.7"/>
<line fill="none" stroke="#231F20" stroke-miterlimit="10" x1="218.9" y1="92.8" x2="218.9" y2="118.7"/>
<line fill="none" stroke="#231F20" stroke-miterlimit="10" x1="224.1" y1="93" x2="224.1" y2="118.7"/>
<line fill="none" stroke="#231F20" stroke-miterlimit="10" x1="229.2" y1="92.8" x2="229.2" y2="118.7"/>
<line fill="none" stroke="#231F20" stroke-miterlimit="10" x1="234.4" y1="93" x2="234.4" y2="118.7"/>
<line fill="none" stroke="#231F20" stroke-miterlimit="10" x1="239.5" y1="70.5" x2="239.5" y2="118.7"/>
<line fill="none" stroke="#231F20" stroke-miterlimit="10" x1="244.7" y1="93" x2="244.7" y2="118.7"/>
<line fill="none" stroke="#231F20" stroke-miterlimit="10" x1="249.8" y1="92.8" x2="249.8" y2="118.7"/>
<line fill="none" stroke="#231F20" stroke-miterlimit="10" x1="255" y1="93" x2="255" y2="118.7"/>
<line fill="none" stroke="#231F20" stroke-miterlimit="10" x1="260.1" y1="92.8" x2="260.1" y2="118.7"/>
<line fill="none" stroke="#231F20" stroke-miterlimit="10" x1="265.3" y1="85.6" x2="265.3" y2="118.7"/>
<line fill="none" stroke="#231F20" stroke-miterlimit="10" x1="270.4" y1="92.8" x2="270.4" y2="118.7"/>
<line fill="none" stroke="#231F20" stroke-miterlimit="10" x1="275.6" y1="93" x2="275.6" y2="118.7"/>
<line fill="none" stroke="#231F20" stroke-miterlimit="10" x1="280.7" y1="92.8" x2="280.7" y2="118.7"/>
<line fill="none" stroke="#231F20" stroke-miterlimit="10" x1="285.9" y1="93" x2="285.9" y2="118.7"/>
<line fill="none" stroke="#231F20" stroke-miterlimit="10" x1="291" y1="70.5" x2="291" y2="118.7"/>
<g>
	<path fill="#010101" d="M38.2,60.1c0,4.9-1.8,7.7-5,7.7c-2.8,0-4.8-2.7-4.8-7.5c0-4.9,2.1-7.5,5-7.5C36.5,52.7,38.2,55.4,38.2,60.1
		z M30.3,60.3c0,3.8,1.2,5.9,2.9,5.9c2,0,3-2.3,3-6c0-3.6-0.9-5.9-2.9-5.9C31.6,54.2,30.3,56.3,30.3,60.3z"/>
</g>
<g>
	<path fill="#010101" d="M76.2,64.5c0-0.8,0.6-1.4,1.3-1.4s1.3,0.6,1.3,1.4c0,0.8-0.5,1.4-1.3,1.4C76.7,65.9,76.2,65.3,76.2,64.5z"
		/>
	<path fill="#010101" d="M84.9,52.9L84.9,52.9l-2.6,1.4l-0.4-1.5l3.2-1.7h1.7v14.5h-1.9V52.9z"/>
</g>
<g>
	<path fill="#010101" d="M130.1,64.5c0-0.8,0.6-1.4,1.3-1.4s1.3,0.6,1.3,1.4c0,0.8-0.5,1.4-1.3,1.4
		C130.6,65.9,130.1,65.3,130.1,64.5z"/>
	<path fill="#010101" d="M134.6,65.6v-1.2l1.5-1.5c3.7-3.5,5.4-5.4,5.4-7.6c0-1.5-0.7-2.8-2.9-2.8c-1.3,0-2.4,0.7-3.1,1.2l-0.6-1.4
		c1-0.8,2.4-1.5,4.1-1.5c3.1,0,4.4,2.1,4.4,4.2c0,2.7-1.9,4.8-5,7.8l-1.2,1.1v0h6.5v1.6H134.6z"/>
</g>
<g>
	<path fill="#010101" d="M182.2,64.5c0-0.8,0.6-1.4,1.3-1.4s1.3,0.6,1.3,1.4c0,0.8-0.5,1.4-1.3,1.4
		C182.7,65.9,182.2,65.3,182.2,64.5z"/>
	<path fill="#010101" d="M187.1,63.4c0.6,0.4,1.9,0.9,3.2,0.9c2.5,0,3.3-1.6,3.3-2.8c0-2-1.9-2.9-3.8-2.9h-1.1v-1.5h1.1
		c1.4,0,3.2-0.7,3.2-2.5c0-1.2-0.7-2.2-2.5-2.2c-1.2,0-2.3,0.5-2.9,1l-0.5-1.4c0.8-0.6,2.2-1.1,3.8-1.1c2.9,0,4.2,1.7,4.2,3.5
		c0,1.5-0.9,2.8-2.7,3.4v0c1.8,0.4,3.2,1.7,3.2,3.7c0,2.3-1.8,4.4-5.3,4.4c-1.6,0-3.1-0.5-3.8-1L187.1,63.4z"/>
</g>
<g>
	<path fill="#010101" d="M232.4,64.5c0-0.8,0.6-1.4,1.3-1.4s1.3,0.6,1.3,1.4c0,0.8-0.5,1.4-1.3,1.4C233,65.9,232.4,65.3,232.4,64.5z
		"/>
	<path fill="#010101" d="M243,65.6v-4h-6.7v-1.3l6.5-9.3h2.1v9h2v1.5h-2v4H243z M243,60.1v-4.8c0-0.8,0-1.5,0.1-2.3H243
		c-0.4,0.8-0.8,1.5-1.2,2.1l-3.5,4.9v0H243z"/>
</g>
<g>
	<path fill="#010101" d="M286.4,64.5c0-0.8,0.6-1.4,1.3-1.4c0.8,0,1.3,0.6,1.3,1.4c0,0.8-0.5,1.4-1.3,1.4
		C286.9,65.9,286.4,65.3,286.4,64.5z"/>
	<path fill="#010101" d="M299.5,52.8H294l-0.6,3.7c0.3,0,0.6-0.1,1.2-0.1c1.1,0,2.2,0.2,3.1,0.8c1.1,0.6,2.1,1.9,2.1,3.7
		c0,2.8-2.3,5-5.4,5c-1.6,0-2.9-0.4-3.6-0.9l0.5-1.5c0.6,0.4,1.8,0.8,3.1,0.8c1.9,0,3.4-1.2,3.4-3.1c0-1.9-1.3-3.2-4.2-3.2
		c-0.8,0-1.5,0.1-2,0.2l0.9-7h6.9V52.8z"/>
</g>
</svg>
