<?xml version="1.0" encoding="utf-8"?>
<!-- Generator: Adobe Illustrator 16.0.0, SVG Export Plug-In . SVG Version: 6.00 Build 0)  -->
<!DOCTYPE svg PUBLIC "-//W3C//DTD SVG 1.1//EN" "http://www.w3.org/Graphics/SVG/1.1/DTD/svg11.dtd">
<svg version="1.1" id="Layer_1" xmlns="http://www.w3.org/2000/svg" xmlns:xlink="http://www.w3.org/1999/xlink" x="0px" y="0px"
	 width="700px" height="700px" viewBox="0 0 700 700" enable-background="new 0 0 700 700" xml:space="preserve">
<g>
	<path fill-rule="evenodd" clip-rule="evenodd" fill="#04D2D7" d="M375.3,301.6h2v116.1h-2V301.6z M371.5,289.1v2l-74.4,0.1
		c-0.4,0-0.8,0-1.2,0l-152.9-0.1v-2h151.2v0.1h1.6c0.4,0,0.8,0,1.2,0h1.1c0.1,0,0.2,0,0.3,0L371.5,289.1z M375.4,216.3h2v44.9h-2
		V216.3z M422.5,293v-2h138.3v2H422.5z"/>
	<g>
		<polygon fill-rule="evenodd" clip-rule="evenodd" fill="#04D2D7" points="337,283 334.7,290.4 337,297.4 326.6,290.2 		"/>
	</g>
	<g>
		<polygon fill-rule="evenodd" clip-rule="evenodd" fill="#04D2D7" points="308.1,283 318.5,290.2 308.1,297.4 310.5,290.4 		"/>
	</g>
	<g>
		<polygon fill-rule="evenodd" clip-rule="evenodd" fill="#04D2D7" points="376.2,221.6 369.1,224 376.3,213.6 383.5,224 		"/>
	</g>
	<g>
		<polygon fill-rule="evenodd" clip-rule="evenodd" fill="#04D2D7" points="376.2,366.8 383.3,377.3 376,375 369,377.3 		"/>
	</g>
	<g>
		<polygon fill-rule="evenodd" clip-rule="evenodd" fill="#04D2D7" points="369,351.1 376.3,353.5 383.3,351.1 376.2,361.5 		"/>
	</g>
	<g>
		<polygon fill-rule="evenodd" clip-rule="evenodd" fill="#04D2D7" points="216.8,283 214.4,290.4 216.8,297.4 206.4,290.2 		"/>
	</g>
	<g>
		<polygon fill-rule="evenodd" clip-rule="evenodd" fill="#04D2D7" points="187.9,283 198.3,290.2 187.9,297.4 190.3,290.4 		"/>
	</g>
	<g>
		<polygon fill-rule="evenodd" clip-rule="evenodd" fill="#04D2D7" points="428,284.5 425.5,291.9 428,298.9 417.5,291.7 		"/>
	</g>
	<g>
		<polygon fill-rule="evenodd" clip-rule="evenodd" fill="#04D2D7" points="290.5,290.4 292.8,297.4 282.4,290.2 292.8,283 		"/>
	</g>
	<g>
		<polygon fill-rule="evenodd" clip-rule="evenodd" fill="#04D2D7" points="266.3,290.4 263.9,283 274.3,290.2 263.9,297.4 		"/>
	</g>
</g>
</svg>
