<?xml version="1.0" encoding="utf-8"?>
<!-- Generator: Adobe Illustrator 16.0.0, SVG Export Plug-In . SVG Version: 6.00 Build 0)  -->
<!DOCTYPE svg PUBLIC "-//W3C//DTD SVG 1.1//EN" "http://www.w3.org/Graphics/SVG/1.1/DTD/svg11.dtd">
<svg version="1.1" id="Layer_1" xmlns="http://www.w3.org/2000/svg" xmlns:xlink="http://www.w3.org/1999/xlink" x="0px" y="0px"
	 width="700px" height="700px" viewBox="0 0 700 700" enable-background="new 0 0 700 700" xml:space="preserve">
<g>
	<g>
		<path fill-rule="evenodd" clip-rule="evenodd" fill-opacity="0.2941" d="M688.5,544H570.8c-1.1-3.4-5.3-20.5-12.6-51.4h107.1
			L688.5,544z"/>
	</g>
	<g>
		<path fill-rule="evenodd" clip-rule="evenodd" fill="#AFB1BE" d="M658,508.6l0,0.9c0.1,0.2,0.1,0.4,0,0.6c0.1-0.1,0.1-0.2,0.2-0.3
			l0.5-1.2h0.3l-0.8,1.8h-0.3l-0.1-1.3c-0.1-0.1-0.1-0.1-0.1-0.2c0,0.1,0,0.1,0,0.2l-0.6,1.3h-0.3l-0.1-1.8h0.2l0,1.2
			c0,0.2,0,0.3,0,0.3c0.1-0.2,0.1-0.3,0.1-0.3l0.6-1.2H658z M655.7,508.8c-0.1,0-0.3,0-0.5,0.1c-0.1,0.1-0.2,0.3-0.2,0.6
			c-0.1,0.2,0,0.4,0,0.5c0.1,0.1,0.2,0.2,0.4,0.2c0.2,0,0.3-0.1,0.4-0.2c0.2-0.1,0.3-0.3,0.3-0.5c0-0.2,0-0.3-0.1-0.3
			c0-0.1,0-0.2-0.1-0.3C655.8,508.9,655.8,508.8,655.7,508.8z M656.2,508.8c0.1,0.1,0.1,0.2,0.2,0.3c0,0.2,0,0.3,0,0.5
			c0,0.2-0.1,0.3-0.2,0.5c-0.1,0.1-0.2,0.2-0.4,0.3c-0.1,0-0.2,0.1-0.4,0.1c-0.2,0-0.3,0-0.4-0.1c-0.1-0.1-0.2-0.2-0.3-0.3
			c0-0.2,0-0.3,0-0.5c0-0.3,0.1-0.5,0.3-0.6c0.2-0.2,0.4-0.3,0.6-0.3C655.9,508.6,656,508.7,656.2,508.8z M654.5,508.9
			c0,0.1,0,0.1,0,0.3c0,0.1-0.1,0.2-0.1,0.3c-0.1,0.1-0.3,0.1-0.6,0.1h-0.5l0,0.8H653l0.3-1.8h0.7c0.1,0,0.2,0,0.3,0.1
			c0.1,0,0.2,0,0.3,0.1C654.5,508.8,654.5,508.8,654.5,508.9z M654,508.8h-0.5l-0.1,0.6h0.5c0.1,0,0.2,0,0.3,0
			c0.1-0.1,0.2-0.2,0.2-0.3c0-0.1,0-0.2,0-0.2c-0.1,0-0.1,0-0.2,0C654.2,508.9,654.1,508.8,654,508.8z M661,508.8l-0.1,0.6h0.5
			c0.1,0,0.2,0,0.2,0c0.1-0.1,0.2-0.1,0.3-0.2c0,0,0.1-0.1,0.1-0.1c0-0.1,0-0.2-0.1-0.3c-0.1,0-0.2-0.1-0.3-0.1H661z M661.6,508.6
			c0.2,0,0.3,0,0.3,0.1c0.1,0.1,0.1,0.1,0.1,0.3c0.1,0,0.1,0.1,0.1,0.3c0,0.1-0.1,0.2-0.3,0.3c0,0.1-0.2,0.1-0.4,0.1h0.1
			c0.1,0.1,0.1,0.2,0.2,0.3l0.2,0.4h-0.3l-0.2-0.3c0-0.1,0-0.2,0-0.3c-0.1,0-0.1-0.1-0.2-0.2h0c0,0-0.1,0-0.1,0h-0.3l-0.2,0.8h-0.3
			l0.3-1.8H661.6z M659.4,508.8l-0.2,0.6h1v0.2h-1l-0.1,0.6h1l0,0.2h-1.3l0.3-1.8h1.3l0,0.3H659.4z"/>
		<g>
			<g>
				<linearGradient id="SVGID_1_" gradientUnits="userSpaceOnUse" x1="659.0371" y1="479.7314" x2="670.543" y2="473.1417">
					<stop  offset="2.352941e-002" style="stop-color:#4E504B"/>
					<stop  offset="0.3137" style="stop-color:#4E504B"/>
					<stop  offset="0.549" style="stop-color:#636460"/>
					<stop  offset="0.8078" style="stop-color:#4E504B"/>
					<stop  offset="1" style="stop-color:#4E504B"/>
				</linearGradient>
				<path fill-rule="evenodd" clip-rule="evenodd" fill="url(#SVGID_1_)" d="M678.4,496c0,0-0.1,0-0.1,0c-0.2-0.1-0.5-0.2-0.8-0.2h0
					c0,0-0.1,0-0.1,0h-15.8L644,461h4.6h5.6c2.3-0.2,4.3,0.7,5.8,2.8L678.4,496z"/>
				<linearGradient id="SVGID_2_" gradientUnits="userSpaceOnUse" x1="659.0371" y1="479.7314" x2="670.543" y2="473.1417">
					<stop  offset="2.352941e-002" style="stop-color:#4E504B"/>
					<stop  offset="0.3137" style="stop-color:#4E504B"/>
					<stop  offset="0.549" style="stop-color:#636460"/>
					<stop  offset="0.8078" style="stop-color:#4E504B"/>
					<stop  offset="1" style="stop-color:#4E504B"/>
				</linearGradient>
				<path fill-rule="evenodd" clip-rule="evenodd" fill="url(#SVGID_2_)" d="M678.4,496c0,0-0.1,0-0.1,0c-0.2-0.1-0.5-0.2-0.8-0.2h0
					c0,0-0.1,0-0.1,0h-15.8L644,461h4.6h5.6c2.3-0.2,4.3,0.7,5.8,2.8L678.4,496z"/>
				<linearGradient id="SVGID_3_" gradientUnits="userSpaceOnUse" x1="631.2734" y1="482.1924" x2="614.0412" y2="544.2654">
					<stop  offset="0" style="stop-color:#788098"/>
					<stop  offset="1" style="stop-color:#21232C"/>
				</linearGradient>
				<path fill-rule="evenodd" clip-rule="evenodd" fill="url(#SVGID_3_)" d="M569.8,530.3c0-0.1,0-0.1,0-0.2s0-0.2,0.1-0.3v0
					l3.4-30.3c0.4-2.1,1.6-3.3,3.5-3.6h84.7h15.8c0,0,0.1,0,0.1,0h0c0.3,0,0.6,0.1,0.8,0.2c0,0,0.1,0,0.1,0v0.1
					c0.2,0.2,0.4,0.5,0.4,0.9c0.1,0.4,0,1-0.1,1.8l-7.5,31.2c-0.4,1-1.2,1.5-2.3,1.6h-6.8h-5.5l-83.5,0
					C571,531.4,569.9,531,569.8,530.3C569.8,530.3,569.8,530.3,569.8,530.3z M676.3,496.8h-98.6c0,0-0.1,0-0.2,0h0
					c-1.4,0.2-2.4,0.9-2.9,2.1c-0.2,0.4-0.3,0.8-0.5,1.3v0l-3.3,28.5v0.2c0,0.1,0,0.2,0,0.3c-0.1,0.1-0.1,0.2,0,0.2v0.1
					c0.1,0.6,1.2,0.9,3.3,1l82.6,0.1h4.7h6.9c1.1-0.1,1.8-0.6,2.2-1.6l7.3-29.4c0-0.2,0.1-0.3,0.1-0.4c0.1-0.3,0.2-0.6,0.2-0.8
					c0-0.1,0-0.3,0-0.4c-0.1-0.4-0.2-0.7-0.5-0.9c-0.1,0-0.1,0-0.2,0c-0.2-0.2-0.4-0.3-0.8-0.3h0c0,0-0.1,0-0.1,0
					S676.4,496.8,676.3,496.8z"/>
				<linearGradient id="SVGID_4_" gradientUnits="userSpaceOnUse" x1="631.2734" y1="482.1924" x2="614.0412" y2="544.2654">
					<stop  offset="0" style="stop-color:#788098"/>
					<stop  offset="1" style="stop-color:#21232C"/>
				</linearGradient>
				<path fill-rule="evenodd" clip-rule="evenodd" fill="url(#SVGID_4_)" d="M569.8,530.3c0-0.1,0-0.1,0-0.2s0-0.2,0.1-0.3v0
					l3.4-30.3c0.4-2.1,1.6-3.3,3.5-3.6h84.7h15.8c0,0,0.1,0,0.1,0h0c0.3,0,0.6,0.1,0.8,0.2c0,0,0.1,0,0.1,0v0.1
					c0.2,0.2,0.4,0.5,0.4,0.9c0.1,0.4,0,1-0.1,1.8l-7.5,31.2c-0.4,1-1.2,1.5-2.3,1.6h-6.8h-5.5l-83.5,0
					C571,531.4,569.9,531,569.8,530.3C569.8,530.3,569.8,530.3,569.8,530.3z M676.3,496.8h-98.6c0,0-0.1,0-0.2,0h0
					c-1.4,0.2-2.4,0.9-2.9,2.1c-0.2,0.4-0.3,0.8-0.5,1.3v0l-3.3,28.5v0.2c0,0.1,0,0.2,0,0.3c-0.1,0.1-0.1,0.2,0,0.2v0.1
					c0.1,0.6,1.2,0.9,3.3,1l82.6,0.1h4.7h6.9c1.1-0.1,1.8-0.6,2.2-1.6l7.3-29.4c0-0.2,0.1-0.3,0.1-0.4c0.1-0.3,0.2-0.6,0.2-0.8
					c0-0.1,0-0.3,0-0.4c-0.1-0.4-0.2-0.7-0.5-0.9c-0.1,0-0.1,0-0.2,0c-0.2-0.2-0.4-0.3-0.8-0.3h0c0,0-0.1,0-0.1,0
					S676.4,496.8,676.3,496.8z"/>
				<linearGradient id="SVGID_5_" gradientUnits="userSpaceOnUse" x1="621.416" y1="489.8174" x2="627.3268" y2="537.691">
					<stop  offset="0" style="stop-color:#000000"/>
					<stop  offset="0.4941" style="stop-color:#111317"/>
					<stop  offset="1" style="stop-color:#3A3F4E"/>
				</linearGradient>
				<path fill-rule="evenodd" clip-rule="evenodd" fill="url(#SVGID_5_)" d="M676.3,496.8c0.1,0,0.1,0,0.2,0s0.1,0,0.1,0h0
					c0.3,0,0.6,0.1,0.8,0.3c0,0,0.1,0,0.2,0c0.2,0.2,0.4,0.5,0.5,0.9c0,0.1,0,0.3,0,0.4c0,0.2,0,0.5-0.2,0.8c0,0.1-0.1,0.3-0.1,0.4
					l-7.3,29.4c-0.4,1-1.1,1.5-2.2,1.6h-6.9h-4.7l-82.6-0.1c-2.1-0.1-3.1-0.4-3.3-1v-0.1c-0.1,0-0.1-0.1,0-0.2c0-0.1,0-0.2,0-0.3
					v-0.2l3.3-28.5v0c0.1-0.5,0.3-0.9,0.5-1.3c0.5-1.2,1.5-1.9,2.9-2.1h0c0.1,0,0.1,0,0.2,0H676.3z"/>
				<linearGradient id="SVGID_6_" gradientUnits="userSpaceOnUse" x1="621.416" y1="489.8174" x2="627.3268" y2="537.691">
					<stop  offset="0" style="stop-color:#000000"/>
					<stop  offset="0.4941" style="stop-color:#111317"/>
					<stop  offset="1" style="stop-color:#3A3F4E"/>
				</linearGradient>
				<path fill-rule="evenodd" clip-rule="evenodd" fill="url(#SVGID_6_)" d="M676.3,496.8c0.1,0,0.1,0,0.2,0s0.1,0,0.1,0h0
					c0.3,0,0.6,0.1,0.8,0.3c0,0,0.1,0,0.2,0c0.2,0.2,0.4,0.5,0.5,0.9c0,0.1,0,0.3,0,0.4c0,0.2,0,0.5-0.2,0.8c0,0.1-0.1,0.3-0.1,0.4
					l-7.3,29.4c-0.4,1-1.1,1.5-2.2,1.6h-6.9h-4.7l-82.6-0.1c-2.1-0.1-3.1-0.4-3.3-1v-0.1c-0.1,0-0.1-0.1,0-0.2c0-0.1,0-0.2,0-0.3
					v-0.2l3.3-28.5v0c0.1-0.5,0.3-0.9,0.5-1.3c0.5-1.2,1.5-1.9,2.9-2.1h0c0.1,0,0.1,0,0.2,0H676.3z"/>
				<linearGradient id="SVGID_7_" gradientUnits="userSpaceOnUse" x1="559.7637" y1="498.3916" x2="635.7322" y2="470.431">
					<stop  offset="0" style="stop-color:#21232C"/>
					<stop  offset="0.149" style="stop-color:#282A30"/>
					<stop  offset="0.1843" style="stop-color:#575E72"/>
					<stop  offset="0.2275" style="stop-color:#4E504B"/>
				</linearGradient>
				<path fill-rule="evenodd" clip-rule="evenodd" fill="url(#SVGID_7_)" d="M661.5,495.8h-84.7c-2,0.3-3.1,1.5-3.5,3.6l-3.4,30.3v0
					c-0.1,0.2-0.1,0.3-0.1,0.3s0,0.1,0,0.2l0-0.2l-9-34.4c-0.5-1.7-0.6-3.4-0.3-5.1l0.6-16.1l0.5-9.9c0.2-2.1,1.4-3.3,3.5-3.6h2.2
					H644L661.5,495.8z"/>
				<linearGradient id="SVGID_8_" gradientUnits="userSpaceOnUse" x1="559.7637" y1="498.3916" x2="635.7322" y2="470.431">
					<stop  offset="0" style="stop-color:#21232C"/>
					<stop  offset="0.149" style="stop-color:#282A30"/>
					<stop  offset="0.1843" style="stop-color:#575E72"/>
					<stop  offset="0.2275" style="stop-color:#4E504B"/>
				</linearGradient>
				<path fill-rule="evenodd" clip-rule="evenodd" fill="url(#SVGID_8_)" d="M661.5,495.8h-84.7c-2,0.3-3.1,1.5-3.5,3.6l-3.4,30.3v0
					c-0.1,0.2-0.1,0.3-0.1,0.3s0,0.1,0,0.2l0-0.2l-9-34.4c-0.5-1.7-0.6-3.4-0.3-5.1l0.6-16.1l0.5-9.9c0.2-2.1,1.4-3.3,3.5-3.6h2.2
					H644L661.5,495.8z"/>
			</g>
		</g>
		<g>
			<path fill-rule="evenodd" clip-rule="evenodd" fill="#21232C" d="M674.2,497.8c0.3,0,0.5,0.1,0.7,0.2c0,0,0.1,0,0.1,0v0
				c0.3,0.1,0.4,0.4,0.5,0.8c0,0.4,0,0.9-0.2,1.6l-7,27.5c-0.4,0.9-1.2,1.4-2.2,1.5h-9.5l-81.1-0.2c-2,0-3-0.3-3.1-0.9
				c0-0.1,0-0.1,0-0.2c0-0.1,0-0.2,0-0.4v0l3.2-26.8c0.3-1.9,1.5-3,3.4-3.3H674c0,0,0.1,0,0.1,0H674.2z"/>
		</g>
		<g>
			<path fill-rule="evenodd" clip-rule="evenodd" fill="#AFB1BE" d="M652.8,502.3l-1.5,1.7l-0.2,1.3h-0.5l0.3-1.3l-0.7-1.7h0.4
				l0.4,0.9c0.1,0.1,0.2,0.3,0.3,0.5c0.1-0.2,0.2-0.3,0.3-0.5l0.8-0.9H652.8z M648.8,502.3l-0.5,2.5h1.5l-0.1,0.4h-1.9l0.6-2.9
				H648.8z M642.3,502.3L642,504c-0.1,0.3-0.2,0.5-0.3,0.7c-0.1,0.2-0.3,0.3-0.5,0.4c-0.2,0.1-0.4,0.2-0.7,0.2s-0.5,0-0.6-0.2
				c-0.2-0.1-0.3-0.3-0.3-0.4c0-0.1,0-0.4,0-0.7l0.3-1.7h0.4L640,504c0,0.2,0,0.4,0,0.6c0,0.1,0.1,0.2,0.2,0.3
				c0.1,0.1,0.2,0.1,0.3,0.1c0.3,0,0.6-0.1,0.7-0.3c0.2-0.1,0.3-0.3,0.3-0.7l0.4-1.7H642.3z M638.9,502.3c0.1,0.1,0.3,0.2,0.3,0.3
				c0,0.1,0,0.3,0,0.4h-0.3c0-0.2,0-0.3-0.2-0.4c-0.1-0.1-0.2-0.2-0.5-0.2c-0.3,0-0.5,0.1-0.5,0.2c-0.1,0.1-0.2,0.2-0.2,0.3
				c0,0.1,0,0.2,0,0.3c0.1,0.1,0.3,0.2,0.6,0.3c0.3,0,0.5,0.1,0.5,0.2c0.2,0.1,0.3,0.2,0.3,0.3c0,0.1,0,0.3,0,0.4
				c0,0.2-0.1,0.3-0.1,0.5c-0.2,0.1-0.4,0.2-0.5,0.4c-0.2,0.1-0.4,0.1-0.6,0.1c-0.3,0-0.5,0-0.6-0.1c-0.2-0.1-0.3-0.3-0.4-0.4
				c0-0.2,0-0.3,0-0.5h0.4c0,0.1,0,0.3,0,0.3c0,0.1,0.1,0.2,0.3,0.3c0.1,0,0.2,0.1,0.4,0.1c0.1,0,0.3,0,0.4-0.1
				c0.1,0,0.2-0.1,0.3-0.3c0.1,0,0.1-0.1,0.1-0.3c0-0.1,0-0.1,0-0.1c0-0.1-0.1-0.2-0.2-0.3c-0.1,0-0.3,0-0.5,0
				c-0.2-0.1-0.4-0.2-0.5-0.3c-0.1-0.1-0.2-0.2-0.3-0.3c0-0.1,0-0.3,0-0.4c0-0.2,0-0.3,0.1-0.5c0.1-0.1,0.3-0.2,0.4-0.3
				c0.2-0.1,0.4-0.1,0.6-0.1C638.5,502.3,638.7,502.3,638.9,502.3z M642.4,505.2l0.6-2.9h1.1c0.2,0,0.3,0,0.4,0
				c0.1,0,0.3,0.1,0.4,0.2c0.1,0,0.1,0.1,0.2,0.3c0,0.1,0,0.3,0,0.4c-0.1,0.3-0.2,0.5-0.4,0.7c-0.2,0.1-0.5,0.2-1,0.2H643l-0.3,1.2
				H642.4z M647.8,502.7c0,0.1,0,0.3,0,0.4c0,0.3-0.2,0.5-0.3,0.7c-0.2,0.1-0.5,0.2-0.9,0.2h-0.7l-0.3,1.2h-0.4l0.7-2.9h1.1
				c0.2,0,0.3,0,0.4,0c0.2,0,0.3,0.1,0.4,0.2C647.7,502.5,647.7,502.6,647.8,502.7z M646.8,502.6H646l-0.3,1.1h0.8
				c0.3,0,0.5,0,0.6-0.1c0.1-0.1,0.2-0.3,0.2-0.3c0-0.2,0-0.3,0-0.4c-0.1-0.1-0.1-0.1-0.2-0.1C647.1,502.6,647,502.6,646.8,502.6z
				 M643.3,502.6l-0.2,1.1h0.8c0.2,0,0.4,0,0.5-0.1c0.1-0.1,0.2-0.3,0.3-0.3c0-0.2,0-0.3-0.1-0.4c0-0.1-0.1-0.1-0.3-0.1
				c0,0-0.1-0.1-0.3-0.1H643.3z M632.7,502.3l-0.1,0.3h-1.7l-0.1,1h1.6l-0.1,0.4h-1.6l-0.3,0.9h1.8v0.4H630l0.6-2.9H632.7z
				 M627.8,503l-1.1,2.3h-0.3l-0.2-2.9h0.4v1.9c0,0.2,0,0.4,0,0.6c0.1-0.3,0.2-0.5,0.2-0.5l0.9-2h0.6l0.1,1.5c0,0.3,0,0.7,0,1
				c0-0.2,0.1-0.4,0.3-0.6l0.9-1.9h0.3l-1.5,2.9h-0.3l-0.1-2.3c-0.1-0.2-0.1-0.3-0.1-0.3C627.9,502.8,627.9,502.8,627.8,503z
				 M635.3,503c0,0.2-0.1,0.4-0.3,0.5c-0.1,0.2-0.3,0.3-0.6,0.3c0.1,0,0.2,0,0.3,0.1c0.1,0.1,0.1,0.3,0.3,0.3l0.3,0.9h-0.5l-0.3-0.6
				c-0.1-0.2-0.2-0.3-0.2-0.4c0-0.1-0.1-0.2-0.2-0.3c0,0-0.1,0-0.1,0h-0.7l-0.2,1.3h-0.5l0.6-2.9h1.4c0.2,0,0.4,0,0.5,0
				c0.2,0.1,0.3,0.2,0.3,0.3C635.4,502.8,635.4,502.9,635.3,503z M635,502.8c-0.1-0.1-0.3-0.2-0.5-0.2h-0.9l-0.2,1h0.8
				c0.2,0,0.3,0,0.5,0c0.1,0,0.1-0.1,0.3-0.2c0.1-0.1,0.1-0.2,0.1-0.3C635,502.9,635,502.8,635,502.8z M622.5,502.5
				c0.1,0,0.1,0.1,0.2,0.3c0,0.1,0,0.3,0,0.4c0,0.3-0.2,0.5-0.4,0.7c-0.2,0.1-0.5,0.2-0.9,0.2h-0.7l-0.3,1.2H620l0.7-2.9h1.1
				c0.2,0,0.3,0,0.3,0C622.3,502.3,622.4,502.4,622.5,502.5z M621.7,502.6H621l-0.3,1.1h0.8c0.2,0,0.4,0,0.6-0.1
				c0.1-0.1,0.2-0.3,0.2-0.3c0-0.2,0-0.3,0-0.4c-0.1-0.1-0.1-0.1-0.2-0.1C622,502.6,621.8,502.6,621.7,502.6z M618.7,502.7
				c0,0.1,0,0.2,0,0.4c0,0.2-0.1,0.4-0.3,0.5c-0.1,0.2-0.3,0.3-0.6,0.3c0.1,0,0.2,0,0.3,0.1c0.1,0.1,0.1,0.3,0.3,0.3l0.3,0.9H618
				l-0.3-0.6c-0.1-0.2-0.2-0.3-0.2-0.4c-0.1-0.1-0.1-0.2-0.1-0.3c0,0-0.1,0-0.2,0s-0.1,0-0.2,0h-0.5l-0.2,1.3h-0.4l0.6-2.9h1.3
				c0.2,0,0.4,0,0.5,0C618.5,502.4,618.6,502.5,618.7,502.7z M618.3,503c0-0.2,0-0.3,0-0.3c-0.1-0.1-0.3-0.2-0.5-0.2h-1l-0.1,1h0.8
				c0.2,0,0.3,0,0.5,0c0.1,0,0.2-0.1,0.3-0.2C618.2,503.3,618.3,503.2,618.3,503z M625.3,503.1c-0.1-0.2-0.1-0.3-0.3-0.4
				c-0.2-0.1-0.3-0.2-0.5-0.2c-0.3,0-0.5,0.1-0.7,0.3c-0.2,0.2-0.4,0.5-0.5,1c-0.1,0.3,0,0.6,0,0.8c0.2,0.2,0.4,0.3,0.7,0.3
				s0.5-0.1,0.8-0.3c0.3-0.2,0.5-0.5,0.5-0.9C625.3,503.5,625.3,503.3,625.3,503.1z M625.7,503c0.1,0.2,0.1,0.5,0,0.8
				c0,0.3-0.2,0.6-0.4,0.8c-0.2,0.2-0.4,0.4-0.6,0.5c-0.2,0.1-0.5,0.2-0.8,0.2c-0.3,0-0.5-0.1-0.7-0.2c-0.2-0.1-0.4-0.3-0.4-0.5
				c0-0.2,0-0.4,0-0.7c0.1-0.5,0.3-0.9,0.6-1.1c0.3-0.3,0.6-0.4,1-0.4c0.3,0,0.5,0.1,0.8,0.2C625.5,502.5,625.6,502.7,625.7,503z
				 M612,502.5c-0.2,0-0.4,0.1-0.5,0.2c-0.1,0.1-0.2,0.2-0.2,0.3c-0.1,0.1,0,0.2,0.1,0.3c0,0.1,0.2,0.2,0.5,0.3
				c0.3,0,0.5,0.1,0.5,0.2c0.2,0.1,0.3,0.2,0.3,0.3c0.1,0.1,0.1,0.3,0,0.4c0,0.2,0,0.3-0.1,0.5c-0.2,0.1-0.4,0.2-0.5,0.4
				c-0.2,0.1-0.3,0.1-0.5,0.1c-0.3,0-0.5,0-0.7-0.1c-0.1-0.1-0.2-0.3-0.3-0.4c-0.1-0.2-0.1-0.3-0.1-0.5h0.4c0,0.1,0,0.3,0,0.3
				c0.1,0.1,0.2,0.2,0.3,0.3c0.1,0,0.3,0.1,0.5,0.1c0.1,0,0.2,0,0.3-0.1c0.2,0,0.3-0.1,0.3-0.3c0.1,0,0.1-0.1,0.1-0.3
				c0-0.1,0-0.1,0-0.1c0-0.1-0.1-0.2-0.3-0.3c-0.1,0-0.2,0-0.5,0c-0.2-0.1-0.4-0.2-0.5-0.3c-0.1-0.1-0.2-0.2-0.3-0.3
				c0-0.1,0-0.3,0-0.4c0-0.2,0-0.3,0.1-0.5c0.2-0.1,0.3-0.2,0.4-0.3c0.2-0.1,0.4-0.1,0.6-0.1c0.2,0,0.4,0,0.6,0.1
				c0.2,0.1,0.3,0.2,0.3,0.3c0,0.1,0,0.3,0,0.4h-0.3c0-0.2,0-0.3-0.2-0.4C612.4,502.6,612.3,502.5,612,502.5z M609.3,502.6
				c0,0.1-0.1,0.3-0.3,0.6l-0.5,0.8h1.1l-0.2-0.8C609.3,502.9,609.3,502.7,609.3,502.6z M609.6,502.3l0.6,2.9h-0.4l-0.2-0.9h-1.2
				l-0.6,0.9h-0.4l1.8-2.9H609.6z M615.5,503.9h-1.6l-0.3,0.9h1.8l0,0.4h-2.2l0.6-2.9h2.2l-0.2,0.3h-1.7l-0.2,1h1.6L615.5,503.9z
				 M600.8,502.3c0.1,0,0.3,0.1,0.4,0.2c0.1,0.1,0.2,0.3,0.3,0.5s0,0.4,0,0.7c0,0.2-0.1,0.4-0.2,0.6c-0.2,0.2-0.3,0.4-0.3,0.5
				s-0.2,0.2-0.3,0.2c-0.1,0.1-0.3,0.2-0.4,0.2c-0.1,0-0.3,0-0.5,0h-1l0.6-2.9h1C600.6,502.3,600.8,502.3,600.8,502.3z M601,503.7
				c0.1-0.3,0.1-0.5,0-0.7c-0.1-0.2-0.2-0.3-0.3-0.3c-0.1-0.1-0.3-0.1-0.5-0.1h-0.6l-0.5,2.3h0.6c0.2,0,0.4,0,0.5,0
				c0.1,0,0.2-0.1,0.3-0.2c0.1,0,0.2-0.1,0.3-0.3C601,504.1,601,503.9,601,503.7z M598.2,502.5c0.2,0.1,0.3,0.3,0.3,0.5
				c0.1,0.2,0.2,0.5,0,0.8c-0.1,0.3-0.2,0.6-0.3,0.8c-0.2,0.2-0.4,0.4-0.6,0.5c-0.2,0.1-0.5,0.2-0.8,0.2c-0.3,0-0.5-0.1-0.6-0.2
				c-0.3-0.1-0.4-0.3-0.5-0.5c-0.1-0.2-0.1-0.4,0-0.7c0.1-0.5,0.3-0.9,0.6-1.1c0.3-0.3,0.7-0.4,1.1-0.4
				C597.7,502.3,598,502.3,598.2,502.5z M597.9,502.7c-0.2-0.1-0.4-0.2-0.6-0.2c-0.3,0-0.5,0.1-0.7,0.3c-0.2,0.2-0.4,0.5-0.5,1
				c-0.1,0.3-0.1,0.6,0,0.8c0.2,0.2,0.4,0.3,0.7,0.3c0.3,0,0.5-0.1,0.8-0.3c0.3-0.2,0.5-0.5,0.5-0.9c0-0.2,0-0.4-0.1-0.6
				C598.1,502.9,598,502.8,597.9,502.7z M602.2,504.8h1.8l-0.1,0.4h-2.2l0.6-2.9h2.2l-0.1,0.3h-1.8l-0.1,1h1.6l-0.1,0.4h-1.6
				L602.2,504.8z M606.5,502.3l-0.5,2.5h1.5l0,0.4h-1.9l0.6-2.9H606.5z M592,502.3h1c0.2,0,0.4,0,0.5,0c0.2,0,0.3,0.1,0.4,0.2
				c0.1,0.1,0.2,0.3,0.3,0.5s0,0.4,0,0.7c0,0.2-0.1,0.4-0.2,0.6c-0.2,0.2-0.3,0.4-0.3,0.5c-0.1,0.1-0.2,0.2-0.3,0.2
				c-0.2,0.1-0.3,0.2-0.5,0.2c-0.1,0-0.3,0-0.5,0h-1.1L592,502.3z M595.5,502.3l-0.7,2.9h-0.3l0.6-2.9H595.5z M592.3,502.6l-0.4,2.3
				h0.6c0.2,0,0.4,0,0.5,0c0.1,0,0.1-0.1,0.2-0.2c0.1,0,0.2-0.1,0.3-0.3c0.1-0.2,0.2-0.3,0.2-0.5c0.1-0.3,0.1-0.5,0-0.7
				c0-0.2-0.1-0.3-0.3-0.3c-0.1-0.1-0.2-0.1-0.5-0.1H592.3z M584.5,525.3h-1.3l0.4-1.8h0.3l-0.3,1.6h1V525.3z M586.7,524.2
				c0-0.1,0-0.2,0-0.2c0-0.1,0-0.2,0.1-0.3c0.1-0.1,0.2-0.1,0.3-0.2c0.2,0,0.3,0,0.4,0c0.2,0,0.3,0,0.3,0c0.1,0.1,0.2,0.1,0.3,0.2
				c0,0.1,0,0.2,0,0.3h-0.3c0.1-0.1,0-0.2,0-0.3c0,0-0.2,0-0.4,0c-0.1,0-0.2,0-0.3,0c-0.1,0-0.1,0.1-0.1,0.3c0,0,0,0.1,0,0.1
				c0,0,0.1,0.1,0.3,0.1c0.2,0.1,0.3,0.2,0.4,0.2c0.1,0,0.2,0.1,0.2,0.2c0,0.1,0,0.1,0,0.2c0,0.1,0,0.2-0.1,0.3
				c-0.1,0.1-0.2,0.2-0.4,0.3c-0.1,0-0.2,0-0.4,0c-0.1,0-0.3,0-0.4,0c-0.1-0.1-0.1-0.1-0.2-0.3c-0.1-0.1-0.1-0.2,0-0.3h0.3
				c0,0.1,0,0.2,0,0.3s0.1,0.1,0.3,0.1c0,0,0.1,0,0.3,0c0.1,0,0.1,0,0.1,0c0.1,0,0.2,0,0.3-0.1c0.1,0,0.1-0.1,0.1-0.2
				c0,0,0-0.1,0-0.1c0,0,0-0.1-0.1-0.1c-0.1-0.1-0.2-0.1-0.3-0.1c-0.1-0.1-0.2-0.1-0.3-0.1C586.8,524.3,586.7,524.3,586.7,524.2z
				 M585.5,524l-0.3,0.5h0.6l-0.1-0.5c0-0.2,0-0.3,0-0.3C585.6,523.8,585.5,523.9,585.5,524z M585.8,523.5l0.4,1.8h-0.3l-0.1-0.6
				H585l-0.3,0.6h-0.3l1-1.8H585.8z M599.7,523.7c-0.1,0-0.2,0-0.4,0H599l-0.3,1.4h0.4c0.1,0,0.2,0,0.3,0c0.1,0,0.1,0,0.1,0
				c0.1,0,0.2-0.1,0.3-0.3c0.1-0.1,0.2-0.2,0.2-0.4c0-0.2,0-0.3,0-0.4C599.9,523.8,599.8,523.7,599.7,523.7z M599.5,523.5
				c0.1,0,0.2,0,0.3,0c0.1,0,0.2,0.1,0.3,0.2c0.1,0,0.1,0.1,0.2,0.3c0,0.1,0,0.2,0,0.4c-0.1,0.2-0.1,0.3-0.2,0.4
				c-0.1,0.1-0.1,0.2-0.1,0.3c-0.1,0-0.2,0.1-0.3,0.2c-0.1,0.1-0.2,0.1-0.3,0.1c-0.1,0-0.2,0-0.3,0h-0.7l0.4-1.9H599.5z M598,523.5
				c0.1,0.1,0.1,0.2,0.2,0.4c0.1,0.1,0.1,0.2,0,0.4c0,0.2-0.1,0.4-0.2,0.6c-0.1,0.1-0.3,0.2-0.4,0.3c-0.1,0.1-0.3,0.2-0.5,0.2
				c-0.2,0-0.3-0.1-0.5-0.2c-0.1-0.1-0.2-0.2-0.2-0.3c-0.1-0.1-0.1-0.3,0-0.5c0.1-0.3,0.2-0.5,0.4-0.7c0.2-0.2,0.4-0.3,0.6-0.3
				C597.7,523.5,597.9,523.5,598,523.5z M598,524c0-0.1,0-0.2-0.1-0.3c-0.1,0-0.2,0-0.3,0s-0.3,0-0.5,0.1c-0.1,0.1-0.2,0.3-0.3,0.6
				c0,0.2,0,0.4,0.1,0.6c0.1,0.1,0.2,0.1,0.4,0.1c0.2,0,0.4,0,0.5-0.1c0.1-0.2,0.2-0.4,0.3-0.6C598.1,524.2,598,524.1,598,524z
				 M602,523.7h-1.1l-0.2,0.6h1.1l-0.1,0.2h-1l-0.1,0.6h1.2l-0.1,0.3h-1.4l0.4-1.9h1.3V523.7z M594.4,525.3h-0.7l0.3-1.9h0.7
				c0.2,0,0.3,0,0.3,0c0.1,0,0.2,0.1,0.3,0.2c0.1,0,0.2,0.1,0.2,0.3c0,0.1,0,0.2,0,0.4c0,0.2-0.1,0.3-0.2,0.4
				c-0.1,0.1-0.1,0.2-0.2,0.3c-0.1,0-0.1,0.1-0.2,0.2s-0.2,0.1-0.3,0.1C594.6,525.3,594.5,525.3,594.4,525.3z M594.8,525
				C594.8,525,594.8,525,594.8,525c0.2-0.1,0.3-0.2,0.3-0.3c0.1-0.1,0.2-0.2,0.2-0.4c0-0.2,0-0.3,0-0.4c-0.1-0.1-0.1-0.2-0.2-0.3
				s-0.2,0-0.3,0h-0.5l-0.2,1.4h0.4C594.5,525.1,594.6,525.1,594.8,525z M595.7,525.3l0.3-1.9h0.3l-0.3,1.9H595.7z M588.7,524.3h1
				l-0.1,0.2h-1l-0.1,0.6h1.1v0.3h-1.4l0.4-1.8h1.4l-0.1,0.2h-1L588.7,524.3z M591,523.7h-0.5l-0.2,0.6h0.5c0.1,0,0.2,0,0.3,0
				c0.1-0.1,0.1-0.1,0.1-0.2c0.1-0.1,0.1-0.1,0.1-0.1c0-0.1,0-0.2-0.1-0.3C591.3,523.7,591.2,523.7,591,523.7z M591.5,523.5
				c0.1,0.1,0.2,0.1,0.2,0.2c0,0.1,0,0.2,0,0.3c0,0.1-0.1,0.2-0.2,0.3c-0.1,0.1-0.2,0.1-0.4,0.2c0.1,0,0.1,0,0.2,0.1
				c0,0,0,0.1,0,0.2l0.3,0.5h-0.3L591,525c-0.1-0.2-0.1-0.3-0.1-0.3c0,0,0-0.1-0.1-0.1c0-0.1-0.1-0.1-0.1-0.1s-0.1,0-0.2,0h-0.3
				l-0.1,0.8h-0.3l0.5-1.8h0.9C591.3,523.5,591.4,523.5,591.5,523.5z"/>
		</g>
		<g>
			<path fill-rule="evenodd" clip-rule="evenodd" fill="#FFFFFF" fill-opacity="0.1255" d="M582.3,522.3h20.2l1.5-11.8h-20.2
				L582.3,522.3z M604.2,510.2L604.2,510.2l0.1,0.1l-1.5,12.2v0c0,0-0.1,0-0.2,0H582c0,0,0,0,0,0v0l1.5-12.1c0,0,0-0.1,0-0.1
				c0,0,0,0,0,0H604.2z"/>
		</g>
		<g>
			<path fill-rule="evenodd" clip-rule="evenodd" fill="#646675" d="M582.4,504c0,0,0-0.1,0.1-0.1c0.1,0,0.1,0,0.2,0h1.5
				c0,0,0.1,0,0.1,0c0,0,0,0.1,0,0.1l-0.2,1.6c0,0,0,0.1-0.1,0.2c0,0-0.1,0-0.2,0h-1.4c0,0-0.1,0-0.2,0c-0.1-0.1-0.1-0.1-0.1-0.2
				L582.4,504z M581.1,503.8v0.1l-0.3,1.6c0,0.1,0,0.1-0.1,0.2c0,0-0.1,0-0.2,0h-1.3c0,0-0.1,0-0.2,0c-0.1-0.1-0.1-0.1-0.1-0.2
				l0.3-1.6l0.1-0.1c0.1-0.1,0.1-0.1,0.2-0.1h1.4C580.9,503.7,581,503.7,581.1,503.8z M579.7,501.1c0,0,0-0.1,0.1-0.1
				c0,0,0.1,0,0.2,0h1.5c0,0,0.1,0,0.1,0c0,0.1,0,0.1,0,0.1l-0.3,1.6c0,0,0,0.1,0,0.1c-0.1,0.1-0.1,0.1-0.2,0.1h-1.5
				c0,0-0.1,0-0.2-0.1c0,0,0-0.1,0-0.1L579.7,501.1z M583,501C583,501,583.1,501,583,501l1.5-0.1c0.1,0,0.1,0,0.2,0.1c0,0,0,0,0,0.2
				l-0.3,1.5c0,0,0,0,0,0c-0.1,0.1-0.2,0.2-0.2,0.2h-1.5c0,0-0.1,0-0.1-0.2v0l0.3-1.5C582.9,501.1,582.9,501,583,501z M585.5,500.8
				c0.1-0.2,0-0.3,0-0.5c-0.1-0.1-0.3-0.1-0.5-0.1h-5.4c-0.5,0-0.7,0.2-0.8,0.6L578,506v0c0,0.2,0,0.3,0.1,0.4
				c0.1,0.1,0.3,0.2,0.4,0.2h5.6c0.4,0,0.7-0.2,0.7-0.7L585.5,500.8z M585.8,500c0.2,0.2,0.3,0.5,0.2,0.8l-0.7,5.3
				c-0.1,0.7-0.5,1-1.3,1h-5.5c-0.4,0-0.7-0.1-0.8-0.3c-0.2-0.2-0.2-0.4-0.1-0.7v-0.1l0.6-5.2v0c0.1-0.7,0.5-1.1,1.3-1.1l5.4,0.1
				C585.4,499.7,585.7,499.8,585.8,500z"/>
		</g>
		<g>
			<g>
				<path fill-rule="evenodd" clip-rule="evenodd" fill="#2C2F32" d="M589.9,512.7c1-0.9,2.2-1.4,3.5-1.4c0.6,0,1.2,0.1,1.7,0.4
					c0.6,0.2,1,0.6,1.4,1c0.1,0.2,0.3,0.3,0.4,0.5c0.5,0.8,0.8,1.8,0.7,2.8c-0.1,1.3-0.7,2.4-1.7,3.3c-1,0.9-2.2,1.4-3.5,1.4
					c-0.9,0-1.8-0.2-2.5-0.7c-0.3-0.2-0.6-0.5-0.8-0.7c-0.3-0.3-0.5-0.7-0.7-1c-0.3-0.7-0.4-1.5-0.3-2.3
					C588.4,514.7,588.9,513.6,589.9,512.7z"/>
			</g>
			<g>
				
					<linearGradient id="SVGID_9_" gradientUnits="userSpaceOnUse" x1="693.4053" y1="-423.0352" x2="705.6033" y2="-423.0352" gradientTransform="matrix(0.2828 0.9592 -0.9369 0.3584 3.038645e-004 1.473427e-004)">
					<stop  offset="0" style="stop-color:#515859"/>
					<stop  offset="1" style="stop-color:#202424"/>
				</linearGradient>
				<path fill-rule="evenodd" clip-rule="evenodd" fill="url(#SVGID_9_)" d="M597,513.4c0.2,0.1,0.3,0.3,0.5,0.4
					c0.5,0.8,0.8,1.8,0.6,2.9c-0.1,1.3-0.7,2.4-1.8,3.3c-1,0.9-2.1,1.4-3.4,1.4c-0.9,0-1.7-0.2-2.3-0.7c-0.3-0.2-0.6-0.5-0.8-0.7
					c-0.3-0.3-0.5-0.6-0.7-1c-0.4-0.7-0.5-1.5-0.4-2.3c0.1-1.3,0.7-2.4,1.8-3.3c1-0.9,2.2-1.4,3.4-1.4c0.7,0,1.3,0.1,1.8,0.3
					C596.2,512.6,596.6,512.9,597,513.4z"/>
			</g>
			<g>
				
					<radialGradient id="SVGID_10_" cx="643.7744" cy="515.4004" r="3.85" gradientTransform="matrix(1 0 -0.1006 1 -2.057403e-004 0)" gradientUnits="userSpaceOnUse">
					<stop  offset="0" style="stop-color:#000000"/>
					<stop  offset="0.5961" style="stop-color:#090A0A"/>
					<stop  offset="0.6588" style="stop-color:#1D2020"/>
					<stop  offset="1" style="stop-color:#2D3131"/>
				</radialGradient>
				<path fill-rule="evenodd" clip-rule="evenodd" fill="url(#SVGID_10_)" d="M595.8,514.5c0.6,0.6,0.8,1.4,0.8,2.2
					c-0.1,0.8-0.5,1.6-1.2,2.2c-0.6,0.6-1.4,0.9-2.3,0.9c-0.9,0-1.6-0.3-2.1-0.9c-0.5-0.6-0.8-1.4-0.7-2.2c0.1-0.8,0.4-1.6,1.1-2.2
					c0.7-0.6,1.4-0.9,2.3-0.9C594.6,513.5,595.3,513.8,595.8,514.5z"/>
			</g>
			<g>
				<g>
					
						<radialGradient id="SVGID_11_" cx="643.29" cy="513.2998" r="5.425" gradientTransform="matrix(1 0 -0.1014 1 4.459918e-005 0)" gradientUnits="userSpaceOnUse">
						<stop  offset="0" style="stop-color:#FFFFFF;stop-opacity:0.651"/>
						<stop  offset="1" style="stop-color:#FFFFFF;stop-opacity:0"/>
					</radialGradient>
					<path fill-rule="evenodd" clip-rule="evenodd" fill="url(#SVGID_11_)" d="M588.8,517.8c-0.1-0.4-0.2-0.8-0.2-1.1
						c0.1-1.3,0.7-2.4,1.8-3.3c-1,0.9-1.6,2-1.7,3.3C588.7,517.1,588.7,517.4,588.8,517.8z M595.7,512.3c0.5,0.2,1,0.6,1.4,1.1
						c0.1,0.1,0.1,0.1,0.2,0.2h0c-0.1-0.1-0.2-0.1-0.3-0.2C596.6,512.9,596.2,512.6,595.7,512.3c-0.5-0.2-1.1-0.3-1.8-0.3
						c-1.3,0-2.4,0.5-3.4,1.4c1-1,2.2-1.5,3.4-1.5C594.5,512,595.1,512.1,595.7,512.3z"/>
					
						<radialGradient id="SVGID_12_" cx="646.5645" cy="518.1504" r="4.325" gradientTransform="matrix(1 0 -0.1012 1 2.058446e-004 0)" gradientUnits="userSpaceOnUse">
						<stop  offset="0" style="stop-color:#FFFFFF"/>
						<stop  offset="1" style="stop-color:#FFFFFF;stop-opacity:0"/>
					</radialGradient>
					<path fill-rule="evenodd" clip-rule="evenodd" fill="url(#SVGID_12_)" d="M590.3,516.7c-0.1,0.8,0.1,1.6,0.7,2.2
						c0.6,0.6,1.3,0.9,2.1,0.9c0.9,0,1.6-0.3,2.3-0.9c0.7-0.6,1.1-1.4,1.2-2.2c0.1-0.8-0.2-1.6-0.8-2.2c-0.5-0.6-1.2-0.9-2-0.9
						c-0.9,0-1.7,0.3-2.3,0.9C590.8,515.1,590.4,515.8,590.3,516.7z M591,518.8c-0.5-0.6-0.8-1.4-0.7-2.2c0.1-0.9,0.4-1.6,1.1-2.3
						c0.7-0.6,1.4-0.9,2.3-0.9c0.9,0,1.6,0.3,2.2,0.9c0.5,0.6,0.7,1.4,0.7,2.3c-0.1,0.8-0.5,1.6-1.2,2.2c-0.7,0.6-1.4,0.9-2.3,0.9
						C592.2,519.8,591.5,519.5,591,518.8z"/>
				</g>
			</g>
			<g>
				
					<radialGradient id="SVGID_13_" cx="586.1318" cy="579.4307" r="3.8653" gradientTransform="matrix(0.9928 -0.1197 6.467854e-003 0.3266 7.7815 392.9767)" gradientUnits="userSpaceOnUse">
					<stop  offset="0" style="stop-color:#FFFFFF"/>
					<stop  offset="0.102" style="stop-color:#FFFFFF"/>
					<stop  offset="0.2118" style="stop-color:#FFFFFF;stop-opacity:0.5255"/>
					<stop  offset="0.3804" style="stop-color:#FFFFFF;stop-opacity:0.1451"/>
					<stop  offset="0.6471" style="stop-color:#FEFEFE;stop-opacity:0"/>
					<stop  offset="1" style="stop-color:#FDFDFD;stop-opacity:0"/>
				</radialGradient>
				<path fill-rule="evenodd" clip-rule="evenodd" fill="url(#SVGID_13_)" d="M593.4,510.8c1.1-0.1,2.1-0.1,2.9,0
					c0.9,0.2,1.3,0.4,1.3,0.8c0,0.3-0.4,0.6-1.3,1c-0.8,0.4-1.8,0.7-3,0.8c-1.2,0.2-2.2,0.2-3,0c-0.8-0.1-1.3-0.3-1.3-0.7
					c0-0.3,0.4-0.7,1.3-1C591.2,511.2,592.2,511,593.4,510.8z"/>
			</g>
		</g>
		<g>
			<polygon fill-rule="evenodd" clip-rule="evenodd" fill="#5C6378" points="640.3,508.6 638.7,520.2 612.2,520.2 614,508.6 			"/>
		</g>
		<g>
			<polygon fill-rule="evenodd" clip-rule="evenodd" fill="#102528" points="638.9,509.5 637.7,516.5 613.8,516.5 615.2,509.5 			
				"/>
		</g>
		<g>
			<g>
				<path fill-rule="evenodd" clip-rule="evenodd" fill="#D2B7C0" d="M637.5,512.9c0,0.7-1,1.3-3.2,1.8c-2.1,0.4-4.5,0.6-7.3,0.6
					c-2.8,0-5.3-0.2-7.3-0.6c-2.1-0.5-3.2-1.1-3.2-1.8c0-0.6,1-1.2,3.2-1.6c2-0.5,4.4-0.7,7.3-0.6c2.8-0.1,5.3,0.1,7.3,0.6
					C636.4,511.7,637.5,512.3,637.5,512.9z M634.3,514.4c1.9-0.4,2.9-0.9,3-1.5c0-0.5-1-0.9-3-1.4c-2-0.5-4.5-0.7-7.3-0.7
					c-2.8,0-5.2,0.2-7.2,0.7c-2,0.4-3,0.9-3,1.4c0,0.6,1,1.1,3,1.5c2,0.4,4.4,0.6,7.2,0.6C629.8,515,632.2,514.8,634.3,514.4z"/>
				<path fill-rule="evenodd" clip-rule="evenodd" fill="#A53134" d="M634.3,514.4c-2,0.4-4.5,0.6-7.3,0.6c-2.8,0-5.2-0.2-7.2-0.6
					c-2-0.4-3-0.9-3-1.5c0-0.5,1-0.9,3-1.4c2-0.5,4.4-0.7,7.2-0.7c2.8,0,5.3,0.2,7.3,0.7c1.9,0.4,2.9,0.9,3,1.4
					C637.2,513.5,636.2,514,634.3,514.4z"/>
			</g>
		</g>
		<g>
			<g>
				<polygon fill-rule="evenodd" clip-rule="evenodd" fill="#2F2F2F" points="662.5,512.5 653.2,512.5 652.7,511.7 652.7,511.7 
					652.7,511.7 662,511.7 				"/>
				<polygon fill-rule="evenodd" clip-rule="evenodd" fill="#111111" points="653.2,512.5 653.2,512.6 650.6,525.5 650.5,525.5 
					650,524.6 652.5,512.5 652.7,511.7 652.7,511.7 				"/>
				<polygon fill-rule="evenodd" clip-rule="evenodd" fill="#1E1E1E" points="653.2,512.5 662.5,512.5 661.9,516.1 660,525.5 
					656.7,525.5 650.6,525.5 653.2,512.6 				"/>
			</g>
		</g>
		<g>
			<g>
				<polygon fill-rule="evenodd" clip-rule="evenodd" fill="#E0645A" points="662,518.5 654,518.5 653.5,515 653.5,514.8 
					661.6,514.8 				"/>
				<path fill-rule="evenodd" clip-rule="evenodd" fill="#351715" d="M652,524L652,524l-0.2-1.5l1.7-7.5l0.5,3.5v0
					C653.1,519.9,652.4,521.7,652,524z"/>
				<path fill-rule="evenodd" clip-rule="evenodd" fill="#9D312E" d="M662,518.5c-1.5,0.9-2.3,2.7-2.5,5.5H652
					c0.4-2.3,1.1-4.2,2-5.5v0H662z"/>
			</g>
		</g>
		<g>
			<path fill-rule="evenodd" clip-rule="evenodd" fill-opacity="0.451" d="M656.2,502.1c0.7-0.6,1.5-0.9,2.3-0.9
				c0.9,0,1.5,0.3,2,0.9c0.6,0.6,0.9,1.3,0.8,2.2c-0.1,0.9-0.4,1.6-1.1,2.2c-0.6,0.6-1.3,0.9-2.2,0.9c-0.8,0-1.5-0.3-2.2-0.9
				c-0.5-0.6-0.7-1.3-0.7-2.2C655.2,503.4,655.5,502.7,656.2,502.1z"/>
		</g>
		<g>
			<radialGradient id="SVGID_14_" cx="659.75" cy="503.7002" r="3.225" gradientUnits="userSpaceOnUse">
				<stop  offset="0" style="stop-color:#FFFFFF"/>
				<stop  offset="0.1412" style="stop-color:#FFFFFF"/>
				<stop  offset="0.3529" style="stop-color:#631515"/>
				<stop  offset="0.7216" style="stop-color:#611515"/>
				<stop  offset="1" style="stop-color:#451010"/>
			</radialGradient>
			<path fill-rule="evenodd" clip-rule="evenodd" fill="url(#SVGID_14_)" d="M656.7,506c-0.6-0.6-0.8-1.3-0.7-2.1
				c0.1-0.9,0.4-1.6,1-2.2c0.6-0.6,1.4-1,2.3-1c0.8,0,1.5,0.3,2.1,1c0.6,0.6,0.9,1.3,0.8,2.2c-0.1,0.8-0.5,1.5-1.1,2.1
				c-0.6,0.6-1.4,0.9-2.2,0.9C658,507,657.3,506.7,656.7,506z"/>
		</g>
		<g>
			<path fill-rule="evenodd" clip-rule="evenodd" d="M702.2,540.2c-0.3,0-0.6,0-0.9,0c-11.7,0.8-20.4,1.8-26.3,3.1
				c-8,1.8-14.3,2.5-19,2.2c-4.6-0.3-10.3-0.6-17.1-1c-6.7-0.3-12.7,0.1-18,1.2h0c-5.6,1.2-10.3,1.8-14.1,1.8
				c-4.2-0.1-7.7-1.6-10.5-4.5c-2.8-2.8-3.8-7.9-3-15.2c0.6-5.8,0.1-9.2-1.4-10.3c-0.4-0.2-0.6-0.6-0.7-1c-0.1-0.4-0.1-0.8,0.2-1.1
				c0.2-0.4,0.5-0.6,0.9-0.7c0.4-0.2,0.8-0.1,1.2,0.1c2.7,1.3,3.7,5.7,3,13.4c-0.7,6.1,0,10.3,2.2,12.6c2.2,2.4,4.9,3.6,8.2,3.6
				c3.7,0,8.1-0.6,13.4-1.8c5.5-1.2,11.8-1.6,18.8-1.2c6.8,0.3,12.5,0.6,17.1,1c4.4,0.3,10.5-0.4,18.1-2.2l-0.1,0.1
				c5.9-1.4,14.9-2.5,27-3.3c0.3,0,0.6,0,0.9,0V540.2z"/>
		</g>
		<g>
			<g>
				
					<radialGradient id="SVGID_15_" cx="673.0498" cy="541.4502" r="24.3125" gradientTransform="matrix(1 0 0 0.1044 0 484.9389)" gradientUnits="userSpaceOnUse">
					<stop  offset="0" style="stop-color:#FFFFFF;stop-opacity:0.5059"/>
					<stop  offset="1" style="stop-color:#FFFFFF;stop-opacity:0"/>
				</radialGradient>
				<path fill-rule="evenodd" clip-rule="evenodd" fill="url(#SVGID_15_)" d="M697.8,538.6c0.1,0,0.1,0.2,0.1,0.4
					c0,0.1,0,0.2-0.1,0.3c-0.1,0.1-0.2,0.2-0.4,0.2c-9.9,0.7-17.4,1.6-22.5,2.8c-2.7,0.6-5.1,1.1-7.4,1.5c-4.5,0.7-8.2,0.9-11.3,0.7
					c-1.2,0-2.6-0.1-4.1-0.3c-1.1-0.1-2.2-0.1-3.4-0.2c-0.1,0-0.3-0.1-0.4-0.2c-0.1-0.1-0.1-0.2-0.1-0.3s0-0.3,0.2-0.3
					c0.1-0.1,0.2-0.2,0.3-0.2c1.2,0.1,2.3,0.1,3.4,0.3c1.4,0.1,2.8,0.2,4.1,0.3c3,0.2,6.6,0,11-0.8c2.2-0.3,4.7-0.8,7.3-1.4v0
					c5.2-1.2,12.8-2.2,22.8-2.9C697.5,538.4,697.6,538.5,697.8,538.6z"/>
				
					<radialGradient id="SVGID_16_" cx="618.7998" cy="544.4502" r="8.9" gradientTransform="matrix(1 0 0 0.1461 0 464.9238)" gradientUnits="userSpaceOnUse">
					<stop  offset="0" style="stop-color:#FFFFFF;stop-opacity:0.5059"/>
					<stop  offset="1" style="stop-color:#FFFFFF;stop-opacity:0"/>
				</radialGradient>
				<path fill-rule="evenodd" clip-rule="evenodd" fill="url(#SVGID_16_)" d="M628.2,543.2c0,0.1,0,0.3-0.1,0.4
					c-0.1,0.1-0.3,0.2-0.3,0.2c-0.8,0-1.6,0.1-2.3,0.2c-1.6,0.2-3.2,0.5-4.7,0.8c-4.1,0.8-7.7,1.3-10.8,1.5c-0.2,0-0.3,0-0.4,0
					c-0.2-0.1-0.3-0.3-0.3-0.3c0-0.2,0.1-0.3,0.2-0.4c0-0.1,0.2-0.2,0.4-0.2c3.1-0.2,6.6-0.7,10.6-1.5c1.5-0.3,3.1-0.6,4.8-0.8
					c0.7-0.1,1.5-0.2,2.3-0.3c0.2,0,0.3,0.1,0.4,0.2C628.1,542.9,628.2,543,628.2,543.2z"/>
				<radialGradient id="SVGID_17_" cx="595.5996" cy="528.2998" r="15.45" gradientUnits="userSpaceOnUse">
					<stop  offset="0" style="stop-color:#FFFFFF;stop-opacity:0.5059"/>
					<stop  offset="1" style="stop-color:#FFFFFF;stop-opacity:0"/>
				</radialGradient>
				<path fill-rule="evenodd" clip-rule="evenodd" fill="url(#SVGID_17_)" d="M592.3,515.9c0.1-0.1,0.2-0.2,0.4-0.2
					c0.1-0.1,0.2,0,0.4,0c2.3,1.2,3.1,5.3,2.3,12.3c-0.4,3.9-0.3,7.1,0.5,9.6v0.1c0.4,1.6,1.1,2.9,2,3.8c1,1.1,2.1,2,3.3,2.6
					c0.4,0.2,0.9,0.5,1.5,0.7c0.1,0,0.1,0.1,0.2,0.3c0.1,0.1,0.1,0.2,0.1,0.4c-0.1,0.1-0.2,0.1-0.3,0.3c-0.2,0.1-0.3,0.1-0.4,0
					c-0.5-0.2-1-0.5-1.5-0.7c-1.3-0.7-2.5-1.6-3.5-2.8s-1.9-2.6-2.4-4.3c-0.7-2.6-0.9-6-0.4-10c0.7-6.4,0-10.2-1.9-11.4
					c-0.1-0.1-0.2-0.2-0.2-0.3C592.3,516.2,592.3,516,592.3,515.9z"/>
			</g>
		</g>
	</g>
</g>
<g>
	<g>
		<path fill-rule="evenodd" clip-rule="evenodd" fill-opacity="0.2941" d="M343.3,501.5c0.1-2.9,2.7-4.6,7.8-5h72.3
			c4.5,0.4,7,2.2,7.6,5.3l6.5,61.1c0.2,4.1-1,6.3-3.7,6.4h-29.5l0.8,20.4c-0.1,1.6-1.2,2.9-3.5,4.1c-2.4,1.1-5,1.7-8,1.8
			c-3.1,0.1-5.7-0.4-7.7-1.5c-1.7-0.7-2.7-1.7-2.9-3l-0.1-0.8l0.3-0.8h-0.3l-1.1-20.2h-27.6c-2.7,0.1-5.1-0.3-7.3-1.3
			c-2.5-1.1-3.7-2.5-3.5-4.3l-0.3-2.5l0-1.2l-0.1-1.5l0.4-54.8L343.3,501.5z"/>
	</g>
	<g>
		<g>
			
				<linearGradient id="SVGID_18_" gradientUnits="userSpaceOnUse" x1="358.5303" y1="525.1602" x2="456.4856" y2="525.1602" gradientTransform="matrix(0.9999 1.046395e-002 -3.882130e-002 0.9996 2.845377e-005 2.007410e-004)">
				<stop  offset="0" style="stop-color:#222222"/>
				<stop  offset="0.5059" style="stop-color:#333333"/>
				<stop  offset="1" style="stop-color:#1E1E1E"/>
			</linearGradient>
			<path fill-rule="evenodd" clip-rule="evenodd" fill="url(#SVGID_18_)" d="M345.4,504.3l-0.5,42.7c0,1,0.1,1.9,0.3,2.6
				c0.6,2.2,2.4,3.4,5.4,3.4l78.8,0.8c1.9,0,3.4-0.5,4.5-1.3c0.3-0.3,0.6-0.7,0.9-1.1c0.4-0.6,0.6-1.8,0.8-3.7l-0.5,6.5
				c-0.4,3.4-2.5,5.1-6.2,5.1l-78.7-0.8c-4,0-5.9-2-5.8-6l-0.3-2.7l-0.3-2.6l0.6-42.2l0.5-5.8l0.3,2.6L345.4,504.3z"/>
		</g>
		<g>
			
				<linearGradient id="SVGID_19_" gradientUnits="userSpaceOnUse" x1="479.7012" y1="-416.8662" x2="559.9848" y2="-416.8662" gradientTransform="matrix(-5.200313e-002 0.9986 -1.0001 -2.365500e-002 1.062378e-004 -1.071058e-004)">
				<stop  offset="0" style="stop-color:#5F6365"/>
				<stop  offset="1" style="stop-color:#000000"/>
			</linearGradient>
			<path fill-rule="evenodd" clip-rule="evenodd" fill="url(#SVGID_19_)" d="M344.9,499.2l0.1-1c0.6-3.1,2.6-4.6,6-4.6l72.8,0.7
				c4,0,6.1,2.1,6.4,6.3l5.3,47.1c-0.2,1.9-0.5,3.1-0.8,3.7c-0.2,0.4-0.5,0.8-0.9,1.1c-1.1,0.9-2.5,1.3-4.5,1.3l-78.8-0.8
				c-3,0-4.8-1.2-5.4-3.4c-0.2-0.7-0.3-1.6-0.3-2.6l0.5-42.7l-0.3-2.5L344.9,499.2z"/>
		</g>
	</g>
	<g>
		<g>
			<g>
				<g>
					<g>
						<polygon fill-rule="evenodd" clip-rule="evenodd" points="360.1,544.2 359,510.8 416.8,510.8 419.5,544.2 						"/>
					</g>
				</g>
			</g>
		</g>
	</g>
	<g>
		<g>
			<g>
				<g>
					<g>
						<polygon fill-rule="evenodd" clip-rule="evenodd" fill="#1E1F24" points="361.7,511.2 358.3,469.9 358.3,469.7 410.2,469.7 
							418,511.2 						"/>
						<polygon fill-rule="evenodd" clip-rule="evenodd" fill="#0E0E10" points="361.7,511.2 418,511.2 418,542.7 403.2,542.7 
							403.3,548 380.8,548 380.4,531.5 402,531.5 402,526.1 379.5,526.1 379.5,542.7 361.9,542.7 361.7,541.3 						"/>
						<polygon fill-rule="evenodd" clip-rule="evenodd" fill="#16171B" points="358.3,469.9 361.7,511.2 361.7,541.3 359,495.8 
													"/>
					</g>
				</g>
			</g>
		</g>
	</g>
	<g>
		<g>
			<g>
				<g>
					
						<radialGradient id="SVGID_20_" cx="381.0996" cy="504.4502" r="54.1125" gradientTransform="matrix(1 0 0 0.799 0 101.3795)" gradientUnits="userSpaceOnUse">
						<stop  offset="0" style="stop-color:#FFFFFF;stop-opacity:0.4"/>
						<stop  offset="0.5176" style="stop-color:#FFFFFF;stop-opacity:0.1333"/>
						<stop  offset="1" style="stop-color:#FFFFFF;stop-opacity:0"/>
					</radialGradient>
					<path fill-rule="evenodd" clip-rule="evenodd" fill="url(#SVGID_20_)" d="M360.5,492.8c0.1-0.1,0.2-0.1,0.3-0.1
						c0.2,0,0.3,0,0.5,0.1c0.1,0.1,0.1,0.3,0.1,0.5l1.5,17.9h55.1v1.2h-55.1l-0.1,27c-0.5,2.4-0.9,2.8-1.1,1.4v-29.5l-1.5-17.6
						l0-0.2c0-0.2,0.1-0.4,0.2-0.5C360.3,492.9,360.4,492.8,360.5,492.8C360.4,492.8,360.4,492.8,360.5,492.8z"/>
					<line fill-rule="evenodd" clip-rule="evenodd" fill="none" x1="360.5" y1="492.8" x2="358.3" y2="469.8"/>
				</g>
			</g>
		</g>
	</g>
	<g>
		<g>
			<g>
				<polygon fill-rule="evenodd" clip-rule="evenodd" fill="#25282A" points="372.5,553.5 371.3,545.8 371.1,512.2 372.7,524 
					372.5,524 				"/>
				<linearGradient id="SVGID_21_" gradientUnits="userSpaceOnUse" x1="389.1084" y1="509.1904" x2="391.9286" y2="526.9662">
					<stop  offset="0" style="stop-color:#2C2D31"/>
					<stop  offset="1" style="stop-color:#141516"/>
				</linearGradient>
				<polygon fill-rule="evenodd" clip-rule="evenodd" fill="url(#SVGID_21_)" points="410.2,524 372.7,524 371.1,512.2 408.4,512.2 
									"/>
				<linearGradient id="SVGID_22_" gradientUnits="userSpaceOnUse" x1="390.8613" y1="523.3643" x2="391.9342" y2="554.0393">
					<stop  offset="0" style="stop-color:#2C2D31"/>
					<stop  offset="1" style="stop-color:#0C0D0E"/>
				</linearGradient>
				<polygon fill-rule="evenodd" clip-rule="evenodd" fill="url(#SVGID_22_)" points="372.7,524 410.2,524 410.3,524 410.3,553.5 
					372.5,553.5 372.5,524 				"/>
			</g>
		</g>
	</g>
	<g>
		<path fill-rule="evenodd" clip-rule="evenodd" d="M386.5,540.1c-1.2-1-1.9-2.1-1.9-3.4c0-1.3,0.5-2.5,1.8-3.4
			c1.2-1,2.7-1.5,4.5-1.5c1.8,0,3.3,0.5,4.5,1.5c1.3,0.9,2,2.1,2,3.5c0.1,1.3-0.5,2.4-1.8,3.4c-1.2,0.9-2.6,1.4-4.4,1.4
			C389.3,541.5,387.7,541,386.5,540.1z"/>
	</g>
	<g>
		<linearGradient id="SVGID_23_" gradientUnits="userSpaceOnUse" x1="390.8535" y1="525.6133" x2="390.9664" y2="553.1884">
			<stop  offset="0" style="stop-color:#FFFFFF;stop-opacity:0.1333"/>
			<stop  offset="1" style="stop-color:#F9F9F9;stop-opacity:0"/>
		</linearGradient>
		<path fill-rule="evenodd" clip-rule="evenodd" fill="url(#SVGID_23_)" d="M371.5,512.9c0,0,0-0.2,0-0.6h1.1
			c0.1,0.3,0.1,0.4,0.1,0.5l1.1,11.5h36.4v1.2h-36.4v28.1h-1.1l-0.2-0.1v-29.3c0,0,0-0.1,0-0.1L371.5,512.9z"/>
	</g>
	<g>
		
			<linearGradient id="SVGID_24_" gradientUnits="userSpaceOnUse" x1="363.1582" y1="573.6367" x2="377.2795" y2="573.6367" gradientTransform="matrix(0.9985 -5.488170e-002 3.929430e-002 0.9993 5.792826e-005 1.907274e-004)">
			<stop  offset="0" style="stop-color:#000000"/>
			<stop  offset="0.3451" style="stop-color:#37373A"/>
			<stop  offset="0.5059" style="stop-color:#545456"/>
			<stop  offset="0.6471" style="stop-color:#3D3D41"/>
			<stop  offset="1" style="stop-color:#141516"/>
		</linearGradient>
		<path fill-rule="evenodd" clip-rule="evenodd" fill="url(#SVGID_24_)" d="M387.2,542.3c1.6-0.9,3.4-1.3,5.4-1.1
			c2.1,0.2,3.8,0.9,5.1,2c0.3,0.1,0.5,0.3,0.6,0.4v0.1c0.1,0,0.1,0,0.2,0.1c0,0,0,0.1,0,0.1l0,0c0.5,0.5,0.8,1,1,1.7l1.9,18.8
			c0-0.1,0-0.1,0-0.3l0,0c-0.4-0.9-1-1.7-1.8-2.5c-1.2-0.9-2.5-1.5-4.1-1.8l-1.6-0.2H393c-1.9,0-3.6,0.5-5.1,1.4
			c-0.8,0.6-1.4,1.2-1.8,1.8c-0.1,0.1-0.1,0.1-0.2,0.1c-0.3,0.5-0.5,0.9-0.6,1.4l0,0.2l-0.1-0.5l-0.5-18.2c0,0,0-0.1,0.1-0.1
			c0.1-0.6,0.3-1.1,0.5-1.6c0.1-0.1,0.2-0.3,0.3-0.4l0-0.1C385.9,543.1,386.5,542.7,387.2,542.3z"/>
	</g>
	<g>
		<g>
			<g>
				
					<linearGradient id="SVGID_25_" gradientUnits="userSpaceOnUse" x1="-361.979" y1="-569.1445" x2="-349.8108" y2="-569.1445" gradientTransform="matrix(-0.9964 8.423562e-002 -6.428045e-002 -0.9981 -2.156496e-004 -1.778305e-004)">
					<stop  offset="0" style="stop-color:#3E372D"/>
					<stop  offset="0.1569" style="stop-color:#7E7451"/>
					<stop  offset="0.3137" style="stop-color:#ECE0BA"/>
					<stop  offset="0.3647" style="stop-color:#EEE2BC"/>
					<stop  offset="0.4706" style="stop-color:#C5BB99"/>
					<stop  offset="0.7373" style="stop-color:#615D42"/>
					<stop  offset="1" style="stop-color:#42423A"/>
				</linearGradient>
				<path fill-rule="evenodd" clip-rule="evenodd" fill="url(#SVGID_25_)" d="M385.4,536.8c0.1-1.2,0.8-2.3,1.9-3
					c1.2-0.8,2.7-1.2,4.3-1c1.6,0.1,2.8,0.7,3.8,1.8c0.8,0.7,1.3,1.4,1.4,2.3l0.7,6.3c-1.2-0.9-2.9-1.4-5-1.6
					c-2.1-0.2-3.9,0.1-5.5,1c-0.5,0.2-1,0.5-1.3,0.8l-0.4-6.2C385.4,537,385.4,536.9,385.4,536.8z"/>
				
					<linearGradient id="SVGID_26_" gradientUnits="userSpaceOnUse" x1="361.7188" y1="578.5762" x2="378.2433" y2="578.5762" gradientTransform="matrix(0.9985 -5.446449e-002 4.004490e-002 0.9993 -1.847893e-004 -1.157001e-004)">
					<stop  offset="0" style="stop-color:#000000"/>
					<stop  offset="0.3451" style="stop-color:#37373A"/>
					<stop  offset="0.5059" style="stop-color:#545456"/>
					<stop  offset="0.6471" style="stop-color:#3D3D41"/>
					<stop  offset="1" style="stop-color:#141516"/>
				</linearGradient>
				<path fill-rule="evenodd" clip-rule="evenodd" fill="url(#SVGID_26_)" d="M403.3,571L403.3,571c-0.5-1.1-1.2-2.1-2.3-3
					c-1.3-1.1-2.9-1.8-4.7-2.1l-1.9-0.3h-0.9c-2.3,0.1-4.3,0.6-6,1.6c-1,0.6-1.7,1.3-2.1,2c-0.1,0.1-0.2,0.2-0.2,0.3
					c-0.4,0.5-0.6,1-0.7,1.5l0,0.3l-0.2-0.6l-0.5-21.1c0-0.1,0-0.2,0-0.2c0-0.7,0.3-1.3,0.7-1.9c0.1-0.2,0.2-0.3,0.3-0.4l0,0
					c0.4-0.6,1.1-1.1,1.9-1.6c1.8-1.1,4-1.5,6.3-1.3c2.5,0.2,4.4,1,5.9,2.3c0.3,0.2,0.5,0.4,0.8,0.6v0c0,0,0.1,0,0.2,0
					c0,0,0,0.1,0,0.1l0,0c0.5,0.6,0.9,1.3,1.2,2l2.3,22C403.4,571.2,403.3,571.1,403.3,571z"/>
				
					<linearGradient id="SVGID_27_" gradientUnits="userSpaceOnUse" x1="571.0928" y1="-383.7334" x2="588.0954" y2="-383.7334" gradientTransform="matrix(1.764431e-002 0.9998 -0.9995 3.442152e-002 4.845113e-005 -1.929626e-004)">
					<stop  offset="0.1647" style="stop-color:#545456"/>
					<stop  offset="1" style="stop-color:#141516"/>
				</linearGradient>
				<path fill-rule="evenodd" clip-rule="evenodd" fill="url(#SVGID_27_)" d="M384.5,571.4l0-0.3c0.1-0.5,0.3-1,0.7-1.5
					c0-0.1,0.1-0.1,0.2-0.3c0.5-0.7,1.2-1.4,2.1-2c1.7-1,3.7-1.6,6-1.6h0.9l1.9,0.3c1.8,0.3,3.4,1,4.7,2.1c1.1,0.9,1.8,1.9,2.2,2.9
					l0.1,0.1c0,0.1,0,0.2,0,0.3c0.1,0.4,0.1,0.8,0.1,1.3c0,0.1,0,0.2,0,0.4c-0.2,1.9-1.2,3.4-3.2,4.7c-2,1.2-4.3,1.7-6.9,1.5
					c-2.6-0.2-4.8-0.9-6.6-2.3c-1.5-1.2-2.3-2.5-2.5-4L384.5,571.4z"/>
			</g>
		</g>
		<g>
			
				<radialGradient id="SVGID_28_" cx="376.8154" cy="566.2002" r="8.65" gradientTransform="matrix(1 0 8.670521e-003 0.2934 11.8258 400.1039)" gradientUnits="userSpaceOnUse">
				<stop  offset="0" style="stop-color:#FFFFFF"/>
				<stop  offset="0.102" style="stop-color:#FFFFFF"/>
				<stop  offset="0.2118" style="stop-color:#FFFFFF;stop-opacity:0.5255"/>
				<stop  offset="0.3804" style="stop-color:#FFFFFF;stop-opacity:0.1451"/>
				<stop  offset="0.6471" style="stop-color:#FEFEFE;stop-opacity:0"/>
				<stop  offset="1" style="stop-color:#FDFDFD;stop-opacity:0"/>
			</radialGradient>
			<path fill-rule="evenodd" clip-rule="evenodd" fill="url(#SVGID_28_)" d="M384,566.2c0-0.7,0.9-1.3,2.8-1.8
				c1.9-0.4,4.1-0.7,6.8-0.7s4.9,0.2,6.8,0.7c1.9,0.5,2.8,1.1,2.8,1.8c0,0.7-0.9,1.3-2.8,1.8c-1.8,0.5-4.1,0.7-6.8,0.7
				c-2.7,0-4.9-0.2-6.8-0.7C384.9,567.5,384,566.9,384,566.2z"/>
		</g>
	</g>
	<g>
		<g>
			<linearGradient id="SVGID_29_" gradientUnits="userSpaceOnUse" x1="359.4854" y1="426.1201" x2="368.7851" y2="424.9179">
				<stop  offset="0" style="stop-color:#000000"/>
				<stop  offset="0.3451" style="stop-color:#37373A"/>
				<stop  offset="0.5059" style="stop-color:#545456"/>
				<stop  offset="0.6471" style="stop-color:#3D3D41"/>
				<stop  offset="1" style="stop-color:#141516"/>
			</linearGradient>
			<path fill-rule="evenodd" clip-rule="evenodd" fill="url(#SVGID_29_)" d="M369.1,428l1.4,6.9c-0.7-1.9-2.1-3.1-4.3-3.7
				c-0.1,0-0.2,0-0.3,0c-0.3,0-0.5,0-0.7,0c-1.3,0.2-2.3,0.8-3,1.8c-0.7,0.8-1,1.8-1,2.9l-2.8-14.2c-0.1-0.3-0.3-0.7-0.4-1.1
				c-0.1-0.4-0.1-0.7,0-0.9c0-0.9,0.3-1.7,0.8-2.4c0.8-1,1.8-1.5,3-1.7c1.3-0.1,2.5,0.2,3.6,1.1c1.1,0.8,1.7,1.9,1.9,3.2L369.1,428z
				"/>
			<path fill-rule="evenodd" clip-rule="evenodd" fill="#1B1C20" d="M367.8,435.9l-1-0.8c-0.7-0.8-1.1-1.8-1.1-2.9
				c0-0.3,0-0.6,0.1-1c0.1,0,0.2,0,0.3,0c2.2,0.6,3.7,1.8,4.3,3.7l-1.4-6.9c1.6-0.5,3.1-0.3,4.4,0.6c0.1,0,0.2,0.1,0.2,0.1l0.6,0.5
				c0.2,0.2,0.4,0.5,0.6,0.8c0.4,0.7,0.6,1.4,0.6,2.2c0,1.2-0.5,2.3-1.5,3.2c-0.9,0.9-2.1,1.3-3.5,1.3
				C369.5,436.8,368.6,436.5,367.8,435.9z"/>
			
				<path fill-rule="evenodd" clip-rule="evenodd" fill="none" stroke="#000000" stroke-linecap="round" stroke-linejoin="round" stroke-miterlimit="3" d="
				M373.5,428.6c0.1,0,0.2,0.1,0.2,0.1c0.1,0.1,0.3,0.2,0.3,0.3c0.1,0.1,0.2,0.2,0.3,0.3c0.2,0.2,0.4,0.5,0.6,0.8
				c0.4,0.7,0.6,1.4,0.6,2.2c0,1.2-0.5,2.3-1.5,3.2c-0.9,0.9-2.1,1.3-3.5,1.3c-1.1,0-2-0.3-2.8-0.8c-0.3-0.1-0.5-0.3-0.7-0.5
				c-0.1-0.1-0.2-0.2-0.3-0.3l1,0.8 M373.7,428.7l0.6,0.5"/>
		</g>
	</g>
	<g>
		<g>
			<linearGradient id="SVGID_30_" gradientUnits="userSpaceOnUse" x1="371.8877" y1="422.0752" x2="419.1127" y2="422.0752">
				<stop  offset="0" style="stop-color:#424347"/>
				<stop  offset="1" style="stop-color:#212223"/>
			</linearGradient>
			<polygon fill-rule="evenodd" clip-rule="evenodd" fill="url(#SVGID_30_)" points="420.3,426 376.2,426 374,418.2 419,418.2 			
				"/>
			<polygon fill-rule="evenodd" clip-rule="evenodd" fill="#37383C" points="376.2,426 356.9,439.3 356.3,431.8 374,418.2 			"/>
			<linearGradient id="SVGID_31_" gradientUnits="userSpaceOnUse" x1="357.8398" y1="494.748" x2="356.0456" y2="453.7467">
				<stop  offset="0" style="stop-color:#1D1E1F"/>
				<stop  offset="1" style="stop-color:#505155"/>
			</linearGradient>
			<polygon fill-rule="evenodd" clip-rule="evenodd" fill="url(#SVGID_31_)" points="356.9,439.3 356.9,499 356.5,497 356.3,431.8 
							"/>
			<linearGradient id="SVGID_32_" gradientUnits="userSpaceOnUse" x1="375.0488" y1="369.5625" x2="393.7725" y2="497.7377">
				<stop  offset="0" style="stop-color:#545456"/>
				<stop  offset="0.6196" style="stop-color:#2E2E30"/>
				<stop  offset="1" style="stop-color:#0D0D0D"/>
			</linearGradient>
			<polygon fill-rule="evenodd" clip-rule="evenodd" fill="url(#SVGID_32_)" points="376.2,426 420.3,426 420.1,499 356.9,499 
				356.9,439.3 			"/>
		</g>
	</g>
	<g>
		<g>
			
				<radialGradient id="SVGID_33_" cx="401.25" cy="426" r="24.6875" gradientTransform="matrix(1 0 0 0.8623 0 58.6694)" gradientUnits="userSpaceOnUse">
				<stop  offset="0" style="stop-color:#FFFFFF;stop-opacity:0.5765"/>
				<stop  offset="0.502" style="stop-color:#FFFFFF;stop-opacity:0.2118"/>
				<stop  offset="1" style="stop-color:#FFFFFF;stop-opacity:0"/>
			</radialGradient>
			<path fill-rule="evenodd" clip-rule="evenodd" fill="url(#SVGID_33_)" d="M376.8,427.2l-0.5-1c0,0,0-0.1,0-0.2h44v1.2H376.8z"/>
			
				<radialGradient id="SVGID_34_" cx="369.4121" cy="391.251" r="12.0564" gradientTransform="matrix(0.9943 0.1068 0 0.9943 -4.220009e-005 4.4871)" gradientUnits="userSpaceOnUse">
				<stop  offset="0" style="stop-color:#FFFFFF;stop-opacity:0.5765"/>
				<stop  offset="0.502" style="stop-color:#FFFFFF;stop-opacity:0.2118"/>
				<stop  offset="1" style="stop-color:#FFFFFF;stop-opacity:0"/>
			</radialGradient>
			<path fill-rule="evenodd" clip-rule="evenodd" fill="url(#SVGID_34_)" d="M376.8,427.2L376.8,427.2l-18.5,12.6
				c-0.1,0.1-0.3,0.2-0.5,0.1c-0.2-0.1-0.3-0.2-0.4-0.3c-0.1-0.1-0.1-0.2-0.1-0.4c0-0.2,0.1-0.3,0.3-0.4l18.7-12.8
				c0.1,0.1,0.1,0.1,0,0.2L376.8,427.2z"/>
		</g>
	</g>
	<g>
		<g>
			<linearGradient id="SVGID_35_" gradientUnits="userSpaceOnUse" x1="403.2754" y1="430.9248" x2="423.0254" y2="430.9248">
				<stop  offset="0" style="stop-color:#424347"/>
				<stop  offset="1" style="stop-color:#212223"/>
			</linearGradient>
			<polygon fill-rule="evenodd" clip-rule="evenodd" fill="url(#SVGID_35_)" points="420.5,435.1 406.2,435.1 406.1,435.1 
				404.5,426.8 419.3,426.8 420.5,434.5 			"/>
			<linearGradient id="SVGID_36_" gradientUnits="userSpaceOnUse" x1="390.8213" y1="449.0488" x2="388.2345" y2="513.2744">
				<stop  offset="0" style="stop-color:#27292E"/>
				<stop  offset="1" style="stop-color:#101112"/>
			</linearGradient>
			<path fill-rule="evenodd" clip-rule="evenodd" fill="url(#SVGID_36_)" d="M358.8,490.5l0-26.1l22.5-0.1c0.1,0,0.2,0.1,0.4,0.1
				h0.1l-0.1-0.1c7.1,2,13.3,0.7,18.6-3.9v-0.1c0,0,0.1,0,0.1,0c0.1-0.1,0.2-0.1,0.3-0.3c2.4-2.3,3.9-5,4.4-8
				c0.2-0.9,0.3-1.8,0.3-2.8c0-0.2,0-0.5,0-0.7l0.9-13.4h14.3v55.6h-2.9h-1.9h-1.1h-0.4h-55.4V490.5z"/>
			<linearGradient id="SVGID_37_" gradientUnits="userSpaceOnUse" x1="378.1934" y1="462.7354" x2="411.1141" y2="436.7049">
				<stop  offset="0" style="stop-color:#000000"/>
				<stop  offset="0.2588" style="stop-color:#373C40"/>
				<stop  offset="0.4275" style="stop-color:#181B1B"/>
				<stop  offset="1" style="stop-color:#040404"/>
			</linearGradient>
			<path fill-rule="evenodd" clip-rule="evenodd" fill="url(#SVGID_37_)" d="M381.7,464.3h-0.2l0,0c-0.5-0.9-1-1.7-1.5-2.5
				c7,3.2,13.2,2.6,18.5-1.8c0.2-0.2,0.4-0.4,0.7-0.6c2.5-2.2,4.1-4.8,4.8-7.7c0.2-0.8,0.3-1.7,0.4-2.6v-0.6c0-0.2,0-0.3,0-0.5
				v-21.2l1.6,8.3h0.1l-0.9,13.4L405,452c-0.5,3-2,5.7-4.4,8c-0.1,0.1-0.2,0.2-0.3,0.3c0,0-0.1,0-0.1,0v0.1
				C395,465,388.8,466.3,381.7,464.3z"/>
			<linearGradient id="SVGID_38_" gradientUnits="userSpaceOnUse" x1="359.8623" y1="485.6855" x2="357.5161" y2="469.56">
				<stop  offset="0" style="stop-color:#1D1E1F"/>
				<stop  offset="1" style="stop-color:#505155"/>
			</linearGradient>
			<polygon fill-rule="evenodd" clip-rule="evenodd" fill="url(#SVGID_38_)" points="358.2,461.8 358.8,464.4 358.8,490.5 
				358.2,488.3 			"/>
			<linearGradient id="SVGID_39_" gradientUnits="userSpaceOnUse" x1="357.5127" y1="463.0752" x2="381.4877" y2="463.0752">
				<stop  offset="0" style="stop-color:#27292E"/>
				<stop  offset="1" style="stop-color:#101112"/>
			</linearGradient>
			<path fill-rule="evenodd" clip-rule="evenodd" fill="url(#SVGID_39_)" d="M380,461.8c0.5,0.8,1,1.6,1.5,2.5l0,0l0.2,0.1
				c-0.1,0-0.3,0-0.4-0.1l-22.5,0.1l-0.7-2.6v0L380,461.8L380,461.8z"/>
		</g>
	</g>
	<g>
		<path fill-rule="evenodd" clip-rule="evenodd" d="M362.3,479.7c0.3-1.3,1.2-2.3,2.7-3.1c1.5-0.8,3.2-1.2,5.1-1
			c1.9,0.2,3.4,0.9,4.5,2c1.2,1.1,1.6,2.3,1.4,3.7c-0.3,1.3-1.2,2.4-2.8,3.2c-1.5,0.8-3.2,1.1-5,0.9c-0.1,0-0.2,0-0.3,0
			c-0.2,0-0.4,0-0.5,0c-1.6-0.3-2.9-0.9-3.9-1.8C362.5,482.3,362,481.1,362.3,479.7z"/>
	</g>
	<g>
		<g>
			
				<radialGradient id="SVGID_40_" cx="387.5498" cy="441.9004" r="22" gradientTransform="matrix(1 0 0 0.7506 0 110.224)" gradientUnits="userSpaceOnUse">
				<stop  offset="0" style="stop-color:#D8DADA"/>
				<stop  offset="0.4118" style="stop-color:#6B6D6F"/>
				<stop  offset="0.5961" style="stop-color:#646567"/>
				<stop  offset="1" style="stop-color:#474849"/>
			</radialGradient>
			<path fill-rule="evenodd" clip-rule="evenodd" fill="url(#SVGID_40_)" d="M394.2,437.2c1.8,0.4,3.5,1.1,5.1,2.1
				c0.9,0.9,1.5,1.9,2,3c0,0.3,0,0.5,0,0.8c0,3.3-1.5,6.1-4.4,8.5c-2.8,2.5-6.3,3.8-10.3,4c-4,0.1-7.5-0.9-10.4-3.2
				c-0.9-0.7-1.7-1.4-2.3-2.1c0-0.3,0-0.5,0-0.8c0-1,0.1-1.9,0.4-2.8c0.2-0.7,0.5-1.4,0.9-2c0.3-0.5,0.6-1.1,1-1.6
				c0.1-0.1,0.2-0.2,0.3-0.4c2-2.2,4.3-3.8,6.9-4.6c0.6-0.2,1.3-0.4,2-0.6c0.6-0.2,1.2-0.3,1.8-0.3c1.3-0.2,2.5-0.3,3.7-0.3
				c0.8,0,1.7,0.1,2.5,0.2C393.5,437,393.8,437,394.2,437.2z"/>
			<linearGradient id="SVGID_41_" gradientUnits="userSpaceOnUse" x1="373.75" y1="450.1084" x2="401.9502" y2="450.1084">
				<stop  offset="0" style="stop-color:#434445"/>
				<stop  offset="0.2078" style="stop-color:#6B6D71"/>
				<stop  offset="0.4863" style="stop-color:#797B80"/>
				<stop  offset="0.8078" style="stop-color:#6A6C70"/>
				<stop  offset="1" style="stop-color:#505152"/>
			</linearGradient>
			<path fill-rule="evenodd" clip-rule="evenodd" fill="url(#SVGID_41_)" d="M401.5,442.8c0.3,0.9,0.4,1.8,0.4,2.8
				c0,3.3-1.5,6.1-4.4,8.5c-2.8,2.5-6.3,3.8-10.3,4c-4.1,0.2-7.5-0.9-10.5-3.2c-1.1-0.8-1.8-1.5-2.1-2.3c-0.6-0.9-0.9-1.7-0.9-2.3
				c0.6,0.8,1.4,1.5,2.3,2.1c2.9,2.3,6.4,3.3,10.4,3.2c4.1-0.2,7.5-1.5,10.3-4c2.9-2.4,4.4-5.2,4.4-8.5c0-0.2,0-0.5,0-0.8
				C401.3,442.5,401.4,442.6,401.5,442.8z"/>
			<linearGradient id="SVGID_42_" gradientUnits="userSpaceOnUse" x1="374.0498" y1="451.6309" x2="403.1498" y2="451.6309">
				<stop  offset="0" style="stop-color:#18191D"/>
				<stop  offset="0.302" style="stop-color:#2D2F34"/>
				<stop  offset="0.4863" style="stop-color:#474B52"/>
				<stop  offset="0.7569" style="stop-color:#292B30"/>
				<stop  offset="1" style="stop-color:#18191D"/>
			</linearGradient>
			<path fill-rule="evenodd" clip-rule="evenodd" fill="url(#SVGID_42_)" d="M374.7,452.5c0.3,0.7,1,1.5,2.1,2.3
				c2.9,2.3,6.4,3.3,10.5,3.2c4-0.1,7.5-1.5,10.3-4c2.9-2.4,4.4-5.2,4.4-8.5c0-0.9-0.1-1.8-0.4-2.8c0.5,0.8,0.9,1.6,1.2,2.5
				c0,0.1,0,0.1,0,0.1c0.2,0.9,0.4,1.8,0.4,2.8c0,3.2-1.5,6-4.4,8.4c-2.9,2.5-6.3,3.8-10.3,4c-4,0.1-7.5-0.9-10.4-3.2
				c-0.8-0.5-1.4-1.1-2-1.7c-0.1,0-0.1,0-0.1,0c0,0-0.1,0-0.1,0C375.1,454.5,374.7,453.5,374.7,452.5z"/>
			<linearGradient id="SVGID_43_" gradientUnits="userSpaceOnUse" x1="388.0703" y1="378.9492" x2="400.2" y2="462.0235">
				<stop  offset="0" style="stop-color:#545456"/>
				<stop  offset="1" style="stop-color:#151517"/>
			</linearGradient>
			<path fill-rule="evenodd" clip-rule="evenodd" fill="url(#SVGID_43_)" d="M399.3,439.3c-1.6-1-3.3-1.8-5.1-2.1
				c0.5,0,0.9,0,1.3,0.1c0.7,0.1,1.3,0.3,1.8,0.6C398.1,438.3,398.7,438.8,399.3,439.3z"/>
		</g>
	</g>
	<g>
		<path fill-rule="evenodd" clip-rule="evenodd" fill="none" d="M403.5,449.1c-0.1,3.1-1.6,5.8-4.4,8.1c-2.9,2.5-6.4,3.8-10.6,4
			c-4.1,0.2-7.6-0.9-10.6-3.2c-0.8-0.6-1.4-1.2-2-1.8"/>
	</g>
	<g>
		
			<radialGradient id="SVGID_44_" cx="388.5996" cy="455.0439" r="12.339" gradientTransform="matrix(0.9958 -9.121954e-002 2.403909e-002 0.2624 -9.3187 371.074)" gradientUnits="userSpaceOnUse">
			<stop  offset="0" style="stop-color:#FFFFFF"/>
			<stop  offset="0.102" style="stop-color:#FFFFFF"/>
			<stop  offset="0.2118" style="stop-color:#FFFFFF;stop-opacity:0.5255"/>
			<stop  offset="0.3804" style="stop-color:#FFFFFF;stop-opacity:0.1451"/>
			<stop  offset="0.6471" style="stop-color:#FEFEFE;stop-opacity:0"/>
			<stop  offset="1" style="stop-color:#FDFDFD;stop-opacity:0"/>
		</radialGradient>
		<path fill-rule="evenodd" clip-rule="evenodd" fill="url(#SVGID_44_)" d="M379.2,458.2c-2.7-0.4-4.1-1-4.2-1.9
			c-0.1-0.9,1.2-1.7,3.8-2.6c2.6-0.8,5.8-1.4,9.5-1.8c3.8-0.4,7-0.4,9.8,0c2.7,0.4,4.1,1,4.2,1.9c0.1,0.9-1.2,1.7-3.8,2.5
			c-2.6,0.9-5.7,1.5-9.5,1.9C385.1,458.6,381.9,458.5,379.2,458.2z"/>
	</g>
	<g>
		
			<radialGradient id="SVGID_45_" cx="369.4121" cy="391.251" r="12.0564" gradientTransform="matrix(0.9943 0.1068 0 0.9943 -4.220009e-005 4.4871)" gradientUnits="userSpaceOnUse">
			<stop  offset="0" style="stop-color:#FFFFFF;stop-opacity:0.5765"/>
			<stop  offset="0.502" style="stop-color:#FFFFFF;stop-opacity:0.2118"/>
			<stop  offset="1" style="stop-color:#FFFFFF;stop-opacity:0"/>
		</radialGradient>
		<path fill-rule="evenodd" clip-rule="evenodd" fill="url(#SVGID_45_)" d="M376.5,426C376.5,426,376.5,426,376.5,426l-0.3,0
			l0.1-0.1c0.1-0.1,0.3-0.2,0.5-0.1c0,0,0.1,0.1,0.1,0.1C376.8,425.9,376.7,425.9,376.5,426z"/>
		<g>
			
				<radialGradient id="SVGID_46_" cx="394.3545" cy="435.0996" r="12.375" gradientTransform="matrix(1 0 2.929293e-002 1 -1.756176e-004 0)" gradientUnits="userSpaceOnUse">
				<stop  offset="0" style="stop-color:#FFFFFF;stop-opacity:0.1843"/>
				<stop  offset="0.502" style="stop-color:#FFFFFF;stop-opacity:0.1137"/>
				<stop  offset="1" style="stop-color:#FFFFFF;stop-opacity:0"/>
			</radialGradient>
			<polygon fill-rule="evenodd" clip-rule="evenodd" fill="url(#SVGID_46_)" points="407.3,435.1 420.5,435.1 420.5,436.3 
				407.4,436.3 406.4,451.9 405.2,451.9 406.1,435.2 404.6,426.8 405.8,426.8 			"/>
		</g>
		<g>
			<radialGradient id="SVGID_47_" cx="382" cy="464.5498" r="23.3125" fx="377.7946" fy="464.5498" gradientUnits="userSpaceOnUse">
				<stop  offset="0" style="stop-color:#FFFFFF;stop-opacity:0.4314"/>
				<stop  offset="1" style="stop-color:#FFFFFF;stop-opacity:0"/>
			</radialGradient>
			<path fill-rule="evenodd" clip-rule="evenodd" fill="url(#SVGID_47_)" d="M358.9,465.5v-1.2h22.6c2.2,0.4,4.1,0.7,5.9,0.8
				c0.1-0.1,0.3-0.1,0.4,0c6,0.3,11.2-2.5,15.5-8.5c0,0,0.1,0.2,0.1,0.8c0,0.5-0.4,1.3-1.2,2.5c-1.3,1.5-2.8,2.8-4.3,3.8
				c-4.2,2.6-9.7,3.3-16.4,1.9H358.9z"/>
		</g>
	</g>
	<g>
		<path fill-rule="evenodd" clip-rule="evenodd" d="M416.8,444.8c-1.5,0.9-3.2,1.3-5,1.2c-0.1,0-0.2,0-0.3,0
			c-1.8-0.1-3.3-0.6-4.5-1.5c-1.2-1-1.6-2.3-1.4-3.7c0.2-1.3,1-2.4,2.4-3.3c1.5-1,3.2-1.4,5.2-1.4c1.9,0.1,3.4,0.7,4.6,1.7
			c1.2,1,1.7,2.2,1.5,3.5C419.1,442.8,418.3,443.9,416.8,444.8z"/>
	</g>
	<g>
		<g>
			<g>
				<g>
					
						<linearGradient id="SVGID_48_" gradientUnits="userSpaceOnUse" x1="344.2642" y1="518.166" x2="357.7727" y2="518.166" gradientTransform="matrix(0.9938 -0.111 3.973079e-002 1.0018 -1.083612e-004 1.421571e-005)">
						<stop  offset="0" style="stop-color:#000000"/>
						<stop  offset="0.2431" style="stop-color:#494947"/>
						<stop  offset="0.5059" style="stop-color:#868782"/>
						<stop  offset="0.7294" style="stop-color:#525250"/>
						<stop  offset="1" style="stop-color:#000000"/>
					</linearGradient>
					<path fill-rule="evenodd" clip-rule="evenodd" fill="url(#SVGID_48_)" d="M375.7,483.5c-0.3-0.4-0.7-0.7-1.1-0.9
						c-0.1,0-0.2,0-0.2,0c0,0-0.1,0-0.1,0c-0.9-0.5-1.9-0.9-3-1.1c-0.1,0-0.2,0-0.3-0.1c-0.8-0.1-1.7-0.1-2.5,0
						c-0.1,0-0.1,0-0.2,0.1h-0.1c-1.1,0.2-2.2,0.6-3.2,1.2c-0.1,0-0.2,0.1-0.3,0.2c-0.5,0.3-0.8,0.6-1.1,0.9
						c-0.2,0.1-0.4,0.3-0.6,0.6l-0.2-4.6l0.1-0.5c0.3-1,1.1-1.8,2.5-2.3c1.3-0.6,2.8-0.9,4.5-0.8c1.7,0.1,3,0.6,3.8,1.5
						c0.8,0.8,1.3,1.5,1.5,2.1L375.7,483.5z"/>
					
						<linearGradient id="SVGID_49_" gradientUnits="userSpaceOnUse" x1="352.9688" y1="523.0723" x2="367.6061" y2="523.0723" gradientTransform="matrix(0.9957 -9.222957e-002 2.037902e-002 1.0024 -1.520254e-004 2.134442e-004)">
						<stop  offset="0" style="stop-color:#000000"/>
						<stop  offset="0.3451" style="stop-color:#37373A"/>
						<stop  offset="0.5059" style="stop-color:#545456"/>
						<stop  offset="0.6471" style="stop-color:#3D3D41"/>
						<stop  offset="1" style="stop-color:#141516"/>
					</linearGradient>
					<path fill-rule="evenodd" clip-rule="evenodd" fill="url(#SVGID_49_)" d="M379.4,500c-0.2-0.9-0.7-1.8-1.4-2.6
						c-1.4-1.6-3.3-2.6-5.7-2.9c-0.1,0-0.1,0-0.1,0c-1.4-0.2-2.7-0.1-4,0.2c-0.8,0.3-1.6,0.6-2.4,1.1c-2,1.1-3.2,2.7-3.6,4.8
						c0,0.2,0,0.4,0,0.6l-0.5-11.8c-0.1-0.6-0.1-1.2,0-1.9c0-0.2,0-0.3,0-0.5c0.2-1.1,0.7-2,1.3-2.8c0.2-0.3,0.4-0.5,0.6-0.6
						c0.3-0.3,0.6-0.6,1.1-0.9c0-0.1,0.1-0.2,0.3-0.2c1-0.6,2.1-1,3.2-1.2h0.1c0,0,0.1-0.1,0.2-0.1c0.8-0.1,1.6-0.1,2.5,0
						c0.1,0,0.2,0.1,0.3,0.1c1.1,0.2,2.1,0.6,3,1.1c0,0,0.1,0,0.1,0c0,0,0.1,0,0.2,0c0.4,0.2,0.8,0.5,1.1,0.9
						c0.2,0.2,0.4,0.4,0.6,0.6c0.6,0.7,1,1.5,1.3,2.3c0.2,0.6,0.2,1.2,0.2,1.9L379.4,500z"/>
					
						<linearGradient id="SVGID_50_" gradientUnits="userSpaceOnUse" x1="489.8643" y1="-415.0425" x2="504.6759" y2="-415.0425" gradientTransform="matrix(-9.114446e-002 0.9958 -1.0027 -1.577981e-002 -6.370991e-004 8.382276e-005)">
						<stop  offset="0.1647" style="stop-color:#545456"/>
						<stop  offset="1" style="stop-color:#141516"/>
					</linearGradient>
					<path fill-rule="evenodd" clip-rule="evenodd" fill="url(#SVGID_50_)" d="M362.2,501.2c0-0.2,0-0.4,0-0.6
						c0.4-2,1.6-3.6,3.6-4.8c0.7-0.5,1.5-0.8,2.4-1.1c1.3-0.3,2.6-0.4,4-0.2c0,0,0.1,0,0.1,0c2.4,0.3,4.3,1.3,5.7,2.9
						c0.7,0.8,1.2,1.7,1.4,2.6c0.1,0.4,0.2,0.8,0.2,1.2c0,0.5-0.1,1.1-0.2,1.6c-0.4,2-1.5,3.7-3.5,4.9c-1.9,1.2-4.1,1.7-6.5,1.3
						c-2.4-0.3-4.3-1.3-5.7-2.9c-1.2-1.4-1.7-2.9-1.6-4.5C362.2,501.5,362.2,501.3,362.2,501.2z"/>
				</g>
			</g>
			<g>
				
					<radialGradient id="SVGID_51_" cx="325.397" cy="497.3789" r="8.751" gradientTransform="matrix(1 -7.142675e-003 2.571363e-002 0.2843 32.1719 355.6764)" gradientUnits="userSpaceOnUse">
					<stop  offset="0" style="stop-color:#FFFFFF"/>
					<stop  offset="0.102" style="stop-color:#FFFFFF"/>
					<stop  offset="0.2118" style="stop-color:#FFFFFF;stop-opacity:0.5255"/>
					<stop  offset="0.3804" style="stop-color:#FFFFFF;stop-opacity:0.1451"/>
					<stop  offset="0.6471" style="stop-color:#FEFEFE;stop-opacity:0"/>
					<stop  offset="1" style="stop-color:#FDFDFD;stop-opacity:0"/>
				</radialGradient>
				<path fill-rule="evenodd" clip-rule="evenodd" fill="url(#SVGID_51_)" d="M363.3,493c1.9-0.5,4.2-0.7,6.8-0.7
					c2.7-0.1,5,0.1,7,0.6c1.9,0.5,2.9,1.1,3,1.8c0.1,0.7-0.8,1.3-2.8,1.8c-1.8,0.5-4.1,0.7-6.8,0.8c-2.7,0-5-0.2-7-0.7
					c-1.9-0.5-2.9-1-2.9-1.8C360.5,494.1,361.4,493.5,363.3,493z"/>
			</g>
		</g>
	</g>
	<g>
		<g>
			<g>
				
					<linearGradient id="SVGID_52_" gradientUnits="userSpaceOnUse" x1="370.0566" y1="515.5342" x2="387.4585" y2="515.5342" gradientTransform="matrix(0.9855 -0.1695 7.810274e-002 1.0013 -4.376769e-004 1.327991e-004)">
					<stop  offset="0" style="stop-color:#000000"/>
					<stop  offset="0.3451" style="stop-color:#37373A"/>
					<stop  offset="0.5059" style="stop-color:#545456"/>
					<stop  offset="0.6471" style="stop-color:#3D3D41"/>
					<stop  offset="1" style="stop-color:#141516"/>
				</linearGradient>
				<path fill-rule="evenodd" clip-rule="evenodd" fill="url(#SVGID_52_)" d="M419.3,444c0.2,0.1,0.4,0.3,0.6,0.5
					c0.6,0.7,1.1,1.5,1.3,2.2c0.2,0.6,0.3,1.2,0.3,1.8l2.3,11.7c-0.3-1-0.9-1.8-1.7-2.6c-1.5-1.5-3.4-2.3-5.8-2.5c0,0-0.1,0-0.1,0
					c-1.4-0.1-2.7,0.1-3.9,0.5c-0.8,0.3-1.6,0.7-2.5,1.2c-1.9,1.3-3.1,3-3.4,5c0,0.2,0,0.4,0,0.6l-0.9-11.7
					c-0.2-0.6-0.2-1.2-0.1-1.9c0-0.2,0-0.3,0-0.4c0.2-1.1,0.6-2.1,1.3-3c0.2-0.2,0.3-0.4,0.5-0.5c0.3-0.3,0.7-0.7,1.1-1
					c0.1-0.1,0.1-0.1,0.2-0.2c1-0.7,2.1-1.2,3.3-1.5h0c0,0,0.1,0,0.2,0c0.8-0.2,1.6-0.2,2.5-0.1c0.1,0,0.1,0,0.2,0
					c1.1,0.1,2.1,0.3,3,0.8c0.1,0,0.1,0,0.2,0.1c0,0,0.1,0,0.1,0C418.5,443.4,418.8,443.7,419.3,444z"/>
				
					<linearGradient id="SVGID_53_" gradientUnits="userSpaceOnUse" x1="375.6084" y1="501.1641" x2="390.9799" y2="501.1641" gradientTransform="matrix(0.9872 -0.1594 6.889350e-002 1.0018 2.634674e-004 -2.846122e-005)">
					<stop  offset="0" style="stop-color:#000000"/>
					<stop  offset="0.2431" style="stop-color:#494947"/>
					<stop  offset="0.5059" style="stop-color:#868782"/>
					<stop  offset="0.7294" style="stop-color:#525250"/>
					<stop  offset="1" style="stop-color:#000000"/>
				</linearGradient>
				<path fill-rule="evenodd" clip-rule="evenodd" fill="url(#SVGID_53_)" d="M406.7,445.5l-0.4-4.5l0.1-0.5c0.3-1,1-1.8,2.3-2.5
					c1.3-0.7,2.8-1,4.5-1c1.7,0,2.9,0.4,3.8,1.1c0.8,0.8,1.4,1.5,1.6,2l0.6,4c-0.4-0.4-0.8-0.6-1.2-0.8c-0.1,0-0.1,0-0.1,0
					c0-0.1-0.1-0.1-0.2-0.1c-0.9-0.5-1.9-0.7-3-0.8c-0.1,0-0.1,0-0.2,0c-0.9-0.1-1.7,0-2.5,0.1c-0.1,0-0.2,0-0.2,0h0
					c-1.2,0.3-2.3,0.8-3.3,1.5c-0.1,0-0.1,0.1-0.2,0.2c-0.4,0.3-0.8,0.6-1.1,1C407,445.1,406.8,445.3,406.7,445.5z"/>
				
					<linearGradient id="SVGID_54_" gradientUnits="userSpaceOnUse" x1="474.915" y1="-437.5361" x2="489.5918" y2="-437.5361" gradientTransform="matrix(-4.942757e-002 0.9988 -1.0034 4.412145e-002 4.838705e-004 -1.011789e-005)">
					<stop  offset="0.1647" style="stop-color:#545456"/>
					<stop  offset="1" style="stop-color:#141516"/>
				</linearGradient>
				<path fill-rule="evenodd" clip-rule="evenodd" fill="url(#SVGID_54_)" d="M423.8,460.2c0.1,0.3,0.1,0.7,0.2,1.1
					c0.1,0.5,0,1.1-0.1,1.7c-0.3,2-1.4,3.7-3.3,5c-1.9,1.3-4.1,1.9-6.5,1.7c-2.4-0.1-4.3-0.9-5.8-2.5c-1.3-1.3-1.9-2.8-1.8-4.4
					c0-0.1,0-0.3,0-0.3c0-0.2,0-0.4,0-0.6c0.3-2,1.5-3.7,3.4-5c0.8-0.5,1.6-0.9,2.5-1.2c1.2-0.4,2.5-0.6,3.9-0.5c0.1,0,0.1,0,0.1,0
					c2.4,0.2,4.3,1,5.8,2.5C422.9,458.3,423.4,459.2,423.8,460.2z"/>
			</g>
		</g>
		<g>
			
				<radialGradient id="SVGID_55_" cx="374.0078" cy="458.5557" r="8.7502" gradientTransform="matrix(1 -7.142675e-003 2.571363e-002 0.2843 29.6608 327.9139)" gradientUnits="userSpaceOnUse">
				<stop  offset="0" style="stop-color:#FFFFFF"/>
				<stop  offset="0.102" style="stop-color:#FFFFFF"/>
				<stop  offset="0.2118" style="stop-color:#FFFFFF;stop-opacity:0.5255"/>
				<stop  offset="0.3804" style="stop-color:#FFFFFF;stop-opacity:0.1451"/>
				<stop  offset="0.6471" style="stop-color:#FEFEFE;stop-opacity:0"/>
				<stop  offset="1" style="stop-color:#FDFDFD;stop-opacity:0"/>
			</radialGradient>
			<path fill-rule="evenodd" clip-rule="evenodd" fill="url(#SVGID_55_)" d="M415.2,453.2c2.7,0,5,0.2,7,0.6c1.9,0.5,2.9,1.1,3,1.8
				c0.1,0.7-0.8,1.2-2.8,1.7c-1.8,0.5-4.1,0.7-6.7,0.8c-2.7,0-5-0.2-7-0.7c-1.9-0.5-2.9-1-3-1.7c-0.1-0.6,0.8-1.2,2.7-1.8
				C410.3,453.4,412.5,453.2,415.2,453.2z"/>
		</g>
	</g>
</g>
</svg>
