<?xml version="1.0" encoding="utf-8"?>
<!-- Generator: Adobe Illustrator 16.0.0, SVG Export Plug-In . SVG Version: 6.00 Build 0)  -->
<!DOCTYPE svg PUBLIC "-//W3C//DTD SVG 1.1//EN" "http://www.w3.org/Graphics/SVG/1.1/DTD/svg11.dtd">
<svg version="1.1" id="Layer_1" xmlns="http://www.w3.org/2000/svg" xmlns:xlink="http://www.w3.org/1999/xlink" x="0px" y="0px"
	 width="700px" height="700px" viewBox="0 0 700 700" enable-background="new 0 0 700 700" xml:space="preserve">
<g>
	<g>
		<path fill-rule="evenodd" clip-rule="evenodd" fill-opacity="0.2941" d="M655.3,370.5c0.7,0.4,1.3,0.9,1.7,1.3h32.8l11.7,18.3h-42
			c0,0,0,0.1,0,0.2c0.5,0,1,0,1.5,0.1c0.5,0.1,1,0.3,1.5,0.6c1,0.5,1.6,1.1,1.8,1.8c0.1,0.2,0.2,0.5,0.2,0.7c0,0.3-0.1,0.6-0.4,0.9
			c0,0.1-0.1,0.2-0.2,0.3c-0.2,0.2-0.5,0.4-0.9,0.5c-0.3,0.1-0.7,0.2-1.2,0.3H661l-15.4-0.4c-0.1,0.1-0.3,0.2-0.5,0.3
			c-0.6,0.3-1.1,0.4-1.6,0.3c-0.5,0-0.9-0.2-1.1-0.6v0c0,0-0.1,0-0.2,0h0c-0.2,0-0.4,0-0.7,0c-0.4,0-0.9-0.2-1.5-0.4
			c-0.1,0.1-0.2,0.1-0.3,0.2c-0.5,0.3-1.1,0.4-1.6,0.4c-0.5-0.1-0.9-0.3-1.1-0.7c0,0,0-0.1,0-0.1c-0.4,0-0.8-0.1-1.1-0.3l-0.8,0
			l-1.8,1h-8.7l-2.1-2l-3.8,1.9h-9.1L604,390h-38.8l-5.9-18.3h32.5c-5.4-4-9-7-10.7-9c-1.8-2.1-0.9-3.7,2.5-5h0.7l0,0h30.2
			c0.1,0.1,0.1,0.2,0.2,0.3h0.2c3.3-0.2,5.3,0.3,6,1.5l3.8,5c0.6,0.1,1.1,0.3,1.7,0.5c2.2,0.8,3.6,1.8,4.3,2.9c0.4,0.8,0.4,1.5,0,2
			c-0.1,0.1-0.2,0.1-0.3,0.2h1c0.4-0.3,1-0.4,1.6-0.4l19.5-0.2c0.5,0,1,0.1,1.5,0.3C654.4,370,654.8,370.2,655.3,370.5z M624,364.8
			l0.2,0.2C624.1,364.9,624.1,364.9,624,364.8C624.1,364.8,624,364.8,624,364.8z"/>
	</g>
	<g>
		<path fill-rule="evenodd" clip-rule="evenodd" d="M666.3,291.8c0.4-0.5,1-0.7,1.6-0.6c15,0.4,23.3,7.6,25,21.7c0,0,0,0.1,0,0.1
			c0.8,24.3-0.6,43.6-4.3,57.8c-0.6,2.5,0.6,4.6,3.4,6.5c3.7,2.4,9.6,4.3,17.8,5.8c17.1,3.1,43.7,4.3,79.6,3.7
			c0.6-0.1,1.1,0.1,1.6,0.6c0.4,0.4,0.7,1,0.7,1.6c0,0.6-0.2,1.1-0.7,1.6c-0.4,0.4-1,0.7-1.5,0.7c-36.4,0.7-63.2-0.5-80.5-3.7
			c-9-1.7-15.5-3.9-19.5-6.6c-4.9-3.2-6.6-7-5.3-11.4c3.5-13.9,4.9-32.6,4.1-56.3c-1.4-11.4-8.2-17.3-20.5-17.6
			c-0.6,0-1.1-0.3-1.6-0.8c-0.5-0.4-0.7-1-0.6-1.6C665.5,292.7,665.8,292.2,666.3,291.8z"/>
	</g>
	<g>
		<g>
			<radialGradient id="SVGID_1_" cx="684.7998" cy="302.75" r="21.9125" gradientUnits="userSpaceOnUse">
				<stop  offset="0" style="stop-color:#FFFFFF;stop-opacity:0.9137"/>
				<stop  offset="1" style="stop-color:#FAFAFA;stop-opacity:0"/>
			</radialGradient>
			<path fill-rule="evenodd" clip-rule="evenodd" fill="url(#SVGID_1_)" d="M670.7,293.9c0.1-0.2,0.2-0.4,0.3-0.5
				c0.2-0.2,0.3-0.2,0.5-0.1c8.4,1,14.2,4.9,17.4,11.8c3.2,6.7,3.7,16.1,1.6,28.4c-0.1,0.2-0.2,0.4-0.3,0.5
				c-0.2,0.1-0.3,0.1-0.5,0.1c-0.2,0-0.4-0.1-0.5-0.3c-0.2-0.2-0.2-0.4-0.1-0.6c2-11.9,1.5-21.1-1.4-27.6c-3-6.3-8.4-9.9-16.3-10.8
				c-0.2-0.1-0.3-0.2-0.5-0.3C670.7,294.2,670.7,294.1,670.7,293.9z"/>
			<radialGradient id="SVGID_2_" cx="691.5498" cy="375.75" r="9.0375" gradientUnits="userSpaceOnUse">
				<stop  offset="0" style="stop-color:#FFFFFF;stop-opacity:0.9137"/>
				<stop  offset="1" style="stop-color:#FAFAFA;stop-opacity:0"/>
			</radialGradient>
			<path fill-rule="evenodd" clip-rule="evenodd" fill="url(#SVGID_2_)" d="M686.6,367.7c0.2,0,0.4,0.1,0.5,0.3
				c0.1,0.2,0.1,0.3,0,0.5c-0.9,2.9-0.6,5.4,0.9,7.4c1.6,2.2,4.6,4,8.9,5.3c0.2,0.1,0.3,0.2,0.4,0.4c0.1,0.1,0.2,0.3,0.2,0.5
				c-0.1,0.2-0.3,0.3-0.5,0.5c-0.2,0.1-0.4,0.1-0.6,0.1c-4.6-1.6-7.8-3.5-9.6-6c-1.9-2.4-2.3-5.3-1.1-8.7c0-0.2,0.1-0.3,0.3-0.4
				C686.2,367.5,686.4,367.5,686.6,367.7z"/>
		</g>
	</g>
	<g>
		<g>
			<linearGradient id="SVGID_3_" gradientUnits="userSpaceOnUse" x1="614.1299" y1="326.1372" x2="622.1624" y2="340.1723">
				<stop  offset="0" style="stop-color:#757667"/>
				<stop  offset="0.1569" style="stop-color:#2E2F2A"/>
				<stop  offset="0.2431" style="stop-color:#1B201C"/>
				<stop  offset="0.3608" style="stop-color:#C0C3CA"/>
				<stop  offset="0.5059" style="stop-color:#141615"/>
				<stop  offset="0.6627" style="stop-color:#000000"/>
				<stop  offset="0.8039" style="stop-color:#181B18"/>
				<stop  offset="0.902" style="stop-color:#131614"/>
				<stop  offset="1" style="stop-color:#000000"/>
			</linearGradient>
			<path fill-rule="evenodd" clip-rule="evenodd" fill="url(#SVGID_3_)" d="M617.3,348.7c0.5-0.4,1-0.9,1.5-1.5
				c0.2-0.2,0.4-0.4,0.6-0.7c1.7-2.4,2.5-5.3,2.5-8.8c0-0.7,0-1.4-0.1-2c-0.1-1.9-0.5-3.5-1.1-4.9c-0.6-1-1.2-1.8-2-2.5
				c-0.6-0.5-1.2-1-1.8-1.4c-2.4-1.4-4.7-1.7-7-0.7l5.6-2.7c2.1-0.3,4,0,5.5,0.6c0.6,0.3,1.2,0.8,1.9,1.4c0.6,0.6,1.2,1.4,1.8,2.4
				c0.2,0.3,0.4,0.7,0.5,1c0.7,1.8,1,3.8,1,6c0,3.4-0.8,6.3-2.5,8.8c-0.6,0.8-1.2,1.5-1.8,2c-0.4,0.3-0.8,0.6-1.3,0.9L617.3,348.7z"
				/>
			<path fill-rule="evenodd" clip-rule="evenodd" fill="#0D0C0E" d="M610,326.2c2.3-1,4.6-0.7,7,0.7c0.6,0.4,1.2,0.9,1.8,1.4
				c0.7,0.7,1.4,1.5,2,2.5c0.7,1.4,1.1,3,1.1,4.9c0.1,0.6,0.1,1.3,0.1,2c0,3.5-0.8,6.4-2.5,8.8c-0.2,0.2-0.4,0.5-0.6,0.7
				c-0.5,0.6-1,1.1-1.5,1.5c-0.4,0.3-0.8,0.6-1.1,0.8c-0.9,0.4-2,0.7-3.1,0.7c-2.5,0-4.5-1.2-6.3-3.6c-1.7-2.4-2.6-5.3-2.6-8.8
				c0-3.4,0.9-6.4,2.6-8.9c0.6-0.9,1.3-1.6,2.1-2.1c0.3-0.3,0.6-0.4,0.9-0.5C609.9,326.3,609.9,326.2,610,326.2z"/>
		</g>
	</g>
	<g>
		<g>
			<g>
				<linearGradient id="SVGID_4_" gradientUnits="userSpaceOnUse" x1="633.5986" y1="251.8179" x2="634.4296" y2="268.9676">
					<stop  offset="0" style="stop-color:#000000"/>
					<stop  offset="0.1255" style="stop-color:#60615A"/>
					<stop  offset="0.2431" style="stop-color:#1B201C"/>
					<stop  offset="0.3608" style="stop-color:#C0C3CA"/>
					<stop  offset="0.4902" style="stop-color:#141615"/>
					<stop  offset="0.6627" style="stop-color:#000000"/>
					<stop  offset="0.8039" style="stop-color:#181B18"/>
					<stop  offset="0.902" style="stop-color:#131614"/>
					<stop  offset="1" style="stop-color:#000000"/>
				</linearGradient>
				<path fill-rule="evenodd" clip-rule="evenodd" fill="url(#SVGID_4_)" d="M623.7,268c0.8-0.2,1.3-0.9,1.8-2.1
					c0.6-1.4,0.8-3.1,0.8-5c-0.1-0.5-0.1-0.9-0.2-1.4c-0.2-1-0.5-2-0.8-2.9c-0.1-0.3-0.2-0.6-0.4-0.8c-0.6-1.1-1.2-1.8-1.9-2
					c-0.2,0-0.3-0.1-0.5-0.1l18.3-1.2l0.7-0.1c0.5,0.1,1,0.3,1.4,0.7c0.4,0.4,0.8,0.9,1.1,1.6c0.1,0.2,0.2,0.5,0.3,0.6
					c0.4,0.8,0.7,1.8,0.9,2.8c0.1,0.7,0.2,1.4,0.2,2.1c0.2,2.1-0.1,4-0.7,5.6c-0.3,0.7-0.7,1.3-1,1.7c-0.4,0.4-0.8,0.6-1.3,0.6
					L623.7,268z"/>
				<linearGradient id="SVGID_5_" gradientUnits="userSpaceOnUse" x1="621.4004" y1="267.8452" x2="624.2166" y2="253.9184">
					<stop  offset="0" style="stop-color:#070808"/>
					<stop  offset="1" style="stop-color:#353639"/>
				</linearGradient>
				<path fill-rule="evenodd" clip-rule="evenodd" fill="url(#SVGID_5_)" d="M622.4,253.8c0.2,0,0.3,0,0.5,0.1
					c0.7,0.2,1.3,0.9,1.9,2c0.2,0.2,0.3,0.5,0.4,0.8c0.4,0.9,0.7,1.9,0.8,2.9c0,0.4,0.1,0.9,0.2,1.4c0.1,1.9-0.2,3.6-0.8,5
					c-0.4,1.2-1,1.9-1.8,2.1H623c-0.8-0.1-1.5-0.8-2.2-2.1c-0.7-1.4-1.1-3.1-1.2-5c-0.1-1.9,0-3.6,0.5-5c0.5-1,1.1-1.6,1.7-1.9
					c0.2-0.1,0.3-0.2,0.5-0.2H622.4z"/>
			</g>
		</g>
		<g>
			<path fill-rule="evenodd" clip-rule="evenodd" d="M623.3,257.6c0.3,0.7,0.6,1.5,0.8,2.4c0,0.3,0.1,0.7,0.1,1.1
				c0.1,1.6-0.1,2.9-0.5,4c-0.3,0.9-0.7,1.5-1.3,1.7H622c-0.6,0-1.2-0.6-1.8-1.7c-0.5-1.1-0.8-2.5-0.8-4c-0.1-1.6,0-3.1,0.3-4.3
				c0.3-0.8,0.7-1.3,1.2-1.5c0.1-0.1,0.2-0.1,0.3-0.1h0.1c0.1,0,0.2,0,0.3,0c0.5,0.2,1,0.7,1.3,1.6
				C623.2,257.1,623.3,257.4,623.3,257.6z"/>
		</g>
		<g>
			<g>
				<linearGradient id="SVGID_6_" gradientUnits="userSpaceOnUse" x1="617.3799" y1="267.0322" x2="620.196" y2="253.1054">
					<stop  offset="0" style="stop-color:#070808"/>
					<stop  offset="1" style="stop-color:#353639"/>
				</linearGradient>
				<path fill-rule="evenodd" clip-rule="evenodd" fill="url(#SVGID_6_)" d="M618.6,255.6c1,0.4,1.7,1.8,2.2,4.3
					c0.3,2.3,0,4.4-0.8,6.3c-0.1,0.3-0.3,0.4-0.5,0.5h-0.2c-0.1,0-0.1,0-0.1,0c-0.6,0-1.3-0.5-1.9-1.6c-0.6-1.1-0.9-2.4-0.9-3.9
					c-0.2-1.6-0.1-2.9,0.3-4c0.4-0.8,0.8-1.3,1.1-1.5c0.1-0.1,0.2-0.1,0.3-0.1c0.1,0,0.1,0,0.2,0H618.6z"/>
				<linearGradient id="SVGID_7_" gradientUnits="userSpaceOnUse" x1="620.9365" y1="252.4316" x2="621.7675" y2="269.5814">
					<stop  offset="0" style="stop-color:#000000"/>
					<stop  offset="0.1255" style="stop-color:#60615A"/>
					<stop  offset="0.2431" style="stop-color:#1B201C"/>
					<stop  offset="0.3608" style="stop-color:#C0C3CA"/>
					<stop  offset="0.4902" style="stop-color:#141615"/>
					<stop  offset="0.6627" style="stop-color:#000000"/>
					<stop  offset="0.8039" style="stop-color:#181B18"/>
					<stop  offset="0.902" style="stop-color:#131614"/>
					<stop  offset="1" style="stop-color:#000000"/>
				</linearGradient>
				<path fill-rule="evenodd" clip-rule="evenodd" fill="url(#SVGID_7_)" d="M619.5,266.8c0.2-0.1,0.3-0.2,0.5-0.5
					c0.9-1.9,1.2-4,0.8-6.3c-0.5-2.5-1.2-3.9-2.2-4.3l2.7-0.2v0.1c0.5,0,1,0.6,1.5,1.6c0.5,1.1,0.9,2.4,1,4c0.1,1.5-0.1,2.8-0.5,3.9
					c-0.2,0.6-0.4,1.1-0.7,1.3c0,0.1-0.1,0.1-0.2,0.2c-0.1,0.1-0.2,0.1-0.3,0.1h-0.3c-0.1,0-0.1,0-0.2,0L619.5,266.8z"/>
			</g>
		</g>
		<g>
			<path fill-rule="evenodd" clip-rule="evenodd" d="M618,256.4c0,0,0.1,0,0.3,0.1c0.4,0.1,0.8,0.5,1.1,1.3c0.1,0.1,0.2,0.3,0.3,0.5
				c0.2,0.6,0.4,1.2,0.5,1.8c0.1,0.3,0.1,0.6,0.1,0.9c0.1,1.2,0,2.3-0.3,3.2c-0.2,0.8-0.5,1.2-0.9,1.4h-0.4
				c-0.5-0.1-0.9-0.5-1.3-1.4c-0.4-0.9-0.7-2-0.8-3.2c-0.1-1.2,0-2.3,0.2-3.2c0.2-0.7,0.5-1.1,0.9-1.3
				C617.7,256.4,617.8,256.4,618,256.4L618,256.4z"/>
		</g>
		<g>
			<g>
				<linearGradient id="SVGID_8_" gradientUnits="userSpaceOnUse" x1="617.7207" y1="257.2856" x2="617.884" y2="264.9109">
					<stop  offset="0" style="stop-color:#796F4C"/>
					<stop  offset="0.1765" style="stop-color:#988646"/>
					<stop  offset="0.2745" style="stop-color:#978C3A"/>
					<stop  offset="0.3804" style="stop-color:#F9F7BC"/>
					<stop  offset="0.5333" style="stop-color:#9D9D61"/>
					<stop  offset="0.698" style="stop-color:#443D2A"/>
					<stop  offset="0.9882" style="stop-color:#5F5A3B"/>
				</linearGradient>
				<path fill-rule="evenodd" clip-rule="evenodd" fill="url(#SVGID_8_)" d="M616.4,265.5c0.2-0.1,0.4-0.2,0.5-0.3
					c0.2-0.5,0.3-1,0.5-1.5c0.3-1.1,0.3-2.3,0.1-3.5c-0.1-0.8-0.3-1.4-0.5-1.9c-0.4-0.8-0.8-1.3-1.2-1.4c-0.1,0-0.2-0.1-0.3-0.1
					l2.4-0.1c0.4,0.1,0.8,0.5,1.3,1.3c0,0.1,0,0.1,0,0.3c0.4,0.8,0.6,1.8,0.8,3c0.1,0.9,0,1.7-0.2,2.4c0,0.2-0.1,0.4-0.3,0.6
					c0,0.3-0.1,0.5-0.2,0.7c-0.1,0.3-0.4,0.5-0.8,0.5h0c-0.1,0-0.1,0-0.2,0L616.4,265.5z"/>
				<linearGradient id="SVGID_9_" gradientUnits="userSpaceOnUse" x1="614.7168" y1="266.4937" x2="617.533" y2="252.5669">
					<stop  offset="0" style="stop-color:#070808"/>
					<stop  offset="1" style="stop-color:#353639"/>
				</linearGradient>
				<path fill-rule="evenodd" clip-rule="evenodd" fill="url(#SVGID_9_)" d="M616.4,265.5c0,0-0.1,0-0.2,0c-0.5,0-1-0.4-1.5-1.3
					c-0.4-0.8-0.6-1.9-0.7-3.1c-0.1-1.2,0-2.2,0.3-3.1c0.2-0.6,0.5-1,0.9-1.2c0,0,0.1-0.1,0.2-0.1h0.1c0.1,0,0.2,0,0.3,0.1
					c0.4,0.2,0.8,0.6,1.2,1.4c0.2,0.4,0.4,1.1,0.5,1.9c0.2,1.2,0.2,2.4-0.1,3.5c-0.1,0.5-0.3,1-0.5,1.5
					C616.8,265.3,616.6,265.4,616.4,265.5z"/>
			</g>
		</g>
		<g>
			
				<radialGradient id="SVGID_10_" cx="625.1504" cy="256.5479" r="4.6602" gradientTransform="matrix(0.363 0.9318 -0.3807 0.1483 495.8641 -364.0048)" gradientUnits="userSpaceOnUse">
				<stop  offset="0" style="stop-color:#FFFFFF"/>
				<stop  offset="0.102" style="stop-color:#FFFFFF"/>
				<stop  offset="0.2118" style="stop-color:#FFFFFF;stop-opacity:0.5255"/>
				<stop  offset="0.3804" style="stop-color:#FFFFFF;stop-opacity:0.1451"/>
				<stop  offset="0.6471" style="stop-color:#FEFEFE;stop-opacity:0"/>
				<stop  offset="1" style="stop-color:#FDFDFD;stop-opacity:0"/>
			</radialGradient>
			<path fill-rule="evenodd" clip-rule="evenodd" fill="url(#SVGID_10_)" d="M627,261.4c-0.5,0.2-1.1-0.1-1.8-1
				c-0.7-0.8-1.4-1.8-2-3.1c-0.5-1.3-0.7-2.6-0.8-3.7c0-1,0.2-1.6,0.7-1.8c0.5-0.2,1.1,0.1,1.8,0.9c0.7,0.8,1.3,1.9,1.9,3.3
				c0.5,1.3,0.8,2.5,0.8,3.6C627.8,260.6,627.5,261.2,627,261.4z"/>
		</g>
		<g>
			
				<radialGradient id="SVGID_11_" cx="620.25" cy="258.2998" r="4.6587" gradientTransform="matrix(0.363 0.9318 -0.3807 0.1483 493.4097 -357.9467)" gradientUnits="userSpaceOnUse">
				<stop  offset="0" style="stop-color:#FFFFFF"/>
				<stop  offset="0.102" style="stop-color:#FFFFFF"/>
				<stop  offset="0.2118" style="stop-color:#FFFFFF;stop-opacity:0.5255"/>
				<stop  offset="0.3804" style="stop-color:#FFFFFF;stop-opacity:0.1451"/>
				<stop  offset="0.6471" style="stop-color:#FEFEFE;stop-opacity:0"/>
				<stop  offset="1" style="stop-color:#FDFDFD;stop-opacity:0"/>
			</radialGradient>
			<path fill-rule="evenodd" clip-rule="evenodd" fill="url(#SVGID_11_)" d="M622.9,261.2c0,1.1-0.2,1.8-0.7,1.9
				c-0.5,0.2-1.1-0.1-1.8-1c-0.7-0.8-1.3-1.9-1.9-3.2c-0.5-1.3-0.8-2.5-0.8-3.6c0-1,0.2-1.6,0.7-1.9c0.5-0.2,1.1,0.1,1.8,0.9
				c0.7,0.8,1.3,1.9,1.8,3.2C622.5,259,622.8,260.2,622.9,261.2z"/>
		</g>
	</g>
	<g>
		<g>
			<g>
				<linearGradient id="SVGID_12_" gradientUnits="userSpaceOnUse" x1="638.3984" y1="313.3179" x2="639.2294" y2="330.4676">
					<stop  offset="0" style="stop-color:#000000"/>
					<stop  offset="0.1255" style="stop-color:#60615A"/>
					<stop  offset="0.2431" style="stop-color:#1B201C"/>
					<stop  offset="0.3608" style="stop-color:#C0C3CA"/>
					<stop  offset="0.4902" style="stop-color:#141615"/>
					<stop  offset="0.6627" style="stop-color:#000000"/>
					<stop  offset="0.8039" style="stop-color:#181B18"/>
					<stop  offset="0.902" style="stop-color:#131614"/>
					<stop  offset="1" style="stop-color:#000000"/>
				</linearGradient>
				<path fill-rule="evenodd" clip-rule="evenodd" fill="url(#SVGID_12_)" d="M628.5,329.5c0.7-0.3,1.3-1,1.7-2.1
					c0.6-1.4,0.9-3.1,0.8-5c-0.1-0.5-0.1-1-0.2-1.4c-0.1-1-0.4-2-0.8-2.9c-0.1-0.3-0.2-0.6-0.4-0.9c-0.6-1.1-1.2-1.8-1.9-1.9
					c-0.1,0-0.3-0.1-0.5-0.1l18.3-1.2l0.7-0.1c0.6,0.1,1,0.3,1.4,0.7c0.4,0.4,0.8,0.9,1.1,1.6c0.2,0.2,0.3,0.4,0.3,0.6
					c0.4,0.8,0.7,1.8,0.9,2.8c0.1,0.7,0.2,1.5,0.3,2.1c0.2,2.1-0.1,3.9-0.8,5.6c-0.3,0.8-0.6,1.4-1,1.8c-0.4,0.4-0.8,0.6-1.3,0.6
					L628.5,329.5z"/>
				<linearGradient id="SVGID_13_" gradientUnits="userSpaceOnUse" x1="626.1514" y1="329.3452" x2="628.9675" y2="315.4184">
					<stop  offset="0" style="stop-color:#070808"/>
					<stop  offset="1" style="stop-color:#353639"/>
				</linearGradient>
				<path fill-rule="evenodd" clip-rule="evenodd" fill="url(#SVGID_13_)" d="M627.2,315.3c0.2,0,0.3,0,0.5,0.1
					c0.7,0.2,1.3,0.9,1.9,1.9c0.2,0.2,0.3,0.5,0.4,0.9c0.4,0.9,0.7,1.8,0.8,2.9c0.1,0.4,0.1,0.9,0.2,1.4c0.1,1.9-0.2,3.6-0.8,5
					c-0.4,1.1-1,1.8-1.7,2.1h-0.7c-0.8-0.1-1.5-0.8-2.2-2.1c-0.7-1.4-1.1-3.1-1.2-5c-0.2-2,0-3.7,0.4-5.1c0.5-1,1.1-1.6,1.8-1.8
					c0.2-0.1,0.3-0.2,0.5-0.2H627.2z"/>
			</g>
		</g>
		<g>
			<path fill-rule="evenodd" clip-rule="evenodd" d="M628.2,319.1c0.3,0.7,0.5,1.4,0.7,2.4c0,0.3,0.1,0.6,0.1,1
				c0.1,1.6-0.1,3-0.5,4.1c-0.3,1-0.7,1.5-1.3,1.8h-0.5c-0.6,0-1.1-0.6-1.7-1.8c-0.5-1.1-0.8-2.5-0.9-4.1c-0.1-1.6,0-3,0.3-4.1
				c0.3-0.8,0.7-1.3,1.2-1.5c0.1-0.1,0.3-0.1,0.3-0.1h0.1c0.1,0,0.2,0,0.3,0c0.5,0.2,1,0.7,1.4,1.6C628,318.6,628,318.9,628.2,319.1
				z"/>
		</g>
		<g>
			<g>
				<linearGradient id="SVGID_14_" gradientUnits="userSpaceOnUse" x1="625.6904" y1="313.9336" x2="626.5214" y2="331.0833">
					<stop  offset="0" style="stop-color:#000000"/>
					<stop  offset="0.1255" style="stop-color:#60615A"/>
					<stop  offset="0.2431" style="stop-color:#1B201C"/>
					<stop  offset="0.3608" style="stop-color:#C0C3CA"/>
					<stop  offset="0.4902" style="stop-color:#141615"/>
					<stop  offset="0.6627" style="stop-color:#000000"/>
					<stop  offset="0.8039" style="stop-color:#181B18"/>
					<stop  offset="0.902" style="stop-color:#131614"/>
					<stop  offset="1" style="stop-color:#000000"/>
				</linearGradient>
				<path fill-rule="evenodd" clip-rule="evenodd" fill="url(#SVGID_14_)" d="M623.3,317.1l2.7-0.2v0c0.6,0,1.1,0.5,1.5,1.5
					c0.6,1.1,0.9,2.5,1,4c0.1,1.5,0,2.8-0.4,3.9c-0.2,0.7-0.4,1.1-0.7,1.4c-0.1,0-0.1,0.1-0.2,0.1c0,0.1-0.1,0.2-0.3,0.2h-0.3
					c0,0-0.1,0-0.1,0l-2.3,0.1c0.2,0,0.4-0.2,0.5-0.4c0.9-1.9,1.2-4,0.8-6.3C625.1,318.9,624.3,317.5,623.3,317.1z"/>
				<linearGradient id="SVGID_15_" gradientUnits="userSpaceOnUse" x1="622.1504" y1="328.5361" x2="624.9666" y2="314.6093">
					<stop  offset="0" style="stop-color:#070808"/>
					<stop  offset="1" style="stop-color:#353639"/>
				</linearGradient>
				<path fill-rule="evenodd" clip-rule="evenodd" fill="url(#SVGID_15_)" d="M624.3,328.1h-0.2c-0.1,0-0.2,0-0.2,0
					c-0.6,0-1.3-0.5-1.9-1.6c-0.5-1.1-0.8-2.4-0.9-3.8c-0.1-1.6,0-2.9,0.3-4c0.4-0.8,0.8-1.3,1.1-1.5c0.1-0.1,0.2-0.1,0.3-0.1
					c0,0,0.1,0,0.1,0h0.3c1,0.3,1.8,1.8,2.3,4.3c0.3,2.3,0,4.4-0.8,6.3C624.6,328,624.5,328.1,624.3,328.1z"/>
			</g>
		</g>
		<g>
			<path fill-rule="evenodd" clip-rule="evenodd" d="M622.7,317.9c0.1,0,0.1,0,0.3,0c0.4,0.1,0.8,0.5,1.1,1.3
				c0.1,0.2,0.2,0.4,0.3,0.6c0.2,0.6,0.3,1.2,0.4,1.8c0.1,0.3,0.2,0.6,0.2,0.9c0.1,1.2,0,2.3-0.3,3.2c-0.2,0.7-0.5,1.1-0.9,1.3h-0.5
				c-0.5,0-0.9-0.5-1.3-1.3c-0.4-0.9-0.6-2-0.8-3.2c-0.1-1.2-0.1-2.3,0.2-3.3c0.2-0.7,0.5-1.1,0.9-1.3
				C622.5,317.9,622.5,317.9,622.7,317.9L622.7,317.9z"/>
		</g>
		<g>
			<g>
				<linearGradient id="SVGID_16_" gradientUnits="userSpaceOnUse" x1="622.5146" y1="318.6851" x2="622.678" y2="326.3103">
					<stop  offset="0" style="stop-color:#796F4C"/>
					<stop  offset="0.1765" style="stop-color:#988646"/>
					<stop  offset="0.2745" style="stop-color:#978C3A"/>
					<stop  offset="0.3804" style="stop-color:#F9F7BC"/>
					<stop  offset="0.5333" style="stop-color:#9D9D61"/>
					<stop  offset="0.698" style="stop-color:#443D2A"/>
					<stop  offset="0.9882" style="stop-color:#5F5A3B"/>
				</linearGradient>
				<path fill-rule="evenodd" clip-rule="evenodd" fill="url(#SVGID_16_)" d="M620.3,318.3l2.3-0.1c0.4,0,0.8,0.5,1.3,1.3
					c0,0,0,0.1,0,0.3c0.4,0.8,0.6,1.8,0.8,2.9c0,0.9,0,1.7-0.3,2.5c0,0.2-0.1,0.4-0.3,0.6c0,0.2-0.1,0.4-0.2,0.6
					c-0.2,0.3-0.4,0.5-0.8,0.5h0c0,0-0.1,0-0.2,0l-1.9,0.1c0.2,0,0.4-0.1,0.5-0.3c0.2-0.5,0.4-1,0.5-1.5c0.3-1.1,0.3-2.3,0.1-3.5
					c-0.1-0.8-0.3-1.4-0.5-1.9c-0.3-0.8-0.7-1.3-1.1-1.4C620.5,318.3,620.5,318.3,620.3,318.3z"/>
				<linearGradient id="SVGID_17_" gradientUnits="userSpaceOnUse" x1="619.502" y1="328.0005" x2="622.3181" y2="314.0737">
					<stop  offset="0" style="stop-color:#070808"/>
					<stop  offset="1" style="stop-color:#353639"/>
				</linearGradient>
				<path fill-rule="evenodd" clip-rule="evenodd" fill="url(#SVGID_17_)" d="M621.2,326.9c0,0-0.1,0-0.2,0c-0.5,0-1-0.4-1.5-1.3
					c-0.3-0.8-0.5-1.9-0.7-3c-0.1-1.2,0-2.2,0.3-3.1c0.2-0.6,0.5-1,0.8-1.1c0.1-0.1,0.1-0.1,0.3-0.1h0.1c0.1,0,0.2,0,0.3,0.1
					c0.4,0.1,0.8,0.6,1.1,1.4c0.2,0.4,0.4,1,0.5,1.9c0.2,1.2,0.2,2.4-0.1,3.5c-0.1,0.5-0.3,1-0.5,1.5
					C621.5,326.8,621.3,326.9,621.2,326.9z"/>
			</g>
		</g>
		<g>
			
				<radialGradient id="SVGID_18_" cx="629.9502" cy="318.0498" r="4.6587" gradientTransform="matrix(0.363 0.9318 -0.3807 0.1483 522.3356 -316.098)" gradientUnits="userSpaceOnUse">
				<stop  offset="0" style="stop-color:#FFFFFF"/>
				<stop  offset="0.102" style="stop-color:#FFFFFF"/>
				<stop  offset="0.2118" style="stop-color:#FFFFFF;stop-opacity:0.5255"/>
				<stop  offset="0.3804" style="stop-color:#FFFFFF;stop-opacity:0.1451"/>
				<stop  offset="0.6471" style="stop-color:#FEFEFE;stop-opacity:0"/>
				<stop  offset="1" style="stop-color:#FDFDFD;stop-opacity:0"/>
			</radialGradient>
			<path fill-rule="evenodd" clip-rule="evenodd" fill="url(#SVGID_18_)" d="M631.8,322.8c-0.5,0.2-1.1-0.1-1.8-0.9
				c-0.7-0.8-1.3-1.9-1.9-3.1c-0.5-1.4-0.7-2.6-0.8-3.7c0-1,0.2-1.6,0.7-1.8c0.5-0.2,1.1,0.1,1.8,0.9c0.7,0.8,1.3,1.9,1.9,3.3
				c0.5,1.4,0.8,2.6,0.8,3.6C632.5,322,632.3,322.7,631.8,322.8z"/>
		</g>
		<g>
			
				<radialGradient id="SVGID_19_" cx="625.0498" cy="319.75" r="4.6587" gradientTransform="matrix(0.363 0.9318 -0.3807 0.1483 519.8616 -310.0839)" gradientUnits="userSpaceOnUse">
				<stop  offset="0" style="stop-color:#FFFFFF"/>
				<stop  offset="0.102" style="stop-color:#FFFFFF"/>
				<stop  offset="0.2118" style="stop-color:#FFFFFF;stop-opacity:0.5255"/>
				<stop  offset="0.3804" style="stop-color:#FFFFFF;stop-opacity:0.1451"/>
				<stop  offset="0.6471" style="stop-color:#FEFEFE;stop-opacity:0"/>
				<stop  offset="1" style="stop-color:#FDFDFD;stop-opacity:0"/>
			</radialGradient>
			<path fill-rule="evenodd" clip-rule="evenodd" fill="url(#SVGID_19_)" d="M627,324.6c-0.5,0.2-1.1-0.1-1.8-1
				c-0.7-0.8-1.3-1.9-1.9-3.3c-0.5-1.3-0.7-2.4-0.8-3.5c0-1,0.2-1.6,0.7-1.9s1.1,0.1,1.8,0.9c0.7,0.8,1.3,1.9,1.8,3.2
				c0.5,1.4,0.8,2.6,0.9,3.6C627.7,323.8,627.4,324.4,627,324.6z"/>
		</g>
	</g>
	<g>
		<g>
			<g>
				
					<linearGradient id="SVGID_20_" gradientUnits="userSpaceOnUse" x1="-250.355" y1="657.4521" x2="-210.5809" y2="657.4521" gradientTransform="matrix(0.2282 -0.9736 0.9929 0.1459 -7.784367e-005 -2.485812e-004)">
					<stop  offset="0" style="stop-color:#939597"/>
					<stop  offset="0.5176" style="stop-color:#040404"/>
					<stop  offset="0.7098" style="stop-color:#252725"/>
					<stop  offset="1" style="stop-color:#000000"/>
				</linearGradient>
				<path fill-rule="evenodd" clip-rule="evenodd" fill="url(#SVGID_20_)" d="M616.5,321.6c-0.3,2.3-2,4.2-5.1,5.6
					c-3.3,1.7-7.2,2.5-11.7,2.4c-4.6-0.2-8.5-1.2-11.5-3c-2.7-1.6-4.1-3.4-4.4-5.4c-0.1-0.4-0.1-0.7-0.1-1.1c0-0.3,0-0.6,0.1-1
					c0.5-2,2.2-3.7,5.1-5.2c3.3-1.6,7.2-2.4,11.8-2.3c4.5,0.2,8.3,1.2,11.4,3.1c3,1.7,4.6,3.8,4.6,6.1L616.5,321.6z"/>
				
					<linearGradient id="SVGID_21_" gradientUnits="userSpaceOnUse" x1="603.2744" y1="313.2383" x2="635.242" y2="313.2383" gradientTransform="matrix(0.9987 5.161475e-002 -6.471926e-002 0.998 8.451939e-005 1.331270e-004)">
					<stop  offset="0" style="stop-color:#010101"/>
					<stop  offset="0.2078" style="stop-color:#010101"/>
					<stop  offset="0.4745" style="stop-color:#3B3B3B"/>
					<stop  offset="0.6745" style="stop-color:#151515"/>
					<stop  offset="1" style="stop-color:#000000"/>
				</linearGradient>
				<path fill-rule="evenodd" clip-rule="evenodd" fill="url(#SVGID_21_)" d="M583.8,321.2c0.2,2,1.7,3.8,4.4,5.4
					c3.1,1.8,6.9,2.9,11.5,3c4.5,0.1,8.4-0.7,11.7-2.4c3.1-1.5,4.8-3.4,5.1-5.6l-2.2,38.6c-0.2,2.4-1.9,4.3-5.2,5.9
					c-3.2,1.7-7.1,2.4-11.6,2.3c-4.6-0.2-8.4-1.2-11.5-3c-2.6-1.6-4.1-3.4-4.4-5.4L583.8,321.2z"/>
			</g>
		</g>
		<g>
			
				<radialGradient id="SVGID_22_" cx="590.8496" cy="327.5498" r="8.6547" gradientTransform="matrix(0.9113 0.4118 -0.1704 0.377 108.2225 -39.2422)" gradientUnits="userSpaceOnUse">
				<stop  offset="0" style="stop-color:#FFFFFF"/>
				<stop  offset="0.102" style="stop-color:#FFFFFF"/>
				<stop  offset="0.2118" style="stop-color:#FFFFFF;stop-opacity:0.5255"/>
				<stop  offset="0.3804" style="stop-color:#FFFFFF;stop-opacity:0.1451"/>
				<stop  offset="0.6471" style="stop-color:#FEFEFE;stop-opacity:0"/>
				<stop  offset="1" style="stop-color:#FDFDFD;stop-opacity:0"/>
			</radialGradient>
			<path fill-rule="evenodd" clip-rule="evenodd" fill="url(#SVGID_22_)" d="M583.7,327c-1.4-1.3-1.9-2.4-1.6-3.3
				c0.4-0.8,1.6-1.2,3.6-1.2c2,0.2,4.2,0.8,6.6,1.9c2.4,1.1,4.3,2.3,5.7,3.7c1.4,1.4,2,2.5,1.5,3.4c-0.3,0.8-1.5,1.2-3.5,1.1
				s-4.2-0.8-6.5-1.9C587,329.6,585.1,328.4,583.7,327z"/>
		</g>
	</g>
	<g>
		<g>
			<linearGradient id="SVGID_23_" gradientUnits="userSpaceOnUse" x1="609.6406" y1="292.9458" x2="617.3281" y2="314.9047">
				<stop  offset="0" style="stop-color:#454543"/>
				<stop  offset="1" style="stop-color:#111111"/>
			</linearGradient>
			<path fill-rule="evenodd" clip-rule="evenodd" fill="url(#SVGID_23_)" d="M625.4,312h-9.2l-14.7-16.3l0.4-0.1h8.3
				c0,0.1,0.1,0.1,0.1,0.1C615.4,301.1,620.4,306.5,625.4,312z"/>
			<polygon fill-rule="evenodd" clip-rule="evenodd" points="625.4,312 620.8,330.6 611.5,330.6 616.2,312 			"/>
			<polygon fill-rule="evenodd" clip-rule="evenodd" fill="#151515" points="611.5,330.6 596.8,312 601.5,295.8 616.2,312 			"/>
		</g>
	</g>
	<g>
		<radialGradient id="SVGID_24_" cx="614.9004" cy="311.4502" r="11.3625" gradientUnits="userSpaceOnUse">
			<stop  offset="0" style="stop-color:#FFFFFF;stop-opacity:0.4"/>
			<stop  offset="1" style="stop-color:#FAFAFA;stop-opacity:0"/>
		</radialGradient>
		<path fill-rule="evenodd" clip-rule="evenodd" fill="url(#SVGID_24_)" d="M625.3,312.1h-9.1l-4.5,18.4c-0.1,0-0.2,0-0.2,0
			c0,0-0.1,0-0.1,0c0,0-0.1,0-0.2,0c0,0,0-0.1,0-0.1l4.6-18.4l-11.5-12.8v-0.6l11.8,13.1h8.9L625.3,312.1z M604.3,295.8v-0.4h5.7
			c0.1,0,0.2,0,0.2,0c0,0.1,0,0.1,0,0.1c0,0.1,0,0.1,0,0.1c0,0.1-0.1,0.1-0.2,0.1H604.3z"/>
	</g>
	<g>
		<g>
			<linearGradient id="SVGID_25_" gradientUnits="userSpaceOnUse" x1="610.084" y1="243.5625" x2="598.73" y2="314.5539">
				<stop  offset="0" style="stop-color:#454543"/>
				<stop  offset="1" style="stop-color:#121211"/>
			</linearGradient>
			<polygon fill-rule="evenodd" clip-rule="evenodd" fill="url(#SVGID_25_)" points="610.3,261.1 606.8,284.6 606.3,284.6 
				601.6,276.7 605.3,253.5 605.3,253.5 610.3,260.9 			"/>
			<linearGradient id="SVGID_26_" gradientUnits="userSpaceOnUse" x1="608.5889" y1="246.8159" x2="618.3656" y2="274.6903">
				<stop  offset="0" style="stop-color:#454543"/>
				<stop  offset="1" style="stop-color:#111111"/>
			</linearGradient>
			<polygon fill-rule="evenodd" clip-rule="evenodd" fill="url(#SVGID_26_)" points="610.3,260.9 605.3,253.5 613.8,253.5 
				619.2,261.1 610.5,261.1 			"/>
			<polygon fill-rule="evenodd" clip-rule="evenodd" points="606.8,284.6 610.3,261.1 610.5,261.1 619.2,261.1 615.2,284.8 			"/>
		</g>
	</g>
	<g>
		<path fill-rule="evenodd" clip-rule="evenodd" fill="none" d="M601.5,276.9l4.7,7.9h0.4l3.6-23.5v-0.1l-5-7.3 M615,285l-8.4-0.2
			l0,0.3l-0.4-0.3 M610.2,261.2L610.2,261.2v-0.1 M610.3,261.2h8.7"/>
	</g>
	<g>
		<linearGradient id="SVGID_27_" gradientUnits="userSpaceOnUse" x1="627.3047" y1="278.3501" x2="627.3047" y2="307.8999">
			<stop  offset="0" style="stop-color:#757667"/>
			<stop  offset="9.803922e-002" style="stop-color:#2E2F2A"/>
			<stop  offset="0.2353" style="stop-color:#1B201C"/>
			<stop  offset="0.3608" style="stop-color:#939597"/>
			<stop  offset="0.5176" style="stop-color:#040404"/>
			<stop  offset="0.7098" style="stop-color:#252725"/>
			<stop  offset="1" style="stop-color:#000000"/>
		</linearGradient>
		<path fill-rule="evenodd" clip-rule="evenodd" fill="url(#SVGID_27_)" d="M645.1,287.6c0.1,1.7,0.2,3.5,0.2,5.5c0,0.4,0,0.7,0,1
			c-0.3,3.6-0.9,6.8-2,9.5v0c-0.1,0.1-0.1,0.2-0.1,0.3c-1.1,2.6-2.4,4-3.8,4h-30.1v-29.5h31.4c1.1,0.1,2.1,1.1,3,3c0,0,0,0.1,0,0.3
			c0.2,0.3,0.3,0.6,0.3,1C644.6,284.2,644.9,285.8,645.1,287.6z"/>
	</g>
	<g>
		<g>
			<linearGradient id="SVGID_28_" gradientUnits="userSpaceOnUse" x1="598.8145" y1="250.2441" x2="608.5912" y2="278.1185">
				<stop  offset="0" style="stop-color:#454543"/>
				<stop  offset="1" style="stop-color:#111111"/>
			</linearGradient>
			<polygon fill-rule="evenodd" clip-rule="evenodd" fill="url(#SVGID_28_)" points="616.3,273.3 606,273.3 590.7,254 590.7,254 
				599.6,254 			"/>
			<linearGradient id="SVGID_29_" gradientUnits="userSpaceOnUse" x1="603.8623" y1="242.5674" x2="592.5083" y2="313.5588">
				<stop  offset="0" style="stop-color:#454543"/>
				<stop  offset="1" style="stop-color:#121211"/>
			</linearGradient>
			<polygon fill-rule="evenodd" clip-rule="evenodd" fill="url(#SVGID_29_)" points="606,273.3 608.5,299 608.5,299 600.7,332.4 
				600.7,332.5 580.2,305.1 590.7,254 			"/>
			<polygon fill-rule="evenodd" clip-rule="evenodd" fill="#151515" points="618,299 608.5,299 608.5,299 606,273.3 616.3,273.3 
				616.3,273.4 			"/>
			<polygon fill-rule="evenodd" clip-rule="evenodd" points="608.5,299 618,299 618.1,299 609.4,332.4 600.7,332.4 			"/>
		</g>
	</g>
	<g>
		<path fill-rule="evenodd" clip-rule="evenodd" d="M599.4,293c-0.2,4.2-0.9,7.9-2.3,10.9c-1.2,3-2.7,4.5-4.5,4.5s-3.1-1.5-4.2-4.5
			c-1-3-1.5-6.7-1.4-10.9c0.2-4.2,0.9-7.8,2.2-10.8c1.4-3,2.9-4.5,4.6-4.5c1.8,0,3.1,1.5,4.1,4.5C599.2,285.2,599.6,288.8,599.4,293
			z"/>
	</g>
	<g>
		<g>
			<linearGradient id="SVGID_30_" gradientUnits="userSpaceOnUse" x1="648.3818" y1="281.4746" x2="648.0071" y2="303.725">
				<stop  offset="0" style="stop-color:#757667"/>
				<stop  offset="0.1569" style="stop-color:#2E2F2A"/>
				<stop  offset="0.2431" style="stop-color:#1B201C"/>
				<stop  offset="0.3608" style="stop-color:#C0C3CA"/>
				<stop  offset="0.5059" style="stop-color:#141615"/>
				<stop  offset="0.6627" style="stop-color:#000000"/>
				<stop  offset="0.8039" style="stop-color:#181B18"/>
				<stop  offset="0.902" style="stop-color:#131614"/>
				<stop  offset="1" style="stop-color:#000000"/>
			</linearGradient>
			<path fill-rule="evenodd" clip-rule="evenodd" fill="url(#SVGID_30_)" d="M653,292.5c0,0.6,0,1.1,0,1.6c-0.1,0.6-0.2,1.1-0.2,1.6
				c-0.2,1.7-0.5,3.3-1,4.8c-0.5,1.6-1,2.6-1.6,3h-6.9v0c1-2.7,1.7-5.8,2-9.5c0-0.3,0-0.7,0-1c0-2,0-3.8-0.2-5.5
				c-0.2-1.8-0.5-3.4-1-5c-0.1-0.4-0.2-0.8-0.3-1h7.1v0c0.5,0.5,0.9,1.4,1.3,2.9c0.3,0.9,0.5,2,0.6,3.1c0,0.2,0,0.3,0,0.4
				C652.9,289.4,653,290.9,653,292.5z"/>
			<linearGradient id="SVGID_31_" gradientUnits="userSpaceOnUse" x1="660.2607" y1="286.7847" x2="660.038" y2="292.7607">
				<stop  offset="0" style="stop-color:#000000"/>
				<stop  offset="0.2745" style="stop-color:#171818"/>
				<stop  offset="0.4235" style="stop-color:#232425"/>
				<stop  offset="0.7255" style="stop-color:#6E7074"/>
				<stop  offset="1" style="stop-color:#CBCCCD"/>
			</linearGradient>
			<path fill-rule="evenodd" clip-rule="evenodd" fill="url(#SVGID_31_)" d="M669.7,292.5H653c0-1.6,0-3.1-0.2-4.5
				c0-0.1,0-0.3,0-0.4c-0.1-1.1-0.3-2.1-0.6-3.1c-0.4-1.5-0.8-2.4-1.3-2.9l17.1,6.9c0.8,0.6,1.3,1.6,1.6,2.8L669.7,292.5z"/>
			<linearGradient id="SVGID_32_" gradientUnits="userSpaceOnUse" x1="660.209" y1="288.1328" x2="659.952" y2="297.6826">
				<stop  offset="0" style="stop-color:#FFFFFF"/>
				<stop  offset="0.3765" style="stop-color:#D7D8DC"/>
				<stop  offset="0.5333" style="stop-color:#B2B4BB"/>
				<stop  offset="1" style="stop-color:#000000"/>
			</linearGradient>
			<path fill-rule="evenodd" clip-rule="evenodd" fill="url(#SVGID_32_)" d="M653,292.5h16.7l0.1,1c0,1.5-0.5,2.9-1.3,4l-18.3,6.3
				l0.1-0.1c0.6-0.4,1.1-1.4,1.6-3c0.4-1.5,0.8-3.1,1-4.8c0-0.5,0-1.1,0.2-1.6C652.9,293.6,653,293.1,653,292.5z"/>
			<linearGradient id="SVGID_33_" gradientUnits="userSpaceOnUse" x1="579.5391" y1="278.3501" x2="579.5391" y2="307.8999">
				<stop  offset="0" style="stop-color:#757667"/>
				<stop  offset="9.803922e-002" style="stop-color:#2E2F2A"/>
				<stop  offset="0.2353" style="stop-color:#1B201C"/>
				<stop  offset="0.3608" style="stop-color:#939597"/>
				<stop  offset="0.5176" style="stop-color:#040404"/>
				<stop  offset="0.7098" style="stop-color:#252725"/>
				<stop  offset="1" style="stop-color:#000000"/>
			</linearGradient>
			<path fill-rule="evenodd" clip-rule="evenodd" fill="url(#SVGID_33_)" d="M560.7,307.9c1.4,0,2.7-1.5,3.8-4.3
				c1-2.7,1.7-5.8,2-9.5c0-0.2,0-0.5,0-0.8v-0.3c0-2,0-3.8-0.2-5.5c-0.2-1.8-0.5-3.4-1-5c-0.9-2.8-2-4.2-3.4-4.3h31.9
				c1.4,0.1,2.5,1.5,3.4,4.3c0.5,1.5,0.8,3.2,1,5c0.2,1.7,0.2,3.6,0.2,5.8c0,0.3,0,0.5-0.1,0.8c-0.3,3.6-0.9,6.8-2,9.5
				c-1.1,2.8-2.4,4.3-3.9,4.3H560.7z"/>
			<path fill-rule="evenodd" clip-rule="evenodd" fill="#1E1C1F" d="M561.9,278.4c1.4,0.1,2.6,1.5,3.4,4.3c0.4,1.5,0.8,3.2,1,5
				c0.2,1.7,0.2,3.5,0.2,5.5v0.3c0,0.3,0,0.5,0,0.8c-0.3,3.6-1,6.8-2,9.5c-1.1,2.8-2.4,4.3-3.8,4.3h-0.2c-1.4,0-2.5-1.5-3.5-4.3
				c-0.9-2.9-1.2-6.4-1-10.5c0.1-4.1,0.8-7.6,1.9-10.5c1.2-2.8,2.4-4.2,3.8-4.3H561.9z M562.3,281.7c-0.4-0.5-0.9-0.8-1.3-0.8
				c-1,0-1.9,1.2-2.7,3.6c-0.7,2.4-1.1,5.3-1.3,8.6c-0.2,3.3,0,6.2,0.6,8.6c0.6,2.5,1.4,3.7,2.4,3.7c0.5,0,0.9-0.3,1.3-0.9
				c0.4-0.6,0.9-1.6,1.3-2.8c0.8-2.4,1.3-5.3,1.4-8.6c0.2-3.4-0.1-6.3-0.7-8.6C563,283.2,562.7,282.3,562.3,281.7z"/>
			<linearGradient id="SVGID_34_" gradientUnits="userSpaceOnUse" x1="559.6719" y1="282.9756" x2="559.3875" y2="303.2258">
				<stop  offset="0" style="stop-color:#000000"/>
				<stop  offset="0.1961" style="stop-color:#212223"/>
				<stop  offset="0.4078" style="stop-color:#C0C3CA"/>
				<stop  offset="0.6667" style="stop-color:#252627"/>
				<stop  offset="1" style="stop-color:#000000"/>
			</linearGradient>
			<path fill-rule="evenodd" clip-rule="evenodd" fill="url(#SVGID_34_)" d="M562.3,281.7c-0.8,0.2-1.6,1.3-2.3,3.3
				c-0.7,2.2-1.2,4.9-1.3,8.1c-0.2,3.1,0,5.8,0.6,8.1c0.5,2,1.1,3.1,1.9,3.3c-0.4,0.6-0.8,0.9-1.3,0.9c-1,0-1.8-1.2-2.4-3.7
				c-0.6-2.4-0.8-5.3-0.6-8.6c0.2-3.4,0.6-6.3,1.3-8.6c0.8-2.4,1.7-3.6,2.7-3.6C561.4,280.9,561.8,281.2,562.3,281.7z"/>
			<path fill-rule="evenodd" clip-rule="evenodd" d="M561.3,304.5c-0.8-0.2-1.4-1.3-1.9-3.3c-0.6-2.3-0.8-5-0.6-8.1
				c0.1-3.2,0.5-5.9,1.3-8.1c0.7-2,1.4-3.1,2.3-3.3c0.4,0.6,0.7,1.5,1,2.8c0.6,2.4,0.8,5.3,0.7,8.6c-0.1,3.3-0.6,6.2-1.4,8.6
				C562.1,303,561.7,303.9,561.3,304.5z"/>
		</g>
	</g>
	<g>
		<path fill-rule="evenodd" clip-rule="evenodd" d="M612.5,279.9c1.5,0,2.7,0.5,3.7,1.5c1,1,1.5,2.2,1.5,3.6c0,1.4-0.5,2.6-1.5,3.6
			c-1,1.1-2.2,1.6-3.7,1.6c-1.4,0-2.5-0.5-3.5-1.6c-1-1-1.5-2.2-1.5-3.6c0-1.4,0.5-2.6,1.5-3.6S611.1,279.9,612.5,279.9z"/>
	</g>
	<g>
		<g>
			<g>
				<linearGradient id="SVGID_35_" gradientUnits="userSpaceOnUse" x1="611.0391" y1="273.5474" x2="621.7727" y2="288.2911">
					<stop  offset="0" style="stop-color:#757667"/>
					<stop  offset="0.149" style="stop-color:#757667"/>
					<stop  offset="1" style="stop-color:#000000"/>
				</linearGradient>
				<path fill-rule="evenodd" clip-rule="evenodd" fill="url(#SVGID_35_)" d="M619.4,287.3c-0.2,0-0.4,0.1-0.6,0.1
					c-0.4,0.1-0.8,0.1-1.3,0.1c-0.2,0-0.4,0-0.5,0c-1.2-0.1-2.3-0.6-3.2-1.5c-1-1-1.5-2.2-1.5-3.7c0-0.9,0.2-1.7,0.7-2.5
					c0.2-0.4,0.5-0.7,0.8-1.1c0.3-0.3,0.7-0.6,1.1-0.8c0.1,0,0.3-0.1,0.4-0.2c0.7-0.3,1.5-0.5,2.3-0.5c1.3,0,2.5,0.5,3.6,1.5
					c1,1,1.5,2.2,1.5,3.6c0,1.5-0.5,2.7-1.5,3.7c-0.1,0.1-0.3,0.3-0.5,0.4c-0.2,0.2-0.5,0.4-0.7,0.6
					C619.8,287,619.6,287.1,619.4,287.3z"/>
				<linearGradient id="SVGID_36_" gradientUnits="userSpaceOnUse" x1="609.9922" y1="279.167" x2="615.1902" y2="289.818">
					<stop  offset="0" style="stop-color:#757667"/>
					<stop  offset="0.1569" style="stop-color:#2E2F2A"/>
					<stop  offset="0.3608" style="stop-color:#6D7681"/>
					<stop  offset="0.5059" style="stop-color:#141615"/>
					<stop  offset="0.6627" style="stop-color:#000000"/>
					<stop  offset="0.8039" style="stop-color:#181B18"/>
					<stop  offset="0.902" style="stop-color:#131614"/>
					<stop  offset="1" style="stop-color:#000000"/>
				</linearGradient>
				<path fill-rule="evenodd" clip-rule="evenodd" fill="url(#SVGID_36_)" d="M614.9,278c-0.4,0.3-0.7,0.5-1.1,0.8
					c-0.4,0.4-0.6,0.7-0.8,1.1c-0.4,0.8-0.7,1.6-0.7,2.5c0,1.5,0.5,2.7,1.5,3.7c0.9,0.9,2,1.4,3.2,1.5c0.2,0,0.4,0,0.5,0
					c0.4,0,0.9,0,1.3-0.1c0.2-0.1,0.4-0.1,0.6-0.1l-4.1,1.9c-0.2,0.2-0.5,0.3-0.7,0.4c-0.6,0.2-1.1,0.3-1.7,0.3
					c-1.4,0-2.6-0.5-3.6-1.4c-1-0.9-1.5-2.1-1.5-3.5c0-1.3,0.5-2.5,1.5-3.5c0.2-0.2,0.5-0.5,0.9-0.6c0.2-0.1,0.3-0.2,0.4-0.3
					L614.9,278z"/>
			</g>
		</g>
		<g>
			
				<radialGradient id="SVGID_37_" cx="612.5996" cy="282.8467" r="3.5961" gradientTransform="matrix(0.1015 0.9948 -0.407 4.150923e-002 665.5748 -338.3328)" gradientUnits="userSpaceOnUse">
				<stop  offset="0" style="stop-color:#FFFFFF"/>
				<stop  offset="0.102" style="stop-color:#FFFFFF"/>
				<stop  offset="0.2118" style="stop-color:#FFFFFF;stop-opacity:0.5255"/>
				<stop  offset="0.3804" style="stop-color:#FFFFFF;stop-opacity:0.1451"/>
				<stop  offset="0.6471" style="stop-color:#FEFEFE;stop-opacity:0"/>
				<stop  offset="1" style="stop-color:#FDFDFD;stop-opacity:0"/>
			</radialGradient>
			<path fill-rule="evenodd" clip-rule="evenodd" fill="url(#SVGID_37_)" d="M611.2,283c-0.1-1.1,0-2,0.2-2.9
				c0.2-0.8,0.5-1.2,0.9-1.2c0.4-0.1,0.8,0.3,1.1,1c0.4,0.8,0.6,1.7,0.7,2.8c0.1,1.1,0.1,2.1-0.1,3c-0.2,0.7-0.6,1.1-1,1.2
				c-0.4,0-0.8-0.3-1-1C611.5,285,611.3,284.1,611.2,283z"/>
		</g>
	</g>
	<g>
		<g>
			<radialGradient id="SVGID_38_" cx="566.7002" cy="289.1499" r="10.3125" gradientUnits="userSpaceOnUse">
				<stop  offset="0" style="stop-color:#FFFFFF"/>
				<stop  offset="1" style="stop-color:#FFFFFF;stop-opacity:0"/>
			</radialGradient>
			<path fill-rule="evenodd" clip-rule="evenodd" fill="url(#SVGID_38_)" d="M564,279.4l0,0.1c3.2,5.6,3.4,13.9,0.6,24.8
				c0,0,0,0,0,0c-0.1,0-0.2,0.1-0.2,0.1c0,0-0.1-0.1-0.1-0.1c-0.1,0-0.1-0.1,0-0.1c2.7-10.7,2.5-18.9-0.5-24.6c0-0.1,0-0.1,0-0.1
				c0,0,0-0.1,0-0.1C563.9,279.4,564,279.4,564,279.4z"/>
		</g>
		<g>
			<g>
				
					<radialGradient id="SVGID_39_" cx="606.9004" cy="290.5498" r="44.8875" fx="608.8367" fy="290.5498" gradientTransform="matrix(1 0 0 0.8722 0 37.1379)" gradientUnits="userSpaceOnUse">
					<stop  offset="0" style="stop-color:#FFFFFF"/>
					<stop  offset="0.9882" style="stop-color:#F8F8F8;stop-opacity:0"/>
				</radialGradient>
				<polygon fill-rule="evenodd" clip-rule="evenodd" fill="url(#SVGID_39_)" points="605.8,273.3 605.7,273.3 605.5,273.4 
					605.4,273.4 605.3,273.6 605.3,273.7 605.3,273.8 590.8,254.3 590.8,254 591.6,254 				"/>
				<path fill-rule="evenodd" clip-rule="evenodd" fill="#FFFFFF" fill-opacity="0.4902" d="M606.2,274h-0.5l-0.2,0l-0.2-0.3v-0.1
					l0.1-0.3h0.1l0.2-0.1h0.1h0.1h10.2h0c0.1,0,0.2,0.1,0.2,0.1v0.6H606.2L606.2,274z"/>
				
					<radialGradient id="SVGID_40_" cx="606.9004" cy="303.3999" r="28.05" fx="608.1104" fy="303.3999" gradientUnits="userSpaceOnUse">
					<stop  offset="0" style="stop-color:#FFFFFF;stop-opacity:0.502"/>
					<stop  offset="0.9882" style="stop-color:#F8F8F8;stop-opacity:0"/>
				</radialGradient>
				<path fill-rule="evenodd" clip-rule="evenodd" fill="url(#SVGID_40_)" d="M606.2,274l2.3,25h9.7l-0.1,0.8h-9.5l-8,32.8l-0.1,0.3
					c-0.1,0.1-0.2,0.1-0.3,0l-0.3-0.1c-0.1-0.1-0.1-0.2,0-0.3l7.9-32.9v-0.1l-2.3-25.5v-0.1l0.2,0.3l0.2,0H606.2z"/>
			</g>
		</g>
	</g>
	<g>
		<g>
			
				<radialGradient id="SVGID_41_" cx="566" cy="287.9248" r="11.2414" gradientTransform="matrix(6.804826e-002 0.9977 -0.2708 1.847284e-002 605.4655 -282.082)" gradientUnits="userSpaceOnUse">
				<stop  offset="0" style="stop-color:#FFFFFF"/>
				<stop  offset="0.102" style="stop-color:#FFFFFF"/>
				<stop  offset="0.2118" style="stop-color:#FFFFFF;stop-opacity:0.5255"/>
				<stop  offset="0.3804" style="stop-color:#FFFFFF;stop-opacity:0.1451"/>
				<stop  offset="0.6471" style="stop-color:#FEFEFE;stop-opacity:0"/>
				<stop  offset="1" style="stop-color:#FDFDFD;stop-opacity:0"/>
			</radialGradient>
			<path fill-rule="evenodd" clip-rule="evenodd" fill="url(#SVGID_41_)" d="M568.8,296.5c-0.5,2.5-1.1,3.8-2,3.9
				c-0.8,0-1.6-1.1-2.3-3.5c-0.7-2.4-1.2-5.3-1.5-8.7c-0.3-3.5-0.2-6.4,0.3-8.9c0.5-2.5,1.2-3.8,2-3.8c0.8,0,1.6,1.1,2.3,3.5
				c0.7,2.4,1.2,5.3,1.4,8.8C569.3,291.1,569.2,294,568.8,296.5z"/>
		</g>
		<g>
			
				<radialGradient id="SVGID_42_" cx="598.7998" cy="292.3999" r="14.0675" gradientTransform="matrix(-2.480114e-002 0.9997 -0.271 -6.723245e-003 692.8919 -304.2498)" gradientUnits="userSpaceOnUse">
				<stop  offset="0" style="stop-color:#FFFFFF"/>
				<stop  offset="0.102" style="stop-color:#FFFFFF"/>
				<stop  offset="0.2118" style="stop-color:#FFFFFF;stop-opacity:0.5255"/>
				<stop  offset="0.3804" style="stop-color:#FFFFFF;stop-opacity:0.1451"/>
				<stop  offset="0.6471" style="stop-color:#FEFEFE;stop-opacity:0"/>
				<stop  offset="1" style="stop-color:#FDFDFD;stop-opacity:0"/>
			</radialGradient>
			<path fill-rule="evenodd" clip-rule="evenodd" fill="url(#SVGID_42_)" d="M602.5,292.5c-0.1,4.3-0.5,8-1.3,10.9
				c-0.9,3.1-1.8,4.6-2.9,4.6c-1,0-1.8-1.6-2.4-4.7c-0.7-3-1-6.6-0.9-10.9c0.1-4.3,0.5-8,1.5-11.1c0.8-3.1,1.7-4.6,2.7-4.5
				c1,0.1,1.9,1.6,2.6,4.6C602.4,284.4,602.6,288.1,602.5,292.5z"/>
		</g>
		<g>
			
				<radialGradient id="SVGID_43_" cx="652.6504" cy="289.7998" r="9.4193" gradientTransform="matrix(9.738194e-002 0.9952 -0.4048 3.960593e-002 706.3975 -371.2264)" gradientUnits="userSpaceOnUse">
				<stop  offset="0" style="stop-color:#FFFFFF"/>
				<stop  offset="0.102" style="stop-color:#FFFFFF"/>
				<stop  offset="0.2118" style="stop-color:#FFFFFF;stop-opacity:0.5255"/>
				<stop  offset="0.3804" style="stop-color:#FFFFFF;stop-opacity:0.1451"/>
				<stop  offset="0.6471" style="stop-color:#FEFEFE;stop-opacity:0"/>
				<stop  offset="1" style="stop-color:#FDFDFD;stop-opacity:0"/>
			</radialGradient>
			<path fill-rule="evenodd" clip-rule="evenodd" fill="url(#SVGID_43_)" d="M649.3,282.6c0.6-2,1.4-3,2.4-3.1
				c1.1-0.1,2,0.8,2.9,2.8c0.9,1.9,1.5,4.3,1.8,7.2c0.3,2.9,0.2,5.4-0.3,7.4c-0.6,2.1-1.4,3.2-2.4,3.3c-1,0.1-2-0.8-2.9-2.8
				c-0.9-1.9-1.5-4.3-1.8-7.1C648.6,287.4,648.8,284.8,649.3,282.6z"/>
		</g>
	</g>
</g>
<g>
	<g>
		<polygon fill-rule="evenodd" clip-rule="evenodd" fill-opacity="0.298" points="348.3,373.2 348.9,358.2 388.3,330.6 437.8,350.7 
			387.7,394.5 		"/>
	</g>
	<g>
		<g>
			<linearGradient id="SVGID_44_" gradientUnits="userSpaceOnUse" x1="414.1123" y1="369.1318" x2="356.4871" y2="327.0571">
				<stop  offset="0" style="stop-color:#0D0D0D"/>
				<stop  offset="1" style="stop-color:#58585A"/>
				<stop  offset="1" style="stop-color:#2B2B2D"/>
			</linearGradient>
			<path fill-rule="evenodd" clip-rule="evenodd" fill="url(#SVGID_44_)" d="M421.1,341.4c0,0.9-0.3,1.7-0.9,2.4l-32.3,27.3
				c-1.8,1.5-3.8,1.8-6.1,0.8L352,357c-1.1-0.5-1.9-1-2.3-1.7c0-0.1,0-0.2,0-0.3c0-0.6,0.5-1.4,1.4-2.2l34.8-22.5
				c1.5-1.2,3-1.5,4.7-0.9l29.4,10.4c0.6,0.4,1,0.9,1.2,1.4C421.1,341.3,421.1,341.3,421.1,341.4z"/>
			<linearGradient id="SVGID_45_" gradientUnits="userSpaceOnUse" x1="349.6499" y1="358.7246" x2="421.1494" y2="358.7246">
				<stop  offset="0" style="stop-color:#0D0D0D"/>
				<stop  offset="0.4314" style="stop-color:#161616"/>
				<stop  offset="0.4863" style="stop-color:#323334"/>
				<stop  offset="0.5647" style="stop-color:#1D1D1E"/>
				<stop  offset="0.9098" style="stop-color:#282829"/>
				<stop  offset="1" style="stop-color:#000000"/>
			</linearGradient>
			<path fill-rule="evenodd" clip-rule="evenodd" fill="url(#SVGID_45_)" d="M421.1,341.4c0,0.2,0,0.4,0,0.6v2.3c0.2,1-0.1,2-0.8,3
				l-32.5,27.5c-1.8,1.5-3.8,1.8-6.1,0.8l-30.6-15.3c-0.9-0.4-1.4-1.1-1.4-2v-2.8c0.4,0.7,1.2,1.2,2.3,1.7l29.8,14.8
				c2.3,1,4.4,0.8,6.1-0.8l32.3-27.3C420.8,343.1,421.1,342.3,421.1,341.4z"/>
		</g>
	</g>
	<g>
		<polygon fill-rule="evenodd" clip-rule="evenodd" points="371.5,365.3 362.9,361.3 400,332.6 407.7,335.5 		"/>
	</g>
	<g>
		<linearGradient id="SVGID_46_" gradientUnits="userSpaceOnUse" x1="346.9375" y1="358.2539" x2="424.4625" y2="358.2539">
			<stop  offset="0" style="stop-color:#FFFFFF;stop-opacity:0"/>
			<stop  offset="0.3137" style="stop-color:#FCFCFC;stop-opacity:0.2"/>
			<stop  offset="0.7059" style="stop-color:#F9F9F9;stop-opacity:0.1529"/>
			<stop  offset="1" style="stop-color:#FFFFFF;stop-opacity:0"/>
		</linearGradient>
		<path fill-rule="evenodd" clip-rule="evenodd" fill="url(#SVGID_46_)" d="M350.4,356.8c0-0.1,0-0.2,0-0.3c0-0.1,0.1-0.2,0.3-0.2
			c0,0,0.1,0,0.1,0.1c0.3,0.3,0.8,0.5,1.3,0.7L382,372c2.2,0.9,4.1,0.6,5.8-0.8l32.3-27.3v-0.1c0.1-0.2,0.2-0.3,0.4-0.4
			c0-0.1,0.1-0.1,0.3-0.1c0,0,0.1,0,0.1,0.1c0.1,0,0.2,0.1,0.2,0.2c0,0.1,0,0.1,0,0.2c-0.1,0.2-0.3,0.4-0.5,0.5h0l-32.3,27.3h0
			c-1.9,1.6-4,1.9-6.5,0.8L352,357.7h0c-0.6-0.3-1.1-0.5-1.5-0.8C350.4,356.9,350.4,356.8,350.4,356.8z"/>
	</g>
	<g>
		<g>
			<linearGradient id="SVGID_47_" gradientUnits="userSpaceOnUse" x1="395.5791" y1="256.3857" x2="375.9781" y2="331.992">
				<stop  offset="0" style="stop-color:#131315"/>
				<stop  offset="0.5176" style="stop-color:#0E0E0F"/>
				<stop  offset="0.6" style="stop-color:#28282D"/>
				<stop  offset="0.7216" style="stop-color:#222325"/>
				<stop  offset="1" style="stop-color:#252627"/>
			</linearGradient>
			<path fill-rule="evenodd" clip-rule="evenodd" fill="url(#SVGID_47_)" d="M401,254.8l5.9,1.9v0.1l-2.4,41c-0.1,1-0.3,1.9-0.5,2.8
				c-0.1,0.3-0.1,0.6-0.3,0.9c0,0.2-0.1,0.3-0.1,0.5c0,0,0,0.1-0.1,0.1c0,0.1,0,0.1,0,0.1c0,0.1,0,0.1,0,0.2
				c-0.7,1.8-1.6,3.3-2.8,4.6c-0.3,0.2-0.5,0.5-0.8,0.8l0,0l-28.6,23.8h0l-13.6-5.8v-0.2l32.9-23.6l2.3-44.4l7.9,0.3L401,254.8z"/>
			<path fill-rule="evenodd" clip-rule="evenodd" fill="#18191D" d="M371.2,364.8c0-0.1,0-0.1,0-0.1v-33h0l28.6-23.8l0,0
				c0.2-0.3,0.5-0.5,0.8-0.8c1.2-1.3,2.1-2.8,2.8-4.6c0-0.1,0-0.1,0-0.2c0,0,0-0.1,0-0.1c0.1-0.1,0.1-0.1,0.1-0.1
				c0.1-0.2,0.1-0.4,0.1-0.5c0.1-0.3,0.2-0.6,0.3-0.9c0.2-0.9,0.4-1.8,0.5-2.8l2.4-41l0.1,0l5.3-4.5l-3.4,51.6v0.1l-2,31.4
				L371.2,364.8L371.2,364.8z"/>
			<polygon fill-rule="evenodd" clip-rule="evenodd" fill="#525453" points="412.3,252.3 407,256.8 407,256.6 401,254.8 
				406.7,250.8 412.3,252.3 412.4,252.3 			"/>
			<path fill-rule="evenodd" clip-rule="evenodd" fill="#232428" d="M371.3,331.7v33c0,0,0,0.1,0,0.1l-7.3-3.5l0.4-23.8l-6.6-2.6
				l0-9L371.3,331.7z"/>
		</g>
	</g>
	<g>
		<g>
			<linearGradient id="SVGID_48_" gradientUnits="userSpaceOnUse" x1="358.0254" y1="294.3501" x2="412.4754" y2="294.3501">
				<stop  offset="0" style="stop-color:#FFFFFF;stop-opacity:0"/>
				<stop  offset="0.3765" style="stop-color:#FFFFFF;stop-opacity:0.1137"/>
				<stop  offset="0.6196" style="stop-color:#FFFFFF;stop-opacity:0.2902"/>
				<stop  offset="0.8314" style="stop-color:#FFFFFF;stop-opacity:0.1451"/>
				<stop  offset="1" style="stop-color:#FFFFFF;stop-opacity:0"/>
				<stop  offset="1" style="stop-color:#FFFFFF;stop-opacity:1.176471e-002"/>
			</linearGradient>
			<path fill-rule="evenodd" clip-rule="evenodd" fill="url(#SVGID_48_)" d="M407.1,256.6c0.4,0,0.6-0.2,0.7-0.4l-2.5,41.6
				c-0.3,4-1.6,7.2-3.9,9.4h0l-30.1,25.2v-0.7l29.8-25v0c2.2-2.1,3.4-5.1,3.7-9L407.1,256.6z"/>
		</g>
	</g>
	<g>
		<linearGradient id="SVGID_49_" gradientUnits="userSpaceOnUse" x1="357.375" y1="345.3501" x2="411.825" y2="345.3501">
			<stop  offset="0" style="stop-color:#FFFFFF;stop-opacity:0"/>
			<stop  offset="0.3765" style="stop-color:#FFFFFF;stop-opacity:0.1137"/>
			<stop  offset="0.6196" style="stop-color:#FFFFFF;stop-opacity:0.2902"/>
			<stop  offset="0.8314" style="stop-color:#FFFFFF;stop-opacity:0.1451"/>
			<stop  offset="1" style="stop-color:#FFFFFF;stop-opacity:0"/>
			<stop  offset="1" style="stop-color:#FFFFFF;stop-opacity:1.176471e-002"/>
		</linearGradient>
		<polygon fill-rule="evenodd" clip-rule="evenodd" fill="url(#SVGID_49_)" points="357.6,326.6 357.6,326 371.2,331.7 371.2,364.7 
			370.6,364.5 370.6,332.1 		"/>
	</g>
	<g>
		<g>
			<path fill-rule="evenodd" clip-rule="evenodd" fill="#FFFFFF" fill-opacity="0.498" d="M358.8,279L358.8,279l2.6,1.5l34.5-27.3
				l-3.4-0.5L358.8,279z M396.3,253.5l-34.5,27.3v0c0,0,0-0.1,0-0.1c0,0-0.1,0-0.1,0c-0.1,0-0.1,0-0.1,0v0.1c0,0-0.1,0-0.1,0v0.1
				l-2.5-1.4v45.3l2.5,1.3v0.3c0,0,0,0.1,0.1,0.1l0,0.1l-2.9-1.4l0-0.1c0,0,0-0.1,0-0.1v-45.9c0,0,0,0,0,0v-0.1l33.8-26.3
				c0-0.1,0-0.1,0-0.1c0,0,0.1,0,0.2,0l3.8,0.6h0.1c0,0,0.1,0,0.2,0.1c0,0,0,0.1,0,0.1s0,0.1,0,0.1L396.3,253.5L396.3,253.5z
				 M361.7,326.3c0,0.1-0.1,0.1-0.1,0.1h0C361.6,326.4,361.6,326.4,361.7,326.3L361.7,326.3z"/>
			<polygon fill-rule="evenodd" clip-rule="evenodd" fill="#A59AA3" fill-opacity="0.4627" points="358.8,279 392.5,252.8 
				395.9,253.3 361.5,280.5 358.8,279.1 			"/>
			<path fill-rule="evenodd" clip-rule="evenodd" fill="#FFFFFF" fill-opacity="0.3255" d="M361.3,326v-45.1v-0.1c0,0,0,0,0.1,0
				v-0.1c0,0,0.1,0,0.1,0c0,0,0.1,0,0.1,0c0,0,0,0.1,0,0.1v0v45.4c0,0,0,0.1,0,0.1h0c0,0.1-0.1,0.1-0.1,0.1h-0.1l0-0.1
				c0,0-0.1-0.1-0.1-0.1V326z"/>
			<polygon fill-rule="evenodd" clip-rule="evenodd" fill="#625860" fill-opacity="0.3255" points="361.3,280.9 361.3,326 
				358.8,324.7 358.8,279.5 			"/>
			<path fill-rule="evenodd" clip-rule="evenodd" fill="#FFFFFF" fill-opacity="0.1333" d="M361.7,326.3
				C361.7,326.3,361.7,326.2,361.7,326.3v-45.5l34.5-27.3V300L361.7,326.3L361.7,326.3z"/>
		</g>
	</g>
	<g>
		<g>
			
				<linearGradient id="SVGID_50_" gradientUnits="userSpaceOnUse" x1="182.125" y1="-358.6943" x2="221.1029" y2="-358.6943" gradientTransform="matrix(1.218639e-002 0.9999 -1.0032 -0.2557 -1.503211e-004 -1.490116e-005)">
				<stop  offset="0" style="stop-color:#FFFFFF"/>
				<stop  offset="0.6824" style="stop-color:#FFFFFF;stop-opacity:0.1098"/>
				<stop  offset="1" style="stop-color:#FFFFFF;stop-opacity:0"/>
			</linearGradient>
			<polygon fill-rule="evenodd" clip-rule="evenodd" fill="url(#SVGID_50_)" points="363,281.6 363,310.1 361.8,314 361.8,284.4 			
				"/>
			
				<linearGradient id="SVGID_51_" gradientUnits="userSpaceOnUse" x1="-40.0908" y1="-476.5723" x2="-3.2098" y2="-476.5723" gradientTransform="matrix(-0.5511 0.8344 -0.7888 -0.6203 8.677244e-004 -2.908707e-005)">
				<stop  offset="0" style="stop-color:#FFFFFF"/>
				<stop  offset="0.6824" style="stop-color:#FFFFFF;stop-opacity:0.1098"/>
				<stop  offset="1" style="stop-color:#FFFFFF;stop-opacity:0"/>
			</linearGradient>
			<path fill-rule="evenodd" clip-rule="evenodd" fill="url(#SVGID_51_)" d="M388.3,270.3v5.9l2.5-2l-0.5,13.9l-14.2,9.5v-1
				C370.1,288,374.2,279.3,388.3,270.3z"/>
		</g>
	</g>
	<g>
		<g>
			<polygon fill-rule="evenodd" clip-rule="evenodd" fill="#18191D" points="394.8,270.3 391.6,272.6 389.1,274.6 389.1,267.4 
				397.9,260.6 397.9,267.8 			"/>
			<polygon fill-rule="evenodd" clip-rule="evenodd" fill="#141318" points="393.8,287.9 394.8,270.3 397.9,267.8 397,288.1 			"/>
			<path fill-rule="evenodd" clip-rule="evenodd" fill="#161A1D" d="M388.8,293.2l0.1,12.6c-0.2,0-0.3-0.1-0.4-0.1
				c-1.4-0.6-2.3-0.9-2.7-0.9l0-12.1l0.1,0L388.8,293.2z"/>
			<polygon fill-rule="evenodd" clip-rule="evenodd" fill="#28272C" points="391,289.6 393.8,288 393.8,287.9 397,288.1 397,288.3 
				390.8,292 388.8,293.2 385.9,292.7 390.8,289.7 			"/>
			<polygon fill-rule="evenodd" clip-rule="evenodd" fill="#16171C" points="394.8,270.3 393.8,287.9 393.8,288 391,289.6 
				391.6,272.6 			"/>
			<polygon fill-rule="evenodd" clip-rule="evenodd" fill="#141416" points="397,288.3 396.3,304 364.8,328.4 364.8,324.8 
				364.7,324.8 364.8,324.7 388.3,306.2 388.9,305.9 388.8,293.2 390.8,292 			"/>
			<polygon fill-rule="evenodd" clip-rule="evenodd" fill="#34373C" points="361.1,323.4 364.7,324.8 364.8,324.8 364.8,328.4 
				361,326.6 361,323.6 			"/>
			<path fill-rule="evenodd" clip-rule="evenodd" fill="#2B2F32" d="M364.7,324.8l-3.6-1.4l24.7-18.5c0.4,0,1.3,0.3,2.7,0.9
				c0.1,0,0.2,0.1,0.4,0.1l-0.6,0.4L364.7,324.8L364.7,324.8z"/>
		</g>
	</g>
	<g>
		<g>
			
				<radialGradient id="SVGID_52_" cx="372.5" cy="315.75" r="21.8875" fx="379.71" fy="315.75" gradientTransform="matrix(1 0 0 0.9829 0 5.4098)" gradientUnits="userSpaceOnUse">
				<stop  offset="0" style="stop-color:#FFFFFF;stop-opacity:0.4235"/>
				<stop  offset="0.5059" style="stop-color:#FDFDFD;stop-opacity:0.1255"/>
				<stop  offset="1" style="stop-color:#FAFAFA;stop-opacity:0"/>
			</radialGradient>
			<path fill-rule="evenodd" clip-rule="evenodd" fill="url(#SVGID_52_)" d="M364.8,325.4l-0.1,2.9l-0.4-0.2v-3l-3.1-1.3
				c-0.1,0-0.1,0-0.2,0v-0.5c0.2,0.1,0.3,0.1,0.3,0.1l3.3,1.4h0l0,0.1L364.8,325.4z"/>
			
				<radialGradient id="SVGID_53_" cx="373.2959" cy="324.2676" r="23.7436" fx="381.1173" fy="324.2676" gradientTransform="matrix(0.9997 -2.263770e-002 0 0.906 -1.596212e-004 30.5534)" gradientUnits="userSpaceOnUse">
				<stop  offset="0" style="stop-color:#FFFFFF;stop-opacity:0.4235"/>
				<stop  offset="0.5059" style="stop-color:#FDFDFD;stop-opacity:0.1255"/>
				<stop  offset="1" style="stop-color:#FAFAFA;stop-opacity:0"/>
			</radialGradient>
			<polygon fill-rule="evenodd" clip-rule="evenodd" fill="url(#SVGID_53_)" points="364.8,325.4 364.8,324.9 364.7,324.8 
				388.9,305.8 389.2,306 			"/>
		</g>
	</g>
	<g>
		
			<radialGradient id="SVGID_54_" cx="-426.9946" cy="406.6025" r="38.3229" fx="-414.3706" fy="406.6025" gradientTransform="matrix(0.9485 -0.3167 1.0904 0.2283 345.6505 72.3771)" gradientUnits="userSpaceOnUse">
			<stop  offset="0" style="stop-color:#FFFFFF;stop-opacity:0.4235"/>
			<stop  offset="0.5059" style="stop-color:#FDFDFD;stop-opacity:0.1255"/>
			<stop  offset="1" style="stop-color:#FAFAFA;stop-opacity:0"/>
		</radialGradient>
		<path fill-rule="evenodd" clip-rule="evenodd" fill="url(#SVGID_54_)" d="M388.8,293.3h0.4v12.8c-0.1-0.1-0.3-0.3-0.4-0.4V293.3z"
			/>
	</g>
	<g>
		
			<radialGradient id="SVGID_55_" cx="420.2217" cy="255.4902" r="5.8101" fx="422.1356" fy="255.4902" gradientTransform="matrix(0.9961 8.820774e-002 -9.035915e-002 0.9014 -2.3979 23.9244)" gradientUnits="userSpaceOnUse">
			<stop  offset="0" style="stop-color:#FFFFFF;stop-opacity:0.4235"/>
			<stop  offset="0.5059" style="stop-color:#FDFDFD;stop-opacity:0.1255"/>
			<stop  offset="1" style="stop-color:#FAFAFA;stop-opacity:0"/>
		</radialGradient>
		<polygon fill-rule="evenodd" clip-rule="evenodd" fill="url(#SVGID_55_)" points="389,293.3 388.3,293.1 396.5,288 397,288.3 		
			"/>
	</g>
	<g>
		<g>
			<linearGradient id="SVGID_56_" gradientUnits="userSpaceOnUse" x1="365.1943" y1="282.939" x2="354.1472" y2="276.534">
				<stop  offset="0" style="stop-color:#252627"/>
				<stop  offset="1" style="stop-color:#3F4044"/>
			</linearGradient>
			<polygon fill-rule="evenodd" clip-rule="evenodd" fill="url(#SVGID_56_)" points="364.4,278.3 364.3,278.3 364.3,286.6 
				358.5,282.8 358.5,275 			"/>
			<polygon fill-rule="evenodd" clip-rule="evenodd" fill="#111216" points="364.4,278.3 404.1,248.1 404.1,255.8 364.5,286.8 
				364.3,286.6 364.3,278.3 			"/>
			<linearGradient id="SVGID_57_" gradientUnits="userSpaceOnUse" x1="386.373" y1="267.6357" x2="372.5733" y2="250.6606">
				<stop  offset="0" style="stop-color:#252627"/>
				<stop  offset="1" style="stop-color:#3F4044"/>
			</linearGradient>
			<polygon fill-rule="evenodd" clip-rule="evenodd" fill="url(#SVGID_57_)" points="404.1,248.1 364.4,278.3 358.5,275 
				358.5,274.9 398.4,245.5 404.1,247.9 			"/>
		</g>
	</g>
	<g>
		<radialGradient id="SVGID_58_" cx="381.2002" cy="267.1499" r="29.575" gradientUnits="userSpaceOnUse">
			<stop  offset="0" style="stop-color:#FFFFFF;stop-opacity:0.4235"/>
			<stop  offset="1" style="stop-color:#FAFAFA;stop-opacity:0"/>
		</radialGradient>
		<path fill-rule="evenodd" clip-rule="evenodd" fill="url(#SVGID_58_)" d="M364.4,278.3c0,0-0.1,0-0.1,0c-0.1,0-0.1-0.1,0-0.1V278
			c0,0,0,0,0,0l39.5-30c0,0,0,0,0.2,0l0,0.1c0,0,0,0,0,0.1c0,0,0,0,0,0L364.4,278.3C364.5,278.3,364.4,278.3,364.4,278.3z"/>
	</g>
	<g>
		<g>
			
				<radialGradient id="SVGID_59_" cx="365.1504" cy="278.5" r="13.875" gradientTransform="matrix(1 0 0 0.8405 0 44.4095)" gradientUnits="userSpaceOnUse">
				<stop  offset="0" style="stop-color:#FFFFFF;stop-opacity:0.5922"/>
				<stop  offset="0.3843" style="stop-color:#FCFCFC;stop-opacity:0.2"/>
				<stop  offset="1" style="stop-color:#FAFAFA;stop-opacity:0"/>
			</radialGradient>
			<path fill-rule="evenodd" clip-rule="evenodd" fill="url(#SVGID_59_)" d="M358.6,274.9L358.6,274.9c0.1-0.1,0.1-0.1,0.2,0
				l5.7,3.2c0,0,0,0,0,0.1l0.1,0.1v8.1c0,0,0,0.1-0.1,0.3c0,0.1-0.1,0.1-0.1,0.1c0,0-0.1,0-0.1-0.1c-0.1-0.1-0.1-0.2,0-0.3v-8
				l-5.8-3.2L358.6,274.9L358.6,274.9z"/>
		</g>
	</g>
	<g>
		<g>
			<path fill-rule="evenodd" clip-rule="evenodd" fill="#333333" d="M411.6,265.2c-0.4-0.1-0.6-0.6-0.8-1.5
				c-0.1-0.2-0.1-0.5-0.2-0.7c-0.1-0.8,0-1.7,0.2-2.8c0.2-1.2,0.5-2.3,0.8-3.2c0-0.1,0.1-0.2,0.2-0.3c0.5-0.9,0.9-1.4,1.3-1.5
				l0.4,0.1c0.3,0.2,0.6,0.6,0.8,1.4c0.2,1,0.3,2.1,0,3.4c-0.2,1.4-0.5,2.5-1,3.5c-0.5,1-0.9,1.5-1.4,1.5
				C411.7,265.2,411.7,265.2,411.6,265.2L411.6,265.2z"/>
			
				<linearGradient id="SVGID_60_" gradientUnits="userSpaceOnUse" x1="185.71" y1="-444.0522" x2="195.5425" y2="-444.0522" gradientTransform="matrix(-0.1475 0.9891 -0.987 -0.161 -2.125502e-004 2.697706e-004)">
				<stop  offset="0" style="stop-color:#404037"/>
				<stop  offset="0.3529" style="stop-color:#D8D7D1"/>
				<stop  offset="0.7922" style="stop-color:#3F3E3B"/>
				<stop  offset="1" style="stop-color:#2C2B28"/>
				<stop  offset="1" style="stop-color:#000000"/>
			</linearGradient>
			<path fill-rule="evenodd" clip-rule="evenodd" fill="url(#SVGID_60_)" d="M413,255.4c-0.4,0-0.9,0.5-1.3,1.5
				c-0.1,0.1-0.1,0.1-0.2,0.3c-0.3,0.9-0.6,2-0.8,3.2c-0.2,1-0.2,2-0.2,2.8c0,0.2,0.1,0.5,0.2,0.7c0.2,0.9,0.5,1.4,0.8,1.5l-2.8-0.6
				c-0.3-0.2-0.5-0.6-0.7-1.4c-0.2-1-0.2-2.1,0-3.4c0.2-1.4,0.5-2.5,1-3.5c0.5-0.9,1-1.4,1.5-1.4L413,255.4z"/>
		</g>
	</g>
	<g>
		<path fill-rule="evenodd" clip-rule="evenodd" d="M413.2,256.2l0.3,0c0.3,0.1,0.5,0.5,0.6,1.2c0.2,0.8,0.2,1.9,0.1,3.1
			c-0.2,1.2-0.5,2.2-0.9,3.1c-0.4,0.8-0.8,1.3-1.2,1.3c0,0-0.1,0-0.1,0c-0.3-0.1-0.6-0.5-0.8-1.3c0-0.2-0.1-0.4-0.1-0.6
			c-0.1-0.7,0-1.5,0.1-2.4c0.2-1.1,0.4-2.1,0.7-2.8c0-0.1,0.1-0.2,0.2-0.3C412.4,256.6,412.8,256.2,413.2,256.2z"/>
	</g>
	<g>
		<g>
			<path fill-rule="evenodd" clip-rule="evenodd" fill="#333333" d="M422,257.7L422,257.7l0.5,0c0.3,0.2,0.5,0.6,0.5,1.3
				c0.3,0.8,0.3,1.9,0.1,3c-0.2,1.2-0.5,2.3-0.9,3.1c-0.4,0.9-0.8,1.3-1.3,1.3c0,0-0.1,0-0.2,0c-0.1,0-0.2-0.1-0.3-0.2
				c-0.2-0.2-0.3-0.6-0.5-1.1c0-0.2-0.1-0.4-0.1-0.6c-0.1-0.7,0-1.5,0.1-2.5c0.2-1.1,0.4-2.1,0.7-2.9c0,0,0.1-0.1,0.2-0.1
				C421.3,258.2,421.6,257.8,422,257.7c0.1,0,0.2,0,0.3,0L422,257.7z"/>
			
				<linearGradient id="SVGID_61_" gradientUnits="userSpaceOnUse" x1="177.1826" y1="-454.0117" x2="185.9286" y2="-454.0117" gradientTransform="matrix(-0.1658 0.9862 -0.9836 -0.181 -3.991127e-004 -2.071261e-005)">
				<stop  offset="0" style="stop-color:#000000"/>
				<stop  offset="0.2118" style="stop-color:#171718"/>
				<stop  offset="0.4627" style="stop-color:#38393D"/>
				<stop  offset="0.7882" style="stop-color:#1D1D1E"/>
				<stop  offset="1" style="stop-color:#090909"/>
			</linearGradient>
			<path fill-rule="evenodd" clip-rule="evenodd" fill="url(#SVGID_61_)" d="M420.8,266.5l-8.8-1.7c-0.3-0.2-0.5-0.6-0.7-1.3
				c-0.2-0.8-0.2-1.9,0-3.1c0.2-1.2,0.5-2.2,0.9-3c0.4-0.9,0.8-1.4,1.3-1.4l8.6,1.7l0.3,0c-0.1,0-0.2,0-0.3,0
				c-0.4,0.1-0.7,0.5-1,1.3c-0.1,0.1-0.1,0.1-0.2,0.1c-0.3,0.8-0.5,1.8-0.7,2.9c-0.2,0.9-0.2,1.8-0.1,2.5c0.1,0.2,0.1,0.5,0.1,0.6
				c0.1,0.5,0.3,0.9,0.5,1.1C420.7,266.4,420.8,266.4,420.8,266.5z"/>
		</g>
	</g>
	<g>
		<g>
			<linearGradient id="SVGID_62_" gradientUnits="userSpaceOnUse" x1="429.8672" y1="258.8325" x2="427.6048" y2="269.0154">
				<stop  offset="0" style="stop-color:#2F3137"/>
				<stop  offset="1" style="stop-color:#000000"/>
			</linearGradient>
			<path fill-rule="evenodd" clip-rule="evenodd" fill="url(#SVGID_62_)" d="M427.8,268.6c-0.1,0-0.2-0.1-0.3-0.2
				c-0.2-0.2-0.4-0.7-0.5-1.3c-0.1-0.2-0.1-0.5-0.1-0.8c-0.1-0.8-0.1-1.8,0.1-2.9c0.2-1.3,0.5-2.4,0.9-3.4c0,0,0.1-0.1,0.1-0.2
				c0.5-0.9,0.9-1.4,1.3-1.6c0.2,0.1,0.3,0.1,0.4,0.1l-0.3-0.1h0l0.4,0.1c0.3,0.2,0.6,0.6,0.8,1.5c0.3,1,0.3,2.2,0.1,3.6
				c-0.2,1.4-0.6,2.6-1.1,3.6c-0.5,1-1,1.5-1.4,1.5h-0.1c-0.1,0-0.1,0-0.1,0S427.9,268.6,427.8,268.6z"/>
			<linearGradient id="SVGID_63_" gradientUnits="userSpaceOnUse" x1="424.6367" y1="257.4751" x2="422.8814" y2="267.6449">
				<stop  offset="0" style="stop-color:#000000"/>
				<stop  offset="0.2118" style="stop-color:#171718"/>
				<stop  offset="0.4627" style="stop-color:#38393D"/>
				<stop  offset="0.7882" style="stop-color:#1D1D1E"/>
				<stop  offset="1" style="stop-color:#090909"/>
			</linearGradient>
			<path fill-rule="evenodd" clip-rule="evenodd" fill="url(#SVGID_63_)" d="M427.8,268.6l-8.3-1.6c-0.3-0.2-0.6-0.7-0.8-1.5
				c-0.1-1-0.1-2.2,0-3.6c0.3-1.4,0.6-2.6,1.1-3.5c0.5-1,0.9-1.5,1.4-1.6l8.2,1.5l0.3,0.1c-0.1,0-0.2,0-0.4-0.1
				c-0.4,0.1-0.8,0.7-1.3,1.6c0,0.1-0.1,0.2-0.1,0.2c-0.4,1-0.7,2.1-0.9,3.4c-0.2,1.1-0.3,2.1-0.1,2.9c0,0.3,0.1,0.5,0.1,0.8
				c0.1,0.6,0.3,1.1,0.5,1.3C427.6,268.5,427.7,268.6,427.8,268.6z"/>
		</g>
	</g>
	<g>
		<g>
			<linearGradient id="SVGID_64_" gradientUnits="userSpaceOnUse" x1="377.5215" y1="331.3022" x2="374.2289" y2="338.635">
				<stop  offset="0" style="stop-color:#7E7D70"/>
				<stop  offset="1" style="stop-color:#3A3934"/>
				<stop  offset="1" style="stop-color:#43423D"/>
			</linearGradient>
			<path fill-rule="evenodd" clip-rule="evenodd" fill="url(#SVGID_64_)" d="M377.3,331.3c0.4,0.1,0.8,0.3,1,0.8
				c0.2,0.3,0.3,0.7,0.3,1.1c-1.1-0.5-1.9-0.2-2.6,0.9c-0.9,1.4-1,2.7-0.5,4l1,0.3v0.1c-0.4,0.4-0.8,0.6-1.2,0.6c0,0-0.1,0-0.1,0
				c-0.3,0-0.5-0.1-0.6-0.2c-0.2-0.2-0.4-0.4-0.5-0.8c0-0.1-0.1-0.1-0.1-0.3c-0.3-0.7-0.3-1.6-0.1-2.6c0.3-1.1,0.8-2,1.4-2.7
				c0.4-0.5,0.9-0.8,1.3-1c0.2-0.1,0.4-0.2,0.7-0.2C377.3,331.3,377.3,331.3,377.3,331.3z"/>
			<linearGradient id="SVGID_65_" gradientUnits="userSpaceOnUse" x1="375.4629" y1="330.6592" x2="372.9833" y2="338.5249">
				<stop  offset="0" style="stop-color:#404037"/>
				<stop  offset="0.3529" style="stop-color:#D8D7D1"/>
				<stop  offset="0.7922" style="stop-color:#3F3E3B"/>
				<stop  offset="1" style="stop-color:#2C2B28"/>
				<stop  offset="1" style="stop-color:#000000"/>
			</linearGradient>
			<path fill-rule="evenodd" clip-rule="evenodd" fill="url(#SVGID_65_)" d="M374.5,338.8l-2.2-1c-0.6-1.3-0.5-2.7,0.2-4.4
				c0.7-1.7,1.7-2.5,2.8-2.5l2,0.4c0,0-0.1,0-0.1,0c-0.2,0-0.5,0.1-0.7,0.2c-0.5,0.2-0.9,0.5-1.3,1c-0.6,0.7-1.1,1.6-1.4,2.7
				c-0.2,1.1-0.2,2,0.1,2.6c0,0.1,0.1,0.2,0.1,0.3C374.1,338.4,374.3,338.6,374.5,338.8z"/>
		</g>
	</g>
	<g>
		<path fill-rule="evenodd" clip-rule="evenodd" fill="#040404" d="M374.9,337.4c-0.2-0.5-0.2-1.2,0-2c0.2-0.8,0.6-1.5,1.1-2.1
			c0.5-0.5,0.9-0.7,1.4-0.7c0.5,0,0.8,0.3,1,0.8c0.2,0.6,0.2,1.3,0,2.1c-0.2,0.8-0.6,1.5-1.1,2c-0.5,0.6-1,0.9-1.5,0.8
			C375.4,338.3,375.1,338,374.9,337.4z"/>
	</g>
	<g>
		<g>
			<linearGradient id="SVGID_66_" gradientUnits="userSpaceOnUse" x1="388.8242" y1="348.3081" x2="393.7749" y2="336.4084">
				<stop  offset="0" style="stop-color:#000000"/>
				<stop  offset="0.2118" style="stop-color:#171718"/>
				<stop  offset="0.4627" style="stop-color:#38393D"/>
				<stop  offset="0.7882" style="stop-color:#1D1D1E"/>
				<stop  offset="1" style="stop-color:#090909"/>
			</linearGradient>
			<path fill-rule="evenodd" clip-rule="evenodd" fill="url(#SVGID_66_)" d="M386.8,336.5c0,0,0-0.1,0-0.1c1.2-1.3,2.4-1.9,3.5-1.9
				c0.5,0,0.9,0.1,1.3,0.3l8.7,4c-0.3-0.1-0.6-0.2-0.9-0.2c-1.2,0-2.4,0.6-3.5,1.9c-1.1,1.3-1.9,2.8-2.4,4.6c-0.5,1.8-0.5,3.4,0,4.6
				c0.3,0.6,0.6,1.1,1.1,1.5l-8.4-3.8c-0.8-0.2-1.4-0.9-1.8-1.9c-0.4-1.1-0.5-2.4-0.2-3.9c0-0.2,0.1-0.5,0.2-0.7
				C384.9,339.2,385.7,337.7,386.8,336.5z"/>
			<linearGradient id="SVGID_67_" gradientUnits="userSpaceOnUse" x1="381.6689" y1="334.3467" x2="379.3971" y2="339.798">
				<stop  offset="0" style="stop-color:#3E372D"/>
				<stop  offset="0.1569" style="stop-color:#7E7451"/>
				<stop  offset="0.3137" style="stop-color:#ECE0BA"/>
				<stop  offset="0.3647" style="stop-color:#EEE2BC"/>
				<stop  offset="0.4706" style="stop-color:#C5BB99"/>
				<stop  offset="0.7373" style="stop-color:#615D42"/>
				<stop  offset="1" style="stop-color:#42423A"/>
			</linearGradient>
			<path fill-rule="evenodd" clip-rule="evenodd" fill="url(#SVGID_67_)" d="M384.3,341.7l-7.9-3.4v-0.1l-1-0.3
				c-0.6-1.3-0.4-2.6,0.5-4c0.8-1.2,1.8-1.4,3-0.7c0.1,0,0.2,0.1,0.4,0.3l7.5,2.9c-1.1,1.2-1.8,2.8-2.3,4.5
				C384.4,341.2,384.3,341.5,384.3,341.7z"/>
			<linearGradient id="SVGID_68_" gradientUnits="userSpaceOnUse" x1="395.335" y1="339.7637" x2="400.1197" y2="350.5344">
				<stop  offset="0" style="stop-color:#2F3137"/>
				<stop  offset="1" style="stop-color:#000000"/>
			</linearGradient>
			<path fill-rule="evenodd" clip-rule="evenodd" fill="url(#SVGID_68_)" d="M400.3,338.8L400.3,338.8c0.2,0.1,0.3,0.1,0.4,0.2
				c0.5,0.3,0.9,0.8,1.2,1.5c0.5,1.3,0.6,2.8,0.1,4.6c-0.5,1.8-1.3,3.4-2.4,4.6c-1.2,1.3-2.3,1.9-3.5,1.9c-0.6,0-1-0.2-1.4-0.5
				c-0.5-0.3-0.8-0.8-1.1-1.5c-0.5-1.3-0.5-2.8,0-4.6c0.4-1.8,1.2-3.4,2.4-4.6c1.1-1.3,2.3-1.9,3.5-1.9
				C399.7,338.6,400,338.7,400.3,338.8z"/>
		</g>
	</g>
	<g>
		<path fill-rule="evenodd" clip-rule="evenodd" fill="#FFFFFF" fill-opacity="0.1529" d="M385,340.8c-0.1,0-0.1-0.1-0.1-0.1
			c0-0.1,0-0.1,0-0.1c0,0,0,0,0.1,0c0,0,0.1,0,0.1,0l7.8,3.5c0,0,0.1,0,0.1,0.1c0,0,0,0.1,0,0.1c-0.1,0-0.1,0.1-0.1,0.1
			c0,0-0.1,0-0.1,0L385,340.8z M386.2,338.4c0,0,0.1,0,0.1,0l7.8,3.5c0,0,0.1,0,0.1,0.1c0,0,0,0.1,0,0.1c0,0-0.1,0.1-0.1,0.2
			c0,0-0.1,0-0.1,0l-7.8-3.6c0,0-0.1-0.1-0.1-0.1C386.1,338.5,386.1,338.5,386.2,338.4C386.1,338.4,386.1,338.4,386.2,338.4z
			 M389.6,335.1c0.1-0.1,0.1-0.1,0.2,0l7.8,3.5c0,0,0.1,0,0.1,0c0,0,0,0.1,0,0.1c0,0-0.1,0.1-0.1,0.1c0,0-0.1,0-0.1,0l-7.9-3.5
			c0-0.1,0-0.1,0-0.1C389.5,335.2,389.5,335.2,389.6,335.1C389.5,335.1,389.6,335.1,389.6,335.1z M387.5,336.5c0,0,0.1,0,0.1,0
			l7.8,3.5c0,0,0.1,0,0.1,0.1c0,0,0,0.1,0,0.1c-0.1,0-0.1,0.1-0.1,0.1c0,0-0.1,0-0.1,0l-7.8-3.6c-0.1,0-0.1-0.1-0.1-0.1
			C387.4,336.7,387.4,336.6,387.5,336.5C387.5,336.5,387.5,336.5,387.5,336.5z M384.7,345.4c0,0,0-0.1,0-0.1c0,0,0-0.1,0.1-0.1
			c0,0,0.1,0,0.1,0l7.8,3.6c0,0,0.1,0,0.1,0c0,0,0,0.1,0,0.1c-0.1,0-0.1,0.1-0.1,0.1c0,0-0.1,0-0.1,0l-7.8-3.5
			C384.7,345.4,384.7,345.4,384.7,345.4z M384.6,343.1c0-0.1,0-0.1,0-0.1c0,0,0,0,0.1,0c0.1,0,0.1,0,0.1,0l7.8,3.5
			c0,0,0.1,0,0.1,0.1c0,0,0,0.1,0,0.1c0,0-0.1,0.1-0.1,0.1c0,0-0.1,0-0.1,0l-7.8-3.5C384.6,343.2,384.6,343.2,384.6,343.1z"/>
	</g>
	<g>
		<path fill-rule="evenodd" clip-rule="evenodd" fill-opacity="0.251" d="M384.8,344.9c0,0,0.1,0,0.1,0l7.8,3.5c0,0,0.1,0,0.1,0.1
			c0,0,0,0.1,0,0.1c0,0-0.1,0.1-0.1,0.2c-0.1,0-0.1,0-0.1,0l-7.8-3.6c0,0,0-0.1,0-0.1C384.8,345,384.8,345,384.8,344.9
			C384.8,344.9,384.8,344.9,384.8,344.9z M384.8,342.7C384.8,342.7,384.8,342.6,384.8,342.7c0.1-0.1,0.1-0.1,0.2-0.1l7.8,3.5
			c0.1,0,0.1,0,0.1,0.1c0,0,0,0.1,0,0.1c0,0-0.1,0.1-0.1,0.1c0,0-0.1,0-0.1,0l-7.8-3.5c0,0,0-0.1,0-0.1
			C384.7,342.8,384.7,342.7,384.8,342.7z M385.2,340.1C385.2,340.1,385.2,340.1,385.2,340.1l7.9,3.5c0,0,0.1,0,0.1,0.1
			c0,0,0,0.1,0,0.1c0,0-0.1,0.1-0.1,0.1c-0.1,0-0.1,0-0.1,0l-7.8-3.5c0,0-0.1-0.1-0.1-0.1C385.1,340.3,385.1,340.2,385.2,340.1
			C385.1,340.2,385.1,340.1,385.2,340.1z M386.2,338.3c0,0,0-0.1,0-0.1c0,0,0-0.1,0.1-0.1c0,0,0.1,0,0.1,0l7.8,3.6c0,0,0.1,0,0.1,0
			c0,0,0,0.1,0,0.1c-0.1,0-0.1,0.1-0.1,0.1c0,0-0.1,0-0.1,0l-7.8-3.5C386.2,338.3,386.2,338.3,386.2,338.3z M389.7,335
			c-0.1,0-0.1-0.1,0-0.1c0,0,0-0.1,0-0.1c0-0.1,0.1-0.1,0.1,0l7.8,3.5c0.1,0,0.1,0,0.1,0.1c0,0,0,0.1,0,0.1c0,0-0.1,0.1-0.1,0.1
			c0,0-0.1,0-0.1,0l-7.8-3.5C389.7,335,389.7,335,389.7,335z M387.7,336.2C387.7,336.2,387.7,336.2,387.7,336.2l7.9,3.5
			c0,0,0.1,0,0.1,0c0,0,0,0.1,0,0.1c0,0-0.1,0.1-0.1,0.1c-0.1,0-0.1,0-0.1,0l-7.8-3.5c0,0-0.1-0.1-0.1-0.1
			C387.6,336.4,387.6,336.3,387.7,336.2C387.6,336.2,387.6,336.2,387.7,336.2z"/>
	</g>
	<g>
		
			<radialGradient id="SVGID_69_" cx="403.5" cy="303.1001" r="5.9068" gradientTransform="matrix(0.4796 -0.8775 0.3706 0.2026 97.6354 595.7609)" gradientUnits="userSpaceOnUse">
			<stop  offset="0" style="stop-color:#FFFFFF"/>
			<stop  offset="0.102" style="stop-color:#FFFFFF"/>
			<stop  offset="0.2118" style="stop-color:#FFFFFF;stop-opacity:0.5255"/>
			<stop  offset="0.3804" style="stop-color:#FFFFFF;stop-opacity:0.1451"/>
			<stop  offset="0.6471" style="stop-color:#FEFEFE;stop-opacity:0"/>
			<stop  offset="1" style="stop-color:#FDFDFD;stop-opacity:0"/>
		</radialGradient>
		<path fill-rule="evenodd" clip-rule="evenodd" fill="url(#SVGID_69_)" d="M399.8,306.4c0.2-1.3,0.7-2.8,1.6-4.4
			c0.8-1.6,1.8-2.8,2.9-3.7c1-0.9,1.8-1.2,2.4-0.9c0.6,0.3,0.8,1.2,0.6,2.5c-0.2,1.4-0.7,2.9-1.5,4.4c-0.9,1.6-1.8,2.8-2.9,3.7
			c-1,0.9-1.8,1.2-2.4,0.9C399.8,308.6,399.6,307.7,399.8,306.4z"/>
	</g>
	<g>
		
			<radialGradient id="SVGID_70_" cx="374.0996" cy="334" r="2.9868" gradientTransform="matrix(0.4753 -0.8798 0.3888 0.21 66.4312 592.9865)" gradientUnits="userSpaceOnUse">
			<stop  offset="0" style="stop-color:#FFFFFF"/>
			<stop  offset="0.102" style="stop-color:#FFFFFF"/>
			<stop  offset="0.2118" style="stop-color:#FFFFFF;stop-opacity:0.5255"/>
			<stop  offset="0.3804" style="stop-color:#FFFFFF;stop-opacity:0.1451"/>
			<stop  offset="0.6471" style="stop-color:#FEFEFE;stop-opacity:0"/>
			<stop  offset="1" style="stop-color:#FDFDFD;stop-opacity:0"/>
		</radialGradient>
		<path fill-rule="evenodd" clip-rule="evenodd" fill="url(#SVGID_70_)" d="M372.2,335.6c0.1-0.7,0.4-1.4,0.8-2.2
			c0.4-0.8,0.9-1.5,1.4-1.9c0.6-0.4,1-0.6,1.3-0.4c0.3,0.1,0.3,0.6,0.3,1.3c-0.1,0.7-0.3,1.4-0.8,2.2c-0.4,0.8-0.9,1.4-1.5,1.9
			c-0.5,0.4-0.9,0.6-1.3,0.5C372.2,336.8,372.1,336.3,372.2,335.6z"/>
	</g>
	<g>
		
			<radialGradient id="SVGID_71_" cx="384.8496" cy="372.3496" r="5.788" gradientTransform="matrix(0.9976 -6.923188e-002 3.972355e-002 0.5724 -13.8676 185.8611)" gradientUnits="userSpaceOnUse">
			<stop  offset="0" style="stop-color:#FFFFFF"/>
			<stop  offset="0.102" style="stop-color:#FFFFFF"/>
			<stop  offset="0.2118" style="stop-color:#FFFFFF;stop-opacity:0.5255"/>
			<stop  offset="0.3804" style="stop-color:#FFFFFF;stop-opacity:0.1451"/>
			<stop  offset="0.6471" style="stop-color:#FEFEFE;stop-opacity:0"/>
			<stop  offset="1" style="stop-color:#FDFDFD;stop-opacity:0"/>
		</radialGradient>
		<path fill-rule="evenodd" clip-rule="evenodd" fill="url(#SVGID_71_)" d="M380.2,370.3c1.2-0.7,2.7-1,4.4-1.1
			c1.8-0.1,3.3,0.1,4.6,0.6c1.3,0.6,2,1.3,2,2.2c0.1,0.9-0.5,1.6-1.7,2.3c-1.2,0.7-2.7,1.2-4.5,1.3c-1.8,0.1-3.3-0.1-4.6-0.6
			c-1.3-0.5-2-1.3-2-2.2C378.4,371.9,379,371.1,380.2,370.3z"/>
	</g>
	<g>
		
			<radialGradient id="SVGID_72_" cx="513.0781" cy="174.9878" r="17.0078" gradientTransform="matrix(0.9059 0.4236 -4.110890e-002 6.900423e-002 -82.8149 139.0108)" gradientUnits="userSpaceOnUse">
			<stop  offset="0" style="stop-color:#FFFFFF"/>
			<stop  offset="0.102" style="stop-color:#FFFFFF"/>
			<stop  offset="0.2118" style="stop-color:#FFFFFF;stop-opacity:0.5255"/>
			<stop  offset="0.3804" style="stop-color:#FFFFFF;stop-opacity:0.1451"/>
			<stop  offset="0.6471" style="stop-color:#FEFEFE;stop-opacity:0"/>
			<stop  offset="1" style="stop-color:#FDFDFD;stop-opacity:0"/>
		</radialGradient>
		<path fill-rule="evenodd" clip-rule="evenodd" fill="url(#SVGID_72_)" d="M363.2,361.9c3.5,1.4,7.6,3.2,12.3,5.4
			c4.7,2.2,8.6,4.2,11.8,5.9c3.3,1.8,4.8,2.9,4.6,3.2c-0.2,0.3-2.1-0.2-5.6-1.6c-3.4-1.3-7.5-3-12.3-5.3s-8.7-4.2-11.9-6
			c-3.2-1.8-4.8-2.8-4.5-3.1C357.8,360.1,359.7,360.6,363.2,361.9z"/>
	</g>
	<g>
		
			<radialGradient id="SVGID_73_" cx="394.5498" cy="342.5498" r="5.8061" gradientTransform="matrix(0.4781 -0.8783 0.3876 0.2109 73.1768 616.8379)" gradientUnits="userSpaceOnUse">
			<stop  offset="0" style="stop-color:#FFFFFF"/>
			<stop  offset="0.102" style="stop-color:#FFFFFF"/>
			<stop  offset="0.2118" style="stop-color:#FFFFFF;stop-opacity:0.5255"/>
			<stop  offset="0.3804" style="stop-color:#FFFFFF;stop-opacity:0.1451"/>
			<stop  offset="0.6471" style="stop-color:#FEFEFE;stop-opacity:0"/>
			<stop  offset="1" style="stop-color:#FDFDFD;stop-opacity:0"/>
		</radialGradient>
		<path fill-rule="evenodd" clip-rule="evenodd" fill="url(#SVGID_73_)" d="M398.3,339.4c-0.1,1.4-0.6,2.8-1.5,4.4
			c-0.9,1.5-1.8,2.7-2.9,3.6c-1,0.9-1.9,1.2-2.5,0.9c-0.6-0.3-0.8-1.2-0.7-2.5c0.2-1.4,0.7-2.8,1.5-4.4c0.8-1.6,1.8-2.8,2.8-3.6
			c1.1-0.9,1.9-1.2,2.5-0.9C398.3,337.2,398.5,338,398.3,339.4z"/>
	</g>
	<g>
		
			<radialGradient id="SVGID_74_" cx="152.4458" cy="493.874" r="3.389" gradientTransform="matrix(0.3688 -0.9295 0.3356 0.3652 205.3523 223.4053)" gradientUnits="userSpaceOnUse">
			<stop  offset="0" style="stop-color:#FFFFFF"/>
			<stop  offset="0.102" style="stop-color:#FFFFFF"/>
			<stop  offset="0.2118" style="stop-color:#FFFFFF;stop-opacity:0.5255"/>
			<stop  offset="0.3804" style="stop-color:#FFFFFF;stop-opacity:0.1451"/>
			<stop  offset="0.6471" style="stop-color:#FEFEFE;stop-opacity:0"/>
			<stop  offset="1" style="stop-color:#FDFDFD;stop-opacity:0"/>
		</radialGradient>
		<path fill-rule="evenodd" clip-rule="evenodd" fill="url(#SVGID_74_)" d="M426,265.5c-0.3-0.3-0.4-0.9-0.4-1.9
			c0.1-0.9,0.3-1.9,0.7-2.8c0.4-1,0.8-1.7,1.3-2.1c0.5-0.4,0.9-0.4,1.2-0.2c0.4,0.4,0.5,1,0.4,2c0,0.9-0.3,1.8-0.7,2.8
			c-0.4,0.9-0.9,1.7-1.3,2.2C426.7,265.9,426.3,265.9,426,265.5z"/>
	</g>
	<g>
		
			<radialGradient id="SVGID_75_" cx="384.2539" cy="313.6748" r="24.1495" gradientTransform="matrix(0.7837 -0.6211 5.328586e-002 6.723568e-002 66.3924 531.2508)" gradientUnits="userSpaceOnUse">
			<stop  offset="0" style="stop-color:#FFFFFF"/>
			<stop  offset="0.102" style="stop-color:#FFFFFF"/>
			<stop  offset="0.2118" style="stop-color:#FFFFFF;stop-opacity:0.5255"/>
			<stop  offset="0.3804" style="stop-color:#FFFFFF;stop-opacity:0.1451"/>
			<stop  offset="0.6471" style="stop-color:#FEFEFE;stop-opacity:0"/>
			<stop  offset="1" style="stop-color:#FDFDFD;stop-opacity:0"/>
		</radialGradient>
		<path fill-rule="evenodd" clip-rule="evenodd" fill="url(#SVGID_75_)" d="M398.2,300.8c4.4-2.9,6.7-4.2,7.1-3.8
			c0.4,0.4-1.4,2.4-5.3,6c-3.8,3.5-8.7,7.6-14.5,12.2c-5.8,4.6-10.9,8.4-15.3,11.3c-4.3,2.9-6.6,4.2-7,3.8c-0.3-0.4,1.4-2.4,5.2-5.9
			c3.9-3.5,8.8-7.6,14.5-12.3C388.8,307.5,393.8,303.7,398.2,300.8z"/>
	</g>
	<g>
		
			<radialGradient id="SVGID_76_" cx="364.2002" cy="278.1499" r="4.2229" gradientTransform="matrix(0.8787 -0.4773 0.3812 0.7019 -61.8768 256.7681)" gradientUnits="userSpaceOnUse">
			<stop  offset="0" style="stop-color:#FFFFFF"/>
			<stop  offset="0.102" style="stop-color:#FFFFFF"/>
			<stop  offset="0.2118" style="stop-color:#FFFFFF;stop-opacity:0.5255"/>
			<stop  offset="0.3804" style="stop-color:#FFFFFF;stop-opacity:0.1451"/>
			<stop  offset="0.6471" style="stop-color:#FEFEFE;stop-opacity:0"/>
			<stop  offset="1" style="stop-color:#FDFDFD;stop-opacity:0"/>
		</radialGradient>
		<path fill-rule="evenodd" clip-rule="evenodd" fill="url(#SVGID_76_)" d="M362.7,275.3c1.2-0.6,2.3-0.9,3.3-0.8
			c1.1,0.1,1.9,0.6,2.3,1.4c0.4,0.8,0.4,1.7-0.1,2.8c-0.5,1-1.3,1.8-2.5,2.4c-1.1,0.6-2.3,0.9-3.4,0.8c-1.1-0.1-1.8-0.5-2.3-1.4
			c-0.4-0.8-0.4-1.7,0.1-2.8C360.7,276.7,361.5,275.9,362.7,275.3z"/>
	</g>
</g>
</svg>
