<?xml version="1.0" encoding="utf-8"?>
<!-- Generator: Adobe Illustrator 16.0.0, SVG Export Plug-In . SVG Version: 6.00 Build 0)  -->
<!DOCTYPE svg PUBLIC "-//W3C//DTD SVG 1.1//EN" "http://www.w3.org/Graphics/SVG/1.1/DTD/svg11.dtd">
<svg version="1.1" id="Layer_1" xmlns="http://www.w3.org/2000/svg" xmlns:xlink="http://www.w3.org/1999/xlink" x="0px" y="0px"
	 width="700px" height="700px" viewBox="0 0 700 700" enable-background="new 0 0 700 700" xml:space="preserve">
<g>
	<g>
		<g>
			
				<linearGradient id="SVGID_1_" gradientUnits="userSpaceOnUse" x1="-235.2725" y1="357.6895" x2="-221.0224" y2="357.6895" gradientTransform="matrix(3.505679e-003 -1 1 3.505679e-003 2.809940e-005 -3.631455e-004)">
				<stop  offset="0" style="stop-color:#000000"/>
				<stop  offset="0.2078" style="stop-color:#000000"/>
				<stop  offset="0.3961" style="stop-color:#1B1B1B"/>
				<stop  offset="0.6" style="stop-color:#222222"/>
				<stop  offset="0.7725" style="stop-color:#666666"/>
				<stop  offset="0.8863" style="stop-color:#323232"/>
				<stop  offset="1" style="stop-color:#000000"/>
			</linearGradient>
			<path fill-rule="evenodd" clip-rule="evenodd" fill="url(#SVGID_1_)" d="M359.8,222.5c-0.2,0.2-0.4,0.9-0.5,1.9
				c-0.2,1-0.3,2.1-0.4,3.4v0c0,0.5,0,1,0,1.6c0,0.6,0,1.2,0,1.8h0c0,1.2,0.1,2.3,0.3,3.3c0.2,1.4,0.4,2.1,0.6,2.1h-5.1
				c-0.2-0.1-0.4-0.8-0.6-2c-0.1-1-0.2-2.1-0.3-3.4v0c0-0.6,0-1.2,0-1.8c0-0.6,0-1.1,0.1-1.5c0.1-1.3,0.2-2.5,0.3-3.5
				c0.1-0.7,0.3-1.2,0.5-1.6c0.1-0.2,0.3-0.3,0.5-0.3h4.7C359.9,222.4,359.9,222.5,359.8,222.5z"/>
		</g>
		<g>
			
				<linearGradient id="SVGID_2_" gradientUnits="userSpaceOnUse" x1="215.1255" y1="-249.5361" x2="256.324" y2="-249.5361" gradientTransform="matrix(0.3623 0.9321 -1.073 -3.405298e-004 3.758669e-004 3.301515e-005)">
				<stop  offset="0" style="stop-color:#0D0D0D"/>
				<stop  offset="0.4941" style="stop-color:#070707;stop-opacity:0.3725"/>
				<stop  offset="1" style="stop-color:#000000;stop-opacity:0.5765"/>
			</linearGradient>
			<path fill-rule="evenodd" clip-rule="evenodd" fill="url(#SVGID_2_)" d="M359,231.7C359,231.7,359,231.8,359,231.7l-5,0.1
				c0,0,0-0.1,0-0.1H359z M358.9,230.3c0,0,0,0.1,0,0.2h-5c0-0.1,0-0.1,0-0.2H358.9z M359.3,224.6c0,0.1,0,0.1,0,0.2h-5
				c0-0.1,0-0.1,0-0.2H359.3z M359.1,226c0,0,0,0.1,0,0.1h-5c0-0.1,0.1-0.1,0.1-0.1H359.1z M359,227.5c0,0,0,0.1,0,0.2h-5
				c0-0.1,0-0.2,0-0.2H359z M359.5,223.2c0,0,0,0.1,0,0.2h-5c0-0.1,0-0.2,0-0.2H359.5z M359.3,234.8h-5c0-0.1,0-0.2,0-0.2h5
				C359.2,234.6,359.2,234.7,359.3,234.8z M359,228.9c0,0,0,0.1,0,0.2h-5V229c0,0,0-0.1,0-0.1H359z M359,233.1c0,0.1,0,0.1,0,0.3h-5
				c0-0.1,0-0.2-0.1-0.3H359z M354.5,236.2c0-0.1,0-0.1,0-0.2h5c0,0,0,0.1,0,0.1v0.1H354.5z"/>
		</g>
		<g>
			<path fill-rule="evenodd" clip-rule="evenodd" fill="#FFFFFF" fill-opacity="8.627451e-002" d="M359.5,236.4h-5c0,0,0,0,0,0
				L359.5,236.4L359.5,236.4z M359,233.5L359,233.5l-5,0.1v-0.1H359z M359,232L359,232l-5,0v0H359z M358.9,229.3L358.9,229.3l-5,0v0
				H358.9z M359.3,234.9L359.3,234.9l-5,0.1l0-0.1H359.3z M358.9,230.6L358.9,230.6l-5,0v0H358.9z M359.3,224.9L359.3,224.9l-5,0.1
				v-0.1H359.3z M359.1,226.3L359.1,226.3l-5,0v0H359.1z M359,227.8L359,227.8l-5,0.1v-0.1H359z M359.5,223.5L359.5,223.5l-5,0v0
				H359.5z"/>
		</g>
		<g>
			<path fill-rule="evenodd" clip-rule="evenodd" d="M360.3,222.5c0,0,0.1,0.1,0.1,0.1c0.2,0.4,0.3,1,0.4,1.9
				c0.1,0.2,0.1,0.5,0.1,0.8c0.1,1.2,0.2,2.6,0.1,4.2c0,1.5-0.1,2.9-0.3,4.1c0,0.3,0,0.6,0,0.9c-0.2,0.9-0.4,1.5-0.5,1.8
				c0,0.1-0.1,0.1-0.2,0.2h-0.2c-0.3,0-0.5-0.7-0.6-2.1c-0.2-1-0.3-2.1-0.3-3.3h0c0-0.6,0-1.2,0-1.8c0-0.6,0-1.1,0-1.6v0
				c0.1-1.3,0.2-2.4,0.4-3.4c0.1-1,0.3-1.7,0.5-1.9c0,0,0.1-0.1,0.1-0.2h0.1C360.1,222.3,360.3,222.3,360.3,222.5z"/>
		</g>
		<g>
			<g>
				
					<linearGradient id="SVGID_3_" gradientUnits="userSpaceOnUse" x1="228.6924" y1="-326.147" x2="234.4201" y2="-326.147" gradientTransform="matrix(0.1353 0.9908 -1.0093 -2.242916e-004 -2.320707e-004 -1.365995e-004)">
					<stop  offset="0" style="stop-color:#080808"/>
					<stop  offset="0.1608" style="stop-color:#070707"/>
					<stop  offset="0.3529" style="stop-color:#666666"/>
					<stop  offset="0.5843" style="stop-color:#040404"/>
					<stop  offset="1" style="stop-color:#000000"/>
				</linearGradient>
				<path fill-rule="evenodd" clip-rule="evenodd" fill="url(#SVGID_3_)" d="M361,232.5h-1c0-0.2-0.1-0.5-0.1-0.9
					c0-0.2-0.1-0.4-0.1-0.7c0-0.2,0-0.4,0-0.6c0-0.3,0-0.6,0-0.8v-0.2c0-0.2,0-0.3,0-0.5c0-0.3,0-0.5,0-0.8c0-0.3,0.1-0.5,0.1-0.8
					c0.1-0.5,0.1-0.7,0.3-0.8h0.8c-0.1,0.1-0.1,0.3-0.2,0.8c0,0.2,0,0.5,0,0.8c0,0.2,0,0.5,0,0.7c0,0.1,0,0.3,0,0.4v0.3
					c0,0.3,0,0.5,0,0.8c0,0.3,0,0.5,0,0.7c0,0.2,0,0.5,0,0.7C360.9,232,360.9,232.4,361,232.5z"/>
				<path fill-rule="evenodd" clip-rule="evenodd" d="M361,226.5c0.1,0,0.2,0,0.3,0.1c0,0.2,0.1,0.6,0.1,1.4c0,0.7,0,1.6,0,2.6
					c0,1-0.1,1.5-0.1,1.6c0,0.1,0,0.1,0,0.2v0.1H361c-0.1-0.1-0.1-0.4-0.2-0.9c0-0.2,0-0.5,0-0.7c0-0.2,0-0.4,0-0.7
					c0-0.3,0-0.5,0-0.8v-0.3c0-0.1,0-0.3,0-0.4c0-0.2,0-0.5,0-0.7c0-0.3,0-0.5,0-0.8C360.9,226.8,360.9,226.5,361,226.5z"/>
			</g>
		</g>
		<g>
			
				<linearGradient id="SVGID_4_" gradientUnits="userSpaceOnUse" x1="232.9927" y1="-313.3584" x2="235.4932" y2="-313.3584" gradientTransform="matrix(0.2 0.9798 -1.0207 -2.815640e-004 4.251301e-004 2.095278e-004)">
				<stop  offset="0" style="stop-color:#878B8C"/>
				<stop  offset="7.058824e-002" style="stop-color:#9AA2AD"/>
				<stop  offset="0.1765" style="stop-color:#FFFFFF"/>
				<stop  offset="0.298" style="stop-color:#828692"/>
				<stop  offset="0.3686" style="stop-color:#797BCE"/>
				<stop  offset="0.5216" style="stop-color:#282E57"/>
				<stop  offset="0.5961" style="stop-color:#7E808C"/>
				<stop  offset="0.6627" style="stop-color:#6A6D77"/>
				<stop  offset="0.7686" style="stop-color:#242528"/>
				<stop  offset="0.8667" style="stop-color:#585B64"/>
				<stop  offset="0.9804" style="stop-color:#383745"/>
			</linearGradient>
			<path fill-rule="evenodd" clip-rule="evenodd" fill="url(#SVGID_4_)" d="M372.3,228.4v2.5H361c-0.1-1-0.1-1.8,0-2.5H372.3z"/>
		</g>
		<g>
			<g>
				<path fill-rule="evenodd" clip-rule="evenodd" fill-opacity="0.4314" d="M369.7,228.6c-0.2,0.3-0.3,0.7-0.3,1.1
					c0,0.4,0,0.7,0.1,1v0l0,0.1h0v-0.1c-0.1-0.3-0.2-0.7-0.2-1c0-0.5,0.1-0.9,0.3-1.3v0h0.2c0,0,0-0.1,0-0.1h0c0,0,0,0.1,0,0.1
					C369.8,228.5,369.7,228.5,369.7,228.6z M370.6,228.4C370.6,228.4,370.6,228.5,370.6,228.4c0,0.1,0,0.1-0.1,0.3
					c-0.2,0.3-0.3,0.7-0.3,1.1c0,0.4,0,0.7,0.1,1v0l0,0.1h0v-0.1c-0.2-0.3-0.3-0.7-0.3-1c0.1-0.5,0.2-0.9,0.3-1.3l0.1,0
					C370.4,228.4,370.4,228.4,370.6,228.4L370.6,228.4z M364.6,228.6c-0.2,0.3-0.3,0.7-0.3,1.1c-0.1,0.4,0,0.7,0.2,1v0l-0.1,0.1h0
					v-0.1c-0.1-0.3-0.2-0.7-0.2-1c0-0.5,0.2-0.9,0.4-1.3l0,0c0,0,0-0.1,0.1-0.1h0.1c0,0,0,0.1,0,0.1
					C364.7,228.5,364.6,228.5,364.6,228.6z M365.4,228.4L365.4,228.4C365.5,228.4,365.5,228.5,365.4,228.4c0,0.1,0,0.1,0,0.3
					c-0.2,0.3-0.3,0.7-0.3,1.1c0,0.4,0,0.7,0.2,1v0l-0.1,0.1h-0.1v-0.1c-0.1-0.3-0.1-0.7-0.1-1c0-0.5,0.1-0.9,0.3-1.3v0
					C365.3,228.4,365.3,228.4,365.4,228.4z M366.3,228.5c0,0,0,0.1-0.1,0.2c-0.2,0.3-0.3,0.7-0.3,1.1c0,0.4,0,0.7,0.2,1v0l-0.1,0.1
					h0v-0.1c-0.2-0.3-0.3-0.7-0.3-1c0.1-0.5,0.2-0.9,0.4-1.3l0,0C366.2,228.4,366.2,228.4,366.3,228.5L366.3,228.5
					C366.4,228.4,366.4,228.5,366.3,228.5z M367,228.5L367,228.5c0.1-0.1,0.1-0.1,0.2-0.1l0,0.1c0,0-0.1,0.1-0.1,0.2
					c-0.2,0.3-0.3,0.7-0.3,1.1c0,0.4,0,0.7,0.1,1v0l0,0.1l-0.1-0.1c-0.2-0.3-0.2-0.7-0.2-1C366.7,229.3,366.8,228.8,367,228.5
					L367,228.5z M367.9,228.5L367.9,228.5C367.9,228.4,368,228.4,367.9,228.5l0.1-0.1v0.1c0,0,0,0.1-0.1,0.2
					c-0.2,0.3-0.3,0.7-0.4,1.1c0,0.4,0.1,0.7,0.2,1c0,0,0,0,0,0v0.1h-0.1c0,0,0-0.1-0.1-0.1c-0.1-0.3-0.1-0.7-0.1-1
					C367.5,229.3,367.6,228.8,367.9,228.5L367.9,228.5z M368.8,228.5c0,0,0,0.1,0,0.2c-0.2,0.3-0.3,0.7-0.3,1.1c0,0.4,0,0.7,0.1,1
					c0.1,0,0.1,0,0,0v0.1h0c0,0,0-0.1,0-0.1c-0.1-0.3-0.1-0.7-0.1-1c0-0.5,0.1-0.9,0.3-1.3L368.8,228.5L368.8,228.5
					C368.8,228.4,368.8,228.4,368.8,228.5L368.8,228.5L368.8,228.5z M362,228.4C362,228.4,362,228.4,362,228.4h0.2v0.1
					c0,0,0,0.1-0.1,0.2c-0.2,0.3-0.3,0.7-0.3,1.1c0,0.4,0,0.7,0.1,1c0,0,0,0,0,0v0.1h-0.1c0,0,0-0.1,0-0.1c-0.1-0.3-0.1-0.7-0.1-1
					c0-0.5,0.1-0.9,0.3-1.3L362,228.4L362,228.4z M363,228.5c0,0,0,0.1-0.1,0.2c-0.2,0.3-0.3,0.7-0.3,1.1c0,0.4,0.1,0.7,0.2,1v0.1
					h-0.1l-0.1-0.1c-0.1-0.3-0.1-0.7-0.1-1c0-0.5,0.1-0.9,0.3-1.3l0,0v-0.1c0,0,0.1,0,0.1,0L363,228.5L363,228.5z M363.8,228.4
					L363.8,228.4c0,0.1,0,0.1,0,0.3c-0.2,0.3-0.3,0.7-0.3,1.1c-0.1,0.4,0,0.7,0.1,1v0l0,0.1h0v-0.1c-0.2-0.3-0.3-0.7-0.3-1
					c0-0.5,0.2-0.9,0.3-1.3L363.8,228.4L363.8,228.4C363.7,228.4,363.8,228.4,363.8,228.4L363.8,228.4z"/>
			</g>
		</g>
		<g>
			
				<linearGradient id="SVGID_5_" gradientUnits="userSpaceOnUse" x1="227.7778" y1="-334.3184" x2="230.1717" y2="-334.3184" gradientTransform="matrix(0.1253 0.9921 -1.0089 -7.418259e-003 3.600121e-005 -1.492323e-004)">
				<stop  offset="0" style="stop-color:#FCFCFC;stop-opacity:0"/>
				<stop  offset="0.302" style="stop-color:#FFFFFF;stop-opacity:0.6235"/>
				<stop  offset="0.5216" style="stop-color:#FCFCFC;stop-opacity:0.2706"/>
				<stop  offset="1" style="stop-color:#F9F9F9;stop-opacity:0"/>
			</linearGradient>
			<path fill-rule="evenodd" clip-rule="evenodd" fill="url(#SVGID_5_)" d="M370.3,228.5L370.3,228.5
				C370.4,228.4,370.4,228.4,370.3,228.5c0.1,0,0,0.1,0,0.2c-0.2,0.3-0.3,0.7-0.3,1.1c0,0.4,0.1,0.7,0.2,1c0,0,0,0,0,0h-0.1
				c-0.1-0.3-0.1-0.7-0.1-1C370,229.3,370.1,228.8,370.3,228.5L370.3,228.5z M365.3,228.4L365.3,228.4L365.3,228.4
				c0,0.1,0,0.1,0,0.3c-0.2,0.3-0.3,0.7-0.3,1.1c0,0.4,0,0.7,0.1,1c0,0,0,0,0,0h0c-0.1-0.3-0.2-0.7-0.2-1c0.1-0.5,0.2-0.9,0.4-1.3
				L365.3,228.4L365.3,228.4z M366.2,228.6c-0.2,0.3-0.3,0.7-0.4,1.1c0,0.4,0.1,0.7,0.2,1c0,0,0,0,0,0h0c-0.1-0.3-0.2-0.7-0.2-1
				c0-0.5,0.1-0.9,0.3-1.3l0.1,0v-0.1c0,0,0,0,0,0.1C366.2,228.5,366.2,228.5,366.2,228.6z M367,228.5c0,0,0,0.1,0,0.2
				c-0.2,0.3-0.3,0.7-0.4,1.1c0,0.4,0.1,0.7,0.3,1v0h-0.1c-0.1-0.3-0.2-0.7-0.2-1C366.6,229.3,366.7,228.8,367,228.5L367,228.5
				L367,228.5L367,228.5L367,228.5z M367.8,228.6c-0.2,0.3-0.3,0.7-0.3,1.1c0,0.4,0,0.7,0.1,1v0h0c-0.1-0.3-0.1-0.7-0.1-1
				c0-0.5,0.1-0.9,0.3-1.3l0,0v-0.1l0.1,0.1C367.9,228.5,367.8,228.5,367.8,228.6z M369.5,228.5L369.5,228.5c0.1-0.1,0.2,0,0.2,0
				c0,0-0.1,0.1-0.2,0.2c-0.2,0.3-0.3,0.7-0.3,1.1c0,0.4,0,0.7,0.1,1c0,0,0,0,0,0h0c-0.1-0.3-0.1-0.7-0.1-1
				C369.2,229.3,369.3,228.8,369.5,228.5L369.5,228.5z M368.7,228.5L368.7,228.5L368.7,228.5c0,0,0,0.1,0,0.2
				c-0.2,0.3-0.3,0.7-0.3,1.1c0,0.4,0,0.7,0.1,1v0h0c-0.1-0.3-0.2-0.7-0.2-1c0.1-0.5,0.2-0.9,0.3-1.3L368.7,228.5z M362,228.5
				c0,0,0,0.1,0,0.2c-0.2,0.3-0.3,0.7-0.3,1.1c0,0.4,0,0.7,0.1,1v0h0c-0.1-0.3-0.2-0.7-0.2-1c0-0.5,0.1-0.9,0.4-1.3L362,228.5
				L362,228.5L362,228.5z M362.8,228.5C362.8,228.5,362.8,228.4,362.8,228.5L362.8,228.5c0.1,0,0,0.1,0,0.2
				c-0.2,0.3-0.3,0.7-0.3,1.1c0,0.4,0,0.7,0.1,1v0h0c-0.1-0.3-0.2-0.7-0.2-1C362.3,229.3,362.5,228.8,362.8,228.5L362.8,228.5z
				 M363.6,228.5L363.6,228.5h0.1c-0.1,0-0.1,0.1-0.1,0.2c-0.2,0.3-0.3,0.7-0.3,1.1c0,0.4,0,0.7,0.2,1c0.1,0,0.1,0,0,0h-0.1
				c-0.1-0.3-0.1-0.7-0.1-1C363.2,229.3,363.3,228.8,363.6,228.5L363.6,228.5z M364.5,228.5L364.5,228.5
				C364.5,228.4,364.5,228.4,364.5,228.5c0,0,0,0.1,0,0.2c-0.2,0.3-0.4,0.7-0.4,1.1c0,0.4,0,0.7,0.1,1c0.1,0,0.1,0,0,0h0
				c-0.1-0.3-0.1-0.7-0.1-1c0-0.5,0.1-0.9,0.3-1.3L364.5,228.5z"/>
		</g>
	</g>
	<g>
		<path fill-rule="evenodd" clip-rule="evenodd" fill-opacity="0.2941" d="M405.3,263.1l1.9,11c0.1,2.8-2,4.3-6.5,4.3H348
			c-4.4,0-6.6-1.4-6.4-4.3l1.7-11c0.1-2.7,2.3-4,6.5-4h16v-1.9h-3.5c0,0.4-0.1,0.7-0.2,1c-0.1,0.3-0.1,0.5-0.1,0.6h-3.8
			c-0.1-0.1-0.2-0.3-0.3-0.6c-0.1-0.5-0.1-1-0.1-1.7c0-0.6,0.1-1.1,0.2-1.5c0.1-0.3,0.2-0.5,0.3-0.6h3.8c0,0.1,0,0.3,0,0.6
			c0.1,0.3,0.2,0.6,0.2,1h3.5v-1.8c-0.2,0-0.5-0.1-0.8-0.1c-2.7-0.7-4.1-1.4-4-2.3c0-0.9,1.4-1.6,4.1-2.4c1.2-0.2,2.6-0.4,4-0.5
			v-0.1c1.4-0.1,3-0.1,4.5-0.1c0.7,0,1.3,0,2,0c1.4,0,2.8,0.1,4,0.3c1.2,0.1,2.4,0.2,3.4,0.5c2.7,0.7,4.1,1.5,4.1,2.4
			c0.1,0.8-1.3,1.6-4,2.3c-0.4,0.1-0.8,0.1-1.3,0.3l0,4.8h17C403,259.1,405.2,260.5,405.3,263.1z"/>
	</g>
	<g>
		<g>
			<linearGradient id="SVGID_6_" gradientUnits="userSpaceOnUse" x1="372.0498" y1="223.0879" x2="375.4498" y2="223.0879">
				<stop  offset="7.843138e-003" style="stop-color:#51545D"/>
				<stop  offset="0.3765" style="stop-color:#2E323B"/>
				<stop  offset="1" style="stop-color:#3B3F49"/>
			</linearGradient>
			<path fill-rule="evenodd" clip-rule="evenodd" fill="url(#SVGID_6_)" d="M376.2,225.8c-1.2,0.9-2.8,1-4.8,0.1l0.9-6.3
				c0.5,0,1.1,0,1.6,0c0.4,0,0.8,0,1.2,0L376.2,225.8z"/>
			<path fill-rule="evenodd" clip-rule="evenodd" fill="#1B1C20" d="M382.3,216.8c-0.1,0.7-0.9,1.4-2.5,2c-1,0.4-2.2,0.6-3.6,0.8
				c-0.4,0.1-0.8,0.1-1.3,0.1c-0.4,0-0.8,0-1.2,0c-0.5,0-1.1,0-1.6,0c-0.3-0.1-0.5-0.1-0.8-0.1c-1.4-0.1-2.6-0.4-3.6-0.8
				c-1.4-0.5-2.2-1.1-2.4-1.8c0-0.1,0-0.2,0-0.4l0.2-0.6c0.3-0.6,1-1.1,2.3-1.5c1.6-0.6,3.6-0.9,6-0.9c2.4,0,4.4,0.3,6,0.9
				c1.3,0.5,2.1,1.1,2.4,1.8c0.1,0.1,0.1,0.3,0.1,0.4V216.8z"/>
			<linearGradient id="SVGID_7_" gradientUnits="userSpaceOnUse" x1="371.4951" y1="221.8242" x2="362.9702" y2="220.2986">
				<stop  offset="0" style="stop-color:#51545D"/>
				<stop  offset="0.5686" style="stop-color:#000000"/>
				<stop  offset="1" style="stop-color:#000000"/>
			</linearGradient>
			<path fill-rule="evenodd" clip-rule="evenodd" fill="url(#SVGID_7_)" d="M372.2,219.6l-0.9,6.3c-2.8-0.3-5.4-1.3-7.8-2.8v-0.4
				l0.2-0.3l1.7-5.9c0,0.2,0,0.3,0,0.4c0.2,0.6,1,1.2,2.4,1.8c1,0.4,2.2,0.6,3.6,0.8C371.7,219.5,371.9,219.5,372.2,219.6z"/>
			<linearGradient id="SVGID_8_" gradientUnits="userSpaceOnUse" x1="376.3047" y1="221.8677" x2="384.0777" y2="220.2829">
				<stop  offset="0" style="stop-color:#3B3F49"/>
				<stop  offset="0.2549" style="stop-color:#575B65"/>
				<stop  offset="0.5686" style="stop-color:#131418"/>
				<stop  offset="1" style="stop-color:#000000"/>
			</linearGradient>
			<path fill-rule="evenodd" clip-rule="evenodd" fill="url(#SVGID_8_)" d="M384.2,223.1c-2.8,1.3-5.5,2.2-8,2.7l-1.2-6.1
				c0.4,0,0.8,0,1.3-0.1c1.4-0.1,2.6-0.4,3.6-0.8c1.6-0.6,2.4-1.3,2.5-2l1.8,5.8c0,0,0,0.1,0,0.2C384.1,222.9,384.2,223,384.2,223.1
				L384.2,223.1z"/>
			<linearGradient id="SVGID_9_" gradientUnits="userSpaceOnUse" x1="363.5" y1="238.5752" x2="384.1006" y2="238.5752">
				<stop  offset="0" style="stop-color:#060608"/>
				<stop  offset="0.1412" style="stop-color:#0F1012"/>
				<stop  offset="0.2863" style="stop-color:#303136"/>
				<stop  offset="0.502" style="stop-color:#0D0D0F"/>
				<stop  offset="0.7529" style="stop-color:#131416"/>
				<stop  offset="1" style="stop-color:#000000"/>
			</linearGradient>
			<path fill-rule="evenodd" clip-rule="evenodd" fill="url(#SVGID_9_)" d="M371.3,225.9c2,0.9,3.6,0.8,4.8-0.1
				c2.5-0.5,5.2-1.4,8-2.7v27.4c-0.1,0.9-1.1,1.7-3,2.4c-2,0.7-4.5,1.1-7.4,1.1c-2.9,0-5.3-0.4-7.3-1.1c-1.7-0.6-2.7-1.2-3-2v-27.9
				C366,224.6,368.6,225.6,371.3,225.9z"/>
		</g>
	</g>
	<g>
		<g>
			<linearGradient id="SVGID_10_" gradientUnits="userSpaceOnUse" x1="343.5874" y1="158.3501" x2="404.8877" y2="158.3501">
				<stop  offset="0" style="stop-color:#A3ABB1"/>
				<stop  offset="0.4863" style="stop-color:#FFFFFF"/>
				<stop  offset="0.9882" style="stop-color:#A3ABB1"/>
			</linearGradient>
			<path fill-rule="evenodd" clip-rule="evenodd" fill="url(#SVGID_10_)" d="M343.6,161v-0.4c0-0.1,0-0.2,0-0.2v-0.5
				c0-2.8,1.4-4.1,4.1-4.1h53.1c2.7,0,4.1,1.4,4.1,4.1v0.5c0,0,0,0.1,0,0.2v0.4c-0.1-2.5-1.4-3.8-4.1-3.8h-53.1
				C345.1,157.1,343.7,158.4,343.6,161z"/>
			<path fill-rule="evenodd" clip-rule="evenodd" d="M405,161v51.4c0,2.8-1.4,4.1-4.1,4.1h-53.1c-2.7,0-4.1-1.4-4.1-4.1V161
				c0.1-2.5,1.4-3.8,4.1-3.8h53.1C403.5,157.1,404.9,158.4,405,161z"/>
		</g>
	</g>
	<g>
		<g>
			<g>
				<linearGradient id="SVGID_11_" gradientUnits="userSpaceOnUse" x1="349.3501" y1="214.6499" x2="399.1504" y2="214.6499">
					<stop  offset="0" style="stop-color:#101115"/>
					<stop  offset="0.4902" style="stop-color:#1D1E22"/>
					<stop  offset="1" style="stop-color:#13161B"/>
				</linearGradient>
				<path fill-rule="evenodd" clip-rule="evenodd" fill="url(#SVGID_11_)" d="M399.1,209.8L399.1,209.8l0.1,9.7h-49.8v-9.7h49.5
					H399.1z M390.7,214.7c0,0.2,0,0.3,0,0.4c0,1,0.3,1.9,1,2.6c0.7,0.7,1.5,1,2.5,1s1.8-0.3,2.5-1c0.7-0.7,1-1.6,1-2.6
					c0-0.1,0-0.3,0-0.4c0-0.2,0-0.4,0-0.6c0-1-0.3-1.8-1-2.5c-0.7-0.7-1.5-1-2.5-1s-1.8,0.3-2.5,1c-0.7,0.7-1,1.5-1,2.5
					C390.7,214.4,390.7,214.5,390.7,214.7z M373.5,214.1c-0.1,0.1-0.1,0.2-0.1,0.4c0,0.3,0.1,0.6,0.3,0.7c0.2,0.2,0.5,0.4,0.8,0.4
					s0.5-0.1,0.8-0.4c0.2-0.1,0.3-0.4,0.3-0.7c0-0.2,0-0.3,0-0.4c-0.1-0.2-0.2-0.4-0.3-0.5c-0.2-0.2-0.5-0.4-0.8-0.4
					s-0.5,0.1-0.8,0.3C373.5,213.7,373.5,213.9,373.5,214.1z M352.3,215c-0.1,0.1-0.1,0.3-0.1,0.5c0,1,0.3,1.8,1,2.5
					c0.7,0.7,1.5,1,2.5,1s1.8-0.4,2.5-1c0.7-0.7,1-1.5,1-2.5c0-0.2,0-0.4,0-0.5c0-0.2,0-0.4,0-0.5c0-1-0.3-1.9-1-2.6
					c-0.7-0.7-1.5-1-2.5-1s-1.8,0.4-2.5,1c-0.7,0.7-1,1.6-1,2.6C352.2,214.6,352.2,214.8,352.3,215z"/>
				<linearGradient id="SVGID_12_" gradientUnits="userSpaceOnUse" x1="399.085" y1="208.7822" x2="349.3464" y2="209.5249">
					<stop  offset="0" style="stop-color:#000000"/>
					<stop  offset="1" style="stop-color:#343841"/>
				</linearGradient>
				<polygon fill-rule="evenodd" clip-rule="evenodd" fill="url(#SVGID_12_)" points="398.8,209.8 349.4,209.8 349.8,208.5 
					398.8,208.5 399.1,209.8 				"/>
				<linearGradient id="SVGID_13_" gradientUnits="userSpaceOnUse" x1="393.5371" y1="211.7744" x2="394.9394" y2="218.874">
					<stop  offset="0" style="stop-color:#4A4E57"/>
					<stop  offset="1" style="stop-color:#2C2E32"/>
				</linearGradient>
				<path fill-rule="evenodd" clip-rule="evenodd" fill="url(#SVGID_13_)" d="M397.8,214.7c0,0.2,0,0.3,0,0.4c0,1-0.3,1.9-1,2.6
					c-0.7,0.7-1.5,1-2.5,1s-1.8-0.3-2.5-1c-0.7-0.7-1-1.6-1-2.6c0-0.1,0-0.3,0-0.4c0.1-0.8,0.4-1.5,1-2.1c0.7-0.7,1.5-1,2.5-1
					s1.8,0.3,2.5,1C397.2,213.2,397.6,213.9,397.8,214.7z"/>
				<linearGradient id="SVGID_14_" gradientUnits="userSpaceOnUse" x1="390.5996" y1="212.6748" x2="397.6992" y2="212.6748">
					<stop  offset="0" style="stop-color:#040404"/>
					<stop  offset="0.4863" style="stop-color:#515862"/>
					<stop  offset="0.9882" style="stop-color:#000000"/>
				</linearGradient>
				<path fill-rule="evenodd" clip-rule="evenodd" fill="url(#SVGID_14_)" d="M397.8,214.7c-0.2-0.8-0.5-1.5-1-2.1
					c-0.7-0.7-1.5-1-2.5-1s-1.8,0.3-2.5,1c-0.6,0.6-0.9,1.3-1,2.1c0-0.2,0-0.4,0-0.6c0-1,0.3-1.8,1-2.5c0.7-0.7,1.5-1,2.5-1
					s1.8,0.3,2.5,1c0.7,0.7,1,1.5,1,2.5C397.8,214.4,397.8,214.5,397.8,214.7z"/>
				<path fill-rule="evenodd" clip-rule="evenodd" d="M375.5,214.1c-0.1,0.1-0.2,0.2-0.3,0.4c-0.2,0.2-0.5,0.3-0.8,0.3
					s-0.6-0.1-0.8-0.3c-0.1-0.1-0.2-0.3-0.2-0.4c0-0.2,0.1-0.4,0.3-0.5c0.2-0.2,0.5-0.3,0.8-0.3s0.5,0.1,0.8,0.4
					C375.3,213.8,375.4,213.9,375.5,214.1z"/>
				<linearGradient id="SVGID_15_" gradientUnits="userSpaceOnUse" x1="373.3623" y1="214.7998" x2="375.5373" y2="214.7998">
					<stop  offset="0" style="stop-color:#040404"/>
					<stop  offset="0.4863" style="stop-color:#CCD0D5"/>
					<stop  offset="0.9882" style="stop-color:#000000"/>
				</linearGradient>
				<path fill-rule="evenodd" clip-rule="evenodd" fill="url(#SVGID_15_)" d="M373.5,214.1c0,0.1,0.1,0.2,0.2,0.4
					c0.2,0.2,0.5,0.3,0.8,0.3s0.5-0.1,0.8-0.3c0.1-0.1,0.2-0.3,0.3-0.4c0,0.1,0,0.2,0,0.4c0,0.3-0.1,0.6-0.3,0.7
					c-0.2,0.2-0.5,0.4-0.8,0.4s-0.6-0.1-0.8-0.4c-0.2-0.1-0.3-0.4-0.3-0.7C373.3,214.3,373.4,214.2,373.5,214.1z"/>
				<linearGradient id="SVGID_16_" gradientUnits="userSpaceOnUse" x1="354.9277" y1="209.8052" x2="356.4846" y2="221.0077">
					<stop  offset="0" style="stop-color:#4A4E57"/>
					<stop  offset="1" style="stop-color:#2C2E32"/>
				</linearGradient>
				<path fill-rule="evenodd" clip-rule="evenodd" fill="url(#SVGID_16_)" d="M359.3,215c0,0.1,0,0.3,0,0.5c0,1-0.3,1.8-1,2.5
					c-0.7,0.7-1.5,1-2.5,1s-1.8-0.4-2.5-1c-0.7-0.7-1-1.5-1-2.5c0-0.2,0-0.4,0.1-0.5c0.1-0.8,0.4-1.5,1-2c0.7-0.7,1.5-1.1,2.5-1.1
					s1.8,0.4,2.5,1.1C358.8,213.5,359.1,214.2,359.3,215z"/>
				<linearGradient id="SVGID_17_" gradientUnits="userSpaceOnUse" x1="352.1504" y1="212.9248" x2="359.25" y2="212.9248">
					<stop  offset="0" style="stop-color:#040404"/>
					<stop  offset="0.4863" style="stop-color:#515862"/>
					<stop  offset="0.9882" style="stop-color:#000000"/>
				</linearGradient>
				<path fill-rule="evenodd" clip-rule="evenodd" fill="url(#SVGID_17_)" d="M359.3,215c-0.1-0.8-0.5-1.5-1-2
					c-0.7-0.7-1.5-1.1-2.5-1.1s-1.8,0.4-2.5,1.1c-0.6,0.5-0.9,1.2-1,2c-0.1-0.2-0.1-0.4-0.1-0.5c0-1,0.3-1.9,1-2.6
					c0.7-0.7,1.5-1,2.5-1s1.8,0.4,2.5,1c0.7,0.7,1,1.6,1,2.6C359.3,214.6,359.3,214.8,359.3,215z"/>
				<line fill-rule="evenodd" clip-rule="evenodd" fill="none" x1="349.4" y1="209.8" x2="398.8" y2="209.8"/>
			</g>
		</g>
		<g>
			<radialGradient id="SVGID_18_" cx="373.7998" cy="224.25" r="7.975" gradientUnits="userSpaceOnUse">
				<stop  offset="0" style="stop-color:#FFFFFF;stop-opacity:0.6314"/>
				<stop  offset="0.4275" style="stop-color:#FCFCFC;stop-opacity:0.2706"/>
				<stop  offset="1" style="stop-color:#F7F7F7;stop-opacity:0"/>
			</radialGradient>
			<path fill-rule="evenodd" clip-rule="evenodd" fill="url(#SVGID_18_)" d="M383,223.4c0.1-0.1,0.2-0.1,0.3,0
				c0.1,0,0.2,0.1,0.3,0.1c0,0.1,0,0.2,0,0.3s-0.1,0.2-0.3,0.2c-7.2,2.7-13.2,2.9-18.1,0.4c-0.1,0-0.1-0.1-0.2-0.2s0-0.2,0-0.3
				c0-0.1,0.1-0.2,0.2-0.3c0.1,0,0.2,0,0.4,0C370.3,226.1,376.2,226,383,223.4z"/>
		</g>
		<g>
			
				<radialGradient id="SVGID_19_" cx="394.4004" cy="212" r="4.7251" gradientTransform="matrix(1 -5.675781e-003 2.477534e-003 0.4365 -0.5189 121.6999)" gradientUnits="userSpaceOnUse">
				<stop  offset="0" style="stop-color:#FFFFFF"/>
				<stop  offset="0.102" style="stop-color:#FFFFFF"/>
				<stop  offset="0.2118" style="stop-color:#FFFFFF;stop-opacity:0.5255"/>
				<stop  offset="0.3804" style="stop-color:#FFFFFF;stop-opacity:0.1451"/>
				<stop  offset="0.6471" style="stop-color:#FEFEFE;stop-opacity:0"/>
				<stop  offset="1" style="stop-color:#FDFDFD;stop-opacity:0"/>
			</radialGradient>
			<path fill-rule="evenodd" clip-rule="evenodd" fill="url(#SVGID_19_)" d="M394.4,210c1.4,0,2.6,0.2,3.6,0.5
				c1.1,0.4,1.6,0.9,1.6,1.5c0,0.5-0.5,1-1.6,1.5c-1,0.4-2.2,0.6-3.6,0.6c-1.5,0-2.7-0.2-3.7-0.6c-1-0.4-1.5-0.9-1.5-1.5
				c0-0.6,0.5-1.1,1.5-1.5C391.7,210.2,392.9,210,394.4,210z"/>
		</g>
		<g>
			
				<radialGradient id="SVGID_20_" cx="355.5508" cy="212.25" r="3.9242" gradientTransform="matrix(1 -5.268776e-003 2.282068e-003 0.4331 -0.4794 122.1926)" gradientUnits="userSpaceOnUse">
				<stop  offset="0" style="stop-color:#FFFFFF"/>
				<stop  offset="0.102" style="stop-color:#FFFFFF"/>
				<stop  offset="0.2118" style="stop-color:#FFFFFF;stop-opacity:0.5255"/>
				<stop  offset="0.3804" style="stop-color:#FFFFFF;stop-opacity:0.1451"/>
				<stop  offset="0.6471" style="stop-color:#FEFEFE;stop-opacity:0"/>
				<stop  offset="1" style="stop-color:#FDFDFD;stop-opacity:0"/>
			</radialGradient>
			<path fill-rule="evenodd" clip-rule="evenodd" fill="url(#SVGID_20_)" d="M355.5,210.6c1.2,0,2.2,0.1,3,0.4
				c0.9,0.4,1.3,0.8,1.3,1.3c0,0.5-0.4,0.9-1.3,1.2c-0.8,0.3-1.8,0.4-3,0.4c-1.2,0-2.3-0.1-3.1-0.4c-0.8-0.3-1.3-0.7-1.3-1.2
				c0-0.4,0.4-0.9,1.3-1.3C353.3,210.8,354.3,210.6,355.5,210.6z"/>
		</g>
		<g>
			
				<radialGradient id="SVGID_21_" cx="369.4004" cy="225.2998" r="7.5088" gradientTransform="matrix(0.9926 0.1216 -5.301509e-002 0.4327 14.6866 82.8942)" gradientUnits="userSpaceOnUse">
				<stop  offset="0" style="stop-color:#FFFFFF"/>
				<stop  offset="0.102" style="stop-color:#FFFFFF"/>
				<stop  offset="0.2118" style="stop-color:#FFFFFF;stop-opacity:0.5255"/>
				<stop  offset="0.3804" style="stop-color:#FFFFFF;stop-opacity:0.1451"/>
				<stop  offset="0.6471" style="stop-color:#FEFEFE;stop-opacity:0"/>
				<stop  offset="1" style="stop-color:#FDFDFD;stop-opacity:0"/>
			</radialGradient>
			<path fill-rule="evenodd" clip-rule="evenodd" fill="url(#SVGID_21_)" d="M375.5,223.8c1.5,0.8,2.3,1.7,2.2,2.5
				c-0.1,0.8-1,1.5-2.7,1.9c-1.7,0.4-3.7,0.5-6,0.2s-4.2-0.8-5.8-1.6c-1.5-0.8-2.2-1.6-2-2.5c0.1-0.8,0.9-1.5,2.6-2
				c1.7-0.4,3.7-0.4,6-0.1C372.1,222.4,374,223,375.5,223.8z"/>
		</g>
	</g>
</g>
</svg>
