<?xml version="1.0" encoding="utf-8"?>
<!-- Generator: Adobe Illustrator 16.0.0, SVG Export Plug-In . SVG Version: 6.00 Build 0)  -->
<!DOCTYPE svg PUBLIC "-//W3C//DTD SVG 1.1//EN" "http://www.w3.org/Graphics/SVG/1.1/DTD/svg11.dtd">
<svg version="1.1" id="Layer_1" xmlns="http://www.w3.org/2000/svg" xmlns:xlink="http://www.w3.org/1999/xlink" x="0px" y="0px"
	 width="13px" height="90px" viewBox="0 0 13 90" enable-background="new 0 0 13 90" xml:space="preserve">
<g>
	<g>
		<polygon fill-rule="evenodd" clip-rule="evenodd" points="2,68 4.6,67.7 11.1,81.7 11,89 8,89.3 8.2,81.7 		"/>
	</g>
	<g>
		<g>
			<polygon fill-rule="evenodd" clip-rule="evenodd" fill="#333333" fill-opacity="0.298" points="8.3,81.6 8.3,18.2 11,18.2 
				11,81.3 			"/>
			<polygon fill-rule="evenodd" clip-rule="evenodd" fill="#CCCCCC" points="11,18.2 8.3,18.2 2.3,0.8 4.6,0.8 4.6,0.8 			"/>
			<polygon fill-rule="evenodd" clip-rule="evenodd" fill="#FFFFFF" fill-opacity="0.5255" points="8.3,18.2 8.3,81.6 2.3,68.1 
				2.3,0.8 			"/>
			
				<path fill-rule="evenodd" clip-rule="evenodd" fill="none" stroke="#FFFFFF" stroke-linecap="round" stroke-linejoin="round" stroke-miterlimit="3" d="
				M2.3,0.8h2.4v0L11,18.2v63.1l-2.7,0.3l-6-13.5V0.8z M8.3,18.2l-6-17.5 M11,18.2H8.3v63.4"/>
		</g>
	</g>
</g>
</svg>
