<?xml version="1.0" encoding="utf-8"?>
<!-- Generator: Adobe Illustrator 16.0.0, SVG Export Plug-In . SVG Version: 6.00 Build 0)  -->
<!DOCTYPE svg PUBLIC "-//W3C//DTD SVG 1.1//EN" "http://www.w3.org/Graphics/SVG/1.1/DTD/svg11.dtd">
<svg version="1.1" id="Layer_1" xmlns="http://www.w3.org/2000/svg" xmlns:xlink="http://www.w3.org/1999/xlink" x="0px" y="0px"
	 width="13px" height="90px" viewBox="0 0 13 90" enable-background="new 0 0 13 90" xml:space="preserve">
<g>
	<g>
		<path fill-rule="evenodd" clip-rule="evenodd" d="M2.6,67.9L4,67.7h0.4c0.3,0,0.7,0,1,0l5,14l-0.1,7.4l-3,0.2l0.2-7.6L2.6,67.9z"
			/>
	</g>
	<g>
		<g>
			<polygon fill-rule="evenodd" clip-rule="evenodd" fill="#333333" fill-opacity="0.298" points="10.3,18.2 10.3,81.4 7.5,81.6 
				7.5,18.2 			"/>
			<polygon fill-rule="evenodd" clip-rule="evenodd" fill="#CCCCCC" points="10.3,18.2 7.5,18.2 2.7,0.8 5.1,0.8 5.1,0.8 			"/>
			<polygon fill-rule="evenodd" clip-rule="evenodd" fill="#FFFFFF" fill-opacity="0.5255" points="7.5,18.2 7.5,81.6 2.7,67.7 
				2.7,0.8 			"/>
			
				<path fill-rule="evenodd" clip-rule="evenodd" fill="none" stroke="#FFFFFF" stroke-linecap="round" stroke-linejoin="round" stroke-miterlimit="3" d="
				M10.3,18.2L5.1,0.8v0H2.7l4.8,17.5H10.3z M2.7,0.8v66.9l4.8,13.9V18.2 M7.5,81.6l2.7-0.2V18.2"/>
		</g>
	</g>
</g>
</svg>
