<?xml version="1.0" encoding="utf-8"?>
<!-- Generator: Adobe Illustrator 16.0.0, SVG Export Plug-In . SVG Version: 6.00 Build 0)  -->
<!DOCTYPE svg PUBLIC "-//W3C//DTD SVG 1.1//EN" "http://www.w3.org/Graphics/SVG/1.1/DTD/svg11.dtd">
<svg version="1.1" id="Layer_1" xmlns="http://www.w3.org/2000/svg" xmlns:xlink="http://www.w3.org/1999/xlink" x="0px" y="0px"
	 width="13px" height="90px" viewBox="0 0 13 90" enable-background="new 0 0 13 90" xml:space="preserve">
<g>
	<g>
		<polygon fill-rule="evenodd" clip-rule="evenodd" points="0.6,68.3 3.1,67.8 12.1,81.4 12.1,88.8 9,89.3 9,81.7 		"/>
	</g>
	<g>
		<g>
			<polygon fill-rule="evenodd" clip-rule="evenodd" fill="#333333" fill-opacity="0.298" points="11.8,18.2 11.8,54.9 11.8,81.3 
				9.2,81.6 9.2,54.9 9.2,18.2 			"/>
			<polygon fill-rule="evenodd" clip-rule="evenodd" fill="#CCCCCC" points="11.8,18.2 9.2,18.2 1.3,1.5 1,0.8 3.4,0.8 3.4,0.8 
				3.7,1.5 			"/>
			<polygon fill-rule="evenodd" clip-rule="evenodd" fill="#FFFFFF" fill-opacity="0.5255" points="9.2,18.2 9.2,54.9 9.2,81.6 
				1,68.3 1,54.9 1,1.5 1,0.8 1.3,1.5 			"/>
			
				<path fill-rule="evenodd" clip-rule="evenodd" fill="none" stroke="#FFFFFF" stroke-linecap="round" stroke-linejoin="round" stroke-miterlimit="3" d="
				M11.8,18.2L3.7,1.5L3.4,0.8v0H1l0.3,0.8l7.9,16.7H11.8z M1,0.8v0.8v53.4v13.3l8.2,13.3V54.9V18.2 M9.2,81.6l2.6-0.3V54.9V18.2"/>
		</g>
	</g>
</g>
</svg>
