<?xml version="1.0" encoding="utf-8"?>
<!-- Generator: Adobe Illustrator 16.0.0, SVG Export Plug-In . SVG Version: 6.00 Build 0)  -->
<!DOCTYPE svg PUBLIC "-//W3C//DTD SVG 1.1//EN" "http://www.w3.org/Graphics/SVG/1.1/DTD/svg11.dtd">
<svg version="1.1" id="Layer_1" xmlns="http://www.w3.org/2000/svg" xmlns:xlink="http://www.w3.org/1999/xlink" x="0px" y="0px"
	 width="363.3px" height="124px" viewBox="0 0 363.3 124" enable-background="new 0 0 363.3 124" xml:space="preserve">
<g>
	<g>
		
			<radialGradient id="SVGID_1_" cx="45.9141" cy="61.0991" r="134.9757" gradientTransform="matrix(-4.371139e-008 -1 0.2808 -1.227384e-008 28.7579 107.0132)" gradientUnits="userSpaceOnUse">
			<stop  offset="0" style="stop-color:#FFFFFF"/>
			<stop  offset="0.1412" style="stop-color:#BDBDBD;stop-opacity:0"/>
			<stop  offset="0.1961" style="stop-color:#373737;stop-opacity:0.298"/>
			<stop  offset="0.4549" style="stop-color:#010101;stop-opacity:0.4314"/>
			<stop  offset="0.651" style="stop-color:#010101;stop-opacity:0"/>
			<stop  offset="0.7098" style="stop-color:#010101;stop-opacity:0"/>
			<stop  offset="1" style="stop-color:#010101;stop-opacity:0"/>
		</radialGradient>
		<rect x="2.8" y="16.8" fill-rule="evenodd" clip-rule="evenodd" fill="url(#SVGID_1_)" width="94.2" height="89.5"/>
	</g>
	<g>
		<g>
			<linearGradient id="SVGID_2_" gradientUnits="userSpaceOnUse" x1="202.6387" y1="121.7246" x2="202.6387" y2="3.0751">
				<stop  offset="0" style="stop-color:#333333"/>
				<stop  offset="0.149" style="stop-color:#818795"/>
				<stop  offset="0.2902" style="stop-color:#FFFFFF"/>
				<stop  offset="0.3961" style="stop-color:#8F96A8"/>
				<stop  offset="0.5176" style="stop-color:#4E4A49"/>
				<stop  offset="0.6627" style="stop-color:#9FA6B6"/>
				<stop  offset="0.8" style="stop-color:#505364"/>
				<stop  offset="0.898" style="stop-color:#464A6F"/>
				<stop  offset="1" style="stop-color:#1A1C2A"/>
			</linearGradient>
			<path fill-rule="evenodd" clip-rule="evenodd" fill="url(#SVGID_2_)" d="M50.9,122.2c-2-1.6-3.7-7.3-5.2-17.2
				c-0.4-2.7-0.7-5.5-0.9-8.5c-0.4-3.1-0.6-6.4-0.8-10c-0.1-1.4-0.2-2.8-0.2-4.3c-0.4-6.2-0.6-13-0.6-20.3c0-7.5,0.2-14.5,0.6-21
				c0-0.4,0-0.9,0-1.3c0-0.8,0-1.6,0.2-2.3c0.5-6.7,1-12.8,1.6-18.3C47.2,8.5,49,2.7,51.1,1.5h22.5c0.3-0.1,0.5-0.2,0.8-0.2
				s0.5,0.1,0.8,0.2h283.3V1.2c0.1,0.1,0.2,0.3,0.3,0.4c1.2-1.8,2.1,3.3,2.6,15.3c0.4,12.2,0.6,26.9,0.7,44.1
				c0,17.4-0.2,31.9-0.7,43.6c-0.5,11.9-1.4,17.7-2.8,17.6H50.9z"/>
			
				<linearGradient id="SVGID_3_" gradientUnits="userSpaceOnUse" x1="-295.9038" y1="-43.1719" x2="-266.5679" y2="-43.1719" gradientTransform="matrix(-0.2071 -0.9783 0.9651 -0.2695 22.7771 -265.1863)">
				<stop  offset="0" style="stop-color:#E8E8EB"/>
				<stop  offset="0.2549" style="stop-color:#8F96A8"/>
				<stop  offset="0.4588" style="stop-color:#6D6F77"/>
				<stop  offset="0.6627" style="stop-color:#9FA6B6"/>
				<stop  offset="0.898" style="stop-color:#464A6F"/>
				<stop  offset="1" style="stop-color:#1A1C2A"/>
			</linearGradient>
			<path fill-rule="evenodd" clip-rule="evenodd" fill="url(#SVGID_3_)" d="M43.9,41l-15.7,3.3c0-1.3,0.1-2.5,0.2-3.6
				c0.4-5.6,0.9-10.8,1.7-15.7c1.5-10.2,3.3-15.8,5.3-16.9l15.7-6.6c-2.1,1.1-3.9,7-5.4,17.6c-0.6,5.5-1.1,11.6-1.6,18.3
				c-0.1,0.7-0.2,1.5-0.2,2.3C43.9,40.1,43.9,40.6,43.9,41z"/>
			<linearGradient id="SVGID_4_" gradientUnits="userSpaceOnUse" x1="35.8643" y1="76.5625" x2="35.8643" y2="43.9379">
				<stop  offset="0" style="stop-color:#E8E8EB"/>
				<stop  offset="0.2549" style="stop-color:#8F96A8"/>
				<stop  offset="0.4588" style="stop-color:#4E4A49"/>
				<stop  offset="0.6627" style="stop-color:#9FA6B6"/>
				<stop  offset="1" style="stop-color:#E8E8EB"/>
			</linearGradient>
			<path fill-rule="evenodd" clip-rule="evenodd" fill="url(#SVGID_4_)" d="M44.1,86.5L28,77.2c-0.2-4.5-0.3-9.4-0.3-14.8
				c0-6.4,0.2-12.4,0.5-18.1L43.9,41c-0.4,6.5-0.6,13.5-0.6,21c0,7.3,0.2,14.1,0.6,20.3C43.9,83.7,44,85.1,44.1,86.5z"/>
			
				<linearGradient id="SVGID_5_" gradientUnits="userSpaceOnUse" x1="-274.6558" y1="61.7637" x2="-247.3885" y2="61.7637" gradientTransform="matrix(0.3182 -0.948 0.9183 0.4068 64.452 -168.9162)">
				<stop  offset="0" style="stop-color:#9097A9"/>
				<stop  offset="0.2549" style="stop-color:#8F96A8"/>
				<stop  offset="0.5216" style="stop-color:#464A6F"/>
				<stop  offset="1" style="stop-color:#E8E8EB"/>
			</linearGradient>
			<path fill-rule="evenodd" clip-rule="evenodd" fill="url(#SVGID_5_)" d="M28,77.2l16.1,9.3c0.1,3.5,0.4,6.9,0.8,10
				c0.2,3,0.5,5.8,0.9,8.5c1.5,9.9,3.2,15.6,5.2,17.2l-14.4-8.7l-2-0.9c-1.7-1.8-3.2-7-4.6-15.4c-0.5-3-0.9-6.4-1.3-10.2
				C28.3,84,28.1,80.7,28,77.2z"/>
		</g>
	</g>
	<g>
		<linearGradient id="SVGID_6_" gradientUnits="userSpaceOnUse" x1="47.9175" y1="120.9873" x2="47.9175" y2="2.1128">
			<stop  offset="0" style="stop-color:#FFFFFF;stop-opacity:0"/>
			<stop  offset="0.1922" style="stop-color:#FFFFFF"/>
			<stop  offset="0.3686" style="stop-color:#FBFCFC"/>
			<stop  offset="0.7569" style="stop-color:#FBFCFC;stop-opacity:0.3059"/>
			<stop  offset="1" style="stop-color:#FAFAFA;stop-opacity:0"/>
		</linearGradient>
		<path fill-rule="evenodd" clip-rule="evenodd" fill="url(#SVGID_6_)" d="M52.4,2.8c-0.2,0.4-0.5,0.6-0.9,0.6
			c-0.9,0.4-2,5.9-3.3,16.3c-1.5,11.6-2.1,25.7-2,42.4c0.1,16.7,0.9,30.1,2.4,40.3c1.3,9.9,2.6,15.6,3.7,17.3
			c0.3,0.4,0.4,0.9,0.4,1.3c-0.1,0.4-0.3,0.8-0.6,1.1c-0.4,0.3-0.7,0.3-1.1,0.2c-0.4,0-0.7-0.2-1-0.6c-1.3-1.8-2.8-8.1-4.3-18.9
			c-1.6-10.2-2.4-23.7-2.4-40.7c-0.2-16.9,0.4-31.2,2-42.8c1.1-8.3,2.3-13.9,3.7-16.7h3.5C52.6,2.8,52.5,2.8,52.4,2.8z"/>
	</g>
	<g>
		
			<radialGradient id="SVGID_7_" cx="43.3145" cy="61.0996" r="46.4072" gradientTransform="matrix(-2.095920e-002 -0.9998 0.1896 -3.975551e-003 32.6354 104.6475)" gradientUnits="userSpaceOnUse">
			<stop  offset="0" style="stop-color:#FFFFFF"/>
			<stop  offset="0.1765" style="stop-color:#FFFFFF"/>
			<stop  offset="0.3059" style="stop-color:#FFFFFF;stop-opacity:0.4235"/>
			<stop  offset="0.4902" style="stop-color:#FFFFFF;stop-opacity:0.2314"/>
			<stop  offset="0.651" style="stop-color:#FFFFFF;stop-opacity:8.235294e-002"/>
			<stop  offset="1" style="stop-color:#FFFFFF;stop-opacity:0"/>
		</radialGradient>
		<path fill-rule="evenodd" clip-rule="evenodd" fill="url(#SVGID_7_)" d="M48.9,28.5c1.8,9.2,2.9,20,3.1,32.4
			c0.2,12.4-0.4,23.2-2,32.4c-1.5,8.6-3.4,13-5.9,13c-2.3,0-4.4-4.2-6.1-12.5c-1.8-9.2-2.9-20-3.1-32.5c-0.3-12.4,0.4-23.2,2-32.4
			c1.5-9.3,3.4-14,5.8-14C45,14.9,47.1,19.4,48.9,28.5z"/>
	</g>
	<g>
		
			<radialGradient id="SVGID_8_" cx="-226.5991" cy="15.7578" r="14.0799" gradientTransform="matrix(0.1145 -0.9934 0.3862 6.036872e-002 65.0296 -206.4603)" gradientUnits="userSpaceOnUse">
			<stop  offset="0" style="stop-color:#FFFFFF"/>
			<stop  offset="0.1765" style="stop-color:#FFFFFF"/>
			<stop  offset="0.3059" style="stop-color:#FFFFFF;stop-opacity:0.4235"/>
			<stop  offset="0.4902" style="stop-color:#FFFFFF;stop-opacity:0.2314"/>
			<stop  offset="0.651" style="stop-color:#FFFFFF;stop-opacity:8.235294e-002"/>
			<stop  offset="1" style="stop-color:#FFFFFF;stop-opacity:0"/>
		</radialGradient>
		<path fill-rule="evenodd" clip-rule="evenodd" fill="url(#SVGID_8_)" d="M39.8,18.8c0.5-3.8,1.4-7,2.8-9.5
			c1.3-2.7,2.8-3.9,4.3-3.6c1.5,0.3,2.6,1.9,3.3,4.9c0.7,2.8,0.8,6.1,0.3,10c-0.5,3.8-1.3,7-2.5,9.5c-1.5,2.4-3,3.5-4.5,3.2
			c-1.5-0.3-2.5-1.8-3.1-4.5C39.5,25.9,39.3,22.5,39.8,18.8z"/>
	</g>
</g>
</svg>
