<?xml version="1.0" encoding="utf-8"?>
<!-- Generator: Adobe Illustrator 16.0.0, SVG Export Plug-In . SVG Version: 6.00 Build 0)  -->
<!DOCTYPE svg PUBLIC "-//W3C//DTD SVG 1.1//EN" "http://www.w3.org/Graphics/SVG/1.1/DTD/svg11.dtd">
<svg version="1.1" xmlns="http://www.w3.org/2000/svg" xmlns:xlink="http://www.w3.org/1999/xlink" x="0px" y="0px" width="177px"
	 height="176px" viewBox="0 0 177 176" enable-background="new 0 0 177 176" xml:space="preserve">
<g id="Layer_3">
</g>
<g id="Layer_4">
</g>
<g id="Layer_5">
</g>
<g id="Layer_6">
	<circle fill="none" stroke="#DC3D2C" stroke-width="4" stroke-miterlimit="10" cx="88.3" cy="87.3" r="9.8"/>
	<circle fill="none" stroke="#C13627" stroke-width="4" stroke-miterlimit="10" cx="88.3" cy="87.3" r="20.6"/>
	<circle fill="none" stroke="#A52D23" stroke-width="4" stroke-miterlimit="10" cx="88.3" cy="87.3" r="30.8"/>
	<circle fill="none" stroke="#8B261C" stroke-width="4" stroke-miterlimit="10" cx="88.3" cy="87.3" r="40.6"/>
	<circle fill="none" stroke="#6D1F15" stroke-width="4" stroke-miterlimit="10" cx="88.3" cy="87.3" r="51.1"/>
	<circle fill="none" stroke="#511814" stroke-width="4" stroke-miterlimit="10" cx="88.3" cy="87.3" r="61.4"/>
	<path fill="none" stroke="#341411" stroke-width="4" stroke-miterlimit="10" d="M159.6,87.3c0,39.3-31.9,71.3-71.3,71.3
		c-39.3,0-71.3-31.9-71.3-71.3C17.1,48,49,16.1,88.3,16.1C127.7,16.1,159.6,48,159.6,87.3z"/>
	<path fill="none" stroke="#1E0E0D" stroke-width="4" stroke-miterlimit="10" d="M169.9,87.3c0,45.1-36.5,81.6-81.6,81.6
		c-45.1,0-81.6-36.5-81.6-81.6c0-45.1,36.5-81.6,81.6-81.6C133.4,5.7,169.9,42.3,169.9,87.3z"/>
</g>
</svg>
