<?xml version="1.0" encoding="utf-8"?>
<!-- Generator: Adobe Illustrator 16.0.0, SVG Export Plug-In . SVG Version: 6.00 Build 0)  -->
<!DOCTYPE svg PUBLIC "-//W3C//DTD SVG 1.1//EN" "http://www.w3.org/Graphics/SVG/1.1/DTD/svg11.dtd">
<svg version="1.1" xmlns="http://www.w3.org/2000/svg" xmlns:xlink="http://www.w3.org/1999/xlink" x="0px" y="0px" width="71px"
	 height="836.7px" viewBox="0 -83.7 71 836.7" enable-background="new 0 -83.7 71 836.7" xml:space="preserve">
<g id="Layer_5">
	<line fill="none" stroke="#000000" stroke-miterlimit="10" x1="68.2" y1="686.7" x2="47.9" y2="686.7"/>
	<line fill="none" stroke="#000000" stroke-miterlimit="10" x1="68.2" y1="690.8" x2="47.9" y2="690.8"/>
	<line fill="none" stroke="#000000" stroke-miterlimit="10" x1="68.2" y1="695" x2="47.9" y2="695"/>
	<line fill="none" stroke="#000000" stroke-miterlimit="10" x1="68.2" y1="699.2" x2="47.9" y2="699.2"/>
	<line fill="none" stroke="#000000" stroke-miterlimit="10" x1="68.2" y1="703.3" x2="27.9" y2="703.3"/>
	<line fill="none" stroke="#000000" stroke-miterlimit="10" x1="68.2" y1="707.5" x2="47.9" y2="707.5"/>
	<line fill="none" stroke="#000000" stroke-miterlimit="10" x1="68.2" y1="711.7" x2="47.9" y2="711.7"/>
	<line fill="none" stroke="#000000" stroke-miterlimit="10" x1="68.2" y1="715.8" x2="47.9" y2="715.8"/>
	<line fill="none" stroke="#000000" stroke-miterlimit="10" x1="68.2" y1="720" x2="47.9" y2="720"/>
	<line fill="none" stroke="#000000" stroke-miterlimit="10" x1="68.2" y1="724.2" x2="27.9" y2="724.2"/>
	<line fill="none" stroke="#000000" stroke-miterlimit="10" x1="68.2" y1="728.3" x2="47.9" y2="728.3"/>
	<line fill="none" stroke="#000000" stroke-miterlimit="10" x1="68.2" y1="732.5" x2="47.9" y2="732.5"/>
	<line fill="none" stroke="#000000" stroke-miterlimit="10" x1="68.2" y1="736.7" x2="47.9" y2="736.7"/>
	<line fill="none" stroke="#000000" stroke-miterlimit="10" x1="68.2" y1="740.8" x2="47.9" y2="740.8"/>
	<line fill="none" stroke="#000000" stroke-miterlimit="10" x1="68.2" y1="745" x2="27.9" y2="745"/>
	<line fill="none" stroke="#000000" stroke-miterlimit="10" x1="68.2" y1="624.1" x2="47.9" y2="624.1"/>
	<line fill="none" stroke="#000000" stroke-miterlimit="10" x1="68.2" y1="628.3" x2="47.9" y2="628.3"/>
	<line fill="none" stroke="#000000" stroke-miterlimit="10" x1="68.2" y1="632.5" x2="47.9" y2="632.5"/>
	<line fill="none" stroke="#000000" stroke-miterlimit="10" x1="68.2" y1="636.6" x2="47.9" y2="636.6"/>
	<line fill="none" stroke="#000000" stroke-miterlimit="10" x1="68.2" y1="640.8" x2="27.9" y2="640.8"/>
	<line fill="none" stroke="#000000" stroke-miterlimit="10" x1="68.2" y1="645" x2="47.9" y2="645"/>
	<line fill="none" stroke="#000000" stroke-miterlimit="10" x1="68.2" y1="649.1" x2="47.9" y2="649.1"/>
	<line fill="none" stroke="#000000" stroke-miterlimit="10" x1="68.2" y1="653.3" x2="47.9" y2="653.3"/>
	<line fill="none" stroke="#000000" stroke-miterlimit="10" x1="68.2" y1="657.5" x2="47.9" y2="657.5"/>
	<line fill="none" stroke="#000000" stroke-miterlimit="10" x1="68.2" y1="661.6" x2="27.9" y2="661.6"/>
	<line fill="none" stroke="#000000" stroke-miterlimit="10" x1="68.2" y1="665.8" x2="47.9" y2="665.8"/>
	<line fill="none" stroke="#000000" stroke-miterlimit="10" x1="68.2" y1="670" x2="47.9" y2="670"/>
	<line fill="none" stroke="#000000" stroke-miterlimit="10" x1="68.2" y1="674.2" x2="47.9" y2="674.2"/>
	<line fill="none" stroke="#000000" stroke-miterlimit="10" x1="68.2" y1="678.3" x2="47.9" y2="678.3"/>
	<line fill="none" stroke="#000000" stroke-miterlimit="10" x1="68.2" y1="682.5" x2="27.9" y2="682.5"/>
	<line fill="none" stroke="#000000" stroke-miterlimit="10" x1="68.2" y1="561.6" x2="47.9" y2="561.6"/>
	<line fill="none" stroke="#000000" stroke-miterlimit="10" x1="68.2" y1="565.8" x2="47.9" y2="565.8"/>
	<line fill="none" stroke="#000000" stroke-miterlimit="10" x1="68.2" y1="570" x2="47.9" y2="570"/>
	<line fill="none" stroke="#000000" stroke-miterlimit="10" x1="68.2" y1="574.1" x2="47.9" y2="574.1"/>
	<line fill="none" stroke="#000000" stroke-miterlimit="10" x1="68.2" y1="578.3" x2="27.9" y2="578.3"/>
	<line fill="none" stroke="#000000" stroke-miterlimit="10" x1="68.2" y1="582.5" x2="47.9" y2="582.5"/>
	<line fill="none" stroke="#000000" stroke-miterlimit="10" x1="68.2" y1="586.6" x2="47.9" y2="586.6"/>
	<line fill="none" stroke="#000000" stroke-miterlimit="10" x1="68.2" y1="590.8" x2="47.9" y2="590.8"/>
	<line fill="none" stroke="#000000" stroke-miterlimit="10" x1="68.2" y1="595" x2="47.9" y2="595"/>
	<line fill="none" stroke="#000000" stroke-miterlimit="10" x1="68.2" y1="599.1" x2="27.9" y2="599.1"/>
	<line fill="none" stroke="#000000" stroke-miterlimit="10" x1="68.2" y1="603.3" x2="47.9" y2="603.3"/>
	<line fill="none" stroke="#000000" stroke-miterlimit="10" x1="68.2" y1="607.5" x2="47.9" y2="607.5"/>
	<line fill="none" stroke="#000000" stroke-miterlimit="10" x1="68.2" y1="611.6" x2="47.9" y2="611.6"/>
	<line fill="none" stroke="#000000" stroke-miterlimit="10" x1="68.2" y1="615.8" x2="47.9" y2="615.8"/>
	<line fill="none" stroke="#000000" stroke-miterlimit="10" x1="68.2" y1="620" x2="27.9" y2="620"/>
	<line fill="none" stroke="#000000" stroke-miterlimit="10" x1="68.2" y1="499.1" x2="47.9" y2="499.1"/>
	<line fill="none" stroke="#000000" stroke-miterlimit="10" x1="68.2" y1="503.3" x2="47.9" y2="503.3"/>
	<line fill="none" stroke="#000000" stroke-miterlimit="10" x1="68.2" y1="507.4" x2="47.9" y2="507.4"/>
	<line fill="none" stroke="#000000" stroke-miterlimit="10" x1="68.2" y1="511.6" x2="47.9" y2="511.6"/>
	<line fill="none" stroke="#000000" stroke-miterlimit="10" x1="68.2" y1="515.8" x2="27.9" y2="515.8"/>
	<line fill="none" stroke="#000000" stroke-miterlimit="10" x1="68.2" y1="519.9" x2="47.9" y2="519.9"/>
	<line fill="none" stroke="#000000" stroke-miterlimit="10" x1="68.2" y1="524.1" x2="47.9" y2="524.1"/>
	<line fill="none" stroke="#000000" stroke-miterlimit="10" x1="68.2" y1="528.3" x2="47.9" y2="528.3"/>
	<line fill="none" stroke="#000000" stroke-miterlimit="10" x1="68.2" y1="532.4" x2="47.9" y2="532.4"/>
	<line fill="none" stroke="#000000" stroke-miterlimit="10" x1="68.2" y1="536.6" x2="27.9" y2="536.6"/>
	<line fill="none" stroke="#000000" stroke-miterlimit="10" x1="68.2" y1="540.8" x2="47.9" y2="540.8"/>
	<line fill="none" stroke="#000000" stroke-miterlimit="10" x1="68.2" y1="545" x2="47.9" y2="545"/>
	<line fill="none" stroke="#000000" stroke-miterlimit="10" x1="68.2" y1="549.1" x2="47.9" y2="549.1"/>
	<line fill="none" stroke="#000000" stroke-miterlimit="10" x1="68.2" y1="553.3" x2="47.9" y2="553.3"/>
	<line fill="none" stroke="#000000" stroke-miterlimit="10" x1="68.2" y1="557.5" x2="27.9" y2="557.5"/>
	<line fill="none" stroke="#000000" stroke-miterlimit="10" x1="68.2" y1="436.6" x2="47.9" y2="436.6"/>
	<line fill="none" stroke="#000000" stroke-miterlimit="10" x1="68.2" y1="440.8" x2="47.9" y2="440.8"/>
	<line fill="none" stroke="#000000" stroke-miterlimit="10" x1="68.2" y1="444.9" x2="47.9" y2="444.9"/>
	<line fill="none" stroke="#000000" stroke-miterlimit="10" x1="68.2" y1="449.1" x2="47.9" y2="449.1"/>
	<line fill="none" stroke="#000000" stroke-miterlimit="10" x1="68.2" y1="453.3" x2="27.9" y2="453.3"/>
	<line fill="none" stroke="#000000" stroke-miterlimit="10" x1="68.2" y1="457.4" x2="47.9" y2="457.4"/>
	<line fill="none" stroke="#000000" stroke-miterlimit="10" x1="68.2" y1="461.6" x2="47.9" y2="461.6"/>
	<line fill="none" stroke="#000000" stroke-miterlimit="10" x1="68.2" y1="465.8" x2="47.9" y2="465.8"/>
	<line fill="none" stroke="#000000" stroke-miterlimit="10" x1="68.2" y1="469.9" x2="47.9" y2="469.9"/>
	<line fill="none" stroke="#000000" stroke-miterlimit="10" x1="68.2" y1="474.1" x2="27.9" y2="474.1"/>
	<line fill="none" stroke="#000000" stroke-miterlimit="10" x1="68.2" y1="478.3" x2="47.9" y2="478.3"/>
	<line fill="none" stroke="#000000" stroke-miterlimit="10" x1="68.2" y1="482.4" x2="47.9" y2="482.4"/>
	<line fill="none" stroke="#000000" stroke-miterlimit="10" x1="68.2" y1="486.6" x2="47.9" y2="486.6"/>
	<line fill="none" stroke="#000000" stroke-miterlimit="10" x1="68.2" y1="490.8" x2="47.9" y2="490.8"/>
	<line fill="none" stroke="#000000" stroke-miterlimit="10" x1="68.2" y1="494.9" x2="27.9" y2="494.9"/>
	<line fill="none" stroke="#000000" stroke-miterlimit="10" x1="68.2" y1="374.1" x2="47.9" y2="374.1"/>
	<line fill="none" stroke="#000000" stroke-miterlimit="10" x1="68.2" y1="378.2" x2="47.9" y2="378.2"/>
	<line fill="none" stroke="#000000" stroke-miterlimit="10" x1="68.2" y1="382.4" x2="47.9" y2="382.4"/>
	<line fill="none" stroke="#000000" stroke-miterlimit="10" x1="68.2" y1="386.6" x2="47.9" y2="386.6"/>
	<line fill="none" stroke="#000000" stroke-miterlimit="10" x1="68.2" y1="390.7" x2="27.9" y2="390.7"/>
	<line fill="none" stroke="#000000" stroke-miterlimit="10" x1="68.2" y1="394.9" x2="47.9" y2="394.9"/>
	<line fill="none" stroke="#000000" stroke-miterlimit="10" x1="68.2" y1="399.1" x2="47.9" y2="399.1"/>
	<line fill="none" stroke="#000000" stroke-miterlimit="10" x1="68.2" y1="403.2" x2="47.9" y2="403.2"/>
	<line fill="none" stroke="#000000" stroke-miterlimit="10" x1="68.2" y1="407.4" x2="47.9" y2="407.4"/>
	<line fill="none" stroke="#000000" stroke-miterlimit="10" x1="68.2" y1="411.6" x2="27.9" y2="411.6"/>
	<line fill="none" stroke="#000000" stroke-miterlimit="10" x1="68.2" y1="415.8" x2="47.9" y2="415.8"/>
	<line fill="none" stroke="#000000" stroke-miterlimit="10" x1="68.2" y1="419.9" x2="47.9" y2="419.9"/>
	<line fill="none" stroke="#000000" stroke-miterlimit="10" x1="68.2" y1="424.1" x2="47.9" y2="424.1"/>
	<line fill="none" stroke="#000000" stroke-miterlimit="10" x1="68.2" y1="428.3" x2="47.9" y2="428.3"/>
	<line fill="none" stroke="#000000" stroke-miterlimit="10" x1="68.2" y1="432.4" x2="27.9" y2="432.4"/>
	<line fill="none" stroke="#000000" stroke-miterlimit="10" x1="68.2" y1="311.6" x2="47.9" y2="311.6"/>
	<line fill="none" stroke="#000000" stroke-miterlimit="10" x1="68.2" y1="315.7" x2="47.9" y2="315.7"/>
	<line fill="none" stroke="#000000" stroke-miterlimit="10" x1="68.2" y1="319.9" x2="47.9" y2="319.9"/>
	<line fill="none" stroke="#000000" stroke-miterlimit="10" x1="68.2" y1="324.1" x2="47.9" y2="324.1"/>
	<line fill="none" stroke="#000000" stroke-miterlimit="10" x1="68.2" y1="328.2" x2="27.9" y2="328.2"/>
	<line fill="none" stroke="#000000" stroke-miterlimit="10" x1="68.2" y1="332.4" x2="47.9" y2="332.4"/>
	<line fill="none" stroke="#000000" stroke-miterlimit="10" x1="68.2" y1="336.6" x2="47.9" y2="336.6"/>
	<line fill="none" stroke="#000000" stroke-miterlimit="10" x1="68.2" y1="340.7" x2="47.9" y2="340.7"/>
	<line fill="none" stroke="#000000" stroke-miterlimit="10" x1="68.2" y1="344.9" x2="47.9" y2="344.9"/>
	<line fill="none" stroke="#000000" stroke-miterlimit="10" x1="68.2" y1="349.1" x2="27.9" y2="349.1"/>
	<line fill="none" stroke="#000000" stroke-miterlimit="10" x1="68.2" y1="353.2" x2="47.9" y2="353.2"/>
	<line fill="none" stroke="#000000" stroke-miterlimit="10" x1="68.2" y1="357.4" x2="47.9" y2="357.4"/>
	<line fill="none" stroke="#000000" stroke-miterlimit="10" x1="68.2" y1="361.6" x2="47.9" y2="361.6"/>
	<line fill="none" stroke="#000000" stroke-miterlimit="10" x1="68.2" y1="365.7" x2="47.9" y2="365.7"/>
	<line fill="none" stroke="#000000" stroke-miterlimit="10" x1="68.2" y1="369.9" x2="27.9" y2="369.9"/>
	<line fill="none" stroke="#000000" stroke-miterlimit="10" x1="68.2" y1="249" x2="47.9" y2="249"/>
	<line fill="none" stroke="#000000" stroke-miterlimit="10" x1="68.2" y1="253.2" x2="47.9" y2="253.2"/>
	<line fill="none" stroke="#000000" stroke-miterlimit="10" x1="68.2" y1="257.4" x2="47.9" y2="257.4"/>
	<line fill="none" stroke="#000000" stroke-miterlimit="10" x1="68.2" y1="261.5" x2="47.9" y2="261.5"/>
	<line fill="none" stroke="#000000" stroke-miterlimit="10" x1="68.2" y1="265.7" x2="27.9" y2="265.7"/>
	<line fill="none" stroke="#000000" stroke-miterlimit="10" x1="68.2" y1="269.9" x2="47.9" y2="269.9"/>
	<line fill="none" stroke="#000000" stroke-miterlimit="10" x1="68.2" y1="274.1" x2="47.9" y2="274.1"/>
	<line fill="none" stroke="#000000" stroke-miterlimit="10" x1="68.2" y1="278.2" x2="47.9" y2="278.2"/>
	<line fill="none" stroke="#000000" stroke-miterlimit="10" x1="68.2" y1="282.4" x2="47.9" y2="282.4"/>
	<line fill="none" stroke="#000000" stroke-miterlimit="10" x1="68.2" y1="286.6" x2="27.9" y2="286.6"/>
	<line fill="none" stroke="#000000" stroke-miterlimit="10" x1="68.2" y1="290.7" x2="47.9" y2="290.7"/>
	<line fill="none" stroke="#000000" stroke-miterlimit="10" x1="68.2" y1="294.9" x2="47.9" y2="294.9"/>
	<line fill="none" stroke="#000000" stroke-miterlimit="10" x1="68.2" y1="299.1" x2="47.9" y2="299.1"/>
	<line fill="none" stroke="#000000" stroke-miterlimit="10" x1="68.2" y1="303.2" x2="47.9" y2="303.2"/>
	<line fill="none" stroke="#000000" stroke-miterlimit="10" x1="68.2" y1="307.4" x2="27.9" y2="307.4"/>
	<line fill="none" stroke="#000000" stroke-miterlimit="10" x1="68.2" y1="186.5" x2="47.9" y2="186.5"/>
	<line fill="none" stroke="#000000" stroke-miterlimit="10" x1="68.2" y1="190.7" x2="47.9" y2="190.7"/>
	<line fill="none" stroke="#000000" stroke-miterlimit="10" x1="68.2" y1="194.9" x2="47.9" y2="194.9"/>
	<line fill="none" stroke="#000000" stroke-miterlimit="10" x1="68.2" y1="199" x2="47.9" y2="199"/>
	<line fill="none" stroke="#000000" stroke-miterlimit="10" x1="68.2" y1="203.2" x2="27.9" y2="203.2"/>
	<line fill="none" stroke="#000000" stroke-miterlimit="10" x1="68.2" y1="207.4" x2="47.9" y2="207.4"/>
	<line fill="none" stroke="#000000" stroke-miterlimit="10" x1="68.2" y1="211.5" x2="47.9" y2="211.5"/>
	<line fill="none" stroke="#000000" stroke-miterlimit="10" x1="68.2" y1="215.7" x2="47.9" y2="215.7"/>
	<line fill="none" stroke="#000000" stroke-miterlimit="10" x1="68.2" y1="219.9" x2="47.9" y2="219.9"/>
	<line fill="none" stroke="#000000" stroke-miterlimit="10" x1="68.2" y1="224" x2="27.9" y2="224"/>
	<line fill="none" stroke="#000000" stroke-miterlimit="10" x1="68.2" y1="228.2" x2="47.9" y2="228.2"/>
	<line fill="none" stroke="#000000" stroke-miterlimit="10" x1="68.2" y1="232.4" x2="47.9" y2="232.4"/>
	<line fill="none" stroke="#000000" stroke-miterlimit="10" x1="68.2" y1="236.5" x2="47.9" y2="236.5"/>
	<line fill="none" stroke="#000000" stroke-miterlimit="10" x1="68.2" y1="240.7" x2="47.9" y2="240.7"/>
	<line fill="none" stroke="#000000" stroke-miterlimit="10" x1="68.2" y1="244.9" x2="27.9" y2="244.9"/>
	<line fill="none" stroke="#000000" stroke-miterlimit="10" x1="68.2" y1="124" x2="47.9" y2="124"/>
	<line fill="none" stroke="#000000" stroke-miterlimit="10" x1="68.2" y1="128.2" x2="47.9" y2="128.2"/>
	<line fill="none" stroke="#000000" stroke-miterlimit="10" x1="68.2" y1="132.3" x2="47.9" y2="132.3"/>
	<line fill="none" stroke="#000000" stroke-miterlimit="10" x1="68.2" y1="136.5" x2="47.9" y2="136.5"/>
	<line fill="none" stroke="#000000" stroke-miterlimit="10" x1="68.2" y1="140.7" x2="27.9" y2="140.7"/>
	<line fill="none" stroke="#000000" stroke-miterlimit="10" x1="68.2" y1="144.9" x2="47.9" y2="144.9"/>
	<line fill="none" stroke="#000000" stroke-miterlimit="10" x1="68.2" y1="149" x2="47.9" y2="149"/>
	<line fill="none" stroke="#000000" stroke-miterlimit="10" x1="68.2" y1="153.2" x2="47.9" y2="153.2"/>
	<line fill="none" stroke="#000000" stroke-miterlimit="10" x1="68.2" y1="157.4" x2="47.9" y2="157.4"/>
	<line fill="none" stroke="#000000" stroke-miterlimit="10" x1="68.2" y1="161.5" x2="27.9" y2="161.5"/>
	<line fill="none" stroke="#000000" stroke-miterlimit="10" x1="68.2" y1="165.7" x2="47.9" y2="165.7"/>
	<line fill="none" stroke="#000000" stroke-miterlimit="10" x1="68.2" y1="169.9" x2="47.9" y2="169.9"/>
	<line fill="none" stroke="#000000" stroke-miterlimit="10" x1="68.2" y1="174" x2="47.9" y2="174"/>
	<line fill="none" stroke="#000000" stroke-miterlimit="10" x1="68.2" y1="178.2" x2="47.9" y2="178.2"/>
	<line fill="none" stroke="#000000" stroke-miterlimit="10" x1="68.2" y1="182.4" x2="27.9" y2="182.4"/>
	<line fill="none" stroke="#000000" stroke-miterlimit="10" x1="68.2" y1="61.5" x2="47.9" y2="61.5"/>
	<line fill="none" stroke="#000000" stroke-miterlimit="10" x1="68.2" y1="65.7" x2="47.9" y2="65.7"/>
	<line fill="none" stroke="#000000" stroke-miterlimit="10" x1="68.2" y1="69.8" x2="47.9" y2="69.8"/>
	<line fill="none" stroke="#000000" stroke-miterlimit="10" x1="68.2" y1="74" x2="47.9" y2="74"/>
	<line fill="none" stroke="#000000" stroke-miterlimit="10" x1="68.2" y1="78.2" x2="27.9" y2="78.2"/>
	<line fill="none" stroke="#000000" stroke-miterlimit="10" x1="68.2" y1="82.3" x2="47.9" y2="82.3"/>
	<line fill="none" stroke="#000000" stroke-miterlimit="10" x1="68.2" y1="86.5" x2="47.9" y2="86.5"/>
	<line fill="none" stroke="#000000" stroke-miterlimit="10" x1="68.2" y1="90.7" x2="47.9" y2="90.7"/>
	<line fill="none" stroke="#000000" stroke-miterlimit="10" x1="68.2" y1="94.8" x2="47.9" y2="94.8"/>
	<line fill="none" stroke="#000000" stroke-miterlimit="10" x1="68.2" y1="99" x2="27.9" y2="99"/>
	<line fill="none" stroke="#000000" stroke-miterlimit="10" x1="68.2" y1="103.2" x2="47.9" y2="103.2"/>
	<line fill="none" stroke="#000000" stroke-miterlimit="10" x1="68.2" y1="107.3" x2="47.9" y2="107.3"/>
	<line fill="none" stroke="#000000" stroke-miterlimit="10" x1="68.2" y1="111.5" x2="47.9" y2="111.5"/>
	<line fill="none" stroke="#000000" stroke-miterlimit="10" x1="68.2" y1="115.7" x2="47.9" y2="115.7"/>
	<line fill="none" stroke="#000000" stroke-miterlimit="10" x1="68.2" y1="119.8" x2="27.9" y2="119.8"/>
	<line fill="none" stroke="#000000" stroke-miterlimit="10" x1="68.2" y1="15.7" x2="27.9" y2="15.7"/>
	<line fill="none" stroke="#000000" stroke-miterlimit="10" x1="68.2" y1="19.8" x2="47.9" y2="19.8"/>
	<line fill="none" stroke="#000000" stroke-miterlimit="10" x1="68.2" y1="24" x2="47.9" y2="24"/>
	<line fill="none" stroke="#000000" stroke-miterlimit="10" x1="68.2" y1="28.2" x2="47.9" y2="28.2"/>
	<line fill="none" stroke="#000000" stroke-miterlimit="10" x1="68.2" y1="32.3" x2="47.9" y2="32.3"/>
	<line fill="none" stroke="#000000" stroke-miterlimit="10" x1="68.2" y1="36.5" x2="27.9" y2="36.5"/>
	<line fill="none" stroke="#000000" stroke-miterlimit="10" x1="68.2" y1="40.7" x2="47.9" y2="40.7"/>
	<line fill="none" stroke="#000000" stroke-miterlimit="10" x1="68.2" y1="44.8" x2="47.9" y2="44.8"/>
	<line fill="none" stroke="#000000" stroke-miterlimit="10" x1="68.2" y1="49" x2="47.9" y2="49"/>
	<line fill="none" stroke="#000000" stroke-miterlimit="10" x1="68.2" y1="53.2" x2="47.9" y2="53.2"/>
	<line fill="none" stroke="#000000" stroke-miterlimit="10" x1="68.2" y1="57.3" x2="27.9" y2="57.3"/>
	<g>
		<path d="M16.5,744.1c0-1.1,0.1-2,0.3-2.7c0.2-0.7,0.6-1.2,1-1.6c0.4-0.4,1-0.5,1.7-0.5c0.5,0,0.9,0.1,1.3,0.3
			c0.4,0.2,0.7,0.5,0.9,0.9c0.2,0.4,0.4,0.8,0.6,1.4c0.2,0.6,0.2,1.3,0.2,2.2c0,1.1-0.1,2-0.3,2.6c-0.2,0.6-0.6,1.2-1,1.6
			c-0.4,0.4-1,0.5-1.7,0.5c-0.9,0-1.6-0.3-2.1-1C16.8,747.1,16.5,745.8,16.5,744.1z M17.7,744.1c0,1.5,0.2,2.5,0.5,3
			c0.3,0.5,0.8,0.8,1.3,0.8s1-0.3,1.3-0.8c0.3-0.5,0.5-1.5,0.5-3s-0.2-2.5-0.5-3.1c-0.3-0.6-0.8-0.8-1.3-0.8s-0.9,0.2-1.3,0.7
			C17.9,741.5,17.7,742.5,17.7,744.1z"/>
	</g>
	<g>
		<path d="M12.8,707.8h-1.1v-7.3c-0.3,0.3-0.6,0.5-1.1,0.8c-0.4,0.3-0.8,0.5-1.2,0.6v-1.1c0.6-0.3,1.2-0.7,1.7-1.1
			c0.5-0.4,0.8-0.8,1-1.2h0.7V707.8z"/>
		<path d="M15.8,703.2c0-1.1,0.1-2,0.3-2.7c0.2-0.7,0.6-1.2,1-1.6c0.4-0.4,1-0.5,1.7-0.5c0.5,0,0.9,0.1,1.3,0.3s0.7,0.5,0.9,0.9
			c0.2,0.4,0.4,0.8,0.6,1.4c0.2,0.6,0.2,1.3,0.2,2.2c0,1.1-0.1,2-0.3,2.6c-0.2,0.6-0.6,1.2-1,1.6c-0.4,0.4-1,0.5-1.7,0.5
			c-0.9,0-1.6-0.3-2.1-1C16.1,706.2,15.8,705,15.8,703.2z M16.9,703.2c0,1.5,0.2,2.5,0.5,3c0.3,0.5,0.8,0.8,1.3,0.8s1-0.3,1.3-0.8
			s0.5-1.5,0.5-3s-0.2-2.5-0.5-3.1c-0.3-0.6-0.8-0.8-1.3-0.8s-0.9,0.2-1.3,0.7C17.1,700.7,16.9,701.7,16.9,703.2z"/>
	</g>
	<g>
		<path d="M12.8,687h-1.1v-7.3c-0.3,0.3-0.6,0.5-1.1,0.8c-0.4,0.3-0.8,0.5-1.2,0.6V680c0.6-0.3,1.2-0.7,1.7-1.1
			c0.5-0.4,0.8-0.8,1-1.2h0.7V687z"/>
		<path d="M15.8,684.5l1.2-0.1c0.1,0.6,0.3,1,0.6,1.3c0.3,0.3,0.7,0.4,1.2,0.4s1-0.2,1.4-0.6c0.4-0.4,0.6-1,0.6-1.7
			s-0.2-1.2-0.5-1.5c-0.3-0.3-0.8-0.6-1.4-0.6c-0.4,0-0.7,0.1-1,0.3c-0.3,0.2-0.5,0.4-0.7,0.7l-1.1-0.1l0.9-4.8h4.6v1.1h-3.7
			l-0.5,2.5c0.6-0.4,1.1-0.6,1.8-0.6c0.8,0,1.5,0.3,2.1,0.8c0.6,0.6,0.8,1.3,0.8,2.2c0,0.8-0.2,1.6-0.7,2.2
			c-0.6,0.8-1.4,1.1-2.4,1.1c-0.8,0-1.5-0.2-2.1-0.7C16.2,686,15.8,685.3,15.8,684.5z"/>
	</g>
	<g>
		<path d="M14.5,665v1.1H8.4c0-0.3,0-0.5,0.1-0.8c0.2-0.4,0.4-0.8,0.8-1.2c0.4-0.4,0.8-0.9,1.5-1.4c1-0.8,1.7-1.5,2.1-2
			s0.5-0.9,0.5-1.4s-0.2-0.8-0.5-1.1c-0.3-0.3-0.7-0.5-1.3-0.5c-0.5,0-1,0.2-1.3,0.5c-0.3,0.3-0.5,0.8-0.5,1.4l-1.2-0.1
			c0.1-0.9,0.4-1.5,0.9-2s1.2-0.7,2.1-0.7s1.6,0.2,2.1,0.7s0.8,1.1,0.8,1.8c0,0.4-0.1,0.7-0.2,1.1c-0.1,0.4-0.4,0.7-0.8,1.1
			s-0.9,0.9-1.8,1.6c-0.7,0.6-1.1,1-1.3,1.2c-0.2,0.2-0.4,0.4-0.5,0.6h4.6V665z"/>
		<path d="M15.8,661.5c0-1.1,0.1-2,0.3-2.7c0.2-0.7,0.6-1.2,1-1.6c0.4-0.4,1-0.5,1.7-0.5c0.5,0,0.9,0.1,1.3,0.3s0.7,0.5,0.9,0.9
			c0.2,0.4,0.4,0.8,0.6,1.4c0.2,0.6,0.2,1.3,0.2,2.2c0,1.1-0.1,2-0.3,2.6c-0.2,0.6-0.6,1.2-1,1.6c-0.4,0.4-1,0.5-1.7,0.5
			c-0.9,0-1.6-0.3-2.1-1C16.1,664.6,15.8,663.3,15.8,661.5z M16.9,661.5c0,1.5,0.2,2.5,0.5,3c0.3,0.5,0.8,0.8,1.3,0.8s1-0.3,1.3-0.8
			s0.5-1.5,0.5-3s-0.2-2.5-0.5-3.1c-0.3-0.6-0.8-0.8-1.3-0.8s-0.9,0.2-1.3,0.7C17.1,659,16.9,660,16.9,661.5z"/>
	</g>
	<g>
		<path d="M14.5,644.2v1.1H8.4c0-0.3,0-0.5,0.1-0.8c0.2-0.4,0.4-0.8,0.8-1.2c0.4-0.4,0.8-0.9,1.5-1.4c1-0.8,1.7-1.5,2.1-2
			s0.5-0.9,0.5-1.4s-0.2-0.8-0.5-1.1c-0.3-0.3-0.7-0.5-1.3-0.5c-0.5,0-1,0.2-1.3,0.5c-0.3,0.3-0.5,0.8-0.5,1.4l-1.2-0.1
			c0.1-0.9,0.4-1.5,0.9-2s1.2-0.7,2.1-0.7s1.6,0.2,2.1,0.7s0.8,1.1,0.8,1.8c0,0.4-0.1,0.7-0.2,1.1c-0.1,0.4-0.4,0.7-0.8,1.1
			c-0.4,0.4-0.9,0.9-1.8,1.6c-0.7,0.6-1.1,1-1.3,1.2c-0.2,0.2-0.4,0.4-0.5,0.6h4.6V644.2z"/>
		<path d="M15.8,642.9l1.2-0.1c0.1,0.6,0.3,1,0.6,1.3c0.3,0.3,0.7,0.4,1.2,0.4s1-0.2,1.4-0.6c0.4-0.4,0.6-1,0.6-1.7
			s-0.2-1.2-0.5-1.5c-0.3-0.3-0.8-0.6-1.4-0.6c-0.4,0-0.7,0.1-1,0.3c-0.3,0.2-0.5,0.4-0.7,0.7l-1.1-0.1l0.9-4.8h4.6v1.1h-3.7
			l-0.5,2.5c0.6-0.4,1.1-0.6,1.8-0.6c0.8,0,1.5,0.3,2.1,0.8c0.6,0.6,0.8,1.3,0.8,2.2c0,0.8-0.2,1.6-0.7,2.2
			c-0.6,0.8-1.4,1.1-2.4,1.1c-0.8,0-1.5-0.2-2.1-0.7C16.2,644.3,15.8,643.6,15.8,642.9z"/>
	</g>
	<g>
		<path d="M8.5,622l1.1-0.2c0.1,0.6,0.4,1.1,0.7,1.4c0.3,0.3,0.7,0.4,1.2,0.4s1-0.2,1.4-0.6s0.6-0.8,0.6-1.4c0-0.5-0.2-1-0.5-1.3
			s-0.8-0.5-1.3-0.5c-0.2,0-0.5,0-0.8,0.1l0.1-1c0.1,0,0.1,0,0.2,0c0.5,0,0.9-0.1,1.3-0.4s0.6-0.6,0.6-1.2c0-0.4-0.1-0.8-0.4-1
			c-0.3-0.3-0.6-0.4-1.1-0.4c-0.4,0-0.8,0.1-1.1,0.4s-0.5,0.7-0.6,1.3l-1.1-0.2c0.1-0.8,0.5-1.4,1-1.8c0.5-0.4,1.1-0.6,1.8-0.6
			c0.5,0,1,0.1,1.4,0.3s0.8,0.5,1,0.9c0.2,0.4,0.3,0.8,0.3,1.2c0,0.4-0.1,0.8-0.3,1.1s-0.5,0.6-1,0.8c0.5,0.1,1,0.4,1.3,0.8
			c0.3,0.4,0.5,0.9,0.5,1.5c0,0.8-0.3,1.5-0.9,2.1c-0.6,0.6-1.3,0.8-2.2,0.8c-0.8,0-1.5-0.2-2-0.7C8.9,623.4,8.6,622.8,8.5,622z"/>
		<path d="M15.8,619.9c0-1.1,0.1-2,0.3-2.7c0.2-0.7,0.6-1.2,1-1.6c0.4-0.4,1-0.5,1.7-0.5c0.5,0,0.9,0.1,1.3,0.3
			c0.4,0.2,0.7,0.5,0.9,0.9c0.2,0.4,0.4,0.8,0.6,1.4c0.2,0.6,0.2,1.3,0.2,2.2c0,1.1-0.1,2-0.3,2.6s-0.6,1.2-1,1.6
			c-0.4,0.4-1,0.5-1.7,0.5c-0.9,0-1.6-0.3-2.1-1C16.1,622.9,15.8,621.6,15.8,619.9z M16.9,619.9c0,1.5,0.2,2.5,0.5,3
			c0.3,0.5,0.8,0.8,1.3,0.8s1-0.3,1.3-0.8s0.5-1.5,0.5-3s-0.2-2.5-0.5-3.1c-0.3-0.6-0.8-0.8-1.3-0.8s-0.9,0.2-1.3,0.7
			C17.1,617.3,16.9,618.3,16.9,619.9z"/>
	</g>
	<g>
		<path d="M8.5,601.2l1.1-0.2c0.1,0.6,0.4,1.1,0.7,1.4c0.3,0.3,0.7,0.4,1.2,0.4s1-0.2,1.4-0.6c0.4-0.4,0.6-0.8,0.6-1.4
			c0-0.5-0.2-1-0.5-1.3s-0.8-0.5-1.3-0.5c-0.2,0-0.5,0-0.8,0.1l0.1-1c0.1,0,0.1,0,0.2,0c0.5,0,0.9-0.1,1.3-0.4s0.6-0.6,0.6-1.2
			c0-0.4-0.1-0.8-0.4-1c-0.3-0.3-0.6-0.4-1.1-0.4c-0.4,0-0.8,0.1-1.1,0.4s-0.5,0.7-0.6,1.3l-1.1-0.2c0.1-0.8,0.5-1.4,1-1.8
			c0.5-0.4,1.1-0.6,1.8-0.6c0.5,0,1,0.1,1.4,0.3s0.8,0.5,1,0.9c0.2,0.4,0.3,0.8,0.3,1.2c0,0.4-0.1,0.8-0.3,1.1s-0.5,0.6-1,0.8
			c0.5,0.1,1,0.4,1.3,0.8c0.3,0.4,0.5,0.9,0.5,1.5c0,0.8-0.3,1.5-0.9,2.1c-0.6,0.6-1.3,0.8-2.2,0.8c-0.8,0-1.5-0.2-2-0.7
			C8.9,602.6,8.6,601.9,8.5,601.2z"/>
		<path d="M15.8,601.2l1.2-0.1c0.1,0.6,0.3,1,0.6,1.3c0.3,0.3,0.7,0.4,1.2,0.4s1-0.2,1.4-0.6c0.4-0.4,0.6-1,0.6-1.7
			s-0.2-1.2-0.5-1.5c-0.3-0.3-0.8-0.6-1.4-0.6c-0.4,0-0.7,0.1-1,0.3c-0.3,0.2-0.5,0.4-0.7,0.7l-1.1-0.1l0.9-4.8h4.6v1.1h-3.7
			l-0.5,2.5c0.6-0.4,1.1-0.6,1.8-0.6c0.8,0,1.5,0.3,2.1,0.8c0.6,0.6,0.8,1.3,0.8,2.2c0,0.8-0.2,1.6-0.7,2.2
			c-0.6,0.8-1.4,1.1-2.4,1.1c-0.8,0-1.5-0.2-2.1-0.7C16.2,602.6,15.8,602,15.8,601.2z"/>
	</g>
	<g>
		<path d="M12.2,582.8v-2.2h-4v-1l4.2-6h0.9v6h1.3v1h-1.3v2.2H12.2z M12.2,579.5v-4.2l-2.9,4.2H12.2z"/>
		<path d="M15.8,578.2c0-1.1,0.1-2,0.3-2.7c0.2-0.7,0.6-1.2,1-1.6c0.4-0.4,1-0.5,1.7-0.5c0.5,0,0.9,0.1,1.3,0.3s0.7,0.5,0.9,0.9
			c0.2,0.4,0.4,0.8,0.6,1.4c0.2,0.6,0.2,1.3,0.2,2.2c0,1.1-0.1,2-0.3,2.6c-0.2,0.6-0.6,1.2-1,1.6c-0.4,0.4-1,0.5-1.7,0.5
			c-0.9,0-1.6-0.3-2.1-1C16.1,581.2,15.8,579.9,15.8,578.2z M16.9,578.2c0,1.5,0.2,2.5,0.5,3c0.3,0.5,0.8,0.8,1.3,0.8s1-0.3,1.3-0.8
			s0.5-1.5,0.5-3s-0.2-2.5-0.5-3.1c-0.3-0.6-0.8-0.8-1.3-0.8s-0.9,0.2-1.3,0.7C17.1,575.6,16.9,576.7,16.9,578.2z"/>
	</g>
	<g>
		<path d="M12.2,561.9v-2.2h-4v-1l4.2-6h0.9v6h1.3v1h-1.3v2.2H12.2z M12.2,558.6v-4.2l-2.9,4.2H12.2z"/>
		<path d="M15.8,559.5l1.2-0.1c0.1,0.6,0.3,1,0.6,1.3c0.3,0.3,0.7,0.4,1.2,0.4s1-0.2,1.4-0.6c0.4-0.4,0.6-1,0.6-1.7
			s-0.2-1.2-0.5-1.5c-0.3-0.3-0.8-0.6-1.4-0.6c-0.4,0-0.7,0.1-1,0.3c-0.3,0.2-0.5,0.4-0.7,0.7l-1.1-0.1l0.9-4.8h4.6v1.1h-3.7
			l-0.5,2.5c0.6-0.4,1.1-0.6,1.8-0.6c0.8,0,1.5,0.3,2.1,0.8c0.6,0.6,0.8,1.3,0.8,2.2c0,0.8-0.2,1.6-0.7,2.2
			c-0.6,0.8-1.4,1.1-2.4,1.1c-0.8,0-1.5-0.2-2.1-0.7C16.2,560.9,15.8,560.3,15.8,559.5z"/>
	</g>
	<path d="M15.8,726.5l1.2-0.1c0.1,0.6,0.3,1,0.6,1.3c0.3,0.3,0.7,0.4,1.2,0.4s1-0.2,1.4-0.6c0.4-0.4,0.6-1,0.6-1.7s-0.2-1.2-0.5-1.5
		c-0.3-0.3-0.8-0.6-1.4-0.6c-0.4,0-0.7,0.1-1,0.3c-0.3,0.2-0.5,0.4-0.7,0.7l-1.1-0.1l0.9-4.8h4.6v1.1h-3.7l-0.5,2.5
		c0.6-0.4,1.1-0.6,1.8-0.6c0.8,0,1.5,0.3,2.1,0.8c0.6,0.6,0.8,1.3,0.8,2.2c0,0.8-0.2,1.6-0.7,2.2c-0.6,0.8-1.4,1.1-2.4,1.1
		c-0.8,0-1.5-0.2-2.1-0.7C16.2,728,15.8,727.3,15.8,726.5z"/>
	<g>
		<path d="M16.5,536.1c0-1.1,0.1-2,0.3-2.7c0.2-0.7,0.6-1.2,1-1.6c0.4-0.4,1-0.5,1.7-0.5c0.5,0,0.9,0.1,1.3,0.3
			c0.4,0.2,0.7,0.5,0.9,0.9c0.2,0.4,0.4,0.8,0.6,1.4c0.2,0.6,0.2,1.3,0.2,2.2c0,1.1-0.1,2-0.3,2.6c-0.2,0.6-0.6,1.2-1,1.6
			c-0.4,0.4-1,0.5-1.7,0.5c-0.9,0-1.6-0.3-2.1-1C16.8,539.1,16.5,537.8,16.5,536.1z M17.7,536.1c0,1.5,0.2,2.5,0.5,3
			c0.3,0.5,0.8,0.8,1.3,0.8s1-0.3,1.3-0.8c0.3-0.5,0.5-1.5,0.5-3s-0.2-2.5-0.5-3.1c-0.3-0.6-0.8-0.8-1.3-0.8s-0.9,0.2-1.3,0.7
			C17.9,533.5,17.7,534.5,17.7,536.1z"/>
	</g>
	<g>
		<path d="M12.8,499.8h-1.1v-7.3c-0.3,0.3-0.6,0.5-1.1,0.8c-0.4,0.3-0.8,0.5-1.2,0.6v-1.1c0.6-0.3,1.2-0.7,1.7-1.1
			c0.5-0.4,0.8-0.8,1-1.2h0.7V499.8z"/>
		<path d="M15.8,495.2c0-1.1,0.1-2,0.3-2.7c0.2-0.7,0.6-1.2,1-1.6c0.4-0.4,1-0.5,1.7-0.5c0.5,0,0.9,0.1,1.3,0.3s0.7,0.5,0.9,0.9
			c0.2,0.4,0.4,0.8,0.6,1.4c0.2,0.6,0.2,1.3,0.2,2.2c0,1.1-0.1,2-0.3,2.6c-0.2,0.6-0.6,1.2-1,1.6c-0.4,0.4-1,0.5-1.7,0.5
			c-0.9,0-1.6-0.3-2.1-1C16.1,498.2,15.8,497,15.8,495.2z M16.9,495.2c0,1.5,0.2,2.5,0.5,3c0.3,0.5,0.8,0.8,1.3,0.8s1-0.3,1.3-0.8
			s0.5-1.5,0.5-3s-0.2-2.5-0.5-3.1c-0.3-0.6-0.8-0.8-1.3-0.8s-0.9,0.2-1.3,0.7C17.1,492.7,16.9,493.7,16.9,495.2z"/>
	</g>
	<g>
		<path d="M12.8,479h-1.1v-7.3c-0.3,0.3-0.6,0.5-1.1,0.8c-0.4,0.3-0.8,0.5-1.2,0.6V472c0.6-0.3,1.2-0.7,1.7-1.1
			c0.5-0.4,0.8-0.8,1-1.2h0.7V479z"/>
		<path d="M15.8,476.5l1.2-0.1c0.1,0.6,0.3,1,0.6,1.3c0.3,0.3,0.7,0.4,1.2,0.4s1-0.2,1.4-0.6c0.4-0.4,0.6-1,0.6-1.7
			s-0.2-1.2-0.5-1.5c-0.3-0.3-0.8-0.6-1.4-0.6c-0.4,0-0.7,0.1-1,0.3c-0.3,0.2-0.5,0.4-0.7,0.7l-1.1-0.1l0.9-4.8h4.6v1.1h-3.7
			l-0.5,2.5c0.6-0.4,1.1-0.6,1.8-0.6c0.8,0,1.5,0.3,2.1,0.8c0.6,0.6,0.8,1.3,0.8,2.2c0,0.8-0.2,1.6-0.7,2.2
			c-0.6,0.8-1.4,1.1-2.4,1.1c-0.8,0-1.5-0.2-2.1-0.7C16.2,478,15.8,477.3,15.8,476.5z"/>
	</g>
	<g>
		<path d="M14.5,457v1.1H8.4c0-0.3,0-0.5,0.1-0.8c0.2-0.4,0.4-0.8,0.8-1.2c0.4-0.4,0.8-0.9,1.5-1.4c1-0.8,1.7-1.5,2.1-2
			s0.5-0.9,0.5-1.4s-0.2-0.8-0.5-1.1c-0.3-0.3-0.7-0.5-1.3-0.5c-0.5,0-1,0.2-1.3,0.5c-0.3,0.3-0.5,0.8-0.5,1.4l-1.2-0.1
			c0.1-0.9,0.4-1.5,0.9-2s1.2-0.7,2.1-0.7s1.6,0.2,2.1,0.7s0.8,1.1,0.8,1.8c0,0.4-0.1,0.7-0.2,1.1c-0.1,0.4-0.4,0.7-0.8,1.1
			s-0.9,0.9-1.8,1.6c-0.7,0.6-1.1,1-1.3,1.2c-0.2,0.2-0.4,0.4-0.5,0.6h4.6V457z"/>
		<path d="M15.8,453.5c0-1.1,0.1-2,0.3-2.7c0.2-0.7,0.6-1.2,1-1.6c0.4-0.4,1-0.5,1.7-0.5c0.5,0,0.9,0.1,1.3,0.3s0.7,0.5,0.9,0.9
			c0.2,0.4,0.4,0.8,0.6,1.4c0.2,0.6,0.2,1.3,0.2,2.2c0,1.1-0.1,2-0.3,2.6c-0.2,0.6-0.6,1.2-1,1.6c-0.4,0.4-1,0.5-1.7,0.5
			c-0.9,0-1.6-0.3-2.1-1C16.1,456.6,15.8,455.3,15.8,453.5z M16.9,453.5c0,1.5,0.2,2.5,0.5,3c0.3,0.5,0.8,0.8,1.3,0.8s1-0.3,1.3-0.8
			s0.5-1.5,0.5-3s-0.2-2.5-0.5-3.1c-0.3-0.6-0.8-0.8-1.3-0.8s-0.9,0.2-1.3,0.7C17.1,451,16.9,452,16.9,453.5z"/>
	</g>
	<g>
		<path d="M14.5,436.2v1.1H8.4c0-0.3,0-0.5,0.1-0.8c0.2-0.4,0.4-0.8,0.8-1.2c0.4-0.4,0.8-0.9,1.5-1.4c1-0.8,1.7-1.5,2.1-2
			s0.5-0.9,0.5-1.4s-0.2-0.8-0.5-1.1c-0.3-0.3-0.7-0.5-1.3-0.5c-0.5,0-1,0.2-1.3,0.5c-0.3,0.3-0.5,0.8-0.5,1.4l-1.2-0.1
			c0.1-0.9,0.4-1.5,0.9-2s1.2-0.7,2.1-0.7s1.6,0.2,2.1,0.7s0.8,1.1,0.8,1.8c0,0.4-0.1,0.7-0.2,1.1c-0.1,0.4-0.4,0.7-0.8,1.1
			c-0.4,0.4-0.9,0.9-1.8,1.6c-0.7,0.6-1.1,1-1.3,1.2c-0.2,0.2-0.4,0.4-0.5,0.6h4.6V436.2z"/>
		<path d="M15.8,434.9l1.2-0.1c0.1,0.6,0.3,1,0.6,1.3c0.3,0.3,0.7,0.4,1.2,0.4s1-0.2,1.4-0.6c0.4-0.4,0.6-1,0.6-1.7
			s-0.2-1.2-0.5-1.5c-0.3-0.3-0.8-0.6-1.4-0.6c-0.4,0-0.7,0.1-1,0.3c-0.3,0.2-0.5,0.4-0.7,0.7l-1.1-0.1l0.9-4.8h4.6v1.1h-3.7
			l-0.5,2.5c0.6-0.4,1.1-0.6,1.8-0.6c0.8,0,1.5,0.3,2.1,0.8c0.6,0.6,0.8,1.3,0.8,2.2c0,0.8-0.2,1.6-0.7,2.2
			c-0.6,0.8-1.4,1.1-2.4,1.1c-0.8,0-1.5-0.2-2.1-0.7C16.2,436.3,15.8,435.6,15.8,434.9z"/>
	</g>
	<g>
		<path d="M8.5,414l1.1-0.2c0.1,0.6,0.4,1.1,0.7,1.4c0.3,0.3,0.7,0.4,1.2,0.4s1-0.2,1.4-0.6s0.6-0.8,0.6-1.4c0-0.5-0.2-1-0.5-1.3
			s-0.8-0.5-1.3-0.5c-0.2,0-0.5,0-0.8,0.1l0.1-1c0.1,0,0.1,0,0.2,0c0.5,0,0.9-0.1,1.3-0.4s0.6-0.6,0.6-1.2c0-0.4-0.1-0.8-0.4-1
			c-0.3-0.3-0.6-0.4-1.1-0.4c-0.4,0-0.8,0.1-1.1,0.4s-0.5,0.7-0.6,1.3l-1.1-0.2c0.1-0.8,0.5-1.4,1-1.8c0.5-0.4,1.1-0.6,1.8-0.6
			c0.5,0,1,0.1,1.4,0.3s0.8,0.5,1,0.9c0.2,0.4,0.3,0.8,0.3,1.2c0,0.4-0.1,0.8-0.3,1.1s-0.5,0.6-1,0.8c0.5,0.1,1,0.4,1.3,0.8
			c0.3,0.4,0.5,0.9,0.5,1.5c0,0.8-0.3,1.5-0.9,2.1c-0.6,0.6-1.3,0.8-2.2,0.8c-0.8,0-1.5-0.2-2-0.7C8.9,415.4,8.6,414.8,8.5,414z"/>
		<path d="M15.8,411.9c0-1.1,0.1-2,0.3-2.7c0.2-0.7,0.6-1.2,1-1.6c0.4-0.4,1-0.5,1.7-0.5c0.5,0,0.9,0.1,1.3,0.3
			c0.4,0.2,0.7,0.5,0.9,0.9c0.2,0.4,0.4,0.8,0.6,1.4c0.2,0.6,0.2,1.3,0.2,2.2c0,1.1-0.1,2-0.3,2.6s-0.6,1.2-1,1.6
			c-0.4,0.4-1,0.5-1.7,0.5c-0.9,0-1.6-0.3-2.1-1C16.1,414.9,15.8,413.6,15.8,411.9z M16.9,411.9c0,1.5,0.2,2.5,0.5,3
			c0.3,0.5,0.8,0.8,1.3,0.8s1-0.3,1.3-0.8s0.5-1.5,0.5-3s-0.2-2.5-0.5-3.1c-0.3-0.6-0.8-0.8-1.3-0.8s-0.9,0.2-1.3,0.7
			C17.1,409.3,16.9,410.3,16.9,411.9z"/>
	</g>
	<g>
		<path d="M8.5,393.2l1.1-0.2c0.1,0.6,0.4,1.1,0.7,1.4c0.3,0.3,0.7,0.4,1.2,0.4s1-0.2,1.4-0.6c0.4-0.4,0.6-0.8,0.6-1.4
			c0-0.5-0.2-1-0.5-1.3s-0.8-0.5-1.3-0.5c-0.2,0-0.5,0-0.8,0.1l0.1-1c0.1,0,0.1,0,0.2,0c0.5,0,0.9-0.1,1.3-0.4s0.6-0.6,0.6-1.2
			c0-0.4-0.1-0.8-0.4-1c-0.3-0.3-0.6-0.4-1.1-0.4c-0.4,0-0.8,0.1-1.1,0.4s-0.5,0.7-0.6,1.3l-1.1-0.2c0.1-0.8,0.5-1.4,1-1.8
			c0.5-0.4,1.1-0.6,1.8-0.6c0.5,0,1,0.1,1.4,0.3s0.8,0.5,1,0.9c0.2,0.4,0.3,0.8,0.3,1.2c0,0.4-0.1,0.8-0.3,1.1s-0.5,0.6-1,0.8
			c0.5,0.1,1,0.4,1.3,0.8c0.3,0.4,0.5,0.9,0.5,1.5c0,0.8-0.3,1.5-0.9,2.1c-0.6,0.6-1.3,0.8-2.2,0.8c-0.8,0-1.5-0.2-2-0.7
			C8.9,394.6,8.6,393.9,8.5,393.2z"/>
		<path d="M15.8,393.2l1.2-0.1c0.1,0.6,0.3,1,0.6,1.3c0.3,0.3,0.7,0.4,1.2,0.4s1-0.2,1.4-0.6c0.4-0.4,0.6-1,0.6-1.7
			s-0.2-1.2-0.5-1.5c-0.3-0.3-0.8-0.6-1.4-0.6c-0.4,0-0.7,0.1-1,0.3c-0.3,0.2-0.5,0.4-0.7,0.7l-1.1-0.1l0.9-4.8h4.6v1.1h-3.7
			l-0.5,2.5c0.6-0.4,1.1-0.6,1.8-0.6c0.8,0,1.5,0.3,2.1,0.8c0.6,0.6,0.8,1.3,0.8,2.2c0,0.8-0.2,1.6-0.7,2.2
			c-0.6,0.8-1.4,1.1-2.4,1.1c-0.8,0-1.5-0.2-2.1-0.7C16.2,394.6,15.8,394,15.8,393.2z"/>
	</g>
	<g>
		<path d="M12.2,374.8v-2.2h-4v-1l4.2-6h0.9v6h1.3v1h-1.3v2.2H12.2z M12.2,371.5v-4.2l-2.9,4.2H12.2z"/>
		<path d="M15.8,370.2c0-1.1,0.1-2,0.3-2.7c0.2-0.7,0.6-1.2,1-1.6c0.4-0.4,1-0.5,1.7-0.5c0.5,0,0.9,0.1,1.3,0.3s0.7,0.5,0.9,0.9
			c0.2,0.4,0.4,0.8,0.6,1.4c0.2,0.6,0.2,1.3,0.2,2.2c0,1.1-0.1,2-0.3,2.6c-0.2,0.6-0.6,1.2-1,1.6c-0.4,0.4-1,0.5-1.7,0.5
			c-0.9,0-1.6-0.3-2.1-1C16.1,373.2,15.8,371.9,15.8,370.2z M16.9,370.2c0,1.5,0.2,2.5,0.5,3c0.3,0.5,0.8,0.8,1.3,0.8s1-0.3,1.3-0.8
			s0.5-1.5,0.5-3s-0.2-2.5-0.5-3.1c-0.3-0.6-0.8-0.8-1.3-0.8s-0.9,0.2-1.3,0.7C17.1,367.6,16.9,368.7,16.9,370.2z"/>
	</g>
	<g>
		<path d="M12.2,353.9v-2.2h-4v-1l4.2-6h0.9v6h1.3v1h-1.3v2.2H12.2z M12.2,350.6v-4.2l-2.9,4.2H12.2z"/>
		<path d="M15.8,351.5l1.2-0.1c0.1,0.6,0.3,1,0.6,1.3c0.3,0.3,0.7,0.4,1.2,0.4s1-0.2,1.4-0.6c0.4-0.4,0.6-1,0.6-1.7
			s-0.2-1.2-0.5-1.5c-0.3-0.3-0.8-0.6-1.4-0.6c-0.4,0-0.7,0.1-1,0.3c-0.3,0.2-0.5,0.4-0.7,0.7l-1.1-0.1l0.9-4.8h4.6v1.1h-3.7
			l-0.5,2.5c0.6-0.4,1.1-0.6,1.8-0.6c0.8,0,1.5,0.3,2.1,0.8c0.6,0.6,0.8,1.3,0.8,2.2c0,0.8-0.2,1.6-0.7,2.2
			c-0.6,0.8-1.4,1.1-2.4,1.1c-0.8,0-1.5-0.2-2.1-0.7C16.2,352.9,15.8,352.3,15.8,351.5z"/>
	</g>
	<path d="M15.8,518.5l1.2-0.1c0.1,0.6,0.3,1,0.6,1.3c0.3,0.3,0.7,0.4,1.2,0.4s1-0.2,1.4-0.6c0.4-0.4,0.6-1,0.6-1.7s-0.2-1.2-0.5-1.5
		c-0.3-0.3-0.8-0.6-1.4-0.6c-0.4,0-0.7,0.1-1,0.3c-0.3,0.2-0.5,0.4-0.7,0.7l-1.1-0.1l0.9-4.8h4.6v1.1h-3.7l-0.5,2.5
		c0.6-0.4,1.1-0.6,1.8-0.6c0.8,0,1.5,0.3,2.1,0.8c0.6,0.6,0.8,1.3,0.8,2.2c0,0.8-0.2,1.6-0.7,2.2c-0.6,0.8-1.4,1.1-2.4,1.1
		c-0.8,0-1.5-0.2-2.1-0.7C16.2,520,15.8,519.3,15.8,518.5z"/>
	<g>
		<path d="M16.5,328.1c0-1.1,0.1-2,0.3-2.7c0.2-0.7,0.6-1.2,1-1.6c0.4-0.4,1-0.5,1.7-0.5c0.5,0,0.9,0.1,1.3,0.3
			c0.4,0.2,0.7,0.5,0.9,0.9c0.2,0.4,0.4,0.8,0.6,1.4c0.2,0.6,0.2,1.3,0.2,2.2c0,1.1-0.1,2-0.3,2.6c-0.2,0.6-0.6,1.2-1,1.6
			c-0.4,0.4-1,0.5-1.7,0.5c-0.9,0-1.6-0.3-2.1-1C16.8,331.1,16.5,329.8,16.5,328.1z M17.7,328.1c0,1.5,0.2,2.5,0.5,3
			c0.3,0.5,0.8,0.8,1.3,0.8s1-0.3,1.3-0.8c0.3-0.5,0.5-1.5,0.5-3s-0.2-2.5-0.5-3.1c-0.3-0.6-0.8-0.8-1.3-0.8s-0.9,0.2-1.3,0.7
			C17.9,325.5,17.7,326.5,17.7,328.1z"/>
	</g>
	<g>
		<path d="M12.8,291.8h-1.1v-7.3c-0.3,0.3-0.6,0.5-1.1,0.8c-0.4,0.3-0.8,0.5-1.2,0.6v-1.1c0.6-0.3,1.2-0.7,1.7-1.1
			c0.5-0.4,0.8-0.8,1-1.2h0.7V291.8z"/>
		<path d="M15.8,287.2c0-1.1,0.1-2,0.3-2.7c0.2-0.7,0.6-1.2,1-1.6c0.4-0.4,1-0.5,1.7-0.5c0.5,0,0.9,0.1,1.3,0.3s0.7,0.5,0.9,0.9
			c0.2,0.4,0.4,0.8,0.6,1.4c0.2,0.6,0.2,1.3,0.2,2.2c0,1.1-0.1,2-0.3,2.6c-0.2,0.6-0.6,1.2-1,1.6c-0.4,0.4-1,0.5-1.7,0.5
			c-0.9,0-1.6-0.3-2.1-1C16.1,290.2,15.8,289,15.8,287.2z M16.9,287.2c0,1.5,0.2,2.5,0.5,3c0.3,0.5,0.8,0.8,1.3,0.8s1-0.3,1.3-0.8
			s0.5-1.5,0.5-3s-0.2-2.5-0.5-3.1c-0.3-0.6-0.8-0.8-1.3-0.8s-0.9,0.2-1.3,0.7C17.1,284.7,16.9,285.7,16.9,287.2z"/>
	</g>
	<g>
		<path d="M12.8,271h-1.1v-7.3c-0.3,0.3-0.6,0.5-1.1,0.8c-0.4,0.3-0.8,0.5-1.2,0.6V264c0.6-0.3,1.2-0.7,1.7-1.1
			c0.5-0.4,0.8-0.8,1-1.2h0.7V271z"/>
		<path d="M15.8,268.5l1.2-0.1c0.1,0.6,0.3,1,0.6,1.3c0.3,0.3,0.7,0.4,1.2,0.4s1-0.2,1.4-0.6c0.4-0.4,0.6-1,0.6-1.7
			s-0.2-1.2-0.5-1.5c-0.3-0.3-0.8-0.6-1.4-0.6c-0.4,0-0.7,0.1-1,0.3c-0.3,0.2-0.5,0.4-0.7,0.7l-1.1-0.1l0.9-4.8h4.6v1.1h-3.7
			l-0.5,2.5c0.6-0.4,1.1-0.6,1.8-0.6c0.8,0,1.5,0.3,2.1,0.8c0.6,0.6,0.8,1.3,0.8,2.2c0,0.8-0.2,1.6-0.7,2.2
			c-0.6,0.8-1.4,1.1-2.4,1.1c-0.8,0-1.5-0.2-2.1-0.7C16.2,270,15.8,269.3,15.8,268.5z"/>
	</g>
	<g>
		<path d="M14.5,249v1.1H8.4c0-0.3,0-0.5,0.1-0.8c0.2-0.4,0.4-0.8,0.8-1.2c0.4-0.4,0.8-0.9,1.5-1.4c1-0.8,1.7-1.5,2.1-2
			s0.5-0.9,0.5-1.4s-0.2-0.8-0.5-1.1c-0.3-0.3-0.7-0.5-1.3-0.5c-0.5,0-1,0.2-1.3,0.5c-0.3,0.3-0.5,0.8-0.5,1.4l-1.2-0.1
			c0.1-0.9,0.4-1.5,0.9-2s1.2-0.7,2.1-0.7s1.6,0.2,2.1,0.7s0.8,1.1,0.8,1.8c0,0.4-0.1,0.7-0.2,1.1c-0.1,0.4-0.4,0.7-0.8,1.1
			s-0.9,0.9-1.8,1.6c-0.7,0.6-1.1,1-1.3,1.2c-0.2,0.2-0.4,0.4-0.5,0.6h4.6V249z"/>
		<path d="M15.8,245.5c0-1.1,0.1-2,0.3-2.7c0.2-0.7,0.6-1.2,1-1.6c0.4-0.4,1-0.5,1.7-0.5c0.5,0,0.9,0.1,1.3,0.3s0.7,0.5,0.9,0.9
			c0.2,0.4,0.4,0.8,0.6,1.4c0.2,0.6,0.2,1.3,0.2,2.2c0,1.1-0.1,2-0.3,2.6c-0.2,0.6-0.6,1.2-1,1.6c-0.4,0.4-1,0.5-1.7,0.5
			c-0.9,0-1.6-0.3-2.1-1C16.1,248.6,15.8,247.3,15.8,245.5z M16.9,245.5c0,1.5,0.2,2.5,0.5,3c0.3,0.5,0.8,0.8,1.3,0.8s1-0.3,1.3-0.8
			s0.5-1.5,0.5-3s-0.2-2.5-0.5-3.1c-0.3-0.6-0.8-0.8-1.3-0.8s-0.9,0.2-1.3,0.7C17.1,243,16.9,244,16.9,245.5z"/>
	</g>
	<g>
		<path d="M14.5,228.2v1.1H8.4c0-0.3,0-0.5,0.1-0.8c0.2-0.4,0.4-0.8,0.8-1.2c0.4-0.4,0.8-0.9,1.5-1.4c1-0.8,1.7-1.5,2.1-2
			s0.5-0.9,0.5-1.4s-0.2-0.8-0.5-1.1c-0.3-0.3-0.7-0.5-1.3-0.5c-0.5,0-1,0.2-1.3,0.5c-0.3,0.3-0.5,0.8-0.5,1.4l-1.2-0.1
			c0.1-0.9,0.4-1.5,0.9-2s1.2-0.7,2.1-0.7s1.6,0.2,2.1,0.7s0.8,1.1,0.8,1.8c0,0.4-0.1,0.7-0.2,1.1c-0.1,0.4-0.4,0.7-0.8,1.1
			c-0.4,0.4-0.9,0.9-1.8,1.6c-0.7,0.6-1.1,1-1.3,1.2c-0.2,0.2-0.4,0.4-0.5,0.6h4.6V228.2z"/>
		<path d="M15.8,226.9l1.2-0.1c0.1,0.6,0.3,1,0.6,1.3c0.3,0.3,0.7,0.4,1.2,0.4s1-0.2,1.4-0.6c0.4-0.4,0.6-1,0.6-1.7
			s-0.2-1.2-0.5-1.5c-0.3-0.3-0.8-0.6-1.4-0.6c-0.4,0-0.7,0.1-1,0.3c-0.3,0.2-0.5,0.4-0.7,0.7l-1.1-0.1l0.9-4.8h4.6v1.1h-3.7
			l-0.5,2.5c0.6-0.4,1.1-0.6,1.8-0.6c0.8,0,1.5,0.3,2.1,0.8c0.6,0.6,0.8,1.3,0.8,2.2c0,0.8-0.2,1.6-0.7,2.2
			c-0.6,0.8-1.4,1.1-2.4,1.1c-0.8,0-1.5-0.2-2.1-0.7C16.2,228.3,15.8,227.6,15.8,226.9z"/>
	</g>
	<g>
		<path d="M8.5,206l1.1-0.2c0.1,0.6,0.4,1.1,0.7,1.4c0.3,0.3,0.7,0.4,1.2,0.4s1-0.2,1.4-0.6s0.6-0.8,0.6-1.4c0-0.5-0.2-1-0.5-1.3
			s-0.8-0.5-1.3-0.5c-0.2,0-0.5,0-0.8,0.1l0.1-1c0.1,0,0.1,0,0.2,0c0.5,0,0.9-0.1,1.3-0.4s0.6-0.6,0.6-1.2c0-0.4-0.1-0.8-0.4-1
			c-0.3-0.3-0.6-0.4-1.1-0.4c-0.4,0-0.8,0.1-1.1,0.4s-0.5,0.7-0.6,1.3l-1.1-0.2c0.1-0.8,0.5-1.4,1-1.8c0.5-0.4,1.1-0.6,1.8-0.6
			c0.5,0,1,0.1,1.4,0.3s0.8,0.5,1,0.9c0.2,0.4,0.3,0.8,0.3,1.2c0,0.4-0.1,0.8-0.3,1.1s-0.5,0.6-1,0.8c0.5,0.1,1,0.4,1.3,0.8
			c0.3,0.4,0.5,0.9,0.5,1.5c0,0.8-0.3,1.5-0.9,2.1c-0.6,0.6-1.3,0.8-2.2,0.8c-0.8,0-1.5-0.2-2-0.7C8.9,207.4,8.6,206.8,8.5,206z"/>
		<path d="M15.8,203.9c0-1.1,0.1-2,0.3-2.7c0.2-0.7,0.6-1.2,1-1.6c0.4-0.4,1-0.5,1.7-0.5c0.5,0,0.9,0.1,1.3,0.3
			c0.4,0.2,0.7,0.5,0.9,0.9c0.2,0.4,0.4,0.8,0.6,1.4c0.2,0.6,0.2,1.3,0.2,2.2c0,1.1-0.1,2-0.3,2.6s-0.6,1.2-1,1.6
			c-0.4,0.4-1,0.5-1.7,0.5c-0.9,0-1.6-0.3-2.1-1C16.1,206.9,15.8,205.6,15.8,203.9z M16.9,203.9c0,1.5,0.2,2.5,0.5,3
			c0.3,0.5,0.8,0.8,1.3,0.8s1-0.3,1.3-0.8s0.5-1.5,0.5-3s-0.2-2.5-0.5-3.1c-0.3-0.6-0.8-0.8-1.3-0.8s-0.9,0.2-1.3,0.7
			C17.1,201.3,16.9,202.3,16.9,203.9z"/>
	</g>
	<g>
		<path d="M8.5,185.2l1.1-0.2c0.1,0.6,0.4,1.1,0.7,1.4c0.3,0.3,0.7,0.4,1.2,0.4s1-0.2,1.4-0.6c0.4-0.4,0.6-0.8,0.6-1.4
			c0-0.5-0.2-1-0.5-1.3s-0.8-0.5-1.3-0.5c-0.2,0-0.5,0-0.8,0.1l0.1-1c0.1,0,0.1,0,0.2,0c0.5,0,0.9-0.1,1.3-0.4s0.6-0.6,0.6-1.2
			c0-0.4-0.1-0.8-0.4-1c-0.3-0.3-0.6-0.4-1.1-0.4c-0.4,0-0.8,0.1-1.1,0.4s-0.5,0.7-0.6,1.3l-1.1-0.2c0.1-0.8,0.5-1.4,1-1.8
			c0.5-0.4,1.1-0.6,1.8-0.6c0.5,0,1,0.1,1.4,0.3s0.8,0.5,1,0.9c0.2,0.4,0.3,0.8,0.3,1.2c0,0.4-0.1,0.8-0.3,1.1s-0.5,0.6-1,0.8
			c0.5,0.1,1,0.4,1.3,0.8c0.3,0.4,0.5,0.9,0.5,1.5c0,0.8-0.3,1.5-0.9,2.1c-0.6,0.6-1.3,0.8-2.2,0.8c-0.8,0-1.5-0.2-2-0.7
			C8.9,186.6,8.6,185.9,8.5,185.2z"/>
		<path d="M15.8,185.2l1.2-0.1c0.1,0.6,0.3,1,0.6,1.3c0.3,0.3,0.7,0.4,1.2,0.4s1-0.2,1.4-0.6c0.4-0.4,0.6-1,0.6-1.7
			s-0.2-1.2-0.5-1.5c-0.3-0.3-0.8-0.6-1.4-0.6c-0.4,0-0.7,0.1-1,0.3c-0.3,0.2-0.5,0.4-0.7,0.7l-1.1-0.1l0.9-4.8h4.6v1.1h-3.7
			l-0.5,2.5c0.6-0.4,1.1-0.6,1.8-0.6c0.8,0,1.5,0.3,2.1,0.8c0.6,0.6,0.8,1.3,0.8,2.2c0,0.8-0.2,1.6-0.7,2.2
			c-0.6,0.8-1.4,1.1-2.4,1.1c-0.8,0-1.5-0.2-2.1-0.7C16.2,186.6,15.8,186,15.8,185.2z"/>
	</g>
	<g>
		<path d="M12.2,166.8v-2.2h-4v-1l4.2-6h0.9v6h1.3v1h-1.3v2.2H12.2z M12.2,163.5v-4.2l-2.9,4.2H12.2z"/>
		<path d="M15.8,162.2c0-1.1,0.1-2,0.3-2.7c0.2-0.7,0.6-1.2,1-1.6c0.4-0.4,1-0.5,1.7-0.5c0.5,0,0.9,0.1,1.3,0.3s0.7,0.5,0.9,0.9
			c0.2,0.4,0.4,0.8,0.6,1.4c0.2,0.6,0.2,1.3,0.2,2.2c0,1.1-0.1,2-0.3,2.6c-0.2,0.6-0.6,1.2-1,1.6c-0.4,0.4-1,0.5-1.7,0.5
			c-0.9,0-1.6-0.3-2.1-1C16.1,165.2,15.8,163.9,15.8,162.2z M16.9,162.2c0,1.5,0.2,2.5,0.5,3c0.3,0.5,0.8,0.8,1.3,0.8s1-0.3,1.3-0.8
			s0.5-1.5,0.5-3s-0.2-2.5-0.5-3.1c-0.3-0.6-0.8-0.8-1.3-0.8s-0.9,0.2-1.3,0.7C17.1,159.6,16.9,160.7,16.9,162.2z"/>
	</g>
	<g>
		<path d="M12.2,145.9v-2.2h-4v-1l4.2-6h0.9v6h1.3v1h-1.3v2.2H12.2z M12.2,142.6v-4.2l-2.9,4.2H12.2z"/>
		<path d="M15.8,143.5l1.2-0.1c0.1,0.6,0.3,1,0.6,1.3c0.3,0.3,0.7,0.4,1.2,0.4s1-0.2,1.4-0.6c0.4-0.4,0.6-1,0.6-1.7
			s-0.2-1.2-0.5-1.5c-0.3-0.3-0.8-0.6-1.4-0.6c-0.4,0-0.7,0.1-1,0.3c-0.3,0.2-0.5,0.4-0.7,0.7l-1.1-0.1l0.9-4.8h4.6v1.1h-3.7
			l-0.5,2.5c0.6-0.4,1.1-0.6,1.8-0.6c0.8,0,1.5,0.3,2.1,0.8c0.6,0.6,0.8,1.3,0.8,2.2c0,0.8-0.2,1.6-0.7,2.2
			c-0.6,0.8-1.4,1.1-2.4,1.1c-0.8,0-1.5-0.2-2.1-0.7C16.2,144.9,15.8,144.3,15.8,143.5z"/>
	</g>
	<path d="M15.8,310.5l1.2-0.1c0.1,0.6,0.3,1,0.6,1.3c0.3,0.3,0.7,0.4,1.2,0.4s1-0.2,1.4-0.6c0.4-0.4,0.6-1,0.6-1.7s-0.2-1.2-0.5-1.5
		c-0.3-0.3-0.8-0.6-1.4-0.6c-0.4,0-0.7,0.1-1,0.3c-0.3,0.2-0.5,0.4-0.7,0.7l-1.1-0.1l0.9-4.8h4.6v1.1h-3.7l-0.5,2.5
		c0.6-0.4,1.1-0.6,1.8-0.6c0.8,0,1.5,0.3,2.1,0.8c0.6,0.6,0.8,1.3,0.8,2.2c0,0.8-0.2,1.6-0.7,2.2c-0.6,0.8-1.4,1.1-2.4,1.1
		c-0.8,0-1.5-0.2-2.1-0.7C16.2,312,15.8,311.3,15.8,310.5z"/>
	<g>
		<path d="M16.5,120.1c0-1.1,0.1-2,0.3-2.7c0.2-0.7,0.6-1.2,1-1.6c0.4-0.4,1-0.5,1.7-0.5c0.5,0,0.9,0.1,1.3,0.3
			c0.4,0.2,0.7,0.5,0.9,0.9c0.2,0.4,0.4,0.8,0.6,1.4c0.2,0.6,0.2,1.3,0.2,2.2c0,1.1-0.1,2-0.3,2.6c-0.2,0.6-0.6,1.2-1,1.6
			c-0.4,0.4-1,0.5-1.7,0.5c-0.9,0-1.6-0.3-2.1-1C16.8,123.1,16.5,121.8,16.5,120.1z M17.7,120.1c0,1.5,0.2,2.5,0.5,3
			c0.3,0.5,0.8,0.8,1.3,0.8s1-0.3,1.3-0.8c0.3-0.5,0.5-1.5,0.5-3s-0.2-2.5-0.5-3.1c-0.3-0.6-0.8-0.8-1.3-0.8s-0.9,0.2-1.3,0.7
			C17.9,117.5,17.7,118.5,17.7,120.1z"/>
	</g>
	<g>
		<path d="M12.8,83.8h-1.1v-7.3c-0.3,0.3-0.6,0.5-1.1,0.8c-0.4,0.3-0.8,0.5-1.2,0.6v-1.1c0.6-0.3,1.2-0.7,1.7-1.1
			c0.5-0.4,0.8-0.8,1-1.2h0.7V83.8z"/>
		<path d="M15.8,79.2c0-1.1,0.1-2,0.3-2.7c0.2-0.7,0.6-1.2,1-1.6c0.4-0.4,1-0.5,1.7-0.5c0.5,0,0.9,0.1,1.3,0.3s0.7,0.5,0.9,0.9
			c0.2,0.4,0.4,0.8,0.6,1.4c0.2,0.6,0.2,1.3,0.2,2.2c0,1.1-0.1,2-0.3,2.6c-0.2,0.6-0.6,1.2-1,1.6c-0.4,0.4-1,0.5-1.7,0.5
			c-0.9,0-1.6-0.3-2.1-1C16.1,82.2,15.8,81,15.8,79.2z M16.9,79.2c0,1.5,0.2,2.5,0.5,3c0.3,0.5,0.8,0.8,1.3,0.8s1-0.3,1.3-0.8
			s0.5-1.5,0.5-3s-0.2-2.5-0.5-3.1c-0.3-0.6-0.8-0.8-1.3-0.8s-0.9,0.2-1.3,0.7C17.1,76.7,16.9,77.7,16.9,79.2z"/>
	</g>
	<g>
		<path d="M12.8,63h-1.1v-7.3c-0.3,0.3-0.6,0.5-1.1,0.8c-0.4,0.3-0.8,0.5-1.2,0.6V56c0.6-0.3,1.2-0.7,1.7-1.1c0.5-0.4,0.8-0.8,1-1.2
			h0.7V63z"/>
		<path d="M15.8,60.5l1.2-0.1c0.1,0.6,0.3,1,0.6,1.3c0.3,0.3,0.7,0.4,1.2,0.4s1-0.2,1.4-0.6c0.4-0.4,0.6-1,0.6-1.7s-0.2-1.2-0.5-1.5
			c-0.3-0.3-0.8-0.6-1.4-0.6c-0.4,0-0.7,0.1-1,0.3c-0.3,0.2-0.5,0.4-0.7,0.7l-1.1-0.1l0.9-4.8h4.6v1.1h-3.7l-0.5,2.5
			c0.6-0.4,1.1-0.6,1.8-0.6c0.8,0,1.5,0.3,2.1,0.8c0.6,0.6,0.8,1.3,0.8,2.2c0,0.8-0.2,1.6-0.7,2.2c-0.6,0.8-1.4,1.1-2.4,1.1
			c-0.8,0-1.5-0.2-2.1-0.7C16.2,62,15.8,61.3,15.8,60.5z"/>
	</g>
	<g>
		<path d="M14.5,41v1.1H8.4c0-0.3,0-0.5,0.1-0.8c0.2-0.4,0.4-0.8,0.8-1.2c0.4-0.4,0.8-0.9,1.5-1.4c1-0.8,1.7-1.5,2.1-2
			s0.5-0.9,0.5-1.4s-0.2-0.8-0.5-1.1c-0.3-0.3-0.7-0.5-1.3-0.5c-0.5,0-1,0.2-1.3,0.5C10,34.5,9.8,35,9.8,35.6l-1.2-0.1
			c0.1-0.9,0.4-1.5,0.9-2s1.2-0.7,2.1-0.7s1.6,0.2,2.1,0.7s0.8,1.1,0.8,1.8c0,0.4-0.1,0.7-0.2,1.1c-0.1,0.4-0.4,0.7-0.8,1.1
			s-0.9,0.9-1.8,1.6c-0.7,0.6-1.1,1-1.3,1.2c-0.2,0.2-0.4,0.4-0.5,0.6h4.6V41z"/>
		<path d="M15.8,37.5c0-1.1,0.1-2,0.3-2.7c0.2-0.7,0.6-1.2,1-1.6c0.4-0.4,1-0.5,1.7-0.5c0.5,0,0.9,0.1,1.3,0.3s0.7,0.5,0.9,0.9
			c0.2,0.4,0.4,0.8,0.6,1.4c0.2,0.6,0.2,1.3,0.2,2.2c0,1.1-0.1,2-0.3,2.6c-0.2,0.6-0.6,1.2-1,1.6c-0.4,0.4-1,0.5-1.7,0.5
			c-0.9,0-1.6-0.3-2.1-1C16.1,40.6,15.8,39.3,15.8,37.5z M16.9,37.5c0,1.5,0.2,2.5,0.5,3c0.3,0.5,0.8,0.8,1.3,0.8s1-0.3,1.3-0.8
			s0.5-1.5,0.5-3S20.3,35,20,34.4c-0.3-0.6-0.8-0.8-1.3-0.8s-0.9,0.2-1.3,0.7C17.1,35,16.9,36,16.9,37.5z"/>
	</g>
	<g>
		<path d="M14.5,20.2v1.1H8.4c0-0.3,0-0.5,0.1-0.8c0.2-0.4,0.4-0.8,0.8-1.2c0.4-0.4,0.8-0.9,1.5-1.4c1-0.8,1.7-1.5,2.1-2
			s0.5-0.9,0.5-1.4s-0.2-0.8-0.5-1.1c-0.3-0.3-0.7-0.5-1.3-0.5c-0.5,0-1,0.2-1.3,0.5c-0.3,0.3-0.5,0.8-0.5,1.4l-1.2-0.1
			c0.1-0.9,0.4-1.5,0.9-2s1.2-0.7,2.1-0.7s1.6,0.2,2.1,0.7s0.8,1.1,0.8,1.8c0,0.4-0.1,0.7-0.2,1.1c-0.1,0.4-0.4,0.7-0.8,1.1
			c-0.4,0.4-0.9,0.9-1.8,1.6c-0.7,0.6-1.1,1-1.3,1.2c-0.2,0.2-0.4,0.4-0.5,0.6h4.6V20.2z"/>
		<path d="M15.8,18.9l1.2-0.1c0.1,0.6,0.3,1,0.6,1.3c0.3,0.3,0.7,0.4,1.2,0.4s1-0.2,1.4-0.6c0.4-0.4,0.6-1,0.6-1.7s-0.2-1.2-0.5-1.5
			c-0.3-0.3-0.8-0.6-1.4-0.6c-0.4,0-0.7,0.1-1,0.3c-0.3,0.2-0.5,0.4-0.7,0.7L16.1,17l0.9-4.8h4.6v1.1h-3.7l-0.5,2.5
			c0.6-0.4,1.1-0.6,1.8-0.6c0.8,0,1.5,0.3,2.1,0.8c0.6,0.6,0.8,1.3,0.8,2.2c0,0.8-0.2,1.6-0.7,2.2c-0.6,0.8-1.4,1.1-2.4,1.1
			c-0.8,0-1.5-0.2-2.1-0.7C16.2,20.3,15.8,19.6,15.8,18.9z"/>
	</g>
	<g>
		<path d="M8.5-2l1.1-0.2c0.1,0.6,0.4,1.1,0.7,1.4c0.3,0.3,0.7,0.4,1.2,0.4s1-0.2,1.4-0.6s0.6-0.8,0.6-1.4c0-0.5-0.2-1-0.5-1.3
			s-0.8-0.5-1.3-0.5c-0.2,0-0.5,0-0.8,0.1l0.1-1c0.1,0,0.1,0,0.2,0c0.5,0,0.9-0.1,1.3-0.4s0.6-0.6,0.6-1.2c0-0.4-0.1-0.8-0.4-1
			c-0.3-0.3-0.6-0.4-1.1-0.4c-0.4,0-0.8,0.1-1.1,0.4S10-7,9.9-6.4L8.8-6.6c0.1-0.8,0.5-1.4,1-1.8C10.3-8.8,10.9-9,11.6-9
			c0.5,0,1,0.1,1.4,0.3s0.8,0.5,1,0.9c0.2,0.4,0.3,0.8,0.3,1.2c0,0.4-0.1,0.8-0.3,1.1s-0.5,0.6-1,0.8c0.5,0.1,1,0.4,1.3,0.8
			c0.3,0.4,0.5,0.9,0.5,1.5c0,0.8-0.3,1.5-0.9,2.1c-0.6,0.6-1.3,0.8-2.2,0.8c-0.8,0-1.5-0.2-2-0.7C8.9-0.6,8.6-1.2,8.5-2z"/>
		<path d="M15.8-4.1c0-1.1,0.1-2,0.3-2.7c0.2-0.7,0.6-1.2,1-1.6c0.4-0.4,1-0.5,1.7-0.5c0.5,0,0.9,0.1,1.3,0.3
			c0.4,0.2,0.7,0.5,0.9,0.9c0.2,0.4,0.4,0.8,0.6,1.4c0.2,0.6,0.2,1.3,0.2,2.2c0,1.1-0.1,2-0.3,2.6s-0.6,1.2-1,1.6
			c-0.4,0.4-1,0.5-1.7,0.5c-0.9,0-1.6-0.3-2.1-1C16.1-1.1,15.8-2.4,15.8-4.1z M16.9-4.1c0,1.5,0.2,2.5,0.5,3
			c0.3,0.5,0.8,0.8,1.3,0.8s1-0.3,1.3-0.8s0.5-1.5,0.5-3S20.3-6.6,20-7.2C19.7-7.8,19.2-8,18.7-8s-0.9,0.2-1.3,0.7
			C17.1-6.7,16.9-5.7,16.9-4.1z"/>
	</g>
	<g>
		<path d="M8.5-22.8L9.6-23c0.1,0.6,0.4,1.1,0.7,1.4c0.3,0.3,0.7,0.4,1.2,0.4s1-0.2,1.4-0.6c0.4-0.4,0.6-0.8,0.6-1.4
			c0-0.5-0.2-1-0.5-1.3S12.2-25,11.7-25c-0.2,0-0.5,0-0.8,0.1l0.1-1c0.1,0,0.1,0,0.2,0c0.5,0,0.9-0.1,1.3-0.4s0.6-0.6,0.6-1.2
			c0-0.4-0.1-0.8-0.4-1c-0.3-0.3-0.6-0.4-1.1-0.4c-0.4,0-0.8,0.1-1.1,0.4s-0.5,0.7-0.6,1.3l-1.1-0.2c0.1-0.8,0.5-1.4,1-1.8
			c0.5-0.4,1.1-0.6,1.8-0.6c0.5,0,1,0.1,1.4,0.3s0.8,0.5,1,0.9c0.2,0.4,0.3,0.8,0.3,1.2c0,0.4-0.1,0.8-0.3,1.1s-0.5,0.6-1,0.8
			c0.5,0.1,1,0.4,1.3,0.8c0.3,0.4,0.5,0.9,0.5,1.5c0,0.8-0.3,1.5-0.9,2.1c-0.6,0.6-1.3,0.8-2.2,0.8c-0.8,0-1.5-0.2-2-0.7
			C8.9-21.4,8.6-22.1,8.5-22.8z"/>
		<path d="M15.8-22.8l1.2-0.1c0.1,0.6,0.3,1,0.6,1.3c0.3,0.3,0.7,0.4,1.2,0.4s1-0.2,1.4-0.6c0.4-0.4,0.6-1,0.6-1.7s-0.2-1.2-0.5-1.5
			c-0.3-0.3-0.8-0.6-1.4-0.6c-0.4,0-0.7,0.1-1,0.3c-0.3,0.2-0.5,0.4-0.7,0.7l-1.1-0.1l0.9-4.8h4.6v1.1h-3.7l-0.5,2.5
			c0.6-0.4,1.1-0.6,1.8-0.6c0.8,0,1.5,0.3,2.1,0.8c0.6,0.6,0.8,1.3,0.8,2.2c0,0.8-0.2,1.6-0.7,2.2c-0.6,0.8-1.4,1.1-2.4,1.1
			c-0.8,0-1.5-0.2-2.1-0.7C16.2-21.4,15.8-22,15.8-22.8z"/>
	</g>
	<g>
		<path d="M12.2-41.2v-2.2h-4v-1l4.2-6h0.9v6h1.3v1h-1.3v2.2H12.2z M12.2-44.5v-4.2l-2.9,4.2H12.2z"/>
		<path d="M15.8-45.8c0-1.1,0.1-2,0.3-2.7c0.2-0.7,0.6-1.2,1-1.6c0.4-0.4,1-0.5,1.7-0.5c0.5,0,0.9,0.1,1.3,0.3s0.7,0.5,0.9,0.9
			c0.2,0.4,0.4,0.8,0.6,1.4c0.2,0.6,0.2,1.3,0.2,2.2c0,1.1-0.1,2-0.3,2.6c-0.2,0.6-0.6,1.2-1,1.6c-0.4,0.4-1,0.5-1.7,0.5
			c-0.9,0-1.6-0.3-2.1-1C16.1-42.8,15.8-44.1,15.8-45.8z M16.9-45.8c0,1.5,0.2,2.5,0.5,3c0.3,0.5,0.8,0.8,1.3,0.8s1-0.3,1.3-0.8
			s0.5-1.5,0.5-3s-0.2-2.5-0.5-3.1c-0.3-0.6-0.8-0.8-1.3-0.8s-0.9,0.2-1.3,0.7C17.1-48.4,16.9-47.3,16.9-45.8z"/>
	</g>
	<g>
		<path d="M12.2-62.1v-2.2h-4v-1l4.2-6h0.9v6h1.3v1h-1.3v2.2H12.2z M12.2-65.4v-4.2l-2.9,4.2H12.2z"/>
		<path d="M15.8-64.5l1.2-0.1c0.1,0.6,0.3,1,0.6,1.3c0.3,0.3,0.7,0.4,1.2,0.4s1-0.2,1.4-0.6c0.4-0.4,0.6-1,0.6-1.7s-0.2-1.2-0.5-1.5
			c-0.3-0.3-0.8-0.6-1.4-0.6c-0.4,0-0.7,0.1-1,0.3c-0.3,0.2-0.5,0.4-0.7,0.7l-1.1-0.1l0.9-4.8h4.6v1.1h-3.7l-0.5,2.5
			c0.6-0.4,1.1-0.6,1.8-0.6c0.8,0,1.5,0.3,2.1,0.8c0.6,0.6,0.8,1.3,0.8,2.2c0,0.8-0.2,1.6-0.7,2.2c-0.6,0.8-1.4,1.1-2.4,1.1
			c-0.8,0-1.5-0.2-2.1-0.7C16.2-63.1,15.8-63.7,15.8-64.5z"/>
	</g>
	<path d="M15.8,102.5l1.2-0.1c0.1,0.6,0.3,1,0.6,1.3c0.3,0.3,0.7,0.4,1.2,0.4s1-0.2,1.4-0.6c0.4-0.4,0.6-1,0.6-1.7s-0.2-1.2-0.5-1.5
		c-0.3-0.3-0.8-0.6-1.4-0.6c-0.4,0-0.7,0.1-1,0.3c-0.3,0.2-0.5,0.4-0.7,0.7l-1.1-0.1l0.9-4.8h4.6v1.1h-3.7l-0.5,2.5
		c0.6-0.4,1.1-0.6,1.8-0.6c0.8,0,1.5,0.3,2.1,0.8c0.6,0.6,0.8,1.3,0.8,2.2c0,0.8-0.2,1.6-0.7,2.2c-0.6,0.8-1.4,1.1-2.4,1.1
		c-0.8,0-1.5-0.2-2.1-0.7C16.2,104,15.8,103.3,15.8,102.5z"/>
</g>
<g id="Layer_2">
	<line fill="none" stroke="#000000" stroke-miterlimit="10" x1="68.2" y1="-42.7" x2="47.9" y2="-42.7"/>
	<line fill="none" stroke="#000000" stroke-miterlimit="10" x1="68.2" y1="-38.5" x2="47.9" y2="-38.5"/>
	<line fill="none" stroke="#000000" stroke-miterlimit="10" x1="68.2" y1="-34.4" x2="47.9" y2="-34.4"/>
	<line fill="none" stroke="#000000" stroke-miterlimit="10" x1="68.2" y1="-30.2" x2="47.9" y2="-30.2"/>
	<line fill="none" stroke="#000000" stroke-miterlimit="10" x1="68.2" y1="-26" x2="27.9" y2="-26"/>
	<line fill="none" stroke="#000000" stroke-miterlimit="10" x1="68.2" y1="-21.8" x2="47.9" y2="-21.8"/>
	<line fill="none" stroke="#000000" stroke-miterlimit="10" x1="68.2" y1="-17.7" x2="47.9" y2="-17.7"/>
	<line fill="none" stroke="#000000" stroke-miterlimit="10" x1="68.2" y1="-13.5" x2="47.9" y2="-13.5"/>
	<line fill="none" stroke="#000000" stroke-miterlimit="10" x1="68.2" y1="-9.3" x2="47.9" y2="-9.3"/>
	<line fill="none" stroke="#000000" stroke-miterlimit="10" x1="68.2" y1="-5.2" x2="27.9" y2="-5.2"/>
	<line fill="none" stroke="#000000" stroke-miterlimit="10" x1="68.2" y1="-1" x2="47.9" y2="-1"/>
	<line fill="none" stroke="#000000" stroke-miterlimit="10" x1="68.2" y1="3.2" x2="47.9" y2="3.2"/>
	<line fill="none" stroke="#000000" stroke-miterlimit="10" x1="68.2" y1="7.3" x2="47.9" y2="7.3"/>
	<line fill="none" stroke="#000000" stroke-miterlimit="10" x1="68.2" y1="11.5" x2="47.9" y2="11.5"/>
	<line fill="none" stroke="#000000" stroke-miterlimit="10" x1="68.2" y1="-67.7" x2="27.9" y2="-67.7"/>
	<line fill="none" stroke="#000000" stroke-miterlimit="10" x1="68.2" y1="-63.5" x2="47.9" y2="-63.5"/>
	<line fill="none" stroke="#000000" stroke-miterlimit="10" x1="68.2" y1="-59.4" x2="47.9" y2="-59.4"/>
	<line fill="none" stroke="#000000" stroke-miterlimit="10" x1="68.2" y1="-55.2" x2="47.9" y2="-55.2"/>
	<line fill="none" stroke="#000000" stroke-miterlimit="10" x1="68.2" y1="-51" x2="47.9" y2="-51"/>
	<line fill="none" stroke="#000000" stroke-miterlimit="10" x1="68.2" y1="-46.9" x2="27.9" y2="-46.9"/>
</g>
</svg>
