<?xml version="1.0" encoding="utf-8"?>
<!-- Generator: Adobe Illustrator 16.0.0, SVG Export Plug-In . SVG Version: 6.00 Build 0)  -->
<!DOCTYPE svg PUBLIC "-//W3C//DTD SVG 1.1//EN" "http://www.w3.org/Graphics/SVG/1.1/DTD/svg11.dtd">
<svg version="1.1" id="Layer_1" xmlns="http://www.w3.org/2000/svg" xmlns:xlink="http://www.w3.org/1999/xlink" x="0px" y="0px"
	 width="13px" height="90px" viewBox="0 0 13 90" enable-background="new 0 0 13 90" xml:space="preserve">
<g>
	<g>
		<path fill-rule="evenodd" clip-rule="evenodd" d="M5.4,89.3l0.2-7.6L4.3,67.8c0.6-0.1,1.1-0.1,1.8-0.1c0.3,0,0.7,0,1,0l1.5,14
			l-0.1,7.5L5.4,89.3z"/>
	</g>
	<g>
		<g>
			<polygon fill-rule="evenodd" clip-rule="evenodd" fill="#CCCCCC" points="8.4,18.2 5.8,18.2 5.1,8.3 5,6.9 4.8,2.3 4.8,1.5 
				4.6,0.8 7.1,0.8 7.1,0.8 7.2,1.5 7.2,2.3 7.5,6.9 7.7,8.3 			"/>
			<polygon fill-rule="evenodd" clip-rule="evenodd" fill="#FFFFFF" fill-opacity="0.5255" points="5.8,18.2 5.8,81.6 4.6,68.6 
				4.6,0.8 4.8,1.5 4.8,2.3 5,6.9 5.1,8.3 			"/>
			
				<rect x="5.8" y="18.2" fill-rule="evenodd" clip-rule="evenodd" fill="#333333" fill-opacity="0.298" width="2.7" height="63.4"/>
			
				<path fill-rule="evenodd" clip-rule="evenodd" fill="none" stroke="#FFFFFF" stroke-linecap="round" stroke-linejoin="round" stroke-miterlimit="3" d="
				M8.4,18.2l-0.8-10L7.5,6.9L7.2,2.3l0-0.7L7.1,0.8v0H4.6l0.1,0.8v0.7L5,6.9l0.1,1.4l0.6,10H8.4v63.4 M5.8,81.6l-1.1-13V0.8
				 M5.8,81.6V18.2"/>
			
				<line fill-rule="evenodd" clip-rule="evenodd" fill="none" stroke="#CCCCCC" stroke-linecap="round" stroke-linejoin="round" stroke-miterlimit="3" x1="8.4" y1="81.6" x2="5.8" y2="81.6"/>
		</g>
	</g>
</g>
</svg>
