<?xml version="1.0" encoding="utf-8"?>
<!-- Generator: Adobe Illustrator 16.0.0, SVG Export Plug-In . SVG Version: 6.00 Build 0)  -->
<!DOCTYPE svg PUBLIC "-//W3C//DTD SVG 1.1//EN" "http://www.w3.org/Graphics/SVG/1.1/DTD/svg11.dtd">
<svg version="1.1" id="Layer_1" xmlns="http://www.w3.org/2000/svg" xmlns:xlink="http://www.w3.org/1999/xlink" x="0px" y="0px"
	 width="13px" height="90px" viewBox="0 0 13 90" enable-background="new 0 0 13 90" xml:space="preserve">
<g>
	<g>
		<polygon fill-rule="evenodd" clip-rule="evenodd" points="1.5,68.1 4,67.7 11.8,81.7 11.8,88.8 8.7,89.3 8.8,81.7 		"/>
	</g>
	<g>
		<g>
			<polygon fill-rule="evenodd" clip-rule="evenodd" fill="#333333" fill-opacity="0.298" points="11.6,18.2 11.6,54.9 11.6,81.3 
				8.9,81.6 8.9,54.9 8.9,18.2 			"/>
			<polygon fill-rule="evenodd" clip-rule="evenodd" fill="#CCCCCC" points="1.8,0.8 4.2,0.8 4.2,0.8 4.5,1.5 11.6,18.2 8.9,18.2 
				2.1,1.5 			"/>
			<polygon fill-rule="evenodd" clip-rule="evenodd" fill="#FFFFFF" fill-opacity="0.5255" points="8.9,18.2 8.9,54.9 8.9,81.6 
				1.8,68.3 1.8,54.9 1.8,1.5 1.8,0.8 2.1,1.5 			"/>
			
				<path fill-rule="evenodd" clip-rule="evenodd" fill="none" stroke="#FFFFFF" stroke-linecap="round" stroke-linejoin="round" stroke-miterlimit="3" d="
				M1.8,0.8l0.4,0.8l6.8,16.7h2.7l-7-16.7L4.2,0.8v0H1.8v0.8v53.4v13.3l7.1,13.3V54.9V18.2 M8.9,81.6l2.7-0.3V54.9V18.2"/>
		</g>
	</g>
</g>
</svg>
