<?xml version="1.0" encoding="utf-8"?>
<!-- Generator: Adobe Illustrator 16.0.0, SVG Export Plug-In . SVG Version: 6.00 Build 0)  -->
<!DOCTYPE svg PUBLIC "-//W3C//DTD SVG 1.1//EN" "http://www.w3.org/Graphics/SVG/1.1/DTD/svg11.dtd">
<svg version="1.1" xmlns="http://www.w3.org/2000/svg" xmlns:xlink="http://www.w3.org/1999/xlink" x="0px" y="0px" width="293.5px"
	 height="89.2px" viewBox="0 0 293.5 89.2" enable-background="new 0 0 293.5 89.2" xml:space="preserve">
<g id="Layer_1">
	<g>
		<g>
			<linearGradient id="SVGID_1_" gradientUnits="userSpaceOnUse" x1="146.7754" y1="-9.960938e-002" x2="146.7754" y2="89.1011">
				<stop  offset="0" style="stop-color:#8E908E"/>
				<stop  offset="0.2039" style="stop-color:#B0B3C5"/>
				<stop  offset="0.5882" style="stop-color:#747A87"/>
				<stop  offset="0.7373" style="stop-color:#787C86"/>
				<stop  offset="1" style="stop-color:#7A807C"/>
			</linearGradient>
			<rect fill-rule="evenodd" clip-rule="evenodd" fill="url(#SVGID_1_)" width="293.5" height="89.2"/>
		</g>
	</g>
</g>
<g id="Layer_2">
	<line fill="none" stroke="#000000" stroke-miterlimit="10" x1="0" y1="44.2" x2="293.8" y2="44.2"/>
</g>
<g id="Layer_3">
	<line fill="none" stroke="#000000" stroke-miterlimit="10" x1="27.9" y1="44.1" x2="27.9" y2="18.1"/>
	<line fill="none" stroke="#000000" stroke-miterlimit="10" x1="35.8" y1="44.1" x2="35.8" y2="28.1"/>
	<line fill="none" stroke="#000000" stroke-miterlimit="10" x1="43.7" y1="44.1" x2="43.7" y2="28.1"/>
	<line fill="none" stroke="#000000" stroke-miterlimit="10" x1="51.6" y1="44.1" x2="51.6" y2="28.1"/>
	<line fill="none" stroke="#000000" stroke-miterlimit="10" x1="59.5" y1="44.1" x2="59.5" y2="28.1"/>
	<path fill="none" stroke="#000000" stroke-miterlimit="10" d="M67.9,44.1"/>
	<line fill="none" stroke="#000000" stroke-miterlimit="10" x1="67.5" y1="44.1" x2="67.5" y2="18.1"/>
	<line fill="none" stroke="#000000" stroke-miterlimit="10" x1="75.4" y1="44.1" x2="75.4" y2="28.1"/>
	<line fill="none" stroke="#000000" stroke-miterlimit="10" x1="83.3" y1="44.1" x2="83.3" y2="28.1"/>
	<line fill="none" stroke="#000000" stroke-miterlimit="10" x1="91.2" y1="44.1" x2="91.2" y2="28.1"/>
	<line fill="none" stroke="#000000" stroke-miterlimit="10" x1="99.1" y1="44.1" x2="99.1" y2="28.1"/>
	<path fill="none" stroke="#000000" stroke-miterlimit="10" d="M107.9,44.1"/>
	<line fill="none" stroke="#000000" stroke-miterlimit="10" x1="107" y1="44.1" x2="107" y2="18.1"/>
	<line fill="none" stroke="#000000" stroke-miterlimit="10" x1="115" y1="44.1" x2="115" y2="28.1"/>
	<line fill="none" stroke="#000000" stroke-miterlimit="10" x1="122.9" y1="44.1" x2="122.9" y2="28.1"/>
	<line fill="none" stroke="#000000" stroke-miterlimit="10" x1="130.8" y1="44.1" x2="130.8" y2="28.1"/>
	<line fill="none" stroke="#000000" stroke-miterlimit="10" x1="138.7" y1="44.1" x2="138.7" y2="28.1"/>
	<path fill="none" stroke="#000000" stroke-miterlimit="10" d="M147.8,44.1"/>
	<line fill="none" stroke="#000000" stroke-miterlimit="10" x1="146.6" y1="44.1" x2="146.6" y2="18.1"/>
	<line fill="none" stroke="#000000" stroke-miterlimit="10" x1="154.6" y1="44.1" x2="154.6" y2="28.1"/>
	<line fill="none" stroke="#000000" stroke-miterlimit="10" x1="162.5" y1="44.1" x2="162.5" y2="28.1"/>
	<line fill="none" stroke="#000000" stroke-miterlimit="10" x1="170.4" y1="44.1" x2="170.4" y2="28.1"/>
	<line fill="none" stroke="#000000" stroke-miterlimit="10" x1="178.3" y1="44.1" x2="178.3" y2="28.1"/>
	<path fill="none" stroke="#000000" stroke-miterlimit="10" d="M186.8,44.1"/>
	<line fill="none" stroke="#000000" stroke-miterlimit="10" x1="186.3" y1="44.1" x2="186.3" y2="18.1"/>
	<line fill="none" stroke="#000000" stroke-miterlimit="10" x1="194.2" y1="44.1" x2="194.2" y2="28.1"/>
	<line fill="none" stroke="#000000" stroke-miterlimit="10" x1="202.1" y1="44.1" x2="202.1" y2="28.1"/>
	<line fill="none" stroke="#000000" stroke-miterlimit="10" x1="210" y1="44.1" x2="210" y2="28.1"/>
	<line fill="none" stroke="#000000" stroke-miterlimit="10" x1="217.9" y1="44.1" x2="217.9" y2="28.1"/>
	<path fill="none" stroke="#000000" stroke-miterlimit="10" d="M225.8,44.1"/>
	<line fill="none" stroke="#000000" stroke-miterlimit="10" x1="225.8" y1="44.1" x2="225.8" y2="18.1"/>
</g>
<g id="Layer_4">
	<line fill="none" stroke="#000000" stroke-miterlimit="10" x1="31.8" y1="44.1" x2="31.8" y2="59.9"/>
	<line fill="none" stroke="#000000" stroke-miterlimit="10" x1="39.7" y1="44.1" x2="39.7" y2="59.9"/>
	<line fill="none" stroke="#000000" stroke-miterlimit="10" x1="47.6" y1="44.1" x2="47.6" y2="59.9"/>
	<line fill="none" stroke="#000000" stroke-miterlimit="10" x1="55.5" y1="44.1" x2="55.5" y2="59.9"/>
	<line fill="none" stroke="#000000" stroke-miterlimit="10" x1="63.4" y1="44.1" x2="63.4" y2="59.9"/>
	<line fill="none" stroke="#000000" stroke-miterlimit="10" x1="71.3" y1="44.1" x2="71.3" y2="59.9"/>
	<line fill="none" stroke="#000000" stroke-miterlimit="10" x1="79.3" y1="44.1" x2="79.3" y2="59.9"/>
	<line fill="none" stroke="#000000" stroke-miterlimit="10" x1="87.2" y1="44.1" x2="87.2" y2="59.9"/>
	<line fill="none" stroke="#000000" stroke-miterlimit="10" x1="95.1" y1="44.1" x2="95.1" y2="59.9"/>
	<line fill="none" stroke="#000000" stroke-miterlimit="10" x1="103" y1="44.1" x2="103" y2="59.9"/>
	<line fill="none" stroke="#000000" stroke-miterlimit="10" x1="110.9" y1="44.1" x2="110.9" y2="59.9"/>
	<line fill="none" stroke="#000000" stroke-miterlimit="10" x1="118.8" y1="44.1" x2="118.8" y2="59.9"/>
	<line fill="none" stroke="#000000" stroke-miterlimit="10" x1="126.8" y1="44.1" x2="126.8" y2="59.9"/>
	<line fill="none" stroke="#000000" stroke-miterlimit="10" x1="134.7" y1="44.1" x2="134.7" y2="59.9"/>
	<line fill="none" stroke="#000000" stroke-miterlimit="10" x1="142.6" y1="44.1" x2="142.6" y2="59.9"/>
	<line fill="none" stroke="#000000" stroke-miterlimit="10" x1="150.5" y1="44.1" x2="150.5" y2="59.9"/>
	<line fill="none" stroke="#000000" stroke-miterlimit="10" x1="158.4" y1="44.1" x2="158.4" y2="59.9"/>
	<line fill="none" stroke="#000000" stroke-miterlimit="10" x1="166.3" y1="44.1" x2="166.3" y2="59.9"/>
	<line fill="none" stroke="#000000" stroke-miterlimit="10" x1="174.3" y1="44.1" x2="174.3" y2="59.9"/>
	<line fill="none" stroke="#000000" stroke-miterlimit="10" x1="182.2" y1="44.1" x2="182.2" y2="59.9"/>
	<line fill="none" stroke="#000000" stroke-miterlimit="10" x1="190.1" y1="44.1" x2="190.1" y2="59.9"/>
	<line fill="none" stroke="#000000" stroke-miterlimit="10" x1="198" y1="44.1" x2="198" y2="59.9"/>
	<line fill="none" stroke="#000000" stroke-miterlimit="10" x1="205.9" y1="44.1" x2="205.9" y2="59.9"/>
	<line fill="none" stroke="#000000" stroke-miterlimit="10" x1="213.8" y1="44.1" x2="213.8" y2="59.9"/>
	<line fill="none" stroke="#000000" stroke-miterlimit="10" x1="221.7" y1="44.1" x2="221.7" y2="59.9"/>
</g>
<g id="Layer_5">
	<g>
		<path d="M18.2,16.5V15l1.5-1.4c3.1-2.8,4.5-4.4,4.5-6.1c0-1.2-0.6-2.2-2.3-2.2c-1.1,0-2.1,0.6-2.8,1.1l-0.7-1.7
			c0.9-0.8,2.4-1.3,4-1.3c2.9,0,4.3,1.8,4.3,3.9c0,2.3-1.6,4.1-3.9,6.2l-1.1,1v0H27v2H18.2z"/>
		<path d="M37.2,5.6h-5l-0.4,2.6c0.3,0,0.6-0.1,0.9-0.1c1.1,0,2.3,0.3,3.2,0.8c1,0.6,1.7,1.7,1.7,3.3c0,2.5-2.1,4.5-5.3,4.5
			c-1.5,0-2.8-0.4-3.4-0.8l0.5-1.9c0.6,0.3,1.7,0.7,2.9,0.7c1.4,0,2.8-0.8,2.8-2.4c0-1.5-1.1-2.5-3.7-2.5c-0.7,0-1.3,0-1.8,0.1
			l0.9-6.6h6.7V5.6z"/>
	</g>
	<g>
		<path d="M59.2,16.5V15l1.5-1.4c3.1-2.8,4.5-4.4,4.5-6.1c0-1.2-0.6-2.2-2.3-2.2c-1.1,0-2.1,0.6-2.8,1.1l-0.7-1.7
			c0.9-0.8,2.4-1.3,4-1.3c2.9,0,4.3,1.8,4.3,3.9c0,2.3-1.6,4.1-3.9,6.2l-1.1,1v0H68v2H59.2z"/>
		<path d="M79.1,9.9c0,4.2-1.6,6.8-4.7,6.8c-3,0-4.6-2.7-4.6-6.7c0-4,1.7-6.8,4.8-6.8C77.6,3.3,79.1,6.1,79.1,9.9z M72.2,10.1
			c0,3.2,0.9,4.8,2.2,4.8c1.4,0,2.2-1.8,2.2-4.9c0-3-0.7-4.8-2.2-4.8C73.1,5.2,72.2,6.8,72.2,10.1z"/>
	</g>
	<g>
		<path d="M101.1,5.7L101.1,5.7l-2.4,1.2l-0.4-1.9l3.2-1.6h2.1v13h-2.4V5.7z"/>
		<path d="M116.2,5.6h-5l-0.4,2.6c0.3,0,0.6-0.1,0.9-0.1c1.1,0,2.3,0.3,3.2,0.8c1,0.6,1.7,1.7,1.7,3.3c0,2.5-2.1,4.5-5.3,4.5
			c-1.5,0-2.8-0.4-3.4-0.8l0.5-1.9c0.6,0.3,1.7,0.7,2.9,0.7c1.4,0,2.8-0.8,2.8-2.4c0-1.5-1.1-2.5-3.7-2.5c-0.7,0-1.3,0-1.8,0.1
			l0.9-6.6h6.7V5.6z"/>
	</g>
	<g>
		<path d="M141.1,5.7L141.1,5.7l-2.4,1.2l-0.4-1.9l3.2-1.6h2.1v13h-2.4V5.7z"/>
		<path d="M157.1,9.9c0,4.2-1.6,6.8-4.7,6.8c-3,0-4.6-2.7-4.6-6.7c0-4,1.7-6.8,4.8-6.8C155.6,3.3,157.1,6.1,157.1,9.9z M150.2,10.1
			c0,3.2,0.9,4.8,2.2,4.8c1.4,0,2.2-1.8,2.2-4.9c0-3-0.7-4.8-2.2-4.8C151.1,5.2,150.2,6.8,150.2,10.1z"/>
	</g>
	<g>
		<path d="M190.5,5.6h-5l-0.4,2.6c0.3,0,0.6-0.1,0.9-0.1c1.1,0,2.3,0.3,3.2,0.8c1,0.6,1.7,1.7,1.7,3.3c0,2.5-2.1,4.5-5.3,4.5
			c-1.5,0-2.8-0.4-3.4-0.8l0.5-1.9c0.6,0.3,1.7,0.7,2.9,0.7c1.4,0,2.8-0.8,2.8-2.4c0-1.5-1.1-2.5-3.7-2.5c-0.7,0-1.3,0-1.8,0.1
			l0.9-6.6h6.7V5.6z"/>
	</g>
	<g>
		<path d="M230.4,9.9c0,4.2-1.6,6.8-4.7,6.8c-3,0-4.6-2.7-4.6-6.7c0-4,1.7-6.8,4.8-6.8C228.9,3.3,230.4,6.1,230.4,9.9z M223.5,10.1
			c0,3.2,0.9,4.8,2.2,4.8c1.4,0,2.2-1.8,2.2-4.9c0-3-0.7-4.8-2.2-4.8C224.4,5.2,223.5,6.8,223.5,10.1z"/>
	</g>
</g>
</svg>
